<svg width="12" height="12" viewBox="0 0 12 12" fill="none" xmlns="http://www.w3.org/2000/svg">
<path d="M6.03625 0C2.72275 0 0.0362549 2.6865 0.0362549 6C0.0362549 9.3135 2.72275 12 6.03625 12C9.03125 12 11.5133 9.806 11.9633 6.9375H7.77075V8.461H6.03575V6.9375H4.71476C3.21126 6.9375 2.38025 6.0415 2.38025 4.671C2.38025 4.015 2.49775 3.328 2.49775 3.328H3.97425V4.085C3.97425 4.8305 4.43675 5.063 4.91125 5.063H6.03625L6.03625 3.399L7.77126 3.665L7.77126 5.063H11.9638C11.5133 2.194 9.03076 0 6.03625 0Z" fill="white"/>
</svg>
