<svg width="12" height="12" viewBox="0 0 12 12" fill="none" xmlns="http://www.w3.org/2000/svg">
<path d="M0 6C0 7.63 0.0075 7.8335 0.036 8.4735C0.066 9.1125 0.1665 9.5475 0.315 9.93C0.468 10.3245 0.6735 10.6595 1.007 10.993C1.3405 11.3265 1.675 11.5325 2.07 11.685C2.4525 11.8335 2.8875 11.9345 3.5265 11.964C4.1665 11.994 4.37 12 6 12C7.63 12 7.8335 11.9925 8.4735 11.964C9.112 11.934 9.5475 11.8335 9.93 11.685C10.324 11.532 10.6595 11.3265 10.993 10.993C11.326 10.6595 11.5325 10.325 11.685 9.93C11.833 9.547 11.9345 9.112 11.964 8.4735C11.994 7.8335 12 7.63 12 6C12 4.37 11.9925 4.1665 11.964 3.5265C11.934 2.888 11.833 2.4525 11.685 2.07C11.532 1.676 11.326 1.3405 10.993 1.007C10.6595 0.674 10.3255 0.4675 9.93 0.315C9.5475 0.167 9.112 0.0655003 8.4735 0.0360003C7.8335 0.00600052 7.63 0 6 0C4.37 0 4.1665 0.00750065 3.5265 0.0360003C2.888 0.066 2.452 0.167 2.07 0.315C1.6755 0.467999 1.3405 0.674 1.007 1.007C0.6735 1.3405 0.4675 1.6745 0.315 2.07C0.1665 2.4525 0.0655 2.888 0.036 3.5265C0.006 4.1665 0 4.37 0 6ZM1.08 6C1.08 4.3985 1.088 4.2075 1.1155 3.575C1.143 2.99 1.24 2.6725 1.323 2.4615C1.4315 2.1805 1.5615 1.9815 1.771 1.7705C1.981 1.561 2.1805 1.431 2.4615 1.3225C2.6725 1.2405 2.99 1.1425 3.575 1.116C4.208 1.0875 4.398 1.081 6 1.081C7.602 1.081 7.7925 1.0885 8.425 1.118C9.01 1.1485 9.3275 1.246 9.5385 1.3285C9.8195 1.4405 10.0185 1.568 10.2295 1.778C10.439 1.9875 10.569 2.19 10.6775 2.468C10.7595 2.678 10.8575 3.0005 10.884 3.5855C10.9125 4.2225 10.919 4.41 10.919 6.015C10.919 7.6205 10.9115 7.808 10.882 8.4445C10.8515 9.03 10.754 9.3525 10.6715 9.5625C10.5595 9.847 10.432 10.0425 10.222 10.252C10.0125 10.4625 9.81 10.597 9.532 10.702C9.322 10.7845 8.9995 10.8815 8.4145 10.912C7.7845 10.9345 7.59 10.9425 5.9925 10.9425C4.3945 10.9425 4.1995 10.9345 3.562 10.912C2.977 10.8815 2.655 10.7845 2.445 10.702C2.16 10.597 1.965 10.4625 1.7545 10.252C1.545 10.0425 1.41 9.847 1.3055 9.5625C1.2225 9.3525 1.125 9.037 1.095 8.452C1.0725 7.8145 1.065 7.627 1.065 6.0225L1.08 6ZM2.919 6C2.919 7.7025 4.299 9.081 6 9.081C7.7025 9.081 9.081 7.701 9.081 6C9.081 4.2975 7.701 2.919 6 2.919C4.2975 2.919 2.919 4.299 2.919 6ZM8 6C8 7.105 7.105 8 6 8C4.895 8 4 7.105 4 6C4 4.895 4.895 4 6 4C7.105 4 8 4.895 8 6ZM2.7975 2.077C3.195 2.077 3.5175 2.4 3.5175 2.797C3.5175 3.1945 3.1945 3.517 2.7975 3.517C2.4005 3.517 2.078 3.194 2.078 2.797C2.0775 2.4005 2.4005 2.077 2.7975 2.077Z" fill="white"/>
</svg>
