<svg width="10" height="12" viewBox="0 0 10 12" fill="none" xmlns="http://www.w3.org/2000/svg">
<path d="M1.28517 0.0235004C1.48297 0.472759 1.61354 0.948698 1.67267 1.436C1.36429 0.922944 0.880688 0.538796 0.311166 0.3545C0.588666 0.83 0.790666 1.357 0.903166 1.918C0.50738 2.28812 0.244876 2.77857 0.156416 3.31318C0.0679564 3.84779 0.158491 4.39665 0.413961 4.87453C0.669431 5.35241 1.07554 5.73257 1.56923 5.95597C2.06291 6.17938 2.61655 6.23352 3.14417 6.11C3.04767 8.155 2.06517 9.9665 0.581166 11.18C0.956072 11.4006 1.38368 11.5157 1.81867 11.513C2.67367 11.513 3.42517 11.078 3.86667 10.419C3.85423 10.8096 3.74863 11.1915 3.55867 11.533H3.58867C4.15686 11.5332 4.70764 11.3369 5.14754 10.9772C5.58745 10.6176 5.8894 10.1169 6.00217 9.56C6.09886 9.92085 6.11338 10.2988 6.04467 10.666C6.53367 10.5079 6.96113 10.2012 7.26741 9.78849C7.57369 9.37582 7.74351 8.87782 7.75317 8.364C8.43614 9.23424 8.80682 10.3088 8.80567 11.415C8.80567 11.61 8.79417 11.8045 8.77217 12C9.49433 10.8721 9.87767 9.56074 9.87667 8.2215C9.87667 3.695 6.12867 1.2225 2.88417 1.2225C2.77917 1.2225 2.67417 1.2225 2.56917 1.23C2.2216 0.747003 1.79008 0.330385 1.29517 0L1.28517 0.0235004Z" fill="white"/>
</svg>
