<svg width="10" height="12" viewBox="0 0 10 12" fill="none" xmlns="http://www.w3.org/2000/svg">
<path d="M2.09296 0.251C1.8376 0.318793 1.60453 0.452488 1.41709 0.638696C1.22966 0.824903 1.09443 1.05709 1.02496 1.312C0.772461 2.2475 0.772461 6 0.772461 6C0.772461 6 0.772461 9.7525 1.02496 10.6885C1.09455 10.9433 1.22983 11.1754 1.41725 11.3615C1.60468 11.5476 1.83768 11.6812 2.09296 11.749C3.03496 12 4.99996 12 4.99996 12C4.99996 12 6.96496 12 7.90696 11.749C8.16232 11.6812 8.39539 11.5475 8.58283 11.3613C8.77027 11.1751 8.90549 10.9429 8.97496 10.688C9.22746 9.7525 9.22746 6 9.22746 6C9.22746 6 9.22746 2.2475 8.97496 1.3115C8.90554 1.05657 8.77033 0.824356 8.58288 0.638141C8.39544 0.451925 8.16235 0.318247 7.90696 0.2505C6.96496 0 4.99996 0 4.99996 0C4.99996 0 3.03496 0 2.09296 0.251ZM6.78396 7.2275H3.21596L4.99996 4.091L6.78396 7.2275Z" fill="white"/>
</svg>
