<?xml version="1.0" encoding="UTF-8"?>
<!DOCTYPE svg PUBLIC "-//W3C//DTD SVG 1.1//EN" "http://www.w3.org/Graphics/SVG/1.1/DTD/svg11.dtd">
<svg xmlns="http://www.w3.org/2000/svg" version="1.1" width="336px" height="188px" style="shape-rendering:geometricPrecision; text-rendering:geometricPrecision; image-rendering:optimizeQuality; fill-rule:evenodd; clip-rule:evenodd" xmlns:xlink="http://www.w3.org/1999/xlink">
<g><path style="opacity:1" fill="#fde1fc" d="M -0.5,-0.5 C 111.5,-0.5 223.5,-0.5 335.5,-0.5C 335.5,6.83333 335.5,14.1667 335.5,21.5C 286.832,21.3333 238.166,21.5 189.5,22C 188.756,23.0386 187.756,23.5386 186.5,23.5C 185.71,24.6085 185.21,25.9419 185,27.5C 184.581,26.3279 183.915,25.3279 183,24.5C 179.363,27.7737 176.363,31.4403 174,35.5C 173.697,69.8665 173.531,104.2 173.5,138.5C 173.64,140.03 174.307,141.03 175.5,141.5C 175.783,142.289 176.283,142.956 177,143.5C 177.499,149.491 177.666,155.491 177.5,161.5C 176.167,161.5 174.833,161.5 173.5,161.5C 173.783,160.711 174.283,160.044 175,159.5C 175.499,154.177 175.666,148.844 175.5,143.5C 140.833,143.5 106.167,143.5 71.5,143.5C 71.44,142.957 71.1067,142.624 70.5,142.5C 70.1667,145.833 69.8333,149.167 69.5,152.5C 69.5136,156.239 70.1803,159.572 71.5,162.5C 107.168,162.333 142.835,162.5 178.5,163C 182.053,169.756 187.72,172.756 195.5,172C 242.165,172.5 288.832,172.667 335.5,172.5C 335.5,177.5 335.5,182.5 335.5,187.5C 223.5,187.5 111.5,187.5 -0.5,187.5C -0.5,124.833 -0.5,62.1667 -0.5,-0.5 Z"/></g>
<g><path style="opacity:1" fill="#efeeef" d="M 335.5,21.5 C 335.5,24.8333 335.5,28.1667 335.5,31.5C 293.833,31.5 252.167,31.5 210.5,31.5C 210.5,28.5 210.5,25.5 210.5,22.5C 206.436,23.2093 202.436,23.2093 198.5,22.5C 198.614,25.216 197.614,27.216 195.5,28.5C 195.217,29.2891 194.717,29.9558 194,30.5C 192.8,28.5884 191.133,27.2551 189,26.5C 188.95,28.744 188.117,30.4107 186.5,31.5C 186.5,28.8333 186.5,26.1667 186.5,23.5C 187.756,23.5386 188.756,23.0386 189.5,22C 238.166,21.5 286.832,21.3333 335.5,21.5 Z"/></g>
<g><path style="opacity:1" fill="#e06a55" d="M 195.5,28.5 C 193.952,28.1788 193.285,27.1788 193.5,25.5C 196.248,25.4017 196.914,26.4017 195.5,28.5 Z"/></g>
<g><path style="opacity:1" fill="#9d919f" d="M 31.5,27.5 C 34.7131,27.19 37.7131,27.5233 40.5,28.5C 37.8333,28.5 35.1667,28.5 32.5,28.5C 32.5,35.5 32.5,42.5 32.5,49.5C 35.1667,49.5 37.8333,49.5 40.5,49.5C 38.0521,50.4731 35.3854,50.8064 32.5,50.5C 31.508,43.0182 31.1746,35.3516 31.5,27.5 Z"/></g>
<g><path style="opacity:1" fill="#f9f8f8" d="M 335.5,31.5 C 335.5,75.5 335.5,119.5 335.5,163.5C 286.499,163.667 237.499,163.5 188.5,163C 187.619,162.292 186.953,161.458 186.5,160.5C 186.5,117.5 186.5,74.5 186.5,31.5C 188.117,30.4107 188.95,28.744 189,26.5C 191.133,27.2551 192.8,28.5884 194,30.5C 194.717,29.9558 195.217,29.2891 195.5,28.5C 197.614,27.216 198.614,25.216 198.5,22.5C 202.436,23.2093 206.436,23.2093 210.5,22.5C 210.5,25.5 210.5,28.5 210.5,31.5C 252.167,31.5 293.833,31.5 335.5,31.5 Z"/></g>
<g><path style="opacity:1" fill="#f2d89c" d="M 199.5,24.5 C 200.833,24.5 202.167,24.5 203.5,24.5C 203.5,25.8333 203.5,27.1667 203.5,28.5C 202.167,28.5 200.833,28.5 199.5,28.5C 199.5,27.1667 199.5,25.8333 199.5,24.5 Z"/></g>
<g><path style="opacity:1" fill="#35b03d" d="M 205.5,25.5 C 208.957,25.6672 209.29,26.6672 206.5,28.5C 205.614,27.675 205.281,26.675 205.5,25.5 Z"/></g>
<g><path style="opacity:1" fill="#29242a" d="M 18.5,28.5 C 20.1667,28.5 21.8333,28.5 23.5,28.5C 25.4974,35.8221 27.4974,43.1554 29.5,50.5C 25.5,51.1667 23.8333,49.5 24.5,45.5C 22.1432,45.3367 19.8098,45.5034 17.5,46C 16.6634,47.0113 16.33,48.1779 16.5,49.5C 15.1667,49.5 13.8333,49.5 12.5,49.5C 14.2002,42.4276 16.2002,35.4276 18.5,28.5 Z"/></g>
<g><path style="opacity:1" fill="#242025" d="M 40.5,28.5 C 45.0219,30.1955 47.0219,33.5289 46.5,38.5C 47.0995,43.7795 45.0995,47.4461 40.5,49.5C 37.8333,49.5 35.1667,49.5 32.5,49.5C 32.5,42.5 32.5,35.5 32.5,28.5C 35.1667,28.5 37.8333,28.5 40.5,28.5 Z"/></g>
<g><path style="opacity:1" fill="#f4e3f2" d="M 36.5,31.5 C 41.1704,31.6154 43.1704,34.1154 42.5,39C 43.1704,43.8846 41.1704,46.3846 36.5,46.5C 36.5,41.5 36.5,36.5 36.5,31.5 Z"/></g>
<g><path style="opacity:1" fill="#28232a" d="M 108.5,29.5 C 109.946,28.3871 111.613,28.2204 113.5,29C 115.358,37.54 117.025,37.3733 118.5,28.5C 120.288,28.2148 121.955,28.5481 123.5,29.5C 118.214,36.3897 118.547,43.0564 124.5,49.5C 122.647,50.7596 120.814,50.7596 119,49.5C 117.514,41.0887 115.681,40.7553 113.5,48.5C 111.926,49.6309 110.259,49.7975 108.5,49C 109.978,45.5615 111.645,42.2281 113.5,39C 112.194,35.5504 110.527,32.3837 108.5,29.5 Z"/></g>
<g><path style="opacity:1" fill="#f0e8f0" d="M 20.5,34.5 C 21.6118,36.5994 22.2785,38.9327 22.5,41.5C 21.5,41.5 20.5,41.5 19.5,41.5C 19.448,39.0971 19.7814,36.7638 20.5,34.5 Z"/></g>
<g><path style="opacity:1" fill="#928b95" d="M 91.5,31.5 C 91.5,33.1667 91.5,34.8333 91.5,36.5C 93.8333,36.5 96.1667,36.5 98.5,36.5C 98.7678,38.099 98.4345,39.4324 97.5,40.5C 97.5,39.5 97.5,38.5 97.5,37.5C 95.1667,37.5 92.8333,37.5 90.5,37.5C 90.2053,35.2646 90.5386,33.2646 91.5,31.5 Z"/></g>
<g><path style="opacity:1" fill="#27242b" d="M 135.5,28.5 C 140.022,30.1955 142.022,33.5289 141.5,38.5C 141.458,41.2586 140.958,43.9253 140,46.5C 138.736,48.607 136.903,49.607 134.5,49.5C 132.167,49.5 129.833,49.5 127.5,49.5C 127.5,42.5 127.5,35.5 127.5,28.5C 130.167,28.5 132.833,28.5 135.5,28.5 Z"/></g>
<g><path style="opacity:1" fill="#f7e2f6" d="M 131.5,31.5 C 133.144,31.2865 134.644,31.6198 136,32.5C 136.667,36.8333 136.667,41.1667 136,45.5C 134.644,46.3802 133.144,46.7135 131.5,46.5C 131.5,41.5 131.5,36.5 131.5,31.5 Z"/></g>
<g><path style="opacity:1" fill="#80767f" d="M 135.5,28.5 C 132.833,28.5 130.167,28.5 127.5,28.5C 127.5,35.5 127.5,42.5 127.5,49.5C 129.833,49.5 132.167,49.5 134.5,49.5C 132.052,50.4731 129.385,50.8064 126.5,50.5C 126.5,42.8333 126.5,35.1667 126.5,27.5C 129.713,27.19 132.713,27.5233 135.5,28.5 Z"/></g>
<g><path style="opacity:1" fill="#f7e9f7" d="M 68.5,27.5 C 68.5,35.1667 68.5,42.8333 68.5,50.5C 72.0419,50.8128 75.3752,50.4794 78.5,49.5C 80.0174,49.4894 81.1841,48.8228 82,47.5C 82.9357,44.208 82.4357,41.208 80.5,38.5C 80.8555,37.4777 81.5222,36.811 82.5,36.5C 83.4959,36.4142 84.3292,36.7476 85,37.5C 85.4983,34.1832 85.665,30.8499 85.5,27.5C 90.3633,27.1805 95.03,27.5139 99.5,28.5C 95.1667,28.5 90.8333,28.5 86.5,28.5C 86.5,35.8333 86.5,43.1667 86.5,50.5C 90.8333,50.5 95.1667,50.5 99.5,50.5C 86.3352,51.1317 73.0019,51.465 59.5,51.5C 56.7414,51.458 54.0747,50.958 51.5,50C 50.6921,48.2942 49.3588,47.4609 47.5,47.5C 47.7778,49.3464 47.1112,50.6798 45.5,51.5C 41.154,51.7085 36.8207,51.3751 32.5,50.5C 35.3854,50.8064 38.0521,50.4731 40.5,49.5C 45.0995,47.4461 47.0995,43.7795 46.5,38.5C 47.0219,33.5289 45.0219,30.1955 40.5,28.5C 37.7131,27.5233 34.7131,27.19 31.5,27.5C 37.1886,25.4095 42.1886,26.5762 46.5,31C 47.448,31.4828 48.448,31.6495 49.5,31.5C 49.238,30.0222 49.5713,28.6888 50.5,27.5C 52.3559,26.7242 53.6893,25.3909 54.5,23.5C 55.3857,24.325 55.719,25.325 55.5,26.5C 58.9297,26.1065 62.0964,26.7732 65,28.5C 66.0113,27.6634 67.1779,27.33 68.5,27.5 Z"/></g>
<g><path style="opacity:1" fill="#2a272e" d="M 54.5,27.5 C 59.6703,26.8154 63.1703,28.8154 65,33.5C 65.8098,38.2574 65.4764,42.9241 64,47.5C 58.6113,51.7549 53.9447,51.0883 50,45.5C 49.3333,41.1667 49.3333,36.8333 50,32.5C 51.3657,30.6383 52.8657,28.9717 54.5,27.5 Z"/></g>
<g><path style="opacity:1" fill="#252227" d="M 78.5,28.5 C 81.8898,29.9437 83.2232,32.6104 82.5,36.5C 81.5222,36.811 80.8555,37.4777 80.5,38.5C 82.4357,41.208 82.9357,44.208 82,47.5C 81.1841,48.8228 80.0174,49.4894 78.5,49.5C 75.5,49.5 72.5,49.5 69.5,49.5C 69.5,42.5 69.5,35.5 69.5,28.5C 72.5,28.5 75.5,28.5 78.5,28.5 Z"/></g>
<g><path style="opacity:1" fill="#f8e6f7" d="M 73.5,40.5 C 75.1667,40.5 76.8333,40.5 78.5,40.5C 79.5749,44.938 77.9083,46.938 73.5,46.5C 73.5,44.5 73.5,42.5 73.5,40.5 Z"/></g>
<g><path style="opacity:1" fill="#736e75" d="M 68.5,27.5 C 72.0419,27.1872 75.3752,27.5206 78.5,28.5C 75.5,28.5 72.5,28.5 69.5,28.5C 69.5,35.5 69.5,42.5 69.5,49.5C 72.5,49.5 75.5,49.5 78.5,49.5C 75.3752,50.4794 72.0419,50.8128 68.5,50.5C 68.5,42.8333 68.5,35.1667 68.5,27.5 Z"/></g>
<g><path style="opacity:1" fill="#eddbec" d="M 55.5,31.5 C 58.2385,30.9648 60.0718,31.9648 61,34.5C 61.6667,37.5 61.6667,40.5 61,43.5C 59.1735,47.0374 56.8402,47.3707 54,44.5C 52.9784,39.8711 53.4784,35.5377 55.5,31.5 Z"/></g>
<g><path style="opacity:1" fill="#ecddec" d="M 73.5,31.5 C 78.1585,31.0146 79.4919,32.848 77.5,37C 76.2068,37.49 74.8734,37.6567 73.5,37.5C 73.5,35.5 73.5,33.5 73.5,31.5 Z"/></g>
<g><path style="opacity:1" fill="#29252a" d="M 99.5,28.5 C 99.5,29.5 99.5,30.5 99.5,31.5C 96.8333,31.5 94.1667,31.5 91.5,31.5C 90.5386,33.2646 90.2053,35.2646 90.5,37.5C 92.8333,37.5 95.1667,37.5 97.5,37.5C 97.5,38.5 97.5,39.5 97.5,40.5C 95.1667,40.5 92.8333,40.5 90.5,40.5C 90.5,42.5 90.5,44.5 90.5,46.5C 93.5,46.5 96.5,46.5 99.5,46.5C 99.5,47.8333 99.5,49.1667 99.5,50.5C 95.1667,50.5 90.8333,50.5 86.5,50.5C 86.5,43.1667 86.5,35.8333 86.5,28.5C 90.8333,28.5 95.1667,28.5 99.5,28.5 Z"/></g>
<g><path style="opacity:1" fill="#d0b9cf" d="M 185.5,30.5 C 185.168,74.0032 185.501,117.337 186.5,160.5C 186.953,161.458 187.619,162.292 188.5,163C 237.499,163.5 286.499,163.667 335.5,163.5C 335.5,164.5 335.5,165.5 335.5,166.5C 287.499,166.667 239.499,166.5 191.5,166C 188.447,165.821 185.447,165.321 182.5,164.5C 181.339,121.208 181.172,77.8746 182,34.5C 183.55,33.4092 184.717,32.0758 185.5,30.5 Z"/></g>
<g><path style="opacity:1" fill="#250213" d="M 296.5,59.5 C 279.672,60.3316 262.672,60.8316 245.5,61C 243.372,61.6552 241.372,62.4886 239.5,63.5C 240.453,61.39 242.119,60.2233 244.5,60C 261.83,59.5001 279.163,59.3334 296.5,59.5 Z"/></g>
<g><path style="opacity:1" fill="#928694" d="M 123.5,62.5 C 123.5,62.8333 123.5,63.1667 123.5,63.5C 122.167,63.5 120.833,63.5 119.5,63.5C 119.666,68.1785 119.499,72.8452 119,77.5C 118.487,76.4734 117.987,75.4734 117.5,74.5C 118.483,70.7016 118.817,66.7016 118.5,62.5C 120.167,62.5 121.833,62.5 123.5,62.5 Z"/></g>
<g><path style="opacity:1" fill="#232027" d="M 84.5,63.5 C 86.6689,67.8379 88.8356,72.1712 91,76.5C 91.499,72.1794 91.6657,67.8461 91.5,63.5C 92.8333,63.5 94.1667,63.5 95.5,63.5C 95.5,70.5 95.5,77.5 95.5,84.5C 93.8333,84.5 92.1667,84.5 90.5,84.5C 89.2306,79.9573 87.3972,75.624 85,71.5C 84.501,75.8206 84.3343,80.1539 84.5,84.5C 83.1667,84.5 81.8333,84.5 80.5,84.5C 80.5,77.5 80.5,70.5 80.5,63.5C 81.8333,63.5 83.1667,63.5 84.5,63.5 Z"/></g>
<g><path style="opacity:1" fill="#f3e2f3" d="M 79.5,63.5 C 79.1755,70.6866 79.5088,77.6866 80.5,84.5C 81.8333,84.5 83.1667,84.5 84.5,84.5C 84.3343,80.1539 84.501,75.8206 85,71.5C 87.3972,75.624 89.2306,79.9573 90.5,84.5C 87.769,83.6261 85.6024,84.6261 84,87.5C 79.2388,87.0309 74.5722,85.6975 70,83.5C 68.9563,84.6226 68.2896,85.9559 68,87.5C 63.7798,87.2993 59.6131,86.2993 55.5,84.5C 56.8333,84.5 58.1667,84.5 59.5,84.5C 57.8089,77.0676 55.8089,69.7343 53.5,62.5C 52.0222,62.238 50.6888,62.5713 49.5,63.5C 47.0917,69.7239 45.0917,76.0572 43.5,82.5C 42.596,83.209 42.2627,84.209 42.5,85.5C 35.2138,86.8685 25.2138,87.3685 12.5,87C 11.3526,79.2462 11.1859,71.4128 12,63.5C 12.3826,62.944 12.8826,62.6107 13.5,62.5C 13.5,69.8333 13.5,77.1667 13.5,84.5C 17.5,84.5 21.5,84.5 25.5,84.5C 25.5,83.5 25.5,82.5 25.5,81.5C 22.8333,81.5 20.1667,81.5 17.5,81.5C 17.5,75.1667 17.5,68.8333 17.5,62.5C 18.29,63.6085 18.79,64.9419 19,66.5C 19.499,70.8206 19.6657,75.1539 19.5,79.5C 21.8333,79.5 24.1667,79.5 26.5,79.5C 26.3341,74.4889 26.5007,69.4889 27,64.5C 27.2784,63.5842 27.7784,62.9175 28.5,62.5C 28.5,62.8333 28.5,63.1667 28.5,63.5C 28.5,70.5 28.5,77.5 28.5,84.5C 32.6344,85.4849 36.9677,85.8182 41.5,85.5C 41.5,83.8333 41.5,82.1667 41.5,80.5C 38.8333,80.5 36.1667,80.5 33.5,80.5C 33.5,78.8333 33.5,77.1667 33.5,75.5C 35.5,75.5 37.5,75.5 39.5,75.5C 39.5,74.1667 39.5,72.8333 39.5,71.5C 37.1667,71.5 34.8333,71.5 32.5,71.5C 32.5,69.8333 32.5,68.1667 32.5,66.5C 35.1667,66.5 37.8333,66.5 40.5,66.5C 41.4345,65.4324 41.7678,64.099 41.5,62.5C 41.4346,62.0618 41.6012,61.7284 42,61.5C 42.804,62.8045 43.9707,63.4712 45.5,63.5C 47.3495,61.4284 49.6829,60.0951 52.5,59.5C 53.1924,60.0253 53.6924,60.6919 54,61.5C 54.3333,61.1667 54.6667,60.8333 55,60.5C 55.8038,66.9113 57.8038,72.9113 61,78.5C 61.5538,72.812 61.3871,67.1454 60.5,61.5C 65.43,61.8025 70.2633,61.4692 75,60.5C 75.5538,63.5077 77.0538,64.5077 79.5,63.5 Z"/></g>
<g><path style="opacity:1" fill="#242025" d="M 28.5,63.5 C 32.5,63.5 36.5,63.5 40.5,63.5C 40.5,64.5 40.5,65.5 40.5,66.5C 37.8333,66.5 35.1667,66.5 32.5,66.5C 32.5,68.1667 32.5,69.8333 32.5,71.5C 34.8333,71.5 37.1667,71.5 39.5,71.5C 39.5,72.8333 39.5,74.1667 39.5,75.5C 37.5,75.5 35.5,75.5 33.5,75.5C 32.5386,77.2646 32.2053,79.2646 32.5,81.5C 35.1667,81.5 37.8333,81.5 40.5,81.5C 40.5,82.5 40.5,83.5 40.5,84.5C 36.5,84.5 32.5,84.5 28.5,84.5C 28.5,77.5 28.5,70.5 28.5,63.5 Z"/></g>
<g><path style="opacity:1" fill="#706372" d="M 28.5,63.5 C 28.5,63.1667 28.5,62.8333 28.5,62.5C 32.8333,62.5 37.1667,62.5 41.5,62.5C 41.7678,64.099 41.4345,65.4324 40.5,66.5C 40.5,65.5 40.5,64.5 40.5,63.5C 36.5,63.5 32.5,63.5 28.5,63.5 Z"/></g>
<g><path style="opacity:1" fill="#480136" d="M 296.5,59.5 C 297.167,59.5 297.5,59.8333 297.5,60.5C 301.001,62.5057 303.167,65.5057 304,69.5C 304.667,85.5 304.667,101.5 304,117.5C 302.893,121.274 300.393,123.774 296.5,125C 288.167,125.167 279.833,125.333 271.5,125.5C 262.168,125.127 253.002,125.127 244,125.5C 242.269,124.259 240.436,123.259 238.5,122.5C 237.026,121.564 236.026,120.23 235.5,118.5C 236.332,102.005 236.832,85.3384 237,68.5C 238.094,66.9221 238.928,65.2554 239.5,63.5C 241.372,62.4886 243.372,61.6552 245.5,61C 262.672,60.8316 279.672,60.3316 296.5,59.5 Z"/></g>
<g><path style="opacity:1" fill="#f5e6f5" d="M 131.5,62.5 C 129.304,63.8541 127.804,65.8541 127,68.5C 126.133,72.9558 126.466,77.2891 128,81.5C 132.006,86.1659 136.506,86.6659 141.5,83C 142.451,79.9433 142.784,76.7766 142.5,73.5C 139.833,73.5 137.167,73.5 134.5,73.5C 134.5,74.5 134.5,75.5 134.5,76.5C 135.5,76.5 136.5,76.5 137.5,76.5C 137.5,78.1667 137.5,79.8333 137.5,81.5C 132.052,82.0681 130.052,79.5681 131.5,74C 130.052,68.4319 132.052,65.9319 137.5,66.5C 137.5,67.5 137.5,68.5 137.5,69.5C 139.199,69.6602 140.866,69.4935 142.5,69C 141.763,66.0991 140.097,63.9325 137.5,62.5C 139.265,61.5386 141.265,61.2053 143.5,61.5C 143.461,69.0122 143.294,76.6789 143,84.5C 142.147,86.1247 141.147,86.4581 140,85.5C 137,86.1667 134,86.8333 131,87.5C 129.167,86.3333 127.667,84.8333 126.5,83C 125.423,82.5304 124.423,82.6971 123.5,83.5C 123.5,76.8333 123.5,70.1667 123.5,63.5C 123.5,63.1667 123.5,62.8333 123.5,62.5C 125.553,63.1498 128.22,63.1498 131.5,62.5 Z"/></g>
<g><path style="opacity:1" fill="#28242a" d="M 67.5,76.5 C 66.5269,78.9479 66.1936,81.6146 66.5,84.5C 65.1667,84.5 63.8333,84.5 62.5,84.5C 62.5,77.1667 62.5,69.8333 62.5,62.5C 65.8499,62.335 69.1832,62.5017 72.5,63C 76.2916,65.0527 77.4582,68.2194 76,72.5C 75.5348,73.9308 74.7014,75.0975 73.5,76C 74.9292,78.6897 75.9292,81.5231 76.5,84.5C 72.5641,84.0456 70.3974,81.7122 70,77.5C 69.3292,76.7476 68.4959,76.4142 67.5,76.5 Z"/></g>
<g><path style="opacity:1" fill="#f8e7f4" d="M 67.5,66.5 C 71.6772,65.8416 73.1772,67.5082 72,71.5C 71.6174,72.056 71.1174,72.3893 70.5,72.5C 69.5,72.5 68.5,72.5 67.5,72.5C 67.5,70.5 67.5,68.5 67.5,66.5 Z"/></g>
<g><path style="opacity:1" fill="#948a94" d="M 67.5,66.5 C 67.5,68.5 67.5,70.5 67.5,72.5C 68.5,72.5 69.5,72.5 70.5,72.5C 69.4324,73.4345 68.099,73.7678 66.5,73.5C 66.1984,70.9407 66.5318,68.6074 67.5,66.5 Z"/></g>
<g><path style="opacity:1" fill="#998d9c" d="M 84.5,63.5 C 83.1667,63.5 81.8333,63.5 80.5,63.5C 80.5,70.5 80.5,77.5 80.5,84.5C 79.5088,77.6866 79.1755,70.6866 79.5,63.5C 81.1667,62.1667 82.8333,62.1667 84.5,63.5 Z"/></g>
<g><path style="opacity:1" fill="#210514" d="M 239.5,63.5 C 238.928,65.2554 238.094,66.9221 237,68.5C 236.832,85.3384 236.332,102.005 235.5,118.5C 235.333,101.497 235.5,84.4967 236,67.5C 236.66,65.6763 237.827,64.343 239.5,63.5 Z"/></g>
<g><path style="opacity:1" fill="#272429" d="M 55.5,84.5 C 55.4606,83.4168 55.1272,82.4168 54.5,81.5C 52.2573,80.5258 49.924,80.1924 47.5,80.5C 47.5,81.8333 47.5,83.1667 47.5,84.5C 45.5168,84.8432 44.1834,84.1765 43.5,82.5C 45.0917,76.0572 47.0917,69.7239 49.5,63.5C 50.6888,62.5713 52.0222,62.238 53.5,62.5C 55.8089,69.7343 57.8089,77.0676 59.5,84.5C 58.1667,84.5 56.8333,84.5 55.5,84.5 Z"/></g>
<g><path style="opacity:1" fill="#e8e1ea" d="M 50.5,69.5 C 52.229,70.9527 53.229,72.9527 53.5,75.5C 52.3112,76.4287 50.9778,76.762 49.5,76.5C 49.6741,74.139 50.0074,71.8056 50.5,69.5 Z"/></g>
<g><path style="opacity:1" fill="#a69eaa" d="M 99.5,63.5 C 100.919,62.5489 102.585,62.2155 104.5,62.5C 104.825,70.0191 104.492,77.3524 103.5,84.5C 103.5,77.5 103.5,70.5 103.5,63.5C 102.167,63.5 100.833,63.5 99.5,63.5 Z"/></g>
<g><path style="opacity:1" fill="#797079" d="M 112.5,63.5 C 111.167,63.5 109.833,63.5 108.5,63.5C 108.5,70.5 108.5,77.5 108.5,84.5C 109.5,84.5 110.5,84.5 111.5,84.5C 111.173,79.7863 111.507,75.1196 112.5,70.5C 113.298,70.9569 113.631,71.6236 113.5,72.5C 112.515,76.6344 112.182,80.9677 112.5,85.5C 110.833,85.5 109.167,85.5 107.5,85.5C 107.5,77.8333 107.5,70.1667 107.5,62.5C 109.415,62.2155 111.081,62.5489 112.5,63.5 Z"/></g>
<g><path style="opacity:1" fill="#2b282e" d="M 131.5,62.5 C 133.5,62.5 135.5,62.5 137.5,62.5C 140.097,63.9325 141.763,66.0991 142.5,69C 140.866,69.4935 139.199,69.6602 137.5,69.5C 137.5,68.5 137.5,67.5 137.5,66.5C 132.052,65.9319 130.052,68.4319 131.5,74C 130.052,79.5681 132.052,82.0681 137.5,81.5C 137.5,79.8333 137.5,78.1667 137.5,76.5C 136.5,76.5 135.5,76.5 134.5,76.5C 134.5,75.5 134.5,74.5 134.5,73.5C 137.167,73.5 139.833,73.5 142.5,73.5C 142.784,76.7766 142.451,79.9433 141.5,83C 136.506,86.6659 132.006,86.1659 128,81.5C 126.466,77.2891 126.133,72.9558 127,68.5C 127.804,65.8541 129.304,63.8541 131.5,62.5 Z"/></g>
<g><path style="opacity:1" fill="#221e22" d="M 112.5,63.5 C 114.367,67.112 116.034,70.7787 117.5,74.5C 117.987,75.4734 118.487,76.4734 119,77.5C 119.499,72.8452 119.666,68.1785 119.5,63.5C 120.833,63.5 122.167,63.5 123.5,63.5C 123.5,70.1667 123.5,76.8333 123.5,83.5C 121.965,84.7879 120.299,84.7879 118.5,83.5C 116.633,79.888 114.966,76.2213 113.5,72.5C 113.631,71.6236 113.298,70.9569 112.5,70.5C 111.507,75.1196 111.173,79.7863 111.5,84.5C 110.5,84.5 109.5,84.5 108.5,84.5C 108.5,77.5 108.5,70.5 108.5,63.5C 109.833,63.5 111.167,63.5 112.5,63.5 Z"/></g>
<g><path style="opacity:1" fill="#030005" d="M 99.5,63.5 C 100.833,63.5 102.167,63.5 103.5,63.5C 103.5,70.5 103.5,77.5 103.5,84.5C 102.167,84.5 100.833,84.5 99.5,84.5C 99.5,77.5 99.5,70.5 99.5,63.5 Z"/></g>
<g><path style="opacity:1" fill="#2d2d2f" d="M 100.5,64.5 C 101.818,67.2575 102.485,70.4242 102.5,74C 102.167,77.1667 101.833,80.3333 101.5,83.5C 100.504,77.2015 100.17,70.8682 100.5,64.5 Z"/></g>
<g><path style="opacity:1" fill="#8f8593" d="M 67.5,76.5 C 67.5,79.5 67.5,82.5 67.5,85.5C 65.5853,85.7845 63.9187,85.4511 62.5,84.5C 63.8333,84.5 65.1667,84.5 66.5,84.5C 66.1936,81.6146 66.5269,78.9479 67.5,76.5 Z"/></g>
<g><path style="opacity:1" fill="#1f1e20" d="M 13.5,62.5 C 14.8333,62.5 16.1667,62.5 17.5,62.5C 17.5,68.8333 17.5,75.1667 17.5,81.5C 20.1667,81.5 22.8333,81.5 25.5,81.5C 25.5,82.5 25.5,83.5 25.5,84.5C 21.5,84.5 17.5,84.5 13.5,84.5C 13.5,77.1667 13.5,69.8333 13.5,62.5 Z"/></g>
<g><path style="opacity:1" fill="#ada3ad" d="M 33.5,75.5 C 33.5,77.1667 33.5,78.8333 33.5,80.5C 36.1667,80.5 38.8333,80.5 41.5,80.5C 41.5,82.1667 41.5,83.8333 41.5,85.5C 36.9677,85.8182 32.6344,85.4849 28.5,84.5C 32.5,84.5 36.5,84.5 40.5,84.5C 40.5,83.5 40.5,82.5 40.5,81.5C 37.8333,81.5 35.1667,81.5 32.5,81.5C 32.2053,79.2646 32.5386,77.2646 33.5,75.5 Z"/></g>
<g><path style="opacity:1" fill="#edd4ec" d="M 186.5,23.5 C 186.5,26.1667 186.5,28.8333 186.5,31.5C 186.5,74.5 186.5,117.5 186.5,160.5C 185.501,117.337 185.168,74.0032 185.5,30.5C 185.44,29.9569 185.107,29.6236 184.5,29.5C 181.406,31.6879 179.906,34.6879 180,38.5C 179.5,72.8317 179.333,107.165 179.5,141.5C 178.167,141.5 176.833,141.5 175.5,141.5C 174.307,141.03 173.64,140.03 173.5,138.5C 173.531,104.2 173.697,69.8665 174,35.5C 176.363,31.4403 179.363,27.7737 183,24.5C 183.915,25.3279 184.581,26.3279 185,27.5C 185.21,25.9419 185.71,24.6085 186.5,23.5 Z"/></g>
<g><path style="opacity:1" fill="#ee5ee8" d="M 294.5,106.5 C 288.862,109.277 283.195,109.11 277.5,106C 271.464,97.9487 272.464,90.9487 280.5,85C 283.063,83.9207 285.729,83.4207 288.5,83.5C 288.5,80.5 288.5,77.5 288.5,74.5C 290.833,74.5 293.167,74.5 295.5,74.5C 295.828,85.3464 295.494,96.0131 294.5,106.5 Z"/></g>
<g><path style="opacity:1" fill="#4a0136" d="M 283.5,89.5 C 285.167,89.5 286.833,89.5 288.5,89.5C 288.5,93.8333 288.5,98.1667 288.5,102.5C 281.631,102.462 279.131,99.129 281,92.5C 282.045,91.6266 282.878,90.6266 283.5,89.5 Z"/></g>
<g><path style="opacity:1" fill="#fd59fb" d="M 294.5,106.5 C 289.12,106.676 283.787,106.342 278.5,105.5C 278.222,103.654 278.889,102.32 280.5,101.5C 283.276,103.13 286.276,103.797 289.5,103.5C 289.667,94.1594 290,84.826 290.5,75.5C 291.833,75.5 293.167,75.5 294.5,75.5C 294.5,85.8333 294.5,96.1667 294.5,106.5 Z"/></g>
<g><path style="opacity:1" fill="#f45def" d="M 245.5,77.5 C 247.966,76.3659 250.633,76.1993 253.5,77C 255.378,80.5906 257.378,84.0906 259.5,87.5C 261.626,84.0814 263.626,80.5814 265.5,77C 267.902,76.1859 270.235,76.3526 272.5,77.5C 269.699,82.2689 267.033,87.1022 264.5,92C 266.99,97.3152 269.99,102.315 273.5,107C 270.446,107.821 267.446,107.655 264.5,106.5C 262.921,103.006 261.087,99.6728 259,96.5C 257.421,99.9939 255.587,103.327 253.5,106.5C 250.894,107.652 248.227,107.818 245.5,107C 248.516,101.99 251.516,96.9899 254.5,92C 251.653,87.0044 248.653,82.171 245.5,77.5 Z"/></g>
<g><path style="opacity:1" fill="#2d2830" d="M 102.5,97.5 C 106.833,97.5 111.167,97.5 115.5,97.5C 115.5,98.8333 115.5,100.167 115.5,101.5C 112.833,101.5 110.167,101.5 107.5,101.5C 107.5,103.167 107.5,104.833 107.5,106.5C 109.833,106.5 112.167,106.5 114.5,106.5C 114.5,107.833 114.5,109.167 114.5,110.5C 111.833,110.5 109.167,110.5 106.5,110.5C 106.5,112.5 106.5,114.5 106.5,116.5C 109.5,116.5 112.5,116.5 115.5,116.5C 115.5,117.5 115.5,118.5 115.5,119.5C 111.167,119.5 106.833,119.5 102.5,119.5C 102.5,112.167 102.5,104.833 102.5,97.5 Z"/></g>
<g><path style="opacity:1" fill="#eedeee" d="M 50.5,97.5 C 50.3338,103.842 50.5005,110.175 51,116.5C 51.6979,117.691 52.5313,118.691 53.5,119.5C 53.5654,119.938 53.3988,120.272 53,120.5C 50.7635,119.944 48.7635,118.944 47,117.5C 46.1841,118.823 45.0174,119.489 43.5,119.5C 44.5045,118.317 45.3378,116.984 46,115.5C 46.6667,111.167 46.6667,106.833 46,102.5C 43.5108,97.5841 39.6774,96.2508 34.5,98.5C 33.6667,99.5 32.8333,100.5 32,101.5C 31.3333,106.5 31.3333,111.5 32,116.5C 33.045,117.373 33.8783,118.373 34.5,119.5C 31.3875,118.781 28.3875,118.448 25.5,118.5C 29.5403,114.1 28.8737,112.1 23.5,112.5C 23.5923,116.071 21.9257,117.238 18.5,116C 17.3676,111.587 17.2009,107.087 18,102.5C 19.9688,99.8761 21.8022,99.8761 23.5,102.5C 23.5,103.5 23.5,104.5 23.5,105.5C 25.1667,105.5 26.8333,105.5 28.5,105.5C 28.7373,104.209 28.404,103.209 27.5,102.5C 25.7905,97.817 22.4571,96.317 17.5,98C 15.1853,99.1094 13.6853,100.943 13,103.5C 12.3333,106.833 12.3333,110.167 13,113.5C 13.5661,116.229 15.0661,118.229 17.5,119.5C 17.6309,120.376 17.2975,121.043 16.5,121.5C 12.8737,118.82 11.0404,115.154 11,110.5C 9.49718,105.043 10.6638,100.376 14.5,96.5C 18.4757,95.59 22.309,95.2566 26,95.5C 28.3322,100.515 30.8322,100.681 33.5,96C 36.8333,95.3333 40.1667,95.3333 43.5,96C 45.2792,98.8221 47.6126,99.3221 50.5,97.5 Z"/></g>
<g><path style="opacity:1" fill="#262228" d="M 27.5,102.5 C 27.5299,103.497 27.0299,104.164 26,104.5C 24.9889,103.944 24.1556,103.278 23.5,102.5C 21.8022,99.8761 19.9688,99.8761 18,102.5C 17.2009,107.087 17.3676,111.587 18.5,116C 21.9257,117.238 23.5923,116.071 23.5,112.5C 28.8737,112.1 29.5403,114.1 25.5,118.5C 22.9455,119.388 20.2788,119.721 17.5,119.5C 15.0661,118.229 13.5661,116.229 13,113.5C 12.3333,110.167 12.3333,106.833 13,103.5C 13.6853,100.943 15.1853,99.1094 17.5,98C 22.4571,96.317 25.7905,97.817 27.5,102.5 Z"/></g>
<g><path style="opacity:1" fill="#847181" d="M 23.5,102.5 C 24.1556,103.278 24.9889,103.944 26,104.5C 27.0299,104.164 27.5299,103.497 27.5,102.5C 28.404,103.209 28.7373,104.209 28.5,105.5C 26.8333,105.5 25.1667,105.5 23.5,105.5C 23.5,104.5 23.5,103.5 23.5,102.5 Z"/></g>
<g><path style="opacity:1" fill="#221e26" d="M 94.5,97.5 C 97.144,98.1439 98.8106,99.8106 99.5,102.5C 98.277,103.614 96.9437,103.781 95.5,103C 93.241,99.6236 91.241,99.7903 89.5,103.5C 92.0825,105.765 94.9159,107.765 98,109.5C 100.742,116.604 98.2417,119.937 90.5,119.5C 87.3791,118.712 85.7124,116.712 85.5,113.5C 88.2393,113.707 90.5726,114.707 92.5,116.5C 95.0815,116.253 95.9149,114.92 95,112.5C 92.5184,111.002 90.0184,109.502 87.5,108C 83.8598,100.78 86.1932,97.2804 94.5,97.5 Z"/></g>
<g><path style="opacity:1" fill="#282329" d="M 43.5,119.5 C 40.5,119.5 37.5,119.5 34.5,119.5C 33.8783,118.373 33.045,117.373 32,116.5C 31.3333,111.5 31.3333,106.5 32,101.5C 32.8333,100.5 33.6667,99.5 34.5,98.5C 39.6774,96.2508 43.5108,97.5841 46,102.5C 46.6667,106.833 46.6667,111.167 46,115.5C 45.3378,116.984 44.5045,118.317 43.5,119.5 Z"/></g>
<g><path style="opacity:1" fill="#f3e4f3" d="M 37.5,100.5 C 39.9115,100.137 41.4115,101.137 42,103.5C 42.6667,107.167 42.6667,110.833 42,114.5C 40,117.167 38,117.167 36,114.5C 34.9656,109.543 35.4656,104.876 37.5,100.5 Z"/></g>
<g><path style="opacity:1" fill="#201c23" d="M 50.5,97.5 C 51.8333,97.5 53.1667,97.5 54.5,97.5C 54.3338,103.509 54.5005,109.509 55,115.5C 56.6667,116.833 58.3333,116.833 60,115.5C 60.4995,109.509 60.6662,103.509 60.5,97.5C 61.8333,97.5 63.1667,97.5 64.5,97.5C 64.6662,103.509 64.4995,109.509 64,115.5C 63.5348,116.931 62.7014,118.097 61.5,119C 59.1902,119.497 56.8568,119.663 54.5,119.5C 54.1667,119.5 53.8333,119.5 53.5,119.5C 52.5313,118.691 51.6979,117.691 51,116.5C 50.5005,110.175 50.3338,103.842 50.5,97.5 Z"/></g>
<g><path style="opacity:1" fill="#efddee" d="M 94.5,97.5 C 86.1932,97.2804 83.8598,100.78 87.5,108C 90.0184,109.502 92.5184,111.002 95,112.5C 95.9149,114.92 95.0815,116.253 92.5,116.5C 90.5726,114.707 88.2393,113.707 85.5,113.5C 85.7124,116.712 87.3791,118.712 90.5,119.5C 91.9516,120.302 93.6183,120.802 95.5,121C 94.9747,121.692 94.3081,122.192 93.5,122.5C 87.6839,120.217 81.8505,120.217 76,122.5C 73.1973,119.898 70.364,119.898 67.5,122.5C 67.598,121.384 67.098,120.384 66,119.5C 62.1952,121.453 58.3619,121.453 54.5,119.5C 56.8568,119.663 59.1902,119.497 61.5,119C 62.7014,118.097 63.5348,116.931 64,115.5C 64.4995,109.509 64.6662,103.509 64.5,97.5C 71.2745,95.0112 77.9412,95.3445 84.5,98.5C 86.7504,97.5413 89.0838,96.8747 91.5,96.5C 92.7261,96.5195 93.7261,96.8529 94.5,97.5 Z"/></g>
<g><path style="opacity:1" fill="#272329" d="M 68.5,97.5 C 72.9113,97.021 77.078,97.6876 81,99.5C 83.2657,103.733 82.7657,107.566 79.5,111C 80.9391,113.705 81.9391,116.538 82.5,119.5C 77.91,119.068 75.5767,116.402 75.5,111.5C 74.5,111.5 73.5,111.5 72.5,111.5C 72.5,114.167 72.5,116.833 72.5,119.5C 71.1667,119.5 69.8333,119.5 68.5,119.5C 68.5,112.167 68.5,104.833 68.5,97.5 Z"/></g>
<g><path style="opacity:1" fill="#eee0ed" d="M 72.5,101.5 C 74.1667,101.5 75.8333,101.5 77.5,101.5C 77.6621,103.527 77.4955,105.527 77,107.5C 75.6439,108.38 74.1439,108.714 72.5,108.5C 72.5,106.167 72.5,103.833 72.5,101.5 Z"/></g>
<g><path style="opacity:1" fill="#4a1f37" d="M 297.5,60.5 C 301.719,61.5484 304.553,64.2151 306,68.5C 306.667,85.1667 306.667,101.833 306,118.5C 304.073,123.428 300.573,126.594 295.5,128C 279.833,128.667 264.167,128.667 248.5,128C 244.098,127.968 240.764,126.135 238.5,122.5C 240.436,123.259 242.269,124.259 244,125.5C 253.002,125.127 262.168,125.127 271.5,125.5C 279.833,125.333 288.167,125.167 296.5,125C 300.393,123.774 302.893,121.274 304,117.5C 304.667,101.5 304.667,85.5 304,69.5C 303.167,65.5057 301.001,62.5057 297.5,60.5 Z"/></g>
<g><path style="opacity:1" fill="#eabf6f" d="M 288.5,146.5 C 285.455,146.508 282.455,146.841 279.5,147.5C 279.5,146.5 279.5,145.5 279.5,144.5C 280.5,144.5 281.5,144.5 282.5,144.5C 282.5,143.5 282.5,142.5 282.5,141.5C 285.107,142.316 287.107,143.983 288.5,146.5 Z"/></g>
<g><path style="opacity:1" fill="#df9c77" d="M 302.5,145.5 C 304.5,145.5 306.5,145.5 308.5,145.5C 308.5,146.833 308.5,148.167 308.5,149.5C 309.5,149.5 310.5,149.5 311.5,149.5C 311.881,144.912 313.047,144.578 315,148.5C 315.249,147.376 315.749,146.376 316.5,145.5C 319.396,145.707 322.396,145.873 325.5,146C 322.833,146.667 322.833,147.333 325.5,148C 322.833,148.667 322.833,149.333 325.5,150C 318.148,150.2 310.815,150.367 303.5,150.5C 302.548,148.955 302.215,147.288 302.5,145.5 Z"/></g>
<g><path style="opacity:1" fill="#b5745a" d="M 288.5,146.5 C 288.7,149.765 287.2,151.765 284,152.5C 281.257,151.925 279.757,150.258 279.5,147.5C 282.455,146.841 285.455,146.508 288.5,146.5 Z"/></g>
<g><path style="opacity:1" fill="#24262a" d="M 299.5,145.5 C 299.581,147.052 299.748,148.719 300,150.5C 298.992,150.018 297.825,149.852 296.5,150C 297.222,148.249 298.222,146.749 299.5,145.5 Z"/></g>
<g><path style="opacity:1" fill="#6d4d67" d="M 12.5,147.5 C 13.3227,150.977 13.8227,154.644 14,158.5C 14.21,156.942 14.71,155.609 15.5,154.5C 15.5,156.167 15.5,157.833 15.5,159.5C 14.5,159.5 13.5,159.5 12.5,159.5C 12.5,155.5 12.5,151.5 12.5,147.5 Z"/></g>
<g><path style="opacity:1" fill="#000305" d="M 294.5,145.5 C 295.451,146.919 295.784,148.585 295.5,150.5C 294.448,150.649 293.448,150.483 292.5,150C 294.107,148.951 294.773,147.451 294.5,145.5 Z"/></g>
<g><path style="opacity:1" fill="#89617b" d="M 32.5,146.5 C 31.9106,150.971 32.5772,154.971 34.5,158.5C 33.791,159.404 32.791,159.737 31.5,159.5C 31.1818,154.968 31.5151,150.634 32.5,146.5 Z"/></g>
<g><path style="opacity:1" fill="#2a0f26" d="M 24.5,146.5 C 25.4959,146.414 26.3292,146.748 27,147.5C 27.94,151.101 29.1067,154.601 30.5,158C 28.7166,158.232 27.0499,157.732 25.5,156.5C 23.9501,157.732 22.2834,158.232 20.5,158C 22.2149,154.311 23.5482,150.478 24.5,146.5 Z"/></g>
<g><path style="opacity:1" fill="#77576d" d="M 43.5,148.5 C 43.8813,152.119 44.8813,155.452 46.5,158.5C 45.791,159.404 44.791,159.737 43.5,159.5C 43.5,155.833 43.5,152.167 43.5,148.5 Z"/></g>
<g><path style="opacity:1" fill="#1b0315" d="M 46.5,158.5 C 44.8813,155.452 43.8813,152.119 43.5,148.5C 42.325,148.719 41.325,148.386 40.5,147.5C 43.5,146.167 46.5,146.167 49.5,147.5C 48.675,148.386 47.675,148.719 46.5,148.5C 46.5,151.833 46.5,155.167 46.5,158.5 Z"/></g>
<g><path style="opacity:1" fill="#8f6985" d="M 57.5,149.5 C 57.89,152.797 58.89,155.797 60.5,158.5C 59.791,159.404 58.791,159.737 57.5,159.5C 57.5,156.167 57.5,152.833 57.5,149.5 Z"/></g>
<g><path style="opacity:1" fill="#3c1e35" d="M 71.5,143.5 C 71.5,149.5 71.5,155.5 71.5,161.5C 71.5,161.833 71.5,162.167 71.5,162.5C 70.1803,159.572 69.5136,156.239 69.5,152.5C 69.8333,149.167 70.1667,145.833 70.5,142.5C 71.1067,142.624 71.44,142.957 71.5,143.5 Z"/></g>
<g><path style="opacity:1" fill="#250f20" d="M 12.5,147.5 C 18.4607,145.07 20.9607,147.07 20,153.5C 18.6439,154.38 17.1439,154.714 15.5,154.5C 14.71,155.609 14.21,156.942 14,158.5C 13.8227,154.644 13.3227,150.977 12.5,147.5 Z"/></g>
<g><path style="opacity:1" fill="#e3c6df" d="M 14.5,148.5 C 17.5,148.167 18.8333,149.5 18.5,152.5C 17.1667,152.5 15.8333,152.5 14.5,152.5C 14.5,151.167 14.5,149.833 14.5,148.5 Z"/></g>
<g><path style="opacity:1" fill="#ddbbda" d="M 24.5,150.5 C 25.5862,150.62 26.2528,151.287 26.5,152.5C 26.1667,153.167 25.8333,153.833 25.5,154.5C 24.5713,153.311 24.238,151.978 24.5,150.5 Z"/></g>
<g><path style="opacity:1" fill="#21101f" d="M 48.5,152.5 C 49.9778,152.238 51.3112,152.571 52.5,153.5C 51.8333,153.833 51.1667,154.167 50.5,154.5C 49.2867,154.253 48.62,153.586 48.5,152.5 Z"/></g>
<g><path style="opacity:1" fill="#1c0716" d="M 60.5,158.5 C 58.89,155.797 57.89,152.797 57.5,149.5C 55.8947,150.969 55.3947,150.635 56,148.5C 57.3333,147.833 58.6667,147.167 60,146.5C 60.4988,150.486 60.6655,154.486 60.5,158.5 Z"/></g>
<g><path style="opacity:1" fill="#250a19" d="M 32.5,146.5 C 35.9298,145.79 38.2631,146.957 39.5,150C 38.3981,152.539 38.3981,155.039 39.5,157.5C 38.9984,158.521 38.3317,158.688 37.5,158C 35.3323,153.301 34.3323,153.468 34.5,158.5C 32.5772,154.971 31.9106,150.971 32.5,146.5 Z"/></g>
<g><path style="opacity:1" fill="#f2dced" d="M 34.5,148.5 C 35.5,148.5 36.5,148.5 37.5,148.5C 37.5,149.833 37.5,151.167 37.5,152.5C 36.5,152.5 35.5,152.5 34.5,152.5C 34.5,151.167 34.5,149.833 34.5,148.5 Z"/></g>
<g><path style="opacity:1" fill="#f7eef7" d="M 71.5,143.5 C 106.167,143.5 140.833,143.5 175.5,143.5C 175.666,148.844 175.499,154.177 175,159.5C 174.283,160.044 173.783,160.711 173.5,161.5C 139.5,161.5 105.5,161.5 71.5,161.5C 71.5,155.5 71.5,149.5 71.5,143.5 Z"/></g>
<g><path style="opacity:1" fill="#433c42" d="M 168.5,153.5 C 169.404,154.209 169.737,155.209 169.5,156.5C 167.571,156.769 165.905,156.269 164.5,155C 165.549,154.508 166.549,154.674 167.5,155.5C 168.298,155.043 168.631,154.376 168.5,153.5 Z"/></g>
<g><path style="opacity:1" fill="#4a454b" d="M 152.5,153.5 C 154.233,154.008 154.566,154.841 153.5,156C 151.597,156.774 149.93,156.44 148.5,155C 149.549,154.508 150.549,154.674 151.5,155.5C 152.298,155.043 152.631,154.376 152.5,153.5 Z"/></g>
<g><path style="opacity:1" fill="#353136" d="M 119.5,153.5 C 119.539,154.756 119.039,155.756 118,156.5C 117.415,155.002 117.915,154.002 119.5,153.5 Z"/></g>
<g><path style="opacity:1" fill="#f6f4f7" d="M 143.5,153.5 C 147.289,153.737 147.289,154.404 143.5,155.5C 143.5,154.833 143.5,154.167 143.5,153.5 Z"/></g>
<g><path style="opacity:1" fill="#fcf9fd" d="M 139.5,152.5 C 139.5,153.5 139.5,154.5 139.5,155.5C 138.5,155.5 137.5,155.5 136.5,155.5C 136.5,154.5 136.5,153.5 136.5,152.5C 137.5,152.5 138.5,152.5 139.5,152.5 Z"/></g>
<g><path style="opacity:1" fill="#79737a" d="M 105.5,151.5 C 107.176,155.833 105.509,157.5 100.5,156.5C 100.183,153.428 100.516,150.428 101.5,147.5C 102.909,148.849 104.243,150.182 105.5,151.5 Z"/></g>
<g><path style="opacity:1" fill="#524b51" d="M 81.5,148.5 C 82.7498,148.577 83.5831,149.244 84,150.5C 84.9913,152.447 85.3247,154.447 85,156.5C 83.084,153.967 81.084,153.967 79,156.5C 79.4941,153.815 80.3275,151.148 81.5,148.5 Z"/></g>
<g><path style="opacity:1" fill="#433f45" d="M 158.5,150.5 C 159.239,150.369 159.906,150.536 160.5,151C 159.119,157.02 158.453,156.853 158.5,150.5 Z"/></g>
<g><path style="opacity:1" fill="#423e44" d="M 143.5,155.5 C 147.289,154.404 147.289,153.737 143.5,153.5C 147.158,151.63 146.825,150.797 142.5,151C 143.593,149.635 144.926,149.301 146.5,150C 147.423,152.041 147.756,154.208 147.5,156.5C 145.901,156.768 144.568,156.434 143.5,155.5 Z"/></g>
<g><path style="opacity:1" fill="#645f65" d="M 139.5,151.5 C 139.5,151.833 139.5,152.167 139.5,152.5C 138.5,152.5 137.5,152.5 136.5,152.5C 136.5,153.5 136.5,154.5 136.5,155.5C 137.5,155.5 138.5,155.5 139.5,155.5C 138.081,156.451 136.415,156.784 134.5,156.5C 134.5,153.5 134.5,150.5 134.5,147.5C 136.199,147.34 137.866,147.506 139.5,148C 140.791,149.292 140.791,150.458 139.5,151.5 Z"/></g>
<g><path style="opacity:1" fill="#383137" d="M 111.5,150.5 C 112.404,151.209 112.737,152.209 112.5,153.5C 107.407,153.612 107.407,154.445 112.5,156C 108.333,157.167 106.833,155.667 108,151.5C 109.756,152.985 110.923,152.652 111.5,150.5 Z"/></g>
<g><path style="opacity:1" fill="#665f67" d="M 91.5,147.5 C 92.4767,150.287 92.81,153.287 92.5,156.5C 86.4452,157.058 85.1119,154.891 88.5,150C 89.4491,149.383 90.2825,149.549 91,150.5C 91.4828,149.552 91.6495,148.552 91.5,147.5 Z"/></g>
<g><path style="opacity:1" fill="#f8f3f8" d="M 81.5,150.5 C 83.332,151.14 83.6653,152.14 82.5,153.5C 81.6143,152.675 81.281,151.675 81.5,150.5 Z"/></g>
<g><path style="opacity:1" fill="#2c2a2e" d="M 149.5,150.5 C 150.267,151.172 150.934,152.005 151.5,153C 149.939,153.188 149.272,152.355 149.5,150.5 Z"/></g>
<g><path style="opacity:1" fill="#f6f2f6" d="M 105.5,151.5 C 105.778,153.346 105.111,154.68 103.5,155.5C 102.571,154.311 102.238,152.978 102.5,151.5C 103.5,151.5 104.5,151.5 105.5,151.5 Z"/></g>
<g><path style="opacity:1" fill="#544f55" d="M 98.5,155.5 C 94.5062,157.349 93.0062,156.015 94,151.5C 96.5584,148.85 98.3918,149.35 99.5,153C 99.472,154.07 99.1386,154.903 98.5,155.5 Z"/></g>
<g><path style="opacity:1" fill="#edeaee" d="M 98.5,155.5 C 96.6536,155.778 95.3202,155.111 94.5,153.5C 95.3202,151.889 96.6536,151.222 98.5,151.5C 98.5,152.833 98.5,154.167 98.5,155.5 Z"/></g>
<g><path style="opacity:1" fill="#f1edf1" d="M 88.5,151.5 C 89.5,151.5 90.5,151.5 91.5,151.5C 91.5,152.833 91.5,154.167 91.5,155.5C 90.5,155.5 89.5,155.5 88.5,155.5C 88.5,154.167 88.5,152.833 88.5,151.5 Z"/></g>
<g><path style="opacity:1" fill="#716a71" d="M 128.5,147.5 C 130.388,149.988 131.055,152.988 130.5,156.5C 128.801,156.66 127.134,156.494 125.5,156C 124.941,155.275 124.608,154.442 124.5,153.5C 125.491,151.193 126.824,149.193 128.5,147.5 Z"/></g>
<g><path style="opacity:1" fill="#f7f5f7" d="M 126.5,151.5 C 127.586,151.62 128.253,152.287 128.5,153.5C 127.696,155.957 126.696,155.957 125.5,153.5C 125.863,152.817 126.196,152.15 126.5,151.5 Z"/></g>
<g><path style="opacity:1" fill="#655e66" d="M 166.5,149.5 C 167.995,149.415 168.995,150.081 169.5,151.5C 168.738,151.911 167.738,152.077 166.5,152C 167.016,154.033 166.35,154.033 164.5,152C 165.381,151.292 166.047,150.458 166.5,149.5 Z"/></g>
<g><path style="opacity:1" fill="#ebe8ec" d="M 139.5,151.5 C 138.5,151.5 137.5,151.5 136.5,151.5C 137.246,147.69 138.246,147.69 139.5,151.5 Z"/></g>
<g><path style="opacity:1" fill="#524950" d="M 121.5,150.5 C 121.461,149.244 121.961,148.244 123,147.5C 123.585,148.998 123.085,149.998 121.5,150.5 Z"/></g>
<g><path style="opacity:1" fill="#423b41" d="M 121.5,150.5 C 121.815,152.226 121.981,153.893 122,155.5C 121.292,154.619 120.458,153.953 119.5,153.5C 118.65,151.506 118.15,149.506 118,147.5C 118.759,149.063 119.926,150.063 121.5,150.5 Z"/></g>
<g><path style="opacity:1" fill="#e1c6e0" d="M 185.5,30.5 C 184.717,32.0758 183.55,33.4092 182,34.5C 181.172,77.8746 181.339,121.208 182.5,164.5C 185.447,165.321 188.447,165.821 191.5,166C 239.499,166.5 287.499,166.667 335.5,166.5C 335.5,168.5 335.5,170.5 335.5,172.5C 288.832,172.667 242.165,172.5 195.5,172C 187.72,172.756 182.053,169.756 178.5,163C 142.835,162.5 107.168,162.333 71.5,162.5C 71.5,162.167 71.5,161.833 71.5,161.5C 105.5,161.5 139.5,161.5 173.5,161.5C 174.833,161.5 176.167,161.5 177.5,161.5C 177.666,155.491 177.499,149.491 177,143.5C 176.283,142.956 175.783,142.289 175.5,141.5C 176.833,141.5 178.167,141.5 179.5,141.5C 179.333,107.165 179.5,72.8317 180,38.5C 179.906,34.6879 181.406,31.6879 184.5,29.5C 185.107,29.6236 185.44,29.9569 185.5,30.5 Z"/></g>
</svg>
