<?xml version="1.0" encoding="UTF-8"?>
<!DOCTYPE svg PUBLIC "-//W3C//DTD SVG 1.1//EN" "http://www.w3.org/Graphics/SVG/1.1/DTD/svg11.dtd">
<svg xmlns="http://www.w3.org/2000/svg" version="1.1" width="336px" height="188px" style="shape-rendering:geometricPrecision; text-rendering:geometricPrecision; image-rendering:optimizeQuality; fill-rule:evenodd; clip-rule:evenodd" xmlns:xlink="http://www.w3.org/1999/xlink">
<g><path style="opacity:1" fill="#ededed" d="M -0.5,-0.5 C 111.5,-0.5 223.5,-0.5 335.5,-0.5C 335.5,62.1667 335.5,124.833 335.5,187.5C 328.833,187.5 322.167,187.5 315.5,187.5C 315.5,186.5 315.5,185.5 315.5,184.5C 316.833,184.5 318.167,184.5 319.5,184.5C 319.5,136.167 319.5,87.8333 319.5,39.5C 318.167,39.5 316.833,39.5 315.5,39.5C 315.5,38.1667 315.5,36.8333 315.5,35.5C 311.5,35.5 307.5,35.5 303.5,35.5C 303.5,34.1667 303.5,32.8333 303.5,31.5C 271.5,31.5 239.5,31.5 207.5,31.5C 207.5,32.8333 207.5,34.1667 207.5,35.5C 204.833,35.5 202.167,35.5 199.5,35.5C 199.908,38.5993 198.741,40.9326 196,42.5C 195.833,62 195.667,81.5 195.5,101C 195.506,120.884 196.173,140.551 197.5,160C 197.167,160.333 196.833,160.667 196.5,161C 199.055,162.258 199.722,164.091 198.5,166.5C 197.914,166.291 197.414,165.957 197,165.5C 196.51,166.793 196.343,168.127 196.5,169.5C 198.288,169.215 199.955,169.548 201.5,170.5C 196.88,171.493 192.214,171.827 187.5,171.5C 187.452,174.292 188.785,176.125 191.5,177C 188.447,177.179 185.447,177.679 182.5,178.5C 182.709,179.086 183.043,179.586 183.5,180C 186.146,180.497 188.813,180.664 191.5,180.5C 191.5,182.833 191.5,185.167 191.5,187.5C 175.5,187.5 159.5,187.5 143.5,187.5C 143.5,186.167 143.5,184.833 143.5,183.5C 142.167,183.5 140.833,183.5 139.5,183.5C 139.214,181.723 138.547,180.056 137.5,178.5C 137.833,177.833 138.167,177.167 138.5,176.5C 139.607,177.022 140.774,177.355 142,177.5C 145.429,176.268 148.929,175.268 152.5,174.5C 154.219,171.091 156.386,170.758 159,173.5C 159.5,173.333 160,173.167 160.5,173C 159.289,172.107 159.289,171.274 160.5,170.5C 161.086,170.709 161.586,171.043 162,171.5C 162.278,170.584 162.778,169.918 163.5,169.5C 164.653,168.687 164.653,167.687 163.5,166.5C 166.128,163.454 165.461,162.787 161.5,164.5C 160.167,163.167 158.833,163.167 157.5,164.5C 157.762,165.978 157.429,167.311 156.5,168.5C 155.204,161.959 154.538,161.959 154.5,168.5C 153.698,167.048 153.198,165.382 153,163.5C 151.644,162.62 150.144,162.286 148.5,162.5C 147.599,160.273 145.933,159.273 143.5,159.5C 143.532,161.619 142.532,162.952 140.5,163.5C 139.849,162.909 139.182,162.243 138.5,161.5C 137.377,163.289 136.044,163.622 134.5,162.5C 136.874,159.977 139.541,158.644 142.5,158.5C 143.499,142.848 143.833,127.181 143.5,111.5C 142.167,111.5 140.833,111.5 139.5,111.5C 139.5,106.167 139.5,100.833 139.5,95.5C 140.833,95.5 142.167,95.5 143.5,95.5C 143.5,80.8333 143.5,66.1667 143.5,51.5C 142.167,51.5 140.833,51.5 139.5,51.5C 139.5,44.8333 139.5,38.1667 139.5,31.5C 138.167,31.5 136.833,31.5 135.5,31.5C 135.5,32.8333 135.5,34.1667 135.5,35.5C 131.5,35.5 127.5,35.5 123.5,35.5C 123.5,34.1667 123.5,32.8333 123.5,31.5C 112.167,31.5 100.833,31.5 89.5,31.5C 89.552,29.0971 89.2186,26.7638 88.5,24.5C 94.1643,25.5008 96.4976,23.1675 95.5,17.5C 94.0222,17.238 92.6888,17.5713 91.5,18.5C 92.2458,19.7362 92.5792,21.0695 92.5,22.5C 91.1779,22.67 90.0113,22.3366 89,21.5C 88.3333,19.1667 88.3333,16.8333 89,14.5C 90.8269,13.3384 92.4936,13.6718 94,15.5C 95.726,14.3521 95.5593,13.1855 93.5,12C 89.7949,10.6872 87.4615,11.8539 86.5,15.5C 85.8333,14.1667 85.1667,12.8333 84.5,11.5C 82.78,13.6581 81.9467,16.3248 82,19.5C 80.744,17.2457 79.5773,14.9123 78.5,12.5C 77.675,11.6143 76.675,11.281 75.5,11.5C 75.1744,15.8839 75.5078,20.2172 76.5,24.5C 76.7836,14.32 78.4503,13.9866 81.5,23.5C 82.325,24.3857 83.325,24.719 84.5,24.5C 84.9382,24.4346 85.2716,24.6012 85.5,25C 84.376,25.2492 83.376,25.7492 82.5,26.5C 82.6667,26.8333 82.8333,27.1667 83,27.5C 84.6255,27.1459 86.4588,27.1459 88.5,27.5C 88.5,28.8333 88.5,30.1667 88.5,31.5C 85.5,31.5 82.5,31.5 79.5,31.5C 79.5,32.8333 79.5,34.1667 79.5,35.5C 78.1667,35.5 76.8333,35.5 75.5,35.5C 76.1386,24.4848 74.3053,23.8181 70,33.5C 69.6924,32.6919 69.1924,32.0253 68.5,31.5C 67.5713,32.6888 67.238,34.0222 67.5,35.5C 63.9752,35.7854 60.6418,35.1187 57.5,33.5C 55.6663,34.7545 53.6663,35.4211 51.5,35.5C 50.5942,32.5641 49.9275,29.5641 49.5,26.5C 51.8194,27.167 54.1527,27.3336 56.5,27C 54.8807,26.7645 53.8807,25.9311 53.5,24.5C 56.5715,25.0755 58.5715,23.9088 59.5,21C 58.0082,18.3424 56.0082,16.1757 53.5,14.5C 54.7757,13.3554 56.109,13.3554 57.5,14.5C 58.521,13.9984 58.6877,13.3317 58,12.5C 52.4523,10.216 50.6189,11.8826 52.5,17.5C 55.3507,18.0121 56.6841,19.6787 56.5,22.5C 54.8002,22.3739 53.3002,21.7073 52,20.5C 50.9701,20.8361 50.4701,21.5028 50.5,22.5C 50.1667,22.5 49.8333,22.5 49.5,22.5C 47.8925,19.0091 46.8925,15.3424 46.5,11.5C 45.1779,11.33 44.0113,11.6634 43,12.5C 42.1341,16.2643 40.9674,19.931 39.5,23.5C 40.325,24.3857 41.325,24.719 42.5,24.5C 42.631,25.2389 42.4643,25.9056 42,26.5C 40.6976,25.9152 39.531,25.2485 38.5,24.5C 38.5,20.1667 38.5,15.8333 38.5,11.5C 36.5168,11.1568 35.1834,11.8235 34.5,13.5C 33.596,14.209 33.2627,15.209 33.5,16.5C 33.6882,18.1033 33.1882,19.4366 32,20.5C 31.0797,17.8987 30.413,15.2321 30,12.5C 28.9887,11.6634 27.8221,11.33 26.5,11.5C 26.1744,15.8839 26.5078,20.2172 27.5,24.5C 28.3142,22.2338 28.8142,19.9005 29,17.5C 29.8854,20 31.0521,22.3333 32.5,24.5C 33.4767,22.5891 34.1433,20.5891 34.5,18.5C 35.4511,19.9187 35.7845,21.5853 35.5,23.5C 35.8417,24.3382 36.5084,24.6716 37.5,24.5C 37.631,25.2389 37.4643,25.9056 37,26.5C 35.9505,25.4829 34.7839,25.3162 33.5,26C 35.1554,27.4443 35.822,29.2776 35.5,31.5C 39.6232,32.4059 40.2899,34.4059 37.5,37.5C 36.8333,37.5 36.1667,37.5 35.5,37.5C 34.4324,36.5655 33.099,36.2322 31.5,36.5C 31.5,35.5 31.5,34.5 31.5,33.5C 32.552,33.6495 33.552,33.4828 34.5,33C 32.26,32.023 29.9267,31.523 27.5,31.5C 27.5,32.8333 27.5,34.1667 27.5,35.5C 26.1667,35.5 24.8333,35.5 23.5,35.5C 23.5,36.8333 23.5,38.1667 23.5,39.5C 22.1667,39.5 20.8333,39.5 19.5,39.5C 19.9077,42.5993 18.741,44.9326 16,46.5C 15.5,81.4984 15.3333,116.498 15.5,151.5C 16.8333,151.5 18.1667,151.5 19.5,151.5C 19.5,154.167 19.5,156.833 19.5,159.5C 18.1667,159.5 16.8333,159.5 15.5,159.5C 15.5,164.833 15.5,170.167 15.5,175.5C 16.8333,175.5 18.1667,175.5 19.5,175.5C 19.5,178.167 19.5,180.833 19.5,183.5C 20.8333,183.5 22.1667,183.5 23.5,183.5C 23.5,184.833 23.5,186.167 23.5,187.5C 15.5,187.5 7.5,187.5 -0.5,187.5C -0.5,124.833 -0.5,62.1667 -0.5,-0.5 Z"/></g>
<g><path style="opacity:1" fill="#000000" d="M 101.5,11.5 C 102.8,13.223 103.467,15.3897 103.5,18C 103.167,20.1667 102.833,22.3333 102.5,24.5C 101.508,20.2172 101.174,15.8839 101.5,11.5 Z"/></g>
<g><path style="opacity:1" fill="#222222" d="M 49.5,22.5 C 48.646,24.9337 47.646,24.767 46.5,22C 45.2068,21.51 43.8734,21.3433 42.5,21.5C 42.5,22.5 42.5,23.5 42.5,24.5C 41.325,24.719 40.325,24.3857 39.5,23.5C 40.9674,19.931 42.1341,16.2643 43,12.5C 44.0113,11.6634 45.1779,11.33 46.5,11.5C 46.8925,15.3424 47.8925,19.0091 49.5,22.5 Z"/></g>
<g><path style="opacity:1" fill="#181818" d="M 53.5,24.5 C 52.5,23.8333 51.5,23.1667 50.5,22.5C 50.4701,21.5028 50.9701,20.8361 52,20.5C 53.3002,21.7073 54.8002,22.3739 56.5,22.5C 56.6841,19.6787 55.3507,18.0121 52.5,17.5C 50.6189,11.8826 52.4523,10.216 58,12.5C 58.6877,13.3317 58.521,13.9984 57.5,14.5C 56.109,13.3554 54.7757,13.3554 53.5,14.5C 56.0082,16.1757 58.0082,18.3424 59.5,21C 58.5715,23.9088 56.5715,25.0755 53.5,24.5 Z"/></g>
<g><path style="opacity:1" fill="#404040" d="M 152.5,12.5 C 153.791,12.2627 154.791,12.596 155.5,13.5C 155.285,15.1788 155.952,16.1788 157.5,16.5C 156.833,17.1667 156.167,17.8333 155.5,18.5C 155.5,19.8333 155.5,21.1667 155.5,22.5C 154.609,23.1098 153.609,23.4431 152.5,23.5C 152.5,19.8333 152.5,16.1667 152.5,12.5 Z"/></g>
<g><path style="opacity:1" fill="#e9e8e9" d="M 155.5,13.5 C 156.5,13.5 157.5,13.5 158.5,13.5C 158.737,14.791 158.404,15.791 157.5,16.5C 155.952,16.1788 155.285,15.1788 155.5,13.5 Z"/></g>
<g><path style="opacity:1" fill="#272727" d="M 105.5,11.5 C 106.675,11.281 107.675,11.6143 108.5,12.5C 109.667,14.8333 110.833,17.1667 112,19.5C 112.182,16.7737 112.682,14.1071 113.5,11.5C 114.833,15.8333 114.833,20.1667 113.5,24.5C 111.515,22.5434 110.015,20.2101 109,17.5C 108.503,19.8098 108.337,22.1432 108.5,24.5C 107.5,24.5 106.5,24.5 105.5,24.5C 105.5,20.1667 105.5,15.8333 105.5,11.5 Z"/></g>
<g><path style="opacity:1" fill="#1b1b1b" d="M 33.5,16.5 C 34.3382,16.8417 34.6716,17.5084 34.5,18.5C 34.1433,20.5891 33.4767,22.5891 32.5,24.5C 31.0521,22.3333 29.8854,20 29,17.5C 28.8142,19.9005 28.3142,22.2338 27.5,24.5C 26.5078,20.2172 26.1744,15.8839 26.5,11.5C 27.8221,11.33 28.9887,11.6634 30,12.5C 30.413,15.2321 31.0797,17.8987 32,20.5C 33.1882,19.4366 33.6882,18.1033 33.5,16.5 Z"/></g>
<g><path style="opacity:1" fill="#2e2e2e" d="M 70.5,11.5 C 71.5,11.5 72.5,11.5 73.5,11.5C 73.5,15.8333 73.5,20.1667 73.5,24.5C 72.5,24.5 71.5,24.5 70.5,24.5C 70.5,20.1667 70.5,15.8333 70.5,11.5 Z"/></g>
<g><path style="opacity:1" fill="#202020" d="M 84.5,11.5 C 84.5,15.8333 84.5,20.1667 84.5,24.5C 83.325,24.719 82.325,24.3857 81.5,23.5C 78.4503,13.9866 76.7836,14.32 76.5,24.5C 75.5078,20.2172 75.1744,15.8839 75.5,11.5C 76.675,11.281 77.675,11.6143 78.5,12.5C 79.5773,14.9123 80.744,17.2457 82,19.5C 81.9467,16.3248 82.78,13.6581 84.5,11.5 Z"/></g>
<g><path style="opacity:1" fill="#121212" d="M 143.5,11.5 C 146.044,11.1043 148.211,11.771 150,13.5C 151.023,17.3169 150.523,20.8169 148.5,24C 145.975,24.8959 143.808,24.3959 142,22.5C 141.013,18.5252 141.513,14.8585 143.5,11.5 Z"/></g>
<g><path style="opacity:1" fill="#e4e4e4" d="M 144.5,13.5 C 145.822,13.33 146.989,13.6634 148,14.5C 148.667,16.8333 148.667,19.1667 148,21.5C 144.697,22.6953 143.197,21.362 143.5,17.5C 143.623,16.0755 143.957,14.7421 144.5,13.5 Z"/></g>
<g><path style="opacity:1" fill="#272727" d="M 38.5,24.5 C 38.1667,24.5 37.8333,24.5 37.5,24.5C 36.5084,24.6716 35.8417,24.3382 35.5,23.5C 36.8331,20.1076 36.4998,16.7743 34.5,13.5C 35.1834,11.8235 36.5168,11.1568 38.5,11.5C 38.5,15.8333 38.5,20.1667 38.5,24.5 Z"/></g>
<g><path style="opacity:1" fill="#2f2f2f" d="M 165.5,13.5 C 165.5,14.5 165.5,15.5 165.5,16.5C 170.833,17.1667 170.833,17.8333 165.5,18.5C 165.5,19.8333 165.5,21.1667 165.5,22.5C 165.44,23.0431 165.107,23.3764 164.5,23.5C 163.167,19.8333 163.167,16.1667 164.5,12.5C 165.107,12.6236 165.44,12.9569 165.5,13.5 Z"/></g>
<g><path style="opacity:1" fill="#ebebeb" d="M 44.5,15.5 C 45.782,16.7082 45.782,18.0416 44.5,19.5C 43.7084,18.3002 43.7084,16.9669 44.5,15.5 Z"/></g>
<g><path style="opacity:1" fill="#1d1d1d" d="M 175.5,11.5 C 177.662,11.8972 178.995,13.2305 179.5,15.5C 180.429,14.3112 180.762,12.9778 180.5,11.5C 181.675,11.281 182.675,11.6143 183.5,12.5C 180.813,16.5876 181.146,20.4209 184.5,24C 181.671,24.6889 180.004,23.5222 179.5,20.5C 178.585,21.3279 177.919,22.3279 177.5,23.5C 176.635,24.5827 175.635,24.7494 174.5,24C 178.031,20.0578 178.365,15.8911 175.5,11.5 Z"/></g>
<g><path style="opacity:1" fill="#5a5a5a" d="M 34.5,13.5 C 36.4998,16.7743 36.8331,20.1076 35.5,23.5C 35.7845,21.5853 35.4511,19.9187 34.5,18.5C 34.6716,17.5084 34.3382,16.8417 33.5,16.5C 33.2627,15.209 33.596,14.209 34.5,13.5 Z"/></g>
<g><path style="opacity:1" fill="#2c2c2c" d="M 60.5,11.5 C 61.5,11.5 62.5,11.5 63.5,11.5C 63.3323,16.5324 64.3323,16.6991 66.5,12C 67.5,11.3333 68.5,11.3333 69.5,12C 65.7594,15.702 65.7594,19.5353 69.5,23.5C 68.5,24.8333 67.5,24.8333 66.5,23.5C 64.1013,18.0254 63.1013,18.3588 63.5,24.5C 62.5,24.5 61.5,24.5 60.5,24.5C 60.5,20.1667 60.5,15.8333 60.5,11.5 Z"/></g>
<g><path style="opacity:1" fill="#111111" d="M 131.5,11.5 C 137.076,10.2507 139.743,12.4174 139.5,18C 139.525,23.1822 136.858,25.3488 131.5,24.5C 131.5,20.1667 131.5,15.8333 131.5,11.5 Z"/></g>
<g><path style="opacity:1" fill="#e4e4e4" d="M 155.5,18.5 C 156.5,18.5 157.5,18.5 158.5,18.5C 158.5,19.8333 158.5,21.1667 158.5,22.5C 157.5,22.5 156.5,22.5 155.5,22.5C 155.5,21.1667 155.5,19.8333 155.5,18.5 Z"/></g>
<g><path style="opacity:1" fill="#171717" d="M 88.5,24.5 C 86.7319,21.8375 86.0653,18.8375 86.5,15.5C 87.4615,11.8539 89.7949,10.6872 93.5,12C 95.5593,13.1855 95.726,14.3521 94,15.5C 92.4936,13.6718 90.8269,13.3384 89,14.5C 88.3333,16.8333 88.3333,19.1667 89,21.5C 90.0113,22.3366 91.1779,22.67 92.5,22.5C 92.5792,21.0695 92.2458,19.7362 91.5,18.5C 92.6888,17.5713 94.0222,17.238 95.5,17.5C 96.4976,23.1675 94.1643,25.5008 88.5,24.5 Z"/></g>
<g><path style="opacity:1" fill="#202020" d="M 123.5,11.5 C 124.5,11.5 125.5,11.5 126.5,11.5C 127.732,15.6954 129.065,19.8621 130.5,24C 129.552,24.4828 128.552,24.6495 127.5,24.5C 127.5,23.5 127.5,22.5 127.5,21.5C 124.471,21.8177 121.805,22.651 119.5,24C 121.334,19.997 122.668,15.8303 123.5,11.5 Z"/></g>
<g><path style="opacity:1" fill="#d9d9d9" d="M 124.5,15.5 C 127.459,18.2714 127.126,19.2714 123.5,18.5C 124.127,17.5832 124.461,16.5832 124.5,15.5 Z"/></g>
<g><path style="opacity:1" fill="#dbdbdb" d="M 133.5,13.5 C 136.734,13.2366 138.068,14.7366 137.5,18C 138.068,21.2634 136.734,22.7634 133.5,22.5C 133.5,19.5 133.5,16.5 133.5,13.5 Z"/></g>
<g><path style="opacity:1" fill="#131313" d="M 185.5,11.5 C 191.076,10.2507 193.743,12.4174 193.5,18C 193.525,23.1822 190.858,25.3488 185.5,24.5C 185.5,20.1667 185.5,15.8333 185.5,11.5 Z"/></g>
<g><path style="opacity:1" fill="#d6d6d6" d="M 187.5,13.5 C 190.734,13.2366 192.068,14.7366 191.5,18C 192.068,21.2634 190.734,22.7634 187.5,22.5C 187.5,19.5 187.5,16.5 187.5,13.5 Z"/></g>
<g><path style="opacity:1" fill="#0a0a0a" d="M 152.5,12.5 C 154.628,11.3709 156.961,11.2042 159.5,12C 160.059,12.7247 160.392,13.5581 160.5,14.5C 160.287,17.4818 159.953,20.4818 159.5,23.5C 157.028,24.7665 154.694,24.7665 152.5,23.5C 153.609,23.4431 154.609,23.1098 155.5,22.5C 156.5,22.5 157.5,22.5 158.5,22.5C 158.5,21.1667 158.5,19.8333 158.5,18.5C 157.5,18.5 156.5,18.5 155.5,18.5C 156.167,17.8333 156.833,17.1667 157.5,16.5C 158.404,15.791 158.737,14.791 158.5,13.5C 157.5,13.5 156.5,13.5 155.5,13.5C 154.791,12.596 153.791,12.2627 152.5,12.5 Z"/></g>
<g><path style="opacity:1" fill="#020202" d="M 165.5,13.5 C 165.44,12.9569 165.107,12.6236 164.5,12.5C 163.167,16.1667 163.167,19.8333 164.5,23.5C 165.107,23.3764 165.44,23.0431 165.5,22.5C 167.288,22.2148 168.955,22.5481 170.5,23.5C 167.914,24.48 165.247,24.8134 162.5,24.5C 162.5,20.1667 162.5,15.8333 162.5,11.5C 165.247,11.1866 167.914,11.52 170.5,12.5C 168.955,13.4519 167.288,13.7852 165.5,13.5 Z"/></g>
<g><path style="opacity:1" fill="#e9e9e9" d="M 84.5,11.5 C 85.1667,12.8333 85.8333,14.1667 86.5,15.5C 86.0653,18.8375 86.7319,21.8375 88.5,24.5C 89.2186,26.7638 89.552,29.0971 89.5,31.5C 100.833,31.5 112.167,31.5 123.5,31.5C 123.5,32.8333 123.5,34.1667 123.5,35.5C 127.5,35.5 131.5,35.5 135.5,35.5C 135.5,34.1667 135.5,32.8333 135.5,31.5C 136.833,31.5 138.167,31.5 139.5,31.5C 139.5,38.1667 139.5,44.8333 139.5,51.5C 140.833,51.5 142.167,51.5 143.5,51.5C 143.5,66.1667 143.5,80.8333 143.5,95.5C 142.167,95.5 140.833,95.5 139.5,95.5C 139.5,100.833 139.5,106.167 139.5,111.5C 140.833,111.5 142.167,111.5 143.5,111.5C 143.833,127.181 143.499,142.848 142.5,158.5C 139.541,158.644 136.874,159.977 134.5,162.5C 136.044,163.622 137.377,163.289 138.5,161.5C 139.182,162.243 139.849,162.909 140.5,163.5C 140.5,164.167 140.5,164.833 140.5,165.5C 140.232,167.099 140.566,168.432 141.5,169.5C 142.315,171.302 143.815,172.302 146,172.5C 147.301,172.361 148.134,171.695 148.5,170.5C 149.492,170.672 150.158,170.338 150.5,169.5C 151.405,168.036 151.405,166.702 150.5,165.5C 150.218,164.222 149.551,163.222 148.5,162.5C 150.144,162.286 151.644,162.62 153,163.5C 153.198,165.382 153.698,167.048 154.5,168.5C 155.833,169.833 157.167,169.833 158.5,168.5C 159.167,167.167 159.833,165.833 160.5,164.5C 161.359,166.106 161.526,167.773 161,169.5C 161.977,168.226 162.811,168.226 163.5,169.5C 162.778,169.918 162.278,170.584 162,171.5C 161.586,171.043 161.086,170.709 160.5,170.5C 159.289,171.274 159.289,172.107 160.5,173C 160,173.167 159.5,173.333 159,173.5C 156.386,170.758 154.219,171.091 152.5,174.5C 148.929,175.268 145.429,176.268 142,177.5C 140.774,177.355 139.607,177.022 138.5,176.5C 138.167,177.167 137.833,177.833 137.5,178.5C 138.547,180.056 139.214,181.723 139.5,183.5C 140.833,183.5 142.167,183.5 143.5,183.5C 143.5,184.833 143.5,186.167 143.5,187.5C 103.5,187.5 63.5,187.5 23.5,187.5C 23.5,186.167 23.5,184.833 23.5,183.5C 22.1667,183.5 20.8333,183.5 19.5,183.5C 19.5,180.833 19.5,178.167 19.5,175.5C 18.1667,175.5 16.8333,175.5 15.5,175.5C 15.5,170.167 15.5,164.833 15.5,159.5C 16.8333,159.5 18.1667,159.5 19.5,159.5C 19.5,156.833 19.5,154.167 19.5,151.5C 18.1667,151.5 16.8333,151.5 15.5,151.5C 15.3333,116.498 15.5,81.4984 16,46.5C 18.741,44.9326 19.9077,42.5993 19.5,39.5C 20.8333,39.5 22.1667,39.5 23.5,39.5C 23.5,38.1667 23.5,36.8333 23.5,35.5C 24.8333,35.5 26.1667,35.5 27.5,35.5C 27.5,34.1667 27.5,32.8333 27.5,31.5C 29.9267,31.523 32.26,32.023 34.5,33C 33.552,33.4828 32.552,33.6495 31.5,33.5C 31.5,34.5 31.5,35.5 31.5,36.5C 33.099,36.2322 34.4324,36.5655 35.5,37.5C 31.8084,36.9712 28.6417,37.9712 26,40.5C 25.3333,84.5 25.3333,128.5 26,172.5C 26.9025,173.701 28.0692,174.535 29.5,175C 62.1667,175.667 94.8333,175.667 127.5,175C 129.286,174.215 130.786,173.049 132,171.5C 132.667,128.5 132.667,85.5 132,42.5C 131.215,40.714 130.049,39.214 128.5,38C 98.1685,37.5 67.8352,37.3334 37.5,37.5C 40.2899,34.4059 39.6232,32.4059 35.5,31.5C 35.822,29.2776 35.1554,27.4443 33.5,26C 34.7839,25.3162 35.9505,25.4829 37,26.5C 37.4643,25.9056 37.631,25.2389 37.5,24.5C 37.8333,24.5 38.1667,24.5 38.5,24.5C 39.531,25.2485 40.6976,25.9152 42,26.5C 42.4643,25.9056 42.631,25.2389 42.5,24.5C 42.5,23.5 42.5,22.5 42.5,21.5C 43.8734,21.3433 45.2068,21.51 46.5,22C 47.646,24.767 48.646,24.9337 49.5,22.5C 49.8333,22.5 50.1667,22.5 50.5,22.5C 51.5,23.1667 52.5,23.8333 53.5,24.5C 53.8807,25.9311 54.8807,26.7645 56.5,27C 54.1527,27.3336 51.8194,27.167 49.5,26.5C 49.9275,29.5641 50.5942,32.5641 51.5,35.5C 53.6663,35.4211 55.6663,34.7545 57.5,33.5C 60.6418,35.1187 63.9752,35.7854 67.5,35.5C 67.238,34.0222 67.5713,32.6888 68.5,31.5C 69.1924,32.0253 69.6924,32.6919 70,33.5C 74.3053,23.8181 76.1386,24.4848 75.5,35.5C 76.8333,35.5 78.1667,35.5 79.5,35.5C 79.5,34.1667 79.5,32.8333 79.5,31.5C 82.5,31.5 85.5,31.5 88.5,31.5C 88.5,30.1667 88.5,28.8333 88.5,27.5C 86.4588,27.1459 84.6255,27.1459 83,27.5C 82.8333,27.1667 82.6667,26.8333 82.5,26.5C 83.376,25.7492 84.376,25.2492 85.5,25C 85.2716,24.6012 84.9382,24.4346 84.5,24.5C 84.5,20.1667 84.5,15.8333 84.5,11.5 Z"/></g>
<g><path style="opacity:1" fill="#e9e9e9" d="M 315.5,187.5 C 274.167,187.5 232.833,187.5 191.5,187.5C 191.5,185.167 191.5,182.833 191.5,180.5C 188.813,180.664 186.146,180.497 183.5,180C 183.043,179.586 182.709,179.086 182.5,178.5C 185.447,177.679 188.447,177.179 191.5,177C 188.785,176.125 187.452,174.292 187.5,171.5C 192.214,171.827 196.88,171.493 201.5,170.5C 199.955,169.548 198.288,169.215 196.5,169.5C 196.343,168.127 196.51,166.793 197,165.5C 197.414,165.957 197.914,166.291 198.5,166.5C 199.722,164.091 199.055,162.258 196.5,161C 196.833,160.667 197.167,160.333 197.5,160C 196.173,140.551 195.506,120.884 195.5,101C 195.667,81.5 195.833,62 196,42.5C 198.741,40.9326 199.908,38.5993 199.5,35.5C 202.167,35.5 204.833,35.5 207.5,35.5C 207.5,34.1667 207.5,32.8333 207.5,31.5C 239.5,31.5 271.5,31.5 303.5,31.5C 303.5,32.8333 303.5,34.1667 303.5,35.5C 307.5,35.5 311.5,35.5 315.5,35.5C 315.5,36.8333 315.5,38.1667 315.5,39.5C 316.833,39.5 318.167,39.5 319.5,39.5C 319.5,87.8333 319.5,136.167 319.5,184.5C 318.167,184.5 316.833,184.5 315.5,184.5C 315.5,185.5 315.5,186.5 315.5,187.5 Z"/></g>
<g><path style="opacity:1" fill="#fafafa" d="M 204.5,37.5 C 238.502,37.3333 272.502,37.5 306.5,38C 307.333,38.8333 308.167,39.6667 309,40.5C 309.833,84.5038 309.667,128.504 308.5,172.5C 307.833,173.167 307.167,173.833 306.5,174.5C 273.208,175.659 239.875,175.826 206.5,175C 205.333,173.833 204.167,172.667 203,171.5C 202.333,128.167 202.333,84.8333 203,41.5C 204.188,40.4366 204.688,39.1033 204.5,37.5 Z"/></g>
<g><path style="opacity:1" fill="#f7f7f7" d="M 35.5,37.5 C 36.1667,37.5 36.8333,37.5 37.5,37.5C 67.8352,37.3334 98.1685,37.5 128.5,38C 130.049,39.214 131.215,40.714 132,42.5C 132.667,85.5 132.667,128.5 132,171.5C 130.786,173.049 129.286,174.215 127.5,175C 94.8333,175.667 62.1667,175.667 29.5,175C 28.0692,174.535 26.9025,173.701 26,172.5C 25.3333,128.5 25.3333,84.5 26,40.5C 28.6417,37.9712 31.8084,36.9712 35.5,37.5 Z"/></g>
<g><path style="opacity:1" fill="#1322aa" d="M 39.5,43.5 C 38.1561,45.0348 36.4894,46.3681 34.5,47.5C 33.7025,47.0431 33.3691,46.3764 33.5,45.5C 34.9899,43.7202 36.9899,43.0535 39.5,43.5 Z"/></g>
<g><path style="opacity:1" fill="#7e7e7e" d="M 47.5,44.5 C 49.451,44.2267 50.951,44.8934 52,46.5C 52.6914,44.1088 53.6914,44.1088 55,46.5C 56.8082,46.1119 58.4748,46.1119 60,46.5C 60.5194,45.4844 61.3527,44.8178 62.5,44.5C 65.5536,45.5521 68.5536,45.5521 71.5,44.5C 72.3857,45.325 72.719,46.325 72.5,47.5C 64.3167,47.1686 55.9833,47.1686 47.5,47.5C 47.5,46.5 47.5,45.5 47.5,44.5 Z"/></g>
<g><path style="opacity:1" fill="#777777" d="M 225.5,44.5 C 226.397,45.5981 227.23,45.5981 228,44.5C 229.391,46.7151 231.057,46.7151 233,44.5C 234,45.8333 235,45.8333 236,44.5C 237.309,46.8912 238.309,46.8912 239,44.5C 242.574,44.1511 246.074,44.8178 249.5,46.5C 247.314,47.2208 245.147,47.8875 243,48.5C 237.259,47.5251 231.425,47.1918 225.5,47.5C 225.5,46.5 225.5,45.5 225.5,44.5 Z"/></g>
<g><path style="opacity:1" fill="#45477d" d="M 39.5,43.5 C 43.3704,46.2968 43.3704,49.1301 39.5,52C 33.9018,52.9263 31.9018,50.7597 33.5,45.5C 33.3691,46.3764 33.7025,47.0431 34.5,47.5C 36.4894,46.3681 38.1561,45.0348 39.5,43.5 Z"/></g>
<g><path style="opacity:1" fill="#eae9ea" d="M 207.5,54.5 C 240.168,54.3334 272.835,54.5 305.5,55C 306,55.5 306.5,56 307,56.5C 307.825,86.2088 307.658,115.875 306.5,145.5C 305.975,146.192 305.308,146.692 304.5,147C 272.162,147.833 239.828,147.667 207.5,146.5C 206.182,131.319 205.516,115.986 205.5,100.5C 205.516,84.9464 206.182,69.613 207.5,54.5 Z"/></g>
<g><path style="opacity:1" fill="#63757d" d="M 91.5,54.5 C 96.1667,54.5 100.833,54.5 105.5,54.5C 105.5,58.8333 105.5,63.1667 105.5,67.5C 104.833,67.5 104.167,67.5 103.5,67.5C 104.244,64.0504 102.91,62.3838 99.5,62.5C 99.8844,60.0706 100.551,57.7373 101.5,55.5C 98.2234,55.2161 95.0567,55.5495 92,56.5C 91.0386,60.4919 91.5386,64.1585 93.5,67.5C 91.9505,68.4408 90.2838,69.1075 88.5,69.5C 88.3672,67.0279 88.2005,64.3612 88,61.5C 87.0396,67.6039 86.2063,67.7706 85.5,62C 85.4944,59.7002 85.9944,57.5336 87,55.5C 87.3333,55.8333 87.6667,56.1667 88,56.5C 89.3024,55.9152 90.469,55.2485 91.5,54.5 Z"/></g>
<g><path style="opacity:1" fill="#514f52" d="M 105.5,54.5 C 107.833,54.5 110.167,54.5 112.5,54.5C 113.047,59.3549 113.047,64.0216 112.5,68.5C 109.868,70.0635 107.535,69.7301 105.5,67.5C 105.5,63.1667 105.5,58.8333 105.5,54.5 Z"/></g>
<g><path style="opacity:1" fill="#030202" d="M 29.5,55.5 C 29.5,76.8333 29.5,98.1667 29.5,119.5C 29.5,124.167 29.5,128.833 29.5,133.5C 29.5,136.167 29.5,138.833 29.5,141.5C 29.5,142.833 29.5,144.167 29.5,145.5C 37.5069,145.334 45.5069,145.5 53.5,146C 45.1733,146.5 36.84,146.666 28.5,146.5C 28.1685,115.995 28.5019,85.6621 29.5,55.5 Z"/></g>
<g><path style="opacity:1" fill="#538493" d="M 103.5,67.5 C 100.167,67.5 96.8333,67.5 93.5,67.5C 91.5386,64.1585 91.0386,60.4919 92,56.5C 95.0567,55.5495 98.2234,55.2161 101.5,55.5C 100.551,57.7373 99.8844,60.0706 99.5,62.5C 102.91,62.3838 104.244,64.0504 103.5,67.5 Z"/></g>
<g><path style="opacity:1" fill="#a3a3a3" d="M 289.5,63.5 C 293.182,63.3347 296.848,63.5014 300.5,64C 301.554,65.3876 301.72,66.8876 301,68.5C 297.591,69.6219 294.091,69.7886 290.5,69C 289.594,67.3005 289.261,65.4672 289.5,63.5 Z"/></g>
<g><path style="opacity:1" fill="#43646b" d="M 112.5,54.5 C 114.833,54.5 117.167,54.5 119.5,54.5C 119.5,57.5 119.5,60.5 119.5,63.5C 120.5,63.5 121.5,63.5 122.5,63.5C 122.421,64.9305 122.754,66.2638 123.5,67.5C 123.167,68.5 122.5,69.1667 121.5,69.5C 120.575,68.3595 119.741,68.3595 119,69.5C 118.506,71.1341 118.34,72.8008 118.5,74.5C 117.442,73.3998 116.608,72.0664 116,70.5C 114.698,69.9152 113.531,69.2485 112.5,68.5C 113.047,64.0216 113.047,59.3549 112.5,54.5 Z"/></g>
<g><path style="opacity:1" fill="#656261" d="M 42.5,54.5 C 44.1667,54.5 45.8333,54.5 47.5,54.5C 48.8284,55.5072 49.8284,56.8405 50.5,58.5C 49.0787,62.0278 48.412,65.6945 48.5,69.5C 45.7237,69.0889 45.057,69.9223 46.5,72C 46.0496,73.2853 45.3829,74.452 44.5,75.5C 45.6405,76.4255 45.6405,77.2588 44.5,78C 45.7376,77.9227 46.7376,78.0894 47.5,78.5C 44.3537,79.9704 42.3537,82.3037 41.5,85.5C 41.5,84.8333 41.5,84.1667 41.5,83.5C 42.4987,75.5101 43.4987,67.5101 44.5,59.5C 44.2755,57.5453 43.6089,55.8787 42.5,54.5 Z"/></g>
<g><path style="opacity:1" fill="#4a7686" d="M 38.5,54.5 C 39.8333,54.5 41.1667,54.5 42.5,54.5C 43.6089,55.8787 44.2755,57.5453 44.5,59.5C 43.4987,67.5101 42.4987,75.5101 41.5,83.5C 40.71,84.6085 40.21,85.9419 40,87.5C 39.6667,86.8333 39.3333,86.1667 39,85.5C 38.7883,75.0218 38.6216,64.6885 38.5,54.5 Z"/></g>
<g><path style="opacity:1" fill="#646568" d="M 67.5,54.5 C 75.5,54.5 83.5,54.5 91.5,54.5C 90.469,55.2485 89.3024,55.9152 88,56.5C 87.6667,56.1667 87.3333,55.8333 87,55.5C 85.9944,57.5336 85.4944,59.7002 85.5,62C 86.2063,67.7706 87.0396,67.6039 88,61.5C 88.2005,64.3612 88.3672,67.0279 88.5,69.5C 87.1667,70.1667 85.8333,70.8333 84.5,71.5C 84.631,70.7611 84.4643,70.0944 84,69.5C 83.4099,72.9807 82.2433,76.1474 80.5,79C 81.1667,79.6667 81.8333,80.3333 82.5,81C 81.7606,84.4871 80.9272,87.9871 80,91.5C 78.1079,87.3435 76.9412,83.0102 76.5,78.5C 79.8452,78.1359 80.8452,76.4692 79.5,73.5C 78.1482,74.5244 76.8149,75.5244 75.5,76.5C 75.2996,70.1964 75.9663,64.0297 77.5,58C 76.3826,56.1079 74.7159,55.2746 72.5,55.5C 73.2383,63.5718 73.2383,71.5718 72.5,79.5C 72.6716,80.4916 72.3382,81.1583 71.5,81.5C 70.6724,75.6807 70.1724,69.6807 70,63.5C 69.1656,66.1724 68.3323,68.839 67.5,71.5C 67.9767,72.4776 68.6433,73.3109 69.5,74C 68.9056,74.4643 68.2389,74.631 67.5,74.5C 66.8333,77.5 66.1667,80.5 65.5,83.5C 65.5,74.1667 65.5,64.8333 65.5,55.5C 66.4916,55.6716 67.1583,55.3382 67.5,54.5 Z"/></g>
<g><path style="opacity:1" fill="#62818b" d="M 75.5,76.5 C 74.8333,77.8333 73.8333,78.8333 72.5,79.5C 73.2383,71.5718 73.2383,63.5718 72.5,55.5C 74.7159,55.2746 76.3826,56.1079 77.5,58C 75.9663,64.0297 75.2996,70.1964 75.5,76.5 Z"/></g>
<g><path style="opacity:1" fill="#5b808f" d="M 65.5,55.5 C 65.5,64.8333 65.5,74.1667 65.5,83.5C 64.5,83.5 63.5,83.5 62.5,83.5C 62.5,74.1667 62.5,64.8333 62.5,55.5C 63.5,55.5 64.5,55.5 65.5,55.5 Z"/></g>
<g><path style="opacity:1" fill="#44899c" d="M 119.5,54.5 C 120.833,54.5 122.167,54.5 123.5,54.5C 125.507,55.5186 126.84,57.1853 127.5,59.5C 126.975,60.1924 126.308,60.6924 125.5,61C 125.473,64.9357 125.806,68.9357 126.5,73C 125.705,77.684 124.372,82.184 122.5,86.5C 121.914,86.7093 121.414,87.0426 121,87.5C 120.764,85.8807 119.931,84.8807 118.5,84.5C 118.5,83.8333 118.5,83.1667 118.5,82.5C 119.497,79.995 119.497,77.3283 118.5,74.5C 118.34,72.8008 118.506,71.1341 119,69.5C 119.741,68.3595 120.575,68.3595 121.5,69.5C 122.5,69.1667 123.167,68.5 123.5,67.5C 122.754,66.2638 122.421,64.9305 122.5,63.5C 121.5,63.5 120.5,63.5 119.5,63.5C 119.5,60.5 119.5,57.5 119.5,54.5 Z"/></g>
<g><path style="opacity:1" fill="#9a8f8c" d="M 92.5,85.5 C 92.3491,82.2819 91.5158,81.9485 90,84.5C 89.6667,83.1667 89.3333,81.8333 89,80.5C 88.0124,83.4245 87.3457,86.4245 87,89.5C 85.2492,86.7485 84.4158,83.7485 84.5,80.5C 84.5,79.8333 84.5,79.1667 84.5,78.5C 85.9217,78.2914 87.255,77.7914 88.5,77C 87.7636,74.9794 88.5969,73.4794 91,72.5C 91.3333,73.1667 91.6667,73.8333 92,74.5C 92.4186,73.3279 93.0853,72.3279 94,71.5C 94.2521,73.9313 93.7521,76.2646 92.5,78.5C 93.325,79.3857 94.325,79.719 95.5,79.5C 94.2277,80.7325 93.2277,82.7325 92.5,85.5 Z"/></g>
<g><path style="opacity:1" fill="#c8c2c2" d="M 93.5,67.5 C 96.8333,67.5 100.167,67.5 103.5,67.5C 104.167,67.5 104.833,67.5 105.5,67.5C 107.535,69.7301 109.868,70.0635 112.5,68.5C 113.531,69.2485 114.698,69.9152 116,70.5C 116.608,72.0664 117.442,73.3998 118.5,74.5C 119.497,77.3283 119.497,79.995 118.5,82.5C 118.5,81.5 118.5,80.5 118.5,79.5C 116.118,80.5463 113.785,80.5463 111.5,79.5C 111.993,77.1944 112.326,74.861 112.5,72.5C 110.302,72.1201 108.635,72.7868 107.5,74.5C 106.503,74.4701 105.836,74.9701 105.5,76C 106.707,77.3002 107.374,78.8002 107.5,80.5C 107.279,83.0972 106.779,83.0972 106,80.5C 105.536,81.0944 105.369,81.7611 105.5,82.5C 103.621,82.6068 103.288,82.1068 104.5,81C 103.299,80.0975 102.465,78.9308 102,77.5C 99.0883,79.3646 98.9217,81.3646 101.5,83.5C 100.926,85.0589 100.26,86.5589 99.5,88C 98.0014,86.7586 96.3348,86.2586 94.5,86.5C 91.796,89.3916 91.1294,89.0583 92.5,85.5C 93.2277,82.7325 94.2277,80.7325 95.5,79.5C 94.325,79.719 93.325,79.3857 92.5,78.5C 93.7521,76.2646 94.2521,73.9313 94,71.5C 93.0853,72.3279 92.4186,73.3279 92,74.5C 91.6667,73.8333 91.3333,73.1667 91,72.5C 88.5969,73.4794 87.7636,74.9794 88.5,77C 87.255,77.7914 85.9217,78.2914 84.5,78.5C 85.0818,76.002 85.0818,73.6687 84.5,71.5C 85.8333,70.8333 87.1667,70.1667 88.5,69.5C 90.2838,69.1075 91.9505,68.4408 93.5,67.5 Z"/></g>
<g><path style="opacity:1" fill="#413937" d="M 111.5,79.5 C 109.621,79.6068 109.288,79.1068 110.5,78C 108.944,77.2798 107.944,76.1132 107.5,74.5C 108.635,72.7868 110.302,72.1201 112.5,72.5C 112.326,74.861 111.993,77.1944 111.5,79.5 Z"/></g>
<g><path style="opacity:1" fill="#736d6a" d="M 107.5,74.5 C 107.944,76.1132 108.944,77.2798 110.5,78C 109.288,79.1068 109.621,79.6068 111.5,79.5C 113.785,80.5463 116.118,80.5463 118.5,79.5C 118.5,80.5 118.5,81.5 118.5,82.5C 118.5,83.1667 118.5,83.8333 118.5,84.5C 118.5,85.1667 118.5,85.8333 118.5,86.5C 117.12,85.2935 115.953,85.6269 115,87.5C 114.964,85.0588 114.131,83.0588 112.5,81.5C 112.738,83.5653 112.238,85.5653 111,87.5C 111.107,84.4079 109.941,82.0745 107.5,80.5C 107.374,78.8002 106.707,77.3002 105.5,76C 105.836,74.9701 106.503,74.4701 107.5,74.5 Z"/></g>
<g><path style="opacity:1" fill="#35525f" d="M 37.5,54.5 C 37.8333,54.5 38.1667,54.5 38.5,54.5C 38.6216,64.6885 38.7883,75.0218 39,85.5C 39.3333,86.1667 39.6667,86.8333 40,87.5C 40.21,85.9419 40.71,84.6085 41.5,83.5C 41.5,84.1667 41.5,84.8333 41.5,85.5C 41.0431,90.2014 40.3764,94.868 39.5,99.5C 38.5,99.5 37.5,99.5 36.5,99.5C 36.9665,84.5036 37.2998,69.5036 37.5,54.5 Z"/></g>
<g><path style="opacity:1" fill="#726768" d="M 105.5,82.5 C 104.416,84.3186 103.082,85.9853 101.5,87.5C 102.248,89.3325 103.248,90.9991 104.5,92.5C 103.691,94.0709 103.357,95.7376 103.5,97.5C 102.5,97.5 101.5,97.5 100.5,97.5C 100.587,94.4017 100.087,94.0684 99,96.5C 98.6667,96.1667 98.3333,95.8333 98,95.5C 97.879,93.2729 97.0456,91.4396 95.5,90C 95.8333,89.6667 96.1667,89.3333 96.5,89C 93.1234,88.9203 92.1234,90.4203 93.5,93.5C 91.8592,95.2029 90.8592,97.3695 90.5,100C 91.4506,100.718 91.6172,101.551 91,102.5C 89.8118,101.437 89.3118,100.103 89.5,98.5C 89.6204,96.8014 89.9537,95.1347 90.5,93.5C 89.4657,89.9099 87.9657,89.9099 86,93.5C 85.2571,95.4406 85.4238,97.2739 86.5,99C 85.5761,100.489 84.5761,100.656 83.5,99.5C 84.3307,93.184 84.6641,86.8507 84.5,80.5C 84.4158,83.7485 85.2492,86.7485 87,89.5C 87.3457,86.4245 88.0124,83.4245 89,80.5C 89.3333,81.8333 89.6667,83.1667 90,84.5C 91.5158,81.9485 92.3491,82.2819 92.5,85.5C 91.1294,89.0583 91.796,89.3916 94.5,86.5C 96.3348,86.2586 98.0014,86.7586 99.5,88C 100.26,86.5589 100.926,85.0589 101.5,83.5C 98.9217,81.3646 99.0883,79.3646 102,77.5C 102.465,78.9308 103.299,80.0975 104.5,81C 103.288,82.1068 103.621,82.6068 105.5,82.5 Z"/></g>
<g><path style="opacity:1" fill="#3b454b" d="M 53.5,54.5 C 54.8333,54.5 56.1667,54.5 57.5,54.5C 57.2601,66.8439 57.0934,79.1773 57,91.5C 57.4702,89.2262 58.4702,87.2262 60,85.5C 61.181,75.1999 61.681,64.8666 61.5,54.5C 63.5,54.5 65.5,54.5 67.5,54.5C 67.1583,55.3382 66.4916,55.6716 65.5,55.5C 64.5,55.5 63.5,55.5 62.5,55.5C 62.5,64.8333 62.5,74.1667 62.5,83.5C 63.5,83.5 64.5,83.5 65.5,83.5C 66.1667,80.5 66.8333,77.5 67.5,74.5C 67.8256,78.8839 67.4922,83.2172 66.5,87.5C 65.8165,87.1373 65.1499,86.8039 64.5,86.5C 62.1534,87.6069 61.82,89.2736 63.5,91.5C 59.9652,91.3369 58.9652,92.6702 60.5,95.5C 59.9622,97.7638 60.2956,100.097 61.5,102.5C 60.5,102.5 59.5,102.5 58.5,102.5C 58.81,105.713 58.4767,108.713 57.5,111.5C 56.7775,103.499 55.9441,95.4987 55,87.5C 54.6395,92.9143 53.8061,98.2476 52.5,103.5C 51.8165,103.137 51.1499,102.804 50.5,102.5C 51.5435,90.8592 52.2102,79.1926 52.5,67.5C 53.4849,63.3656 53.8182,59.0323 53.5,54.5 Z"/></g>
<g><path style="opacity:1" fill="#4f6674" d="M 57.5,54.5 C 58.8333,54.5 60.1667,54.5 61.5,54.5C 61.681,64.8666 61.181,75.1999 60,85.5C 58.4702,87.2262 57.4702,89.2262 57,91.5C 57.0934,79.1773 57.2601,66.8439 57.5,54.5 Z"/></g>
<g><path style="opacity:1" fill="#c0b5b5" d="M 63.5,91.5 C 64.2674,92.172 64.9341,93.0053 65.5,94C 63.6183,94.1981 61.9516,94.6981 60.5,95.5C 58.9652,92.6702 59.9652,91.3369 63.5,91.5 Z"/></g>
<g><path style="opacity:1" fill="#6d6262" d="M 64.5,86.5 C 65.0399,89.4698 66.3733,91.9698 68.5,94C 68.6177,95.8994 68.1177,97.7327 67,99.5C 65.8118,98.4366 65.3118,97.1033 65.5,95.5C 63.8333,95.5 62.1667,95.5 60.5,95.5C 61.9516,94.6981 63.6183,94.1981 65.5,94C 64.9341,93.0053 64.2674,92.172 63.5,91.5C 61.82,89.2736 62.1534,87.6069 64.5,86.5 Z"/></g>
<g><path style="opacity:1" fill="#2c5d6e" d="M 123.5,54.5 C 125.415,54.2155 127.081,54.5489 128.5,55.5C 128.5,68.8333 128.5,82.1667 128.5,95.5C 127.636,96.6883 126.636,97.8549 125.5,99C 122.854,99.4974 120.187,99.6641 117.5,99.5C 118.08,95.19 118.414,90.8566 118.5,86.5C 118.5,85.8333 118.5,85.1667 118.5,84.5C 119.931,84.8807 120.764,85.8807 121,87.5C 121.414,87.0426 121.914,86.7093 122.5,86.5C 124.372,82.184 125.705,77.684 126.5,73C 125.806,68.9357 125.473,64.9357 125.5,61C 126.308,60.6924 126.975,60.1924 127.5,59.5C 126.84,57.1853 125.507,55.5186 123.5,54.5 Z"/></g>
<g><path style="opacity:1" fill="#020103" d="M 128.5,55.5 C 129.833,85.8333 129.833,116.167 128.5,146.5C 127.761,146.631 127.094,146.464 126.5,146C 128.42,140.803 129.087,135.303 128.5,129.5C 128.5,126.167 128.5,122.833 128.5,119.5C 128.5,111.5 128.5,103.5 128.5,95.5C 128.5,82.1667 128.5,68.8333 128.5,55.5 Z"/></g>
<g><path style="opacity:1" fill="#27272a" d="M 37.5,54.5 C 37.2998,69.5036 36.9665,84.5036 36.5,99.5C 35.179,103.233 35.179,107.066 36.5,111C 35.0361,112.864 34.0361,115.031 33.5,117.5C 32.3777,118.63 31.0443,119.297 29.5,119.5C 29.5,98.1667 29.5,76.8333 29.5,55.5C 31.9479,54.5269 34.6146,54.1936 37.5,54.5 Z"/></g>
<g><path style="opacity:1" fill="#ec9b4f" d="M 163.5,108.5 C 168.349,107.834 173.349,107.167 178.5,106.5C 173.208,105.505 167.875,105.172 162.5,105.5C 162.719,101.473 161.552,100.806 159,103.5C 158.544,104.744 159.044,105.577 160.5,106C 159.833,106.333 159.167,106.667 158.5,107C 159.38,108.356 159.714,109.856 159.5,111.5C 157.429,110.428 156.095,108.761 155.5,106.5C 156.769,103.895 158.436,101.562 160.5,99.5C 162.516,97.6519 164.683,95.9852 167,94.5C 168.5,94.6667 169.333,95.5 169.5,97C 167.339,98.9955 165.339,101.162 163.5,103.5C 169.128,104.495 174.794,104.829 180.5,104.5C 180.5,105.833 180.5,107.167 180.5,108.5C 174.833,108.5 169.167,108.5 163.5,108.5 Z"/></g>
<g><path style="opacity:1" fill="#353032" d="M 107.5,80.5 C 109.941,82.0745 111.107,84.4079 111,87.5C 112.238,85.5653 112.738,83.5653 112.5,81.5C 114.131,83.0588 114.964,85.0588 115,87.5C 115.953,85.6269 117.12,85.2935 118.5,86.5C 118.414,90.8566 118.08,95.19 117.5,99.5C 120.187,99.6641 122.854,99.4974 125.5,99C 126.636,97.8549 127.636,96.6883 128.5,95.5C 128.5,103.5 128.5,111.5 128.5,119.5C 127.504,119.586 126.671,119.252 126,118.5C 125.695,120.557 125.695,122.557 126,124.5C 124.539,120.951 123.373,117.284 122.5,113.5C 121.167,113.5 119.833,113.5 118.5,113.5C 119.543,118.464 117.876,120.131 113.5,118.5C 113.736,121.226 112.903,123.559 111,125.5C 109.885,124 109.052,122.333 108.5,120.5C 109.145,119.268 109.311,117.935 109,116.5C 109.667,117.833 110.333,117.833 111,116.5C 111.333,117.167 111.667,117.833 112,118.5C 114.55,116.505 115.05,114.172 113.5,111.5C 109.19,113.224 108.524,112.224 111.5,108.5C 109.615,107.803 109.282,106.803 110.5,105.5C 108.955,104.548 107.288,104.215 105.5,104.5C 105.5,105.5 105.5,106.5 105.5,107.5C 104.833,108.5 104.167,109.5 103.5,110.5C 102.883,110.389 102.383,110.056 102,109.5C 100.833,111.167 99.6667,112.833 98.5,114.5C 97.7492,113.624 97.2492,112.624 97,111.5C 94.8913,112.035 94.3913,113.035 95.5,114.5C 93.9255,115.631 92.2588,115.798 90.5,115C 93.1003,111.872 93.1003,108.705 90.5,105.5C 91.0354,103.729 91.8687,103.396 93,104.5C 95.6043,101.303 96.771,97.6362 96.5,93.5C 95.5,93.5 94.5,93.5 93.5,93.5C 92.1234,90.4203 93.1234,88.9203 96.5,89C 96.1667,89.3333 95.8333,89.6667 95.5,90C 97.0456,91.4396 97.879,93.2729 98,95.5C 98.3333,95.8333 98.6667,96.1667 99,96.5C 100.087,94.0684 100.587,94.4017 100.5,97.5C 101.5,97.5 102.5,97.5 103.5,97.5C 103.357,95.7376 103.691,94.0709 104.5,92.5C 103.248,90.9991 102.248,89.3325 101.5,87.5C 103.082,85.9853 104.416,84.3186 105.5,82.5C 105.369,81.7611 105.536,81.0944 106,80.5C 106.779,83.0972 107.279,83.0972 107.5,80.5 Z"/></g>
<g><path style="opacity:1" fill="#f7e9d9" d="M 167.5,113.5 C 165.071,112.145 163.738,110.478 163.5,108.5C 169.167,108.5 174.833,108.5 180.5,108.5C 180.5,107.167 180.5,105.833 180.5,104.5C 174.794,104.829 169.128,104.495 163.5,103.5C 165.339,101.162 167.339,98.9955 169.5,97C 169.333,95.5 168.5,94.6667 167,94.5C 164.683,95.9852 162.516,97.6519 160.5,99.5C 160.626,97.8002 161.293,96.3002 162.5,95C 161.813,93.8382 161.647,92.6716 162,91.5C 164.033,91.8679 166.2,91.8679 168.5,91.5C 171.723,95.8846 171.056,99.3846 166.5,102C 170.833,102.333 175.167,102.667 179.5,103C 182.452,105.131 183.619,107.964 183,111.5C 182.311,110.643 181.478,109.977 180.5,109.5C 175.887,110.279 171.22,110.779 166.5,111C 167.252,111.671 167.586,112.504 167.5,113.5 Z"/></g>
<g><path style="opacity:1" fill="#373537" d="M 71.5,81.5 C 69.9624,83.5514 70.2957,85.218 72.5,86.5C 73.5896,85.6086 73.5896,84.6086 72.5,83.5C 72.8457,82.3044 73.3457,82.3044 74,83.5C 74.0995,81.3474 74.9328,79.6808 76.5,78.5C 76.9412,83.0102 78.1079,87.3435 80,91.5C 80.9272,87.9871 81.7606,84.4871 82.5,81C 81.8333,80.3333 81.1667,79.6667 80.5,79C 82.2433,76.1474 83.4099,72.9807 84,69.5C 84.4643,70.0944 84.631,70.7611 84.5,71.5C 85.0818,73.6687 85.0818,76.002 84.5,78.5C 84.5,79.1667 84.5,79.8333 84.5,80.5C 84.6641,86.8507 84.3307,93.184 83.5,99.5C 84.5761,100.656 85.5761,100.489 86.5,99C 85.4238,97.2739 85.2571,95.4406 86,93.5C 87.9657,89.9099 89.4657,89.9099 90.5,93.5C 89.9537,95.1347 89.6204,96.8014 89.5,98.5C 89.1019,103.45 88.1019,108.284 86.5,113C 86.8333,113.333 87.1667,113.667 87.5,114C 85.6332,114.711 84.1332,114.211 83,112.5C 82.3035,116.535 82.4701,120.535 83.5,124.5C 83.2528,125.713 82.5862,126.38 81.5,126.5C 82.5257,123.884 81.859,121.55 79.5,119.5C 80.9387,117.657 80.772,115.99 79,114.5C 78.2177,117.188 76.7177,118.188 74.5,117.5C 72.5658,117.901 71.0658,118.901 70,120.5C 68.951,118.893 67.451,118.227 65.5,118.5C 65.6495,119.552 65.4828,120.552 65,121.5C 64.1482,120.429 63.3149,119.429 62.5,118.5C 61.8654,115.507 61.6987,112.507 62,109.5C 62.3173,111.301 62.984,111.634 64,110.5C 64.5356,108.433 64.0356,106.599 62.5,105C 64.7416,103.993 64.4082,103.159 61.5,102.5C 60.2956,100.097 59.9622,97.7638 60.5,95.5C 62.1667,95.5 63.8333,95.5 65.5,95.5C 65.3118,97.1033 65.8118,98.4366 67,99.5C 68.1177,97.7327 68.6177,95.8994 68.5,94C 66.3733,91.9698 65.0399,89.4698 64.5,86.5C 65.1499,86.8039 65.8165,87.1373 66.5,87.5C 67.4922,83.2172 67.8256,78.8839 67.5,74.5C 68.2389,74.631 68.9056,74.4643 69.5,74C 68.6433,73.3109 67.9767,72.4776 67.5,71.5C 68.3323,68.839 69.1656,66.1724 70,63.5C 70.1724,69.6807 70.6724,75.6807 71.5,81.5 Z"/></g>
<g><path style="opacity:1" fill="#b5aead" d="M 76.5,78.5 C 74.9328,79.6808 74.0995,81.3474 74,83.5C 73.3457,82.3044 72.8457,82.3044 72.5,83.5C 73.5896,84.6086 73.5896,85.6086 72.5,86.5C 70.2957,85.218 69.9624,83.5514 71.5,81.5C 72.3382,81.1583 72.6716,80.4916 72.5,79.5C 73.8333,78.8333 74.8333,77.8333 75.5,76.5C 76.8149,75.5244 78.1482,74.5244 79.5,73.5C 80.8452,76.4692 79.8452,78.1359 76.5,78.5 Z"/></g>
<g><path style="opacity:1" fill="#f7993f" d="M 163.5,108.5 C 163.738,110.478 165.071,112.145 167.5,113.5C 170.24,115.585 170.073,117.252 167,118.5C 164.014,116.68 161.514,114.347 159.5,111.5C 159.714,109.856 159.38,108.356 158.5,107C 159.167,106.667 159.833,106.333 160.5,106C 159.044,105.577 158.544,104.744 159,103.5C 161.552,100.806 162.719,101.473 162.5,105.5C 167.875,105.172 173.208,105.505 178.5,106.5C 173.349,107.167 168.349,107.834 163.5,108.5 Z"/></g>
<g><path style="opacity:1" fill="#393436" d="M 47.5,54.5 C 49.5,54.5 51.5,54.5 53.5,54.5C 53.8182,59.0323 53.4849,63.3656 52.5,67.5C 52.0954,66.4502 51.4288,66.4502 50.5,67.5C 49.269,68.6507 49.269,69.8173 50.5,71C 49.6721,71.9147 48.6721,72.5814 47.5,73C 48.8296,77.301 49.4963,81.4677 49.5,85.5C 46.4555,94.0612 43.7888,102.728 41.5,111.5C 42.1667,111.833 42.8333,112.167 43.5,112.5C 42.9598,113.748 42.2931,114.915 41.5,116C 42.2797,117.073 42.113,118.24 41,119.5C 40.6667,119.167 40.3333,118.833 40,118.5C 39.0023,122.473 38.6689,126.473 39,130.5C 39.6543,129.304 40.1543,129.304 40.5,130.5C 40.1373,131.183 39.8039,131.85 39.5,132.5C 36.1667,132.833 32.8333,133.167 29.5,133.5C 29.5,128.833 29.5,124.167 29.5,119.5C 31.0443,119.297 32.3777,118.63 33.5,117.5C 34.0361,115.031 35.0361,112.864 36.5,111C 35.179,107.066 35.179,103.233 36.5,99.5C 37.5,99.5 38.5,99.5 39.5,99.5C 40.3764,94.868 41.0431,90.2014 41.5,85.5C 42.3537,82.3037 44.3537,79.9704 47.5,78.5C 46.7376,78.0894 45.7376,77.9227 44.5,78C 45.6405,77.2588 45.6405,76.4255 44.5,75.5C 45.3829,74.452 46.0496,73.2853 46.5,72C 45.057,69.9223 45.7237,69.0889 48.5,69.5C 48.412,65.6945 49.0787,62.0278 50.5,58.5C 49.8284,56.8405 48.8284,55.5072 47.5,54.5 Z"/></g>
<g><path style="opacity:1" fill="#9a9798" d="M 61.5,102.5 C 64.4082,103.159 64.7416,103.993 62.5,105C 64.0356,106.599 64.5356,108.433 64,110.5C 62.984,111.634 62.3173,111.301 62,109.5C 61.6987,112.507 61.8654,115.507 62.5,118.5C 61.5313,119.309 60.6979,120.309 60,121.5C 59.5495,118.894 58.0495,117.561 55.5,117.5C 55.7036,115.315 56.3702,113.315 57.5,111.5C 58.4767,108.713 58.81,105.713 58.5,102.5C 59.5,102.5 60.5,102.5 61.5,102.5 Z"/></g>
<g><path style="opacity:1" fill="#4d4141" d="M 93.5,93.5 C 94.5,93.5 95.5,93.5 96.5,93.5C 96.771,97.6362 95.6043,101.303 93,104.5C 91.8687,103.396 91.0354,103.729 90.5,105.5C 93.1003,108.705 93.1003,111.872 90.5,115C 92.2588,115.798 93.9255,115.631 95.5,114.5C 94.3913,113.035 94.8913,112.035 97,111.5C 97.2492,112.624 97.7492,113.624 98.5,114.5C 99.6667,112.833 100.833,111.167 102,109.5C 102.383,110.056 102.883,110.389 103.5,110.5C 102.222,112.544 102.388,114.544 104,116.5C 105,117.833 106,117.833 107,116.5C 106.859,114.538 107.026,112.704 107.5,111C 107.192,109.541 106.525,108.374 105.5,107.5C 105.5,106.5 105.5,105.5 105.5,104.5C 107.288,104.215 108.955,104.548 110.5,105.5C 109.282,106.803 109.615,107.803 111.5,108.5C 108.524,112.224 109.19,113.224 113.5,111.5C 115.05,114.172 114.55,116.505 112,118.5C 111.667,117.833 111.333,117.167 111,116.5C 110.333,117.833 109.667,117.833 109,116.5C 109.311,117.935 109.145,119.268 108.5,120.5C 109.052,122.333 109.885,124 111,125.5C 112.903,123.559 113.736,121.226 113.5,118.5C 117.876,120.131 119.543,118.464 118.5,113.5C 119.833,113.5 121.167,113.5 122.5,113.5C 123.373,117.284 124.539,120.951 126,124.5C 125.695,122.557 125.695,120.557 126,118.5C 126.671,119.252 127.504,119.586 128.5,119.5C 128.5,122.833 128.5,126.167 128.5,129.5C 127.549,126.955 126.549,126.955 125.5,129.5C 126.167,131.833 126.833,134.167 127.5,136.5C 127.081,137.672 126.415,138.672 125.5,139.5C 125.431,137.722 125.097,135.889 124.5,134C 119.987,133.303 115.653,132.136 111.5,130.5C 108.167,132.685 105.667,135.018 104,137.5C 99.7641,135.083 96.5975,136.25 94.5,141C 95.7472,142.494 95.7472,143.994 94.5,145.5C 94.2863,142.999 93.4529,140.332 92,137.5C 90.5053,139.11 90.3387,140.776 91.5,142.5C 90.5,143.833 89.5,143.833 88.5,142.5C 90.0659,139.506 89.3992,138.506 86.5,139.5C 84.9292,136.907 82.5959,135.907 79.5,136.5C 79.6567,137.873 79.49,139.207 79,140.5C 78,139.167 77,139.167 76,140.5C 75.6667,139.833 75.3333,139.167 75,138.5C 74.4604,140.135 74.9604,141.468 76.5,142.5C 76.1667,142.833 75.8333,143.167 75.5,143.5C 74.2798,142.289 73.1131,142.289 72,143.5C 71.3828,142.551 71.5494,141.718 72.5,141C 70.7265,140.119 70.0598,138.953 70.5,137.5C 68.9293,139.882 68.096,142.549 68,145.5C 67.6258,144.584 67.1258,143.75 66.5,143C 67.0974,141.111 67.4307,139.278 67.5,137.5C 66.5,136.167 65.5,136.167 64.5,137.5C 64.7093,138.086 65.0426,138.586 65.5,139C 64.3333,139.5 63.5,140.333 63,141.5C 62.3448,139.372 61.5114,137.372 60.5,135.5C 62.7536,134.307 63.4203,132.64 62.5,130.5C 63.7757,129.355 65.109,129.355 66.5,130.5C 67.3333,129.5 68.1667,128.5 69,127.5C 67.8025,130.901 68.8025,133.568 72,135.5C 74.0955,134.285 73.9288,133.451 71.5,133C 73.9769,132.76 76.1435,133.594 78,135.5C 79,134.167 80,134.167 81,135.5C 81.6667,134.833 82.3333,134.167 83,133.5C 87.943,137.369 92.6097,137.036 97,132.5C 97.3333,133.167 97.6667,133.833 98,134.5C 99.0437,133.377 99.7104,132.044 100,130.5C 101,131.833 102,131.833 103,130.5C 103.49,129.207 103.657,127.873 103.5,126.5C 101.774,126.815 100.107,126.981 98.5,127C 99.4506,126.282 99.6172,125.449 99,124.5C 97,123.833 95.6667,122.5 95,120.5C 94.0853,121.328 93.4186,122.328 93,123.5C 92.6924,122.692 92.1924,122.025 91.5,121.5C 89.8076,123.359 88.3076,125.359 87,127.5C 85.1568,127.561 83.3234,127.227 81.5,126.5C 82.5862,126.38 83.2528,125.713 83.5,124.5C 82.4701,120.535 82.3035,116.535 83,112.5C 84.1332,114.211 85.6332,114.711 87.5,114C 87.1667,113.667 86.8333,113.333 86.5,113C 88.1019,108.284 89.1019,103.45 89.5,98.5C 89.3118,100.103 89.8118,101.437 91,102.5C 91.6172,101.551 91.4506,100.718 90.5,100C 90.8592,97.3695 91.8592,95.2029 93.5,93.5 Z"/></g>
<g><path style="opacity:1" fill="#857b7a" d="M 105.5,107.5 C 106.525,108.374 107.192,109.541 107.5,111C 107.026,112.704 106.859,114.538 107,116.5C 106,117.833 105,117.833 104,116.5C 102.388,114.544 102.222,112.544 103.5,110.5C 104.167,109.5 104.833,108.5 105.5,107.5 Z"/></g>
<g><path style="opacity:1" fill="#3b3638" d="M 57.5,111.5 C 56.3702,113.315 55.7036,115.315 55.5,117.5C 54.603,118.598 53.7697,118.598 53,117.5C 52.6667,118.167 52.3333,118.833 52,119.5C 51.2825,118.549 50.4491,118.383 49.5,119C 50.8333,121.333 50.8333,123.667 49.5,126C 50,126.5 50.5,127 51,127.5C 51.3333,126.167 51.6667,124.833 52,123.5C 52.3333,124.167 52.6667,124.833 53,125.5C 53.4152,123.709 54.4152,122.376 56,121.5C 55.4175,124.316 54.5841,127.149 53.5,130C 54.6226,131.044 55.9559,131.71 57.5,132C 55.5758,132.179 53.9091,132.346 52.5,132.5C 53.4447,134.517 54.9447,134.85 57,133.5C 58.6991,133.387 59.8658,134.053 60.5,135.5C 59.6851,136.429 58.8518,137.429 58,138.5C 57.6667,137.833 57.3333,137.167 57,136.5C 56.0656,137.858 55.2323,139.192 54.5,140.5C 54.5,138.833 54.5,137.167 54.5,135.5C 53.5,135.5 52.5,135.5 51.5,135.5C 49.9005,134.318 49.5672,132.985 50.5,131.5C 44.8708,128.222 43.8708,123.722 47.5,118C 47.9054,117.055 48.572,116.388 49.5,116C 48.0181,111.328 48.3515,106.828 50.5,102.5C 51.1499,102.804 51.8165,103.137 52.5,103.5C 53.8061,98.2476 54.6395,92.9143 55,87.5C 55.9441,95.4987 56.7775,103.499 57.5,111.5 Z"/></g>
<g><path style="opacity:1" fill="#61504c" d="M 81.5,126.5 C 83.3234,127.227 85.1568,127.561 87,127.5C 88.3076,125.359 89.8076,123.359 91.5,121.5C 92.1924,122.025 92.6924,122.692 93,123.5C 93.4186,122.328 94.0853,121.328 95,120.5C 95.6667,122.5 97,123.833 99,124.5C 99.6172,125.449 99.4506,126.282 98.5,127C 100.107,126.981 101.774,126.815 103.5,126.5C 103.657,127.873 103.49,129.207 103,130.5C 102,131.833 101,131.833 100,130.5C 99.7104,132.044 99.0437,133.377 98,134.5C 97.6667,133.833 97.3333,133.167 97,132.5C 92.6097,137.036 87.943,137.369 83,133.5C 82.3333,134.167 81.6667,134.833 81,135.5C 80,134.167 79,134.167 78,135.5C 76.1435,133.594 73.9769,132.76 71.5,133C 73.9288,133.451 74.0955,134.285 72,135.5C 68.8025,133.568 67.8025,130.901 69,127.5C 68.1667,128.5 67.3333,129.5 66.5,130.5C 65.109,129.355 63.7757,129.355 62.5,130.5C 63.4203,132.64 62.7536,134.307 60.5,135.5C 59.8658,134.053 58.6991,133.387 57,133.5C 54.9447,134.85 53.4447,134.517 52.5,132.5C 53.9091,132.346 55.5758,132.179 57.5,132C 55.9559,131.71 54.6226,131.044 53.5,130C 54.5841,127.149 55.4175,124.316 56,121.5C 54.4152,122.376 53.4152,123.709 53,125.5C 52.6667,124.833 52.3333,124.167 52,123.5C 51.6667,124.833 51.3333,126.167 51,127.5C 50.5,127 50,126.5 49.5,126C 50.8333,123.667 50.8333,121.333 49.5,119C 50.4491,118.383 51.2825,118.549 52,119.5C 52.3333,118.833 52.6667,118.167 53,117.5C 53.7697,118.598 54.603,118.598 55.5,117.5C 58.0495,117.561 59.5495,118.894 60,121.5C 60.6979,120.309 61.5313,119.309 62.5,118.5C 63.3149,119.429 64.1482,120.429 65,121.5C 65.4828,120.552 65.6495,119.552 65.5,118.5C 67.451,118.227 68.951,118.893 70,120.5C 71.0658,118.901 72.5658,117.901 74.5,117.5C 76.7177,118.188 78.2177,117.188 79,114.5C 80.772,115.99 80.9387,117.657 79.5,119.5C 81.859,121.55 82.5257,123.884 81.5,126.5 Z"/></g>
<g><path style="opacity:1" fill="#e03578" d="M 212.5,133.5 C 218.263,133.783 219.93,136.616 217.5,142C 210.237,142.821 208.571,139.988 212.5,133.5 Z"/></g>
<g><path style="opacity:1" fill="#ffd4f4" d="M 213.5,136.5 C 216.957,136.667 217.29,137.667 214.5,139.5C 213.614,138.675 213.281,137.675 213.5,136.5 Z"/></g>
<g><path style="opacity:1" fill="#de2675" d="M 39.5,133.5 C 39.5,133.833 39.5,134.167 39.5,134.5C 42.9661,140.217 41.2994,142.717 34.5,142C 31.3517,136.569 33.0184,133.736 39.5,133.5 Z"/></g>
<g><path style="opacity:1" fill="#2f2d2e" d="M 52.5,67.5 C 52.2102,79.1926 51.5435,90.8592 50.5,102.5C 48.3515,106.828 48.0181,111.328 49.5,116C 48.572,116.388 47.9054,117.055 47.5,118C 43.8708,123.722 44.8708,128.222 50.5,131.5C 49.5672,132.985 49.9005,134.318 51.5,135.5C 48.8333,135.5 46.1667,135.5 43.5,135.5C 43.2606,137.467 43.5939,139.301 44.5,141C 48.0267,141.808 51.3601,141.641 54.5,140.5C 55.2323,139.192 56.0656,137.858 57,136.5C 57.3333,137.167 57.6667,137.833 58,138.5C 58.8518,137.429 59.6851,136.429 60.5,135.5C 61.5114,137.372 62.3448,139.372 63,141.5C 63.5,140.333 64.3333,139.5 65.5,139C 65.0426,138.586 64.7093,138.086 64.5,137.5C 65.5,136.167 66.5,136.167 67.5,137.5C 67.4307,139.278 67.0974,141.111 66.5,143C 67.1258,143.75 67.6258,144.584 68,145.5C 68.096,142.549 68.9293,139.882 70.5,137.5C 70.0598,138.953 70.7265,140.119 72.5,141C 71.5494,141.718 71.3828,142.551 72,143.5C 73.1131,142.289 74.2798,142.289 75.5,143.5C 75.8333,143.167 76.1667,142.833 76.5,142.5C 74.9604,141.468 74.4604,140.135 75,138.5C 75.3333,139.167 75.6667,139.833 76,140.5C 77,139.167 78,139.167 79,140.5C 79.49,139.207 79.6567,137.873 79.5,136.5C 82.5959,135.907 84.9292,136.907 86.5,139.5C 89.3992,138.506 90.0659,139.506 88.5,142.5C 89.5,143.833 90.5,143.833 91.5,142.5C 90.3387,140.776 90.5053,139.11 92,137.5C 93.4529,140.332 94.2863,142.999 94.5,145.5C 95.7472,143.994 95.7472,142.494 94.5,141C 96.5975,136.25 99.7641,135.083 104,137.5C 105.667,135.018 108.167,132.685 111.5,130.5C 115.653,132.136 119.987,133.303 124.5,134C 125.097,135.889 125.431,137.722 125.5,139.5C 126.415,138.672 127.081,137.672 127.5,136.5C 126.833,134.167 126.167,131.833 125.5,129.5C 126.549,126.955 127.549,126.955 128.5,129.5C 129.087,135.303 128.42,140.803 126.5,146C 127.094,146.464 127.761,146.631 128.5,146.5C 95.1667,147.833 61.8333,147.833 28.5,146.5C 36.84,146.666 45.1733,146.5 53.5,146C 45.5069,145.5 37.5069,145.334 29.5,145.5C 29.5,144.167 29.5,142.833 29.5,141.5C 31.6807,141.284 33.3474,142.117 34.5,144C 41.1274,144.524 43.7941,141.357 42.5,134.5C 41.5,134.5 40.5,134.5 39.5,134.5C 39.5,134.167 39.5,133.833 39.5,133.5C 39.5,133.167 39.5,132.833 39.5,132.5C 39.8039,131.85 40.1373,131.183 40.5,130.5C 40.1543,129.304 39.6543,129.304 39,130.5C 38.6689,126.473 39.0023,122.473 40,118.5C 40.3333,118.833 40.6667,119.167 41,119.5C 42.113,118.24 42.2797,117.073 41.5,116C 42.2931,114.915 42.9598,113.748 43.5,112.5C 42.8333,112.167 42.1667,111.833 41.5,111.5C 43.7888,102.728 46.4555,94.0612 49.5,85.5C 49.4963,81.4677 48.8296,77.301 47.5,73C 48.6721,72.5814 49.6721,71.9147 50.5,71C 49.269,69.8173 49.269,68.6507 50.5,67.5C 51.4288,66.4502 52.0954,66.4502 52.5,67.5 Z"/></g>
<g><path style="opacity:1" fill="#8d8889" d="M 51.5,135.5 C 52.5,135.5 53.5,135.5 54.5,135.5C 54.5,137.167 54.5,138.833 54.5,140.5C 51.3601,141.641 48.0267,141.808 44.5,141C 43.5939,139.301 43.2606,137.467 43.5,135.5C 46.1667,135.5 48.8333,135.5 51.5,135.5 Z"/></g>
<g><path style="opacity:1" fill="#e4e2e1" d="M 115.5,133.5 C 121.803,133.924 123.469,136.757 120.5,142C 113.416,142.475 111.749,139.642 115.5,133.5 Z"/></g>
<g><path style="opacity:1" fill="#3a1a28" d="M 39.5,132.5 C 39.5,132.833 39.5,133.167 39.5,133.5C 33.0184,133.736 31.3517,136.569 34.5,142C 41.2994,142.717 42.9661,140.217 39.5,134.5C 40.5,134.5 41.5,134.5 42.5,134.5C 43.7941,141.357 41.1274,144.524 34.5,144C 33.3474,142.117 31.6807,141.284 29.5,141.5C 29.5,138.833 29.5,136.167 29.5,133.5C 32.8333,133.167 36.1667,132.833 39.5,132.5 Z"/></g>
<g><path style="opacity:1" fill="#fed7f2" d="M 35.5,136.5 C 36.5,136.5 37.5,136.5 38.5,136.5C 38.5,137.5 38.5,138.5 38.5,139.5C 37.5,139.5 36.5,139.5 35.5,139.5C 35.5,138.5 35.5,137.5 35.5,136.5 Z"/></g>
<g><path style="opacity:1" fill="#c1c1c1" d="M 30.5,150.5 C 35.8629,150.369 40.8629,150.869 45.5,152C 43.236,152.236 41.0693,152.736 39,153.5C 35.7456,153.162 32.9123,152.162 30.5,150.5 Z"/></g>
<g><path style="opacity:1" fill="#d8d8d8" d="M 251.5,157.5 C 245.703,159.449 240.369,159.449 235.5,157.5C 233.034,156.366 230.367,156.199 227.5,157C 228.056,157.383 228.389,157.883 228.5,158.5C 227.504,158.586 226.671,158.252 226,157.5C 223.716,159.525 221.216,159.525 218.5,157.5C 215.177,158.757 211.844,158.757 208.5,157.5C 211.061,156.346 214.061,155.18 217.5,154C 214.7,152.768 211.7,152.101 208.5,152C 215.414,151.814 222.247,151.314 229,150.5C 235.472,151.525 242.306,151.691 249.5,151C 251.301,151.317 251.634,151.984 250.5,153C 246.5,153.333 242.5,153.667 238.5,154C 239.833,154.667 239.833,155.333 238.5,156C 239.416,156.374 240.25,156.874 241,157.5C 244.601,156.18 248.101,156.18 251.5,157.5 Z"/></g>
<g><path style="opacity:1" fill="#b7b7b7" d="M 64.5,156.5 C 72.5277,156.169 80.5277,156.502 88.5,157.5C 82.0354,157.42 75.3687,157.754 68.5,158.5C 66.6672,158.415 65.3339,157.748 64.5,156.5 Z"/></g>
<g><path style="opacity:1" fill="#b9b9b9" d="M 251.5,157.5 C 259.942,156.436 268.609,156.436 277.5,157.5C 270.277,158.183 263.11,158.849 256,159.5C 254.378,158.901 252.878,158.234 251.5,157.5 Z"/></g>
<g><path style="opacity:1" fill="#868686" d="M 30.5,156.5 C 35.9061,156.596 41.2394,156.763 46.5,157C 45.737,157.944 44.737,158.444 43.5,158.5C 40.3463,158.193 37.1797,158.193 34,158.5C 32.3189,158.392 31.1522,157.725 30.5,156.5 Z"/></g>
<g><path style="opacity:1" fill="#afafaf" d="M 89.5,156.5 C 92.8984,156.18 96.2317,156.513 99.5,157.5C 96.1852,158.312 93.0186,158.646 90,158.5C 89.5357,157.906 89.369,157.239 89.5,156.5 Z"/></g>
<g><path style="opacity:1" fill="#8f8f8f" d="M 235.5,157.5 C 233.434,158.378 231.1,158.711 228.5,158.5C 228.389,157.883 228.056,157.383 227.5,157C 230.367,156.199 233.034,156.366 235.5,157.5 Z"/></g>
<g><path style="opacity:1" fill="#6d6d75" d="M 157.5,164.5 C 158.833,163.167 160.167,163.167 161.5,164.5C 161.167,164.5 160.833,164.5 160.5,164.5C 159.833,165.833 159.167,167.167 158.5,168.5C 158.768,166.901 158.434,165.568 157.5,164.5 Z"/></g>
<g><path style="opacity:1" fill="#edb75b" d="M 148.5,162.5 C 149.551,163.222 150.218,164.222 150.5,165.5C 147.167,165.5 143.833,165.5 140.5,165.5C 140.5,164.833 140.5,164.167 140.5,163.5C 142.532,162.952 143.532,161.619 143.5,159.5C 145.933,159.273 147.599,160.273 148.5,162.5 Z"/></g>
<g><path style="opacity:1" fill="#875b37" d="M 140.5,165.5 C 143.833,165.5 147.167,165.5 150.5,165.5C 151.405,166.702 151.405,168.036 150.5,169.5C 149.596,168.791 149.263,167.791 149.5,166.5C 146.833,167.833 144.167,167.833 141.5,166.5C 141.5,167.5 141.5,168.5 141.5,169.5C 140.566,168.432 140.232,167.099 140.5,165.5 Z"/></g>
<g><path style="opacity:1" fill="#e19b54" d="M 171.5,163.5 C 170.498,165.011 169.831,166.678 169.5,168.5C 169.44,169.043 169.107,169.376 168.5,169.5C 167.534,167.604 167.201,165.604 167.5,163.5C 168.833,163.5 170.167,163.5 171.5,163.5 Z"/></g>
<g><path style="opacity:1" fill="#e6ac72" d="M 171.5,163.5 C 172.5,163.5 173.5,163.5 174.5,163.5C 174.5,165.167 174.5,166.833 174.5,168.5C 176.179,168.715 177.179,168.048 177.5,166.5C 180.022,162.558 181.689,163.224 182.5,168.5C 179.232,169.487 175.898,169.82 172.5,169.5C 171.609,168.89 170.609,168.557 169.5,168.5C 169.831,166.678 170.498,165.011 171.5,163.5 Z"/></g>
<g><path style="opacity:1" fill="#17181d" d="M 163.5,169.5 C 162.811,168.226 161.977,168.226 161,169.5C 161.526,167.773 161.359,166.106 160.5,164.5C 160.833,164.5 161.167,164.5 161.5,164.5C 165.461,162.787 166.128,163.454 163.5,166.5C 164.653,167.687 164.653,168.687 163.5,169.5 Z"/></g>
<g><path style="opacity:1" fill="#bcbcbc" d="M 48.5,167.5 C 53.7842,167.701 59.1175,168.034 64.5,168.5C 59.1627,169.389 53.996,169.722 49,169.5C 48.5357,168.906 48.369,168.239 48.5,167.5 Z"/></g>
<g><path style="opacity:1" fill="#d29f86" d="M 150.5,169.5 C 150.158,170.338 149.492,170.672 148.5,170.5C 148.134,169.305 147.301,168.639 146,168.5C 144.56,169.148 143.06,169.481 141.5,169.5C 141.5,168.5 141.5,167.5 141.5,166.5C 144.167,167.833 146.833,167.833 149.5,166.5C 149.263,167.791 149.596,168.791 150.5,169.5 Z"/></g>
<g><path style="opacity:1" fill="#010107" d="M 157.5,164.5 C 158.434,165.568 158.768,166.901 158.5,168.5C 157.167,169.833 155.833,169.833 154.5,168.5C 154.538,161.959 155.204,161.959 156.5,168.5C 157.429,167.311 157.762,165.978 157.5,164.5 Z"/></g>
<g><path style="opacity:1" fill="#939393" d="M 208.5,167.5 C 210.924,167.192 213.257,167.526 215.5,168.5C 213.213,169.215 211.046,169.549 209,169.5C 208.536,168.906 208.369,168.239 208.5,167.5 Z"/></g>
<g><path style="opacity:1" fill="#979797" d="M 217.5,167.5 C 219.924,167.192 222.257,167.526 224.5,168.5C 222.213,169.215 220.046,169.549 218,169.5C 217.536,168.906 217.369,168.239 217.5,167.5 Z"/></g>
<g><path style="opacity:1" fill="#9a9a9a" d="M 30.5,167.5 C 33.2469,167.187 35.9135,167.52 38.5,168.5C 37.1667,168.833 35.8333,169.167 34.5,169.5C 32.6672,169.415 31.3339,168.748 30.5,167.5 Z"/></g>
<g><path style="opacity:1" fill="#989898" d="M 40.5,168.5 C 42.6934,167.203 45.0268,167.203 47.5,168.5C 45.1889,169.575 42.8555,169.575 40.5,168.5 Z"/></g>
<g><path style="opacity:1" fill="#b1b1b1" d="M 257.5,167.5 C 260.487,167.652 263.154,167.985 265.5,168.5C 262.973,169.214 260.473,169.88 258,170.5C 257.517,169.552 257.351,168.552 257.5,167.5 Z"/></g>
<g><path style="opacity:1" fill="#f3d8b7" d="M 183.5,163.5 C 183.338,165.527 183.505,167.527 184,169.5C 185.458,168.253 186.958,168.253 188.5,169.5C 188.833,168.667 189.167,167.833 189.5,167C 189.316,165.624 188.649,164.791 187.5,164.5C 189.948,163.527 192.615,163.194 195.5,163.5C 195.5,165.833 195.5,168.167 195.5,170.5C 187.648,170.825 179.982,170.492 172.5,169.5C 175.898,169.82 179.232,169.487 182.5,168.5C 181.689,163.224 180.022,162.558 177.5,166.5C 177.5,165.167 177.5,163.833 177.5,162.5C 179.565,162.517 181.565,162.85 183.5,163.5 Z"/></g>
<g><path style="opacity:1" fill="#dda157" d="M 190.5,164.5 C 191.5,164.5 192.5,164.5 193.5,164.5C 193.67,165.822 193.337,166.989 192.5,168C 193.167,168.333 193.833,168.667 194.5,169C 193.207,169.49 191.873,169.657 190.5,169.5C 190.5,167.833 190.5,166.167 190.5,164.5 Z"/></g>
<g><path style="opacity:1" fill="#e6a060" d="M 183.5,163.5 C 184.735,163.721 185.735,164.388 186.5,165.5C 187.107,165.376 187.44,165.043 187.5,164.5C 188.649,164.791 189.316,165.624 189.5,167C 189.167,167.833 188.833,168.667 188.5,169.5C 186.958,168.253 185.458,168.253 184,169.5C 183.505,167.527 183.338,165.527 183.5,163.5 Z"/></g>
<g><path style="opacity:1" fill="#af5f54" d="M 148.5,170.5 C 148.134,171.695 147.301,172.361 146,172.5C 143.815,172.302 142.315,171.302 141.5,169.5C 143.06,169.481 144.56,169.148 146,168.5C 147.301,168.639 148.134,169.305 148.5,170.5 Z"/></g>
</svg>
