<?xml version="1.0" encoding="UTF-8"?>
<!DOCTYPE svg PUBLIC "-//W3C//DTD SVG 1.1//EN" "http://www.w3.org/Graphics/SVG/1.1/DTD/svg11.dtd">
<svg xmlns="http://www.w3.org/2000/svg" version="1.1" width="336px" height="188px" style="shape-rendering:geometricPrecision; text-rendering:geometricPrecision; image-rendering:optimizeQuality; fill-rule:evenodd; clip-rule:evenodd" xmlns:xlink="http://www.w3.org/1999/xlink">
<g><path style="opacity:1" fill="#e8ebf7" d="M -0.5,-0.5 C 111.5,-0.5 223.5,-0.5 335.5,-0.5C 335.5,62.1667 335.5,124.833 335.5,187.5C 318.833,187.5 302.167,187.5 285.5,187.5C 286.011,182.467 287.677,177.801 290.5,173.5C 291.499,163.522 291.832,153.522 291.5,143.5C 292.833,143.5 294.167,143.5 295.5,143.5C 295.5,140.833 295.5,138.167 295.5,135.5C 294.167,135.5 292.833,135.5 291.5,135.5C 291.5,119.5 291.5,103.5 291.5,87.5C 292.833,87.5 294.167,87.5 295.5,87.5C 295.5,84.8333 295.5,82.1667 295.5,79.5C 294.167,79.5 292.833,79.5 291.5,79.5C 291.5,60.8333 291.5,42.1667 291.5,23.5C 289.092,22.9387 286.759,22.4387 284.5,22C 283.868,25.2704 283.201,28.4371 282.5,31.5C 282.666,25.1579 282.5,18.8246 282,12.5C 281.308,11.9747 280.808,11.3081 280.5,10.5C 204.851,9.58961 129.185,9.42294 53.5,10C 52.4272,11.3129 51.7605,12.8129 51.5,14.5C 52.4559,25.4677 52.7893,36.4677 52.5,47.5C 51.5,47.5 50.5,47.5 49.5,47.5C 49.7495,50.0021 50.0828,52.5021 50.5,55C 50.6083,56.6811 51.2749,57.8478 52.5,58.5C 52.2916,97.2873 52.7916,136.287 54,175.5C 56.7191,176.444 59.5525,176.777 62.5,176.5C 75.0113,176.171 87.3446,176.505 99.5,177.5C 84.1522,177.167 68.8189,177.501 53.5,178.5C 55.1842,181.825 57.1842,184.825 59.5,187.5C 39.5,187.5 19.5,187.5 -0.5,187.5C -0.5,124.833 -0.5,62.1667 -0.5,-0.5 Z"/></g>
<g><path style="opacity:1" fill="#edeff8" d="M 282.5,31.5 C 282.167,54.5097 282.5,77.5097 283.5,100.5C 284.192,101.025 284.692,101.692 285,102.5C 285.025,105.917 285.192,109.25 285.5,112.5C 285.363,114.107 284.696,115.441 283.5,116.5C 282.833,136.5 282.167,156.5 281.5,176.5C 220.875,177.496 160.208,177.829 99.5,177.5C 87.3446,176.505 75.0113,176.171 62.5,176.5C 61.657,174.827 60.3237,173.66 58.5,173C 61.3083,172.08 63.4749,172.913 65,175.5C 65.9707,174.802 67.1374,174.802 68.5,175.5C 76.9964,174.334 85.1631,172.334 93,169.5C 95.2441,170.954 97.5774,172.288 100,173.5C 100.333,172.5 100.667,171.5 101,170.5C 101.494,172.134 101.66,173.801 101.5,175.5C 103.646,175.878 105.813,176.212 108,176.5C 116.149,175.173 124.315,174.173 132.5,173.5C 137.762,175.535 143.095,175.535 148.5,173.5C 151.991,175.094 155.658,175.761 159.5,175.5C 159.619,171.653 158.953,167.986 157.5,164.5C 158.873,164.657 160.207,164.49 161.5,164C 159.893,162.951 159.227,161.451 159.5,159.5C 162.214,159.25 164.881,159.083 167.5,159C 165.679,161.456 165.012,164.289 165.5,167.5C 166.833,167.5 168.167,167.5 169.5,167.5C 169.5,168.833 169.5,170.167 169.5,171.5C 171.5,171.5 173.5,171.5 175.5,171.5C 175.5,172.5 175.5,173.5 175.5,174.5C 206.198,174.641 236.865,174.641 267.5,174.5C 267.5,172.167 267.5,169.833 267.5,167.5C 270.833,167.5 274.167,167.5 277.5,167.5C 277.5,168.5 277.5,169.5 277.5,170.5C 278.833,170.5 280.167,170.5 281.5,170.5C 282.152,120.888 281.485,71.388 279.5,22C 279.645,21.228 279.978,20.5613 280.5,20C 278.833,19 277.167,18 275.5,17C 260.156,16.1671 244.822,16.3338 229.5,17.5C 230.246,18.7362 230.579,20.0695 230.5,21.5C 229.325,21.719 228.325,21.3857 227.5,20.5C 228.752,15.3878 228.085,15.2212 225.5,20C 226.154,21.987 227.487,23.3203 229.5,24C 238.827,24.4998 248.161,24.6665 257.5,24.5C 257.5,25.8333 257.5,27.1667 257.5,28.5C 263.093,28.8066 268.593,28.4732 274,27.5C 274.5,28 275,28.5 275.5,29C 266.532,28.7604 257.865,30.0937 249.5,33C 240.149,33.1679 230.816,33.6679 221.5,34.5C 220.196,39.63 220.196,44.63 221.5,49.5C 229.899,51.4249 238.566,52.0915 247.5,51.5C 253.014,52.1665 258.681,52.8332 264.5,53.5C 264.833,54.1667 265.167,54.8333 265.5,55.5C 262.109,56.7169 258.776,57.7169 255.5,58.5C 233.167,58.5 210.833,58.5 188.5,58.5C 186.502,57.8525 184.502,57.0192 182.5,56C 177.13,55.5616 171.797,55.5616 166.5,56C 167.38,54.6439 167.714,53.1439 167.5,51.5C 182.17,51.6666 196.837,51.4999 211.5,51C 212.416,50.6258 213.25,50.1258 214,49.5C 214.828,45.1287 214.661,40.7953 213.5,36.5C 212.692,36.1924 212.025,35.6924 211.5,35C 200.839,34.5002 190.172,34.3335 179.5,34.5C 177.031,33.6829 174.365,33.1829 171.5,33C 179.589,32.6556 187.589,31.6556 195.5,30C 194.5,29.8333 193.5,29.6667 192.5,29.5C 172.515,29.2364 152.515,29.2364 132.5,29.5C 129.259,29.5519 126.259,28.8852 123.5,27.5C 123.677,25.0194 122.677,23.1861 120.5,22C 121.308,21.6924 121.975,21.1924 122.5,20.5C 121.009,19.7564 119.509,19.0897 118,18.5C 114.502,19.2354 111.169,19.2354 108,18.5C 109.331,22.3482 107.831,24.0148 103.5,23.5C 103.5,22.5 103.5,21.5 103.5,20.5C 101.334,20.5789 99.3337,21.2455 97.5,22.5C 94.1288,20.4073 90.4622,19.4073 86.5,19.5C 84.3718,18.3709 82.0385,18.2042 79.5,19C 77.842,19.7253 77.342,20.892 78,22.5C 78.3333,21.8333 78.6667,21.1667 79,20.5C 81.5148,21.9383 84.0148,22.2716 86.5,21.5C 86.3893,22.1174 86.056,22.6174 85.5,23C 87.1066,24.049 87.7733,25.549 87.5,27.5C 91.6765,27.0705 95.6765,26.0705 99.5,24.5C 99.5,26.8333 99.5,29.1667 99.5,31.5C 98.1667,31.5 96.8333,31.5 95.5,31.5C 95.3573,33.2624 95.6906,34.9291 96.5,36.5C 95.3687,37.6039 94.5354,37.2705 94,35.5C 93.6667,36.8333 93.3333,38.1667 93,39.5C 92.2753,40.0585 91.4419,40.3918 90.5,40.5C 89.4252,39.3008 88.4252,38.1341 87.5,37C 89.5598,35.5074 89.8932,33.6741 88.5,31.5C 87.6721,32.4147 86.6721,33.0814 85.5,33.5C 84.2141,33.1485 83.3808,32.4818 83,31.5C 81.3488,32.7424 79.5155,33.5757 77.5,34C 79.3008,34.3173 79.6341,34.984 78.5,36C 79.8333,36.3333 81.1667,36.6667 82.5,37C 81.8333,37.3333 81.1667,37.6667 80.5,38C 82.8333,38.3333 85.1667,38.6667 87.5,39C 87.0695,42.7714 85.0695,44.1048 81.5,43C 82.1667,42.6667 82.8333,42.3333 83.5,42C 81.481,41.5503 79.6477,40.717 78,39.5C 75.6137,41.0911 72.947,42.0911 70,42.5C 68.9326,41.8095 67.7659,41.3095 66.5,41C 65.1667,40.3333 65.1667,39.6667 66.5,39C 69.5535,38.8214 72.5535,38.3214 75.5,37.5C 72.1067,34.0674 68.4401,33.734 64.5,36.5C 61.8971,35.4383 59.2305,35.2716 56.5,36C 58.2852,37.1628 60.2852,37.8295 62.5,38C 63.9295,39.8803 63.5962,41.3803 61.5,42.5C 59.8035,41.6364 58.6368,40.3031 58,38.5C 54.4319,41.6384 54.9319,43.9718 59.5,45.5C 61.4325,44.4798 63.4325,44.3131 65.5,45C 64.8333,45.3333 64.1667,45.6667 63.5,46C 65.5,46.1667 67.5,46.3333 69.5,46.5C 77.4924,45.6666 85.4924,45.5 93.5,46C 94.646,45.3551 95.646,44.5217 96.5,43.5C 97.7132,48.9034 97.3799,54.2367 95.5,59.5C 96.9913,64.9694 98.658,70.3027 100.5,75.5C 99.8827,94.8287 99.216,114.162 98.5,133.5C 96.6829,134.767 95.0163,136.1 93.5,137.5C 80.9936,136.833 68.3269,136.167 55.5,135.5C 57.014,131.697 58.014,127.697 58.5,123.5C 59.0296,112.736 60.0296,102.069 61.5,91.5C 59.8333,91.5 58.1667,91.5 56.5,91.5C 55.6693,87.5239 55.5027,83.5239 56,79.5C 57.3129,76.6048 58.4796,73.6048 59.5,70.5C 58.9747,69.8076 58.3081,69.3076 57.5,69C 59.8098,68.5034 62.1432,68.3367 64.5,68.5C 64.6234,65.626 65.6234,63.126 67.5,61C 66.552,60.5172 65.552,60.3505 64.5,60.5C 64.0399,63.9568 62.0399,65.6235 58.5,65.5C 59.7708,62.3136 60.7708,58.9803 61.5,55.5C 60.5,55.5 59.5,55.5 58.5,55.5C 58.6495,54.448 58.4828,53.448 58,52.5C 57,53.8333 56,53.8333 55,52.5C 54.3448,54.6284 53.5114,56.6284 52.5,58.5C 51.2749,57.8478 50.6083,56.6811 50.5,55C 50.0828,52.5021 49.7495,50.0021 49.5,47.5C 50.5,47.5 51.5,47.5 52.5,47.5C 52.7893,36.4677 52.4559,25.4677 51.5,14.5C 51.7605,12.8129 52.4272,11.3129 53.5,10C 129.185,9.42294 204.851,9.58961 280.5,10.5C 280.808,11.3081 281.308,11.9747 282,12.5C 282.5,18.8246 282.666,25.1579 282.5,31.5 Z"/></g>
<g><path style="opacity:1" fill="#9b9fa5" d="M 86.5,19.5 C 86.5,20.1667 86.5,20.8333 86.5,21.5C 84.0148,22.2716 81.5148,21.9383 79,20.5C 78.6667,21.1667 78.3333,21.8333 78,22.5C 77.342,20.892 77.842,19.7253 79.5,19C 82.0385,18.2042 84.3718,18.3709 86.5,19.5 Z"/></g>
<g><path style="opacity:1" fill="#6e7177" d="M 68.5,18.5 C 71.0024,19.7785 73.5024,19.7785 76,18.5C 76.4828,19.448 76.6495,20.448 76.5,21.5C 73.5113,20.3645 70.5113,20.1979 67.5,21C 68.2524,20.3292 68.5858,19.4959 68.5,18.5 Z"/></g>
<g><path style="opacity:1" fill="#e3e6f4" d="M 285.5,187.5 C 210.167,187.5 134.833,187.5 59.5,187.5C 57.1842,184.825 55.1842,181.825 53.5,178.5C 68.8189,177.501 84.1522,177.167 99.5,177.5C 160.208,177.829 220.875,177.496 281.5,176.5C 282.167,156.5 282.833,136.5 283.5,116.5C 284.696,115.441 285.363,114.107 285.5,112.5C 285.192,109.25 285.025,105.917 285,102.5C 284.692,101.692 284.192,101.025 283.5,100.5C 282.5,77.5097 282.167,54.5097 282.5,31.5C 283.201,28.4371 283.868,25.2704 284.5,22C 286.759,22.4387 289.092,22.9387 291.5,23.5C 291.5,42.1667 291.5,60.8333 291.5,79.5C 292.833,79.5 294.167,79.5 295.5,79.5C 295.5,82.1667 295.5,84.8333 295.5,87.5C 294.167,87.5 292.833,87.5 291.5,87.5C 291.5,103.5 291.5,119.5 291.5,135.5C 292.833,135.5 294.167,135.5 295.5,135.5C 295.5,138.167 295.5,140.833 295.5,143.5C 294.167,143.5 292.833,143.5 291.5,143.5C 291.832,153.522 291.499,163.522 290.5,173.5C 287.677,177.801 286.011,182.467 285.5,187.5 Z"/></g>
<g><path style="opacity:1" fill="#e1c1b2" d="M 60.5,17.5 C 64.35,17.7007 65.35,19.5341 63.5,23C 58.7217,23.0734 57.7217,21.2401 60.5,17.5 Z"/></g>
<g><path style="opacity:1" fill="#f1f2f7" d="M 62.5,176.5 C 59.5525,176.777 56.7191,176.444 54,175.5C 52.7916,136.287 52.2916,97.2873 52.5,58.5C 53.5114,56.6284 54.3448,54.6284 55,52.5C 56,53.8333 57,53.8333 58,52.5C 58.4828,53.448 58.6495,54.448 58.5,55.5C 59.5,55.5 60.5,55.5 61.5,55.5C 60.7708,58.9803 59.7708,62.3136 58.5,65.5C 62.0399,65.6235 64.0399,63.9568 64.5,60.5C 65.552,60.3505 66.552,60.5172 67.5,61C 65.6234,63.126 64.6234,65.626 64.5,68.5C 62.1432,68.3367 59.8098,68.5034 57.5,69C 58.3081,69.3076 58.9747,69.8076 59.5,70.5C 58.4796,73.6048 57.3129,76.6048 56,79.5C 55.5027,83.5239 55.6693,87.5239 56.5,91.5C 58.1667,91.5 59.8333,91.5 61.5,91.5C 60.0296,102.069 59.0296,112.736 58.5,123.5C 58.014,127.697 57.014,131.697 55.5,135.5C 68.3269,136.167 80.9936,136.833 93.5,137.5C 95.0163,136.1 96.6829,134.767 98.5,133.5C 99.216,114.162 99.8827,94.8287 100.5,75.5C 98.658,70.3027 96.9913,64.9694 95.5,59.5C 97.3799,54.2367 97.7132,48.9034 96.5,43.5C 95.646,44.5217 94.646,45.3551 93.5,46C 85.4924,45.5 77.4924,45.6666 69.5,46.5C 67.5,46.3333 65.5,46.1667 63.5,46C 64.1667,45.6667 64.8333,45.3333 65.5,45C 63.4325,44.3131 61.4325,44.4798 59.5,45.5C 54.9319,43.9718 54.4319,41.6384 58,38.5C 58.6368,40.3031 59.8035,41.6364 61.5,42.5C 63.5962,41.3803 63.9295,39.8803 62.5,38C 60.2852,37.8295 58.2852,37.1628 56.5,36C 59.2305,35.2716 61.8971,35.4383 64.5,36.5C 68.4401,33.734 72.1067,34.0674 75.5,37.5C 72.5535,38.3214 69.5535,38.8214 66.5,39C 65.1667,39.6667 65.1667,40.3333 66.5,41C 67.7659,41.3095 68.9326,41.8095 70,42.5C 72.947,42.0911 75.6137,41.0911 78,39.5C 79.6477,40.717 81.481,41.5503 83.5,42C 82.8333,42.3333 82.1667,42.6667 81.5,43C 85.0695,44.1048 87.0695,42.7714 87.5,39C 85.1667,38.6667 82.8333,38.3333 80.5,38C 81.1667,37.6667 81.8333,37.3333 82.5,37C 81.1667,36.6667 79.8333,36.3333 78.5,36C 79.6341,34.984 79.3008,34.3173 77.5,34C 79.5155,33.5757 81.3488,32.7424 83,31.5C 83.3808,32.4818 84.2141,33.1485 85.5,33.5C 86.6721,33.0814 87.6721,32.4147 88.5,31.5C 89.8932,33.6741 89.5598,35.5074 87.5,37C 88.4252,38.1341 89.4252,39.3008 90.5,40.5C 91.4419,40.3918 92.2753,40.0585 93,39.5C 93.3333,38.1667 93.6667,36.8333 94,35.5C 94.5354,37.2705 95.3687,37.6039 96.5,36.5C 95.6906,34.9291 95.3573,33.2624 95.5,31.5C 96.8333,31.5 98.1667,31.5 99.5,31.5C 99.5,29.1667 99.5,26.8333 99.5,24.5C 95.6765,26.0705 91.6765,27.0705 87.5,27.5C 87.7733,25.549 87.1066,24.049 85.5,23C 86.056,22.6174 86.3893,22.1174 86.5,21.5C 86.5,20.8333 86.5,20.1667 86.5,19.5C 90.4622,19.4073 94.1288,20.4073 97.5,22.5C 99.3337,21.2455 101.334,20.5789 103.5,20.5C 103.5,21.5 103.5,22.5 103.5,23.5C 107.831,24.0148 109.331,22.3482 108,18.5C 111.169,19.2354 114.502,19.2354 118,18.5C 119.509,19.0897 121.009,19.7564 122.5,20.5C 121.975,21.1924 121.308,21.6924 120.5,22C 122.677,23.1861 123.677,25.0194 123.5,27.5C 126.259,28.8852 129.259,29.5519 132.5,29.5C 152.515,29.2364 172.515,29.2364 192.5,29.5C 193.5,29.6667 194.5,29.8333 195.5,30C 187.589,31.6556 179.589,32.6556 171.5,33C 174.365,33.1829 177.031,33.6829 179.5,34.5C 174.167,34.5 168.833,34.5 163.5,34.5C 163.5,40.1667 163.5,45.8333 163.5,51.5C 164.833,51.5 166.167,51.5 167.5,51.5C 167.714,53.1439 167.38,54.6439 166.5,56C 171.797,55.5616 177.13,55.5616 182.5,56C 184.502,57.0192 186.502,57.8525 188.5,58.5C 161.789,58.1757 135.122,58.509 108.5,59.5C 108.783,84.815 108.449,110.148 107.5,135.5C 161.126,135.612 214.793,135.446 268.5,135C 269,134.5 269.5,134 270,133.5C 270.271,109.476 270.771,85.6425 271.5,62C 270.728,60.779 269.728,59.779 268.5,59C 264.179,58.501 259.846,58.3343 255.5,58.5C 258.776,57.7169 262.109,56.7169 265.5,55.5C 265.167,54.8333 264.833,54.1667 264.5,53.5C 258.681,52.8332 253.014,52.1665 247.5,51.5C 255.209,51.7311 262.876,51.3978 270.5,50.5C 272.111,45.175 271.777,40.0083 269.5,35C 254.167,34.3333 238.833,34.3333 223.5,35C 223,35.5 222.5,36 222,36.5C 221.501,40.8206 221.334,45.1539 221.5,49.5C 220.196,44.63 220.196,39.63 221.5,34.5C 230.816,33.6679 240.149,33.1679 249.5,33C 257.865,30.0937 266.532,28.7604 275.5,29C 275,28.5 274.5,28 274,27.5C 268.593,28.4732 263.093,28.8066 257.5,28.5C 257.5,27.1667 257.5,25.8333 257.5,24.5C 248.161,24.6665 238.827,24.4998 229.5,24C 227.487,23.3203 226.154,21.987 225.5,20C 228.085,15.2212 228.752,15.3878 227.5,20.5C 228.325,21.3857 229.325,21.719 230.5,21.5C 230.579,20.0695 230.246,18.7362 229.5,17.5C 244.822,16.3338 260.156,16.1671 275.5,17C 277.167,18 278.833,19 280.5,20C 279.978,20.5613 279.645,21.228 279.5,22C 281.485,71.388 282.152,120.888 281.5,170.5C 280.167,170.5 278.833,170.5 277.5,170.5C 277.5,169.5 277.5,168.5 277.5,167.5C 274.167,167.5 270.833,167.5 267.5,167.5C 267.5,169.833 267.5,172.167 267.5,174.5C 236.865,174.641 206.198,174.641 175.5,174.5C 175.5,173.5 175.5,172.5 175.5,171.5C 173.5,171.5 171.5,171.5 169.5,171.5C 169.5,170.167 169.5,168.833 169.5,167.5C 168.167,167.5 166.833,167.5 165.5,167.5C 165.012,164.289 165.679,161.456 167.5,159C 164.881,159.083 162.214,159.25 159.5,159.5C 159.227,161.451 159.893,162.951 161.5,164C 160.207,164.49 158.873,164.657 157.5,164.5C 158.953,167.986 159.619,171.653 159.5,175.5C 155.658,175.761 151.991,175.094 148.5,173.5C 143.095,175.535 137.762,175.535 132.5,173.5C 124.315,174.173 116.149,175.173 108,176.5C 105.813,176.212 103.646,175.878 101.5,175.5C 101.66,173.801 101.494,172.134 101,170.5C 100.667,171.5 100.333,172.5 100,173.5C 97.5774,172.288 95.2441,170.954 93,169.5C 85.1631,172.334 76.9964,174.334 68.5,175.5C 67.1374,174.802 65.9707,174.802 65,175.5C 63.4749,172.913 61.3083,172.08 58.5,173C 60.3237,173.66 61.657,174.827 62.5,176.5 Z"/></g>
<g><path style="opacity:1" fill="#fdfcfb" d="M 188.5,58.5 C 210.833,58.5 233.167,58.5 255.5,58.5C 259.846,58.3343 264.179,58.501 268.5,59C 269.728,59.779 270.728,60.779 271.5,62C 270.771,85.6425 270.271,109.476 270,133.5C 269.5,134 269,134.5 268.5,135C 214.793,135.446 161.126,135.612 107.5,135.5C 108.449,110.148 108.783,84.815 108.5,59.5C 135.122,58.509 161.789,58.1757 188.5,58.5 Z"/></g>
<g><path style="opacity:1" fill="#828184" d="M 230.5,116.5 C 232.517,115.126 234.517,115.293 236.5,117C 234.296,116.772 232.296,116.606 230.5,116.5 Z"/></g>
<g><path style="opacity:1" fill="#c3c2c3" d="M 143.5,114.5 C 147.387,114.699 151.387,114.866 155.5,115C 154.774,116.397 153.607,117.231 152,117.5C 149.17,118.403 146.503,118.737 144,118.5C 143.51,117.207 143.343,115.873 143.5,114.5 Z"/></g>
<g><path style="opacity:1" fill="#c1915f" d="M 151.5,104.5 C 151.5,105.5 151.5,106.5 151.5,107.5C 147.778,108.32 145.445,106.987 144.5,103.5C 145.79,102.942 146.623,101.942 147,100.5C 148.333,103.167 149.667,103.167 151,100.5C 151.49,101.793 151.657,103.127 151.5,104.5 Z"/></g>
<g><path style="opacity:1" fill="#9c351d" d="M 232.5,98.5 C 233.492,98.3284 234.158,98.6618 234.5,99.5C 234.47,105.064 232.137,106.564 227.5,104C 229.167,103.667 230.833,103.333 232.5,103C 231.199,101.384 231.199,99.8845 232.5,98.5 Z"/></g>
<g><path style="opacity:1" fill="#dea05b" d="M 228.5,98.5 C 229.833,97.1667 231.167,97.1667 232.5,98.5C 231.199,99.8845 231.199,101.384 232.5,103C 230.833,103.333 229.167,103.667 227.5,104C 232.137,106.564 234.47,105.064 234.5,99.5C 236.452,103.598 235.119,106.264 230.5,107.5C 227.363,106.699 225.696,104.699 225.5,101.5C 226.833,101.5 228.167,101.5 229.5,101.5C 229.737,100.209 229.404,99.209 228.5,98.5 Z"/></g>
<g><path style="opacity:1" fill="#d9331d" d="M 228.5,98.5 C 229.404,99.209 229.737,100.209 229.5,101.5C 228.167,101.5 226.833,101.5 225.5,101.5C 225.5,99.5 226.5,98.5 228.5,98.5 Z"/></g>
<g><path style="opacity:1" fill="#e9d259" d="M 151.5,104.5 C 151.657,103.127 151.49,101.793 151,100.5C 149.667,103.167 148.333,103.167 147,100.5C 146.623,101.942 145.79,102.942 144.5,103.5C 143.427,102.749 143.26,101.749 144,100.5C 146.655,96.9464 149.655,96.613 153,99.5C 153.167,100.333 153.333,101.167 153.5,102C 153.316,103.376 152.649,104.209 151.5,104.5 Z"/></g>
<g><path style="opacity:1" fill="#dd834a" d="M 223.5,77.5 C 227.514,77.3345 231.514,77.5012 235.5,78C 235.957,78.414 236.291,78.914 236.5,79.5C 219.997,79.3473 210.663,87.3473 208.5,103.5C 207.5,103.5 206.5,103.5 205.5,103.5C 205.437,94.7904 208.771,87.6237 215.5,82C 218.448,80.7627 221.115,79.2627 223.5,77.5 Z"/></g>
<g><path style="opacity:1" fill="#de844c" d="M 143.5,77.5 C 154.392,76.3666 163.225,80.0333 170,88.5C 170.483,89.448 170.649,90.448 170.5,91.5C 169.448,91.6495 168.448,91.4828 167.5,91C 158.649,79.5786 147.983,77.5786 135.5,85C 129.675,89.816 127.008,95.9827 127.5,103.5C 126.167,103.5 124.833,103.5 123.5,103.5C 124.421,90.2896 131.088,81.6229 143.5,77.5 Z"/></g>
<g><path style="opacity:1" fill="#bfbebd" d="M 114.5,64.5 C 119.32,65.2111 124.32,65.2111 129.5,64.5C 130.795,65.0983 132.128,65.5983 133.5,66C 127.231,67.2573 120.898,67.7573 114.5,67.5C 114.5,66.5 114.5,65.5 114.5,64.5 Z"/></g>
<g><path style="opacity:1" fill="#797c82" d="M 71.5,52.5 C 74.8306,53.0936 78.164,53.427 81.5,53.5C 76.8687,54.6616 72.202,54.8283 67.5,54C 69.0581,53.79 70.3915,53.29 71.5,52.5 Z"/></g>
<g><path style="opacity:1" fill="#fbfcfb" d="M 247.5,51.5 C 238.566,52.0915 229.899,51.4249 221.5,49.5C 221.334,45.1539 221.501,40.8206 222,36.5C 222.5,36 223,35.5 223.5,35C 238.833,34.3333 254.167,34.3333 269.5,35C 271.777,40.0083 272.111,45.175 270.5,50.5C 262.876,51.3978 255.209,51.7311 247.5,51.5 Z"/></g>
<g><path style="opacity:1" fill="#888889" d="M 226.5,44.5 C 229.458,44.7111 232.292,44.3777 235,43.5C 236.962,47.8611 235.962,48.5277 232,45.5C 230.582,47.3632 228.749,47.8632 226.5,47C 227.774,46.0228 227.774,45.1894 226.5,44.5 Z"/></g>
<g><path style="opacity:1" fill="#a9aba9" d="M 226.5,38.5 C 229.85,38.335 233.183,38.5017 236.5,39C 234,39.5 231.5,40 229,40.5C 227.624,40.3158 226.791,39.6491 226.5,38.5 Z"/></g>
<g><path style="opacity:1" fill="#f8f9f9" d="M 179.5,34.5 C 190.172,34.3335 200.839,34.5002 211.5,35C 212.025,35.6924 212.692,36.1924 213.5,36.5C 214.661,40.7953 214.828,45.1287 214,49.5C 213.25,50.1258 212.416,50.6258 211.5,51C 196.837,51.4999 182.17,51.6666 167.5,51.5C 166.167,51.5 164.833,51.5 163.5,51.5C 163.5,45.8333 163.5,40.1667 163.5,34.5C 168.833,34.5 174.167,34.5 179.5,34.5 Z"/></g>
<g><path style="opacity:1" fill="#535555" d="M 176.5,44.5 C 177.267,45.172 177.934,46.0053 178.5,47C 176.5,47.6667 174.5,47.6667 172.5,47C 173.325,45.3117 174.325,45.1451 175.5,46.5C 176.298,46.0431 176.631,45.3764 176.5,44.5 Z"/></g>
<g><path style="opacity:1" fill="#2b2b2a" d="M 180.5,43.5 C 182.368,44.7861 182.534,46.1195 181,47.5C 180.51,46.2068 180.343,44.8734 180.5,43.5 Z"/></g>
<g><path style="opacity:1" fill="#f9fafb" d="M 108.5,34.5 C 124.514,34.1672 140.514,34.5006 156.5,35.5C 157.748,41.2011 158.082,46.8678 157.5,52.5C 141.838,51.9496 126.171,51.4496 110.5,51C 109.667,50.1667 108.833,49.3333 108,48.5C 107.227,43.7481 107.393,39.0815 108.5,34.5 Z"/></g>
<g><path style="opacity:1" fill="#8f9094" d="M 119.5,44.5 C 120.935,43.9035 122.602,43.9035 124.5,44.5C 124.5,45.5 124.5,46.5 124.5,47.5C 122.473,47.6621 120.473,47.4955 118.5,47C 120.359,46.3992 120.692,45.5659 119.5,44.5 Z"/></g>
<g><path style="opacity:1" fill="#9e9fa1" d="M 112.5,44.5 C 113.762,44.0934 115.095,43.76 116.5,43.5C 117.429,44.6888 117.762,46.0222 117.5,47.5C 115.801,47.6602 114.134,47.4935 112.5,47C 113.774,46.0228 113.774,45.1894 112.5,44.5 Z"/></g>
<g><path style="opacity:1" fill="#dd8b5e" d="M 93.5,137.5 C 95.5452,142.215 96.0452,147.215 95,152.5C 94.6174,153.056 94.1174,153.389 93.5,153.5C 81.6738,154.66 69.6738,154.826 57.5,154C 57,153.5 56.5,153 56,152.5C 55.3333,148.167 55.3333,143.833 56,139.5C 56.5,139 57,138.5 57.5,138C 69.4954,137.5 81.4954,137.333 93.5,137.5 Z"/></g>
<g><path style="opacity:1" fill="#ea894f" d="M 93.5,142.5 C 93.5,144.167 93.5,145.833 93.5,147.5C 90.9179,147.025 88.9179,147.692 87.5,149.5C 82.1563,149.334 76.8229,149.501 71.5,150C 70.944,150.383 70.6107,150.883 70.5,151.5C 66.9359,150.577 63.2693,150.244 59.5,150.5C 59.2105,146.446 59.8771,145.946 61.5,149C 62.7932,149.49 64.1266,149.657 65.5,149.5C 65.9452,146.635 65.2785,144.135 63.5,142C 68.1125,141.438 70.4458,143.605 70.5,148.5C 71.4742,146.257 71.8076,143.924 71.5,141.5C 77.8046,141.059 83.9713,141.726 90,143.5C 91.2559,143.352 92.4226,143.018 93.5,142.5 Z"/></g>
<g><path style="opacity:1" fill="#ea803e" d="M 93.5,142.5 C 92.4226,143.018 91.2559,143.352 90,143.5C 83.9713,141.726 77.8046,141.059 71.5,141.5C 71.8076,143.924 71.4742,146.257 70.5,148.5C 70.4458,143.605 68.1125,141.438 63.5,142C 65.2785,144.135 65.9452,146.635 65.5,149.5C 64.1266,149.657 62.7932,149.49 61.5,149C 59.8771,145.946 59.2105,146.446 59.5,150.5C 63.2693,150.244 66.9359,150.577 70.5,151.5C 76.5368,151.829 82.5368,151.496 88.5,150.5C 88.3764,149.893 88.0431,149.56 87.5,149.5C 88.9179,147.692 90.9179,147.025 93.5,147.5C 93.5,149.5 93.5,151.5 93.5,153.5C 81.8286,153.667 70.1619,153.5 58.5,153C 57.1667,148.333 57.1667,143.667 58.5,139C 70.1854,138.305 81.8521,138.472 93.5,139.5C 93.5,140.5 93.5,141.5 93.5,142.5 Z"/></g>
<g><path style="opacity:1" fill="#f0b288" d="M 87.5,149.5 C 88.0431,149.56 88.3764,149.893 88.5,150.5C 82.5368,151.496 76.5368,151.829 70.5,151.5C 70.6107,150.883 70.944,150.383 71.5,150C 76.8229,149.501 82.1563,149.334 87.5,149.5 Z"/></g>
<g><path style="opacity:1" fill="#bf8f65" d="M 59.5,164.5 C 62.4701,164.746 63.8034,166.412 63.5,169.5C 59.0706,170.083 57.7372,168.416 59.5,164.5 Z"/></g>
<g><path style="opacity:1" fill="#8b8e94" d="M 69.5,166.5 C 73.6341,167.11 77.6341,167.444 81.5,167.5C 77.2047,168.661 72.8713,168.828 68.5,168C 69.056,167.617 69.3893,167.117 69.5,166.5 Z"/></g>
</svg>
