<?xml version="1.0" encoding="UTF-8"?>
<!DOCTYPE svg PUBLIC "-//W3C//DTD SVG 1.1//EN" "http://www.w3.org/Graphics/SVG/1.1/DTD/svg11.dtd">
<svg xmlns="http://www.w3.org/2000/svg" version="1.1" width="336px" height="188px" style="shape-rendering:geometricPrecision; text-rendering:geometricPrecision; image-rendering:optimizeQuality; fill-rule:evenodd; clip-rule:evenodd" xmlns:xlink="http://www.w3.org/1999/xlink">
<g><path style="opacity:1" fill="#f0b364" d="M -0.5,-0.5 C 111.5,-0.5 223.5,-0.5 335.5,-0.5C 335.5,0.166667 335.5,0.833333 335.5,1.5C 223.5,1.5 111.5,1.5 -0.5,1.5C -0.5,0.833333 -0.5,0.166667 -0.5,-0.5 Z"/></g>
<g><path style="opacity:1" fill="#fab24c" d="M -0.5,1.5 C 111.5,1.5 223.5,1.5 335.5,1.5C 335.5,62.8333 335.5,124.167 335.5,185.5C 223.5,185.5 111.5,185.5 -0.5,185.5C -0.5,124.167 -0.5,62.8333 -0.5,1.5 Z"/></g>
<g><path style="opacity:1" fill="#fcf9f2" d="M 86.5,63.5 C 94.8358,64.5989 102.336,67.9322 109,73.5C 109.831,80.1915 109.664,86.8582 108.5,93.5C 102.672,97.4968 96.5052,100.83 90,103.5C 84.0675,100.556 78.4009,97.223 73,93.5C 72.3333,86.8333 72.3333,80.1667 73,73.5C 73.3742,72.5838 73.8742,71.7504 74.5,71C 78.7324,68.7254 82.7324,66.2254 86.5,63.5 Z"/></g>
<g><path style="opacity:1" fill="#ac7d41" d="M 220.5,69.5 C 224.147,70.3499 228.147,70.5166 232.5,70C 232.5,71 232.5,72 232.5,73C 231.207,73.49 229.873,73.6567 228.5,73.5C 228.649,72.448 228.483,71.448 228,70.5C 226.378,72.5465 224.212,73.5465 221.5,73.5C 217.587,72.999 213.587,72.999 209.5,73.5C 207.833,73.5 206.167,73.5 204.5,73.5C 204.167,69.5 203.833,69.5 203.5,73.5C 202.5,73.5 201.5,73.5 200.5,73.5C 199.1,72.8999 198.1,71.8999 197.5,70.5C 199.205,67.7131 200.372,68.0465 201,71.5C 203.383,70.2343 206.05,69.5676 209,69.5C 211.755,69.5252 214.422,69.8586 217,70.5C 217.704,68.273 218.871,67.9397 220.5,69.5 Z"/></g>
<g><path style="opacity:1" fill="#9b7038" d="M 183.5,74.5 C 182.833,74.5 182.5,74.1667 182.5,73.5C 182.5,72.1667 182.5,70.8333 182.5,69.5C 183.5,69.5 184.5,69.5 185.5,69.5C 185.923,71.7812 185.256,73.4479 183.5,74.5 Z"/></g>
<g><path style="opacity:1" fill="#d9a255" d="M 181.5,68.5 C 185.514,68.3345 189.514,68.5012 193.5,69C 194.317,71.3725 195.65,71.8725 197.5,70.5C 198.1,71.8999 199.1,72.8999 200.5,73.5C 197.252,74.1323 194.085,74.1323 191,73.5C 188.908,73.879 186.908,74.5457 185,75.5C 184.235,75.4301 183.735,75.0967 183.5,74.5C 185.256,73.4479 185.923,71.7812 185.5,69.5C 184.5,69.5 183.5,69.5 182.5,69.5C 182.5,70.8333 182.5,72.1667 182.5,73.5C 182.167,73.5 181.833,73.5 181.5,73.5C 181.5,71.8333 181.5,70.1667 181.5,68.5 Z"/></g>
<g><path style="opacity:1" fill="#996020" d="M 168.5,68.5 C 169.833,68.5 171.167,68.5 172.5,68.5C 173.244,71.9496 171.91,73.6162 168.5,73.5C 168.5,71.8333 168.5,70.1667 168.5,68.5 Z"/></g>
<g><path style="opacity:1" fill="#a77e41" d="M 181.5,68.5 C 181.5,70.1667 181.5,71.8333 181.5,73.5C 178.833,73.5 176.167,73.5 173.5,73.5C 173.5,72.1667 173.5,70.8333 173.5,69.5C 176.279,69.7214 178.946,69.388 181.5,68.5 Z"/></g>
<g><path style="opacity:1" fill="#f1b159" d="M 247.5,68.5 C 246.387,69.9464 246.22,71.6131 247,73.5C 247.807,69.551 248.307,69.551 248.5,73.5C 250.167,73.5 251.833,73.5 253.5,73.5C 253.5,72.1667 253.5,70.8333 253.5,69.5C 251.861,69.9258 250.528,69.9258 249.5,69.5C 250.777,68.1024 252.443,67.4357 254.5,67.5C 261.47,68.3872 268.47,68.7205 275.5,68.5C 275.631,69.2389 275.464,69.9056 275,70.5C 273.989,69.6634 272.822,69.33 271.5,69.5C 270.669,74.1447 271.836,75.1447 275,72.5C 275.333,72.8333 275.667,73.1667 276,73.5C 276.611,69.7279 277.611,69.7279 279,73.5C 279.974,71.1224 280.641,71.4557 281,74.5C 281.324,72.4311 282.158,72.0977 283.5,73.5C 284.583,72.635 284.749,71.635 284,70.5C 281.393,69.8767 278.893,69.21 276.5,68.5C 279.898,68.1796 283.232,68.513 286.5,69.5C 287.165,71.1012 287.499,72.6012 287.5,74C 286.207,74.49 284.873,74.6567 283.5,74.5C 283.5,75.5 283.5,76.5 283.5,77.5C 282.167,77.5 280.833,77.5 279.5,77.5C 279.5,76.5 279.5,75.5 279.5,74.5C 276.117,74.2572 272.951,74.9239 270,76.5C 269.481,75.4844 268.647,74.8178 267.5,74.5C 263.785,74.814 260.285,75.814 257,77.5C 256.05,76.9777 255.216,76.311 254.5,75.5C 253.167,77.1667 253.167,78.8333 254.5,80.5C 262.962,79.1837 271.295,79.1837 279.5,80.5C 273.491,80.3338 267.491,80.5005 261.5,81C 260.667,81.8333 259.833,82.6667 259,83.5C 258.24,90.5495 258.407,97.5495 259.5,104.5C 258.883,104.389 258.383,104.056 258,103.5C 257.83,97.4725 257.33,91.4725 256.5,85.5C 255.669,91.8072 255.169,98.1406 255,104.5C 254.5,105 254,105.5 253.5,106C 245.988,106.822 238.655,106.655 231.5,105.5C 238.508,105.666 245.508,105.5 252.5,105C 253,104.5 253.5,104 254,103.5C 254.667,96.8333 254.667,90.1667 254,83.5C 253.692,82.6919 253.192,82.0253 252.5,81.5C 245.217,80.3682 237.883,80.2015 230.5,81C 230,81.5 229.5,82 229,82.5C 228.5,89.4921 228.334,96.4921 228.5,103.5C 227.671,96.3448 227.171,89.0115 227,81.5C 222.653,76.8825 223.153,76.5492 228.5,80.5C 229.466,78.604 229.799,76.604 229.5,74.5C 222.646,74.824 215.979,74.4907 209.5,73.5C 213.587,72.999 217.587,72.999 221.5,73.5C 224.212,73.5465 226.378,72.5465 228,70.5C 228.483,71.448 228.649,72.448 228.5,73.5C 229.873,73.6567 231.207,73.49 232.5,73C 232.5,72 232.5,71 232.5,70C 228.147,70.5166 224.147,70.3499 220.5,69.5C 225.52,68.6122 230.52,68.2789 235.5,68.5C 239.5,67.1667 243.5,67.1667 247.5,68.5 Z"/></g>
<g><path style="opacity:1" fill="#aa7d39" d="M 241.5,68.5 C 242.833,68.5 244.167,68.5 245.5,68.5C 245.321,70.6056 244.321,72.2723 242.5,73.5C 241.548,71.9547 241.215,70.288 241.5,68.5 Z"/></g>
<g><path style="opacity:1" fill="#b0854c" d="M 254.5,68.5 C 255.458,68.9528 256.292,69.6195 257,70.5C 261.401,69.5333 265.901,69.2 270.5,69.5C 270.5,70.8333 270.5,72.1667 270.5,73.5C 267.934,73.3444 265.434,73.6777 263,74.5C 262.05,73.9777 261.216,73.311 260.5,72.5C 256.156,74.5881 254.156,73.2548 254.5,68.5 Z"/></g>
<g><path style="opacity:1" fill="#976b2c" d="M 247.5,68.5 C 247.842,69.3382 248.508,69.6716 249.5,69.5C 250.528,69.9258 251.861,69.9258 253.5,69.5C 253.5,70.8333 253.5,72.1667 253.5,73.5C 251.833,73.5 250.167,73.5 248.5,73.5C 248.307,69.551 247.807,69.551 247,73.5C 246.22,71.6131 246.387,69.9464 247.5,68.5 Z"/></g>
<g><path style="opacity:1" fill="#a67837" d="M 275.5,68.5 C 275.833,68.5 276.167,68.5 276.5,68.5C 278.893,69.21 281.393,69.8767 284,70.5C 284.749,71.635 284.583,72.635 283.5,73.5C 282.158,72.0977 281.324,72.4311 281,74.5C 280.641,71.4557 279.974,71.1224 279,73.5C 277.611,69.7279 276.611,69.7279 276,73.5C 275.667,73.1667 275.333,72.8333 275,72.5C 271.836,75.1447 270.669,74.1447 271.5,69.5C 272.822,69.33 273.989,69.6634 275,70.5C 275.464,69.9056 275.631,69.2389 275.5,68.5 Z"/></g>
<g><path style="opacity:1" fill="#906534" d="M 235.5,68.5 C 238.47,68.7458 239.803,70.4124 239.5,73.5C 238.167,73.5 236.833,73.5 235.5,73.5C 235.5,71.8333 235.5,70.1667 235.5,68.5 Z"/></g>
<g><path style="opacity:1" fill="#f1d276" d="M 94.5,79.5 C 93.0001,77.8159 91.3334,76.1493 89.5,74.5C 88.7696,76.3413 88.1029,78.1746 87.5,80C 86.2575,80.3114 85.2575,79.8114 84.5,78.5C 83.8165,78.8627 83.1499,79.1961 82.5,79.5C 83.5521,77.744 85.2188,77.0773 87.5,77.5C 87.5,75.8333 87.5,74.1667 87.5,72.5C 91.463,73.1295 93.7963,75.4629 94.5,79.5 Z"/></g>
<g><path style="opacity:1" fill="#eeaf58" d="M 94.5,79.5 C 97.5,79.1667 98.8333,80.5 98.5,83.5C 97.8333,83.5 97.1667,83.5 96.5,83.5C 91.6257,83.3962 86.6257,83.3962 81.5,83.5C 81.2322,81.901 81.5655,80.5676 82.5,79.5C 83.1499,79.1961 83.8165,78.8627 84.5,78.5C 85.2575,79.8114 86.2575,80.3114 87.5,80C 88.1029,78.1746 88.7696,76.3413 89.5,74.5C 91.3334,76.1493 93.0001,77.8159 94.5,79.5 Z"/></g>
<g><path style="opacity:1" fill="#f4bd95" d="M 96.5,84.5 C 98.0348,87.3298 97.0348,88.6631 93.5,88.5C 93.2014,87.2397 93.2014,86.073 93.5,85C 94.448,84.5172 95.448,84.3505 96.5,84.5 Z"/></g>
<g><path style="opacity:1" fill="#9c6a4f" d="M 96.5,83.5 C 96.5,83.8333 96.5,84.1667 96.5,84.5C 95.448,84.3505 94.448,84.5172 93.5,85C 93.2014,86.073 93.2014,87.2397 93.5,88.5C 91.5,88.5 89.5,88.5 87.5,88.5C 87.4226,87.2502 86.756,86.4169 85.5,86C 89.19,85.5756 89.3567,84.7423 86,83.5C 84.6976,84.0848 83.531,84.7515 82.5,85.5C 82.5,86.5 82.5,87.5 82.5,88.5C 81.5489,87.0813 81.2155,85.4147 81.5,83.5C 86.6257,83.3962 91.6257,83.3962 96.5,83.5 Z"/></g>
<g><path style="opacity:1" fill="#e3c6ae" d="M 87.5,88.5 C 85.5887,87.925 83.922,86.925 82.5,85.5C 83.531,84.7515 84.6976,84.0848 86,83.5C 89.3567,84.7423 89.19,85.5756 85.5,86C 86.756,86.4169 87.4226,87.2502 87.5,88.5 Z"/></g>
<g><path style="opacity:1" fill="#572d1c" d="M 96.5,84.5 C 96.5,84.1667 96.5,83.8333 96.5,83.5C 97.1667,83.5 97.8333,83.5 98.5,83.5C 98.6602,85.1992 98.4935,86.8659 98,88.5C 97.3292,89.2524 96.4959,89.5858 95.5,89.5C 92.6354,89.0548 90.1354,89.7215 88,91.5C 87.5172,90.552 87.3505,89.552 87.5,88.5C 89.5,88.5 91.5,88.5 93.5,88.5C 97.0348,88.6631 98.0348,87.3298 96.5,84.5 Z"/></g>
<g><path style="opacity:1" fill="#ce735e" d="M 82.5,85.5 C 83.922,86.925 85.5887,87.925 87.5,88.5C 87.3505,89.552 87.5172,90.552 88,91.5C 90.1354,89.7215 92.6354,89.0548 95.5,89.5C 94.8636,92.7946 92.8636,94.1279 89.5,93.5C 85.7558,93.7499 83.4224,92.0833 82.5,88.5C 82.5,87.5 82.5,86.5 82.5,85.5 Z"/></g>
<g><path style="opacity:1" fill="#2c2b2e" d="M 279.5,80.5 C 281.39,80.2965 282.89,80.9632 284,82.5C 284.667,89.5 284.667,96.5 284,103.5C 283.5,104 283,104.5 282.5,105C 274.754,105.798 267.087,105.631 259.5,104.5C 258.407,97.5495 258.24,90.5495 259,83.5C 259.833,82.6667 260.667,81.8333 261.5,81C 267.491,80.5005 273.491,80.3338 279.5,80.5 Z"/></g>
<g><path style="opacity:1" fill="#46aade" d="M 271.5,89.5 C 273.167,89.5 274.833,89.5 276.5,89.5C 279.435,92.5336 278.935,94.8669 275,96.5C 273.699,96.3613 272.866,95.6946 272.5,94.5C 272.634,92.7085 272.301,91.0418 271.5,89.5 Z"/></g>
<g><path style="opacity:1" fill="#9d62e3" d="M 267.5,89.5 C 268.833,89.5 270.167,89.5 271.5,89.5C 272.301,91.0418 272.634,92.7085 272.5,94.5C 270.283,95.3686 267.95,95.702 265.5,95.5C 265.253,93.1417 265.919,91.1417 267.5,89.5 Z"/></g>
<g><path style="opacity:1" fill="#f54f1d" d="M 267.5,84.5 C 268.833,84.5 270.167,84.5 271.5,84.5C 271.5,85.8333 271.5,87.1667 271.5,88.5C 269.833,88.5 268.167,88.5 266.5,88.5C 266.5,87.5 266.5,86.5 266.5,85.5C 266.5,84.8333 266.833,84.5 267.5,84.5 Z"/></g>
<g><path style="opacity:1" fill="#e66e5f" d="M 267.5,84.5 C 270.304,83.3622 273.304,83.1955 276.5,84C 279.124,85.9688 279.124,87.8022 276.5,89.5C 274.833,89.5 273.167,89.5 271.5,89.5C 270.167,89.5 268.833,89.5 267.5,89.5C 266.414,89.38 265.747,88.7133 265.5,87.5C 265.543,86.5836 265.876,85.9169 266.5,85.5C 266.5,86.5 266.5,87.5 266.5,88.5C 268.167,88.5 269.833,88.5 271.5,88.5C 271.5,87.1667 271.5,85.8333 271.5,84.5C 270.167,84.5 268.833,84.5 267.5,84.5 Z"/></g>
<g><path style="opacity:1" fill="#42032f" d="M 169.5,80.5 C 176.841,80.3337 184.174,80.5003 191.5,81C 192,81.5 192.5,82 193,82.5C 193.667,89.5 193.667,96.5 193,103.5C 192.5,104 192,104.5 191.5,105C 184.167,105.667 176.833,105.667 169.5,105C 169,104.5 168.5,104 168,103.5C 167.333,96.8333 167.333,90.1667 168,83.5C 168.513,82.4734 169.013,81.4734 169.5,80.5 Z"/></g>
<g><path style="opacity:1" fill="#e368dc" d="M 171.5,86.5 C 173.638,86.703 175.305,87.703 176.5,89.5C 177.515,86.8323 179.182,86.1656 181.5,87.5C 180.248,89.0009 179.248,90.6675 178.5,92.5C 179.373,94.4134 180.373,96.2467 181.5,98C 179.094,98.7789 177.427,97.9456 176.5,95.5C 175.335,96.4911 174.168,97.4911 173,98.5C 172.5,98.1667 172,97.8333 171.5,97.5C 172.752,95.9991 173.752,94.3325 174.5,92.5C 172.962,90.7567 171.962,88.7567 171.5,86.5 Z"/></g>
<g><path style="opacity:1" fill="#ef6ce7" d="M 189.5,98.5 C 183.504,99.6673 181.004,97.3339 182,91.5C 183.11,89.9632 184.61,89.2965 186.5,89.5C 187.158,88.6016 187.824,87.6016 188.5,86.5C 189.491,90.4454 189.824,94.4454 189.5,98.5 Z"/></g>
<g><path style="opacity:1" fill="#5b094d" d="M 185.5,91.5 C 186.649,91.7911 187.316,92.6244 187.5,94C 186.706,97.1215 185.706,97.1215 184.5,94C 184.743,93.0979 185.077,92.2646 185.5,91.5 Z"/></g>
<g><path style="opacity:1" fill="#fbeec3" d="M 139.5,87.5 C 142.006,90.0858 144.506,90.0858 147,87.5C 146.656,89.2576 146.156,91.0909 145.5,93C 146.156,94.9091 146.656,96.7424 147,98.5C 144.72,94.5879 142.553,94.5879 140.5,98.5C 140.167,98 139.833,97.5 139.5,97C 140.296,95.9079 140.963,94.7412 141.5,93.5C 140.822,91.484 140.156,89.484 139.5,87.5 Z"/></g>
<g><path style="opacity:1" fill="#89337a" d="M 189.5,98.5 C 189.824,94.4454 189.491,90.4454 188.5,86.5C 187.824,87.6016 187.158,88.6016 186.5,89.5C 186.5,88.1667 186.5,86.8333 186.5,85.5C 187.833,85.5 189.167,85.5 190.5,85.5C 190.818,90.0323 190.485,94.3656 189.5,98.5 Z"/></g>
<g><path style="opacity:1" fill="#2dc08b" d="M 266.5,96.5 C 268.167,96.5 269.833,96.5 271.5,96.5C 272.508,101.667 270.675,103.334 266,101.5C 265.36,99.735 265.527,98.0683 266.5,96.5 Z"/></g>
<g><path style="opacity:1" fill="#2f0904" d="M 223.5,83.5 C 223.813,90.7546 223.48,97.9213 222.5,105C 214.421,105.8 206.421,105.633 198.5,104.5C 197.407,97.5495 197.24,90.5495 198,83.5C 198.833,82.6667 199.667,81.8333 200.5,81C 207.5,80.3333 214.5,80.3333 221.5,81C 222.381,81.7083 223.047,82.5416 223.5,83.5 Z"/></g>
<g><path style="opacity:1" fill="#773f0d" d="M 215.5,89.5 C 215.5,92.5 215.5,95.5 215.5,98.5C 214.833,98.5 214.167,98.5 213.5,98.5C 213.5,98.1667 213.5,97.8333 213.5,97.5C 214.167,94.8333 214.833,92.1667 215.5,89.5 Z"/></g>
<g><path style="opacity:1" fill="#d48924" d="M 213.5,97.5 C 213.5,97.8333 213.5,98.1667 213.5,98.5C 211.844,97.8535 210.177,97.1869 208.5,96.5C 206.944,97.5471 205.277,98.2137 203.5,98.5C 204.809,94.5957 205.809,90.5957 206.5,86.5C 207.978,86.238 209.311,86.5713 210.5,87.5C 211.909,90.7268 212.909,94.0601 213.5,97.5 Z"/></g>
<g><path style="opacity:1" fill="#ec952c" d="M 215.5,98.5 C 215.5,95.5 215.5,92.5 215.5,89.5C 215.281,88.325 215.614,87.325 216.5,86.5C 216.833,88.5 217.167,90.5 217.5,92.5C 217.461,94.9522 216.794,96.9522 215.5,98.5 Z"/></g>
<g><path style="opacity:1" fill="#1a1213" d="M 231.5,105.5 C 230.5,104.833 229.5,104.167 228.5,103.5C 228.334,96.4921 228.5,89.4921 229,82.5C 229.5,82 230,81.5 230.5,81C 237.883,80.2015 245.217,80.3682 252.5,81.5C 253.192,82.0253 253.692,82.6919 254,83.5C 254.667,90.1667 254.667,96.8333 254,103.5C 253.5,104 253,104.5 252.5,105C 245.508,105.5 238.508,105.666 231.5,105.5 Z"/></g>
<g><path style="opacity:1" fill="#031b38" d="M 230.5,82.5 C 237.508,82.3337 244.508,82.5004 251.5,83C 253.14,89.378 253.64,95.878 253,102.5C 252.5,103 252,103.5 251.5,104C 244.833,104.667 238.167,104.667 231.5,104C 231,103.5 230.5,103 230,102.5C 229.208,95.7526 229.374,89.0859 230.5,82.5 Z"/></g>
<g><path style="opacity:1" fill="#479cda" d="M 244.5,89.5 C 249.443,89.2876 250.11,90.2876 246.5,92.5C 250.021,93.15 251.021,94.9834 249.5,98C 247.421,98.8077 245.421,98.641 243.5,97.5C 244.729,96.7189 246.062,96.2189 247.5,96C 243.864,94.899 242.864,92.7323 244.5,89.5 Z"/></g>
<g><path style="opacity:1" fill="#1b5d94" d="M 239.5,87.5 C 237.833,87.5 236.167,87.5 234.5,87.5C 234.5,91.1667 234.5,94.8333 234.5,98.5C 233.517,94.7016 233.183,90.7016 233.5,86.5C 235.735,86.2053 237.735,86.5386 239.5,87.5 Z"/></g>
<g><path style="opacity:1" fill="#449fe3" d="M 239.5,87.5 C 240.496,87.4142 241.329,87.7476 242,88.5C 243.509,93.4929 241.675,95.4929 236.5,94.5C 236.843,96.4832 236.176,97.8166 234.5,98.5C 234.5,94.8333 234.5,91.1667 234.5,87.5C 236.167,87.5 237.833,87.5 239.5,87.5 Z"/></g>
<g><path style="opacity:1" fill="#00153d" d="M 236.5,89.5 C 237.5,89.5 238.5,89.5 239.5,89.5C 239.5,90.5 239.5,91.5 239.5,92.5C 238.5,92.5 237.5,92.5 236.5,92.5C 236.5,91.5 236.5,90.5 236.5,89.5 Z"/></g>
<g><path style="opacity:1" fill="#eaa74d" d="M 223.5,83.5 C 225.305,90.768 226.139,98.4347 226,106.5C 226.71,107.973 227.876,108.64 229.5,108.5C 229.5,109.5 229.5,110.5 229.5,111.5C 227.396,111.201 225.396,111.534 223.5,112.5C 223.667,112.833 223.833,113.167 224,113.5C 228.389,113.285 232.556,112.951 236.5,112.5C 239.206,114.988 239.039,117.321 236,119.5C 235.481,118.484 234.647,117.818 233.5,117.5C 231.481,118.14 229.647,118.14 228,117.5C 227.085,116.672 226.419,115.672 226,114.5C 225.683,116.301 225.016,116.634 224,115.5C 223.667,116.833 223.333,118.167 223,119.5C 219.515,117.891 215.848,116.558 212,115.5C 208.784,116.264 205.951,117.597 203.5,119.5C 203.5,118.5 203.5,117.5 203.5,116.5C 202.178,116.67 201.011,116.337 200,115.5C 199.225,117.223 197.892,118.223 196,118.5C 187.913,117.541 179.746,117.541 171.5,118.5C 171.051,116.023 171.717,114.023 173.5,112.5C 177.141,112.518 180.808,112.851 184.5,113.5C 187.571,111.247 190.738,111.247 194,113.5C 196.752,112.414 199.252,110.914 201.5,109C 199.624,108.082 198.624,106.582 198.5,104.5C 206.421,105.633 214.421,105.8 222.5,105C 223.48,97.9213 223.813,90.7546 223.5,83.5 Z"/></g>
<g><path style="opacity:1" fill="#d79844" d="M 239.5,113.5 C 248.988,112.52 258.654,112.187 268.5,112.5C 273.158,113.906 277.825,114.573 282.5,114.5C 281.282,114.109 280.448,114.776 280,116.5C 279.667,115.833 279.333,115.167 279,114.5C 276.667,117.167 274.333,117.167 272,114.5C 271.374,116.991 270.541,116.991 269.5,114.5C 269.704,115.529 269.204,116.529 268,117.5C 266.004,117.004 264.337,116.004 263,114.5C 262,117.167 261,117.167 260,114.5C 259.692,115.308 259.192,115.975 258.5,116.5C 253.471,115.914 248.137,115.914 242.5,116.5C 242.307,112.551 241.807,112.551 241,116.5C 240.768,115.263 240.268,114.263 239.5,113.5 Z"/></g>
<g><path style="opacity:1" fill="#fceccb" d="M 75.5,112.5 C 76.2389,112.369 76.9056,112.536 77.5,113C 76.8126,115.232 76.4793,117.398 76.5,119.5C 74.7648,118.943 73.0982,118.61 71.5,118.5C 71.9767,117.522 72.6433,116.689 73.5,116C 72.2986,115.097 71.4652,113.931 71,112.5C 71.7852,118.894 69.2852,120.894 63.5,118.5C 63.6128,111.338 64.6128,111.005 66.5,117.5C 67.4656,115.604 67.7989,113.604 67.5,111.5C 70.1441,111.16 72.4775,111.827 74.5,113.5C 75.1067,113.376 75.44,113.043 75.5,112.5 Z"/></g>
<g><path style="opacity:1" fill="#ecbe81" d="M 104.5,112.5 C 103.275,113.152 102.608,114.319 102.5,116C 102.833,117.167 103.167,118.333 103.5,119.5C 105.179,117.896 107.179,117.229 109.5,117.5C 109.66,115.801 109.494,114.134 109,112.5C 108.617,113.056 108.117,113.389 107.5,113.5C 110.684,111.586 114.351,110.92 118.5,111.5C 118.806,114.385 118.473,117.052 117.5,119.5C 117.5,118.167 117.5,116.833 117.5,115.5C 112.203,114.968 112.203,114.134 117.5,113C 115.527,112.505 113.527,112.338 111.5,112.5C 111.5,114.833 111.5,117.167 111.5,119.5C 110.417,119.539 109.417,119.873 108.5,120.5C 106.633,117.771 105.633,118.104 105.5,121.5C 103.214,121.405 101.214,120.738 99.5,119.5C 100.376,119.631 101.043,119.298 101.5,118.5C 100.873,117.583 100.539,116.583 100.5,115.5C 101.434,114.432 101.768,113.099 101.5,111.5C 102.791,111.263 103.791,111.596 104.5,112.5 Z"/></g>
<g><path style="opacity:1" fill="#f9f1db" d="M 104.5,112.5 C 105.391,113.11 106.391,113.443 107.5,113.5C 108.117,113.389 108.617,113.056 109,112.5C 109.494,114.134 109.66,115.801 109.5,117.5C 107.179,117.229 105.179,117.896 103.5,119.5C 103.167,118.333 102.833,117.167 102.5,116C 102.608,114.319 103.275,113.152 104.5,112.5 Z"/></g>
<g><path style="opacity:1" fill="#faeed5" d="M 117.5,119.5 C 115.5,119.5 113.5,119.5 111.5,119.5C 111.5,117.167 111.5,114.833 111.5,112.5C 113.527,112.338 115.527,112.505 117.5,113C 112.203,114.134 112.203,114.968 117.5,115.5C 117.5,116.833 117.5,118.167 117.5,119.5 Z"/></g>
<g><path style="opacity:1" fill="#f7e9ca" d="M 100.5,115.5 C 100.539,116.583 100.873,117.583 101.5,118.5C 101.043,119.298 100.376,119.631 99.5,119.5C 98.1667,119.5 96.8333,119.5 95.5,119.5C 88.6585,121.257 86.3252,118.924 88.5,112.5C 89.1698,114.291 89.8365,115.958 90.5,117.5C 94.3754,118.126 96.2087,116.459 96,112.5C 97.0113,111.663 98.1779,111.33 99.5,111.5C 99.4326,112.959 99.7659,114.292 100.5,115.5 Z"/></g>
<g><path style="opacity:1" fill="#f2bb6e" d="M 75.5,112.5 C 80.3054,111.513 85.3054,111.179 90.5,111.5C 90.5,113.5 90.5,115.5 90.5,117.5C 89.8365,115.958 89.1698,114.291 88.5,112.5C 86.3252,118.924 88.6585,121.257 95.5,119.5C 93.0521,120.473 90.3854,120.806 87.5,120.5C 85.6941,117.662 84.6941,117.995 84.5,121.5C 82.0072,121.671 80.1739,120.671 79,118.5C 76.6166,119.766 73.95,120.432 71,120.5C 68.0706,120.475 65.5706,119.809 63.5,118.5C 69.2852,120.894 71.7852,118.894 71,112.5C 71.4652,113.931 72.2986,115.097 73.5,116C 72.6433,116.689 71.9767,117.522 71.5,118.5C 73.0982,118.61 74.7648,118.943 76.5,119.5C 76.4793,117.398 76.8126,115.232 77.5,113C 76.9056,112.536 76.2389,112.369 75.5,112.5 Z"/></g>
<g><path style="opacity:1" fill="#fdf5da" d="M 81.5,112.5 C 83.1992,112.34 84.8659,112.506 86.5,113C 82.5,114 82.5,115 86.5,116C 82.3226,120.585 80.6559,119.418 81.5,112.5 Z"/></g>
<g><path style="opacity:1" fill="#f5b85b" d="M 111.5,119.5 C 113.5,119.5 115.5,119.5 117.5,119.5C 117.328,121.492 117.995,123.158 119.5,124.5C 118.313,125.519 117.313,126.686 116.5,128C 108.167,128.667 99.8333,128.667 91.5,128C 90.9747,127.308 90.3081,126.808 89.5,126.5C 81.7693,126.227 74.7693,126.56 68.5,127.5C 66.8333,127.167 65.8333,126.167 65.5,124.5C 72.8032,123.503 80.1365,123.169 87.5,123.5C 87.5,122.5 87.5,121.5 87.5,120.5C 90.3854,120.806 93.0521,120.473 95.5,119.5C 96.8333,119.5 98.1667,119.5 99.5,119.5C 101.214,120.738 103.214,121.405 105.5,121.5C 105.633,118.104 106.633,117.771 108.5,120.5C 109.417,119.873 110.417,119.539 111.5,119.5 Z"/></g>
<g><path style="opacity:1" fill="#eeb262" d="M -0.5,185.5 C 111.5,185.5 223.5,185.5 335.5,185.5C 335.5,186.167 335.5,186.833 335.5,187.5C 223.5,187.5 111.5,187.5 -0.5,187.5C -0.5,186.833 -0.5,186.167 -0.5,185.5 Z"/></g>
</svg>
