<?xml version="1.0" encoding="UTF-8"?>
<!DOCTYPE svg PUBLIC "-//W3C//DTD SVG 1.1//EN" "http://www.w3.org/Graphics/SVG/1.1/DTD/svg11.dtd">
<svg xmlns="http://www.w3.org/2000/svg" version="1.1" width="336px" height="188px" style="shape-rendering:geometricPrecision; text-rendering:geometricPrecision; image-rendering:optimizeQuality; fill-rule:evenodd; clip-rule:evenodd" xmlns:xlink="http://www.w3.org/1999/xlink">
<g><path style="opacity:1" fill="#5b013f" d="M -0.5,-0.5 C 111.5,-0.5 223.5,-0.5 335.5,-0.5C 335.5,61.5 335.5,123.5 335.5,185.5C 317.833,185.5 300.167,185.5 282.5,185.5C 283.991,184.087 284.658,182.587 284.5,181C 283.022,178.961 281.022,178.128 278.5,178.5C 278.5,177.167 278.5,175.833 278.5,174.5C 279.833,174.5 281.167,174.5 282.5,174.5C 282.5,173.5 282.5,172.5 282.5,171.5C 278.08,170.91 277.414,168.91 280.5,165.5C 285.182,164.782 289.849,164.116 294.5,163.5C 295.466,161.604 295.799,159.604 295.5,157.5C 298.5,157.5 301.5,157.5 304.5,157.5C 304.5,156.167 304.5,154.833 304.5,153.5C 301.996,154.639 299.33,155.306 296.5,155.5C 296.5,155.167 296.5,154.833 296.5,154.5C 298.504,153.327 300.004,151.66 301,149.5C 301.667,112.833 301.667,76.1667 301,39.5C 300.34,37.6763 299.173,36.343 297.5,35.5C 297.082,34.7784 296.416,34.2784 295.5,34C 279.17,33.5001 262.837,33.3334 246.5,33.5C 245.833,33.5 245.167,33.5 244.5,33.5C 261.164,31.87 278.164,30.7034 295.5,30C 287.479,29.8316 279.479,29.3316 271.5,28.5C 274.5,27.8333 277.5,27.1667 280.5,26.5C 280.023,25.5224 279.357,24.6891 278.5,24C 281.429,23.2228 284.263,23.3895 287,24.5C 287.498,21.5184 287.665,18.5184 287.5,15.5C 284.833,15.5 282.167,15.5 279.5,15.5C 279.5,12.8333 279.5,10.1667 279.5,7.5C 276.833,7.5 274.167,7.5 271.5,7.5C 271.5,8.83333 271.5,10.1667 271.5,11.5C 270.022,11.762 268.689,11.4287 267.5,10.5C 266.41,8.63814 265.41,6.8048 264.5,5C 260.406,4.23266 256.406,4.566 252.5,6C 255.882,6.17636 259.215,6.67636 262.5,7.5C 262.291,8.08605 261.957,8.58605 261.5,9C 263.303,9.63681 264.636,10.8035 265.5,12.5C 264.626,14.7466 264.292,17.0799 264.5,19.5C 263.5,19.5 262.5,19.5 261.5,19.5C 261.817,16.4281 261.484,13.4281 260.5,10.5C 259.702,12.0777 259.202,13.7444 259,15.5C 258.388,12.8854 256.888,11.2187 254.5,10.5C 253.833,11.1667 253.167,11.8333 252.5,12.5C 252.167,11.8333 251.833,11.1667 251.5,10.5C 250.626,9.47489 249.459,8.80822 248,8.5C 243.02,9.09284 238.186,9.75951 233.5,10.5C 235.044,13.248 235.71,16.248 235.5,19.5C 228.088,21.0334 220.588,22.0334 213,22.5C 212,22.1667 211,21.8333 210,21.5C 209.517,22.448 209.351,23.448 209.5,24.5C 206.5,24.5 203.5,24.5 200.5,24.5C 200.67,23.1779 200.337,22.0113 199.5,21C 197.618,20.8019 195.952,20.3019 194.5,19.5C 195.156,18.7222 195.989,18.0556 197,17.5C 199.256,19.0855 201.756,19.7521 204.5,19.5C 204.326,14.9786 204.993,14.6452 206.5,18.5C 207.325,19.3857 208.325,19.719 209.5,19.5C 209.833,19.5 210.167,19.5 210.5,19.5C 211.5,19.5 212.5,19.5 213.5,19.5C 213.833,19.5 214.167,19.5 214.5,19.5C 216.164,18.0512 216.998,16.0512 217,13.5C 217.604,19.8907 219.271,20.5573 222,15.5C 222.219,16.938 222.719,18.2713 223.5,19.5C 224.484,16.5719 224.817,13.5719 224.5,10.5C 221.671,10.3249 220.004,11.6582 219.5,14.5C 218.828,13.0508 218.161,11.7175 217.5,10.5C 214.167,9.16667 210.833,9.16667 207.5,10.5C 207.783,16.9247 206.783,17.0914 204.5,11C 203.552,10.5172 202.552,10.3505 201.5,10.5C 201.92,19.1479 200.92,19.4812 198.5,11.5C 198,11.1667 197.5,10.8333 197,10.5C 195.989,11.0556 195.156,11.7222 194.5,12.5C 194.5,10.5 194.5,8.5 194.5,6.5C 191.989,6.83803 189.655,6.83803 187.5,6.5C 190.803,5.56036 194.136,4.72703 197.5,4C 190.5,3.66667 183.5,3.33333 176.5,3C 181.833,2.66667 187.167,2.33333 192.5,2C 146.833,1.33333 101.167,1.33333 55.5,2C 55.1612,5.97786 55.1612,10.4779 55.5,15.5C 52.8333,15.5 50.1667,15.5 47.5,15.5C 48.4147,20.539 48.4147,25.539 47.5,30.5C 56.1419,31.4413 70.1419,31.9413 89.5,32C 91.7823,33.0842 92.1157,34.5842 90.5,36.5C 88.8599,35.6799 87.1932,34.8466 85.5,34C 69.5,33.3333 53.5,33.3333 37.5,34C 34.5914,35.4055 32.5914,37.5722 31.5,40.5C 30.6675,76.6644 30.1675,112.998 30,149.5C 29.8333,112.829 29.3333,76.1621 28.5,39.5C 27.52,42.0865 27.1866,44.7531 27.5,47.5C 25.5,47.5 23.5,47.5 21.5,47.5C 21.4977,63.5346 20.831,79.5346 19.5,95.5C 20.5,95.5 21.5,95.5 22.5,95.5C 22.5,98.1667 22.5,100.833 22.5,103.5C 21.5,103.5 20.5,103.5 19.5,103.5C 19.5,106.167 19.5,108.833 19.5,111.5C 20.5,111.5 21.5,111.5 22.5,111.5C 22.5,114.167 22.5,116.833 22.5,119.5C 21.5,119.5 20.5,119.5 19.5,119.5C 19.5,124.833 19.5,130.167 19.5,135.5C 20.5,135.5 21.5,135.5 22.5,135.5C 22.2197,140.314 22.8864,144.98 24.5,149.5C 25.2508,148.624 25.7508,147.624 26,146.5C 26.1667,147.333 26.3333,148.167 26.5,149C 24.7844,151.065 23.451,153.398 22.5,156C 24.087,156.862 25.7536,157.529 27.5,158C 25.6183,158.198 23.9516,158.698 22.5,159.5C 20.8008,159.66 19.1341,159.494 17.5,159C 18.6872,157.981 19.6872,156.814 20.5,155.5C 18.5814,155.386 16.5814,154.72 14.5,153.5C 14.7989,155.604 14.4656,157.604 13.5,159.5C 13.3306,157.883 12.9972,156.216 12.5,154.5C 11.2836,155.002 10.1169,155.335 9,155.5C 8.38277,156.449 8.54943,157.282 9.5,158C 7.45033,159.636 6.45033,161.802 6.5,164.5C 8.16667,164.5 9.83333,164.5 11.5,164.5C 11.3433,163.127 11.51,161.793 12,160.5C 12.7172,161.044 13.2172,161.711 13.5,162.5C 12.8902,163.391 12.5569,164.391 12.5,165.5C 11.1853,170.68 11.1853,176.014 12.5,181.5C 14.3853,182.609 16.3853,183.443 18.5,184C 16.5,184.5 14.5,185 12.5,185.5C 8.21274,184.625 3.8794,184.292 -0.5,184.5C -0.5,122.833 -0.5,61.1667 -0.5,-0.5 Z"/></g>
<g><path style="opacity:1" fill="#e9d3e0" d="M 233.5,10.5 C 235.924,10.1924 238.257,10.5258 240.5,11.5C 238.777,13.8676 238.11,16.5342 238.5,19.5C 237.5,19.5 236.5,19.5 235.5,19.5C 235.71,16.248 235.044,13.248 233.5,10.5 Z"/></g>
<g><path style="opacity:1" fill="#faedf7" d="M 254.5,10.5 C 256.888,11.2187 258.388,12.8854 259,15.5C 259.202,13.7444 259.702,12.0777 260.5,10.5C 261.484,13.4281 261.817,16.4281 261.5,19.5C 259.248,19.0844 257.748,17.751 257,15.5C 256.878,17.437 256.045,18.7703 254.5,19.5C 254.5,16.5 254.5,13.5 254.5,10.5 Z"/></g>
<g><path style="opacity:1" fill="#846d79" d="M 254.5,10.5 C 254.5,13.5 254.5,16.5 254.5,19.5C 253.833,18.8333 253.167,18.1667 252.5,17.5C 252.5,15.8333 252.5,14.1667 252.5,12.5C 253.167,11.8333 253.833,11.1667 254.5,10.5 Z"/></g>
<g><path style="opacity:1" fill="#640346" d="M 194.5,12.5 C 194.233,14.9653 193.566,17.2986 192.5,19.5C 194.132,20.832 195.799,22.1653 197.5,23.5C 193.857,25.3948 191.857,24.3948 191.5,20.5C 189.453,20.5111 187.453,20.8444 185.5,21.5C 183.829,21.3318 182.496,20.6651 181.5,19.5C 182.167,19.5 182.833,19.5 183.5,19.5C 185.621,19.6747 187.621,19.3414 189.5,18.5C 190.817,15.7699 190.817,12.9365 189.5,10C 184.47,9.72863 179.47,9.22863 174.5,8.5C 170.008,9.05119 165.674,9.71786 161.5,10.5C 160.683,12.9686 160.183,15.6353 160,18.5C 158.864,15.9036 158.031,13.237 157.5,10.5C 156.325,10.281 155.325,10.6143 154.5,11.5C 153.864,13.78 152.864,15.78 151.5,17.5C 151.47,18.4972 151.97,19.1639 153,19.5C 154,18.8333 155,18.1667 156,17.5C 157.03,17.8361 157.53,18.5028 157.5,19.5C 155.16,20.086 152.993,21.086 151,22.5C 148.936,21.4086 146.769,21.2419 144.5,22C 144.5,23 144.5,24 144.5,25C 134.151,25.1677 123.817,25.6677 113.5,26.5C 126.167,27.1667 138.833,27.8333 151.5,28.5C 148.833,29.1667 146.167,29.8333 143.5,30.5C 148.151,31.2971 152.818,31.4637 157.5,31C 159.734,33.0627 161.734,35.2294 163.5,37.5C 163.5,38.1667 163.5,38.8333 163.5,39.5C 162.833,39.1667 162.167,38.8333 161.5,38.5C 159.66,36.832 157.66,35.332 155.5,34C 139.5,33.3333 123.5,33.3333 107.5,34C 105.34,34.9959 103.673,36.4959 102.5,38.5C 102.167,38.5 101.833,38.5 101.5,38.5C 100.833,38.8333 100.167,39.1667 99.5,39.5C 97.7077,44.7455 96.8744,50.4121 97,56.5C 96.3333,59.1667 95.6667,59.1667 95,56.5C 94.8315,73.3384 94.3315,90.005 93.5,106.5C 93.8308,83.9938 93.4974,61.6604 92.5,39.5C 91.0937,39.0269 90.427,38.0269 90.5,36.5C 92.1157,34.5842 91.7823,33.0842 89.5,32C 70.1419,31.9413 56.1419,31.4413 47.5,30.5C 48.4147,25.539 48.4147,20.539 47.5,15.5C 50.1667,15.5 52.8333,15.5 55.5,15.5C 55.1612,10.4779 55.1612,5.97786 55.5,2C 101.167,1.33333 146.833,1.33333 192.5,2C 187.167,2.33333 181.833,2.66667 176.5,3C 183.5,3.33333 190.5,3.66667 197.5,4C 194.136,4.72703 190.803,5.56036 187.5,6.5C 189.655,6.83803 191.989,6.83803 194.5,6.5C 194.5,8.5 194.5,10.5 194.5,12.5 Z"/></g>
<g><path style="opacity:1" fill="#f8edf6" d="M 143.5,17.5 C 142.082,19.3079 140.082,19.9746 137.5,19.5C 137.183,16.4281 137.516,13.4281 138.5,10.5C 139.474,12.7427 139.808,15.076 139.5,17.5C 140.833,17.5 142.167,17.5 143.5,17.5 Z"/></g>
<g><path style="opacity:1" fill="#531c3d" d="M 189.5,18.5 C 189.5,17.1667 189.5,15.8333 189.5,14.5C 186.52,14.6071 184.854,15.4404 184.5,17C 183.167,15.6667 183.167,14.3333 184.5,13C 186.126,13.1953 187.793,13.1953 189.5,13C 185.67,9.29081 183.003,9.95748 181.5,15C 181.519,16.833 182.185,18.333 183.5,19.5C 182.833,19.5 182.167,19.5 181.5,19.5C 181.167,19.5 180.833,19.5 180.5,19.5C 180.817,16.4281 180.484,13.4281 179.5,10.5C 178.957,16.5113 177.623,16.8446 175.5,11.5C 174.675,10.6143 173.675,10.281 172.5,10.5C 172.5,13.5 172.5,16.5 172.5,19.5C 173.5,19.5 174.5,19.5 175.5,19.5C 175.351,18.448 175.517,17.448 176,16.5C 176.852,17.5707 177.685,18.5707 178.5,19.5C 175.977,20.2537 173.311,20.9204 170.5,21.5C 169.702,21.0431 169.369,20.3764 169.5,19.5C 165.352,20.6437 161.352,20.6437 157.5,19.5C 160.579,19.7399 163.579,19.4066 166.5,18.5C 168.601,13.257 166.934,10.5903 161.5,10.5C 165.674,9.71786 170.008,9.05119 174.5,8.5C 179.47,9.22863 184.47,9.72863 189.5,10C 190.817,12.9365 190.817,15.7699 189.5,18.5 Z"/></g>
<g><path style="opacity:1" fill="#ecdce4" d="M 180.5,19.5 C 179.833,19.5 179.167,19.5 178.5,19.5C 177.685,18.5707 176.852,17.5707 176,16.5C 175.517,17.448 175.351,18.448 175.5,19.5C 174.5,19.5 173.5,19.5 172.5,19.5C 172.5,16.5 172.5,13.5 172.5,10.5C 173.675,10.281 174.675,10.6143 175.5,11.5C 177.623,16.8446 178.957,16.5113 179.5,10.5C 180.484,13.4281 180.817,16.4281 180.5,19.5 Z"/></g>
<g><path style="opacity:1" fill="#4b1334" d="M 112.5,10.5 C 110.612,12.9878 109.945,15.9878 110.5,19.5C 116.556,18.7962 122.556,18.7962 128.5,19.5C 128.459,15.7566 129.126,15.5899 130.5,19C 131.332,19.6877 131.998,19.521 132.5,18.5C 131.448,16.8901 131.448,15.2234 132.5,13.5C 132.392,12.5581 132.059,11.7247 131.5,11C 129.866,10.5065 128.199,10.3398 126.5,10.5C 128.607,9.53178 130.941,9.19845 133.5,9.5C 133.5,13.1667 133.5,16.8333 133.5,20.5C 119.598,20.7333 106.098,21.0666 93,21.5C 91.2745,20.536 89.4412,19.8693 87.5,19.5C 87.8194,15.7002 88.8194,15.5335 90.5,19C 91.3317,19.6877 91.9984,19.521 92.5,18.5C 91.4478,16.8901 91.4478,15.2234 92.5,13.5C 92.3918,12.5581 92.0585,11.7247 91.5,11C 89.5273,10.5045 87.5273,10.3379 85.5,10.5C 85.5,13.5 85.5,16.5 85.5,19.5C 85.1667,19.5 84.8333,19.5 84.5,19.5C 84.5,16.5 84.5,13.5 84.5,10.5C 83.5,10.5 82.5,10.5 81.5,10.5C 81.5,13.5 81.5,16.5 81.5,19.5C 80.8333,19.5 80.5,19.1667 80.5,18.5C 80.6309,17.6236 80.2975,16.9569 79.5,16.5C 78.2638,17.2458 76.9305,17.5792 75.5,17.5C 75.5,15.8333 75.5,14.1667 75.5,12.5C 77.3307,13.0522 78.9974,13.0522 80.5,12.5C 79.3315,10.7826 77.6648,10.1159 75.5,10.5C 79.484,9.58747 83.6507,8.92081 88,8.5C 90.0342,8.3536 91.7009,9.02026 93,10.5C 95.5539,9.22895 98.3872,8.56228 101.5,8.5C 105.469,8.29416 109.135,8.96082 112.5,10.5 Z"/></g>
<g><path style="opacity:1" fill="#f5e8f3" d="M 87.5,19.5 C 86.8333,19.5 86.1667,19.5 85.5,19.5C 85.5,16.5 85.5,13.5 85.5,10.5C 87.5273,10.3379 89.5273,10.5045 91.5,11C 92.0585,11.7247 92.3918,12.5581 92.5,13.5C 91.4478,15.2234 91.4478,16.8901 92.5,18.5C 91.9984,19.521 91.3317,19.6877 90.5,19C 88.8194,15.5335 87.8194,15.7002 87.5,19.5 Z"/></g>
<g><path style="opacity:1" fill="#33232e" d="M 87.5,12.5 C 88.675,12.281 89.675,12.6143 90.5,13.5C 88.9483,14.7979 87.9483,14.4646 87.5,12.5 Z"/></g>
<g><path style="opacity:1" fill="#f0e1ea" d="M 217.5,10.5 C 218.161,11.7175 218.828,13.0508 219.5,14.5C 220.004,11.6582 221.671,10.3249 224.5,10.5C 224.817,13.5719 224.484,16.5719 223.5,19.5C 222.719,18.2713 222.219,16.938 222,15.5C 219.271,20.5573 217.604,19.8907 217,13.5C 216.998,16.0512 216.164,18.0512 214.5,19.5C 214.5,16.5 214.5,13.5 214.5,10.5C 215.5,10.5 216.5,10.5 217.5,10.5 Z"/></g>
<g><path style="opacity:1" fill="#d8c9d2" d="M 228.5,10.5 C 230.411,10.5743 231.578,11.5743 232,13.5C 232.346,15.2182 232.846,16.8849 233.5,18.5C 233.167,18.8333 232.833,19.1667 232.5,19.5C 230.5,18.1667 228.5,18.1667 226.5,19.5C 225.871,16.3456 226.538,13.3456 228.5,10.5 Z"/></g>
<g><path style="opacity:1" fill="#f4e2f1" d="M 75.5,10.5 C 77.6648,10.1159 79.3315,10.7826 80.5,12.5C 78.9974,13.0522 77.3307,13.0522 75.5,12.5C 75.5,14.1667 75.5,15.8333 75.5,17.5C 76.9305,17.5792 78.2638,17.2458 79.5,16.5C 80.2975,16.9569 80.6309,17.6236 80.5,18.5C 73.9181,20.7156 71.7514,18.3823 74,11.5C 74.3826,10.944 74.8826,10.6107 75.5,10.5 Z"/></g>
<g><path style="opacity:1" fill="#d7bdce" d="M 84.5,19.5 C 83.5,19.5 82.5,19.5 81.5,19.5C 81.5,16.5 81.5,13.5 81.5,10.5C 82.5,10.5 83.5,10.5 84.5,10.5C 84.5,13.5 84.5,16.5 84.5,19.5 Z"/></g>
<g><path style="opacity:1" fill="#e6d7e1" d="M 112.5,10.5 C 112.5,12.8333 112.5,15.1667 112.5,17.5C 117.247,17.716 119.581,15.3827 119.5,10.5C 120.5,10.5 121.5,10.5 122.5,10.5C 124.477,19.8224 125.81,19.8224 126.5,10.5C 128.199,10.3398 129.866,10.5065 131.5,11C 132.059,11.7247 132.392,12.5581 132.5,13.5C 131.448,15.2234 131.448,16.8901 132.5,18.5C 131.998,19.521 131.332,19.6877 130.5,19C 129.126,15.5899 128.459,15.7566 128.5,19.5C 122.556,18.7962 116.556,18.7962 110.5,19.5C 109.945,15.9878 110.612,12.9878 112.5,10.5 Z"/></g>
<g><path style="opacity:1" fill="#19080e" d="M 128.5,12.5 C 130.337,12.6395 130.67,13.3061 129.5,14.5C 128.702,14.0431 128.369,13.3764 128.5,12.5 Z"/></g>
<g><path style="opacity:1" fill="#f6e9f2" d="M 151.5,17.5 C 148.833,20.1667 146.167,20.1667 143.5,17.5C 143.138,10.996 145.638,9.32933 151,12.5C 151.494,14.1341 151.66,15.8008 151.5,17.5 Z"/></g>
<g><path style="opacity:1" fill="#572a43" d="M 146.5,12.5 C 149.389,12.999 150.056,14.499 148.5,17C 147.552,17.4828 146.552,17.6495 145.5,17.5C 145.366,15.7085 145.699,14.0418 146.5,12.5 Z"/></g>
<g><path style="opacity:1" fill="#e8d7e3" d="M 207.5,10.5 C 209.388,12.9878 210.055,15.9878 209.5,19.5C 208.325,19.719 207.325,19.3857 206.5,18.5C 204.993,14.6452 204.326,14.9786 204.5,19.5C 201.756,19.7521 199.256,19.0855 197,17.5C 195.989,18.0556 195.156,18.7222 194.5,19.5C 193.833,19.5 193.167,19.5 192.5,19.5C 193.566,17.2986 194.233,14.9653 194.5,12.5C 195.156,11.7222 195.989,11.0556 197,10.5C 197.5,10.8333 198,11.1667 198.5,11.5C 200.92,19.4812 201.92,19.1479 201.5,10.5C 202.552,10.3505 203.552,10.5172 204.5,11C 206.783,17.0914 207.783,16.9247 207.5,10.5 Z"/></g>
<g><path style="opacity:1" fill="#200314" d="M 207.5,10.5 C 210.833,9.16667 214.167,9.16667 217.5,10.5C 216.5,10.5 215.5,10.5 214.5,10.5C 214.5,13.5 214.5,16.5 214.5,19.5C 214.167,19.5 213.833,19.5 213.5,19.5C 213.5,16.5 213.5,13.5 213.5,10.5C 212.5,10.5 211.5,10.5 210.5,10.5C 210.5,13.5 210.5,16.5 210.5,19.5C 210.167,19.5 209.833,19.5 209.5,19.5C 210.055,15.9878 209.388,12.9878 207.5,10.5 Z"/></g>
<g><path style="opacity:1" fill="#f1e2ee" d="M 169.5,19.5 C 169.183,16.4281 169.516,13.4281 170.5,10.5C 170.833,12 171.167,13.5 171.5,15C 171.431,16.9855 170.765,18.4855 169.5,19.5 Z"/></g>
<g><path style="opacity:1" fill="#d1c2cd" d="M 213.5,19.5 C 212.5,19.5 211.5,19.5 210.5,19.5C 210.5,16.5 210.5,13.5 210.5,10.5C 211.5,10.5 212.5,10.5 213.5,10.5C 213.5,13.5 213.5,16.5 213.5,19.5 Z"/></g>
<g><path style="opacity:1" fill="#f1e4ee" d="M 251.5,10.5 C 251.833,11.1667 252.167,11.8333 252.5,12.5C 252.5,14.1667 252.5,15.8333 252.5,17.5C 250.718,19.6869 248.552,20.0203 246,18.5C 243.963,12.813 245.796,10.1464 251.5,10.5 Z"/></g>
<g><path style="opacity:1" fill="#401628" d="M 247.5,12.5 C 248.5,12.5 249.5,12.5 250.5,12.5C 250.5,14.1667 250.5,15.8333 250.5,17.5C 249.5,17.5 248.5,17.5 247.5,17.5C 247.5,15.8333 247.5,14.1667 247.5,12.5 Z"/></g>
<g><path style="opacity:1" fill="#e4d3de" d="M 95.5,10.5 C 97.7224,10.178 99.5557,10.8446 101,12.5C 101.71,11.0267 102.876,10.3601 104.5,10.5C 105.167,19.8333 105.833,19.8333 106.5,10.5C 107.5,10.5 108.5,10.5 109.5,10.5C 109.663,12.8568 109.497,15.1902 109,17.5C 106.667,20.1667 104.333,20.1667 102,17.5C 97.7934,20.7443 94.9601,19.9109 93.5,15C 93.5186,13.167 94.1852,11.667 95.5,10.5 Z"/></g>
<g><path style="opacity:1" fill="#562141" d="M 96.5,12.5 C 98.1172,13.038 99.7839,13.3713 101.5,13.5C 101.5,14.5 101.5,15.5 101.5,16.5C 99.5,16.8333 97.5,17.1667 95.5,17.5C 95.366,15.7085 95.6993,14.0418 96.5,12.5 Z"/></g>
<g><path style="opacity:1" fill="#e5d5e1" d="M 161.5,10.5 C 166.934,10.5903 168.601,13.257 166.5,18.5C 163.579,19.4066 160.579,19.7399 157.5,19.5C 157.53,18.5028 157.03,17.8361 156,17.5C 155,18.1667 154,18.8333 153,19.5C 151.97,19.1639 151.47,18.4972 151.5,17.5C 152.864,15.78 153.864,13.78 154.5,11.5C 155.325,10.6143 156.325,10.281 157.5,10.5C 158.031,13.237 158.864,15.9036 160,18.5C 160.183,15.6353 160.683,12.9686 161.5,10.5 Z"/></g>
<g><path style="opacity:1" fill="#3a0c20" d="M 163.5,12.5 C 164.649,12.7911 165.316,13.6244 165.5,15C 165.167,15.8333 164.833,16.6667 164.5,17.5C 163.548,15.9547 163.215,14.288 163.5,12.5 Z"/></g>
<g><path style="opacity:1" fill="#ecd9e6" d="M 189.5,18.5 C 187.621,19.3414 185.621,19.6747 183.5,19.5C 182.185,18.333 181.519,16.833 181.5,15C 183.003,9.95748 185.67,9.29081 189.5,13C 187.793,13.1953 186.126,13.1953 184.5,13C 183.167,14.3333 183.167,15.6667 184.5,17C 184.854,15.4404 186.52,14.6071 189.5,14.5C 189.5,15.8333 189.5,17.1667 189.5,18.5 Z"/></g>
<g><path style="opacity:1" fill="#4e1c3a" d="M 251.5,10.5 C 245.796,10.1464 243.963,12.813 246,18.5C 248.552,20.0203 250.718,19.6869 252.5,17.5C 253.167,18.1667 253.833,18.8333 254.5,19.5C 256.045,18.7703 256.878,17.437 257,15.5C 257.748,17.751 259.248,19.0844 261.5,19.5C 255.5,20.8333 249.5,20.8333 243.5,19.5C 242.833,7.5 242.167,7.5 241.5,19.5C 240.691,17.7078 240.191,15.7078 240,13.5C 239.809,15.7078 239.309,17.7078 238.5,19.5C 238.11,16.5342 238.777,13.8676 240.5,11.5C 238.257,10.5258 235.924,10.1924 233.5,10.5C 238.186,9.75951 243.02,9.09284 248,8.5C 249.459,8.80822 250.626,9.47489 251.5,10.5 Z"/></g>
<g><path style="opacity:1" fill="#f7e4f4" d="M 243.5,19.5 C 242.833,19.5 242.167,19.5 241.5,19.5C 242.167,7.5 242.833,7.5 243.5,19.5 Z"/></g>
<g><path style="opacity:1" fill="#670149" d="M 244.5,33.5 C 242.61,33.7035 241.11,33.0368 240,31.5C 239.289,33.3668 239.789,34.8668 241.5,36C 239.323,37.1861 238.323,39.0194 238.5,41.5C 237.221,40.032 235.554,39.3653 233.5,39.5C 232.778,38.4489 231.778,37.7822 230.5,37.5C 229.976,34.8122 228.309,33.3122 225.5,33C 209.661,32.172 193.995,32.3387 178.5,33.5C 175.55,35.1153 172.884,37.1153 170.5,39.5C 170.167,39.5 169.833,39.5 169.5,39.5C 169.162,36.8431 169.829,34.5098 171.5,32.5C 168.216,31.343 164.882,31.1764 161.5,32C 164.767,32.8951 165.434,34.7284 163.5,37.5C 161.734,35.2294 159.734,33.0627 157.5,31C 152.818,31.4637 148.151,31.2971 143.5,30.5C 146.167,29.8333 148.833,29.1667 151.5,28.5C 138.833,27.8333 126.167,27.1667 113.5,26.5C 123.817,25.6677 134.151,25.1677 144.5,25C 144.5,24 144.5,23 144.5,22C 146.769,21.2419 148.936,21.4086 151,22.5C 152.993,21.086 155.16,20.086 157.5,19.5C 161.352,20.6437 165.352,20.6437 169.5,19.5C 169.369,20.3764 169.702,21.0431 170.5,21.5C 173.311,20.9204 175.977,20.2537 178.5,19.5C 179.167,19.5 179.833,19.5 180.5,19.5C 180.833,19.5 181.167,19.5 181.5,19.5C 182.496,20.6651 183.829,21.3318 185.5,21.5C 187.453,20.8444 189.453,20.5111 191.5,20.5C 191.857,24.3948 193.857,25.3948 197.5,23.5C 195.799,22.1653 194.132,20.832 192.5,19.5C 193.167,19.5 193.833,19.5 194.5,19.5C 195.952,20.3019 197.618,20.8019 199.5,21C 200.337,22.0113 200.67,23.1779 200.5,24.5C 203.5,24.5 206.5,24.5 209.5,24.5C 209.351,23.448 209.517,22.448 210,21.5C 211,21.8333 212,22.1667 213,22.5C 220.588,22.0334 228.088,21.0334 235.5,19.5C 236.5,19.5 237.5,19.5 238.5,19.5C 239.309,17.7078 239.809,15.7078 240,13.5C 240.191,15.7078 240.691,17.7078 241.5,19.5C 242.167,19.5 242.833,19.5 243.5,19.5C 249.5,20.8333 255.5,20.8333 261.5,19.5C 262.5,19.5 263.5,19.5 264.5,19.5C 264.292,17.0799 264.626,14.7466 265.5,12.5C 264.636,10.8035 263.303,9.63681 261.5,9C 261.957,8.58605 262.291,8.08605 262.5,7.5C 259.215,6.67636 255.882,6.17636 252.5,6C 256.406,4.566 260.406,4.23266 264.5,5C 265.41,6.8048 266.41,8.63814 267.5,10.5C 268.689,11.4287 270.022,11.762 271.5,11.5C 271.5,10.1667 271.5,8.83333 271.5,7.5C 274.167,7.5 276.833,7.5 279.5,7.5C 279.5,10.1667 279.5,12.8333 279.5,15.5C 282.167,15.5 284.833,15.5 287.5,15.5C 287.665,18.5184 287.498,21.5184 287,24.5C 284.263,23.3895 281.429,23.2228 278.5,24C 279.357,24.6891 280.023,25.5224 280.5,26.5C 277.5,27.1667 274.5,27.8333 271.5,28.5C 279.479,29.3316 287.479,29.8316 295.5,30C 278.164,30.7034 261.164,31.87 244.5,33.5 Z"/></g>
<g><path style="opacity:1" fill="#460329" d="M 178.5,33.5 C 193.995,32.3387 209.661,32.172 225.5,33C 228.309,33.3122 229.976,34.8122 230.5,37.5C 228.947,35.615 226.947,34.615 224.5,34.5C 209.342,33.5038 194.009,33.1705 178.5,33.5 Z"/></g>
<g><path style="opacity:1" fill="#fdfdfd" d="M 224.5,34.5 C 226.947,34.615 228.947,35.615 230.5,37.5C 231.833,75.5 231.833,113.5 230.5,151.5C 229.542,151.047 228.708,150.381 228,149.5C 226.902,150.967 225.402,151.801 223.5,152C 208.5,152.667 193.5,152.667 178.5,152C 177.234,151.691 176.067,151.191 175,150.5C 174.333,114.167 174.333,77.8333 175,41.5C 176.565,39.5353 177.732,37.3687 178.5,35C 193.83,34.5001 209.163,34.3334 224.5,34.5 Z"/></g>
<g><path style="opacity:1" fill="#fdfcfc" d="M 297.5,35.5 C 299.173,36.343 300.34,37.6763 301,39.5C 301.667,76.1667 301.667,112.833 301,149.5C 300.004,151.66 298.504,153.327 296.5,154.5C 280.163,154.667 263.83,154.5 247.5,154C 251.5,153.667 255.5,153.333 259.5,153C 254.845,152.501 250.179,152.334 245.5,152.5C 245.769,150.571 245.269,148.905 244,147.5C 243.829,116.595 243.329,85.7616 242.5,55C 243.357,54.3109 244.023,53.4776 244.5,52.5C 243.905,50.5596 243.572,48.5596 243.5,46.5C 243.448,43.2594 244.115,40.2594 245.5,37.5C 250.221,36.7318 254.221,37.8985 257.5,41C 266.5,41.6667 275.5,41.6667 284.5,41C 285.167,40 285.833,39 286.5,38C 290.467,37.9973 294.134,37.164 297.5,35.5 Z"/></g>
<g><path style="opacity:1" fill="#410130" d="M 92.5,39.5 C 93.4974,61.6604 93.8308,83.9938 93.5,106.5C 93.6666,121.504 93.4999,136.504 93,151.5C 91.9614,152.244 91.4614,153.244 91.5,154.5C 90.609,155.11 89.609,155.443 88.5,155.5C 89.1667,154.5 89.8333,153.5 90.5,152.5C 90.7828,151.711 91.2828,151.044 92,150.5C 92.5,113.502 92.6667,76.5015 92.5,39.5 Z"/></g>
<g><path style="opacity:1" fill="#ede9ec" d="M 161.5,38.5 C 162.654,75.7918 162.821,113.125 162,150.5C 160.961,151.244 160.461,152.244 160.5,153.5C 159.29,153.932 158.29,154.599 157.5,155.5C 157.167,155.5 156.833,155.5 156.5,155.5C 140.497,155.667 124.497,155.5 108.5,155C 106.609,153.558 104.609,152.391 102.5,151.5C 102.5,113.833 102.5,76.1667 102.5,38.5C 103.673,36.4959 105.34,34.9959 107.5,34C 123.5,33.3333 139.5,33.3333 155.5,34C 157.66,35.332 159.66,36.832 161.5,38.5 Z"/></g>
<g><path style="opacity:1" fill="#fefefd" d="M 111.5,34.5 C 125.837,34.3334 140.171,34.5001 154.5,35C 140.833,35.3333 127.167,35.6667 113.5,36C 114.833,37.6667 116.167,39.3333 117.5,41C 127.201,41.7547 136.868,41.588 146.5,40.5C 146.5,39.1667 146.5,37.8333 146.5,36.5C 149.28,36.9452 151.947,36.9452 154.5,36.5C 155.333,37.5 156.167,38.5 157,39.5C 157.667,76.1667 157.667,112.833 157,149.5C 156.626,150.416 156.126,151.25 155.5,152C 139.5,152.667 123.5,152.667 107.5,152C 106.033,150.902 105.199,149.402 105,147.5C 104.167,111.162 104.333,74.8287 105.5,38.5C 107.466,36.977 109.466,35.6437 111.5,34.5 Z"/></g>
<g><path style="opacity:1" fill="#ede8ed" d="M 90.5,36.5 C 90.427,38.0269 91.0937,39.0269 92.5,39.5C 92.6667,76.5015 92.5,113.502 92,150.5C 91.2828,151.044 90.7828,151.711 90.5,152.5C 89.609,151.89 88.609,151.557 87.5,151.5C 87.5,152.5 87.5,153.5 87.5,154.5C 70.8614,155.441 54.1948,155.775 37.5,155.5C 35.2459,154.585 33.2459,153.252 31.5,151.5C 31.5,114.5 31.5,77.5 31.5,40.5C 32.5914,37.5722 34.5914,35.4055 37.5,34C 53.5,33.3333 69.5,33.3333 85.5,34C 87.1932,34.8466 88.8599,35.6799 90.5,36.5 Z"/></g>
<g><path style="opacity:1" fill="#fefefe" d="M 87.5,151.5 C 85.8967,151.312 84.5634,151.812 83.5,153C 77.1667,153.167 70.8333,153.333 64.5,153.5C 55.7334,153.71 47.0667,153.043 38.5,151.5C 37.0944,152.668 35.9277,152.335 35,150.5C 34.3333,113.833 34.3333,77.1667 35,40.5C 38.004,37.9112 41.504,37.0778 45.5,38C 46.3366,39.0113 46.67,40.1779 46.5,41.5C 56.1896,41.8318 65.8563,41.4984 75.5,40.5C 76.2802,38.5446 77.7802,37.5446 80,37.5C 82.5259,37.5651 84.8593,38.2317 87,39.5C 87.5,76.8318 87.6667,114.165 87.5,151.5 Z"/></g>
<g><path style="opacity:1" fill="#410334" d="M 101.5,38.5 C 100.513,75.457 100.179,112.457 100.5,149.5C 99.5015,113.004 99.1682,76.3371 99.5,39.5C 100.167,39.1667 100.833,38.8333 101.5,38.5 Z"/></g>
<g><path style="opacity:1" fill="#e7dce7" d="M 178.5,33.5 C 194.009,33.1705 209.342,33.5038 224.5,34.5C 209.163,34.3334 193.83,34.5001 178.5,35C 177.732,37.3687 176.565,39.5353 175,41.5C 174.333,77.8333 174.333,114.167 175,150.5C 176.067,151.191 177.234,151.691 178.5,152C 193.5,152.667 208.5,152.667 223.5,152C 225.402,151.801 226.902,150.967 228,149.5C 228.708,150.381 229.542,151.047 230.5,151.5C 229.657,153.173 228.324,154.34 226.5,155C 209.503,155.5 192.503,155.667 175.5,155.5C 173.832,153.66 172.332,151.66 171,149.5C 170.5,112.835 170.333,76.1682 170.5,39.5C 172.884,37.1153 175.55,35.1153 178.5,33.5 Z"/></g>
<g><path style="opacity:1" fill="#690c54" d="M 169.5,39.5 C 169.333,76.8348 169.5,114.168 170,151.5C 171.451,153.464 173.284,154.797 175.5,155.5C 175.918,156.222 176.584,156.722 177.5,157C 193.672,157.169 209.672,157.669 225.5,158.5C 223.952,158.821 223.285,159.821 223.5,161.5C 207.497,161.667 191.497,161.5 175.5,161C 173.862,159.199 172.028,159.032 170,160.5C 166.942,159.676 166.776,158.342 169.5,156.5C 166.987,155.272 164.987,153.605 163.5,151.5C 163.5,114.167 163.5,76.8333 163.5,39.5C 163.5,38.8333 163.5,38.1667 163.5,37.5C 165.434,34.7284 164.767,32.8951 161.5,32C 164.882,31.1764 168.216,31.343 171.5,32.5C 169.829,34.5098 169.162,36.8431 169.5,39.5 Z"/></g>
<g><path style="opacity:1" fill="#470839" d="M 169.5,39.5 C 169.833,39.5 170.167,39.5 170.5,39.5C 170.333,76.1682 170.5,112.835 171,149.5C 172.332,151.66 173.832,153.66 175.5,155.5C 173.284,154.797 171.451,153.464 170,151.5C 169.5,114.168 169.333,76.8348 169.5,39.5 Z"/></g>
<g><path style="opacity:1" fill="#dac5da" d="M 101.5,38.5 C 101.833,38.5 102.167,38.5 102.5,38.5C 102.5,76.1667 102.5,113.833 102.5,151.5C 101.833,150.833 101.167,150.167 100.5,149.5C 100.179,112.457 100.513,75.457 101.5,38.5 Z"/></g>
<g><path style="opacity:1" fill="#4c0c37" d="M 161.5,38.5 C 162.167,38.8333 162.833,39.1667 163.5,39.5C 163.5,76.8333 163.5,114.167 163.5,151.5C 162.5,152.167 161.5,152.833 160.5,153.5C 160.461,152.244 160.961,151.244 162,150.5C 162.821,113.125 162.654,75.7918 161.5,38.5 Z"/></g>
<g><path style="opacity:1" fill="#b48873" d="M 276.5,88.5 C 273.652,87.2282 270.652,86.3949 267.5,86C 271.142,84.9302 274.142,85.7636 276.5,88.5 Z"/></g>
<g><path style="opacity:1" fill="#61154d" d="M 31.5,40.5 C 31.5,77.5 31.5,114.5 31.5,151.5C 31.5,152.833 31.5,154.167 31.5,155.5C 33.3084,155.491 34.9751,155.991 36.5,157C 53.1633,157.5 69.83,157.667 86.5,157.5C 85.0512,159.164 83.0512,159.998 80.5,160C 79.8095,161.067 79.3095,162.234 79,163.5C 78.5172,162.552 78.3505,161.552 78.5,160.5C 75.8543,160.892 73.3543,160.892 71,160.5C 70.196,161.804 69.0293,162.471 67.5,162.5C 62.2355,162.805 56.9021,162.471 51.5,161.5C 48.2306,162.593 44.8973,163.259 41.5,163.5C 40.8826,163.389 40.3826,163.056 40,162.5C 39.2904,163.973 38.1238,164.64 36.5,164.5C 36.7373,165.791 36.404,166.791 35.5,167.5C 35.634,165.708 35.3007,164.042 34.5,162.5C 34.1961,161.85 33.8627,161.183 33.5,160.5C 29.8927,159.511 26.226,159.177 22.5,159.5C 23.9516,158.698 25.6183,158.198 27.5,158C 25.7536,157.529 24.087,156.862 22.5,156C 23.451,153.398 24.7844,151.065 26.5,149C 26.3333,148.167 26.1667,147.333 26,146.5C 25.7508,147.624 25.2508,148.624 24.5,149.5C 22.8864,144.98 22.2197,140.314 22.5,135.5C 21.5,135.5 20.5,135.5 19.5,135.5C 19.5,130.167 19.5,124.833 19.5,119.5C 20.5,119.5 21.5,119.5 22.5,119.5C 22.5,116.833 22.5,114.167 22.5,111.5C 21.5,111.5 20.5,111.5 19.5,111.5C 19.5,108.833 19.5,106.167 19.5,103.5C 20.5,103.5 21.5,103.5 22.5,103.5C 22.5,100.833 22.5,98.1667 22.5,95.5C 21.5,95.5 20.5,95.5 19.5,95.5C 20.831,79.5346 21.4977,63.5346 21.5,47.5C 23.5,47.5 25.5,47.5 27.5,47.5C 27.1866,44.7531 27.52,42.0865 28.5,39.5C 29.3333,76.1621 29.8333,112.829 30,149.5C 30.1675,112.998 30.6675,76.6644 31.5,40.5 Z"/></g>
<g><path style="opacity:1" fill="#b9886c" d="M 261.5,91.5 C 262.532,94.0197 263.032,96.6863 263,99.5C 261.625,97.0632 261.125,94.3965 261.5,91.5 Z"/></g>
<g><path style="opacity:1" fill="#e8d9ea" d="M 241.5,38.5 C 241.333,75.1682 241.5,111.835 242,148.5C 243.669,150.169 244.502,152.169 244.5,154.5C 243.5,153.833 242.5,153.167 241.5,152.5C 240.517,124.878 240.184,97.2109 240.5,69.5C 240.172,58.9865 240.506,48.6532 241.5,38.5 Z"/></g>
<g><path style="opacity:1" fill="#ad7e5a" d="M 276.5,88.5 C 277.458,88.9528 278.292,89.6195 279,90.5C 279.89,93.7055 279.557,96.7055 278,99.5C 277.929,97.8908 278.096,96.2241 278.5,94.5C 278.281,92.3069 277.615,90.3069 276.5,88.5 Z"/></g>
<g><path style="opacity:1" fill="#bc8d74" d="M 193.5,100.5 C 193.56,99.9569 193.893,99.6236 194.5,99.5C 200.85,104.057 200.517,104.39 193.5,100.5 Z"/></g>
<g><path style="opacity:1" fill="#b08367" d="M 275.5,100.5 C 276.692,101.566 276.359,102.399 274.5,103C 271.294,103.89 268.294,103.557 265.5,102C 267.109,101.929 268.776,102.096 270.5,102.5C 272.557,102.564 274.223,101.898 275.5,100.5 Z"/></g>
<g><path style="opacity:1" fill="#502447" d="M 240.5,69.5 C 240.184,97.2109 240.517,124.878 241.5,152.5C 240.883,152.389 240.383,152.056 240,151.5C 239.17,123.997 239.336,96.6636 240.5,69.5 Z"/></g>
<g><path style="opacity:1" fill="#f1eff4" d="M 246.5,33.5 C 262.837,33.3334 279.17,33.5001 295.5,34C 296.416,34.2784 297.082,34.7784 297.5,35.5C 294.134,37.164 290.467,37.9973 286.5,38C 285.833,39 285.167,40 284.5,41C 275.5,41.6667 266.5,41.6667 257.5,41C 254.221,37.8985 250.221,36.7318 245.5,37.5C 244.115,40.2594 243.448,43.2594 243.5,46.5C 243.572,48.5596 243.905,50.5596 244.5,52.5C 244.023,53.4776 243.357,54.3109 242.5,55C 243.329,85.7616 243.829,116.595 244,147.5C 245.269,148.905 245.769,150.571 245.5,152.5C 250.179,152.334 254.845,152.501 259.5,153C 255.5,153.333 251.5,153.667 247.5,154C 263.83,154.5 280.163,154.667 296.5,154.5C 296.5,154.833 296.5,155.167 296.5,155.5C 279.09,155.819 261.756,155.485 244.5,154.5C 244.502,152.169 243.669,150.169 242,148.5C 241.5,111.835 241.333,75.1682 241.5,38.5C 242.861,36.4727 244.527,34.806 246.5,33.5 Z"/></g>
<g><path style="opacity:1" fill="#640c50" d="M 99.5,39.5 C 99.1682,76.3371 99.5015,113.004 100.5,149.5C 101.167,150.167 101.833,150.833 102.5,151.5C 102.916,153.752 104.249,155.252 106.5,156C 123.338,156.828 140.005,156.662 156.5,155.5C 156.833,155.5 157.167,155.5 157.5,155.5C 157.266,159.233 155.266,161.066 151.5,161C 144.202,161.975 136.869,162.475 129.5,162.5C 121.951,161.961 114.451,161.961 107,162.5C 104.384,161.385 101.884,160.051 99.5,158.5C 98.914,158.709 98.414,159.043 98,159.5C 97.8184,156.774 97.3184,154.107 96.5,151.5C 95.7022,153.078 95.2022,154.744 95,156.5C 93.9887,157.337 92.8221,157.67 91.5,157.5C 91.5,156.5 91.5,155.5 91.5,154.5C 91.4614,153.244 91.9614,152.244 93,151.5C 93.4999,136.504 93.6666,121.504 93.5,106.5C 94.3315,90.005 94.8315,73.3384 95,56.5C 95.6667,59.1667 96.3333,59.1667 97,56.5C 96.8744,50.4121 97.7077,44.7455 99.5,39.5 Z"/></g>
<g><path style="opacity:1" fill="#672454" d="M 244.5,33.5 C 245.167,33.5 245.833,33.5 246.5,33.5C 244.527,34.806 242.861,36.4727 241.5,38.5C 240.506,48.6532 240.172,58.9865 240.5,69.5C 239.336,96.6636 239.17,123.997 240,151.5C 240.383,152.056 240.883,152.389 241.5,152.5C 242.5,153.167 243.5,153.833 244.5,154.5C 261.756,155.485 279.09,155.819 296.5,155.5C 296.082,156.222 295.416,156.722 294.5,157C 287.5,157.333 280.5,157.667 273.5,158C 272.737,158.944 271.737,159.444 270.5,159.5C 266.356,158.437 262.189,158.437 258,159.5C 253.458,158.823 248.958,158.323 244.5,158C 245.833,158.667 245.833,159.333 244.5,160C 238.017,160.848 231.684,160.348 225.5,158.5C 209.672,157.669 193.672,157.169 177.5,157C 176.584,156.722 175.918,156.222 175.5,155.5C 192.503,155.667 209.503,155.5 226.5,155C 228.324,154.34 229.657,153.173 230.5,151.5C 231.833,113.5 231.833,75.5 230.5,37.5C 231.778,37.7822 232.778,38.4489 233.5,39.5C 233.918,40.2216 234.584,40.7216 235.5,41C 234.173,59.1152 233.507,77.4485 233.5,96C 233.833,114.167 234.167,132.333 234.5,150.5C 235.478,150.023 236.311,149.357 237,148.5C 237.333,149.5 237.667,150.5 238,151.5C 238.5,114.835 238.667,78.1682 238.5,41.5C 238.323,39.0194 239.323,37.1861 241.5,36C 239.789,34.8668 239.289,33.3668 240,31.5C 241.11,33.0368 242.61,33.7035 244.5,33.5 Z"/></g>
<g><path style="opacity:1" fill="#690a52" d="M 233.5,39.5 C 235.554,39.3653 237.221,40.032 238.5,41.5C 238.667,78.1682 238.5,114.835 238,151.5C 237.667,150.5 237.333,149.5 237,148.5C 236.311,149.357 235.478,150.023 234.5,150.5C 234.167,132.333 233.833,114.167 233.5,96C 233.507,77.4485 234.173,59.1152 235.5,41C 234.584,40.7216 233.918,40.2216 233.5,39.5 Z"/></g>
<g><path style="opacity:1" fill="#ddc4dd" d="M 87.5,151.5 C 88.609,151.557 89.609,151.89 90.5,152.5C 89.8333,153.5 89.1667,154.5 88.5,155.5C 87.5084,155.328 86.8417,155.662 86.5,156.5C 69.9915,156.83 53.6581,156.496 37.5,155.5C 54.1948,155.775 70.8614,155.441 87.5,154.5C 87.5,153.5 87.5,152.5 87.5,151.5 Z"/></g>
<g><path style="opacity:1" fill="#3c0d37" d="M 31.5,151.5 C 33.2459,153.252 35.2459,154.585 37.5,155.5C 53.6581,156.496 69.9915,156.83 86.5,156.5C 86.5,156.833 86.5,157.167 86.5,157.5C 69.83,157.667 53.1633,157.5 36.5,157C 34.9751,155.991 33.3084,155.491 31.5,155.5C 31.5,154.167 31.5,152.833 31.5,151.5 Z"/></g>
<g><path style="opacity:1" fill="#802367" d="M 22.5,159.5 C 26.226,159.177 29.8927,159.511 33.5,160.5C 33.8627,161.183 34.1961,161.85 34.5,162.5C 33.8333,162.5 33.5,162.833 33.5,163.5C 27.5907,162.545 21.5907,162.211 15.5,162.5C 15.0623,161.494 14.3957,161.494 13.5,162.5C 13.2172,161.711 12.7172,161.044 12,160.5C 11.51,161.793 11.3433,163.127 11.5,164.5C 9.83333,164.5 8.16667,164.5 6.5,164.5C 6.45033,161.802 7.45033,159.636 9.5,158C 8.54943,157.282 8.38277,156.449 9,155.5C 10.1169,155.335 11.2836,155.002 12.5,154.5C 12.9972,156.216 13.3306,157.883 13.5,159.5C 14.4656,157.604 14.7989,155.604 14.5,153.5C 16.5814,154.72 18.5814,155.386 20.5,155.5C 19.6872,156.814 18.6872,157.981 17.5,159C 19.1341,159.494 20.8008,159.66 22.5,159.5 Z"/></g>
<g><path style="opacity:1" fill="#660149" d="M 157.5,155.5 C 158.29,154.599 159.29,153.932 160.5,153.5C 161.5,152.833 162.5,152.167 163.5,151.5C 164.987,153.605 166.987,155.272 169.5,156.5C 166.776,158.342 166.942,159.676 170,160.5C 172.028,159.032 173.862,159.199 175.5,161C 191.497,161.5 207.497,161.667 223.5,161.5C 223.285,159.821 223.952,158.821 225.5,158.5C 231.684,160.348 238.017,160.848 244.5,160C 245.833,159.333 245.833,158.667 244.5,158C 248.958,158.323 253.458,158.823 258,159.5C 262.189,158.437 266.356,158.437 270.5,159.5C 271.737,159.444 272.737,158.944 273.5,158C 280.5,157.667 287.5,157.333 294.5,157C 295.416,156.722 296.082,156.222 296.5,155.5C 299.33,155.306 301.996,154.639 304.5,153.5C 304.5,154.833 304.5,156.167 304.5,157.5C 301.5,157.5 298.5,157.5 295.5,157.5C 295.799,159.604 295.466,161.604 294.5,163.5C 289.849,164.116 285.182,164.782 280.5,165.5C 277.414,168.91 278.08,170.91 282.5,171.5C 282.5,172.5 282.5,173.5 282.5,174.5C 281.167,174.5 279.833,174.5 278.5,174.5C 278.5,175.833 278.5,177.167 278.5,178.5C 281.022,178.128 283.022,178.961 284.5,181C 284.658,182.587 283.991,184.087 282.5,185.5C 209.497,185.833 136.497,185.5 63.5,184.5C 67.6157,184.113 71.9491,183.613 76.5,183C 77.5289,181.302 79.0289,180.468 81,180.5C 84.3453,182.141 87.8453,182.641 91.5,182C 93.6234,180.806 95.9568,180.14 98.5,180C 99.3802,178.644 99.7135,177.144 99.5,175.5C 98.1266,175.657 96.7932,175.49 95.5,175C 96.6956,174.346 96.6956,173.846 95.5,173.5C 94.8333,174.167 94.1667,174.833 93.5,175.5C 92.3132,174.347 91.3132,174.347 90.5,175.5C 86.8158,175.486 83.3158,175.819 80,176.5C 77.3927,175.877 74.8927,175.21 72.5,174.5C 71.7375,173.732 70.7375,173.232 69.5,173C 73.0846,170.472 73.418,167.472 70.5,164C 64.6028,163.818 58.7695,163.651 53,163.5C 50.8491,163.773 48.8491,164.439 47,165.5C 45.0517,164.891 43.2184,164.224 41.5,163.5C 44.8973,163.259 48.2306,162.593 51.5,161.5C 56.9021,162.471 62.2355,162.805 67.5,162.5C 69.0293,162.471 70.196,161.804 71,160.5C 73.3543,160.892 75.8543,160.892 78.5,160.5C 78.3505,161.552 78.5172,162.552 79,163.5C 79.3095,162.234 79.8095,161.067 80.5,160C 83.0512,159.998 85.0512,159.164 86.5,157.5C 86.5,157.167 86.5,156.833 86.5,156.5C 86.8417,155.662 87.5084,155.328 88.5,155.5C 89.609,155.443 90.609,155.11 91.5,154.5C 91.5,155.5 91.5,156.5 91.5,157.5C 92.8221,157.67 93.9887,157.337 95,156.5C 95.2022,154.744 95.7022,153.078 96.5,151.5C 97.3184,154.107 97.8184,156.774 98,159.5C 98.414,159.043 98.914,158.709 99.5,158.5C 101.884,160.051 104.384,161.385 107,162.5C 114.451,161.961 121.951,161.961 129.5,162.5C 136.869,162.475 144.202,161.975 151.5,161C 155.266,161.066 157.266,159.233 157.5,155.5 Z"/></g>
<g><path style="opacity:1" fill="#ddc2d9" d="M 102.5,151.5 C 104.609,152.391 106.609,153.558 108.5,155C 124.497,155.5 140.497,155.667 156.5,155.5C 140.005,156.662 123.338,156.828 106.5,156C 104.249,155.252 102.916,153.752 102.5,151.5 Z"/></g>
<g><path style="opacity:1" fill="#e4a967" d="M 286.5,169.5 C 289.545,170.545 291.545,172.545 292.5,175.5C 291.41,177.763 290.077,177.93 288.5,176C 288.833,175.667 289.167,175.333 289.5,175C 287.398,175.256 285.398,175.089 283.5,174.5C 283.541,172.255 284.375,171.588 286,172.5C 286.483,171.552 286.649,170.552 286.5,169.5 Z"/></g>
<g><path style="opacity:1" fill="#510934" d="M 41.5,163.5 C 43.2184,164.224 45.0517,164.891 47,165.5C 48.8491,164.439 50.8491,163.773 53,163.5C 58.7695,163.651 64.6028,163.818 70.5,164C 73.418,167.472 73.0846,170.472 69.5,173C 70.7375,173.232 71.7375,173.732 72.5,174.5C 71.5,174.5 70.5,174.5 69.5,174.5C 69.5,176.167 69.5,177.833 69.5,179.5C 69.1667,179.5 68.8333,179.5 68.5,179.5C 66.7602,178.022 65.9269,176.356 66,174.5C 64.883,175.949 64.2163,177.616 64,179.5C 63.8038,177.714 62.9705,176.381 61.5,175.5C 60.0333,175.723 58.5333,176.056 57,176.5C 56.1247,174.487 54.7913,174.487 53,176.5C 51.3333,176.5 49.6667,176.5 48,176.5C 47.0053,175.934 46.172,175.267 45.5,174.5C 46.0431,174.44 46.3764,174.107 46.5,173.5C 42.8927,172.511 39.226,172.177 35.5,172.5C 35.5,170.833 35.5,169.167 35.5,167.5C 36.404,166.791 36.7373,165.791 36.5,164.5C 38.1238,164.64 39.2904,163.973 40,162.5C 40.3826,163.056 40.8826,163.389 41.5,163.5 Z"/></g>
<g><path style="opacity:1" fill="#d2b5c9" d="M 47.5,170.5 C 48.7251,170.969 49.7251,170.302 50.5,168.5C 49.7261,167.289 48.8928,167.289 48,168.5C 47.5357,167.906 47.369,167.239 47.5,166.5C 49.9986,166.516 52.6652,166.183 55.5,165.5C 55.8333,170.833 56.1667,170.833 56.5,165.5C 61.3536,165.7 61.6869,167.2 57.5,170C 58.5,170.333 59.5,170.667 60.5,171C 55.9624,171.765 51.629,171.599 47.5,170.5 Z"/></g>
<g><path style="opacity:1" fill="#e2cadd" d="M 40.5,167.5 C 41.8603,171.371 42.6936,171.038 43,166.5C 43.1967,171.178 44.1967,171.512 46,167.5C 46.4828,168.448 46.6495,169.448 46.5,170.5C 43.4854,171.213 40.4854,171.546 37.5,171.5C 37.1667,171.333 36.8333,171.167 36.5,171C 37.218,169.013 38.218,167.179 39.5,165.5C 40.2975,165.957 40.6309,166.624 40.5,167.5 Z"/></g>
<g><path style="opacity:1" fill="#856c7e" d="M 47.5,166.5 C 47.369,167.239 47.5357,167.906 48,168.5C 48.8928,167.289 49.7261,167.289 50.5,168.5C 49.7251,170.302 48.7251,170.969 47.5,170.5C 47.1667,170.5 46.8333,170.5 46.5,170.5C 46.6495,169.448 46.4828,168.448 46,167.5C 44.1967,171.512 43.1967,171.178 43,166.5C 42.6936,171.038 41.8603,171.371 40.5,167.5C 42.4511,165.208 44.7844,164.875 47.5,166.5 Z"/></g>
<g><path style="opacity:1" fill="#c0a4b7" d="M 61.5,166.5 C 63.9099,166.237 66.5766,166.071 69.5,166C 71.5268,167.396 71.8602,169.062 70.5,171C 67.805,171.254 65.305,171.421 63,171.5C 62.8019,169.618 62.3019,167.952 61.5,166.5 Z"/></g>
<g><path style="opacity:1" fill="#4e0c1f" d="M 286.5,169.5 C 287.849,168.203 289.182,168.37 290.5,170C 297.693,170.453 304.693,171.286 311.5,172.5C 310.549,173.919 310.216,175.585 310.5,177.5C 311.919,178.451 313.585,178.784 315.5,178.5C 312.408,179.135 309.242,179.469 306,179.5C 305.536,178.906 305.369,178.239 305.5,177.5C 305.167,177.5 304.833,177.5 304.5,177.5C 303.912,175.795 303.579,174.128 303.5,172.5C 301.674,172.92 299.674,172.92 297.5,172.5C 297.443,177.682 296.776,177.682 295.5,172.5C 294.548,174.045 294.215,175.712 294.5,177.5C 293.833,177.833 293.167,178.167 292.5,178.5C 292.5,177.5 292.5,176.5 292.5,175.5C 291.545,172.545 289.545,170.545 286.5,169.5 Z"/></g>
<g><path style="opacity:1" fill="#cbb4c1" d="M 304.5,177.5 C 301.349,178.347 298.016,178.347 294.5,177.5C 294.215,175.712 294.548,174.045 295.5,172.5C 296.776,177.682 297.443,177.682 297.5,172.5C 299.674,172.92 301.674,172.92 303.5,172.5C 303.579,174.128 303.912,175.795 304.5,177.5 Z"/></g>
<g><path style="opacity:1" fill="#cb7760" d="M 305.5,177.5 C 305.5,175.833 305.5,174.167 305.5,172.5C 306.833,172.5 308.167,172.5 309.5,172.5C 309.817,175.546 308.484,177.213 305.5,177.5 Z"/></g>
<g><path style="opacity:1" fill="#e8966c" d="M 311.5,172.5 C 311.5,173.833 311.5,175.167 311.5,176.5C 312.5,176.5 313.5,176.5 314.5,176.5C 314.33,175.178 314.663,174.011 315.5,173C 316.816,172.472 317.483,172.972 317.5,174.5C 317.414,175.496 317.748,176.329 318.5,177C 315.854,177.497 313.187,177.664 310.5,177.5C 310.216,175.585 310.549,173.919 311.5,172.5 Z"/></g>
<g><path style="opacity:1" fill="#be6b4a" d="M 315.5,178.5 C 313.585,178.784 311.919,178.451 310.5,177.5C 313.187,177.664 315.854,177.497 318.5,177C 317.748,176.329 317.414,175.496 317.5,174.5C 319.068,172.069 320.568,172.069 322,174.5C 323.754,172.75 325.921,172.083 328.5,172.5C 328.5,174.5 328.5,176.5 328.5,178.5C 324.19,177.424 319.857,177.424 315.5,178.5 Z"/></g>
<g><path style="opacity:1" fill="#ac5b54" d="M 283.5,174.5 C 285.398,175.089 287.398,175.256 289.5,175C 289.167,175.333 288.833,175.667 288.5,176C 290.077,177.93 291.41,177.763 292.5,175.5C 292.5,176.5 292.5,177.5 292.5,178.5C 287.23,182.104 284.23,180.771 283.5,174.5 Z"/></g>
<g><path style="opacity:1" fill="#bb61ac" d="M 15.5,162.5 C 10.1355,179.135 15.8021,184.802 32.5,179.5C 33.4948,174.208 33.8282,168.875 33.5,163.5C 33.5,162.833 33.8333,162.5 34.5,162.5C 35.3007,164.042 35.634,165.708 35.5,167.5C 35.5,169.167 35.5,170.833 35.5,172.5C 36.1243,176.013 35.1243,178.847 32.5,181C 26.8333,181.667 21.1667,181.667 15.5,181C 14.3333,180.5 13.5,179.667 13,178.5C 12.501,174.179 12.3343,169.846 12.5,165.5C 12.5569,164.391 12.8902,163.391 13.5,162.5C 14.3957,161.494 15.0623,161.494 15.5,162.5 Z"/></g>
<g><path style="opacity:1" fill="#460135" d="M 15.5,162.5 C 21.5907,162.211 27.5907,162.545 33.5,163.5C 33.8282,168.875 33.4948,174.208 32.5,179.5C 15.8021,184.802 10.1355,179.135 15.5,162.5 Z"/></g>
<g><path style="opacity:1" fill="#d460ce" d="M 16.5,165.5 C 18.0443,165.703 19.3777,166.37 20.5,167.5C 24.7426,164.913 25.4093,165.746 22.5,170C 23.0294,171.559 23.696,173.059 24.5,174.5C 21.8192,173.18 19.1526,173.18 16.5,174.5C 17.3829,173.452 18.0496,172.285 18.5,171C 17.6805,169.2 17.0138,167.366 16.5,165.5 Z"/></g>
<g><path style="opacity:1" fill="#ed6ae5" d="M 29.5,164.5 C 31.4136,167.684 32.0803,171.351 31.5,175.5C 25.7646,176.179 24.098,173.845 26.5,168.5C 28.5499,167.923 29.5499,166.59 29.5,164.5 Z"/></g>
<g><path style="opacity:1" fill="#240717" d="M 27.5,169.5 C 28.5862,169.62 29.2528,170.287 29.5,171.5C 29.1667,172.167 28.8333,172.833 28.5,173.5C 27.5713,172.311 27.238,170.978 27.5,169.5 Z"/></g>
<g><path style="opacity:1" fill="#58063c" d="M 12.5,165.5 C 12.3343,169.846 12.501,174.179 13,178.5C 13.5,179.667 14.3333,180.5 15.5,181C 21.1667,181.667 26.8333,181.667 32.5,181C 35.1243,178.847 36.1243,176.013 35.5,172.5C 39.226,172.177 42.8927,172.511 46.5,173.5C 46.3764,174.107 46.0431,174.44 45.5,174.5C 44.5489,175.919 44.2155,177.585 44.5,179.5C 46.451,179.773 47.951,179.107 49,177.5C 50,180.167 51,180.167 52,177.5C 57.2164,179.951 62.7164,180.617 68.5,179.5C 68.8333,179.5 69.1667,179.5 69.5,179.5C 70.6879,178.316 71.8545,178.316 73,179.5C 73.3333,178.833 73.6667,178.167 74,177.5C 74.6891,178.357 75.5224,179.023 76.5,179.5C 78.3877,179.055 80.3877,179.055 82.5,179.5C 83.6473,179.182 84.4806,178.516 85,177.5C 85.3333,178.5 85.6667,179.5 86,180.5C 86.6667,179.167 87.3333,179.167 88,180.5C 89.439,178.986 90.939,178.653 92.5,179.5C 93.3857,178.675 93.719,177.675 93.5,176.5C 92.209,176.737 91.209,176.404 90.5,175.5C 91.3132,174.347 92.3132,174.347 93.5,175.5C 94.1667,174.833 94.8333,174.167 95.5,173.5C 96.6956,173.846 96.6956,174.346 95.5,175C 96.7932,175.49 98.1266,175.657 99.5,175.5C 99.7135,177.144 99.3802,178.644 98.5,180C 95.9568,180.14 93.6234,180.806 91.5,182C 87.8453,182.641 84.3453,182.141 81,180.5C 79.0289,180.468 77.5289,181.302 76.5,183C 71.9491,183.613 67.6157,184.113 63.5,184.5C 136.497,185.5 209.497,185.833 282.5,185.5C 300.167,185.5 317.833,185.5 335.5,185.5C 335.5,186.167 335.5,186.833 335.5,187.5C 223.5,187.5 111.5,187.5 -0.5,187.5C -0.5,186.5 -0.5,185.5 -0.5,184.5C 3.8794,184.292 8.21274,184.625 12.5,185.5C 14.5,185 16.5,184.5 18.5,184C 16.3853,183.443 14.3853,182.609 12.5,181.5C 11.1853,176.014 11.1853,170.68 12.5,165.5 Z"/></g>
<g><path style="opacity:1" fill="#93587e" d="M 45.5,174.5 C 46.172,175.267 47.0053,175.934 48,176.5C 49.6667,176.5 51.3333,176.5 53,176.5C 54.7913,174.487 56.1247,174.487 57,176.5C 58.5333,176.056 60.0333,175.723 61.5,175.5C 62.9705,176.381 63.8038,177.714 64,179.5C 64.2163,177.616 64.883,175.949 66,174.5C 65.9269,176.356 66.7602,178.022 68.5,179.5C 62.7164,180.617 57.2164,179.951 52,177.5C 51,180.167 50,180.167 49,177.5C 47.951,179.107 46.451,179.773 44.5,179.5C 44.2155,177.585 44.5489,175.919 45.5,174.5 Z"/></g>
<g><path style="opacity:1" fill="#b384a5" d="M 38.5,174.5 C 42.7632,178.049 42.4298,179.382 37.5,178.5C 37.4326,177.041 37.7659,175.708 38.5,174.5 Z"/></g>
<g><path style="opacity:1" fill="#9d638a" d="M 72.5,174.5 C 74.8927,175.21 77.3927,175.877 80,176.5C 83.3158,175.819 86.8158,175.486 90.5,175.5C 91.209,176.404 92.209,176.737 93.5,176.5C 93.719,177.675 93.3857,178.675 92.5,179.5C 90.939,178.653 89.439,178.986 88,180.5C 87.3333,179.167 86.6667,179.167 86,180.5C 85.6667,179.5 85.3333,178.5 85,177.5C 84.4806,178.516 83.6473,179.182 82.5,179.5C 80.3877,179.055 78.3877,179.055 76.5,179.5C 75.5224,179.023 74.6891,178.357 74,177.5C 73.6667,178.167 73.3333,178.833 73,179.5C 71.8545,178.316 70.6879,178.316 69.5,179.5C 69.5,177.833 69.5,176.167 69.5,174.5C 70.5,174.5 71.5,174.5 72.5,174.5 Z"/></g>
</svg>
