<?xml version="1.0" encoding="UTF-8"?>
<!DOCTYPE svg PUBLIC "-//W3C//DTD SVG 1.1//EN" "http://www.w3.org/Graphics/SVG/1.1/DTD/svg11.dtd">
<svg xmlns="http://www.w3.org/2000/svg" version="1.1" width="336px" height="188px" style="shape-rendering:geometricPrecision; text-rendering:geometricPrecision; image-rendering:optimizeQuality; fill-rule:evenodd; clip-rule:evenodd" xmlns:xlink="http://www.w3.org/1999/xlink">
<g><path style="opacity:1" fill="#fdfdfc" d="M -0.5,-0.5 C 111.5,-0.5 223.5,-0.5 335.5,-0.5C 335.5,11.5 335.5,23.5 335.5,35.5C 286.832,35.3333 238.166,35.5 189.5,36C 188.944,36.3826 188.611,36.8826 188.5,37.5C 187.523,40.2869 187.19,43.2869 187.5,46.5C 186.833,46.5 186.5,46.1667 186.5,45.5C 186.5,43.5 186.5,41.5 186.5,39.5C 183.675,39.0807 181.509,40.0807 180,42.5C 178.986,45.8624 177.486,49.0291 175.5,52C 175.503,85.8268 175.503,119.66 175.5,153.5C 177.803,160.65 182.636,163.65 190,162.5C 213.136,163.318 236.303,163.818 259.5,164C 258.594,165.699 258.261,167.533 258.5,169.5C 258.5,169.833 258.5,170.167 258.5,170.5C 258.325,176.656 261.325,179.323 267.5,178.5C 269.167,178.5 270.833,178.5 272.5,178.5C 272.177,174.774 272.511,171.107 273.5,167.5C 274.168,169.969 274.835,172.302 275.5,174.5C 276.896,176.373 278.563,176.706 280.5,175.5C 281.167,175.5 281.833,175.5 282.5,175.5C 284.721,174.708 286.721,174.374 288.5,174.5C 289.263,172.632 290.263,170.965 291.5,169.5C 291.5,171.5 291.5,173.5 291.5,175.5C 293.606,175.321 295.272,174.321 296.5,172.5C 295.975,171.808 295.308,171.308 294.5,171C 295.308,170.692 295.975,170.192 296.5,169.5C 294.955,168.548 293.288,168.215 291.5,168.5C 291.5,167.5 291.5,166.5 291.5,165.5C 306.142,164.586 320.809,164.253 335.5,164.5C 335.5,172.167 335.5,179.833 335.5,187.5C 223.5,187.5 111.5,187.5 -0.5,187.5C -0.5,124.833 -0.5,62.1667 -0.5,-0.5 Z"/></g>
<g><path style="opacity:1" fill="#1a1919" d="M 335.5,35.5 C 335.5,36.1667 335.5,36.8333 335.5,37.5C 289.948,36.8465 244.615,37.5131 199.5,39.5C 199.631,38.6236 199.298,37.9569 198.5,37.5C 197.135,38.8069 195.802,38.8069 194.5,37.5C 191.27,37.561 189.437,39.2277 189,42.5C 188.506,40.8659 188.34,39.1992 188.5,37.5C 188.611,36.8826 188.944,36.3826 189.5,36C 238.166,35.5 286.832,35.3333 335.5,35.5 Z"/></g>
<g><path style="opacity:1" fill="#1b1b1b" d="M 335.5,37.5 C 335.5,39.1667 335.5,40.8333 335.5,42.5C 288.162,42.8333 240.829,42.4999 193.5,41.5C 193.624,40.8933 193.957,40.56 194.5,40.5C 196.235,39.943 197.902,39.6097 199.5,39.5C 244.615,37.5131 289.948,36.8465 335.5,37.5 Z"/></g>
<g><path style="opacity:1" fill="#6b8454" d="M 194.5,37.5 C 195.802,38.8069 197.135,38.8069 198.5,37.5C 199.298,37.9569 199.631,38.6236 199.5,39.5C 197.902,39.6097 196.235,39.943 194.5,40.5C 193.167,39.5 193.167,38.5 194.5,37.5 Z"/></g>
<g><path style="opacity:1" fill="#401f31" d="M 18.5,35.5 C 24.1764,35.3339 29.8431,35.5006 35.5,36C 36.3081,36.3076 36.9747,36.8076 37.5,37.5C 38.6236,43.4478 38.7903,49.4478 38,55.5C 37.5,56 37,56.5 36.5,57C 29.9184,57.81 23.4184,57.6433 17,56.5C 15.424,50.6123 15.0906,44.6123 16,38.5C 16.6979,37.3094 17.5313,36.3094 18.5,35.5 Z"/></g>
<g><path style="opacity:1" fill="#480337" d="M 35.5,42.5 C 35.1788,40.9519 34.1788,40.2852 32.5,40.5C 32.5,41.5 32.5,42.5 32.5,43.5C 27.3009,44.2594 26.3009,46.7594 29.5,51C 31.5976,51.6776 33.5976,51.5109 35.5,50.5C 36.741,52.8776 36.0743,54.7109 33.5,56C 28.5,56.6667 23.5,56.6667 18.5,56C 17.7069,54.9148 17.0402,53.7481 16.5,52.5C 17.4476,47.5649 17.781,42.5649 17.5,37.5C 23.5092,37.3338 29.5092,37.5005 35.5,38C 36.8009,39.6155 36.8009,41.1155 35.5,42.5 Z"/></g>
<g><path style="opacity:1" fill="#2f2f2f" d="M 188.5,37.5 C 188.34,39.1992 188.506,40.8659 189,42.5C 189.437,39.2277 191.27,37.561 194.5,37.5C 193.167,38.5 193.167,39.5 194.5,40.5C 193.957,40.56 193.624,40.8933 193.5,41.5C 240.829,42.4999 288.162,42.8333 335.5,42.5C 335.5,78.8333 335.5,115.167 335.5,151.5C 286.832,151.667 238.166,151.5 189.5,151C 189,150.5 188.5,150 188,149.5C 187.5,116.835 187.333,84.1684 187.5,51.5C 187.5,49.8333 187.5,48.1667 187.5,46.5C 187.19,43.2869 187.523,40.2869 188.5,37.5 Z"/></g>
<g><path style="opacity:1" fill="#d963d2" d="M 35.5,42.5 C 35.5,45.1667 35.5,47.8333 35.5,50.5C 33.5976,51.5109 31.5976,51.6776 29.5,51C 26.3009,46.7594 27.3009,44.2594 32.5,43.5C 32.5,42.5 32.5,41.5 32.5,40.5C 34.1788,40.2852 35.1788,40.9519 35.5,42.5 Z"/></g>
<g><path style="opacity:1" fill="#f1f0f0" d="M 186.5,45.5 C 183.478,46.5222 181.478,48.5222 180.5,51.5C 179.5,51.5 178.5,51.5 177.5,51.5C 177.167,85.5065 177.5,119.507 178.5,153.5C 180.984,155.483 183.317,157.65 185.5,160C 198.461,161.106 211.461,161.606 224.5,161.5C 235.877,161.49 247.211,161.156 258.5,160.5C 260.783,161.321 263.116,161.988 265.5,162.5C 288.807,161.52 312.14,161.187 335.5,161.5C 335.5,162.5 335.5,163.5 335.5,164.5C 320.809,164.253 306.142,164.586 291.5,165.5C 291.5,166.5 291.5,167.5 291.5,168.5C 291.5,168.833 291.5,169.167 291.5,169.5C 290.263,170.965 289.263,172.632 288.5,174.5C 287.265,172.983 287.265,171.316 288.5,169.5C 288.167,169.167 287.833,168.833 287.5,168.5C 286.167,171.167 284.833,171.167 283.5,168.5C 283.167,168.667 282.833,168.833 282.5,169C 285.071,171.256 285.071,173.422 282.5,175.5C 281.833,175.5 281.167,175.5 280.5,175.5C 281.714,173.192 281.714,170.859 280.5,168.5C 279.167,176.5 277.833,176.5 276.5,168.5C 275.534,170.396 275.201,172.396 275.5,174.5C 274.835,172.302 274.168,169.969 273.5,167.5C 272.511,171.107 272.177,174.774 272.5,178.5C 270.833,178.5 269.167,178.5 267.5,178.5C 268.11,177.609 268.443,176.609 268.5,175.5C 270.912,175.306 271.912,173.973 271.5,171.5C 271.649,170.448 271.483,169.448 271,168.5C 268.833,167.667 267.333,166.167 266.5,164C 265.552,163.517 264.552,163.351 263.5,163.5C 263.5,164.833 263.5,166.167 263.5,167.5C 261.446,167.365 259.779,168.032 258.5,169.5C 258.261,167.533 258.594,165.699 259.5,164C 236.303,163.818 213.136,163.318 190,162.5C 182.636,163.65 177.803,160.65 175.5,153.5C 175.503,119.66 175.503,85.8268 175.5,52C 177.486,49.0291 178.986,45.8624 180,42.5C 181.509,40.0807 183.675,39.0807 186.5,39.5C 186.5,41.5 186.5,43.5 186.5,45.5 Z"/></g>
<g><path style="opacity:1" fill="#211a1f" d="M 83.5,47.5 C 83.2488,45.8297 82.5822,44.3297 81.5,43C 82.9961,42.4926 84.1627,42.9926 85,44.5C 87.6749,42.1135 88.1749,42.7802 86.5,46.5C 86.5288,48.0293 87.1955,49.196 88.5,50C 86.5999,49.7867 84.9333,48.9534 83.5,47.5 Z"/></g>
<g><path style="opacity:1" fill="#1f171d" d="M 59.5,44.5 C 64.1585,44.0146 65.4919,45.848 63.5,50C 58.7282,50.8104 57.3948,48.9771 59.5,44.5 Z"/></g>
<g><path style="opacity:1" fill="#56014b" d="M 30.5,45.5 C 31.5862,45.62 32.2528,46.2867 32.5,47.5C 32.1667,48.1667 31.8333,48.8333 31.5,49.5C 30.5713,48.3112 30.238,46.9778 30.5,45.5 Z"/></g>
<g><path style="opacity:1" fill="#271b23" d="M 55.5,41.5 C 56.7647,42.5145 57.4313,44.0145 57.5,46C 57.1667,47.5 56.8333,49 56.5,50.5C 55.8333,48.8333 55.1667,47.1667 54.5,45.5C 51.9211,46.8883 51.9211,48.3883 54.5,50C 52.5269,50.5378 51.5269,49.7044 51.5,47.5C 51.7189,45.0847 53.0523,44.0847 55.5,44.5C 55.5,43.5 55.5,42.5 55.5,41.5 Z"/></g>
<g><path style="opacity:1" fill="#e7dce4" d="M 60.5,45.5 C 61.5862,45.62 62.2528,46.2867 62.5,47.5C 61.6964,49.9573 60.6964,49.9573 59.5,47.5C 59.8627,46.8165 60.1961,46.1499 60.5,45.5 Z"/></g>
<g><path style="opacity:1" fill="#1f151c" d="M 45.5,42.5 C 46.5,42.5 47.5,42.5 48.5,42.5C 48.7563,44.9372 49.4229,47.2706 50.5,49.5C 50.1667,49.8333 49.8333,50.1667 49.5,50.5C 47.5623,47.9211 45.729,47.9211 44,50.5C 43.8552,47.7393 44.3552,45.0726 45.5,42.5 Z"/></g>
<g><path style="opacity:1" fill="#d9bfcd" d="M 46.5,44.5 C 47.7759,45.3864 47.7759,46.3864 46.5,47.5C 45.4376,46.5754 45.4376,45.5754 46.5,44.5 Z"/></g>
<g><path style="opacity:1" fill="#df6ad5" d="M 19.5,41.5 C 21.143,41.4802 22.4763,42.1468 23.5,43.5C 28.0441,40.6202 28.7107,41.4536 25.5,46C 28.5017,51.6685 27.6684,52.5019 23,48.5C 22.4921,50.9042 21.3255,51.5709 19.5,50.5C 20.304,49.0589 20.9706,47.5589 21.5,46C 20.5862,44.5936 19.9195,43.0936 19.5,41.5 Z"/></g>
<g><path style="opacity:1" fill="#1d1519" d="M 89.5,42.5 C 96.536,41.6026 98.2027,44.1026 94.5,50C 92.8659,50.4935 91.1992,50.6602 89.5,50.5C 89.5,47.8333 89.5,45.1667 89.5,42.5 Z"/></g>
<g><path style="opacity:1" fill="#f8f0f5" d="M 91.5,43.5 C 92.4959,43.4142 93.3292,43.7476 94,44.5C 94.765,46.0657 94.5983,47.3991 93.5,48.5C 91.744,47.4479 91.0773,45.7812 91.5,43.5 Z"/></g>
<g><path style="opacity:1" fill="#74646f" d="M 91.5,43.5 C 91.0773,45.7812 91.744,47.4479 93.5,48.5C 92.791,49.404 91.791,49.7373 90.5,49.5C 90.2053,47.2646 90.5386,45.2646 91.5,43.5 Z"/></g>
<g><path style="opacity:1" fill="#2d1623" d="M 65.5,41.5 C 67.0481,41.8212 67.7148,42.8212 67.5,44.5C 71.0714,44.4077 72.2381,46.0743 71,49.5C 69.3005,50.4061 67.4672,50.7394 65.5,50.5C 65.5,47.5 65.5,44.5 65.5,41.5 Z"/></g>
<g><path style="opacity:1" fill="#f0e8ee" d="M 67.5,45.5 C 68.5862,45.62 69.2528,46.2867 69.5,47.5C 69.1667,48.1667 68.8333,48.8333 68.5,49.5C 67.5713,48.3112 67.238,46.9778 67.5,45.5 Z"/></g>
<g><path style="opacity:1" fill="#32282e" d="M 73.5,44.5 C 78.1032,45.018 78.4366,46.3513 74.5,48.5C 75.376,49.2508 76.376,49.7508 77.5,50C 72.7282,50.8104 71.3948,48.9771 73.5,44.5 Z"/></g>
<g><path style="opacity:1" fill="#22171d" d="M 83.5,47.5 C 83.719,48.675 83.3857,49.675 82.5,50.5C 81.3347,49.1405 81.668,48.1405 83.5,47.5 Z"/></g>
<g><path style="opacity:1" fill="#b5b5b5" d="M 186.5,51.5 C 186.833,51.5 187.167,51.5 187.5,51.5C 187.333,84.1684 187.5,116.835 188,149.5C 188.5,150 189,150.5 189.5,151C 238.166,151.5 286.832,151.667 335.5,151.5C 335.5,151.833 335.5,152.167 335.5,152.5C 334.078,152.709 332.745,153.209 331.5,154C 284.596,154.169 237.763,154.669 191,155.5C 188.395,154.167 186.395,152.167 185,149.5C 184.333,117.5 184.333,85.5 185,53.5C 185.278,52.5842 185.778,51.9175 186.5,51.5 Z"/></g>
<g><path style="opacity:1" fill="#2a2a2a" d="M 91.5,77.5 C 92.8333,77.5 94.1667,77.5 95.5,77.5C 95.5,80.1667 95.5,82.8333 95.5,85.5C 97.1667,85.5 98.8333,85.5 100.5,85.5C 100.5,82.8333 100.5,80.1667 100.5,77.5C 101.833,77.5 103.167,77.5 104.5,77.5C 104.5,83.5 104.5,89.5 104.5,95.5C 103.167,95.5 101.833,95.5 100.5,95.5C 100.5,92.8333 100.5,90.1667 100.5,87.5C 98.8333,87.5 97.1667,87.5 95.5,87.5C 95.5,90.1667 95.5,92.8333 95.5,95.5C 94.1667,95.5 92.8333,95.5 91.5,95.5C 91.5,89.5 91.5,83.5 91.5,77.5 Z"/></g>
<g><path style="opacity:1" fill="#121212" d="M 77.5,77.5 C 81.5,77.5 85.5,77.5 89.5,77.5C 89.5,78.5 89.5,79.5 89.5,80.5C 88.1667,80.5 86.8333,80.5 85.5,80.5C 85.5,85.5 85.5,90.5 85.5,95.5C 84.5,95.5 83.5,95.5 82.5,95.5C 82.5,90.5 82.5,85.5 82.5,80.5C 80.8333,80.5 79.1667,80.5 77.5,80.5C 77.5,79.5 77.5,78.5 77.5,77.5 Z"/></g>
<g><path style="opacity:1" fill="#252525" d="M 30.5,77.5 C 32.1667,77.5 33.8333,77.5 35.5,77.5C 37.2909,92.5289 39.4575,92.8622 42,78.5C 43.3561,77.6198 44.8561,77.2865 46.5,77.5C 46.5,83.5 46.5,89.5 46.5,95.5C 45.5,95.5 44.5,95.5 43.5,95.5C 43.769,81.0425 42.769,81.0425 40.5,95.5C 39.325,95.719 38.325,95.3857 37.5,94.5C 33.6985,81.1885 32.6985,81.5219 34.5,95.5C 33.1667,95.5 31.8333,95.5 30.5,95.5C 30.5,89.5 30.5,83.5 30.5,77.5 Z"/></g>
<g><path style="opacity:1" fill="#242424" d="M 112.5,77.5 C 116.257,77.0708 119.757,77.7375 123,79.5C 123.896,82.025 123.396,84.1917 121.5,86C 124.418,89.4719 124.085,92.4719 120.5,95C 117.854,95.4974 115.187,95.6641 112.5,95.5C 112.5,89.5 112.5,83.5 112.5,77.5 Z"/></g>
<g><path style="opacity:1" fill="#d6d6d6" d="M 115.5,80.5 C 119.676,79.8307 121.009,81.3307 119.5,85C 118.207,85.49 116.873,85.6567 115.5,85.5C 115.5,83.8333 115.5,82.1667 115.5,80.5 Z"/></g>
<g><path style="opacity:1" fill="#202020" d="M 53.5,77.5 C 56.6516,76.9586 59.1516,77.9586 61,80.5C 61.6667,84.5 61.6667,88.5 61,92.5C 57.3797,96.4875 53.713,96.4875 50,92.5C 49.3333,88.5 49.3333,84.5 50,80.5C 51.1451,79.3636 52.3117,78.3636 53.5,77.5 Z"/></g>
<g><path style="opacity:1" fill="#f2f2f2" d="M 53.5,80.5 C 55.1439,80.2865 56.6439,80.6198 58,81.5C 58.7886,85.0915 58.6219,88.5915 57.5,92C 55.8876,92.7203 54.3876,92.5536 53,91.5C 52.3219,87.7789 52.4886,84.1122 53.5,80.5 Z"/></g>
<g><path style="opacity:1" fill="#1f1f1f" d="M 152.5,77.5 C 162.511,76.4937 165.511,80.4937 161.5,89.5C 161.887,91.2743 162.553,92.941 163.5,94.5C 162.311,95.4287 160.978,95.762 159.5,95.5C 157.207,86.4991 155.874,86.4991 155.5,95.5C 154.5,95.5 153.5,95.5 152.5,95.5C 152.5,89.5 152.5,83.5 152.5,77.5 Z"/></g>
<g><path style="opacity:1" fill="#ecebec" d="M 155.5,80.5 C 156.833,80.5 158.167,80.5 159.5,80.5C 160.401,84.2407 159.068,86.2407 155.5,86.5C 155.5,84.5 155.5,82.5 155.5,80.5 Z"/></g>
<g><path style="opacity:1" fill="#efefef" d="M 116.5,87.5 C 119.91,87.3838 121.244,89.0504 120.5,92.5C 119.167,92.5 117.833,92.5 116.5,92.5C 116.5,90.8333 116.5,89.1667 116.5,87.5 Z"/></g>
<g><path style="opacity:1" fill="#a0a0a0" d="M 254.5,97.5 C 252.447,97.5979 250.78,96.9313 249.5,95.5C 250.335,94.0568 251.668,93.0568 253.5,92.5C 252.833,91.5 252.167,90.5 251.5,89.5C 252.348,87.5914 252.682,85.5914 252.5,83.5C 253.833,83.5 255.167,83.5 256.5,83.5C 256.5,84.8333 256.5,86.1667 256.5,87.5C 259.436,88.4058 262.436,89.0725 265.5,89.5C 265.725,91.7159 264.892,93.3826 263,94.5C 261.89,92.9632 260.39,92.2965 258.5,92.5C 258.5,93.5 258.5,94.5 258.5,95.5C 256.517,95.1568 255.183,95.8235 254.5,97.5 Z"/></g>
<g><path style="opacity:1" fill="#222222" d="M 20.5,77.5 C 24.2243,76.7731 26.8909,78.1064 28.5,81.5C 27.8333,81.8333 27.1667,82.1667 26.5,82.5C 24.6663,81.2455 22.6663,80.5789 20.5,80.5C 20.3505,81.552 20.5172,82.552 21,83.5C 23.2503,84.7079 25.417,86.0413 27.5,87.5C 29.5399,93.8419 27.2066,96.3419 20.5,95C 18.1367,94.4115 17.1367,92.9115 17.5,90.5C 19.7373,91.449 22.0706,92.1156 24.5,92.5C 24.762,91.0222 24.4287,89.6888 23.5,88.5C 17.0055,85.9837 16.0055,82.317 20.5,77.5 Z"/></g>
<g><path style="opacity:1" fill="#1c1c1c" d="M 67.5,77.5 C 70.9705,76.8748 73.8038,77.8748 76,80.5C 76.6667,84.5 76.6667,88.5 76,92.5C 71.8372,96.7475 68.1705,96.4141 65,91.5C 63.8058,86.3686 64.6391,81.7019 67.5,77.5 Z"/></g>
<g><path style="opacity:1" fill="#efefef" d="M 68.5,80.5 C 70.1439,80.2865 71.6439,80.6198 73,81.5C 73.7886,85.0915 73.6219,88.5915 72.5,92C 70.8876,92.7203 69.3876,92.5536 68,91.5C 67.2446,87.7446 67.4113,84.0779 68.5,80.5 Z"/></g>
<g><path style="opacity:1" fill="#272727" d="M 137.5,77.5 C 138.833,77.5 140.167,77.5 141.5,77.5C 141.5,82.5 141.5,87.5 141.5,92.5C 143.144,92.7135 144.644,92.3802 146,91.5C 146.499,86.8452 146.666,82.1785 146.5,77.5C 147.5,77.5 148.5,77.5 149.5,77.5C 149.666,82.5111 149.499,87.5111 149,92.5C 146.833,95.2868 143.999,96.1201 140.5,95C 139.299,94.0975 138.465,92.9308 138,91.5C 137.501,86.8452 137.334,82.1785 137.5,77.5 Z"/></g>
<g><path style="opacity:1" fill="#1f1f1f" d="M 126.5,77.5 C 127.5,77.5 128.5,77.5 129.5,77.5C 129.5,82.5 129.5,87.5 129.5,92.5C 131.833,92.5 134.167,92.5 136.5,92.5C 136.5,93.5 136.5,94.5 136.5,95.5C 133.167,95.5 129.833,95.5 126.5,95.5C 126.5,89.5 126.5,83.5 126.5,77.5 Z"/></g>
<g><path style="opacity:1" fill="#9d9d9d" d="M 322.5,93.5 C 312.376,94.8244 302.209,94.8244 292,93.5C 285.203,94.2791 278.37,94.7791 271.5,95C 270.975,95.6924 270.308,96.1924 269.5,96.5C 268.511,92.8927 268.177,89.226 268.5,85.5C 273.663,86.4148 278.83,87.4148 284,88.5C 285.766,87.7665 287.599,87.4332 289.5,87.5C 289.811,88.4778 290.478,89.1445 291.5,89.5C 293.698,88.2617 295.865,86.9284 298,85.5C 300.641,86.9335 303.474,87.9335 306.5,88.5C 307.386,89.325 307.719,90.325 307.5,91.5C 308.822,91.67 309.989,91.3366 311,90.5C 311.495,88.5273 311.662,86.5273 311.5,84.5C 312.5,84.5 313.5,84.5 314.5,84.5C 314.5,85.5 314.5,86.5 314.5,87.5C 316.857,87.3367 319.19,87.5034 321.5,88C 322.406,89.6995 322.739,91.5328 322.5,93.5 Z"/></g>
<g><path style="opacity:1" fill="#4d4d4d" d="M 289.5,87.5 C 287.599,87.4332 285.766,87.7665 284,88.5C 278.83,87.4148 273.663,86.4148 268.5,85.5C 268.177,89.226 268.511,92.8927 269.5,96.5C 270.308,96.1924 270.975,95.6924 271.5,95C 278.37,94.7791 285.203,94.2791 292,93.5C 302.209,94.8244 312.376,94.8244 322.5,93.5C 322.586,94.4959 322.252,95.3292 321.5,96C 304.833,96.3333 288.167,96.6667 271.5,97C 270.737,97.9435 269.737,98.4435 268.5,98.5C 265.885,97.7308 263.219,97.3975 260.5,97.5C 260.378,93.1617 260.045,92.8284 259.5,96.5C 257.708,96.366 256.042,96.6993 254.5,97.5C 255.183,95.8235 256.517,95.1568 258.5,95.5C 258.5,94.5 258.5,93.5 258.5,92.5C 260.39,92.2965 261.89,92.9632 263,94.5C 264.892,93.3826 265.725,91.7159 265.5,89.5C 262.436,89.0725 259.436,88.4058 256.5,87.5C 256.5,86.1667 256.5,84.8333 256.5,83.5C 255.167,83.5 253.833,83.5 252.5,83.5C 252.682,85.5914 252.348,87.5914 251.5,89.5C 252.167,90.5 252.833,91.5 253.5,92.5C 251.668,93.0568 250.335,94.0568 249.5,95.5C 246.672,92.4274 247.172,89.7607 251,87.5C 251.083,82.3751 253.583,80.5417 258.5,82C 259.727,83.5874 259.394,84.9207 257.5,86C 260.506,86.3324 263.34,87.1657 266,88.5C 266.494,86.8659 266.66,85.1992 266.5,83.5C 274.147,85.671 281.814,87.0044 289.5,87.5 Z"/></g>
<g><path style="opacity:1" fill="#4c4c4c" d="M 255.5,102.5 C 278.167,102.5 300.833,102.5 323.5,102.5C 323.5,103.5 323.5,104.5 323.5,105.5C 300.833,105.5 278.167,105.5 255.5,105.5C 255.5,104.5 255.5,103.5 255.5,102.5 Z"/></g>
<g><path style="opacity:1" fill="#202020" d="M 47.5,106.5 C 48.5,106.5 49.5,106.5 50.5,106.5C 50.5,112.167 50.5,117.833 50.5,123.5C 49.5,123.5 48.5,123.5 47.5,123.5C 47.5,117.833 47.5,112.167 47.5,106.5 Z"/></g>
<g><path style="opacity:1" fill="#ababab" d="M 47.5,106.5 C 48.5676,105.566 49.901,105.232 51.5,105.5C 51.8229,111.69 51.4896,117.69 50.5,123.5C 50.5,117.833 50.5,112.167 50.5,106.5C 49.5,106.5 48.5,106.5 47.5,106.5 Z"/></g>
<g><path style="opacity:1" fill="#737373" d="M 58.5,106.5 C 57.1667,106.5 55.8333,106.5 54.5,106.5C 54.1712,112.206 54.5046,117.872 55.5,123.5C 55.9801,119.087 56.6468,116.087 57.5,114.5C 57.5,117.833 57.5,121.167 57.5,124.5C 56.1667,124.5 54.8333,124.5 53.5,124.5C 53.5,118.167 53.5,111.833 53.5,105.5C 55.4147,105.216 57.0813,105.549 58.5,106.5 Z"/></g>
<g><path style="opacity:1" fill="#b6b6b6" d="M 121.5,106.5 C 121.5,112.167 121.5,117.833 121.5,123.5C 122.5,123.5 123.5,123.5 124.5,123.5C 123.432,124.434 122.099,124.768 120.5,124.5C 120.177,118.31 120.51,112.31 121.5,106.5 Z"/></g>
<g><path style="opacity:1" fill="#9e9e9e" d="M 69.5,106.5 C 70.4896,112.31 70.8229,118.31 70.5,124.5C 68.901,124.768 67.5676,124.434 66.5,123.5C 67.5,123.5 68.5,123.5 69.5,123.5C 69.5,117.833 69.5,112.167 69.5,106.5 Z"/></g>
<g><path style="opacity:1" fill="#212121" d="M 93.5,123.5 C 92.5,123.5 91.5,123.5 90.5,123.5C 90.8195,118.637 90.4861,113.97 89.5,109.5C 88.2825,108.839 86.9492,108.172 85.5,107.5C 89.5,106.167 93.5,106.167 97.5,107.5C 96.3112,108.429 94.9778,108.762 93.5,108.5C 93.5,113.5 93.5,118.5 93.5,123.5 Z"/></g>
<g><path style="opacity:1" fill="#2e2e2e" d="M 99.5,106.5 C 100.833,106.5 102.167,106.5 103.5,106.5C 103.5,112.167 103.5,117.833 103.5,123.5C 102.167,123.5 100.833,123.5 99.5,123.5C 99.5,117.833 99.5,112.167 99.5,106.5 Z"/></g>
<g><path style="opacity:1" fill="#202020" d="M 58.5,106.5 C 59.35,110.562 60.5167,114.562 62,118.5C 63,114.833 64,111.167 65,107.5C 66.3561,106.62 67.8561,106.286 69.5,106.5C 69.5,112.167 69.5,117.833 69.5,123.5C 68.5,123.5 67.5,123.5 66.5,123.5C 66.769,109.043 65.769,109.043 63.5,123.5C 62.325,123.719 61.325,123.386 60.5,122.5C 59.9912,119.538 58.9912,116.871 57.5,114.5C 56.6468,116.087 55.9801,119.087 55.5,123.5C 54.5046,117.872 54.1712,112.206 54.5,106.5C 55.8333,106.5 57.1667,106.5 58.5,106.5 Z"/></g>
<g><path style="opacity:1" fill="#6e6e6e" d="M 89.5,109.5 C 90.4861,113.97 90.8195,118.637 90.5,123.5C 91.5,123.5 92.5,123.5 93.5,123.5C 92.4324,124.434 91.099,124.768 89.5,124.5C 89.5,119.5 89.5,114.5 89.5,109.5 Z"/></g>
<g><path style="opacity:1" fill="#212121" d="M 29.5,121.5 C 29.6107,122.117 29.944,122.617 30.5,123C 29.2068,123.49 27.8734,123.657 26.5,123.5C 26.5,122.5 26.5,121.5 26.5,120.5C 24.5,120.5 22.5,120.5 20.5,120.5C 20.5,121.5 20.5,122.5 20.5,123.5C 19.0222,123.762 17.6888,123.429 16.5,122.5C 18.3006,117.931 19.8006,113.265 21,108.5C 22.6667,105.833 24.3333,105.833 26,108.5C 27.2752,112.822 28.4419,117.156 29.5,121.5 Z"/></g>
<g><path style="opacity:1" fill="#d4d4d4" d="M 22.5,111.5 C 24.3079,112.918 24.9746,114.918 24.5,117.5C 23.5,117.5 22.5,117.5 21.5,117.5C 21.8333,115.5 22.1667,113.5 22.5,111.5 Z"/></g>
<g><path style="opacity:1" fill="#b4b4b4" d="M 32.5,106.5 C 32.5,112.167 32.5,117.833 32.5,123.5C 33.5,123.5 34.5,123.5 35.5,123.5C 32.5,124.833 29.5,124.833 26.5,123.5C 27.8734,123.657 29.2068,123.49 30.5,123C 29.944,122.617 29.6107,122.117 29.5,121.5C 31.1413,116.749 32.1413,111.749 32.5,106.5 Z"/></g>
<g><path style="opacity:1" fill="#1f1f1f" d="M 32.5,106.5 C 33.8221,106.33 34.9887,106.663 36,107.5C 37.4538,110.071 38.6205,112.738 39.5,115.5C 39.7828,116.289 40.2828,116.956 41,117.5C 41.4986,113.848 41.6653,110.182 41.5,106.5C 42.5,106.5 43.5,106.5 44.5,106.5C 44.5,112.167 44.5,117.833 44.5,123.5C 43.0222,123.762 41.6888,123.429 40.5,122.5C 36.236,110.233 34.5693,110.566 35.5,123.5C 34.5,123.5 33.5,123.5 32.5,123.5C 32.5,117.833 32.5,112.167 32.5,106.5 Z"/></g>
<g><path style="opacity:1" fill="#9d9d9d" d="M 41.5,106.5 C 41.6653,110.182 41.4986,113.848 41,117.5C 40.2828,116.956 39.7828,116.289 39.5,115.5C 40.1667,112.5 40.8333,109.5 41.5,106.5 Z"/></g>
<g><path style="opacity:1" fill="#222222" d="M 77.5,106.5 C 78.8221,106.33 79.9887,106.663 81,107.5C 82.8041,112.767 84.3041,118.1 85.5,123.5C 83.3362,122.522 81.1695,121.522 79,120.5C 76.8305,121.522 74.6638,122.522 72.5,123.5C 73.8776,117.746 75.5442,112.079 77.5,106.5 Z"/></g>
<g><path style="opacity:1" fill="#dddddd" d="M 78.5,111.5 C 80.0739,113.102 80.7406,115.102 80.5,117.5C 79.5,117.5 78.5,117.5 77.5,117.5C 77.5172,115.435 77.8505,113.435 78.5,111.5 Z"/></g>
<g><path style="opacity:1" fill="#212121" d="M 121.5,106.5 C 122.822,106.33 123.989,106.663 125,107.5C 126.682,110.864 128.349,114.198 130,117.5C 130.499,113.848 130.665,110.182 130.5,106.5C 131.5,106.5 132.5,106.5 133.5,106.5C 133.5,112.167 133.5,117.833 133.5,123.5C 132.022,123.762 130.689,123.429 129.5,122.5C 128.097,119.125 126.597,115.791 125,112.5C 124.501,116.152 124.335,119.818 124.5,123.5C 123.5,123.5 122.5,123.5 121.5,123.5C 121.5,117.833 121.5,112.167 121.5,106.5 Z"/></g>
<g><path style="opacity:1" fill="#201f20" d="M 109.5,105.5 C 113.355,104.845 116.188,106.179 118,109.5C 118.667,113.167 118.667,116.833 118,120.5C 115.441,123.349 112.274,124.183 108.5,123C 104.307,116.903 104.641,111.069 109.5,105.5 Z"/></g>
<g><path style="opacity:1" fill="#ecebec" d="M 110.5,108.5 C 112.39,108.297 113.89,108.963 115,110.5C 115.667,113.5 115.667,116.5 115,119.5C 113.604,121.527 111.938,121.86 110,120.5C 109.238,116.413 109.404,112.413 110.5,108.5 Z"/></g>
<g><path style="opacity:1" fill="#1d1d1d" d="M 20.5,134.5 C 20.5,140.167 20.5,145.833 20.5,151.5C 19.5,151.5 18.5,151.5 17.5,151.5C 17.5,145.833 17.5,140.167 17.5,134.5C 18.5,134.5 19.5,134.5 20.5,134.5 Z"/></g>
<g><path style="opacity:1" fill="#747474" d="M 24.5,134.5 C 24.5,140.167 24.5,145.833 24.5,151.5C 25.5,151.5 26.5,151.5 27.5,151.5C 26.4324,152.434 25.099,152.768 23.5,152.5C 23.1771,146.31 23.5104,140.31 24.5,134.5 Z"/></g>
<g><path style="opacity:1" fill="#252525" d="M 24.5,134.5 C 25.8221,134.33 26.9887,134.663 28,135.5C 31.8553,147.728 33.3553,147.395 32.5,134.5C 33.8333,134.5 35.1667,134.5 36.5,134.5C 36.5,140.5 36.5,146.5 36.5,152.5C 35.0222,152.762 33.6888,152.429 32.5,151.5C 30.7965,148.285 29.2965,144.951 28,141.5C 27.5017,144.817 27.335,148.15 27.5,151.5C 26.5,151.5 25.5,151.5 24.5,151.5C 24.5,145.833 24.5,140.167 24.5,134.5 Z"/></g>
<g><path style="opacity:1" fill="#191919" d="M 76.5,134.5 C 79.9705,133.875 82.8038,134.875 85,137.5C 85.6667,141.167 85.6667,144.833 85,148.5C 81.74,153.285 78.0734,153.619 74,149.5C 73.3333,145.5 73.3333,141.5 74,137.5C 74.6979,136.309 75.5313,135.309 76.5,134.5 Z"/></g>
<g><path style="opacity:1" fill="#f1f1f1" d="M 77.5,137.5 C 79.1439,137.286 80.6439,137.62 82,138.5C 82.7886,142.091 82.6219,145.591 81.5,149C 79.8876,149.72 78.3876,149.554 77,148.5C 76.2446,144.745 76.4113,141.078 77.5,137.5 Z"/></g>
<g><path style="opacity:1" fill="#212121" d="M 102.5,134.5 C 105.833,134.5 109.167,134.5 112.5,134.5C 112.5,135.5 112.5,136.5 112.5,137.5C 110.167,137.5 107.833,137.5 105.5,137.5C 105.5,138.833 105.5,140.167 105.5,141.5C 107.5,141.5 109.5,141.5 111.5,141.5C 111.5,142.5 111.5,143.5 111.5,144.5C 109.5,144.5 107.5,144.5 105.5,144.5C 105.5,146.167 105.5,147.833 105.5,149.5C 107.5,149.5 109.5,149.5 111.5,149.5C 109.012,151.388 106.012,152.055 102.5,151.5C 102.5,145.833 102.5,140.167 102.5,134.5 Z"/></g>
<g><path style="opacity:1" fill="#1f1f1f" d="M 88.5,134.5 C 91.1873,134.336 93.854,134.503 96.5,135C 100.02,137.237 100.353,139.904 97.5,143C 100.299,146.339 99.9661,149.339 96.5,152C 93.854,152.497 91.1873,152.664 88.5,152.5C 88.5,146.5 88.5,140.5 88.5,134.5 Z"/></g>
<g><path style="opacity:1" fill="#ebebeb" d="M 91.5,137.5 C 92.8333,137.5 94.1667,137.5 95.5,137.5C 96.2436,140.95 94.9103,142.616 91.5,142.5C 91.5,140.833 91.5,139.167 91.5,137.5 Z"/></g>
<g><path style="opacity:1" fill="#232323" d="M 119.5,134.5 C 122.888,134.874 124.722,136.874 125,140.5C 126.663,138.842 127.496,136.842 127.5,134.5C 128.873,134.343 130.207,134.51 131.5,135C 129.765,137.637 128.432,140.47 127.5,143.5C 128.833,146.167 130.167,148.833 131.5,151.5C 130.833,151.833 130.167,152.167 129.5,152.5C 127.382,151.024 125.882,149.024 125,146.5C 124.163,148.351 123.329,150.184 122.5,152C 121.167,152.667 119.833,152.667 118.5,152C 120.381,149.239 121.714,146.239 122.5,143C 121.212,140.303 120.212,137.47 119.5,134.5 Z"/></g>
<g><path style="opacity:1" fill="#e9e9e9" d="M 91.5,144.5 C 95.6759,143.831 97.0093,145.331 95.5,149C 94.2068,149.49 92.8734,149.657 91.5,149.5C 91.5,147.833 91.5,146.167 91.5,144.5 Z"/></g>
<g><path style="opacity:1" fill="#959595" d="M 102.5,134.5 C 102.5,140.167 102.5,145.833 102.5,151.5C 106.012,152.055 109.012,151.388 111.5,149.5C 112.404,150.209 112.737,151.209 112.5,152.5C 108.833,152.5 105.167,152.5 101.5,152.5C 101.177,146.31 101.51,140.31 102.5,134.5 Z"/></g>
<g><path style="opacity:1" fill="#242424" d="M 48.5,134.5 C 49.8333,134.5 51.1667,134.5 52.5,134.5C 54.0062,140.187 55.6729,145.854 57.5,151.5C 54.5812,152.932 53.2479,151.932 53.5,148.5C 51.5,148.5 49.5,148.5 47.5,148.5C 47.5,149.833 47.5,151.167 47.5,152.5C 46.0222,152.762 44.6888,152.429 43.5,151.5C 45.4701,145.901 47.1367,140.235 48.5,134.5 Z"/></g>
<g><path style="opacity:1" fill="#dadada" d="M 49.5,139.5 C 51.0428,140.736 52.0428,142.402 52.5,144.5C 51.277,145.614 49.9437,145.781 48.5,145C 49.4061,143.301 49.7394,141.467 49.5,139.5 Z"/></g>
<g><path style="opacity:1" fill="#939393" d="M 20.5,134.5 C 21.4896,140.31 21.8229,146.31 21.5,152.5C 19.901,152.768 18.5676,152.434 17.5,151.5C 18.5,151.5 19.5,151.5 20.5,151.5C 20.5,145.833 20.5,140.167 20.5,134.5 Z"/></g>
<g><path style="opacity:1" fill="#191919" d="M 133.5,134.5 C 144.136,134.07 147.636,139.07 144,149.5C 141.016,152.1 137.516,153.1 133.5,152.5C 133.5,146.5 133.5,140.5 133.5,134.5 Z"/></g>
<g><path style="opacity:1" fill="#e4e4e4" d="M 136.5,137.5 C 140.894,137.054 142.56,139.054 141.5,143.5C 142.56,147.946 140.894,149.946 136.5,149.5C 136.5,145.5 136.5,141.5 136.5,137.5 Z"/></g>
<g><path style="opacity:1" fill="#1e1e1e" d="M 59.5,134.5 C 66.7512,133.094 70.4179,135.927 70.5,143C 70.9677,150.713 67.301,153.88 59.5,152.5C 59.5,146.5 59.5,140.5 59.5,134.5 Z"/></g>
<g><path style="opacity:1" fill="#eeeeee" d="M 62.5,137.5 C 66.7406,136.909 68.4073,138.742 67.5,143C 68.3075,147.257 66.6408,149.424 62.5,149.5C 62.5,145.5 62.5,141.5 62.5,137.5 Z"/></g>
<g><path style="opacity:1" fill="#c1c1c1" d="M 186.5,51.5 C 185.778,51.9175 185.278,52.5842 185,53.5C 184.333,85.5 184.333,117.5 185,149.5C 186.395,152.167 188.395,154.167 191,155.5C 237.763,154.669 284.596,154.169 331.5,154C 332.745,153.209 334.078,152.709 335.5,152.5C 335.5,153.833 335.5,155.167 335.5,156.5C 312.14,156.187 288.807,156.52 265.5,157.5C 238.483,156.973 211.483,156.14 184.5,155C 184,154.5 183.5,154 183,153.5C 182.333,119.5 182.333,85.5 183,51.5C 184.376,48.8753 185.542,48.8753 186.5,51.5 Z"/></g>
<g><path style="opacity:1" fill="#d0d0d0" d="M 186.5,45.5 C 186.5,46.1667 186.833,46.5 187.5,46.5C 187.5,48.1667 187.5,49.8333 187.5,51.5C 187.167,51.5 186.833,51.5 186.5,51.5C 185.542,48.8753 184.376,48.8753 183,51.5C 182.333,85.5 182.333,119.5 183,153.5C 183.5,154 184,154.5 184.5,155C 211.483,156.14 238.483,156.973 265.5,157.5C 288.807,156.52 312.14,156.187 335.5,156.5C 335.5,157.5 335.5,158.5 335.5,159.5C 299.125,159.097 262.791,159.097 226.5,159.5C 214.167,159.167 201.833,158.833 189.5,158.5C 187.631,157.376 185.631,156.543 183.5,156C 182.089,153.622 180.923,151.122 180,148.5C 179.188,116.137 179.355,83.8038 180.5,51.5C 181.478,48.5222 183.478,46.5222 186.5,45.5 Z"/></g>
<g><path style="opacity:1" fill="#e3e3e3" d="M 180.5,51.5 C 179.355,83.8038 179.188,116.137 180,148.5C 180.923,151.122 182.089,153.622 183.5,156C 185.631,156.543 187.631,157.376 189.5,158.5C 201.833,158.833 214.167,159.167 226.5,159.5C 262.791,159.097 299.125,159.097 335.5,159.5C 335.5,160.167 335.5,160.833 335.5,161.5C 312.14,161.187 288.807,161.52 265.5,162.5C 263.116,161.988 260.783,161.321 258.5,160.5C 247.211,161.156 235.877,161.49 224.5,161.5C 211.461,161.606 198.461,161.106 185.5,160C 183.317,157.65 180.984,155.483 178.5,153.5C 177.5,119.507 177.167,85.5065 177.5,51.5C 178.5,51.5 179.5,51.5 180.5,51.5 Z"/></g>
<g><path style="opacity:1" fill="#ecb554" d="M 271.5,171.5 C 271.167,171.5 270.833,171.5 270.5,171.5C 266.702,170.517 262.702,170.183 258.5,170.5C 258.5,170.167 258.5,169.833 258.5,169.5C 259.779,168.032 261.446,167.365 263.5,167.5C 263.5,166.167 263.5,164.833 263.5,163.5C 264.552,163.351 265.552,163.517 266.5,164C 267.333,166.167 268.833,167.667 271,168.5C 271.483,169.448 271.649,170.448 271.5,171.5 Z"/></g>
<g><path style="opacity:1" fill="#1b1c1f" d="M 288.5,174.5 C 286.721,174.374 284.721,174.708 282.5,175.5C 285.071,173.422 285.071,171.256 282.5,169C 282.833,168.833 283.167,168.667 283.5,168.5C 284.833,171.167 286.167,171.167 287.5,168.5C 287.833,168.833 288.167,169.167 288.5,169.5C 287.265,171.316 287.265,172.983 288.5,174.5 Z"/></g>
<g><path style="opacity:1" fill="#d98562" d="M 320.5,168.5 C 322.288,168.215 323.955,168.548 325.5,169.5C 324.624,170.251 323.624,170.751 322.5,171C 324.991,171.626 324.991,172.459 322.5,173.5C 323.376,174.251 324.376,174.751 325.5,175C 323.866,175.494 322.199,175.66 320.5,175.5C 320.5,173.167 320.5,170.833 320.5,168.5 Z"/></g>
<g><path style="opacity:1" fill="#0f0e17" d="M 280.5,175.5 C 278.563,176.706 276.896,176.373 275.5,174.5C 275.201,172.396 275.534,170.396 276.5,168.5C 277.833,176.5 279.167,176.5 280.5,168.5C 281.714,170.859 281.714,173.192 280.5,175.5 Z"/></g>
<g><path style="opacity:1" fill="#ba8e73" d="M 270.5,171.5 C 270.833,171.5 271.167,171.5 271.5,171.5C 271.912,173.973 270.912,175.306 268.5,175.5C 266.481,174.245 264.481,173.911 262.5,174.5C 261.5,174.167 260.833,173.5 260.5,172.5C 263.67,172.319 267.003,171.986 270.5,171.5 Z"/></g>
<g><path style="opacity:1" fill="#da9169" d="M 291.5,168.5 C 293.288,168.215 294.955,168.548 296.5,169.5C 295.975,170.192 295.308,170.692 294.5,171C 295.308,171.308 295.975,171.808 296.5,172.5C 295.272,174.321 293.606,175.321 291.5,175.5C 291.5,173.5 291.5,171.5 291.5,169.5C 291.5,169.167 291.5,168.833 291.5,168.5 Z"/></g>
<g><path style="opacity:1" fill="#e98a5d" d="M 311.5,168.5 C 313.411,168.574 314.578,169.574 315,171.5C 316.019,170.313 317.186,169.313 318.5,168.5C 319.833,170.833 319.833,173.167 318.5,175.5C 317.12,172.301 315.12,172.301 312.5,175.5C 311.526,173.257 311.192,170.924 311.5,168.5 Z"/></g>
<g><path style="opacity:1" fill="#d98964" d="M 298.5,168.5 C 300.308,169.918 300.975,171.918 300.5,174.5C 301.833,174.5 303.167,174.5 304.5,174.5C 304.833,172.5 305.167,170.5 305.5,168.5C 306.822,168.33 307.989,168.663 309,169.5C 309.346,171.218 309.846,172.885 310.5,174.5C 306.555,175.491 302.555,175.824 298.5,175.5C 298.5,173.167 298.5,170.833 298.5,168.5 Z"/></g>
<g><path style="opacity:1" fill="#a85b45" d="M 258.5,170.5 C 262.702,170.183 266.702,170.517 270.5,171.5C 267.003,171.986 263.67,172.319 260.5,172.5C 260.833,173.5 261.5,174.167 262.5,174.5C 264.481,173.911 266.481,174.245 268.5,175.5C 268.443,176.609 268.11,177.609 267.5,178.5C 261.325,179.323 258.325,176.656 258.5,170.5 Z"/></g>
</svg>
