<?xml version="1.0" encoding="UTF-8"?>
<!DOCTYPE svg PUBLIC "-//W3C//DTD SVG 1.1//EN" "http://www.w3.org/Graphics/SVG/1.1/DTD/svg11.dtd">
<svg xmlns="http://www.w3.org/2000/svg" version="1.1" width="336px" height="188px" style="shape-rendering:geometricPrecision; text-rendering:geometricPrecision; image-rendering:optimizeQuality; fill-rule:evenodd; clip-rule:evenodd" xmlns:xlink="http://www.w3.org/1999/xlink">
<g><path style="opacity:1" fill="#c8d0d9" d="M -0.5,-0.5 C 111.5,-0.5 223.5,-0.5 335.5,-0.5C 335.5,62.1667 335.5,124.833 335.5,187.5C 223.5,187.5 111.5,187.5 -0.5,187.5C -0.5,124.833 -0.5,62.1667 -0.5,-0.5 Z"/></g>
<g><path style="opacity:1" fill="#e9ebef" d="M 153.5,12.5 C 173.503,12.3334 193.503,12.5 213.5,13C 216.381,14.2506 218.214,16.4173 219,19.5C 219.5,64.4988 219.667,109.499 219.5,154.5C 216.774,154.264 214.441,155.097 212.5,157C 192.158,157.833 171.825,157.666 151.5,156.5C 150.855,155.354 150.022,154.354 149,153.5C 148.333,107.833 148.333,62.1667 149,16.5C 150.397,14.9297 151.897,13.5964 153.5,12.5 Z"/></g>
<g><path style="opacity:1" fill="#e9ebef" d="M 257.5,12.5 C 276.17,12.3334 294.836,12.5001 313.5,13C 316.333,14.5 318.5,16.6667 320,19.5C 320.667,64.1667 320.667,108.833 320,153.5C 319.5,154.5 319,155.5 318.5,156.5C 297.508,157.666 276.508,157.833 255.5,157C 252.577,156.793 250.744,155.293 250,152.5C 249.333,112.833 249.333,73.1667 250,33.5C 250.119,28.7176 250.785,24.0509 252,19.5C 253.263,17.2031 255.097,16.3698 257.5,17C 256.643,17.6891 255.977,18.5224 255.5,19.5C 257.045,20.4519 258.712,20.7852 260.5,20.5C 259.5,17.8333 258.5,15.1667 257.5,12.5 Z"/></g>
<g><path style="opacity:1" fill="#5d505f" d="M 78.5,24.5 C 81.9103,24.3838 83.2436,26.0504 82.5,29.5C 80.901,29.7678 79.5676,29.4345 78.5,28.5C 78.5,27.1667 78.5,25.8333 78.5,24.5 Z"/></g>
<g><path style="opacity:1" fill="#584556" d="M 16.5,23.5 C 18.0428,24.7358 19.0428,26.4024 19.5,28.5C 18.2135,28.4764 16.8802,28.8097 15.5,29.5C 14.4786,27.4767 14.8119,25.4767 16.5,23.5 Z"/></g>
<g><path style="opacity:1" fill="#bbc4cc" d="M 146.5,19.5 C 144.521,22.0986 142.521,24.7653 140.5,27.5C 139.333,69.496 139.167,111.496 140,153.5C 140.307,157.047 141.14,160.38 142.5,163.5C 144.564,163.687 146.564,164.187 148.5,165C 168.167,165.667 187.833,165.667 207.5,165C 209.184,163.791 210.517,162.291 211.5,160.5C 213.688,161.536 213.688,163.036 211.5,165C 209.956,165.29 208.623,165.956 207.5,167C 207.966,168.299 207.966,169.799 207.5,171.5C 196.037,172.602 184.537,173.268 173,173.5C 160.268,172.004 147.435,171.338 134.5,171.5C 134.167,168.833 133.833,166.167 133.5,163.5C 132.5,163.5 131.5,163.5 130.5,163.5C 130.5,162.167 130.5,160.833 130.5,159.5C 129.5,159.5 128.5,159.5 127.5,159.5C 127.333,119.499 127.5,79.4986 128,39.5C 128.9,38.2298 130.066,37.2298 131.5,36.5C 130.167,35.8333 128.833,35.1667 127.5,34.5C 128.788,31.9665 128.788,29.4665 127.5,27C 128.973,26.2904 129.64,25.1238 129.5,23.5C 133.045,19.8597 136.879,17.193 141,15.5C 143.137,16.0767 145.304,16.41 147.5,16.5C 147.737,17.791 147.404,18.791 146.5,19.5 Z"/></g>
<g><path style="opacity:1" fill="#0e1324" d="M 51.5,36.5 C 52.404,37.209 52.7373,38.209 52.5,39.5C 51.5,39.5 50.5,39.5 49.5,39.5C 49.2852,37.8212 49.9519,36.8212 51.5,36.5 Z"/></g>
<g><path style="opacity:1" fill="#2b2b35" d="M 189.5,40.5 C 188.065,38.0285 188.899,36.3618 192,35.5C 192.495,37.4727 192.662,39.4727 192.5,41.5C 191.209,41.7373 190.209,41.404 189.5,40.5 Z"/></g>
<g><path style="opacity:1" fill="#2f2f39" d="M 196.5,35.5 C 197.461,37.2646 197.795,39.2646 197.5,41.5C 194.001,41.741 193.668,40.9076 196.5,39C 193.875,37.6072 193.875,36.4405 196.5,35.5 Z"/></g>
<g><path style="opacity:1" fill="#252530" d="M 158.5,35.5 C 159.741,37.9312 160.908,37.9312 162,35.5C 162.667,37.5 162.667,39.5 162,41.5C 161,37.5 160,37.5 159,41.5C 158.505,39.5273 158.338,37.5273 158.5,35.5 Z"/></g>
<g><path style="opacity:1" fill="#525262" d="M 164.5,36.5 C 167.956,37.5362 168.29,39.2029 165.5,41.5C 163.296,40.218 162.962,38.5514 164.5,36.5 Z"/></g>
<g><path style="opacity:1" fill="#1e1f26" d="M 173.5,37.5 C 174.189,36.2264 175.023,36.2264 176,37.5C 176.667,38.5 176.667,39.5 176,40.5C 175.623,39.0577 174.79,38.0577 173.5,37.5 Z"/></g>
<g><path style="opacity:1" fill="#54545e" d="M 271.5,35.5 C 272.268,36.2625 272.768,37.2625 273,38.5C 276.047,35.6901 277.38,36.3568 277,40.5C 275.286,41.9255 273.953,41.5922 273,39.5C 272.667,40.1667 272.333,40.8333 272,41.5C 271.505,39.5273 271.338,37.5273 271.5,35.5 Z"/></g>
<g><path style="opacity:1" fill="#24242e" d="M 292.5,35.5 C 293.461,37.2646 293.795,39.2646 293.5,41.5C 292.167,41.5 290.833,41.5 289.5,41.5C 289.331,36.9593 289.998,36.626 291.5,40.5C 291.833,40.1667 292.167,39.8333 292.5,39.5C 291.637,38.2736 291.637,36.9403 292.5,35.5 Z"/></g>
<g><path style="opacity:1" fill="#565660" d="M 173.5,37.5 C 173.539,39.3588 172.706,40.6921 171,41.5C 170.333,39.5 170.333,37.5 171,35.5C 171.075,37.935 171.908,38.6016 173.5,37.5 Z"/></g>
<g><path style="opacity:1" fill="#585864" d="M 179.5,35.5 C 181.708,36.023 183.208,37.3563 184,39.5C 184.483,38.552 184.649,37.552 184.5,36.5C 185.5,36.5 186.5,36.5 187.5,36.5C 187.5,38.1667 187.5,39.8333 187.5,41.5C 185.669,40.9478 184.003,40.9478 182.5,41.5C 181.376,36.2792 180.542,36.2792 180,41.5C 179.505,39.5273 179.338,37.5273 179.5,35.5 Z"/></g>
<g><path style="opacity:1" fill="#bfbece" d="M 189.5,40.5 C 189.639,38.663 190.306,38.3296 191.5,39.5C 191.043,40.2975 190.376,40.6309 189.5,40.5 Z"/></g>
<g><path style="opacity:1" fill="#35363d" d="M 258.5,35.5 C 259.735,35.7214 260.735,36.3881 261.5,37.5C 262.192,36.9747 262.692,36.3081 263,35.5C 263.667,37.5 263.667,39.5 263,41.5C 262.051,37.6221 260.885,37.6221 259.5,41.5C 258.534,39.604 258.201,37.604 258.5,35.5 Z"/></g>
<g><path style="opacity:1" fill="#777783" d="M 268.5,35.5 C 270.308,36.9179 270.975,38.9179 270.5,41.5C 268.533,41.7394 266.699,41.4061 265,40.5C 264.171,37.3255 265.171,36.3255 268,37.5C 268.464,36.9056 268.631,36.2389 268.5,35.5 Z"/></g>
<g><path style="opacity:1" fill="#696973" d="M 280.5,35.5 C 281.807,36.1534 283.14,36.8201 284.5,37.5C 287.93,36.2578 289.263,37.5911 288.5,41.5C 286.5,41.5 284.5,41.5 282.5,41.5C 282.307,37.551 281.807,37.551 281,41.5C 280.505,39.5273 280.338,37.5273 280.5,35.5 Z"/></g>
<g><path style="opacity:1" fill="#3f3f49" d="M 297.5,35.5 C 298.461,37.2646 298.795,39.2646 298.5,41.5C 297.167,41.5 295.833,41.5 294.5,41.5C 294.331,36.9593 294.998,36.626 296.5,40.5C 296.833,40.1667 297.167,39.8333 297.5,39.5C 296.637,38.2736 296.637,36.9403 297.5,35.5 Z"/></g>
<g><path style="opacity:1" fill="#0f152d" d="M 23.5,36.5 C 28.9993,41.1765 28.3326,42.1765 21.5,39.5C 19.9996,39.4528 18.9996,40.1195 18.5,41.5C 20.8968,43.53 23.5634,45.1967 26.5,46.5C 28.0066,48.9686 27.6732,51.1353 25.5,53C 22.854,53.4974 20.1873,53.6641 17.5,53.5C 16.5244,52.1851 15.5244,50.8518 14.5,49.5C 15.1667,49.1667 15.8333,48.8333 16.5,48.5C 17.9863,49.8141 19.653,50.8141 21.5,51.5C 24.9748,50.7145 25.3081,49.2145 22.5,47C 15.1966,45.7089 13.8633,42.3756 18.5,37C 20.1341,36.5065 21.8008,36.3398 23.5,36.5 Z"/></g>
<g><path style="opacity:1" fill="#0c1026" d="M 68.5,53.5 C 66.8333,53.5 65.1667,53.5 63.5,53.5C 61.0777,52.3077 60.0777,50.3077 60.5,47.5C 60.5129,42.001 63.1795,40.1677 68.5,42C 70.229,43.7889 70.8957,45.9556 70.5,48.5C 68.076,48.1924 65.7427,48.5258 63.5,49.5C 65.0993,51.7288 67.0993,52.0622 69.5,50.5C 70.6653,51.8595 70.332,52.8595 68.5,53.5 Z"/></g>
<g><path style="opacity:1" fill="#b9beda" d="M 64.5,43.5 C 65.5,43.5 66.5,43.5 67.5,43.5C 67.5,44.5 67.5,45.5 67.5,46.5C 64.4331,46.8795 63.4331,45.8795 64.5,43.5 Z"/></g>
<g><path style="opacity:1" fill="#0d1222" d="M 49.5,41.5 C 50.5,41.5 51.5,41.5 52.5,41.5C 52.5,45.5 52.5,49.5 52.5,53.5C 51.5,53.5 50.5,53.5 49.5,53.5C 49.5,49.5 49.5,45.5 49.5,41.5 Z"/></g>
<g><path style="opacity:1" fill="#545c73" d="M 57.5,53.5 C 56.8333,30.8333 56.1667,30.8333 55.5,53.5C 54.5104,47.69 54.1771,41.69 54.5,35.5C 55.8333,35.5 57.1667,35.5 58.5,35.5C 58.8229,41.69 58.4896,47.69 57.5,53.5 Z"/></g>
<g><path style="opacity:1" fill="#000226" d="M 57.5,53.5 C 56.8333,53.5 56.1667,53.5 55.5,53.5C 56.1667,30.8333 56.8333,30.8333 57.5,53.5 Z"/></g>
<g><path style="opacity:1" fill="#050626" d="M 18.5,59.5 C 18.5,64.1667 18.5,68.8333 18.5,73.5C 20.8333,73.5 23.1667,73.5 25.5,73.5C 22.6627,75.4023 19.3293,76.069 15.5,75.5C 15.5,70.1667 15.5,64.8333 15.5,59.5C 16.5,59.5 17.5,59.5 18.5,59.5 Z"/></g>
<g><path style="opacity:1" fill="#131934" d="M 91.5,64.5 C 93.4302,68.3727 94.0969,72.706 93.5,77.5C 93.5858,78.4959 93.2524,79.3292 92.5,80C 89.2945,80.8902 86.2945,80.5569 83.5,79C 84,78.5 84.5,78 85,77.5C 86.6995,78.4061 88.5328,78.7394 90.5,78.5C 90.9354,75.3873 89.9354,74.7207 87.5,76.5C 84.2896,75.601 82.6229,73.4343 82.5,70C 83.1499,64.1691 86.1499,62.3358 91.5,64.5 Z"/></g>
<g><path style="opacity:1" fill="#151b35" d="M 70.5,63.5 C 72.1238,63.3601 73.2904,64.0267 74,65.5C 76.1203,62.9199 78.287,62.9199 80.5,65.5C 81.4259,69.0938 81.7592,72.7604 81.5,76.5C 80.1667,76.5 78.8333,76.5 77.5,76.5C 77.5,73.1667 77.5,69.8333 77.5,66.5C 76.209,66.2627 75.209,66.596 74.5,67.5C 73.5233,70.2869 73.19,73.2869 73.5,76.5C 72.5,76.5 71.5,76.5 70.5,76.5C 70.5,72.1667 70.5,67.8333 70.5,63.5 Z"/></g>
<g><path style="opacity:1" fill="#687085" d="M 91.5,64.5 C 92.209,63.596 93.209,63.2627 94.5,63.5C 94.8195,68.3633 94.4861,73.03 93.5,77.5C 94.0969,72.706 93.4302,68.3727 91.5,64.5 Z"/></g>
<g><path style="opacity:1" fill="#d1daea" d="M 86.5,66.5 C 87.8333,66.5 89.1667,66.5 90.5,66.5C 90.5,68.8333 90.5,71.1667 90.5,73.5C 89.1667,73.5 87.8333,73.5 86.5,73.5C 86.5,71.1667 86.5,68.8333 86.5,66.5 Z"/></g>
<g><path style="opacity:1" fill="#1b2039" d="M 30.5,76.5 C 30.1583,75.6618 29.4916,75.3284 28.5,75.5C 24.7174,68.4784 26.7174,64.6451 34.5,64C 39.3977,67.5216 39.731,71.5216 35.5,76C 33.8659,76.4935 32.1992,76.6602 30.5,76.5 Z"/></g>
<g><path style="opacity:1" fill="#545a75" d="M 25.5,73.5 C 26.3382,73.8417 26.6716,74.5084 26.5,75.5C 22.8333,76.8333 19.1667,76.8333 15.5,75.5C 19.3293,76.069 22.6627,75.4023 25.5,73.5 Z"/></g>
<g><path style="opacity:1" fill="#c6cdda" d="M 30.5,23.5 C 30.5,25.5 30.5,27.5 30.5,29.5C 32.099,29.7678 33.4324,29.4345 34.5,28.5C 34.8333,28.5 35.1667,28.5 35.5,28.5C 36.6009,29.5983 37.9343,29.765 39.5,29C 38.5,28.6667 37.5,28.3333 36.5,28C 38.1193,27.7645 39.1193,26.9311 39.5,25.5C 40.5,25.5 41.5,25.5 42.5,25.5C 43.1641,26.648 43.3308,27.9813 43,29.5C 43.7083,28.6195 44.5416,27.9528 45.5,27.5C 46.3543,25.965 46.3543,24.6316 45.5,23.5C 50.7822,20.9639 56.4488,20.1306 62.5,21C 63.3366,22.0113 63.67,23.1779 63.5,24.5C 66.8333,24.5 70.1667,24.5 73.5,24.5C 73.5432,28.8926 73.0432,29.2259 72,25.5C 71,29.5 70,29.5 69,25.5C 68.51,26.7932 68.3433,28.1266 68.5,29.5C 70.5,29.5 72.5,29.5 74.5,29.5C 74.366,27.7085 74.6993,26.0418 75.5,24.5C 76.2216,24.0825 76.7216,23.4158 77,22.5C 77.2784,23.4158 77.7784,24.0825 78.5,24.5C 78.5,25.8333 78.5,27.1667 78.5,28.5C 73.16,30.5899 67.66,32.2566 62,33.5C 58.6263,33.1547 55.793,31.8214 53.5,29.5C 52.914,29.7093 52.414,30.0426 52,30.5C 51.5045,32.4727 51.3379,34.4727 51.5,36.5C 49.9519,36.8212 49.2852,37.8212 49.5,39.5C 48.7784,39.0825 48.2784,38.4158 48,37.5C 47.6924,38.3081 47.1924,38.9747 46.5,39.5C 44.4248,38.2385 42.4248,38.4052 40.5,40C 42.0581,40.21 43.3915,40.71 44.5,41.5C 39.4224,41.7357 34.4224,41.7357 29.5,41.5C 29.5,45.5 29.5,49.5 29.5,53.5C 30.5,53.5 31.5,53.5 32.5,53.5C 32.5,50.1667 32.5,46.8333 32.5,43.5C 33.8221,43.33 34.9887,43.6634 36,44.5C 36.498,47.4816 36.6646,50.4816 36.5,53.5C 37.5,53.5 38.5,53.5 39.5,53.5C 39.3354,50.4816 39.502,47.4816 40,44.5C 41.0113,43.6634 42.1779,43.33 43.5,43.5C 43.5,46.8333 43.5,50.1667 43.5,53.5C 44.5,53.5 45.5,53.5 46.5,53.5C 46.5,50.1667 46.5,46.8333 46.5,43.5C 47.3213,46.6414 47.8213,49.9748 48,53.5C 48.1762,49.3123 48.6762,45.3123 49.5,41.5C 49.5,45.5 49.5,49.5 49.5,53.5C 50.5,53.5 51.5,53.5 52.5,53.5C 51.3588,54.339 50.0255,55.0057 48.5,55.5C 47.5713,56.6888 47.238,58.0222 47.5,59.5C 49.861,59.3259 52.1944,58.9926 54.5,58.5C 54.366,60.2915 54.6993,61.9582 55.5,63.5C 54.828,64.2674 53.9947,64.9341 53,65.5C 50.3577,74.6889 53.5244,78.0222 62.5,75.5C 62.5,69.8333 62.5,64.1667 62.5,58.5C 64.3725,57.1037 64.7058,55.437 63.5,53.5C 65.1667,53.5 66.8333,53.5 68.5,53.5C 69.2751,55.3881 69.2751,57.3881 68.5,59.5C 69.1667,60.8333 69.8333,62.1667 70.5,63.5C 70.5,67.8333 70.5,72.1667 70.5,76.5C 71.5,76.5 72.5,76.5 73.5,76.5C 73.19,73.2869 73.5233,70.2869 74.5,67.5C 74.3946,71.5483 74.7279,75.5483 75.5,79.5C 73.1727,79.7529 71.1727,79.0863 69.5,77.5C 67.6641,78.919 65.6641,80.0857 63.5,81C 65.1667,81.3333 66.8333,81.6667 68.5,82C 68.1667,82.3333 67.8333,82.6667 67.5,83C 60.8085,83.1691 54.1419,83.6691 47.5,84.5C 49.6309,85.1687 51.6309,85.8354 53.5,86.5C 52.0267,87.0715 50.36,87.0715 48.5,86.5C 48.5,90.5 48.5,94.5 48.5,98.5C 49.5,98.5 50.5,98.5 51.5,98.5C 51.3354,95.4816 51.502,92.4816 52,89.5C 54.1489,88.1602 55.3155,88.8269 55.5,91.5C 54.7321,92.2625 54.2321,93.2625 54,94.5C 53.6667,93.5 53.3333,92.5 53,91.5C 52.502,94.4816 52.3354,97.4816 52.5,100.5C 49.9759,100.429 47.9759,101.429 46.5,103.5C 46.123,102.159 45.123,100.826 43.5,99.5C 44.5,99.5 45.5,99.5 46.5,99.5C 46.8182,94.9677 46.4849,90.6344 45.5,86.5C 44.8333,86.5 44.1667,86.5 43.5,86.5C 42.5151,90.6344 42.1818,94.9677 42.5,99.5C 40.2625,100.537 37.9291,100.703 35.5,100C 37.3817,99.8019 39.0484,99.3019 40.5,98.5C 40.5,95.1667 40.5,91.8333 40.5,88.5C 41.7053,87.3281 41.7053,85.9948 40.5,84.5C 37.5623,83.5109 34.5623,82.8442 31.5,82.5C 31.3802,79.7952 32.3802,79.1285 34.5,80.5C 35.6721,80.0814 36.6721,79.4147 37.5,78.5C 35.0312,77.8319 32.6979,77.1653 30.5,76.5C 32.1992,76.6602 33.8659,76.4935 35.5,76C 39.731,71.5216 39.3977,67.5216 34.5,64C 26.7174,64.6451 24.7174,68.4784 28.5,75.5C 27.8333,75.5 27.1667,75.5 26.5,75.5C 26.6716,74.5084 26.3382,73.8417 25.5,73.5C 23.1667,73.5 20.8333,73.5 18.5,73.5C 18.5,68.8333 18.5,64.1667 18.5,59.5C 17.3146,58.1434 16.3146,56.6434 15.5,55C 15.8361,53.9701 16.5028,53.4701 17.5,53.5C 20.1873,53.6641 22.854,53.4974 25.5,53C 27.6732,51.1353 28.0066,48.9686 26.5,46.5C 23.5634,45.1967 20.8968,43.53 18.5,41.5C 18.9996,40.1195 19.9996,39.4528 21.5,39.5C 28.3326,42.1765 28.9993,41.1765 23.5,36.5C 25.1667,36.5 26.8333,36.5 28.5,36.5C 28.7852,34.712 28.4519,33.0453 27.5,31.5C 24.9135,30.7806 22.2469,30.7806 19.5,31.5C 17.6672,31.4146 16.3339,30.7479 15.5,29.5C 16.8802,28.8097 18.2135,28.4764 19.5,28.5C 19.0428,26.4024 18.0428,24.7358 16.5,23.5C 17.1894,22.2264 18.0228,22.2264 19,23.5C 19.4828,22.552 19.6495,21.552 19.5,20.5C 18.1779,20.33 17.0113,20.6634 16,21.5C 15.5,21 15,20.5 14.5,20C 18.8244,19.7052 22.9911,19.5385 27,19.5C 26.9,21.2914 28.0666,22.6247 30.5,23.5 Z"/></g>
<g><path style="opacity:1" fill="#cbd4df" d="M 30.5,66.5 C 35.3276,66.3852 36.6609,68.5519 34.5,73C 33.2068,73.49 31.8734,73.6567 30.5,73.5C 30.5,71.1667 30.5,68.8333 30.5,66.5 Z"/></g>
<g><path style="opacity:1" fill="#222742" d="M 65.5,63.5 C 66.5,63.5 67.5,63.5 68.5,63.5C 68.5,67.8333 68.5,72.1667 68.5,76.5C 67.5,76.5 66.5,76.5 65.5,76.5C 65.5,72.1667 65.5,67.8333 65.5,63.5 Z"/></g>
<g><path style="opacity:1" fill="#121931" d="M 43.5,63.5 C 45.677,63.5861 47.677,64.2528 49.5,65.5C 50.4892,69.1073 50.8226,72.774 50.5,76.5C 48.136,75.4706 45.8026,75.4706 43.5,76.5C 40.508,76.0201 39.3414,74.3534 40,71.5C 41.9251,69.7868 44.0918,68.4535 46.5,67.5C 44.5,67.1667 42.5,66.8333 40.5,66.5C 41.3398,65.265 42.3398,64.265 43.5,63.5 Z"/></g>
<g><path style="opacity:1" fill="#b7bfd2" d="M 43.5,70.5 C 44.5,70.5 45.5,70.5 46.5,70.5C 46.4261,74.5412 45.0928,75.2079 42.5,72.5C 42.8627,71.8165 43.1961,71.1499 43.5,70.5 Z"/></g>
<g><path style="opacity:1" fill="#0d1330" d="M 62.5,58.5 C 62.5,64.1667 62.5,69.8333 62.5,75.5C 53.5244,78.0222 50.3577,74.6889 53,65.5C 53.9947,64.9341 54.828,64.2674 55.5,63.5C 56.5832,63.5394 57.5832,63.8728 58.5,64.5C 59.4656,62.604 59.7989,60.604 59.5,58.5C 60.5,58.5 61.5,58.5 62.5,58.5 Z"/></g>
<g><path style="opacity:1" fill="#c7cfdf" d="M 55.5,66.5 C 56.8333,66.5 58.1667,66.5 59.5,66.5C 59.5,68.8333 59.5,71.1667 59.5,73.5C 54.8337,73.1732 53.5003,70.8399 55.5,66.5 Z"/></g>
<g><path style="opacity:1" fill="#11151e" d="M 68.5,59.5 C 67.2458,63.31 66.2458,63.31 65.5,59.5C 66.5,59.5 67.5,59.5 68.5,59.5 Z"/></g>
<g><path style="opacity:1" fill="#070724" d="M 44.5,41.5 C 45.5,41.8333 46.1667,42.5 46.5,43.5C 46.5,46.8333 46.5,50.1667 46.5,53.5C 45.5,53.5 44.5,53.5 43.5,53.5C 43.5,50.1667 43.5,46.8333 43.5,43.5C 42.1779,43.33 41.0113,43.6634 40,44.5C 39.502,47.4816 39.3354,50.4816 39.5,53.5C 38.5,53.5 37.5,53.5 36.5,53.5C 36.6646,50.4816 36.498,47.4816 36,44.5C 34.9887,43.6634 33.8221,43.33 32.5,43.5C 32.5,46.8333 32.5,50.1667 32.5,53.5C 31.5,53.5 30.5,53.5 29.5,53.5C 29.5,49.5 29.5,45.5 29.5,41.5C 34.4224,41.7357 39.4224,41.7357 44.5,41.5 Z"/></g>
<g><path style="opacity:1" fill="#4e4451" d="M 73.5,24.5 C 74.1667,24.5 74.8333,24.5 75.5,24.5C 74.6993,26.0418 74.366,27.7085 74.5,29.5C 72.5,29.5 70.5,29.5 68.5,29.5C 68.3433,28.1266 68.51,26.7932 69,25.5C 70,29.5 71,29.5 72,25.5C 73.0432,29.2259 73.5432,28.8926 73.5,24.5 Z"/></g>
<g><path style="opacity:1" fill="#564e5c" d="M 51.5,28.5 C 50.7261,29.1471 49.7261,29.4805 48.5,29.5C 46.9704,29.3601 45.9704,28.6935 45.5,27.5C 46.1174,27.6107 46.6174,27.944 47,28.5C 47.2022,26.7444 47.7022,25.0777 48.5,23.5C 49.0014,25.6551 50.0014,27.3218 51.5,28.5 Z"/></g>
<g><path style="opacity:1" fill="#392c3b" d="M 39.5,25.5 C 39.1193,26.9311 38.1193,27.7645 36.5,28C 37.5,28.3333 38.5,28.6667 39.5,29C 37.9343,29.765 36.6009,29.5983 35.5,28.5C 35.3505,27.448 35.5172,26.448 36,25.5C 37.1455,26.6843 38.3121,26.6843 39.5,25.5 Z"/></g>
<g><path style="opacity:1" fill="#291929" d="M 21.5,25.5 C 22.4687,24.6906 23.3021,23.6906 24,22.5C 24.4966,24.8098 24.6633,27.1432 24.5,29.5C 23.1667,29.5 21.8333,29.5 20.5,29.5C 20.2322,27.901 20.5655,26.5676 21.5,25.5 Z"/></g>
<g><path style="opacity:1" fill="#16101a" d="M 60.5,24.5 C 61.1614,25.7175 61.8281,27.0508 62.5,28.5C 64.0025,24.626 64.6691,24.9593 64.5,29.5C 63.1667,29.5 61.8333,29.5 60.5,29.5C 60.5,27.8333 60.5,26.1667 60.5,24.5 Z"/></g>
<g><path style="opacity:1" fill="#372835" d="M 34.5,28.5 C 33.4324,29.4345 32.099,29.7678 30.5,29.5C 30.5,27.5 30.5,25.5 30.5,23.5C 30.4346,23.0618 30.6012,22.7284 31,22.5C 31.7096,23.9733 32.8762,24.6399 34.5,24.5C 34.5,25.8333 34.5,27.1667 34.5,28.5 Z"/></g>
<g><path style="opacity:1" fill="#dbc8da" d="M 32.5,25.5 C 33.7759,26.3864 33.7759,27.3864 32.5,28.5C 31.4376,27.5754 31.4376,26.5754 32.5,25.5 Z"/></g>
<g><path style="opacity:1" fill="#322632" d="M 25.5,25.5 C 26.7942,29.2229 27.9609,29.2229 29,25.5C 29.49,26.7932 29.6567,28.1266 29.5,29.5C 28.1667,29.5 26.8333,29.5 25.5,29.5C 25.5,28.1667 25.5,26.8333 25.5,25.5 Z"/></g>
<g><path style="opacity:1" fill="#d2bfd2" d="M 21.5,25.5 C 23.4646,25.9483 23.7979,26.9483 22.5,28.5C 21.6143,27.675 21.281,26.675 21.5,25.5 Z"/></g>
<g><path style="opacity:1" fill="#372736" d="M 51.5,28.5 C 51.1928,26.5542 51.1928,24.8875 51.5,23.5C 52.7879,25.2985 52.7879,26.9652 51.5,28.5 Z"/></g>
<g><path style="opacity:1" fill="#423241" d="M 45.5,23.5 C 46.3543,24.6316 46.3543,25.965 45.5,27.5C 44.5416,27.9528 43.7083,28.6195 43,29.5C 43.3308,27.9813 43.1641,26.648 42.5,25.5C 42.369,24.7611 42.5357,24.0944 43,23.5C 43.9772,24.7736 44.8106,24.7736 45.5,23.5 Z"/></g>
<g><path style="opacity:1" fill="#726d7a" d="M 60.5,24.5 C 59.0014,25.6782 58.0014,27.3449 57.5,29.5C 56.7078,27.5352 56.0412,25.5352 55.5,23.5C 56.3333,23.1667 57.1667,22.8333 58,22.5C 59.3756,22.6842 60.2089,23.3509 60.5,24.5 Z"/></g>
<g><path style="opacity:1" fill="#181e37" d="M 43.5,81.5 C 44.9953,81.4148 45.9953,82.0815 46.5,83.5C 45.1667,84.8333 43.8333,84.8333 42.5,83.5C 42.8627,82.8165 43.1961,82.1499 43.5,81.5 Z"/></g>
<g><path style="opacity:1" fill="#9ca2ab" d="M 246.5,23.5 C 246.5,26.8333 246.5,30.1667 246.5,33.5C 245.748,42.7217 245.415,51.8884 245.5,61C 246.299,91.4884 246.799,121.988 247,152.5C 248.387,156.721 251.221,159.388 255.5,160.5C 273.996,161.332 292.662,161.832 311.5,162C 308.334,163.557 305,164.39 301.5,164.5C 284.83,164.667 268.163,164.5 251.5,164C 248.213,163.999 246.047,162.499 245,159.5C 244.796,146.807 244.296,134.141 243.5,121.5C 244.319,90.1897 244.819,58.8564 245,27.5C 245.21,25.9419 245.71,24.6085 246.5,23.5 Z"/></g>
<g><path style="opacity:1" fill="#161a2e" d="M 88.5,81.5 C 89.9953,81.4148 90.9953,82.0815 91.5,83.5C 90.1667,84.8333 88.8333,84.8333 87.5,83.5C 87.8627,82.8165 88.1961,82.1499 88.5,81.5 Z"/></g>
<g><path style="opacity:1" fill="#222c77" d="M 175.5,86.5 C 173.559,84.9894 173.059,82.9894 174,80.5C 174.505,82.5183 175.005,84.5183 175.5,86.5 Z"/></g>
<g><path style="opacity:1" fill="#2b3049" d="M 84.5,96.5 C 83.8337,92.9792 83.1671,89.3125 82.5,85.5C 81.5091,89.4454 81.1758,93.4454 81.5,97.5C 80.1429,92.9411 79.8096,88.2745 80.5,83.5C 81.8333,83.5 83.1667,83.5 84.5,83.5C 84.4802,85.143 85.1468,86.4763 86.5,87.5C 84.7397,90.2123 84.073,93.2123 84.5,96.5 Z"/></g>
<g><path style="opacity:1" fill="#424490" d="M 175.5,86.5 C 183.576,91.7152 189.076,89.7152 192,80.5C 191.459,88.8784 186.959,92.0451 178.5,90C 176.574,89.5776 175.574,88.4109 175.5,86.5 Z"/></g>
<g><path style="opacity:1" fill="#a4acb5" d="M 146.5,19.5 C 146.541,31.0098 146.208,42.5098 145.5,54C 145.944,88.2217 146.777,122.388 148,156.5C 149.319,158.487 151.152,159.654 153.5,160C 172.83,160.5 192.164,160.667 211.5,160.5C 210.517,162.291 209.184,163.791 207.5,165C 187.833,165.667 168.167,165.667 148.5,165C 146.564,164.187 144.564,163.687 142.5,163.5C 141.14,160.38 140.307,157.047 140,153.5C 139.167,111.496 139.333,69.496 140.5,27.5C 142.521,24.7653 144.521,22.0986 146.5,19.5 Z"/></g>
<g><path style="opacity:1" fill="#0f1431" d="M 40.5,88.5 C 40.5,91.8333 40.5,95.1667 40.5,98.5C 39.5,98.5 38.5,98.5 37.5,98.5C 37.6646,95.4816 37.498,92.4816 37,89.5C 35.8869,88.2889 34.7202,88.2889 33.5,89.5C 32.5159,92.4281 32.1826,95.4281 32.5,98.5C 30.1667,98.5 27.8333,98.5 25.5,98.5C 25.5,97.5 25.5,96.5 25.5,95.5C 21.3899,95.3899 17.7233,96.3899 14.5,98.5C 16.5628,93.3104 18.2295,87.977 19.5,82.5C 20.9778,82.238 22.3112,82.5713 23.5,83.5C 25.4313,88.1271 27.2647,92.7938 29,97.5C 29.4986,93.8484 29.6653,90.1817 29.5,86.5C 31.864,87.5294 34.1974,87.5294 36.5,86.5C 38.1705,86.6682 39.5039,87.3349 40.5,88.5 Z"/></g>
<g><path style="opacity:1" fill="#8389a0" d="M 65.5,87.5 C 66.8333,87.5 68.1667,87.5 69.5,87.5C 68.3398,89.2027 69.0065,89.8693 71.5,89.5C 69.7697,90.9118 68.2697,90.5785 67,88.5C 66.5014,92.1516 66.3347,95.8183 66.5,99.5C 64.901,99.7678 63.5676,99.4345 62.5,98.5C 63.5,98.5 64.5,98.5 65.5,98.5C 65.5,94.8333 65.5,91.1667 65.5,87.5 Z"/></g>
<g><path style="opacity:1" fill="#080b27" d="M 95.5,86.5 C 103.812,86.6192 106.146,90.4526 102.5,98C 96.6679,100.039 93.3346,98.0386 92.5,92C 93.1242,89.9149 94.1242,88.0816 95.5,86.5 Z"/></g>
<g><path style="opacity:1" fill="#646a83" d="M 106.5,86.5 C 106.176,90.5546 106.509,94.5546 107.5,98.5C 108.168,95.6944 108.834,93.0277 109.5,90.5C 109.5,93.5 109.5,96.5 109.5,99.5C 108.167,99.5 106.833,99.5 105.5,99.5C 105.182,94.9677 105.515,90.6344 106.5,86.5 Z"/></g>
<g><path style="opacity:1" fill="#c9d0e7" d="M 21.5,87.5 C 22.9313,88.7804 23.5979,90.4471 23.5,92.5C 19.2468,92.8801 18.5801,91.2134 21.5,87.5 Z"/></g>
<g><path style="opacity:1" fill="#6c7588" d="M 43.5,86.5 C 44.1667,102.5 44.8333,102.5 45.5,86.5C 46.4849,90.6344 46.8182,94.9677 46.5,99.5C 45.5,99.5 44.5,99.5 43.5,99.5C 43.1667,99.5 42.8333,99.5 42.5,99.5C 42.1818,94.9677 42.5151,90.6344 43.5,86.5 Z"/></g>
<g><path style="opacity:1" fill="#010226" d="M 43.5,86.5 C 44.1667,86.5 44.8333,86.5 45.5,86.5C 44.8333,102.5 44.1667,102.5 43.5,86.5 Z"/></g>
<g><path style="opacity:1" fill="#0c112c" d="M 53.5,86.5 C 57.5028,86.832 61.5028,87.1653 65.5,87.5C 65.5,91.1667 65.5,94.8333 65.5,98.5C 64.5,98.5 63.5,98.5 62.5,98.5C 62.5,95.1667 62.5,91.8333 62.5,88.5C 61.1779,88.33 60.0113,88.6634 59,89.5C 58.502,92.4816 58.3354,95.4816 58.5,98.5C 57.5,98.5 56.5,98.5 55.5,98.5C 55.5,96.1667 55.5,93.8333 55.5,91.5C 55.3155,88.8269 54.1489,88.1602 52,89.5C 51.502,92.4816 51.3354,95.4816 51.5,98.5C 50.5,98.5 49.5,98.5 48.5,98.5C 48.5,94.5 48.5,90.5 48.5,86.5C 50.36,87.0715 52.0267,87.0715 53.5,86.5 Z"/></g>
<g><path style="opacity:1" fill="#040428" d="M 84.5,96.5 C 87.1519,97.2937 86.9852,97.9604 84,98.5C 82.9302,98.472 82.0968,98.1386 81.5,97.5C 81.1758,93.4454 81.5091,89.4454 82.5,85.5C 83.1671,89.3125 83.8337,92.9792 84.5,96.5 Z"/></g>
<g><path style="opacity:1" fill="#0c142f" d="M 87.5,86.5 C 88.5,86.5 89.5,86.5 90.5,86.5C 90.5,90.5 90.5,94.5 90.5,98.5C 89.5,98.5 88.5,98.5 87.5,98.5C 87.5,94.5 87.5,90.5 87.5,86.5 Z"/></g>
<g><path style="opacity:1" fill="#bdc5d5" d="M 97.5,88.5 C 101.146,89.4615 102.313,91.7949 101,95.5C 98.1731,96.9986 96.3397,96.1653 95.5,93C 95.5186,91.167 96.1852,89.667 97.5,88.5 Z"/></g>
<g><path style="opacity:1" fill="#161a2f" d="M 71.5,89.5 C 69.0065,89.8693 68.3398,89.2027 69.5,87.5C 72.0024,86.2215 74.5024,86.2215 77,87.5C 78.3368,91.0257 78.8368,94.6924 78.5,98.5C 75.2635,98.3426 71.9301,98.0093 68.5,97.5C 67.5721,96.2322 67.4054,94.8989 68,93.5C 69.897,91.9837 72.0637,91.317 74.5,91.5C 74.5,90.5 74.5,89.5 74.5,88.5C 73.209,88.2627 72.209,88.596 71.5,89.5 Z"/></g>
<g><path style="opacity:1" fill="#d2d9e7" d="M 71.5,93.5 C 72.5,93.5 73.5,93.5 74.5,93.5C 74.5,94.5 74.5,95.5 74.5,96.5C 71.5065,96.8543 70.5065,95.8543 71.5,93.5 Z"/></g>
<g><path style="opacity:1" fill="#a7afb8" d="M 246.5,23.5 C 245.71,24.6085 245.21,25.9419 245,27.5C 244.819,58.8564 244.319,90.1897 243.5,121.5C 244.296,134.141 244.796,146.807 245,159.5C 246.047,162.499 248.213,163.999 251.5,164C 268.163,164.5 284.83,164.667 301.5,164.5C 284.672,165.662 267.672,165.828 250.5,165C 247.178,164.941 244.344,163.774 242,161.5C 240.355,119.213 240.022,76.8795 241,34.5C 240.735,29.7909 242.235,25.7909 245.5,22.5C 246.107,22.6236 246.44,22.9569 246.5,23.5 Z"/></g>
<g><path style="opacity:1" fill="#060823" d="M 106.5,86.5 C 109.463,86.7227 112.463,87.056 115.5,87.5C 116.426,91.0938 116.759,94.7604 116.5,98.5C 115.5,98.5 114.5,98.5 113.5,98.5C 113.665,95.4816 113.498,92.4816 113,89.5C 111.421,88.2004 110.255,88.5337 109.5,90.5C 108.834,93.0277 108.168,95.6944 107.5,98.5C 106.509,94.5546 106.176,90.5546 106.5,86.5 Z"/></g>
<g><path style="opacity:1" fill="#646b76" d="M 17.5,113.5 C 19.1992,113.34 20.8659,113.506 22.5,114C 21.5838,114.374 20.7504,114.874 20,115.5C 19.8078,117.577 19.3078,119.577 18.5,121.5C 17.52,118.914 17.1866,116.247 17.5,113.5 Z"/></g>
<g><path style="opacity:1" fill="#3f4651" d="M 62.5,113.5 C 66.1378,112.737 67.6378,114.07 67,117.5C 66.5756,115.385 65.4089,114.552 63.5,115C 62.7511,116.734 62.2511,118.567 62,120.5C 61.2967,118.071 61.4634,115.738 62.5,113.5 Z"/></g>
<g><path style="opacity:1" fill="#454b56" d="M 76.5,117.5 C 75.5416,117.953 74.7083,118.619 74,119.5C 73.6517,116.903 74.6517,114.903 77,113.5C 77.195,114.819 77.0283,116.153 76.5,117.5 Z"/></g>
<g><path style="opacity:1" fill="#7c838e" d="M 14.5,113.5 C 15.7479,114.334 16.4146,115.667 16.5,117.5C 16.1667,118.833 15.8333,120.167 15.5,121.5C 14.52,118.914 14.1866,116.247 14.5,113.5 Z"/></g>
<g><path style="opacity:1" fill="#656e7a" d="M 87.5,113.5 C 85.9582,112.699 84.2915,112.366 82.5,112.5C 82.5,115.167 82.5,117.833 82.5,120.5C 83.8333,120.5 85.1667,120.5 86.5,120.5C 84.7354,121.461 82.7354,121.795 80.5,121.5C 80.335,118.15 80.5017,114.817 81,111.5C 83.941,109.94 86.1077,110.607 87.5,113.5 Z"/></g>
<g><path style="opacity:1" fill="#ccd5e3" d="M 87.5,113.5 C 87.552,115.903 87.2186,118.236 86.5,120.5C 85.1667,120.5 83.8333,120.5 82.5,120.5C 82.5,117.833 82.5,115.167 82.5,112.5C 84.2915,112.366 85.9582,112.699 87.5,113.5 Z"/></g>
<g><path style="opacity:1" fill="#242b38" d="M 87.5,113.5 C 88.1471,114.274 88.4805,115.274 88.5,116.5C 88.6598,118.355 87.9931,119.688 86.5,120.5C 87.2186,118.236 87.552,115.903 87.5,113.5 Z"/></g>
<g><path style="opacity:1" fill="#292f38" d="M 29.5,116.5 C 31.6626,117.362 33.6626,117.696 35.5,117.5C 34.5,117.833 33.5,118.167 32.5,118.5C 30.9704,118.36 29.9704,117.693 29.5,116.5 Z"/></g>
<g><path style="opacity:1" fill="#59616d" d="M 58.5,114.5 C 61.6748,119.775 60.0081,122.109 53.5,121.5C 53.1774,117.774 53.5108,114.107 54.5,110.5C 55.3857,111.325 55.719,112.325 55.5,113.5C 56.791,113.263 57.791,113.596 58.5,114.5 Z"/></g>
<g><path style="opacity:1" fill="#ccd4e0" d="M 58.5,114.5 C 58.5,116.5 58.5,118.5 58.5,120.5C 54.65,120.299 53.65,118.466 55.5,115C 56.448,114.517 57.448,114.351 58.5,114.5 Z"/></g>
<g><path style="opacity:1" fill="#404651" d="M 76.5,117.5 C 78.0847,118.002 78.5847,119.002 78,120.5C 76.9614,119.756 76.4614,118.756 76.5,117.5 Z"/></g>
<g><path style="opacity:1" fill="#464d58" d="M 42.5,110.5 C 43.4816,113.962 43.815,117.629 43.5,121.5C 38.3248,122.493 36.4914,120.493 38,115.5C 37.734,118.901 39.234,120.567 42.5,120.5C 42.5,118.5 42.5,116.5 42.5,114.5C 38.5,114.167 38.5,113.833 42.5,113.5C 42.5,112.5 42.5,111.5 42.5,110.5 Z"/></g>
<g><path style="opacity:1" fill="#525866" d="M 45.5,111.5 C 46.8304,112.832 48.4971,113.665 50.5,114C 46.9603,114.329 45.7936,116.162 47,119.5C 48.6524,120.217 50.1524,120.55 51.5,120.5C 49.6471,121.76 47.8138,121.76 46,120.5C 45.502,117.518 45.3354,114.518 45.5,111.5 Z"/></g>
<g><path style="opacity:1" fill="#f0d2c4" d="M 281.5,138.5 C 286.167,138.5 290.833,138.5 295.5,138.5C 295.5,140.167 295.5,141.833 295.5,143.5C 290.833,143.5 286.167,143.5 281.5,143.5C 281.5,141.833 281.5,140.167 281.5,138.5 Z"/></g>
<g><path style="opacity:1" fill="#b98c63" d="M 169.5,137.5 C 172.998,137.478 174.331,138.978 173.5,142C 172.207,142.49 170.873,142.657 169.5,142.5C 169.5,140.833 169.5,139.167 169.5,137.5 Z"/></g>
<g><path style="opacity:1" fill="#ad7851" d="M 270.5,139.5 C 272.288,139.215 273.955,139.548 275.5,140.5C 274.332,142.217 272.665,142.884 270.5,142.5C 270.5,141.5 270.5,140.5 270.5,139.5 Z"/></g>
<g><path style="opacity:1" fill="#e5b097" d="M 181.5,139.5 C 185.678,139.956 190.011,139.956 194.5,139.5C 194.5,140.5 194.5,141.5 194.5,142.5C 191.15,142.665 187.817,142.498 184.5,142C 182.881,141.764 181.881,140.931 181.5,139.5 Z"/></g>
<g><path style="opacity:1" fill="#3b3d48" d="M 276.5,139.5 C 277.267,140.172 277.934,141.005 278.5,142C 276.939,142.188 276.272,141.355 276.5,139.5 Z"/></g>
<g><path style="opacity:1" fill="#7d2f67" d="M 23.5,147.5 C 24.8589,148.007 25.8589,149.007 26.5,150.5C 27.451,149.674 28.451,149.508 29.5,150C 28.2949,151.376 26.9616,152.542 25.5,153.5C 23.6921,152.082 23.0254,150.082 23.5,147.5 Z"/></g>
<g><path style="opacity:1" fill="#c29bc2" d="M 23.5,147.5 C 23.0254,150.082 23.6921,152.082 25.5,153.5C 31.1667,154.167 36.8333,154.833 42.5,155.5C 36.1579,155.334 29.8246,155.5 23.5,156C 22.5236,162.076 22.1903,168.242 22.5,174.5C 21.1735,167.765 21.1735,160.932 22.5,154C 20.9343,153.235 19.6009,153.402 18.5,154.5C 17.609,153.89 16.609,153.557 15.5,153.5C 16.8062,152.533 17.4729,151.199 17.5,149.5C 19.7028,149.396 21.7028,148.73 23.5,147.5 Z"/></g>
<g><path style="opacity:1" fill="#782c5d" d="M 15.5,153.5 C 16.609,153.557 17.609,153.89 18.5,154.5C 19.2341,155.708 19.5674,157.041 19.5,158.5C 17.712,158.785 16.0453,158.452 14.5,157.5C 15.2458,156.264 15.5792,154.93 15.5,153.5 Z"/></g>
<g><path style="opacity:1" fill="#d2b1d8" d="M 42.5,155.5 C 43.4959,155.414 44.3292,155.748 45,156.5C 45.6667,162.833 45.6667,169.167 45,175.5C 44.5,176 44,176.5 43.5,177C 36.6536,177.821 29.987,177.654 23.5,176.5C 30.0898,176.811 36.5898,176.478 43,175.5C 43.7925,168.753 43.6258,162.086 42.5,155.5 Z"/></g>
<g><path style="opacity:1" fill="#60505f" d="M 71.5,161.5 C 73.7913,160.853 76.458,160.686 79.5,161C 80.3802,162.356 80.7135,163.856 80.5,165.5C 79.1667,165.5 77.8333,165.5 76.5,165.5C 76.3178,160.206 75.8178,160.206 75,165.5C 74.3333,164.167 73.6667,164.167 73,165.5C 72.79,163.942 72.29,162.609 71.5,161.5 Z"/></g>
<g><path style="opacity:1" fill="#2c1b2a" d="M 66.5,160.5 C 69.5983,160.413 69.9316,160.913 67.5,162C 68.1667,162.333 68.8333,162.667 69.5,163C 68.3333,163.5 67.5,164.333 67,165.5C 66.5065,163.866 66.3398,162.199 66.5,160.5 Z"/></g>
<g><path style="opacity:1" fill="#4e3b4b" d="M 50.5,164.5 C 47.0237,165.338 46.5237,164.004 49,160.5C 50.1882,161.563 50.6882,162.897 50.5,164.5 Z"/></g>
<g><path style="opacity:1" fill="#726373" d="M 50.5,164.5 C 52.1765,163.817 52.8432,162.483 52.5,160.5C 54.1238,160.36 55.2904,161.027 56,162.5C 56.7387,161.426 57.7387,160.759 59,160.5C 60.3333,161.833 61.6667,161.833 63,160.5C 65.5897,161.687 66.0897,163.52 64.5,166C 62.892,166.658 61.7253,166.158 61,164.5C 59.4374,167.044 57.9374,167.044 56.5,164.5C 55.914,164.709 55.414,165.043 55,165.5C 54.1822,160.206 53.6822,160.206 53.5,165.5C 52.209,165.737 51.209,165.404 50.5,164.5 Z"/></g>
<g><path style="opacity:1" fill="#b3bcc4" d="M 246.5,33.5 C 246.5,30.1667 246.5,26.8333 246.5,23.5C 246.44,22.9569 246.107,22.6236 245.5,22.5C 242.235,25.7909 240.735,29.7909 241,34.5C 240.022,76.8795 240.355,119.213 242,161.5C 244.344,163.774 247.178,164.941 250.5,165C 267.672,165.828 284.672,165.662 301.5,164.5C 305,164.39 308.334,163.557 311.5,162C 292.662,161.832 273.996,161.332 255.5,160.5C 274.833,160.5 294.167,160.5 313.5,160.5C 312.021,165.965 308.354,168.965 302.5,169.5C 300.956,169.21 299.623,168.544 298.5,167.5C 297.808,168.025 297.308,168.692 297,169.5C 295.991,168.342 294.658,167.675 293,167.5C 290,168.167 287,168.833 284,169.5C 282.027,169.691 280.527,169.024 279.5,167.5C 274.88,166.507 270.214,166.173 265.5,166.5C 265.719,167.675 265.386,168.675 264.5,169.5C 258.713,167.768 252.713,166.935 246.5,167C 243.088,165.346 239.754,163.512 236.5,161.5C 235.833,162.167 235.167,162.833 234.5,163.5C 232.977,116.476 233.311,69.4756 235.5,22.5C 238.55,23.0768 240.55,21.9101 241.5,19C 243.615,18.4427 245.615,17.6094 247.5,16.5C 247.833,17 248.167,17.5 248.5,18C 247.902,23.3128 247.235,28.4794 246.5,33.5 Z"/></g>
<g><path style="opacity:1" fill="#460334" d="M 42.5,155.5 C 43.6258,162.086 43.7925,168.753 43,175.5C 36.5898,176.478 30.0898,176.811 23.5,176.5C 23.1667,175.833 22.8333,175.167 22.5,174.5C 22.1903,168.242 22.5236,162.076 23.5,156C 29.8246,155.5 36.1579,155.334 42.5,155.5 Z"/></g>
<g><path style="opacity:1" fill="#d860d2" d="M 33.5,168.5 C 33.3243,164.808 34.9909,162.808 38.5,162.5C 38.5,161.5 38.5,160.5 38.5,159.5C 39.5,159.5 40.5,159.5 41.5,159.5C 41.665,162.85 41.4983,166.183 41,169.5C 38.2565,170.917 35.7565,170.584 33.5,168.5 Z"/></g>
<g><path style="opacity:1" fill="#55004e" d="M 36.5,164.5 C 37.5862,164.62 38.2528,165.287 38.5,166.5C 38.1667,167.167 37.8333,167.833 37.5,168.5C 36.5713,167.311 36.238,165.978 36.5,164.5 Z"/></g>
<g><path style="opacity:1" fill="#dd61d5" d="M 33.5,168.5 C 33.5299,169.497 33.0299,170.164 32,170.5C 30.779,169.728 29.779,168.728 29,167.5C 28.3308,170.267 27.1641,170.767 25.5,169C 25.9504,167.715 26.6171,166.548 27.5,165.5C 24.3948,160.953 25.0615,159.953 29.5,162.5C 30.6199,161.167 31.9532,160.667 33.5,161C 30.9979,163.701 30.9979,166.201 33.5,168.5 Z"/></g>
<g><path style="opacity:1" fill="#a1a1ac" d="M 78.5,169.5 C 84.1826,171.354 89.8493,172.354 95.5,172.5C 97.1347,174.646 96.8013,175.813 94.5,176C 93.8095,174.933 93.3095,173.766 93,172.5C 92.7508,173.624 92.2508,174.624 91.5,175.5C 90.5745,174.359 89.7412,174.359 89,175.5C 88.4309,171.639 87.5976,171.639 86.5,175.5C 85.2011,174.91 84.3678,173.91 84,172.5C 83.7167,175.742 82.8834,176.076 81.5,173.5C 79.5401,174.723 77.7068,176.056 76,177.5C 74.4424,175.231 74.2757,172.898 75.5,170.5C 77.1038,174.29 78.1038,173.956 78.5,169.5 Z"/></g>
<g><path style="opacity:1" fill="#ecb764" d="M 273.5,174.5 C 269.989,174.163 266.656,174.163 263.5,174.5C 263.5,173.5 263.5,172.5 263.5,171.5C 264.209,170.596 265.209,170.263 266.5,170.5C 266.5,169.5 266.5,168.5 266.5,167.5C 267.675,167.281 268.675,167.614 269.5,168.5C 271.503,170.133 272.836,172.133 273.5,174.5 Z"/></g>
<g><path style="opacity:1" fill="#8c562c" d="M 273.5,174.5 C 274.833,175.833 274.833,177.167 273.5,178.5C 273.5,177.5 273.5,176.5 273.5,175.5C 271.738,175.357 270.071,175.691 268.5,176.5C 266.664,175.972 264.997,175.306 263.5,174.5C 266.656,174.163 269.989,174.163 273.5,174.5 Z"/></g>
<g><path style="opacity:1" fill="#ce9e83" d="M 263.5,171.5 C 263.5,172.5 263.5,173.5 263.5,174.5C 264.997,175.306 266.664,175.972 268.5,176.5C 270.071,175.691 271.738,175.357 273.5,175.5C 273.5,176.5 273.5,177.5 273.5,178.5C 270.223,178.784 267.057,178.451 264,177.5C 263.536,178.094 263.369,178.761 263.5,179.5C 260.833,176.833 260.833,174.167 263.5,171.5 Z"/></g>
<g><path style="opacity:1" fill="#1d2432" d="M 278.5,172.5 C 280.036,174.025 281.036,176.025 281.5,178.5C 282.466,176.604 282.799,174.604 282.5,172.5C 284.722,172.178 286.556,172.845 288,174.5C 288.308,173.692 288.808,173.025 289.5,172.5C 289.614,174.938 289.614,177.271 289.5,179.5C 288.28,178.289 287.113,178.289 286,179.5C 286.984,177.402 286.651,175.402 285,173.5C 285.612,178.083 283.779,179.916 279.5,179C 278.577,176.959 278.244,174.792 278.5,172.5 Z"/></g>
<g><path style="opacity:1" fill="#e59975" d="M 293.5,172.5 C 296.167,172.5 298.833,172.5 301.5,172.5C 301.5,174.167 301.5,175.833 301.5,177.5C 303.916,177.039 305.75,175.706 307,173.5C 308.261,173.759 309.261,174.426 310,175.5C 310.689,174.643 311.522,173.977 312.5,173.5C 314.558,174.15 316.724,174.15 319,173.5C 320.167,173.667 321.333,173.833 322.5,174C 322.146,175.626 322.146,177.459 322.5,179.5C 314.552,179.016 306.552,179.016 298.5,179.5C 298.178,176.188 296.845,176.188 294.5,179.5C 293.526,177.257 293.192,174.924 293.5,172.5 Z"/></g>
<g><path style="opacity:1" fill="#af584b" d="M 273.5,178.5 C 272.209,180.315 270.376,181.315 268,181.5C 265.992,181.693 264.492,181.026 263.5,179.5C 263.369,178.761 263.536,178.094 264,177.5C 267.057,178.451 270.223,178.784 273.5,178.5 Z"/></g>
</svg>
