<?xml version="1.0" encoding="UTF-8"?>
<!DOCTYPE svg PUBLIC "-//W3C//DTD SVG 1.1//EN" "http://www.w3.org/Graphics/SVG/1.1/DTD/svg11.dtd">
<svg xmlns="http://www.w3.org/2000/svg" version="1.1" width="336px" height="188px" style="shape-rendering:geometricPrecision; text-rendering:geometricPrecision; image-rendering:optimizeQuality; fill-rule:evenodd; clip-rule:evenodd" xmlns:xlink="http://www.w3.org/1999/xlink">
<g><path style="opacity:1" fill="#c8d2da" d="M 319.5,-0.5 C 324.833,-0.5 330.167,-0.5 335.5,-0.5C 335.5,61.5 335.5,123.5 335.5,185.5C 330.641,184.012 325.641,183.345 320.5,183.5C 320.5,175.5 320.5,167.5 320.5,159.5C 321.5,159.5 322.5,159.5 323.5,159.5C 323.833,144.818 323.499,130.152 322.5,115.5C 320.974,112.346 320.307,109.013 320.5,105.5C 322.167,105.5 323.833,105.5 325.5,105.5C 324.254,93.928 323.588,82.2613 323.5,70.5C 323.588,58.7387 324.254,47.072 325.5,35.5C 323.833,35.5 322.167,35.5 320.5,35.5C 320.035,27.267 319.368,19.1003 318.5,11C 318.957,10.586 319.291,10.086 319.5,9.5C 318.5,7.83333 317.167,6.5 315.5,5.5C 316.833,4.83333 318.167,4.16667 319.5,3.5C 318.975,2.80762 318.308,2.30762 317.5,2C 318.381,1.2917 319.047,0.458367 319.5,-0.5 Z"/></g>
<g><path style="opacity:1" fill="#c4cbd3" d="M 113.5,-0.5 C 115.5,-0.5 117.5,-0.5 119.5,-0.5C 119.333,42.168 119.5,84.8346 120,127.5C 122.263,134.037 126.763,137.87 133.5,139C 155.5,139.667 177.5,139.667 199.5,139C 203.174,137.326 205.841,134.659 207.5,131C 185.503,130.5 163.503,130.333 141.5,130.5C 137.239,129.947 134.406,127.613 133,123.5C 132.752,86.8284 132.252,50.1617 131.5,13.5C 131.557,8.78462 131.89,4.11796 132.5,-0.5C 133.5,-0.5 134.5,-0.5 135.5,-0.5C 134.345,40.792 134.178,82.1253 135,123.5C 137.167,125 139.333,126.5 141.5,128C 162.337,128.829 183.004,128.663 203.5,127.5C 205.857,127.663 208.19,127.497 210.5,127C 211.849,126.228 212.682,125.061 213,123.5C 213.327,82.1625 213.827,40.8292 214.5,-0.5C 249.5,-0.5 284.5,-0.5 319.5,-0.5C 319.047,0.458367 318.381,1.2917 317.5,2C 318.308,2.30762 318.975,2.80762 319.5,3.5C 318.167,4.16667 316.833,4.83333 315.5,5.5C 317.167,6.5 318.5,7.83333 319.5,9.5C 319.291,10.086 318.957,10.586 318.5,11C 319.368,19.1003 320.035,27.267 320.5,35.5C 322.167,35.5 323.833,35.5 325.5,35.5C 324.254,47.072 323.588,58.7387 323.5,70.5C 323.588,82.2613 324.254,93.928 325.5,105.5C 323.833,105.5 322.167,105.5 320.5,105.5C 320.307,109.013 320.974,112.346 322.5,115.5C 323.499,130.152 323.833,144.818 323.5,159.5C 322.5,159.5 321.5,159.5 320.5,159.5C 320.5,167.5 320.5,175.5 320.5,183.5C 325.641,183.345 330.641,184.012 335.5,185.5C 335.5,186.167 335.5,186.833 335.5,187.5C 312.833,187.5 290.167,187.5 267.5,187.5C 264.054,186.313 260.387,185.646 256.5,185.5C 256.703,183.61 256.037,182.11 254.5,181C 244.178,180.209 233.845,179.709 223.5,179.5C 223.5,177.5 223.5,175.5 223.5,173.5C 218.612,174.384 216.112,172.384 216,167.5C 214.149,165.219 212.482,165.219 211,167.5C 209.961,166.756 209.461,165.756 209.5,164.5C 209.5,164.167 209.5,163.833 209.5,163.5C 211.591,163.318 213.591,163.652 215.5,164.5C 216.498,155.525 216.832,146.525 216.5,137.5C 215.5,137.5 214.5,137.5 213.5,137.5C 213.5,139.5 213.5,141.5 213.5,143.5C 211.508,143.328 209.842,143.995 208.5,145.5C 200.33,144.197 191.997,143.53 183.5,143.5C 166.581,144.35 149.748,144.35 133,143.5C 127.784,142.982 123.451,140.649 120,136.5C 118.817,137.731 117.651,137.731 116.5,136.5C 113.829,131.317 112.162,125.817 111.5,120C 112.683,84.0658 113.683,47.8991 114.5,11.5C 113.836,7.52405 113.503,3.52405 113.5,-0.5 Z"/></g>
<g><path style="opacity:1" fill="#a2aab3" d="M 236.5,15.5 C 236.682,29.7057 236.348,43.8723 235.5,58C 236.296,92.4904 236.796,126.99 237,161.5C 238.5,164.333 240.667,166.5 243.5,168C 264.831,168.5 286.164,168.667 307.5,168.5C 307.703,170.39 307.037,171.89 305.5,173C 300.677,173.081 296.01,173.915 291.5,175.5C 288.986,175.028 286.486,174.694 284,174.5C 282.715,174.95 281.548,175.617 280.5,176.5C 276.694,173.952 272.86,173.952 269,176.5C 268.667,177.5 268.333,178.5 268,179.5C 267.578,177.574 266.411,176.574 264.5,176.5C 264.167,175.833 263.833,175.167 263.5,174.5C 262.432,173.566 261.099,173.232 259.5,173.5C 252.492,173.666 245.492,173.5 238.5,173C 235.153,171.991 232.319,170.157 230,167.5C 229.333,119.167 229.333,70.8333 230,22.5C 231.163,20.7148 231.83,18.7148 232,16.5C 233.356,15.6198 234.856,15.2865 236.5,15.5 Z"/></g>
<g><path style="opacity:1" fill="#e0e5ea" d="M 251.5,3.5 C 250.391,4.28997 249.058,4.78997 247.5,5C 268.145,6.17297 288.812,6.83964 309.5,7C 309.833,7.33333 310.167,7.66667 310.5,8C 309.167,8.33333 307.833,8.66667 306.5,9C 308.058,9.21003 309.391,9.71003 310.5,10.5C 308.517,10.1568 307.183,10.8235 306.5,12.5C 304.7,11.3948 303.533,12.0614 303,14.5C 302.506,12.8659 302.34,11.1992 302.5,9.5C 306.339,9.38795 306.339,8.72128 302.5,7.5C 301.702,9.07774 301.202,10.7444 301,12.5C 299.667,13.1667 298.667,14.1667 298,15.5C 297.784,13.6161 297.117,11.9494 296,10.5C 286.723,13.7367 277.223,14.4034 267.5,12.5C 264.387,12.5623 261.554,13.2289 259,14.5C 258.027,12.6079 257.36,10.6079 257,8.5C 255.883,8.33494 254.716,8.0016 253.5,7.5C 253.654,10.7097 252.154,13.3764 249,15.5C 247.562,14.0997 246.729,12.433 246.5,10.5C 251.719,11.0934 252.386,10.0934 248.5,7.5C 244.902,7.93064 242.735,9.93064 242,13.5C 241.333,20.8333 241.333,28.1667 242,35.5C 242.944,36.263 243.444,37.263 243.5,38.5C 241.235,45.0224 239.902,51.5224 239.5,58C 240.323,92.1373 240.823,126.304 241,160.5C 242.514,162.766 244.681,163.932 247.5,164C 268.52,164.809 289.52,164.476 310.5,163C 312.155,159.838 314.488,159.005 317.5,160.5C 316.977,162.708 315.644,164.208 313.5,165C 290.833,165.667 268.167,165.667 245.5,165C 242.107,164.606 239.94,162.773 239,159.5C 238.011,108.8 238.511,58.1332 240.5,7.5C 241.338,7.15829 241.672,6.49162 241.5,5.5C 244.552,3.82167 247.885,3.155 251.5,3.5 Z"/></g>
<g><path style="opacity:1" fill="#b9c2cb" d="M 241.5,5.5 C 241.672,6.49162 241.338,7.15829 240.5,7.5C 237.863,9.48181 236.53,12.1485 236.5,15.5C 234.856,15.2865 233.356,15.6198 232,16.5C 231.83,18.7148 231.163,20.7148 230,22.5C 229.333,70.8333 229.333,119.167 230,167.5C 232.319,170.157 235.153,171.991 238.5,173C 245.492,173.5 252.492,173.666 259.5,173.5C 258.861,175.76 257.694,177.76 256,179.5C 247.606,178.084 239.106,176.584 230.5,175C 228.65,172.982 226.65,171.149 224.5,169.5C 223.628,164.805 222.628,160.139 221.5,155.5C 217.91,112.008 217.576,68.5082 220.5,25C 218.943,20.8019 219.276,16.8019 221.5,13C 225.663,11.29 229.663,9.45662 233.5,7.5C 233.471,4.22682 234.804,3.56016 237.5,5.5C 238.741,4.96276 239.908,4.2961 241,3.5C 242.684,3.68342 242.85,4.35009 241.5,5.5 Z"/></g>
<g><path style="opacity:1" fill="#eaecf0" d="M 251.5,3.5 C 270.503,3.33338 289.503,3.50005 308.5,4C 313.235,5.06805 316.402,7.90139 318,12.5C 318.828,61.904 318.661,111.237 317.5,160.5C 314.488,159.005 312.155,159.838 310.5,163C 289.52,164.476 268.52,164.809 247.5,164C 244.681,163.932 242.514,162.766 241,160.5C 240.823,126.304 240.323,92.1373 239.5,58C 239.902,51.5224 241.235,45.0224 243.5,38.5C 243.444,37.263 242.944,36.263 242,35.5C 241.333,28.1667 241.333,20.8333 242,13.5C 242.735,9.93064 244.902,7.93064 248.5,7.5C 252.386,10.0934 251.719,11.0934 246.5,10.5C 246.729,12.433 247.562,14.0997 249,15.5C 252.154,13.3764 253.654,10.7097 253.5,7.5C 254.716,8.0016 255.883,8.33494 257,8.5C 257.36,10.6079 258.027,12.6079 259,14.5C 261.554,13.2289 264.387,12.5623 267.5,12.5C 277.223,14.4034 286.723,13.7367 296,10.5C 297.117,11.9494 297.784,13.6161 298,15.5C 298.667,14.1667 299.667,13.1667 301,12.5C 301.202,10.7444 301.702,9.07774 302.5,7.5C 306.339,8.72128 306.339,9.38795 302.5,9.5C 302.34,11.1992 302.506,12.8659 303,14.5C 303.533,12.0614 304.7,11.3948 306.5,12.5C 308.483,12.8432 309.817,12.1765 310.5,10.5C 309.391,9.71003 308.058,9.21003 306.5,9C 307.833,8.66667 309.167,8.33333 310.5,8C 310.167,7.66667 309.833,7.33333 309.5,7C 288.812,6.83964 268.145,6.17297 247.5,5C 249.058,4.78997 250.391,4.28997 251.5,3.5 Z"/></g>
<g><path style="opacity:1" fill="#292a34" d="M 266.5,40.5 C 270.161,40.3501 271.161,41.8501 269.5,45C 267.934,45.765 266.601,45.5983 265.5,44.5C 265.263,43.209 265.596,42.209 266.5,41.5C 266.5,41.1667 266.5,40.8333 266.5,40.5 Z"/></g>
<g><path style="opacity:1" fill="#31303e" d="M 292.5,39.5 C 293.461,41.2646 293.795,43.2646 293.5,45.5C 291.052,45.9899 289.385,45.1566 288.5,43C 289.347,41.2294 290.68,40.0627 292.5,39.5 Z"/></g>
<g><path style="opacity:1" fill="#e1e1eb" d="M 290.5,41.5 C 292.76,42.2376 292.927,43.2376 291,44.5C 290.517,43.552 290.351,42.552 290.5,41.5 Z"/></g>
<g><path style="opacity:1" fill="#0e1015" d="M 273.5,39.5 C 274.708,40.2341 276.041,40.5674 277.5,40.5C 277.653,46.3239 276.987,46.6572 275.5,41.5C 274.719,42.7287 274.219,44.062 274,45.5C 273.505,43.5273 273.338,41.5273 273.5,39.5 Z"/></g>
<g><path style="opacity:1" fill="#e0e3ed" d="M 266.5,41.5 C 268.465,41.9483 268.798,42.9483 267.5,44.5C 266.614,43.675 266.281,42.675 266.5,41.5 Z"/></g>
<g><path style="opacity:1" fill="#363647" d="M 256.5,40.5 C 257.5,40.5 258.5,40.5 259.5,40.5C 259.64,42.1238 258.973,43.2904 257.5,44C 259.595,44.5556 259.762,45.0556 258,45.5C 255.389,44.5001 254.889,42.8334 256.5,40.5 Z"/></g>
<g><path style="opacity:1" fill="#14151c" d="M 284.5,41.5 C 285.469,40.6906 286.302,39.6906 287,38.5C 287.497,40.8098 287.663,43.1432 287.5,45.5C 286.167,45.5 284.833,45.5 283.5,45.5C 283.232,43.901 283.566,42.5676 284.5,41.5 Z"/></g>
<g><path style="opacity:1" fill="#e0e3eb" d="M 284.5,41.5 C 286.465,41.9483 286.798,42.9483 285.5,44.5C 284.614,43.675 284.281,42.675 284.5,41.5 Z"/></g>
<g><path style="opacity:1" fill="#32343e" d="M 279.5,41.5 C 280.209,40.596 281.209,40.2627 282.5,40.5C 282.5,42.1667 282.5,43.8333 282.5,45.5C 277.611,45.4102 277.277,44.2435 281.5,42C 280.906,41.5357 280.239,41.369 279.5,41.5 Z"/></g>
<g><path style="opacity:1" fill="#9192a2" d="M 266.5,40.5 C 266.5,40.8333 266.5,41.1667 266.5,41.5C 265.596,42.209 265.263,43.209 265.5,44.5C 263.958,45.3007 262.292,45.634 260.5,45.5C 260.5,43.1667 260.5,40.8333 260.5,38.5C 262.144,38.7135 263.644,38.3802 265,37.5C 265.232,38.7375 265.732,39.7375 266.5,40.5 Z"/></g>
<g><path style="opacity:1" fill="#090913" d="M 253.5,38.5 C 254.741,42.9906 254.741,44.324 253.5,42.5C 252.5,42.5 251.5,42.5 250.5,42.5C 249.545,45.2627 249.378,44.2627 250,39.5C 250.71,40.9733 251.876,41.6399 253.5,41.5C 253.5,40.5 253.5,39.5 253.5,38.5 Z"/></g>
<g><path style="opacity:1" fill="#7378b5" d="M 263.5,26.5 C 264.222,26.9175 264.722,27.5842 265,28.5C 265.333,27.8333 265.667,27.1667 266,26.5C 265.522,31.7956 264.688,31.7956 263.5,26.5 Z"/></g>
<g><path style="opacity:1" fill="#6d7dd3" d="M 278.5,26.5 C 280.351,26.6491 282.184,26.6491 284,26.5C 284.667,29.1667 285.333,29.1667 286,26.5C 286.483,27.448 286.649,28.448 286.5,29.5C 283.428,29.8174 280.428,29.4841 277.5,28.5C 277.863,27.8165 278.196,27.1499 278.5,26.5 Z"/></g>
<g><path style="opacity:1" fill="#8795d1" d="M 271.5,25.5 C 272.833,25.5 274.167,25.5 275.5,25.5C 275.33,26.8221 275.663,27.9887 276.5,29C 276,29.1667 275.5,29.3333 275,29.5C 272.578,29.0456 270.078,28.8789 267.5,29C 268.833,28.3333 268.833,27.6667 267.5,27C 268.744,26.5439 269.577,27.0439 270,28.5C 270.513,27.4734 271.013,26.4734 271.5,25.5 Z"/></g>
<g><path style="opacity:1" fill="#dfe1e6" d="M 135.5,-0.5 C 155.5,-0.5 175.5,-0.5 195.5,-0.5C 194.279,1.70948 192.945,3.87615 191.5,6C 192.624,6.24917 193.624,6.74917 194.5,7.5C 193.19,10.4732 191.19,12.8065 188.5,14.5C 187.062,14.2811 185.729,13.7811 184.5,13C 192.842,10.9677 193.175,9.13435 185.5,7.5C 184.833,7.5 184.167,7.5 183.5,7.5C 180.269,8.78154 176.936,8.78154 173.5,7.5C 174.077,4.45025 172.91,2.45025 170,1.5C 169.505,3.4727 169.338,5.4727 169.5,7.5C 168.698,6.04839 168.198,4.38172 168,2.5C 167.392,4.06644 166.558,5.39977 165.5,6.5C 165.824,3.30597 164.658,2.30597 162,3.5C 161.51,4.79323 161.343,6.12656 161.5,7.5C 157.435,11.7938 158.435,13.1271 164.5,11.5C 164.833,15.5 165.167,15.5 165.5,11.5C 170.046,11.4703 174.713,11.8036 179.5,12.5C 175.751,13.2252 172.084,14.2252 168.5,15.5C 166.117,14.538 165.117,15.538 165.5,18.5C 161.445,18.8242 157.445,18.4909 153.5,17.5C 156.5,16.8333 159.5,16.1667 162.5,15.5C 161.264,14.6433 159.931,13.9766 158.5,13.5C 156.958,14.7468 155.458,14.7468 154,13.5C 152.731,14.9047 152.231,16.5714 152.5,18.5C 149.518,18.8273 146.685,18.8273 144,18.5C 143.501,22.8206 143.334,27.1539 143.5,31.5C 142.167,31.5 140.833,31.5 139.5,31.5C 138.973,28.7686 138.14,26.1019 137,23.5C 136.667,26.1667 136.333,28.8333 136,31.5C 135.175,61.8754 135.341,92.2087 136.5,122.5C 137.991,123.244 139.491,123.91 141,124.5C 141.333,124.167 141.667,123.833 142,123.5C 162.322,125.152 182.822,126.486 203.5,127.5C 183.004,128.663 162.337,128.829 141.5,128C 139.333,126.5 137.167,125 135,123.5C 134.178,82.1253 134.345,40.792 135.5,-0.5 Z"/></g>
<g><path style="opacity:1" fill="#494b4c" d="M 310.5,10.5 C 309.817,12.1765 308.483,12.8432 306.5,12.5C 307.183,10.8235 308.517,10.1568 310.5,10.5 Z"/></g>
<g><path style="opacity:1" fill="#43434f" d="M 154.5,3.5 C 151.713,5.2049 152.046,6.37157 155.5,7C 153.712,8.62999 152.379,8.12999 151.5,5.5C 151.686,2.9265 152.686,2.25983 154.5,3.5 Z"/></g>
<g><path style="opacity:1" fill="#3d3e48" d="M 185.5,7.5 C 185.5,7.16667 185.5,6.83333 185.5,6.5C 187.117,5.41065 187.95,3.74398 188,1.5C 188.495,3.4727 188.662,5.4727 188.5,7.5C 187.5,7.5 186.5,7.5 185.5,7.5 Z"/></g>
<g><path style="opacity:1" fill="#383945" d="M 183.5,7.5 C 181.326,7.07984 179.326,7.07984 177.5,7.5C 177.762,5.86784 176.762,4.70117 174.5,4C 176.137,2.04901 177.637,2.21568 179,4.5C 183.051,0.20727 184.551,1.20727 183.5,7.5 Z"/></g>
<g><path style="opacity:1" fill="#25262b" d="M 165.5,6.5 C 164.432,7.43448 163.099,7.76781 161.5,7.5C 161.343,6.12656 161.51,4.79323 162,3.5C 164.658,2.30597 165.824,3.30597 165.5,6.5 Z"/></g>
<g><path style="opacity:1" fill="#fefeff" d="M 162.5,4.5 C 164.337,4.63945 164.67,5.30612 163.5,6.5C 162.702,6.04311 162.369,5.37644 162.5,4.5 Z"/></g>
<g><path style="opacity:1" fill="#3b3b49" d="M 154.5,3.5 C 156.092,4.60164 156.925,3.93497 157,1.5C 158.061,8.0283 157.228,8.69497 154.5,3.5 Z"/></g>
<g><path style="opacity:1" fill="#3b3b46" d="M 173.5,7.5 C 172.842,6.60164 172.176,5.60164 171.5,4.5C 170.824,5.60164 170.158,6.60164 169.5,7.5C 169.338,5.4727 169.505,3.4727 170,1.5C 172.91,2.45025 174.077,4.45025 173.5,7.5 Z"/></g>
<g><path style="opacity:1" fill="#161526" d="M 145.5,1.5 C 147.039,3.98184 148.539,3.98184 150,1.5C 150.622,6.26269 150.455,7.26269 149.5,4.5C 148.5,4.5 147.5,4.5 146.5,4.5C 146.649,5.55198 146.483,6.55198 146,7.5C 145.505,5.5273 145.338,3.5273 145.5,1.5 Z"/></g>
<g><path style="opacity:1" fill="#eaecf0" d="M 195.5,-0.5 C 201.833,-0.5 208.167,-0.5 214.5,-0.5C 213.827,40.8292 213.327,82.1625 213,123.5C 212.682,125.061 211.849,126.228 210.5,127C 208.19,127.497 205.857,127.663 203.5,127.5C 182.822,126.486 162.322,125.152 142,123.5C 141.667,123.833 141.333,124.167 141,124.5C 139.491,123.91 137.991,123.244 136.5,122.5C 135.341,92.2087 135.175,61.8754 136,31.5C 136.333,28.8333 136.667,26.1667 137,23.5C 138.14,26.1019 138.973,28.7686 139.5,31.5C 140.833,31.5 142.167,31.5 143.5,31.5C 143.334,27.1539 143.501,22.8206 144,18.5C 146.685,18.8273 149.518,18.8273 152.5,18.5C 152.231,16.5714 152.731,14.9047 154,13.5C 155.458,14.7468 156.958,14.7468 158.5,13.5C 159.931,13.9766 161.264,14.6433 162.5,15.5C 159.5,16.1667 156.5,16.8333 153.5,17.5C 157.445,18.4909 161.445,18.8242 165.5,18.5C 165.117,15.538 166.117,14.538 168.5,15.5C 172.084,14.2252 175.751,13.2252 179.5,12.5C 174.713,11.8036 170.046,11.4703 165.5,11.5C 165.167,15.5 164.833,15.5 164.5,11.5C 158.435,13.1271 157.435,11.7938 161.5,7.5C 163.099,7.76781 164.432,7.43448 165.5,6.5C 166.558,5.39977 167.392,4.06644 168,2.5C 168.198,4.38172 168.698,6.04839 169.5,7.5C 170.158,6.60164 170.824,5.60164 171.5,4.5C 172.176,5.60164 172.842,6.60164 173.5,7.5C 176.936,8.78154 180.269,8.78154 183.5,7.5C 184.167,7.5 184.833,7.5 185.5,7.5C 193.175,9.13435 192.842,10.9677 184.5,13C 185.729,13.7811 187.062,14.2811 188.5,14.5C 191.19,12.8065 193.19,10.4732 194.5,7.5C 193.624,6.74917 192.624,6.24917 191.5,6C 192.945,3.87615 194.279,1.70948 195.5,-0.5 Z"/></g>
<g><path style="opacity:1" fill="#9ea8cb" d="M 174.5,68.5 C 176.681,68.2837 178.347,69.117 179.5,71C 178.833,71.3333 178.167,71.6667 177.5,72C 182.038,73.6516 183.538,76.8183 182,81.5C 181.667,80.1667 181.333,78.8333 181,77.5C 180.667,77.8333 180.333,78.1667 180,78.5C 178.956,77.3774 178.29,76.0441 178,74.5C 177.034,77.1994 175.2,79.0327 172.5,80C 174.933,82.3591 176.1,85.1925 176,88.5C 174.042,87.048 172.042,86.7146 170,87.5C 169.333,83.8333 169.333,80.1667 170,76.5C 171.744,75.9698 173.244,75.9698 174.5,76.5C 173.053,75.0652 171.386,74.0652 169.5,73.5C 172.382,73.3924 174.715,72.2257 176.5,70C 175.584,69.7216 174.918,69.2216 174.5,68.5 Z"/></g>
<g><path style="opacity:1" fill="#585d85" d="M 174.5,68.5 C 172.085,68.6265 169.751,68.7932 167.5,69C 169.819,67.2721 172.153,67.1054 174.5,68.5 Z"/></g>
<g><path style="opacity:1" fill="#11111f" d="M 185.5,6.5 C 184.224,5.6136 184.224,4.6136 185.5,3.5C 186.087,4.23338 186.087,5.23338 185.5,6.5 Z"/></g>
<g><path style="opacity:1" fill="#efeefb" d="M 180.5,4.5 C 182.337,4.63945 182.67,5.30612 181.5,6.5C 180.702,6.04311 180.369,5.37644 180.5,4.5 Z"/></g>
<g><path style="opacity:1" fill="#a2aab2" d="M 125.5,-0.5 C 127.833,-0.5 130.167,-0.5 132.5,-0.5C 131.89,4.11796 131.557,8.78462 131.5,13.5C 132.252,50.1617 132.752,86.8284 133,123.5C 134.406,127.613 137.239,129.947 141.5,130.5C 161.337,131.167 181.337,131.833 201.5,132.5C 199.78,133.934 197.78,134.767 195.5,135C 175.167,135.667 154.833,135.667 134.5,135C 131.374,134.01 128.374,132.844 125.5,131.5C 125.5,87.5 125.5,43.5 125.5,-0.5 Z"/></g>
<g><path style="opacity:1" fill="#b4bcc4" d="M 119.5,-0.5 C 121.5,-0.5 123.5,-0.5 125.5,-0.5C 125.5,43.5 125.5,87.5 125.5,131.5C 128.374,132.844 131.374,134.01 134.5,135C 154.833,135.667 175.167,135.667 195.5,135C 197.78,134.767 199.78,133.934 201.5,132.5C 181.337,131.833 161.337,131.167 141.5,130.5C 163.503,130.333 185.503,130.5 207.5,131C 205.841,134.659 203.174,137.326 199.5,139C 177.5,139.667 155.5,139.667 133.5,139C 126.763,137.87 122.263,134.037 120,127.5C 119.5,84.8346 119.333,42.168 119.5,-0.5 Z"/></g>
<g><path style="opacity:1" fill="#aab0d5" d="M 169.5,73.5 C 168.21,74.0577 167.377,75.0577 167,76.5C 166.667,79.8333 166.333,83.1667 166,86.5C 163.993,82.8138 162.993,78.8138 163,74.5C 162.667,76.8333 162.333,79.1667 162,81.5C 160.884,77.7115 161.55,74.3782 164,71.5C 165.787,73.3065 167.62,73.9732 169.5,73.5 Z"/></g>
<g><path style="opacity:1" fill="#c5cdd7" d="M -0.5,-0.5 C 4.16667,-0.5 8.83333,-0.5 13.5,-0.5C 13.1919,27.1853 13.5252,54.852 14.5,82.5C 14.1457,85.2506 13.479,87.9173 12.5,90.5C 17.2162,95.5254 22.8828,99.0254 29.5,101C 51.8333,101.667 74.1667,101.667 96.5,101C 98.3482,98.8208 100.515,96.9874 103,95.5C 103.483,94.552 103.649,93.552 103.5,92.5C 101.901,92.2322 100.568,92.5655 99.5,93.5C 78.8306,93.6666 58.164,93.5 37.5,93C 32.3333,91.8333 29.1667,88.6667 28,83.5C 27.5,55.502 27.3334,27.502 27.5,-0.5C 28.5,-0.5 29.5,-0.5 30.5,-0.5C 30.3334,27.502 30.5,55.502 31,83.5C 31.6853,86.0573 33.1853,87.8906 35.5,89C 58.174,89.8331 80.8407,89.6665 103.5,88.5C 105.637,87.9202 107.47,86.9202 109,85.5C 109.5,56.8353 109.667,28.1686 109.5,-0.5C 110.833,-0.5 112.167,-0.5 113.5,-0.5C 113.503,3.52405 113.836,7.52405 114.5,11.5C 113.683,47.8991 112.683,84.0658 111.5,120C 112.162,125.817 113.829,131.317 116.5,136.5C 117.651,137.731 118.817,137.731 120,136.5C 123.451,140.649 127.784,142.982 133,143.5C 149.748,144.35 166.581,144.35 183.5,143.5C 191.997,143.53 200.33,144.197 208.5,145.5C 209.842,143.995 211.508,143.328 213.5,143.5C 213.5,141.5 213.5,139.5 213.5,137.5C 214.5,137.5 215.5,137.5 216.5,137.5C 216.832,146.525 216.498,155.525 215.5,164.5C 213.591,163.652 211.591,163.318 209.5,163.5C 209.5,163.833 209.5,164.167 209.5,164.5C 206.449,164.454 203.782,165.454 201.5,167.5C 200.833,166.833 200.167,166.167 199.5,165.5C 196.414,167.218 193.414,167.385 190.5,166C 192.619,165.658 192.953,164.825 191.5,163.5C 191.167,163.5 190.833,163.5 190.5,163.5C 188.317,161.508 187.984,159.174 189.5,156.5C 188.867,154.481 187.867,154.147 186.5,155.5C 186.577,154.25 187.244,153.417 188.5,153C 188,152.833 187.5,152.667 187,152.5C 184.536,153.443 182.37,154.443 180.5,155.5C 179.398,157.092 180.065,157.925 182.5,158C 181.437,159.188 180.103,159.688 178.5,159.5C 178.433,160.959 178.766,162.292 179.5,163.5C 178.735,164.66 177.735,165.66 176.5,166.5C 174.556,165.811 172.556,165.311 170.5,165C 171.416,164.722 172.082,164.222 172.5,163.5C 172.5,161.5 172.5,159.5 172.5,157.5C 173.5,157.5 174.5,157.5 175.5,157.5C 175.201,159.604 175.534,161.604 176.5,163.5C 177.89,160.524 177.557,157.857 175.5,155.5C 174.548,154.548 173.548,153.548 172.5,152.5C 170.802,153.681 169.135,153.681 167.5,152.5C 168.167,151.833 168.833,151.167 169.5,150.5C 167.668,149.752 166.001,148.752 164.5,147.5C 161.788,149.26 158.788,149.927 155.5,149.5C 155.5,148.167 155.5,146.833 155.5,145.5C 146.167,145.5 136.833,145.5 127.5,145.5C 127.5,146.833 127.5,148.167 127.5,149.5C 126.167,149.5 124.833,149.5 123.5,149.5C 119.555,147.8 115.222,146.633 110.5,146C 112.256,145.798 113.922,145.298 115.5,144.5C 114.311,143.571 112.978,143.238 111.5,143.5C 111.502,141.169 110.669,139.169 109,137.5C 108.621,127.821 108.121,118.154 107.5,108.5C 104.833,108.5 102.167,108.5 99.5,108.5C 99.762,107.022 99.4287,105.689 98.5,104.5C 96.1051,106.123 94.7718,108.456 94.5,111.5C 93.675,112.386 92.675,112.719 91.5,112.5C 91.7711,114.821 91.1045,116.821 89.5,118.5C 90.802,120.201 92.4687,121.368 94.5,122C 93.2396,123.113 92.073,123.28 91,122.5C 89.5409,125.443 87.8743,125.776 86,123.5C 83.3975,123.233 80.5642,123.899 77.5,125.5C 75.5406,125.125 73.7073,124.459 72,123.5C 69.0672,124.466 66.4006,124.466 64,123.5C 53.3492,126.408 42.5159,127.075 31.5,125.5C 30.7542,124.264 30.4208,122.93 30.5,121.5C 24.121,121.188 17.7877,120.521 11.5,119.5C 10.8333,114.167 10.1667,114.167 9.5,119.5C 6.26553,120.576 2.9322,121.243 -0.5,121.5C -0.5,80.8333 -0.5,40.1667 -0.5,-0.5 Z"/></g>
<g><path style="opacity:1" fill="#989fa9" d="M 25.5,-0.5 C 26.1667,-0.5 26.8333,-0.5 27.5,-0.5C 27.3334,27.502 27.5,55.502 28,83.5C 29.1667,88.6667 32.3333,91.8333 37.5,93C 58.164,93.5 78.8306,93.6666 99.5,93.5C 96.4233,94.856 93.0899,95.6894 89.5,96C 70.8363,96.4999 52.1696,96.6666 33.5,96.5C 28.4898,94.6401 25.9898,90.9734 26,85.5C 25.5,56.8353 25.3334,28.1686 25.5,-0.5 Z"/></g>
<g><path style="opacity:1" fill="#a8b0b9" d="M 19.5,-0.5 C 21.5,-0.5 23.5,-0.5 25.5,-0.5C 25.3334,28.1686 25.5,56.8353 26,85.5C 25.9898,90.9734 28.4898,94.6401 33.5,96.5C 30.4858,97.345 27.4858,97.0117 24.5,95.5C 23.6112,92.7213 22.4445,90.0546 21,87.5C 19.6484,58.185 19.1484,28.8516 19.5,-0.5 Z"/></g>
<g><path style="opacity:1" fill="#eaecef" d="M 30.5,-0.5 C 56.8333,-0.5 83.1667,-0.5 109.5,-0.5C 109.667,28.1686 109.5,56.8353 109,85.5C 107.47,86.9202 105.637,87.9202 103.5,88.5C 80.8407,89.6665 58.174,89.8331 35.5,89C 33.1853,87.8906 31.6853,86.0573 31,83.5C 30.5,55.502 30.3334,27.502 30.5,-0.5 Z"/></g>
<g><path style="opacity:1" fill="#dfe2f0" d="M 65.5,29.5 C 67.4008,29.4332 69.2341,29.7665 71,30.5C 73.1558,32.8008 74.8224,35.4675 76,38.5C 76.3589,35.4557 77.0255,35.1224 78,37.5C 79.5233,44.1313 77.19,48.4647 71,50.5C 70.7677,48.7166 71.2677,47.0499 72.5,45.5C 72.5177,43.6274 72.0177,43.2941 71,44.5C 70.6667,42.5 70.3333,40.5 70,38.5C 69.5012,42.4862 69.3345,46.4862 69.5,50.5C 60.2425,50.5653 56.2425,45.8987 57.5,36.5C 58.552,36.6495 59.552,36.4828 60.5,36C 61.5794,33.957 63.246,32.6237 65.5,32C 64.8333,31.6667 64.1667,31.3333 63.5,31C 64.4158,30.7216 65.0825,30.2216 65.5,29.5 Z"/></g>
<g><path style="opacity:1" fill="#b4bec6" d="M 13.5,-0.5 C 15.5,-0.5 17.5,-0.5 19.5,-0.5C 19.1484,28.8516 19.6484,58.185 21,87.5C 22.4445,90.0546 23.6112,92.7213 24.5,95.5C 27.4858,97.0117 30.4858,97.345 33.5,96.5C 52.1696,96.6666 70.8363,96.4999 89.5,96C 93.0899,95.6894 96.4233,94.856 99.5,93.5C 100.568,92.5655 101.901,92.2322 103.5,92.5C 103.649,93.552 103.483,94.552 103,95.5C 100.515,96.9874 98.3482,98.8208 96.5,101C 74.1667,101.667 51.8333,101.667 29.5,101C 22.8828,99.0254 17.2162,95.5254 12.5,90.5C 13.479,87.9173 14.1457,85.2506 14.5,82.5C 13.5252,54.852 13.1919,27.1853 13.5,-0.5 Z"/></g>
<g><path style="opacity:1" fill="#732155" d="M 28.5,108.5 C 32.31,109.754 32.31,110.754 28.5,111.5C 27.375,110.652 27.375,109.652 28.5,108.5 Z"/></g>
<g><path style="opacity:1" fill="#8b92b8" d="M 283.5,112.5 C 283.565,112.938 283.399,113.272 283,113.5C 282.333,110.833 281.667,110.833 281,113.5C 280.503,115.81 280.337,118.143 280.5,120.5C 279.833,118.5 279.167,116.5 278.5,114.5C 277.047,112.771 275.047,111.771 272.5,111.5C 271.702,111.957 271.369,112.624 271.5,113.5C 270.691,115.292 270.191,117.292 270,119.5C 269.667,117.5 269.333,115.5 269,113.5C 268.333,125.5 267.667,125.5 267,113.5C 266.667,115.5 266.333,117.5 266,119.5C 264.944,115.376 265.778,111.71 268.5,108.5C 269.675,109.855 270.675,109.688 271.5,108C 270.167,107.333 270.167,106.667 271.5,106C 274.5,105.333 277.5,105.333 280.5,106C 281.696,106.654 281.696,107.154 280.5,107.5C 277.897,106.438 275.23,106.272 272.5,107C 275.544,107.359 275.878,108.026 273.5,109C 274.766,109.309 275.933,109.809 277,110.5C 280.274,107.554 282.441,108.22 283.5,112.5 Z"/></g>
<g><path style="opacity:1" fill="#c6a5c9" d="M 28.5,111.5 C 32.31,110.754 32.31,109.754 28.5,108.5C 28.9175,107.778 29.5842,107.278 30.5,107C 30.0426,106.586 29.7093,106.086 29.5,105.5C 32.002,103.537 34.6687,103.204 37.5,104.5C 38.3857,105.325 38.719,106.325 38.5,107.5C 42.4367,107.207 46.27,107.54 50,108.5C 50.4994,114.157 50.6661,119.824 50.5,125.5C 44.5,125.5 38.5,125.5 32.5,125.5C 32.5,121.167 32.5,116.833 32.5,112.5C 30.901,112.768 29.5676,112.434 28.5,111.5 Z"/></g>
<g><path style="opacity:1" fill="#490738" d="M 34.5,109.5 C 39.1785,109.334 43.8452,109.501 48.5,110C 49.6324,114.413 49.7991,118.913 49,123.5C 44.2523,124.635 39.419,124.802 34.5,124C 33.1922,119.167 33.1922,114.334 34.5,109.5 Z"/></g>
<g><path style="opacity:1" fill="#8b7e90" d="M 72.5,112.5 C 75.7286,112.165 77.2286,113.498 77,116.5C 74.9068,117.246 72.9068,117.579 71,117.5C 71.1484,116.175 70.9817,115.008 70.5,114C 71.4158,113.722 72.0825,113.222 72.5,112.5 Z"/></g>
<g><path style="opacity:1" fill="#abb3d8" d="M 280.5,120.5 C 280.337,118.143 280.503,115.81 281,113.5C 281.667,110.833 282.333,110.833 283,113.5C 283.399,113.272 283.565,112.938 283.5,112.5C 284.222,112.082 284.722,111.416 285,110.5C 287.254,115.791 286.254,120.458 282,124.5C 281.026,122.122 280.359,122.456 280,125.5C 279.36,123.735 279.527,122.068 280.5,120.5 Z"/></g>
<g><path style="opacity:1" fill="#7d6f81" d="M 55.5,112.5 C 59.5988,113.362 63.5988,113.362 67.5,112.5C 67.9902,113.884 68.3236,115.384 68.5,117C 63.1056,117.438 57.6056,117.604 52,117.5C 51.2172,115.681 51.7172,114.348 53.5,113.5C 55.0046,116.131 55.6713,115.797 55.5,112.5 Z"/></g>
<g><path style="opacity:1" fill="#d05ac7" d="M 35.5,112.5 C 37.0174,112.511 38.1841,113.177 39,114.5C 39.5354,112.729 40.3687,112.396 41.5,113.5C 40.7498,115.93 40.4165,118.264 40.5,120.5C 39.8076,119.975 39.3076,119.308 39,118.5C 35.283,120.945 34.783,120.279 37.5,116.5C 36.3698,115.378 35.7031,114.044 35.5,112.5 Z"/></g>
<g><path style="opacity:1" fill="#dbdef1" d="M 155.5,115.5 C 165.189,116.125 174.855,116.125 184.5,115.5C 187.388,115.385 190.055,116.052 192.5,117.5C 191.655,121.446 189.988,122.112 187.5,119.5C 176.179,120.791 164.846,120.791 153.5,119.5C 153.291,118.914 152.957,118.414 152.5,118C 153.571,117.148 154.571,116.315 155.5,115.5 Z"/></g>
<g><path style="opacity:1" fill="#c456be" d="M 45.5,112.5 C 47.369,114.635 48.0356,117.302 47.5,120.5C 43.3228,121.158 41.8228,119.492 43,115.5C 44.417,114.922 45.2504,113.922 45.5,112.5 Z"/></g>
<g><path style="opacity:1" fill="#9fabd1" d="M 278.5,114.5 C 278.823,118.226 278.489,121.893 277.5,125.5C 276.28,126.711 275.113,126.711 274,125.5C 273.242,123.231 273.409,121.064 274.5,119C 273.773,117.601 273.273,116.101 273,114.5C 272.667,117.833 272.333,121.167 272,124.5C 271.501,120.848 271.335,117.182 271.5,113.5C 271.369,112.624 271.702,111.957 272.5,111.5C 275.047,111.771 277.047,112.771 278.5,114.5 Z"/></g>
<g><path style="opacity:1" fill="#c8d2da" d="M 123.5,149.5 C 125.189,151.328 127.189,152.828 129.5,154C 128.473,154.513 127.473,155.013 126.5,155.5C 126.167,155.5 125.833,155.5 125.5,155.5C 124.879,152.143 122.879,150.976 119.5,152C 120.167,152.667 120.833,153.333 121.5,154C 118.662,154.37 115.829,154.203 113,153.5C 111.319,153.608 110.152,154.275 109.5,155.5C 107.62,155.229 106.287,155.896 105.5,157.5C 104.833,157.5 104.167,157.5 103.5,157.5C 102.713,155.896 101.38,155.229 99.5,155.5C 97.5297,152.687 94.8631,151.52 91.5,152C 92.7375,152.232 93.7375,152.732 94.5,153.5C 92.5853,153.216 90.9187,153.549 89.5,154.5C 87.4773,156.853 85.4773,159.186 83.5,161.5C 83.9539,159.259 83.9539,157.259 83.5,155.5C 83.0296,154.307 82.0296,153.64 80.5,153.5C 78.4434,153.436 76.7767,154.102 75.5,155.5C 75.0954,156.55 74.4288,156.55 73.5,155.5C 72.52,158.086 72.1866,160.753 72.5,163.5C 74.9686,164.317 77.6353,164.817 80.5,165C 77.3135,165.258 75.3135,166.925 74.5,170C 73.5838,170.374 72.7504,170.874 72,171.5C 71.6121,170.572 70.9454,169.905 70,169.5C 66.5395,170.218 63.0395,170.718 59.5,171C 58.244,171.417 57.5774,172.25 57.5,173.5C 56.596,172.791 56.2627,171.791 56.5,170.5C 56.1961,169.85 55.8627,169.183 55.5,168.5C 59.1302,166.945 62.7969,166.612 66.5,167.5C 67.9814,165.851 69.6481,164.518 71.5,163.5C 72.0356,160.302 71.369,157.635 69.5,155.5C 69.1667,155.5 68.8333,155.5 68.5,155.5C 68.1667,155.5 67.8333,155.5 67.5,155.5C 65.4458,155.365 63.7791,156.032 62.5,157.5C 62.3893,156.883 62.056,156.383 61.5,156C 59.8853,155.938 58.5519,155.771 57.5,155.5C 56.5707,154.685 55.5707,153.852 54.5,153C 55.7059,151.982 55.3726,151.482 53.5,151.5C 50.9365,151.737 50.9365,152.237 53.5,153C 51.8988,153.273 50.3988,153.773 49,154.5C 47.4212,153.2 46.2545,153.534 45.5,155.5C 44.1667,155.5 42.8333,155.5 41.5,155.5C 39.4437,154.784 37.277,154.117 35,153.5C 34.5831,154.756 33.7498,155.423 32.5,155.5C 30.795,156.535 29.1284,156.535 27.5,155.5C 26.52,158.086 26.1866,160.753 26.5,163.5C 26.1667,163.5 25.8333,163.5 25.5,163.5C 24.8333,152.833 24.1667,152.833 23.5,163.5C 24.172,164.267 25.0053,164.934 26,165.5C 28.2317,164.813 30.3984,164.479 32.5,164.5C 33.5827,165.365 33.7494,166.365 33,167.5C 32.6667,167.167 32.3333,166.833 32,166.5C 32.0884,170.234 30.755,173.234 28,175.5C 27.2904,174.027 26.1238,173.36 24.5,173.5C 22.8333,173.5 21.1667,173.5 19.5,173.5C 19.5,176.167 19.5,178.833 19.5,181.5C 24.0635,184.002 28.8968,184.002 34,181.5C 34.5,181.833 35,182.167 35.5,182.5C 32.8953,184.416 33.3953,185.416 37,185.5C 38.9305,185.092 40.7638,184.425 42.5,183.5C 49.2503,184.273 56.2503,184.606 63.5,184.5C 63.5,185.5 63.5,186.5 63.5,187.5C 42.1667,187.5 20.8333,187.5 -0.5,187.5C -0.5,165.5 -0.5,143.5 -0.5,121.5C 2.9322,121.243 6.26553,120.576 9.5,119.5C 10.1667,114.167 10.8333,114.167 11.5,119.5C 17.7877,120.521 24.121,121.188 30.5,121.5C 30.4208,122.93 30.7542,124.264 31.5,125.5C 42.5159,127.075 53.3492,126.408 64,123.5C 66.4006,124.466 69.0672,124.466 72,123.5C 73.7073,124.459 75.5406,125.125 77.5,125.5C 80.5642,123.899 83.3975,123.233 86,123.5C 87.8743,125.776 89.5409,125.443 91,122.5C 92.073,123.28 93.2396,123.113 94.5,122C 92.4687,121.368 90.802,120.201 89.5,118.5C 91.1045,116.821 91.7711,114.821 91.5,112.5C 92.675,112.719 93.675,112.386 94.5,111.5C 94.7718,108.456 96.1051,106.123 98.5,104.5C 99.4287,105.689 99.762,107.022 99.5,108.5C 102.167,108.5 104.833,108.5 107.5,108.5C 108.121,118.154 108.621,127.821 109,137.5C 110.669,139.169 111.502,141.169 111.5,143.5C 112.978,143.238 114.311,143.571 115.5,144.5C 113.922,145.298 112.256,145.798 110.5,146C 115.222,146.633 119.555,147.8 123.5,149.5 Z"/></g>
<g><path style="opacity:1" fill="#000310" d="M 191.5,152.5 C 192.289,152.783 192.956,153.283 193.5,154C 192.184,154.528 191.517,154.028 191.5,152.5 Z"/></g>
<g><path style="opacity:1" fill="#1a1d24" d="M 23.5,152.5 C 25.337,152.639 25.6704,153.306 24.5,154.5C 23.7025,154.043 23.3691,153.376 23.5,152.5 Z"/></g>
<g><path style="opacity:1" fill="#141725" d="M 209.5,163.5 C 207.692,162.082 207.025,160.082 207.5,157.5C 206.5,157.5 205.5,157.5 204.5,157.5C 204.799,159.604 204.466,161.604 203.5,163.5C 202.167,160.833 202.167,158.167 203.5,155.5C 205.278,155.569 207.111,155.903 209,156.5C 209.497,158.81 209.663,161.143 209.5,163.5 Z"/></g>
<g><path style="opacity:1" fill="#cfd3ec" d="M 261.5,152.5 C 263.103,152.312 264.437,152.812 265.5,154C 273.853,154.168 282.187,154.668 290.5,155.5C 289.624,156.251 288.624,156.751 287.5,157C 277.506,157.5 267.506,157.666 257.5,157.5C 257.67,156.178 257.337,155.011 256.5,154C 258.382,153.802 260.048,153.302 261.5,152.5 Z"/></g>
<g><path style="opacity:1" fill="#313747" d="M 191.5,163.5 C 191.187,160.753 191.52,158.086 192.5,155.5C 192.833,156.833 193.167,158.167 193.5,159.5C 193.415,161.333 192.748,162.666 191.5,163.5 Z"/></g>
<g><path style="opacity:1" fill="#0c0e1d" d="M 15.5,153.5 C 17.8568,153.337 20.1902,153.503 22.5,154C 20.8659,154.494 19.1992,154.66 17.5,154.5C 17.5,155.5 17.5,156.5 17.5,157.5C 22.8333,158.167 22.8333,158.833 17.5,159.5C 17.762,160.978 17.4287,162.311 16.5,163.5C 15.513,160.232 15.1796,156.898 15.5,153.5 Z"/></g>
<g><path style="opacity:1" fill="#070919" d="M 25.5,163.5 C 24.8333,163.5 24.1667,163.5 23.5,163.5C 24.1667,152.833 24.8333,152.833 25.5,163.5 Z"/></g>
<g><path style="opacity:1" fill="#171a2d" d="M 32.5,155.5 C 33.7294,158.135 33.7294,160.801 32.5,163.5C 31.5344,161.604 31.2011,159.604 31.5,157.5C 30.5,157.5 29.5,157.5 28.5,157.5C 28.9746,160.082 28.3079,162.082 26.5,163.5C 26.1866,160.753 26.52,158.086 27.5,155.5C 29.1284,156.535 30.795,156.535 32.5,155.5 Z"/></g>
<g><path style="opacity:1" fill="#c7cfda" d="M 175.5,155.5 C 172.587,155.921 169.754,155.921 167,155.5C 166.182,158.227 166.348,160.894 167.5,163.5C 168.167,161.5 168.833,159.5 169.5,157.5C 169.964,159.975 170.964,161.975 172.5,163.5C 172.082,164.222 171.416,164.722 170.5,165C 172.556,165.311 174.556,165.811 176.5,166.5C 177.735,165.66 178.735,164.66 179.5,163.5C 181.167,163.5 182.833,163.5 184.5,163.5C 184.663,161.143 184.497,158.81 184,156.5C 182.989,155.663 181.822,155.33 180.5,155.5C 182.37,154.443 184.536,153.443 187,152.5C 187.5,152.667 188,152.833 188.5,153C 187.244,153.417 186.577,154.25 186.5,155.5C 185.957,155.56 185.624,155.893 185.5,156.5C 186.189,158.444 186.689,160.444 187,162.5C 188.011,163.337 189.178,163.67 190.5,163.5C 190.833,163.5 191.167,163.5 191.5,163.5C 192.953,164.825 192.619,165.658 190.5,166C 193.414,167.385 196.414,167.218 199.5,165.5C 200.167,166.167 200.833,166.833 201.5,167.5C 203.782,165.454 206.449,164.454 209.5,164.5C 209.461,165.756 209.961,166.756 211,167.5C 212.482,165.219 214.149,165.219 216,167.5C 216.112,172.384 218.612,174.384 223.5,173.5C 223.5,175.5 223.5,177.5 223.5,179.5C 233.845,179.709 244.178,180.209 254.5,181C 256.037,182.11 256.703,183.61 256.5,185.5C 260.387,185.646 264.054,186.313 267.5,187.5C 199.5,187.5 131.5,187.5 63.5,187.5C 63.5,186.5 63.5,185.5 63.5,184.5C 56.2503,184.606 49.2503,184.273 42.5,183.5C 40.7638,184.425 38.9305,185.092 37,185.5C 33.3953,185.416 32.8953,184.416 35.5,182.5C 35,182.167 34.5,181.833 34,181.5C 28.8968,184.002 24.0635,184.002 19.5,181.5C 20.4682,179.393 20.8016,177.059 20.5,174.5C 22.099,174.768 23.4324,174.434 24.5,173.5C 26.1238,173.36 27.2904,174.027 28,175.5C 30.755,173.234 32.0884,170.234 32,166.5C 32.3333,166.833 32.6667,167.167 33,167.5C 33.7494,166.365 33.5827,165.365 32.5,164.5C 30.3984,164.479 28.2317,164.813 26,165.5C 25.0053,164.934 24.172,164.267 23.5,163.5C 24.1667,163.5 24.8333,163.5 25.5,163.5C 25.8333,163.5 26.1667,163.5 26.5,163.5C 28.3079,162.082 28.9746,160.082 28.5,157.5C 29.5,157.5 30.5,157.5 31.5,157.5C 31.2011,159.604 31.5344,161.604 32.5,163.5C 33.7294,160.801 33.7294,158.135 32.5,155.5C 33.7498,155.423 34.5831,154.756 35,153.5C 37.277,154.117 39.4437,154.784 41.5,155.5C 42.8333,155.5 44.1667,155.5 45.5,155.5C 46.2545,153.534 47.4212,153.2 49,154.5C 50.3988,153.773 51.8988,153.273 53.5,153C 50.9365,152.237 50.9365,151.737 53.5,151.5C 55.3726,151.482 55.7059,151.982 54.5,153C 55.5707,153.852 56.5707,154.685 57.5,155.5C 57.1667,155.5 56.8333,155.5 56.5,155.5C 55.209,155.263 54.209,155.596 53.5,156.5C 52.8501,156.196 52.1835,155.863 51.5,155.5C 50.1667,158.167 50.1667,160.833 51.5,163.5C 52.0108,161.116 53.0108,159.116 54.5,157.5C 55.1667,160.5 55.8333,163.5 56.5,166.5C 57.404,165.791 57.7373,164.791 57.5,163.5C 61.9083,163.938 63.5749,161.938 62.5,157.5C 63.7791,156.032 65.4458,155.365 67.5,155.5C 66.791,156.404 65.791,156.737 64.5,156.5C 64.3367,158.857 64.5034,161.19 65,163.5C 65.3333,161.833 65.6667,160.167 66,158.5C 67.417,157.922 68.2504,156.922 68.5,155.5C 68.8333,155.5 69.1667,155.5 69.5,155.5C 68.9644,158.698 69.631,161.365 71.5,163.5C 69.6481,164.518 67.9814,165.851 66.5,167.5C 62.7969,166.612 59.1302,166.945 55.5,168.5C 55.8627,169.183 56.1961,169.85 56.5,170.5C 55.5233,173.287 55.19,176.287 55.5,179.5C 54.9348,177.58 53.9348,175.913 52.5,174.5C 51.1667,174.5 49.8333,174.5 48.5,174.5C 45.8333,176.5 45.8333,178.5 48.5,180.5C 52.5,181.833 56.5,181.833 60.5,180.5C 60.5,178.5 60.5,176.5 60.5,174.5C 59.791,173.596 58.791,173.263 57.5,173.5C 57.5774,172.25 58.244,171.417 59.5,171C 63.0395,170.718 66.5395,170.218 70,169.5C 70.9454,169.905 71.6121,170.572 72,171.5C 72.7504,170.874 73.5838,170.374 74.5,170C 75.3135,166.925 77.3135,165.258 80.5,165C 77.6353,164.817 74.9686,164.317 72.5,163.5C 74.3079,162.082 74.9746,160.082 74.5,157.5C 75.5,157.5 76.5,157.5 77.5,157.5C 77.2011,159.604 77.5344,161.604 78.5,163.5C 79.641,161.579 79.8077,159.579 79,157.5C 78.2904,156.027 77.1238,155.36 75.5,155.5C 76.7767,154.102 78.4434,153.436 80.5,153.5C 82.0296,153.64 83.0296,154.307 83.5,155.5C 82.1329,154.147 81.1329,154.481 80.5,156.5C 81.3742,158.747 81.7076,161.08 81.5,163.5C 83.9935,163.869 84.6602,163.203 83.5,161.5C 85.4773,159.186 87.4773,156.853 89.5,154.5C 89.3505,155.552 89.5172,156.552 90,157.5C 91.586,158.376 93.086,159.376 94.5,160.5C 94.1667,161.5 93.5,162.167 92.5,162.5C 91.3801,161.167 90.0468,160.667 88.5,161C 91.3662,164.264 94.0329,164.264 96.5,161C 96.2409,159.739 95.5742,158.739 94.5,158C 92.9559,157.71 91.6226,157.044 90.5,156C 92.3245,153.919 93.9911,154.085 95.5,156.5C 96.6653,155.14 96.332,154.14 94.5,153.5C 93.7375,152.732 92.7375,152.232 91.5,152C 94.8631,151.52 97.5297,152.687 99.5,155.5C 97.6668,157.496 97.1668,159.829 98,162.5C 99.9645,163.885 101.798,163.718 103.5,162C 102.451,161.508 101.451,161.674 100.5,162.5C 99.5481,160.955 99.2148,159.288 99.5,157.5C 101.139,157.926 102.472,157.926 103.5,157.5C 104.167,157.5 104.833,157.5 105.5,157.5C 106.833,157.5 108.167,157.5 109.5,157.5C 109.884,159.665 109.217,161.332 107.5,162.5C 107.002,161.397 106.669,160.397 106.5,159.5C 105.571,160.689 105.238,162.022 105.5,163.5C 107.5,163.5 109.5,163.5 111.5,163.5C 111.893,160.487 111.226,157.82 109.5,155.5C 110.152,154.275 111.319,153.608 113,153.5C 115.829,154.203 118.662,154.37 121.5,154C 120.833,153.333 120.167,152.667 119.5,152C 122.879,150.976 124.879,152.143 125.5,155.5C 124.06,156.363 122.726,156.363 121.5,155.5C 120.167,158.167 120.167,160.833 121.5,163.5C 122.466,161.604 122.799,159.604 122.5,157.5C 123.5,157.5 124.5,157.5 125.5,157.5C 125.201,159.604 125.534,161.604 126.5,163.5C 127.729,160.801 127.729,158.135 126.5,155.5C 127.473,155.013 128.473,154.513 129.5,154C 127.189,152.828 125.189,151.328 123.5,149.5C 124.833,149.5 126.167,149.5 127.5,149.5C 127.5,148.167 127.5,146.833 127.5,145.5C 136.833,145.5 146.167,145.5 155.5,145.5C 155.5,146.833 155.5,148.167 155.5,149.5C 158.788,149.927 161.788,149.26 164.5,147.5C 166.001,148.752 167.668,149.752 169.5,150.5C 168.833,151.167 168.167,151.833 167.5,152.5C 169.135,153.681 170.802,153.681 172.5,152.5C 173.548,153.548 174.548,154.548 175.5,155.5 Z"/></g>
<g><path style="opacity:1" fill="#10152b" d="M 130.5,155.5 C 133.797,155.632 135.463,157.298 135.5,160.5C 133.801,160.34 132.134,160.506 130.5,161C 132.078,162.14 133.744,162.64 135.5,162.5C 128.789,163.788 127.123,161.455 130.5,155.5 Z"/></g>
<g><path style="opacity:1" fill="#121628" d="M 75.5,155.5 C 77.1238,155.36 78.2904,156.027 79,157.5C 79.8077,159.579 79.641,161.579 78.5,163.5C 77.5344,161.604 77.2011,159.604 77.5,157.5C 76.5,157.5 75.5,157.5 74.5,157.5C 74.9746,160.082 74.3079,162.082 72.5,163.5C 72.1866,160.753 72.52,158.086 73.5,155.5C 74.4288,156.55 75.0954,156.55 75.5,155.5 Z"/></g>
<g><path style="opacity:1" fill="#0a0b1f" d="M 67.5,155.5 C 67.8333,155.5 68.1667,155.5 68.5,155.5C 68.2504,156.922 67.417,157.922 66,158.5C 65.6667,160.167 65.3333,161.833 65,163.5C 64.5034,161.19 64.3367,158.857 64.5,156.5C 65.791,156.737 66.791,156.404 67.5,155.5 Z"/></g>
<g><path style="opacity:1" fill="#929ab1" d="M 130.5,157.5 C 131.675,157.281 132.675,157.614 133.5,158.5C 131.948,159.798 130.948,159.465 130.5,157.5 Z"/></g>
<g><path style="opacity:1" fill="#111321" d="M 125.5,155.5 C 125.833,155.5 126.167,155.5 126.5,155.5C 127.729,158.135 127.729,160.801 126.5,163.5C 125.534,161.604 125.201,159.604 125.5,157.5C 124.5,157.5 123.5,157.5 122.5,157.5C 122.799,159.604 122.466,161.604 121.5,163.5C 120.167,160.833 120.167,158.167 121.5,155.5C 122.726,156.363 124.06,156.363 125.5,155.5 Z"/></g>
<g><path style="opacity:1" fill="#0c122b" d="M 83.5,155.5 C 83.9539,157.259 83.9539,159.259 83.5,161.5C 84.6602,163.203 83.9935,163.869 81.5,163.5C 81.7076,161.08 81.3742,158.747 80.5,156.5C 81.1329,154.481 82.1329,154.147 83.5,155.5 Z"/></g>
<g><path style="opacity:1" fill="#60667b" d="M 53.5,156.5 C 54.209,155.596 55.209,155.263 56.5,155.5C 56.5,159.167 56.5,162.833 56.5,166.5C 55.8333,163.5 55.1667,160.5 54.5,157.5C 54.5,156.833 54.1667,156.5 53.5,156.5 Z"/></g>
<g><path style="opacity:1" fill="#151825" d="M 180.5,155.5 C 181.822,155.33 182.989,155.663 184,156.5C 184.497,158.81 184.663,161.143 184.5,163.5C 182.833,163.5 181.167,163.5 179.5,163.5C 178.766,162.292 178.433,160.959 178.5,159.5C 180.103,159.688 181.437,159.188 182.5,158C 180.065,157.925 179.398,157.092 180.5,155.5 Z"/></g>
<g><path style="opacity:1" fill="#070919" d="M 162.5,155.5 C 163.748,156.334 164.415,157.667 164.5,159.5C 164.167,160.833 163.833,162.167 163.5,163.5C 162.52,160.914 162.187,158.247 162.5,155.5 Z"/></g>
<g><path style="opacity:1" fill="#0c0e1f" d="M 109.5,155.5 C 111.226,157.82 111.893,160.487 111.5,163.5C 109.5,163.5 107.5,163.5 105.5,163.5C 105.238,162.022 105.571,160.689 106.5,159.5C 106.669,160.397 107.002,161.397 107.5,162.5C 109.217,161.332 109.884,159.665 109.5,157.5C 108.167,157.5 106.833,157.5 105.5,157.5C 106.287,155.896 107.62,155.229 109.5,155.5 Z"/></g>
<g><path style="opacity:1" fill="#0b0e20" d="M 41.5,155.5 C 41.665,158.85 41.4983,162.183 41,165.5C 39.1862,166.76 37.3529,166.76 35.5,165.5C 36.6869,165.446 38.0202,165.113 39.5,164.5C 33.8847,162.386 33.218,159.386 37.5,155.5C 38.865,156.807 40.1984,156.807 41.5,155.5 Z"/></g>
<g><path style="opacity:1" fill="#c2c9dd" d="M 36.5,157.5 C 37.5,157.5 38.5,157.5 39.5,157.5C 39.7852,159.288 39.4519,160.955 38.5,162.5C 36.7826,161.332 36.1159,159.665 36.5,157.5 Z"/></g>
<g><path style="opacity:1" fill="#191d2c" d="M 175.5,155.5 C 177.557,157.857 177.89,160.524 176.5,163.5C 175.534,161.604 175.201,159.604 175.5,157.5C 174.5,157.5 173.5,157.5 172.5,157.5C 172.5,159.5 172.5,161.5 172.5,163.5C 170.964,161.975 169.964,159.975 169.5,157.5C 168.833,159.5 168.167,161.5 167.5,163.5C 166.348,160.894 166.182,158.227 167,155.5C 169.754,155.921 172.587,155.921 175.5,155.5 Z"/></g>
<g><path style="opacity:1" fill="#151a2d" d="M 147.5,153.5 C 148.675,153.281 149.675,153.614 150.5,154.5C 151.764,157.125 152.931,159.792 154,162.5C 154.186,160.1 154.686,157.766 155.5,155.5C 160.946,155.334 162.613,158 160.5,163.5C 159.534,161.604 159.201,159.604 159.5,157.5C 158.5,157.5 157.5,157.5 156.5,157.5C 156.5,159.5 156.5,161.5 156.5,163.5C 153.86,163.447 151.36,162.78 149,161.5C 147.415,162.245 145.915,162.745 144.5,163C 145.645,159.878 146.645,156.711 147.5,153.5 Z"/></g>
<g><path style="opacity:1" fill="#c5cadd" d="M 148.5,156.5 C 151.3,158.476 150.967,159.309 147.5,159C 148.252,158.329 148.586,157.496 148.5,156.5 Z"/></g>
<g><path style="opacity:1" fill="#13182a" d="M 136.5,155.5 C 138.056,156.291 139.39,156.624 140.5,156.5C 139.119,158.635 138.119,160.968 137.5,163.5C 136.52,160.914 136.187,158.247 136.5,155.5 Z"/></g>
<g><path style="opacity:1" fill="#171d31" d="M 112.5,155.5 C 114.611,155.772 116.777,156.105 119,156.5C 119.814,158.902 119.647,161.235 118.5,163.5C 117.534,161.604 117.201,159.604 117.5,157.5C 116.5,157.5 115.5,157.5 114.5,157.5C 114.799,159.604 114.466,161.604 113.5,163.5C 112.52,160.914 112.187,158.247 112.5,155.5 Z"/></g>
<g><path style="opacity:1" fill="#111421" d="M 94.5,153.5 C 96.332,154.14 96.6653,155.14 95.5,156.5C 93.9911,154.085 92.3245,153.919 90.5,156C 91.6226,157.044 92.9559,157.71 94.5,158C 95.5742,158.739 96.2409,159.739 96.5,161C 94.0329,164.264 91.3662,164.264 88.5,161C 90.0468,160.667 91.3801,161.167 92.5,162.5C 93.5,162.167 94.1667,161.5 94.5,160.5C 93.086,159.376 91.586,158.376 90,157.5C 89.5172,156.552 89.3505,155.552 89.5,154.5C 90.9187,153.549 92.5853,153.216 94.5,153.5 Z"/></g>
<g><path style="opacity:1" fill="#15191f" d="M 162.5,152.5 C 164.337,152.639 164.67,153.306 163.5,154.5C 162.702,154.043 162.369,153.376 162.5,152.5 Z"/></g>
<g><path style="opacity:1" fill="#050710" d="M 69.5,152.5 C 70.2891,152.783 70.9558,153.283 71.5,154C 70.184,154.528 69.5173,154.028 69.5,152.5 Z"/></g>
<g><path style="opacity:1" fill="#0f121f" d="M 99.5,155.5 C 101.38,155.229 102.713,155.896 103.5,157.5C 102.472,157.926 101.139,157.926 99.5,157.5C 99.2148,159.288 99.5481,160.955 100.5,162.5C 101.451,161.674 102.451,161.508 103.5,162C 101.798,163.718 99.9645,163.885 98,162.5C 97.1668,159.829 97.6668,157.496 99.5,155.5 Z"/></g>
<g><path style="opacity:1" fill="#12172c" d="M 190.5,163.5 C 189.178,163.67 188.011,163.337 187,162.5C 186.689,160.444 186.189,158.444 185.5,156.5C 185.624,155.893 185.957,155.56 186.5,155.5C 187.867,154.147 188.867,154.481 189.5,156.5C 187.984,159.174 188.317,161.508 190.5,163.5 Z"/></g>
<g><path style="opacity:1" fill="#1a1e30" d="M 196.5,155.5 C 201.262,156.092 202.596,158.592 200.5,163C 194.202,163.495 192.868,160.995 196.5,155.5 Z"/></g>
<g><path style="opacity:1" fill="#c9d0e2" d="M 196.5,157.5 C 197.5,157.5 198.5,157.5 199.5,157.5C 198.5,164.167 197.5,164.167 196.5,157.5 Z"/></g>
<g><path style="opacity:1" fill="#0d0f24" d="M 45.5,155.5 C 48.2974,155.967 49.6308,157.633 49.5,160.5C 47.8008,160.34 46.1341,160.506 44.5,161C 45.6492,162.744 46.9825,162.911 48.5,161.5C 48.8333,161.833 49.1667,162.167 49.5,162.5C 45.8762,164.396 43.8762,163.396 43.5,159.5C 43.8029,157.886 44.4695,156.552 45.5,155.5 Z"/></g>
<g><path style="opacity:1" fill="#959ab3" d="M 44.5,157.5 C 45.675,157.281 46.675,157.614 47.5,158.5C 45.9483,159.798 44.9483,159.465 44.5,157.5 Z"/></g>
<g><path style="opacity:1" fill="#1b1e2b" d="M 53.5,156.5 C 54.1667,156.5 54.5,156.833 54.5,157.5C 53.0108,159.116 52.0108,161.116 51.5,163.5C 50.1667,160.833 50.1667,158.167 51.5,155.5C 52.1835,155.863 52.8501,156.196 53.5,156.5 Z"/></g>
<g><path style="opacity:1" fill="#35384d" d="M 69.5,155.5 C 71.369,157.635 72.0356,160.302 71.5,163.5C 69.631,161.365 68.9644,158.698 69.5,155.5 Z"/></g>
<g><path style="opacity:1" fill="#b5bbcf" d="M 180.5,160.5 C 182.337,160.639 182.67,161.306 181.5,162.5C 180.702,162.043 180.369,161.376 180.5,160.5 Z"/></g>
<g><path style="opacity:1" fill="#101323" d="M 56.5,155.5 C 56.8333,155.5 57.1667,155.5 57.5,155.5C 58.5519,155.771 59.8853,155.938 61.5,156C 62.056,156.383 62.3893,156.883 62.5,157.5C 63.5749,161.938 61.9083,163.938 57.5,163.5C 57.7373,164.791 57.404,165.791 56.5,166.5C 56.5,162.833 56.5,159.167 56.5,155.5 Z"/></g>
<g><path style="opacity:1" fill="#bdc4d9" d="M 57.5,157.5 C 58.5,157.5 59.5,157.5 60.5,157.5C 60.7852,159.288 60.4519,160.955 59.5,162.5C 57.7826,161.332 57.1159,159.665 57.5,157.5 Z"/></g>
<g><path style="opacity:1" fill="#3d424c" d="M 76.5,174.5 C 74.9153,173.998 74.4153,172.998 75,171.5C 76.0386,172.244 76.5386,173.244 76.5,174.5 Z"/></g>
<g><path style="opacity:1" fill="#3e4450" d="M 78.5,174.5 C 78.4614,173.244 78.9614,172.244 80,171.5C 80.5847,172.998 80.0847,173.998 78.5,174.5 Z"/></g>
<g><path style="opacity:1" fill="#424a55" d="M 40.5,180.5 C 44.0681,180.241 45.4015,178.241 44.5,174.5C 43.1667,174.5 41.8333,174.5 40.5,174.5C 41.5676,173.566 42.901,173.232 44.5,173.5C 45.7241,173.879 46.0574,176.546 45.5,181.5C 43.5853,181.784 41.9187,181.451 40.5,180.5 Z"/></g>
<g><path style="opacity:1" fill="#808794" d="M 15.5,170.5 C 16.7868,171.871 17.4535,173.705 17.5,176C 17.1667,177.833 16.8333,179.667 16.5,181.5C 15.5108,177.893 15.1774,174.226 15.5,170.5 Z"/></g>
<g><path style="opacity:1" fill="#2f3743" d="M 76.5,174.5 C 77.1667,174.5 77.8333,174.5 78.5,174.5C 77.8333,178.5 77.1667,178.5 76.5,174.5 Z"/></g>
<g><path style="opacity:1" fill="#4b515e" d="M 24.5,173.5 C 23.4324,174.434 22.099,174.768 20.5,174.5C 20.8016,177.059 20.4682,179.393 19.5,181.5C 19.5,178.833 19.5,176.167 19.5,173.5C 21.1667,173.5 22.8333,173.5 24.5,173.5 Z"/></g>
<g><path style="opacity:1" fill="#5a626e" d="M 48.5,174.5 C 47.1667,176.5 47.1667,178.5 48.5,180.5C 45.8333,178.5 45.8333,176.5 48.5,174.5 Z"/></g>
<g><path style="opacity:1" fill="#19212e" d="M 56.5,170.5 C 56.2627,171.791 56.596,172.791 57.5,173.5C 58.791,173.263 59.791,173.596 60.5,174.5C 59.1667,174.5 57.8333,174.5 56.5,174.5C 56.5,176.167 56.5,177.833 56.5,179.5C 56.1667,180.833 55.8333,180.833 55.5,179.5C 55.19,176.287 55.5233,173.287 56.5,170.5 Z"/></g>
<g><path style="opacity:1" fill="#6e7483" d="M 64.5,173.5 C 67.9496,172.756 69.6162,174.09 69.5,177.5C 67.8333,177.5 66.1667,177.5 64.5,177.5C 64.2074,181.221 63.5407,181.055 62.5,177C 62.9783,175.697 63.645,174.531 64.5,173.5 Z"/></g>
<g><path style="opacity:1" fill="#3b4050" d="M 32.5,172.5 C 33.7053,173.672 33.7053,175.005 32.5,176.5C 33.325,177.386 34.325,177.719 35.5,177.5C 35.3505,176.448 35.5172,175.448 36,174.5C 37.0277,176.844 37.6943,179.177 38,181.5C 35.3333,177.5 32.6667,177.5 30,181.5C 30.2987,178.426 31.132,175.426 32.5,172.5 Z"/></g>
<g><path style="opacity:1" fill="#505764" d="M 40.5,174.5 C 40.5,176.5 40.5,178.5 40.5,180.5C 37.8333,178.5 37.8333,176.5 40.5,174.5 Z"/></g>
<g><path style="opacity:1" fill="#cfd7e3" d="M 40.5,174.5 C 41.8333,174.5 43.1667,174.5 44.5,174.5C 45.4015,178.241 44.0681,180.241 40.5,180.5C 40.5,178.5 40.5,176.5 40.5,174.5 Z"/></g>
<g><path style="opacity:1" fill="#cbd4e1" d="M 48.5,174.5 C 49.8333,174.5 51.1667,174.5 52.5,174.5C 52.5,176.5 52.5,178.5 52.5,180.5C 51.1667,180.5 49.8333,180.5 48.5,180.5C 47.1667,178.5 47.1667,176.5 48.5,174.5 Z"/></g>
<g><path style="opacity:1" fill="#cbd3e3" d="M 60.5,174.5 C 60.5,176.5 60.5,178.5 60.5,180.5C 59.0413,180.567 57.7079,180.234 56.5,179.5C 56.5,177.833 56.5,176.167 56.5,174.5C 57.8333,174.5 59.1667,174.5 60.5,174.5 Z"/></g>
<g><path style="opacity:1" fill="#e7ae5a" d="M 263.5,174.5 C 263.833,175.167 264.167,175.833 264.5,176.5C 266.129,178.196 265.796,179.196 263.5,179.5C 261.833,179.5 260.167,179.5 258.5,179.5C 259.502,177.989 260.169,176.322 260.5,174.5C 261.5,174.5 262.5,174.5 263.5,174.5 Z"/></g>
<g><path style="opacity:1" fill="#1b212c" d="M 274.5,179.5 C 275.601,178.402 276.934,178.235 278.5,179C 277.788,180.425 277.621,181.925 278,183.5C 277,182.167 276,182.167 275,183.5C 275.331,181.981 275.164,180.648 274.5,179.5 Z"/></g>
<g><path style="opacity:1" fill="#747c8c" d="M 52.5,174.5 C 53.9348,175.913 54.9348,177.58 55.5,179.5C 55.8333,180.833 56.1667,180.833 56.5,179.5C 57.7079,180.234 59.0413,180.567 60.5,180.5C 56.5,181.833 52.5,181.833 48.5,180.5C 49.8333,180.5 51.1667,180.5 52.5,180.5C 52.5,178.5 52.5,176.5 52.5,174.5 Z"/></g>
<g><path style="opacity:1" fill="#545c67" d="M 82.5,170.5 C 90.6178,170.382 92.6178,173.882 88.5,181C 86.5273,181.495 84.5273,181.662 82.5,181.5C 82.5,177.833 82.5,174.167 82.5,170.5 Z"/></g>
<g><path style="opacity:1" fill="#cfd7e1" d="M 84.5,171.5 C 87.5849,171.418 89.2515,172.918 89.5,176C 89.2515,179.082 87.5849,180.582 84.5,180.5C 84.5,177.5 84.5,174.5 84.5,171.5 Z"/></g>
<g><path style="opacity:1" fill="#ae6a55" d="M 258.5,179.5 C 260.167,179.5 261.833,179.5 263.5,179.5C 266.062,184.31 264.562,185.644 259,183.5C 257.702,182.054 257.535,180.721 258.5,179.5 Z"/></g>
<g><path style="opacity:1" fill="#1c212f" d="M 269.5,178.5 C 270.794,182.223 271.961,182.223 273,178.5C 273.72,180.112 273.554,181.612 272.5,183C 271.551,183.617 270.718,183.451 270,182.5C 269.51,181.207 269.343,179.873 269.5,178.5 Z"/></g>
<g><path style="opacity:1" fill="#da9d82" d="M 280.5,177.5 C 283.466,177.11 286.132,177.777 288.5,179.5C 292.962,178.9 297.629,178.567 302.5,178.5C 302.5,180.167 302.5,181.833 302.5,183.5C 296.593,183.059 290.593,183.059 284.5,183.5C 284.657,182.127 284.49,180.793 284,179.5C 283.632,180.91 282.799,181.91 281.5,182.5C 280.548,180.955 280.215,179.288 280.5,177.5 Z"/></g>
</svg>
