<?xml version="1.0" encoding="UTF-8"?>
<!DOCTYPE svg PUBLIC "-//W3C//DTD SVG 1.1//EN" "http://www.w3.org/Graphics/SVG/1.1/DTD/svg11.dtd">
<svg xmlns="http://www.w3.org/2000/svg" version="1.1" width="336px" height="188px" style="shape-rendering:geometricPrecision; text-rendering:geometricPrecision; image-rendering:optimizeQuality; fill-rule:evenodd; clip-rule:evenodd" xmlns:xlink="http://www.w3.org/1999/xlink">
<g><path style="opacity:1" fill="#cbdbea" d="M -0.5,-0.5 C 111.5,-0.5 223.5,-0.5 335.5,-0.5C 335.5,62.1667 335.5,124.833 335.5,187.5C 325.5,187.5 315.5,187.5 305.5,187.5C 305.833,185.5 306.167,183.5 306.5,181.5C 314.174,181.666 321.841,181.5 329.5,181C 329.833,180.667 330.167,180.333 330.5,180C 329.901,178.378 329.234,176.878 328.5,175.5C 328.167,175.5 327.833,175.5 327.5,175.5C 325.031,174.683 322.365,174.183 319.5,174C 319.957,173.586 320.291,173.086 320.5,172.5C 319.5,171.833 318.5,171.167 317.5,170.5C 319.398,169.266 321.065,169.599 322.5,171.5C 323.833,169.833 325.167,168.167 326.5,166.5C 327.5,120.171 327.833,73.8381 327.5,27.5C 324.944,27.8678 322.944,27.0345 321.5,25C 322.885,23.4029 323.551,21.5695 323.5,19.5C 322.167,19.5 320.833,19.5 319.5,19.5C 319.5,18.1667 319.5,16.8333 319.5,15.5C 318.167,15.5 316.833,15.5 315.5,15.5C 315.5,14.1667 315.5,12.8333 315.5,11.5C 314.167,11.5 312.833,11.5 311.5,11.5C 311.5,10.1667 311.5,8.83333 311.5,7.5C 309.179,7.22888 307.179,7.89554 305.5,9.5C 217.373,8.16823 129.373,8.16823 41.5,9.5C 39.2459,10.4151 37.2459,11.7484 35.5,13.5C 33.076,13.1924 30.7427,13.5258 28.5,14.5C 25.6937,17.7279 22.6937,20.7279 19.5,23.5C 18.8453,31.3532 18.5119,39.3532 18.5,47.5C 17.5,47.5 16.5,47.5 15.5,47.5C 15.6667,86.1681 15.5,124.835 15,163.5C 12.1823,165.306 12.0157,166.972 14.5,168.5C 15.5676,169.434 16.901,169.768 18.5,169.5C 18.3354,172.518 18.502,175.518 19,178.5C 19.2784,179.416 19.7784,180.082 20.5,180.5C 20.5,181.5 20.5,182.5 20.5,183.5C 13.7586,185.586 6.75859,186.586 -0.5,186.5C -0.5,124.167 -0.5,61.8333 -0.5,-0.5 Z"/></g>
<g><path style="opacity:1" fill="#305783" d="M 41.5,9.5 C 128.834,9.33334 216.167,9.5 303.5,10C 306.817,11.4802 308.817,13.9802 309.5,17.5C 309.5,64.1667 309.5,110.833 309.5,157.5C 308.833,110.5 308.167,63.5 307.5,16.5C 306.833,13.8333 305.167,12.1667 302.5,11.5C 278.167,11.5 253.833,11.5 229.5,11.5C 229.167,11.5 228.833,11.5 228.5,11.5C 228.167,11.5 227.833,11.5 227.5,11.5C 164.832,11.3333 102.166,11.5 39.5,12C 38.2949,13.3756 36.9616,14.5423 35.5,15.5C 35.5,14.8333 35.5,14.1667 35.5,13.5C 37.2459,11.7484 39.2459,10.4151 41.5,9.5 Z"/></g>
<g><path style="opacity:1" fill="#c4ddf7" d="M 227.5,11.5 C 227.833,11.5 228.167,11.5 228.5,11.5C 228.333,29.1698 228.5,46.8365 229,64.5C 231.495,65.7624 231.828,65.4291 230,63.5C 229.5,46.1699 229.333,28.8365 229.5,11.5C 253.833,11.5 278.167,11.5 302.5,11.5C 277.614,12.2287 256.614,13.562 239.5,15.5C 239.5,20.5 239.5,25.5 239.5,30.5C 240.675,30.281 241.675,30.6143 242.5,31.5C 241.167,31.8333 239.833,32.1667 238.5,32.5C 235.824,32.163 233.157,31.8297 230.5,31.5C 230.5,35.5 230.5,39.5 230.5,43.5C 237.542,41.0624 243.709,42.7291 249,48.5C 249.414,48.0426 249.914,47.7093 250.5,47.5C 253.463,49.4418 255.129,52.1084 255.5,55.5C 256.833,55.5 258.167,55.5 259.5,55.5C 259.5,56.8333 259.5,58.1667 259.5,59.5C 261.822,61.4116 264.488,62.745 267.5,63.5C 269.734,68.4809 271.234,73.8142 272,79.5C 272.333,78.1667 272.667,76.8333 273,75.5C 273.937,81.7685 274.437,87.9352 274.5,94C 273.023,97.6756 272.023,101.509 271.5,105.5C 271.182,106.647 270.516,107.481 269.5,108C 270.517,109.049 270.684,110.216 270,111.5C 268.171,113.156 266.837,115.156 266,117.5C 262.404,120.718 258.904,124.051 255.5,127.5C 247.372,130.718 238.705,133.385 229.5,135.5C 224.054,135.139 218.721,134.139 213.5,132.5C 209.229,134.2 206.229,132.867 204.5,128.5C 200.784,126.743 197.117,125.076 193.5,123.5C 193.492,119.82 191.825,117.153 188.5,115.5C 187.571,116.689 187.238,118.022 187.5,119.5C 188.833,119.5 190.167,119.5 191.5,119.5C 191.5,120.833 191.5,122.167 191.5,123.5C 188.353,123.263 185.353,122.43 182.5,121C 180.593,117.935 178.926,114.768 177.5,111.5C 177.167,112.333 176.833,113.167 176.5,114C 176.969,115.887 177.969,117.387 179.5,118.5C 179.291,119.086 178.957,119.586 178.5,120C 180.584,121.501 181.917,123.501 182.5,126C 181.633,129.105 181.299,132.272 181.5,135.5C 179.5,135.5 177.5,135.5 175.5,135.5C 175.5,138.167 175.5,140.833 175.5,143.5C 172.833,143.5 170.167,143.5 167.5,143.5C 167.5,146.167 167.5,148.833 167.5,151.5C 164.833,151.5 162.167,151.5 159.5,151.5C 159.5,153.833 159.5,156.167 159.5,158.5C 169.157,159.079 178.824,159.579 188.5,160C 185.362,161.244 182.028,161.911 178.5,162C 153.836,162.5 129.169,162.667 104.5,162.5C 114.659,161.67 124.992,161.17 135.5,161C 133.038,159.784 130.371,159.118 127.5,159C 119.507,158.5 111.507,158.334 103.5,158.5C 103.5,153.5 103.5,148.5 103.5,143.5C 104.822,143.67 105.989,143.337 107,142.5C 107.497,140.19 107.663,137.857 107.5,135.5C 112.093,136.984 112.593,135.984 109,132.5C 107,134.585 105,134.252 103,131.5C 100.23,132.325 97.5633,132.659 95,132.5C 94.5,132 94,131.5 93.5,131C 99.029,130.916 104.362,129.916 109.5,128C 108.062,127.781 106.729,127.281 105.5,126.5C 109.167,125.167 112.833,125.167 116.5,126.5C 114.922,127.298 113.256,127.798 111.5,128C 112.167,128.667 112.833,129.333 113.5,130C 122.766,130.862 122.766,132.028 113.5,133.5C 113.667,133.833 113.833,134.167 114,134.5C 115,134.167 116,133.833 117,133.5C 118.466,135.325 120.299,135.825 122.5,135C 121.663,133.989 121.33,132.822 121.5,131.5C 123.5,131.5 125.5,131.5 127.5,131.5C 127.5,126.833 127.5,122.167 127.5,117.5C 122.167,116.833 122.167,116.167 127.5,115.5C 127.5,109.5 127.5,103.5 127.5,97.5C 131.37,96.201 135.37,95.5343 139.5,95.5C 139.5,90.1667 139.5,84.8333 139.5,79.5C 142.167,79.5 144.833,79.5 147.5,79.5C 147.5,78.1667 147.5,76.8333 147.5,75.5C 149.5,75.5 151.5,75.5 153.5,75.5C 153.5,74.1667 153.5,72.8333 153.5,71.5C 152.167,71.5 150.833,71.5 149.5,71.5C 149.5,66.1667 149.5,60.8333 149.5,55.5C 152.734,54.424 156.068,53.7573 159.5,53.5C 159.5,51.5 159.5,49.5 159.5,47.5C 162.167,47.5 164.833,47.5 167.5,47.5C 167.5,42.1667 167.5,36.8333 167.5,31.5C 168.833,31.5 170.167,31.5 171.5,31.5C 171.5,30.1667 171.5,28.8333 171.5,27.5C 172.833,27.5 174.167,27.5 175.5,27.5C 175.335,23.8183 175.501,20.1516 176,16.5C 178.74,15.7178 181.574,15.2178 184.5,15C 180.044,15.1018 176.044,14.2684 172.5,12.5C 191.008,12.8302 209.341,12.4968 227.5,11.5 Z"/></g>
<g><path style="opacity:1" fill="#c5d6e6" d="M 327.5,175.5 C 323.269,176.621 319.269,176.621 315.5,175.5C 314.5,176.167 313.5,176.833 312.5,177.5C 310.49,175.829 308.157,175.162 305.5,175.5C 305.5,176.833 305.5,178.167 305.5,179.5C 313.043,180.038 320.71,180.205 328.5,180C 327.272,178.51 327.272,177.01 328.5,175.5C 329.234,176.878 329.901,178.378 330.5,180C 330.167,180.333 329.833,180.667 329.5,181C 321.841,181.5 314.174,181.666 306.5,181.5C 306.167,183.5 305.833,185.5 305.5,187.5C 203.5,187.5 101.5,187.5 -0.5,187.5C -0.5,187.167 -0.5,186.833 -0.5,186.5C 6.75859,186.586 13.7586,185.586 20.5,183.5C 25.9846,184.652 31.6513,184.818 37.5,184C 38.1552,182.513 39.1552,181.347 40.5,180.5C 43.4451,181.123 46.4451,181.456 49.5,181.5C 52.6128,181.438 55.4461,180.771 58,179.5C 59.0875,181.932 59.5875,181.598 59.5,178.5C 57.5853,178.784 55.9187,178.451 54.5,177.5C 56.5,177.5 58.5,177.5 60.5,177.5C 60.238,178.978 60.5713,180.311 61.5,181.5C 63.7965,181.255 66.2965,180.589 69,179.5C 70.7618,179.944 70.5951,180.444 68.5,181C 71.557,181.256 74.557,181.756 77.5,182.5C 89.3573,182.112 101.357,181.112 113.5,179.5C 117.194,180.007 120.861,180.674 124.5,181.5C 159.802,180.802 195.135,180.802 230.5,181.5C 233.378,181.614 236.044,180.948 238.5,179.5C 243.124,179.427 247.791,180.094 252.5,181.5C 262.577,181.54 272.577,181.206 282.5,180.5C 282.833,180.5 283.167,180.5 283.5,180.5C 286.066,182.964 288.566,182.631 291,179.5C 291.483,178.552 291.649,177.552 291.5,176.5C 291.5,176.167 291.5,175.833 291.5,175.5C 292.978,176.448 293.978,177.781 294.5,179.5C 297.33,181.035 298.663,180.035 298.5,176.5C 299.338,176.842 299.672,177.508 299.5,178.5C 299.369,179.239 299.536,179.906 300,180.5C 301.209,180.347 302.375,180.014 303.5,179.5C 304.32,175.842 302.987,173.509 299.5,172.5C 302.167,170.833 302.167,169.167 299.5,167.5C 212.503,166.5 125.503,166.167 38.5,166.5C 38.5,168.167 38.5,169.833 38.5,171.5C 38.1667,171.5 37.8333,171.5 37.5,171.5C 37.7678,169.901 37.4345,168.568 36.5,167.5C 36.5,166.833 36.1667,166.5 35.5,166.5C 31.3528,165.675 27.0195,165.175 22.5,165C 23.5,164 24.5,163 25.5,162C 24.0993,161.59 22.766,161.09 21.5,160.5C 20.0695,160.421 18.7362,160.754 17.5,161.5C 17.0357,162.636 16.7024,163.636 16.5,164.5C 15.3263,165.514 14.6596,166.847 14.5,168.5C 12.0157,166.972 12.1823,165.306 15,163.5C 15.5,124.835 15.6667,86.1681 15.5,47.5C 16.5,47.5 17.5,47.5 18.5,47.5C 18.5119,39.3532 18.8453,31.3532 19.5,23.5C 22.6937,20.7279 25.6937,17.7279 28.5,14.5C 30.7427,13.5258 33.076,13.1924 35.5,13.5C 35.5,14.1667 35.5,14.8333 35.5,15.5C 34.3351,63.3316 34.1684,111.332 35,159.5C 35.7475,161.751 37.2475,163.084 39.5,163.5C 39.9175,164.222 40.5842,164.722 41.5,165C 128.5,165.667 215.5,165.667 302.5,165C 304.692,164.074 306.692,162.907 308.5,161.5C 309.117,161.389 309.617,161.056 310,160.5C 310.832,112.665 310.665,64.9982 309.5,17.5C 308.817,13.9802 306.817,11.4802 303.5,10C 216.167,9.5 128.834,9.33334 41.5,9.5C 129.373,8.16823 217.373,8.16823 305.5,9.5C 307.179,7.89554 309.179,7.22888 311.5,7.5C 311.5,8.83333 311.5,10.1667 311.5,11.5C 312.833,11.5 314.167,11.5 315.5,11.5C 315.5,12.8333 315.5,14.1667 315.5,15.5C 316.833,15.5 318.167,15.5 319.5,15.5C 319.5,16.8333 319.5,18.1667 319.5,19.5C 320.833,19.5 322.167,19.5 323.5,19.5C 323.551,21.5695 322.885,23.4029 321.5,25C 322.944,27.0345 324.944,27.8678 327.5,27.5C 327.833,73.8381 327.5,120.171 326.5,166.5C 325.167,168.167 323.833,169.833 322.5,171.5C 321.065,169.599 319.398,169.266 317.5,170.5C 318.5,171.167 319.5,171.833 320.5,172.5C 320.291,173.086 319.957,173.586 319.5,174C 322.365,174.183 325.031,174.683 327.5,175.5 Z"/></g>
<g><path style="opacity:1" fill="#c4d5e1" d="M 31.5,18.5 C 32.1714,65.706 32.838,113.039 33.5,160.5C 29.7254,164.686 27.3921,164.019 26.5,158.5C 24.1432,158.663 21.8098,158.497 19.5,158C 21.159,118.714 22.159,79.2144 22.5,39.5C 23.6968,32.8079 25.6968,26.4746 28.5,20.5C 30.1788,20.7148 31.1788,20.0481 31.5,18.5 Z"/></g>
<g><path style="opacity:1" fill="#89a4bf" d="M 228.5,11.5 C 228.833,11.5 229.167,11.5 229.5,11.5C 229.333,28.8365 229.5,46.1699 230,63.5C 231.828,65.4291 231.495,65.7624 229,64.5C 228.5,46.8365 228.333,29.1698 228.5,11.5 Z"/></g>
<g><path style="opacity:1" fill="#cfe4f9" d="M 227.5,11.5 C 209.341,12.4968 191.008,12.8302 172.5,12.5C 143.143,12.0955 113.81,12.5955 84.5,14C 98.1667,14.3333 111.833,14.6667 125.5,15C 124.5,15.3333 123.5,15.6667 122.5,16C 123.435,18.3806 123.768,20.8806 123.5,23.5C 122.167,23.5 120.833,23.5 119.5,23.5C 119.5,26.1667 119.5,28.8333 119.5,31.5C 120.5,31.5 121.5,31.5 122.5,31.5C 121.786,33.8742 120.452,35.8742 118.5,37.5C 120.358,43.6684 118.191,45.6684 112,43.5C 109.712,44.8422 109.212,46.5089 110.5,48.5C 110.833,50.5 111.167,52.5 111.5,54.5C 110.742,57.9717 108.575,59.9717 105,60.5C 104.536,59.9056 104.369,59.2389 104.5,58.5C 105.477,55.7131 105.81,52.7131 105.5,49.5C 103.5,49.5 101.5,49.5 99.5,49.5C 99.3379,51.5273 99.5045,53.5273 100,55.5C 104.27,57.2295 104.103,58.0628 99.5,58C 100.563,59.1882 101.897,59.6882 103.5,59.5C 101.708,60.3091 99.7078,60.8091 97.5,61C 96.244,61.4169 95.5774,62.2502 95.5,63.5C 95.8417,64.3382 96.5084,64.6716 97.5,64.5C 98.3149,63.5707 99.1482,62.5707 100,61.5C 101.434,63.1355 103.267,64.1355 105.5,64.5C 106.776,65.6136 106.776,66.6136 105.5,67.5C 103.5,64.8333 101.5,64.8333 99.5,67.5C 98.5326,66.1938 97.1993,65.5271 95.5,65.5C 95.5,68.1667 95.5,70.8333 95.5,73.5C 96.552,73.3505 97.552,73.5172 98.5,74C 95.8386,76.6253 93.5053,76.6253 91.5,74C 92.7375,73.7679 93.7375,73.2679 94.5,72.5C 93.232,70.3298 93.232,68.1632 94.5,66C 93.3248,62.937 91.9914,62.7704 90.5,65.5C 89.8333,65.5 89.5,65.8333 89.5,66.5C 87.9582,65.6993 86.2915,65.366 84.5,65.5C 84.6309,64.6236 84.2975,63.9569 83.5,63.5C 82.2798,64.7111 81.1131,64.7111 80,63.5C 79.3497,60.866 78.183,58.5327 76.5,56.5C 77.4682,54.3926 77.8016,52.0593 77.5,49.5C 75.5,49.5 73.5,49.5 71.5,49.5C 71.1924,51.924 71.5258,54.2573 72.5,56.5C 73.0108,54.1161 74.0108,52.1161 75.5,50.5C 74.9628,55.3154 74.9628,59.9821 75.5,64.5C 76.791,64.2627 77.791,64.596 78.5,65.5C 77.8333,65.5 77.1667,65.5 76.5,65.5C 75.8333,65.5 75.1667,65.5 74.5,65.5C 73.8333,65.5 73.1667,65.5 72.5,65.5C 71.5318,67.6074 71.1984,69.9407 71.5,72.5C 72.209,73.404 73.209,73.7373 74.5,73.5C 74.8333,75.5 75.1667,77.5 75.5,79.5C 76.8333,79.5 78.1667,79.5 79.5,79.5C 79.5,84.8333 79.5,90.1667 79.5,95.5C 81.924,95.1924 84.2573,95.5258 86.5,96.5C 83.1518,97.2875 79.8185,98.1208 76.5,99C 75.1667,99.6667 74.1667,100.667 73.5,102C 71.2922,102.191 69.2922,102.691 67.5,103.5C 63.8322,101.502 61.4989,102.502 60.5,106.5C 60.5368,104.28 60.2035,101.946 59.5,99.5C 57.0194,99.3234 55.1861,100.323 54,102.5C 53.6667,101.833 53.3333,101.167 53,100.5C 52.3333,101.833 51.6667,103.167 51,104.5C 50.3086,102.109 49.3086,102.109 48,104.5C 47.1072,103.289 46.2739,103.289 45.5,104.5C 46.0402,105.748 46.7069,106.915 47.5,108C 52.5195,108.411 57.5195,108.911 62.5,109.5C 62.5,110.5 62.5,111.5 62.5,112.5C 59.6414,112.592 57.1414,112.925 55,113.5C 52.4883,109.707 49.4883,109.04 46,111.5C 45.51,112.793 45.3433,114.127 45.5,115.5C 49.7049,114.845 50.8715,116.179 49,119.5C 48.6667,119.167 48.3333,118.833 48,118.5C 47.5065,120.134 47.3398,121.801 47.5,123.5C 49.3797,123.229 50.713,123.896 51.5,125.5C 50.8669,125.88 50.2003,126.213 49.5,126.5C 51.7427,127.474 54.076,127.808 56.5,127.5C 53.6446,129.25 50.3113,130.083 46.5,130C 50.9055,131.907 55.5722,133.074 60.5,133.5C 57.6426,133.958 54.3092,134.125 50.5,134C 51.8172,135.767 53.4839,137.101 55.5,138C 66.1667,138.333 76.8333,138.667 87.5,139C 89.2194,142.957 89.886,147.124 89.5,151.5C 76.1625,151.667 62.8292,151.5 49.5,151C 48.6667,150.167 47.8333,149.333 47,148.5C 46.6667,145.5 46.3333,142.5 46,139.5C 44.5557,137.845 42.7224,137.178 40.5,137.5C 40.3648,143.519 39.3648,149.353 37.5,155C 39.119,157.16 38.7856,158.66 36.5,159.5C 35.5052,111.572 35.1718,63.5719 35.5,15.5C 36.9616,14.5423 38.2949,13.3756 39.5,12C 102.166,11.5 164.832,11.3333 227.5,11.5 Z"/></g>
<g><path style="opacity:1" fill="#364553" d="M 48.5,20.5 C 52.1612,20.3501 53.1612,21.8501 51.5,25C 47.7071,25.4866 46.7071,23.9866 48.5,20.5 Z"/></g>
<g><path style="opacity:1" fill="#75a2d0" d="M 307.5,16.5 C 308.167,63.5 308.833,110.5 309.5,157.5C 309.672,158.492 309.338,159.158 308.5,159.5C 308.5,158.833 308.167,158.5 307.5,158.5C 307.5,111.167 307.5,63.8333 307.5,16.5 Z"/></g>
<g><path style="opacity:1" fill="#3f4863" d="M 87.5,46.5 C 89.337,46.6395 89.6704,47.3061 88.5,48.5C 87.7025,48.0431 87.3691,47.3764 87.5,46.5 Z"/></g>
<g><path style="opacity:1" fill="#b8d6f5" d="M 307.5,159.5 C 306.657,161.173 305.324,162.34 303.5,163C 269.168,163.5 234.835,163.667 200.5,163.5C 231.997,162.668 263.664,162.168 295.5,162C 297.9,161.814 300.234,161.314 302.5,160.5C 282.845,159.5 263.178,159.167 243.5,159.5C 243.5,155.5 243.5,151.5 243.5,147.5C 234.131,146.998 224.798,146.165 215.5,145C 220.167,144.665 224.834,144.832 229.5,145.5C 233.606,145.473 237.606,144.807 241.5,143.5C 249.434,144.644 249.434,145.477 241.5,146C 244.827,146.61 248.161,147.11 251.5,147.5C 251.48,145.857 252.147,144.524 253.5,143.5C 250.839,141.82 251.006,140.487 254,139.5C 254.95,140.022 255.784,140.689 256.5,141.5C 257.685,140.147 259.019,138.98 260.5,138C 260.315,135.182 261.482,132.682 264,130.5C 264.333,131.167 264.667,131.833 265,132.5C 266.29,130.208 267.957,128.208 270,126.5C 270.866,124.104 270.366,123.437 268.5,124.5C 268.167,123.833 267.833,123.167 267.5,122.5C 268.467,120.238 269.134,117.905 269.5,115.5C 271.5,115.5 273.5,115.5 275.5,115.5C 276.496,106.196 277.163,96.8622 277.5,87.5C 279.5,87.5 281.5,87.5 283.5,87.5C 283.5,86.1667 283.5,84.8333 283.5,83.5C 284.833,83.5 286.167,83.5 287.5,83.5C 286.907,76.7597 286.907,70.0931 287.5,63.5C 288.833,63.5 290.167,63.5 291.5,63.5C 294.107,42.365 295.44,42.365 295.5,63.5C 298.5,63.5 301.5,63.5 304.5,63.5C 305.304,95.1438 305.804,126.81 306,158.5C 306.383,159.056 306.883,159.389 307.5,159.5 Z"/></g>
<g><path style="opacity:1" fill="#0f172a" d="M 79.5,49.5 C 81.5,49.5 83.5,49.5 85.5,49.5C 85.6633,51.8568 85.4966,54.1902 85,56.5C 83.5226,48.6788 82.0226,48.6788 80.5,56.5C 79.5258,54.2573 79.1924,51.924 79.5,49.5 Z"/></g>
<g><path style="opacity:1" fill="#151c31" d="M 111.5,54.5 C 111.167,52.5 110.833,50.5 110.5,48.5C 110.369,47.6236 110.702,46.9569 111.5,46.5C 112.314,48.7662 112.814,51.0995 113,53.5C 113.853,51.0645 114.853,48.7312 116,46.5C 117.163,48.2852 117.83,50.2852 118,52.5C 119.017,50.6241 119.851,48.6241 120.5,46.5C 121.142,49.957 120.476,53.2904 118.5,56.5C 117.066,54.7801 116.233,52.7801 116,50.5C 115.167,52.5 114.333,54.5 113.5,56.5C 112.818,55.7573 112.151,55.0906 111.5,54.5 Z"/></g>
<g><path style="opacity:1" fill="#0e1424" d="M 59.5,47.5 C 60.9221,47.7496 61.9221,48.583 62.5,50C 61.6804,52.3332 61.3471,54.4999 61.5,56.5C 59.95,54.6672 58.95,52.5006 58.5,50C 59.2524,49.3292 59.5858,48.4959 59.5,47.5 Z"/></g>
<g><path style="opacity:1" fill="#131a2a" d="M 64.5,49.5 C 66.0113,57.3319 67.678,57.3319 69.5,49.5C 70.4742,51.7427 70.8076,54.076 70.5,56.5C 68.5,56.5 66.5,56.5 64.5,56.5C 64.5,54.1667 64.5,51.8333 64.5,49.5 Z"/></g>
<g><path style="opacity:1" fill="#191f2f" d="M 76.5,56.5 C 76.7947,54.2646 76.4614,52.2646 75.5,50.5C 74.0108,52.1161 73.0108,54.1161 72.5,56.5C 71.5258,54.2573 71.1924,51.924 71.5,49.5C 73.5,49.5 75.5,49.5 77.5,49.5C 77.8016,52.0593 77.4682,54.3926 76.5,56.5 Z"/></g>
<g><path style="opacity:1" fill="#0b112a" d="M 87.5,49.5 C 88.7251,50.1522 89.3917,51.3189 89.5,53C 89.1667,54.1667 88.8333,55.3333 88.5,56.5C 87.5258,54.2573 87.1924,51.924 87.5,49.5 Z"/></g>
<g><path style="opacity:1" fill="#0e1324" d="M 91.5,49.5 C 97.2354,48.8213 98.902,51.1546 96.5,56.5C 95.1667,48.5 93.8333,48.5 92.5,56.5C 91.5258,54.2573 91.1924,51.924 91.5,49.5 Z"/></g>
<g><path style="opacity:1" fill="#111725" d="M 52.5,46.5 C 54.6648,46.1159 56.3315,46.7826 57.5,48.5C 55.8827,48.6694 54.216,49.0028 52.5,49.5C 53.914,50.624 55.414,51.624 57,52.5C 57.6838,53.7839 57.5171,54.9505 56.5,56C 54.0437,56.9461 52.0437,56.4461 50.5,54.5C 50.8333,54.1667 51.1667,53.8333 51.5,53.5C 53.0935,55.6603 54.7601,55.827 56.5,54C 54.7513,52.7085 52.918,51.5418 51,50.5C 50.7003,48.9343 51.2003,47.601 52.5,46.5 Z"/></g>
<g><path style="opacity:1" fill="#141b2f" d="M 104.5,58.5 C 103.833,58.5 103.5,58.8333 103.5,59.5C 101.897,59.6882 100.563,59.1882 99.5,58C 104.103,58.0628 104.27,57.2295 100,55.5C 99.5045,53.5273 99.3379,51.5273 99.5,49.5C 101.5,49.5 103.5,49.5 105.5,49.5C 105.81,52.7131 105.477,55.7131 104.5,58.5 Z"/></g>
<g><path style="opacity:1" fill="#c9e0f7" d="M 172.5,12.5 C 176.044,14.2684 180.044,15.1018 184.5,15C 181.574,15.2178 178.74,15.7178 176,16.5C 175.501,20.1516 175.335,23.8183 175.5,27.5C 174.167,27.5 172.833,27.5 171.5,27.5C 171.5,28.8333 171.5,30.1667 171.5,31.5C 170.167,31.5 168.833,31.5 167.5,31.5C 167.5,36.8333 167.5,42.1667 167.5,47.5C 164.833,47.5 162.167,47.5 159.5,47.5C 159.5,49.5 159.5,51.5 159.5,53.5C 156.068,53.7573 152.734,54.424 149.5,55.5C 149.5,60.8333 149.5,66.1667 149.5,71.5C 150.833,71.5 152.167,71.5 153.5,71.5C 153.5,72.8333 153.5,74.1667 153.5,75.5C 151.5,75.5 149.5,75.5 147.5,75.5C 147.5,76.8333 147.5,78.1667 147.5,79.5C 144.833,79.5 142.167,79.5 139.5,79.5C 139.5,84.8333 139.5,90.1667 139.5,95.5C 135.37,95.5343 131.37,96.201 127.5,97.5C 127.5,103.5 127.5,109.5 127.5,115.5C 122.167,116.167 122.167,116.833 127.5,117.5C 127.5,122.167 127.5,126.833 127.5,131.5C 125.5,131.5 123.5,131.5 121.5,131.5C 121.33,132.822 121.663,133.989 122.5,135C 120.299,135.825 118.466,135.325 117,133.5C 116,133.833 115,134.167 114,134.5C 113.833,134.167 113.667,133.833 113.5,133.5C 122.766,132.028 122.766,130.862 113.5,130C 112.833,129.333 112.167,128.667 111.5,128C 113.256,127.798 114.922,127.298 116.5,126.5C 112.833,125.167 109.167,125.167 105.5,126.5C 106.729,127.281 108.062,127.781 109.5,128C 104.362,129.916 99.029,130.916 93.5,131C 94,131.5 94.5,132 95,132.5C 97.5633,132.659 100.23,132.325 103,131.5C 105,134.252 107,134.585 109,132.5C 112.593,135.984 112.093,136.984 107.5,135.5C 107.663,137.857 107.497,140.19 107,142.5C 105.989,143.337 104.822,143.67 103.5,143.5C 103.5,148.5 103.5,153.5 103.5,158.5C 111.507,158.334 119.507,158.5 127.5,159C 130.371,159.118 133.038,159.784 135.5,161C 124.992,161.17 114.659,161.67 104.5,162.5C 82.8333,162.5 61.1667,162.5 39.5,162.5C 38.1667,161.833 37.1667,160.833 36.5,159.5C 38.7856,158.66 39.119,157.16 37.5,155C 39.3648,149.353 40.3648,143.519 40.5,137.5C 42.7224,137.178 44.5557,137.845 46,139.5C 46.3333,142.5 46.6667,145.5 47,148.5C 47.8333,149.333 48.6667,150.167 49.5,151C 62.8292,151.5 76.1625,151.667 89.5,151.5C 89.886,147.124 89.2194,142.957 87.5,139C 76.8333,138.667 66.1667,138.333 55.5,138C 53.4839,137.101 51.8172,135.767 50.5,134C 54.3092,134.125 57.6426,133.958 60.5,133.5C 55.5722,133.074 50.9055,131.907 46.5,130C 50.3113,130.083 53.6446,129.25 56.5,127.5C 57.1174,127.389 57.6174,127.056 58,126.5C 62.7177,127.859 67.5511,128.859 72.5,129.5C 70.1667,130.167 67.8333,130.833 65.5,131.5C 67.1667,131.833 68.8333,132.167 70.5,132.5C 72.6413,132.387 74.4747,131.72 76,130.5C 78.8037,132.344 81.9703,133.011 85.5,132.5C 85.7035,134.39 85.0368,135.89 83.5,137C 84.7932,137.49 86.1266,137.657 87.5,137.5C 87.67,136.178 87.3366,135.011 86.5,134C 88.3759,132.983 90.3759,132.149 92.5,131.5C 88.8333,130.833 85.1667,130.167 81.5,129.5C 83.6367,128.92 85.47,127.92 87,126.5C 91.1179,127.798 95.2846,127.798 99.5,126.5C 83.713,125.62 67.713,125.286 51.5,125.5C 50.713,123.896 49.3797,123.229 47.5,123.5C 47.3398,121.801 47.5065,120.134 48,118.5C 48.3333,118.833 48.6667,119.167 49,119.5C 50.8715,116.179 49.7049,114.845 45.5,115.5C 45.3433,114.127 45.51,112.793 46,111.5C 49.4883,109.04 52.4883,109.707 55,113.5C 57.1414,112.925 59.6414,112.592 62.5,112.5C 62.5,111.5 62.5,110.5 62.5,109.5C 57.5195,108.911 52.5195,108.411 47.5,108C 46.7069,106.915 46.0402,105.748 45.5,104.5C 46.2739,103.289 47.1072,103.289 48,104.5C 49.3086,102.109 50.3086,102.109 51,104.5C 51.6667,103.167 52.3333,101.833 53,100.5C 53.3333,101.167 53.6667,101.833 54,102.5C 55.1861,100.323 57.0194,99.3234 59.5,99.5C 60.2035,101.946 60.5368,104.28 60.5,106.5C 62.7659,106.859 64.5993,106.192 66,104.5C 66.3333,105.167 66.6667,105.833 67,106.5C 69,106.5 71,106.5 73,106.5C 73.6667,103.833 74.3333,103.833 75,106.5C 75.4828,105.552 75.6495,104.552 75.5,103.5C 72.7284,104.371 70.0618,104.371 67.5,103.5C 69.2922,102.691 71.2922,102.191 73.5,102C 74.1667,100.667 75.1667,99.6667 76.5,99C 79.8185,98.1208 83.1518,97.2875 86.5,96.5C 84.2573,95.5258 81.924,95.1924 79.5,95.5C 79.5,90.1667 79.5,84.8333 79.5,79.5C 78.1667,79.5 76.8333,79.5 75.5,79.5C 75.1667,77.5 74.8333,75.5 74.5,73.5C 73.209,73.7373 72.209,73.404 71.5,72.5C 73.8447,70.643 74.178,68.3096 72.5,65.5C 73.1667,65.5 73.8333,65.5 74.5,65.5C 76.487,74.8342 77.1537,74.8342 76.5,65.5C 77.1667,65.5 77.8333,65.5 78.5,65.5C 77.791,64.596 76.791,64.2627 75.5,64.5C 74.9628,59.9821 74.9628,55.3154 75.5,50.5C 76.4614,52.2646 76.7947,54.2646 76.5,56.5C 78.183,58.5327 79.3497,60.866 80,63.5C 81.1131,64.7111 82.2798,64.7111 83.5,63.5C 84.2975,63.9569 84.6309,64.6236 84.5,65.5C 84.3893,66.1174 84.056,66.6174 83.5,67C 88.3521,66.5339 88.5187,67.3673 84,69.5C 83.5172,70.448 83.3505,71.448 83.5,72.5C 85.5,72.5 87.5,72.5 89.5,72.5C 89.5,70.5 89.5,68.5 89.5,66.5C 89.5,65.8333 89.8333,65.5 90.5,65.5C 91.3686,67.717 91.702,70.0504 91.5,72.5C 92.5,72.5 93.5,72.5 94.5,72.5C 93.7375,73.2679 92.7375,73.7679 91.5,74C 93.5053,76.6253 95.8386,76.6253 98.5,74C 97.552,73.5172 96.552,73.3505 95.5,73.5C 95.5,70.8333 95.5,68.1667 95.5,65.5C 97.1993,65.5271 98.5326,66.1938 99.5,67.5C 99.0146,72.1585 100.848,73.4919 105,71.5C 105.49,70.2068 105.657,68.8734 105.5,67.5C 106.776,66.6136 106.776,65.6136 105.5,64.5C 103.267,64.1355 101.434,63.1355 100,61.5C 99.1482,62.5707 98.3149,63.5707 97.5,64.5C 97.5912,62.3023 96.9245,61.9689 95.5,63.5C 95.5774,62.2502 96.244,61.4169 97.5,61C 99.7078,60.8091 101.708,60.3091 103.5,59.5C 103.5,58.8333 103.833,58.5 104.5,58.5C 104.369,59.2389 104.536,59.9056 105,60.5C 108.575,59.9717 110.742,57.9717 111.5,54.5C 112.151,55.0906 112.818,55.7573 113.5,56.5C 114.333,54.5 115.167,52.5 116,50.5C 116.233,52.7801 117.066,54.7801 118.5,56.5C 120.476,53.2904 121.142,49.957 120.5,46.5C 119.851,48.6241 119.017,50.6241 118,52.5C 117.83,50.2852 117.163,48.2852 116,46.5C 114.853,48.7312 113.853,51.0645 113,53.5C 112.814,51.0995 112.314,48.7662 111.5,46.5C 110.702,46.9569 110.369,47.6236 110.5,48.5C 109.212,46.5089 109.712,44.8422 112,43.5C 118.191,45.6684 120.358,43.6684 118.5,37.5C 120.452,35.8742 121.786,33.8742 122.5,31.5C 121.5,31.5 120.5,31.5 119.5,31.5C 119.5,28.8333 119.5,26.1667 119.5,23.5C 120.833,23.5 122.167,23.5 123.5,23.5C 123.768,20.8806 123.435,18.3806 122.5,16C 123.5,15.6667 124.5,15.3333 125.5,15C 111.833,14.6667 98.1667,14.3333 84.5,14C 113.81,12.5955 143.143,12.0955 172.5,12.5 Z"/></g>
<g><path style="opacity:1" fill="#0d1428" d="M 127.5,50.5 C 128.404,51.209 128.737,52.209 128.5,53.5C 127.127,53.3433 125.793,53.51 124.5,54C 125.536,55.6169 126.703,55.7836 128,54.5C 128.167,54.8333 128.333,55.1667 128.5,55.5C 123.383,57.5515 121.55,55.8849 123,50.5C 124.616,49.1991 126.116,49.1991 127.5,50.5 Z"/></g>
<g><path style="opacity:1" fill="#bcc8df" d="M 101.5,50.5 C 102.649,50.7911 103.316,51.6244 103.5,53C 102.706,56.1215 101.706,56.1215 100.5,53C 100.743,52.0979 101.077,51.2646 101.5,50.5 Z"/></g>
<g><path style="opacity:1" fill="#a5b5ce" d="M 127.5,50.5 C 127.052,52.4646 126.052,52.7979 124.5,51.5C 125.325,50.6143 126.325,50.281 127.5,50.5 Z"/></g>
<g><path style="opacity:1" fill="#121a2e" d="M 130.5,46.5 C 132.048,46.8212 132.715,47.8212 132.5,49.5C 136.225,49.7796 137.392,51.7796 136,55.5C 134.301,56.4061 132.467,56.7394 130.5,56.5C 130.5,53.1667 130.5,49.8333 130.5,46.5 Z"/></g>
<g><path style="opacity:1" fill="#cedfeb" d="M 132.5,50.5 C 133.649,50.7911 134.316,51.6244 134.5,53C 134.167,53.8333 133.833,54.6667 133.5,55.5C 132.548,53.9547 132.215,52.288 132.5,50.5 Z"/></g>
<g><path style="opacity:1" fill="#1e2b40" d="M 67.5,62.5 C 69.337,62.6395 69.6704,63.3061 68.5,64.5C 67.7025,64.0431 67.3691,63.3764 67.5,62.5 Z"/></g>
<g><path style="opacity:1" fill="#172533" d="M 97.5,64.5 C 96.5084,64.6716 95.8417,64.3382 95.5,63.5C 96.9245,61.9689 97.5912,62.3023 97.5,64.5 Z"/></g>
<g><path style="opacity:1" fill="#161c30" d="M 72.5,65.5 C 74.178,68.3096 73.8447,70.643 71.5,72.5C 71.1984,69.9407 71.5318,67.6074 72.5,65.5 Z"/></g>
<g><path style="opacity:1" fill="#141c30" d="M 67.5,65.5 C 68.7251,66.1522 69.3917,67.3189 69.5,69C 69.1667,70.1667 68.8333,71.3333 68.5,72.5C 67.5258,70.2573 67.1924,67.924 67.5,65.5 Z"/></g>
<g><path style="opacity:1" fill="#02041b" d="M 78.5,65.5 C 79.4959,65.4142 80.3292,65.7476 81,66.5C 81.6667,68.5 81.6667,70.5 81,72.5C 80.8466,69.8494 80.0133,67.5161 78.5,65.5 Z"/></g>
<g><path style="opacity:1" fill="#161c2d" d="M 59.5,65.5 C 61.3888,66.3799 63.3888,66.3799 65.5,65.5C 65.6633,67.8568 65.4966,70.1902 65,72.5C 64.5065,70.8659 64.3398,69.1992 64.5,67.5C 63.5,67.5 62.5,67.5 61.5,67.5C 61.7852,69.288 61.4519,70.9547 60.5,72.5C 59.5258,70.2573 59.1924,67.924 59.5,65.5 Z"/></g>
<g><path style="opacity:1" fill="#000117" d="M 110.5,66.5 C 111.189,65.2264 112.023,65.2264 113,66.5C 113.808,68.5787 113.641,70.5787 112.5,72.5C 111.831,70.3691 111.165,68.3691 110.5,66.5 Z"/></g>
<g><path style="opacity:1" fill="#10192e" d="M 74.5,65.5 C 75.1667,65.5 75.8333,65.5 76.5,65.5C 77.1537,74.8342 76.487,74.8342 74.5,65.5 Z"/></g>
<g><path style="opacity:1" fill="#11182d" d="M 84.5,65.5 C 86.2915,65.366 87.9582,65.6993 89.5,66.5C 89.5,68.5 89.5,70.5 89.5,72.5C 87.5,72.5 85.5,72.5 83.5,72.5C 83.3505,71.448 83.5172,70.448 84,69.5C 88.5187,67.3673 88.3521,66.5339 83.5,67C 84.056,66.6174 84.3893,66.1174 84.5,65.5 Z"/></g>
<g><path style="opacity:1" fill="#0f1322" d="M 94.5,72.5 C 93.5,72.5 92.5,72.5 91.5,72.5C 91.702,70.0504 91.3686,67.717 90.5,65.5C 91.9914,62.7704 93.3248,62.937 94.5,66C 93.232,68.1632 93.232,70.3298 94.5,72.5 Z"/></g>
<g><path style="opacity:1" fill="#141a2a" d="M 107.5,65.5 C 108.993,66.3121 109.66,67.6455 109.5,69.5C 109.167,70.5 108.833,71.5 108.5,72.5C 107.526,70.2573 107.192,67.924 107.5,65.5 Z"/></g>
<g><path style="opacity:1" fill="#111626" d="M 53.5,63.5 C 54.4959,63.4142 55.3292,63.7476 56,64.5C 56.6946,66.7221 57.5279,68.8887 58.5,71C 58.1667,71.5 57.8333,72 57.5,72.5C 55.5,69.8333 53.5,69.8333 51.5,72.5C 51.1667,72.1667 50.8333,71.8333 50.5,71.5C 51.9,68.9646 52.9,66.298 53.5,63.5 Z"/></g>
<g><path style="opacity:1" fill="#c1ccde" d="M 53.5,66.5 C 55.4646,66.9483 55.7979,67.9483 54.5,69.5C 53.6143,68.675 53.281,67.675 53.5,66.5 Z"/></g>
<g><path style="opacity:1" fill="#c7cee6" d="M 85.5,69.5 C 87.337,69.6395 87.6704,70.3061 86.5,71.5C 85.7025,71.0431 85.3691,70.3764 85.5,69.5 Z"/></g>
<g><path style="opacity:1" fill="#0c1125" d="M 105.5,67.5 C 105.657,68.8734 105.49,70.2068 105,71.5C 100.848,73.4919 99.0146,72.1585 99.5,67.5C 101.5,64.8333 103.5,64.8333 105.5,67.5 Z"/></g>
<g><path style="opacity:1" fill="#bbc5db" d="M 100.5,67.5 C 101.833,67.5 103.167,67.5 104.5,67.5C 104.778,69.3464 104.111,70.6798 102.5,71.5C 100.889,70.6798 100.222,69.3464 100.5,67.5 Z"/></g>
<g><path style="opacity:1" fill="#849fb9" d="M 223.5,70.5 C 226.64,69.3592 229.973,69.1925 233.5,70C 234.833,71 234.833,72 233.5,73C 229.848,73.4986 226.182,73.6653 222.5,73.5C 222.663,75.8568 222.497,78.1902 222,80.5C 218.163,83.0847 217.829,82.7514 221,79.5C 221.497,77.1902 221.663,74.8568 221.5,72.5C 225.22,72.4358 228.886,71.9358 232.5,71C 229.518,70.502 226.518,70.3354 223.5,70.5 Z"/></g>
<g><path style="opacity:1" fill="#86a1be" d="M 237.5,81.5 C 235.259,80.7002 234.259,79.0336 234.5,76.5C 232.833,76.5 231.167,76.5 229.5,76.5C 229.8,81.0986 229.467,85.5986 228.5,90C 230.424,90.1792 232.091,90.3459 233.5,90.5C 230.572,91.4841 227.572,91.8174 224.5,91.5C 224.5,90.5 224.5,89.5 224.5,88.5C 225.833,88.5 227.167,88.5 228.5,88.5C 228.5,84.1667 228.5,79.8333 228.5,75.5C 230.833,75.5 233.167,75.5 235.5,75.5C 235.604,77.7028 236.27,79.7028 237.5,81.5 Z"/></g>
<g><path style="opacity:1" fill="#072851" d="M 35.5,15.5 C 35.1718,63.5719 35.5052,111.572 36.5,159.5C 37.1667,160.833 38.1667,161.833 39.5,162.5C 39.5,162.833 39.5,163.167 39.5,163.5C 37.2475,163.084 35.7475,161.751 35,159.5C 34.1684,111.332 34.3351,63.3316 35.5,15.5 Z"/></g>
<g><path style="opacity:1" fill="#aecded" d="M 309.5,17.5 C 310.665,64.9982 310.832,112.665 310,160.5C 309.617,161.056 309.117,161.389 308.5,161.5C 308.5,160.833 308.5,160.167 308.5,159.5C 309.338,159.158 309.672,158.492 309.5,157.5C 309.5,110.833 309.5,64.1667 309.5,17.5 Z"/></g>
<g><path style="opacity:1" fill="#8aa4bf" d="M 237.5,81.5 C 239.017,81.5106 240.184,82.1772 241,83.5C 243.401,88.2317 244.068,93.2317 243,98.5C 242.016,102.153 239.849,104.32 236.5,105C 244.099,97.4542 244.432,89.6209 237.5,81.5 Z"/></g>
<g><path style="opacity:1" fill="#8caac8" d="M 85.5,104.5 C 87.1628,104.702 88.9961,104.369 91,103.5C 92.3261,103.755 93.3261,104.422 94,105.5C 94.6667,102.833 95.3333,102.833 96,105.5C 96.3076,104.692 96.8076,104.025 97.5,103.5C 97.9059,104.557 97.9059,105.891 97.5,107.5C 94.632,107.915 92.4653,106.915 91,104.5C 89.3451,104.802 88.0118,106.136 87,108.5C 86.79,106.942 86.29,105.609 85.5,104.5 Z"/></g>
<g><path style="opacity:1" fill="#88a7c2" d="M 67.5,103.5 C 70.0618,104.371 72.7284,104.371 75.5,103.5C 75.6495,104.552 75.4828,105.552 75,106.5C 74.3333,103.833 73.6667,103.833 73,106.5C 71,106.5 69,106.5 67,106.5C 66.6667,105.833 66.3333,105.167 66,104.5C 64.5993,106.192 62.7659,106.859 60.5,106.5C 61.4989,102.502 63.8322,101.502 67.5,103.5 Z"/></g>
<g><path style="opacity:1" fill="#717987" d="M 95.5,112.5 C 97.1667,112.5 98.8333,112.5 100.5,112.5C 101.167,113.833 101.833,115.167 102.5,116.5C 100.876,116.64 99.7096,115.973 99,114.5C 98.0255,116.878 97.3589,116.544 97,113.5C 96.5172,114.448 96.3505,115.448 96.5,116.5C 95.5,116.5 94.5,116.5 93.5,116.5C 94.1667,115.167 94.8333,113.833 95.5,112.5 Z"/></g>
<g><path style="opacity:1" fill="#92afc9" d="M 69.5,111.5 C 71.7761,111.756 72.9428,113.09 73,115.5C 73.0116,111.015 74.1783,110.515 76.5,114C 76.0556,115.762 75.5556,115.595 75,113.5C 74.5172,114.448 74.3505,115.448 74.5,116.5C 72.2341,116.859 70.4007,116.192 69,114.5C 68.3333,117.167 67.6667,117.167 67,114.5C 66.3457,115.696 65.8457,115.696 65.5,114.5C 67.1836,113.85 68.5169,112.85 69.5,111.5 Z"/></g>
<g><path style="opacity:1" fill="#808a98" d="M 79.5,111.5 C 83.0562,111.275 83.3895,112.108 80.5,114C 80.6667,114.5 80.8333,115 81,115.5C 82.0195,114.313 83.1861,113.313 84.5,112.5C 86.8333,112.5 89.1667,112.5 91.5,112.5C 92.6139,113.723 92.7805,115.056 92,116.5C 88.2375,115.644 84.5708,115.644 81,116.5C 78.6974,115.257 78.1974,113.591 79.5,111.5 Z"/></g>
<g><path style="opacity:1" fill="#88909f" d="M 106.5,112.5 C 108.857,112.337 111.19,112.503 113.5,113C 112.167,113.667 112.167,114.333 113.5,115C 110.738,117.019 108.072,116.852 105.5,114.5C 105.863,113.817 106.196,113.15 106.5,112.5 Z"/></g>
<g><path style="opacity:1" fill="#adc9e6" d="M 51.5,125.5 C 67.713,125.286 83.713,125.62 99.5,126.5C 95.2846,127.798 91.1179,127.798 87,126.5C 85.47,127.92 83.6367,128.92 81.5,129.5C 85.1667,130.167 88.8333,130.833 92.5,131.5C 90.3759,132.149 88.3759,132.983 86.5,134C 87.3366,135.011 87.67,136.178 87.5,137.5C 86.1266,137.657 84.7932,137.49 83.5,137C 85.0368,135.89 85.7035,134.39 85.5,132.5C 81.9703,133.011 78.8037,132.344 76,130.5C 74.4747,131.72 72.6413,132.387 70.5,132.5C 68.8333,132.167 67.1667,131.833 65.5,131.5C 67.8333,130.833 70.1667,130.167 72.5,129.5C 67.5511,128.859 62.7177,127.859 58,126.5C 57.6174,127.056 57.1174,127.389 56.5,127.5C 54.076,127.808 51.7427,127.474 49.5,126.5C 50.2003,126.213 50.8669,125.88 51.5,125.5 Z"/></g>
<g><path style="opacity:1" fill="#bdd9f6" d="M 302.5,11.5 C 305.167,12.1667 306.833,13.8333 307.5,16.5C 307.5,63.8333 307.5,111.167 307.5,158.5C 307.5,158.833 307.5,159.167 307.5,159.5C 306.883,159.389 306.383,159.056 306,158.5C 305.804,126.81 305.304,95.1438 304.5,63.5C 301.5,63.5 298.5,63.5 295.5,63.5C 295.44,42.365 294.107,42.365 291.5,63.5C 290.167,63.5 288.833,63.5 287.5,63.5C 286.907,70.0931 286.907,76.7597 287.5,83.5C 286.167,83.5 284.833,83.5 283.5,83.5C 283.5,84.8333 283.5,86.1667 283.5,87.5C 281.5,87.5 279.5,87.5 277.5,87.5C 277.163,96.8622 276.496,106.196 275.5,115.5C 273.5,115.5 271.5,115.5 269.5,115.5C 269.134,117.905 268.467,120.238 267.5,122.5C 267.833,123.167 268.167,123.833 268.5,124.5C 270.366,123.437 270.866,124.104 270,126.5C 267.957,128.208 266.29,130.208 265,132.5C 264.667,131.833 264.333,131.167 264,130.5C 261.482,132.682 260.315,135.182 260.5,138C 259.019,138.98 257.685,140.147 256.5,141.5C 255.784,140.689 254.95,140.022 254,139.5C 251.006,140.487 250.839,141.82 253.5,143.5C 252.147,144.524 251.48,145.857 251.5,147.5C 248.161,147.11 244.827,146.61 241.5,146C 249.434,145.477 249.434,144.644 241.5,143.5C 237.606,144.807 233.606,145.473 229.5,145.5C 224.834,144.832 220.167,144.665 215.5,145C 224.798,146.165 234.131,146.998 243.5,147.5C 243.5,151.5 243.5,155.5 243.5,159.5C 263.178,159.167 282.845,159.5 302.5,160.5C 300.234,161.314 297.9,161.814 295.5,162C 263.664,162.168 231.997,162.668 200.5,163.5C 146.833,163.5 93.1667,163.5 39.5,163.5C 39.5,163.167 39.5,162.833 39.5,162.5C 61.1667,162.5 82.8333,162.5 104.5,162.5C 129.169,162.667 153.836,162.5 178.5,162C 182.028,161.911 185.362,161.244 188.5,160C 178.824,159.579 169.157,159.079 159.5,158.5C 159.5,156.167 159.5,153.833 159.5,151.5C 162.167,151.5 164.833,151.5 167.5,151.5C 167.5,148.833 167.5,146.167 167.5,143.5C 170.167,143.5 172.833,143.5 175.5,143.5C 175.5,140.833 175.5,138.167 175.5,135.5C 177.5,135.5 179.5,135.5 181.5,135.5C 181.299,132.272 181.633,129.105 182.5,126C 181.917,123.501 180.584,121.501 178.5,120C 178.957,119.586 179.291,119.086 179.5,118.5C 177.969,117.387 176.969,115.887 176.5,114C 176.833,113.167 177.167,112.333 177.5,111.5C 178.926,114.768 180.593,117.935 182.5,121C 185.353,122.43 188.353,123.263 191.5,123.5C 191.5,122.167 191.5,120.833 191.5,119.5C 190.167,119.5 188.833,119.5 187.5,119.5C 187.238,118.022 187.571,116.689 188.5,115.5C 191.825,117.153 193.492,119.82 193.5,123.5C 197.117,125.076 200.784,126.743 204.5,128.5C 206.229,132.867 209.229,134.2 213.5,132.5C 218.721,134.139 224.054,135.139 229.5,135.5C 238.705,133.385 247.372,130.718 255.5,127.5C 258.904,124.051 262.404,120.718 266,117.5C 266.837,115.156 268.171,113.156 270,111.5C 270.684,110.216 270.517,109.049 269.5,108C 270.516,107.481 271.182,106.647 271.5,105.5C 272.023,101.509 273.023,97.6756 274.5,94C 274.437,87.9352 273.937,81.7685 273,75.5C 272.667,76.8333 272.333,78.1667 272,79.5C 271.234,73.8142 269.734,68.4809 267.5,63.5C 264.488,62.745 261.822,61.4116 259.5,59.5C 259.5,58.1667 259.5,56.8333 259.5,55.5C 258.167,55.5 256.833,55.5 255.5,55.5C 255.129,52.1084 253.463,49.4418 250.5,47.5C 249.914,47.7093 249.414,48.0426 249,48.5C 243.709,42.7291 237.542,41.0624 230.5,43.5C 230.5,39.5 230.5,35.5 230.5,31.5C 233.157,31.8297 235.824,32.163 238.5,32.5C 239.833,32.1667 241.167,31.8333 242.5,31.5C 241.675,30.6143 240.675,30.281 239.5,30.5C 239.5,25.5 239.5,20.5 239.5,15.5C 256.614,13.562 277.614,12.2287 302.5,11.5 Z"/></g>
<g><path style="opacity:1" fill="#1c3962" d="M 273.5,122.5 C 275.337,122.639 275.67,123.306 274.5,124.5C 273.702,124.043 273.369,123.376 273.5,122.5 Z"/></g>
<g><path style="opacity:1" fill="#214e7c" d="M 266.5,46.5 C 268.527,46.3379 270.527,46.5045 272.5,47C 273.948,51.4598 272.281,53.1265 267.5,52C 266.594,50.3005 266.261,48.4672 266.5,46.5 Z"/></g>
<g><path style="opacity:1" fill="#f7fbfd" d="M 51.5,139.5 C 62.1719,139.333 72.8385,139.5 83.5,140C 89.0852,142.342 89.7519,145.675 85.5,150C 74.152,150.832 62.8187,150.666 51.5,149.5C 48.8339,146.166 48.8339,142.832 51.5,139.5 Z"/></g>
<g><path style="opacity:1" fill="#9eabba" d="M 56.5,143.5 C 63.3215,144.311 69.9882,144.978 76.5,145.5C 69.7545,145.68 63.0878,146.013 56.5,146.5C 56.5,145.5 56.5,144.5 56.5,143.5 Z"/></g>
<g><path style="opacity:1" fill="#335b87" d="M 307.5,158.5 C 308.167,158.5 308.5,158.833 308.5,159.5C 308.5,160.167 308.5,160.833 308.5,161.5C 306.692,162.907 304.692,164.074 302.5,165C 215.5,165.667 128.5,165.667 41.5,165C 40.5842,164.722 39.9175,164.222 39.5,163.5C 93.1667,163.5 146.833,163.5 200.5,163.5C 234.835,163.667 269.168,163.5 303.5,163C 305.324,162.34 306.657,161.173 307.5,159.5C 307.5,159.167 307.5,158.833 307.5,158.5 Z"/></g>
<g><path style="opacity:1" fill="#93598a" d="M 21.5,160.5 C 22.766,161.09 24.0993,161.59 25.5,162C 24.5,163 23.5,164 22.5,165C 27.0195,165.175 31.3528,165.675 35.5,166.5C 30.8333,166.5 26.1667,166.5 21.5,166.5C 21.5,164.5 21.5,162.5 21.5,160.5 Z"/></g>
<g><path style="opacity:1" fill="#641f50" d="M 16.5,164.5 C 19.512,167.369 18.8453,168.702 14.5,168.5C 14.6596,166.847 15.3263,165.514 16.5,164.5 Z"/></g>
<g><path style="opacity:1" fill="#d4b7df" d="M 21.5,160.5 C 21.5,162.5 21.5,164.5 21.5,166.5C 20.5139,170.97 20.1805,175.637 20.5,180.5C 19.7784,180.082 19.2784,179.416 19,178.5C 18.502,175.518 18.3354,172.518 18.5,169.5C 16.901,169.768 15.5676,169.434 14.5,168.5C 18.8453,168.702 19.512,167.369 16.5,164.5C 16.7024,163.636 17.0357,162.636 17.5,161.5C 18.7362,160.754 20.0695,160.421 21.5,160.5 Z"/></g>
<g><path style="opacity:1" fill="#bbcad7" d="M 303.5,179.5 C 302.71,178.391 302.21,177.058 302,175.5C 301.148,176.571 300.315,177.571 299.5,178.5C 299.672,177.508 299.338,176.842 298.5,176.5C 298.565,176.062 298.399,175.728 298,175.5C 296.577,180.621 295.577,180.621 295,175.5C 294.51,176.793 294.343,178.127 294.5,179.5C 293.978,177.781 292.978,176.448 291.5,175.5C 289.851,174.351 288.351,173.018 287,171.5C 282.758,173.316 281.258,176.316 282.5,180.5C 272.577,181.206 262.577,181.54 252.5,181.5C 247.791,180.094 243.124,179.427 238.5,179.5C 236.044,180.948 233.378,181.614 230.5,181.5C 195.135,180.802 159.802,180.802 124.5,181.5C 120.861,180.674 117.194,180.007 113.5,179.5C 101.357,181.112 89.3573,182.112 77.5,182.5C 74.557,181.756 71.557,181.256 68.5,181C 70.5951,180.444 70.7618,179.944 69,179.5C 66.2965,180.589 63.7965,181.255 61.5,181.5C 60.5713,180.311 60.238,178.978 60.5,177.5C 58.5,177.5 56.5,177.5 54.5,177.5C 49.6383,178.547 44.9717,178.547 40.5,177.5C 39.1582,180.321 38.4916,180.154 38.5,177C 38.8618,175.566 39.5285,174.399 40.5,173.5C 45.7973,174.646 51.1307,174.813 56.5,174C 56.5,172.667 56.5,171.333 56.5,170C 52.2645,170.61 48.2645,170.443 44.5,169.5C 43.0098,171.376 41.3431,172.043 39.5,171.5C 39.1667,171.5 38.8333,171.5 38.5,171.5C 38.5,169.833 38.5,168.167 38.5,166.5C 125.503,166.167 212.503,166.5 299.5,167.5C 302.167,169.167 302.167,170.833 299.5,172.5C 302.987,173.509 304.32,175.842 303.5,179.5 Z"/></g>
<g><path style="opacity:1" fill="#7b7587" d="M 60.5,169.5 C 64.1378,168.737 65.6378,170.07 65,173.5C 62.9068,174.246 60.9068,174.579 59,174.5C 59.1484,173.175 58.9817,172.008 58.5,171C 59.4158,170.722 60.0825,170.222 60.5,169.5 Z"/></g>
<g><path style="opacity:1" fill="#7c6e84" d="M 40.5,173.5 C 39.6618,173.158 39.3284,172.492 39.5,171.5C 41.3431,172.043 43.0098,171.376 44.5,169.5C 48.2645,170.443 52.2645,170.61 56.5,170C 56.5,171.333 56.5,172.667 56.5,174C 51.1307,174.813 45.7973,174.646 40.5,173.5 Z"/></g>
<g><path style="opacity:1" fill="#d1a26b" d="M 291.5,175.5 C 291.5,175.833 291.5,176.167 291.5,176.5C 289.795,177.535 288.128,177.535 286.5,176.5C 285.016,177.467 284.016,178.8 283.5,180.5C 283.167,180.5 282.833,180.5 282.5,180.5C 281.258,176.316 282.758,173.316 287,171.5C 288.351,173.018 289.851,174.351 291.5,175.5 Z"/></g>
<g><path style="opacity:1" fill="#b2755f" d="M 291.5,176.5 C 291.649,177.552 291.483,178.552 291,179.5C 288.566,182.631 286.066,182.964 283.5,180.5C 284.016,178.8 285.016,177.467 286.5,176.5C 288.128,177.535 289.795,177.535 291.5,176.5 Z"/></g>
<g><path style="opacity:1" fill="#151e2b" d="M 298.5,176.5 C 298.663,180.035 297.33,181.035 294.5,179.5C 294.343,178.127 294.51,176.793 295,175.5C 295.577,180.621 296.577,180.621 298,175.5C 298.399,175.728 298.565,176.062 298.5,176.5 Z"/></g>
<g><path style="opacity:1" fill="#1b232d" d="M 303.5,179.5 C 302.375,180.014 301.209,180.347 300,180.5C 299.536,179.906 299.369,179.239 299.5,178.5C 300.315,177.571 301.148,176.571 302,175.5C 302.21,177.058 302.71,178.391 303.5,179.5 Z"/></g>
<g><path style="opacity:1" fill="#d89c82" d="M 327.5,175.5 C 327.833,175.5 328.167,175.5 328.5,175.5C 327.272,177.01 327.272,178.51 328.5,180C 320.71,180.205 313.043,180.038 305.5,179.5C 305.5,178.167 305.5,176.833 305.5,175.5C 308.157,175.162 310.49,175.829 312.5,177.5C 313.5,176.833 314.5,176.167 315.5,175.5C 319.269,176.621 323.269,176.621 327.5,175.5 Z"/></g>
<g><path style="opacity:1" fill="#420235" d="M 21.5,166.5 C 26.1667,166.5 30.8333,166.5 35.5,166.5C 36.1667,166.5 36.5,166.833 36.5,167.5C 36.6657,171.846 36.499,176.179 36,180.5C 31.5986,181.467 27.0986,181.8 22.5,181.5C 21.8333,181.167 21.1667,180.833 20.5,180.5C 20.1805,175.637 20.5139,170.97 21.5,166.5 Z"/></g>
<g><path style="opacity:1" fill="#d962cf" d="M 32.5,168.5 C 34.3878,170.988 35.0545,173.988 34.5,177.5C 31.7395,178.085 30.0728,177.085 29.5,174.5C 30.8214,172.668 31.8214,170.668 32.5,168.5 Z"/></g>
<g><path style="opacity:1" fill="#cf5dc7" d="M 22.5,169.5 C 24.3694,171.889 26.2028,171.889 28,169.5C 27.5543,172.254 27.3876,174.921 27.5,177.5C 26.8076,176.975 26.3076,176.308 26,175.5C 25.0347,177.26 23.868,177.594 22.5,176.5C 23.6716,174.177 23.6716,171.844 22.5,169.5 Z"/></g>
<g><path style="opacity:1" fill="#c4a1cf" d="M 36.5,167.5 C 37.4345,168.568 37.7678,169.901 37.5,171.5C 37.7935,175.437 37.4601,179.27 36.5,183C 31.6894,183.004 27.0227,182.504 22.5,181.5C 27.0986,181.8 31.5986,181.467 36,180.5C 36.499,176.179 36.6657,171.846 36.5,167.5 Z"/></g>
<g><path style="opacity:1" fill="#bab9ce" d="M 37.5,171.5 C 37.8333,171.5 38.1667,171.5 38.5,171.5C 38.8333,171.5 39.1667,171.5 39.5,171.5C 39.3284,172.492 39.6618,173.158 40.5,173.5C 39.5285,174.399 38.8618,175.566 38.5,177C 38.4916,180.154 39.1582,180.321 40.5,177.5C 44.9717,178.547 49.6383,178.547 54.5,177.5C 55.9187,178.451 57.5853,178.784 59.5,178.5C 59.5875,181.598 59.0875,181.932 58,179.5C 55.4461,180.771 52.6128,181.438 49.5,181.5C 46.4451,181.456 43.4451,181.123 40.5,180.5C 39.1552,181.347 38.1552,182.513 37.5,184C 31.6513,184.818 25.9846,184.652 20.5,183.5C 20.5,182.5 20.5,181.5 20.5,180.5C 21.1667,180.833 21.8333,181.167 22.5,181.5C 27.0227,182.504 31.6894,183.004 36.5,183C 37.4601,179.27 37.7935,175.437 37.5,171.5 Z"/></g>
</svg>
