<?xml version="1.0" encoding="UTF-8"?>
<!DOCTYPE svg PUBLIC "-//W3C//DTD SVG 1.1//EN" "http://www.w3.org/Graphics/SVG/1.1/DTD/svg11.dtd">
<svg xmlns="http://www.w3.org/2000/svg" version="1.1" width="336px" height="188px" style="shape-rendering:geometricPrecision; text-rendering:geometricPrecision; image-rendering:optimizeQuality; fill-rule:evenodd; clip-rule:evenodd" xmlns:xlink="http://www.w3.org/1999/xlink">
<g><path style="opacity:1" fill="#c8d2da" d="M -0.5,-0.5 C 14.5,-0.5 29.5,-0.5 44.5,-0.5C 44.3333,36.8348 44.5,74.1682 45,111.5C 46.7398,112.716 47.7398,114.382 48,116.5C 49.3189,118.487 51.1523,119.654 53.5,120C 86.1667,120.667 118.833,120.667 151.5,120C 154.762,119.732 157.262,118.232 159,115.5C 160.476,76.8814 160.976,38.2147 160.5,-0.5C 163.833,-0.5 167.167,-0.5 170.5,-0.5C 170.333,36.8348 170.5,74.1682 171,111.5C 172.442,115.275 174.942,118.108 178.5,120C 211.5,120.667 244.5,120.667 277.5,120C 281.907,118.595 285.074,115.761 287,111.5C 287.5,74.1682 287.667,36.8348 287.5,-0.5C 303.5,-0.5 319.5,-0.5 335.5,-0.5C 335.5,62.1667 335.5,124.833 335.5,187.5C 263.5,187.5 191.5,187.5 119.5,187.5C 133.127,185.518 147.127,184.851 161.5,185.5C 160.838,181.66 160.505,177.994 160.5,174.5C 161.978,174.762 163.311,174.429 164.5,173.5C 161.833,170.5 161.833,167.5 164.5,164.5C 163.147,163.476 162.48,162.143 162.5,160.5C 161.5,160.5 160.5,160.5 159.5,160.5C 159.169,162.322 158.502,163.989 157.5,165.5C 157.167,165.5 156.833,165.5 156.5,165.5C 155.508,163.974 154.008,163.307 152,163.5C 149.992,163.307 148.492,163.974 147.5,165.5C 146.833,165.167 146.167,164.833 145.5,164.5C 145.611,163.883 145.944,163.383 146.5,163C 143.3,162.899 140.3,162.232 137.5,161C 137.833,160.667 138.167,160.333 138.5,160C 137.726,157.595 137.226,155.095 137,152.5C 134.895,150.985 135.061,150.485 137.5,151C 138.423,153.934 139.756,154.1 141.5,151.5C 142.497,151.53 143.164,151.03 143.5,150C 142.493,148.48 141.827,146.813 141.5,145C 142.698,142.134 142.698,139.301 141.5,136.5C 140.5,136.5 139.5,136.5 138.5,136.5C 138.52,138.143 137.853,139.476 136.5,140.5C 138.26,143.212 138.927,146.212 138.5,149.5C 137.686,147.369 137.186,145.036 137,142.5C 136.809,144.708 136.309,146.708 135.5,148.5C 135.663,146.143 135.497,143.81 135,141.5C 129.228,138.095 126.061,139.762 125.5,146.5C 124.833,146.5 124.167,146.5 123.5,146.5C 124.833,137.833 121.167,134.167 112.5,135.5C 112.5,140.5 112.5,145.5 112.5,150.5C 114.5,150.5 116.5,150.5 118.5,150.5C 116.369,151.314 114.036,151.814 111.5,152C 123.38,152.382 123.38,153.382 111.5,155C 113.982,156.594 114.148,158.428 112,160.5C 111.667,159.5 111.333,158.5 111,157.5C 110.502,159.527 110.669,161.527 111.5,163.5C 111.058,164.739 110.391,165.739 109.5,166.5C 108.069,165.22 107.402,163.553 107.5,161.5C 107.036,154.039 106.536,146.372 106,138.5C 104.938,137.903 103.772,137.57 102.5,137.5C 98.5603,138.423 94.8936,139.09 91.5,139.5C 88.7284,140.371 86.0618,140.371 83.5,139.5C 82.8333,139.5 82.1667,139.5 81.5,139.5C 80.5,139.5 79.5,139.5 78.5,139.5C 79.5,138.833 80.5,138.167 81.5,137.5C 81.5,136.833 81.5,136.167 81.5,135.5C 80.0813,134.549 78.4147,134.216 76.5,134.5C 76.8808,136.942 76.2141,137.609 74.5,136.5C 73.6143,137.325 73.281,138.325 73.5,139.5C 70.1216,138.891 68.1216,140.224 67.5,143.5C 66.8333,143.5 66.1667,143.5 65.5,143.5C 65.4894,141.983 64.8228,140.816 63.5,140C 60.829,140.806 58.1623,140.639 55.5,139.5C 55.5,143.167 55.5,146.833 55.5,150.5C 56.5,150.5 57.5,150.5 58.5,150.5C 58.3359,147.813 58.5026,145.146 59,142.5C 60,141.167 61,141.167 62,142.5C 62.4974,145.146 62.6641,147.813 62.5,150.5C 64.2922,151.309 66.2922,151.809 68.5,152C 69.3366,153.011 69.67,154.178 69.5,155.5C 67.5168,155.157 66.1834,155.824 65.5,157.5C 65.5,157.833 65.5,158.167 65.5,158.5C 65.1667,159.167 64.8333,159.833 64.5,160.5C 64.5,165.167 64.5,169.833 64.5,174.5C 63.8333,169.167 63.1667,163.833 62.5,158.5C 61.5,158.5 60.5,158.5 59.5,158.5C 59.7845,160.415 59.4511,162.081 58.5,163.5C 56.7986,162.266 54.7986,161.599 52.5,161.5C 49.5182,162.332 46.5182,162.499 43.5,162C 45.3985,158.638 44.7318,158.638 41.5,162C 38.6353,162.183 35.9686,162.683 33.5,163.5C 30.8619,164.242 29.5286,166.075 29.5,169C 29.5152,171.842 30.8485,173.675 33.5,174.5C 34.531,175.249 35.6976,175.915 37,176.5C 40.2704,175.868 43.4371,175.201 46.5,174.5C 48.1834,174.381 49.85,174.048 51.5,173.5C 54.0976,177.213 54.7643,181.213 53.5,185.5C 69.2031,184.849 84.5364,185.516 99.5,187.5C 66.1667,187.5 32.8333,187.5 -0.5,187.5C -0.5,124.833 -0.5,62.1667 -0.5,-0.5 Z"/></g>
<g><path style="opacity:1" fill="#b4bcc4" d="M 170.5,-0.5 C 172.5,-0.5 174.5,-0.5 176.5,-0.5C 176.333,35.8349 176.5,72.1682 177,108.5C 177.383,109.056 177.883,109.389 178.5,109.5C 178.833,110.167 179.167,110.833 179.5,111.5C 179.84,113.679 180.84,115.512 182.5,117C 213.833,117.667 245.167,117.667 276.5,117C 281.899,116.103 284.565,112.937 284.5,107.5C 283.186,75.6707 283.186,43.8374 284.5,12C 283.88,7.7991 283.213,3.63243 282.5,-0.5C 284.167,-0.5 285.833,-0.5 287.5,-0.5C 287.667,36.8348 287.5,74.1682 287,111.5C 285.074,115.761 281.907,118.595 277.5,120C 244.5,120.667 211.5,120.667 178.5,120C 174.942,118.108 172.442,115.275 171,111.5C 170.5,74.1682 170.333,36.8348 170.5,-0.5 Z"/></g>
<g><path style="opacity:1" fill="#191919" d="M 177.5,-0.5 C 212.167,-0.5 246.833,-0.5 281.5,-0.5C 281.667,35.5015 281.5,71.5015 281,107.5C 279.516,110.821 277.016,112.821 273.5,113.5C 263.5,112.833 253.5,112.167 243.5,111.5C 239.049,110.173 234.216,109.506 229,109.5C 223.784,109.506 218.951,110.173 214.5,111.5C 204.167,112.167 193.833,112.833 183.5,113.5C 181.938,113.267 180.605,112.6 179.5,111.5C 179.167,110.833 178.833,110.167 178.5,109.5C 177.513,72.8764 177.179,36.2097 177.5,-0.5 Z"/></g>
<g><path style="opacity:1" fill="#b7b7b7" d="M 228.5,6.5 C 230.258,6.87688 231.925,7.54355 233.5,8.5C 235.167,7.16667 236.833,7.16667 238.5,8.5C 239.833,7.83333 241.167,7.16667 242.5,6.5C 243.474,8.74269 243.808,11.076 243.5,13.5C 239.653,12.9802 235.653,12.9802 231.5,13.5C 230.968,8.20299 230.134,8.20299 229,13.5C 228.503,11.1902 228.337,8.85684 228.5,6.5 Z"/></g>
<g><path style="opacity:1" fill="#e4e4e4" d="M 248.5,6.5 C 248.702,8.94965 248.369,11.283 247.5,13.5C 244.756,12.9283 243.923,11.2617 245,8.5C 246.113,7.69499 247.279,7.02832 248.5,6.5 Z"/></g>
<g><path style="opacity:1" fill="#181818" d="M 245.5,9.5 C 247.337,9.63945 247.67,10.3061 246.5,11.5C 245.702,11.0431 245.369,10.3764 245.5,9.5 Z"/></g>
<g><path style="opacity:1" fill="#cacaca" d="M 215.5,6.5 C 216.833,6.5 218.167,6.5 219.5,6.5C 219.262,10.0993 220.262,10.4327 222.5,7.5C 226.293,9.36425 226.459,11.3642 223,13.5C 221.739,13.2409 220.739,12.5742 220,11.5C 218.951,13.1066 217.451,13.7733 215.5,13.5C 215.167,9.5 214.833,9.5 214.5,13.5C 212.052,13.9153 210.719,12.9153 210.5,10.5C 211.286,7.02524 212.786,6.69191 215,9.5C 215.483,8.55198 215.649,7.55198 215.5,6.5 Z"/></g>
<g><path style="opacity:1" fill="#000000" d="M 221.5,9.5 C 223.337,9.63945 223.67,10.3061 222.5,11.5C 221.702,11.0431 221.369,10.3764 221.5,9.5 Z"/></g>
<g><path style="opacity:1" fill="#999999" d="M 248.5,6.5 C 249.5,6.5 250.5,6.5 251.5,6.5C 251.5,8.83333 251.5,11.1667 251.5,13.5C 250.167,13.5 248.833,13.5 247.5,13.5C 248.369,11.283 248.702,8.94965 248.5,6.5 Z"/></g>
<g><path style="opacity:1" fill="#cacaca" d="M 203.5,6.5 C 204.756,6.90384 205.923,7.57051 207,8.5C 207.945,8.09464 208.612,7.42797 209,6.5C 209.751,11.373 209.584,12.7063 208.5,10.5C 207.5,10.5 206.5,10.5 205.5,10.5C 205.719,11.675 205.386,12.675 204.5,13.5C 203.526,11.2573 203.192,8.92397 203.5,6.5 Z"/></g>
<g><path style="opacity:1" fill="#000104" d="M 176.5,-0.5 C 176.833,-0.5 177.167,-0.5 177.5,-0.5C 177.179,36.2097 177.513,72.8764 178.5,109.5C 177.883,109.389 177.383,109.056 177,108.5C 176.5,72.1682 176.333,35.8349 176.5,-0.5 Z"/></g>
<g><path style="opacity:1" fill="#5e5e5e" d="M 228.5,16.5 C 229.478,16.811 230.145,17.4777 230.5,18.5C 227.5,19.8333 224.5,19.8333 221.5,18.5C 223.969,17.8319 226.302,17.1653 228.5,16.5 Z"/></g>
<g><path style="opacity:1" fill="#5c5c5c" d="M 232.5,16.5 C 236.172,17.0206 239.838,17.6872 243.5,18.5C 239.5,19.8333 235.5,19.8333 231.5,18.5C 231.863,17.8165 232.196,17.1499 232.5,16.5 Z"/></g>
<g><path style="opacity:1" fill="#5f5f5f" d="M 203.5,16.5 C 208.99,16.6862 214.657,17.3529 220.5,18.5C 215.407,19.329 210.074,19.4957 204.5,19C 203.748,18.3292 203.414,17.4959 203.5,16.5 Z"/></g>
<g><path style="opacity:1" fill="#b86b3e" d="M 226.5,57.5 C 236.024,57.5224 239.858,62.189 238,71.5C 232.492,79.0921 226.492,79.4255 220,72.5C 219.333,69.5 219.333,66.5 220,63.5C 221.914,61.1435 224.081,59.1435 226.5,57.5 Z"/></g>
<g><path style="opacity:1" fill="#1a1817" d="M 225.5,60.5 C 236.281,60.23 238.947,64.73 233.5,74C 224.895,76.7337 221.062,73.5671 222,64.5C 223.032,62.9733 224.199,61.64 225.5,60.5 Z"/></g>
<g><path style="opacity:1" fill="#5c5c5c" d="M 243.5,111.5 C 233.833,111.5 224.167,111.5 214.5,111.5C 218.951,110.173 223.784,109.506 229,109.5C 234.216,109.506 239.049,110.173 243.5,111.5 Z"/></g>
<g><path style="opacity:1" fill="#afb4bb" d="M 281.5,-0.5 C 281.833,-0.5 282.167,-0.5 282.5,-0.5C 283.213,3.63243 283.88,7.7991 284.5,12C 283.186,43.8374 283.186,75.6707 284.5,107.5C 284.565,112.937 281.899,116.103 276.5,117C 245.167,117.667 213.833,117.667 182.5,117C 180.84,115.512 179.84,113.679 179.5,111.5C 180.605,112.6 181.938,113.267 183.5,113.5C 213.5,113.5 243.5,113.5 273.5,113.5C 277.016,112.821 279.516,110.821 281,107.5C 281.5,71.5015 281.667,35.5015 281.5,-0.5 Z"/></g>
<g><path style="opacity:1" fill="#000203" d="M 214.5,111.5 C 224.167,111.5 233.833,111.5 243.5,111.5C 253.5,112.167 263.5,112.833 273.5,113.5C 243.5,113.5 213.5,113.5 183.5,113.5C 193.833,112.833 204.167,112.167 214.5,111.5 Z"/></g>
<g><path style="opacity:1" fill="#b6bdc5" d="M 44.5,-0.5 C 46.1667,-0.5 47.8333,-0.5 49.5,-0.5C 49.3333,35.5015 49.5,71.5015 50,107.5C 51.6617,110.577 54.1617,112.577 57.5,113.5C 88.5437,113.818 119.544,113.485 150.5,112.5C 152.934,111.229 154.434,109.229 155,106.5C 155.5,70.8349 155.667,35.1682 155.5,-0.5C 157.167,-0.5 158.833,-0.5 160.5,-0.5C 160.976,38.2147 160.476,76.8814 159,115.5C 157.262,118.232 154.762,119.732 151.5,120C 118.833,120.667 86.1667,120.667 53.5,120C 51.1523,119.654 49.3189,118.487 48,116.5C 47.7398,114.382 46.7398,112.716 45,111.5C 44.5,74.1682 44.3333,36.8348 44.5,-0.5 Z"/></g>
<g><path style="opacity:1" fill="#010203" d="M 87.5,111.5 C 97.5,111.5 107.5,111.5 117.5,111.5C 128.545,112.428 139.545,112.761 150.5,112.5C 119.544,113.485 88.5437,113.818 57.5,113.5C 67.5,112.833 77.5,112.167 87.5,111.5 Z"/></g>
<g><path style="opacity:1" fill="#1a1a1a" d="M 49.5,-0.5 C 84.8333,-0.5 120.167,-0.5 155.5,-0.5C 155.667,35.1682 155.5,70.8349 155,106.5C 154.434,109.229 152.934,111.229 150.5,112.5C 139.545,112.761 128.545,112.428 117.5,111.5C 112.881,110.172 107.881,109.506 102.5,109.5C 97.1194,109.506 92.1194,110.172 87.5,111.5C 77.5,112.167 67.5,112.833 57.5,113.5C 54.1617,112.577 51.6617,110.577 50,107.5C 49.5,71.5015 49.3333,35.5015 49.5,-0.5 Z"/></g>
<g><path style="opacity:1" fill="#5a5a5a" d="M 117.5,111.5 C 107.5,111.5 97.5,111.5 87.5,111.5C 92.1194,110.172 97.1194,109.506 102.5,109.5C 107.881,109.506 112.881,110.172 117.5,111.5 Z"/></g>
<g><path style="opacity:1" fill="#606060" d="M 80.5,16.5 C 85.121,17.1153 89.7877,17.782 94.5,18.5C 91.2679,18.9458 87.7679,19.2791 84,19.5C 81.8333,19.1667 79.6667,18.8333 77.5,18.5C 78.6016,17.8243 79.6016,17.1577 80.5,16.5 Z"/></g>
<g><path style="opacity:1" fill="#5a5a5a" d="M 105.5,16.5 C 131.796,17.8696 131.796,18.8696 105.5,19.5C 105.5,18.5 105.5,17.5 105.5,16.5 Z"/></g>
<g><path style="opacity:1" fill="#a2a2a2" d="M 123.5,6.5 C 125.117,8.30044 126.45,10.4671 127.5,13C 126.863,14.7126 125.863,14.8793 124.5,13.5C 123.526,11.2573 123.192,8.92397 123.5,6.5 Z"/></g>
<g><path style="opacity:1" fill="#c9c9c9" d="M 108.5,7.5 C 109.496,7.41423 110.329,7.74756 111,8.5C 111.494,10.1341 111.66,11.8008 111.5,13.5C 110.167,13.5 108.833,13.5 107.5,13.5C 107.325,11.3792 107.659,9.3792 108.5,7.5 Z"/></g>
<g><path style="opacity:1" fill="#d2d2d2" d="M 115.5,6.5 C 116.931,6.88066 117.764,7.88066 118,9.5C 119.449,8.38589 120.783,7.38589 122,6.5C 122.497,8.80982 122.663,11.1432 122.5,13.5C 119.511,12.3645 116.511,12.1979 113.5,13C 111.933,10.0944 112.6,7.92771 115.5,6.5 Z"/></g>
<g><path style="opacity:1" fill="#212121" d="M 119.5,9.5 C 121.337,9.63945 121.67,10.3061 120.5,11.5C 119.702,11.0431 119.369,10.3764 119.5,9.5 Z"/></g>
<g><path style="opacity:1" fill="#080808" d="M 113.5,9.5 C 115.337,9.63945 115.67,10.3061 114.5,11.5C 113.702,11.0431 113.369,10.3764 113.5,9.5 Z"/></g>
<g><path style="opacity:1" fill="#d7d7d7" d="M 101.5,6.5 C 106.012,6.86889 107.512,9.20222 106,13.5C 105.091,8.27021 103.925,8.27021 102.5,13.5C 101.526,11.2573 101.192,8.92397 101.5,6.5 Z"/></g>
<g><path style="opacity:1" fill="#cecece" d="M 91.5,6.5 C 92.7348,6.72142 93.7348,7.38809 94.5,8.5C 97.4706,7.30471 98.9706,8.30471 99,11.5C 98.2613,12.5742 97.2613,13.2409 96,13.5C 94.7651,12.3845 93.5984,12.3845 92.5,13.5C 91.5258,11.2573 91.1924,8.92397 91.5,6.5 Z"/></g>
<g><path style="opacity:1" fill="#010101" d="M 95.5,9.5 C 97.337,9.63945 97.6704,10.3061 96.5,11.5C 95.7025,11.0431 95.3691,10.3764 95.5,9.5 Z"/></g>
<g><path style="opacity:1" fill="#d4d4d4" d="M 77.5,6.5 C 78.7348,6.72142 79.7348,7.38809 80.5,8.5C 82.2638,5.82284 83.4304,6.15617 84,9.5C 85.6117,6.92106 87.1117,6.92106 88.5,9.5C 87.7261,10.7112 86.8928,10.7112 86,9.5C 85.3333,10.5 85.3333,11.5 86,12.5C 89.3124,11.5455 89.3124,11.8788 86,13.5C 85.0546,13.0946 84.3879,12.428 84,11.5C 83.6924,12.3081 83.1924,12.9747 82.5,13.5C 81.1667,9.5 79.8333,9.5 78.5,13.5C 77.5258,11.2573 77.1924,8.92397 77.5,6.5 Z"/></g>
<g><path style="opacity:1" fill="#00010f" d="M 81.5,135.5 C 81.5,136.167 81.5,136.833 81.5,137.5C 77.5,136.833 77.5,136.167 81.5,135.5 Z"/></g>
<g><path style="opacity:1" fill="#6d7289" d="M 27.5,136.5 C 24.8333,136.5 22.1667,136.5 19.5,136.5C 19.5,141.167 19.5,145.833 19.5,150.5C 22.1667,150.5 24.8333,150.5 27.5,150.5C 24.7131,151.477 21.7131,151.81 18.5,151.5C 18.5,146.167 18.5,140.833 18.5,135.5C 21.7131,135.19 24.7131,135.523 27.5,136.5 Z"/></g>
<g><path style="opacity:1" fill="#080b28" d="M 27.5,136.5 C 29.6869,138.282 30.0203,140.448 28.5,143C 31.3062,145.937 30.9729,148.437 27.5,150.5C 24.8333,150.5 22.1667,150.5 19.5,150.5C 19.5,145.833 19.5,141.167 19.5,136.5C 22.1667,136.5 24.8333,136.5 27.5,136.5 Z"/></g>
<g><path style="opacity:1" fill="#c9d0df" d="M 25.5,138.5 C 27.0348,141.33 26.0348,142.663 22.5,142.5C 22.5,141.167 22.5,139.833 22.5,138.5C 23.5,138.5 24.5,138.5 25.5,138.5 Z"/></g>
<g><path style="opacity:1" fill="#5d617f" d="M 25.5,138.5 C 24.5,138.5 23.5,138.5 22.5,138.5C 22.5,139.833 22.5,141.167 22.5,142.5C 21.5489,141.081 21.2155,139.415 21.5,137.5C 23.099,137.232 24.4324,137.566 25.5,138.5 Z"/></g>
<g><path style="opacity:1" fill="#0b0e23" d="M 135.5,148.5 C 131.18,152.921 127.847,152.254 125.5,146.5C 126.061,139.762 129.228,138.095 135,141.5C 135.497,143.81 135.663,146.143 135.5,148.5 Z"/></g>
<g><path style="opacity:1" fill="#c0c7d8" d="M 129.5,141.5 C 133.252,142.306 134.252,144.472 132.5,148C 131.207,148.49 129.873,148.657 128.5,148.5C 128.298,146.05 128.631,143.717 129.5,141.5 Z"/></g>
<g><path style="opacity:1" fill="#0f142b" d="M 34.5,139.5 C 40.8197,139.32 43.3197,142.32 42,148.5C 35.3333,153.5 32,151.833 32,143.5C 32.6622,142.016 33.4955,140.683 34.5,139.5 Z"/></g>
<g><path style="opacity:1" fill="#c9d0e0" d="M 35.5,141.5 C 39.4735,142.075 40.4735,144.242 38.5,148C 37.2161,148.684 36.0495,148.517 35,147.5C 34.5099,145.455 34.6765,143.455 35.5,141.5 Z"/></g>
<g><path style="opacity:1" fill="#c8d1e1" d="M 21.5,144.5 C 23.9775,144.051 25.9775,144.717 27.5,146.5C 25.9775,148.283 23.9775,148.949 21.5,148.5C 21.5,147.167 21.5,145.833 21.5,144.5 Z"/></g>
<g><path style="opacity:1" fill="#080b2a" d="M 65.5,143.5 C 65.5,145.833 65.5,148.167 65.5,150.5C 64.5,150.5 63.5,150.5 62.5,150.5C 62.6641,147.813 62.4974,145.146 62,142.5C 61,141.167 60,141.167 59,142.5C 58.5026,145.146 58.3359,147.813 58.5,150.5C 57.5,150.5 56.5,150.5 55.5,150.5C 55.5,146.833 55.5,143.167 55.5,139.5C 58.1623,140.639 60.829,140.806 63.5,140C 64.8228,140.816 65.4894,141.983 65.5,143.5 Z"/></g>
<g><path style="opacity:1" fill="#0d122a" d="M 123.5,146.5 C 122.415,148.587 120.749,149.92 118.5,150.5C 116.5,150.5 114.5,150.5 112.5,150.5C 112.5,145.5 112.5,140.5 112.5,135.5C 121.167,134.167 124.833,137.833 123.5,146.5 Z"/></g>
<g><path style="opacity:1" fill="#cad3e1" d="M 115.5,138.5 C 119.49,137.824 121.157,139.49 120.5,143.5C 121.157,147.51 119.49,149.176 115.5,148.5C 115.5,145.167 115.5,141.833 115.5,138.5 Z"/></g>
<g><path style="opacity:1" fill="#191e32" d="M 43.5,139.5 C 44.5,139.5 45.5,139.5 46.5,139.5C 46.5,142.5 46.5,145.5 46.5,148.5C 47.8333,148.5 49.1667,148.5 50.5,148.5C 50.5,145.5 50.5,142.5 50.5,139.5C 51.5,139.5 52.5,139.5 53.5,139.5C 53.5,143.167 53.5,146.833 53.5,150.5C 51.5992,150.433 49.7659,150.767 48,151.5C 46.605,151.22 45.4383,150.553 44.5,149.5C 43.5827,146.242 43.2493,142.909 43.5,139.5 Z"/></g>
<g><path style="opacity:1" fill="#101529" d="M 73.5,139.5 C 75.7279,140.322 76.3946,141.655 75.5,143.5C 72.4679,140.674 70.4679,141.341 69.5,145.5C 69.6082,146.442 69.9415,147.275 70.5,148C 72.5868,147.782 74.5868,147.949 76.5,148.5C 74.1407,152.125 71.3073,152.458 68,149.5C 67.5045,147.527 67.3379,145.527 67.5,143.5C 68.1216,140.224 70.1216,138.891 73.5,139.5 Z"/></g>
<g><path style="opacity:1" fill="#161c32" d="M 141.5,151.5 C 139.973,151.573 138.973,150.906 138.5,149.5C 138.927,146.212 138.26,143.212 136.5,140.5C 137.853,139.476 138.52,138.143 138.5,136.5C 139.5,136.5 140.5,136.5 141.5,136.5C 142.698,139.301 142.698,142.134 141.5,145C 141.827,146.813 142.493,148.48 143.5,150C 143.164,151.03 142.497,151.53 141.5,151.5 Z"/></g>
<g><path style="opacity:1" fill="#7e2e66" d="M 246.5,147.5 C 247.043,147.56 247.376,147.893 247.5,148.5C 246.807,149.518 246.141,150.518 245.5,151.5C 243.547,152.905 242.547,152.239 242.5,149.5C 242.721,146.057 243.721,145.724 245.5,148.5C 246.107,148.376 246.44,148.043 246.5,147.5 Z"/></g>
<g><path style="opacity:1" fill="#d3c3dc" d="M 246.5,147.5 C 246.44,148.043 246.107,148.376 245.5,148.5C 243.721,145.724 242.721,146.057 242.5,149.5C 242.547,152.239 243.547,152.905 245.5,151.5C 250.602,152.121 255.602,152.787 260.5,153.5C 261.5,153.5 262.5,153.5 263.5,153.5C 263.666,160.508 263.5,167.508 263,174.5C 262.5,175 262,175.5 261.5,176C 254.167,176.667 246.833,176.667 239.5,176C 238.527,170.593 238.193,165.093 238.5,159.5C 236.447,159.598 234.78,158.931 233.5,157.5C 234.833,157.5 236.167,157.5 237.5,157.5C 238.244,154.05 236.91,152.384 233.5,152.5C 233.371,154.216 233.038,155.883 232.5,157.5C 231.876,157.083 231.543,156.416 231.5,155.5C 233.319,152.785 234.319,149.785 234.5,146.5C 236.167,146.5 237.833,146.5 239.5,146.5C 240.274,145.853 241.274,145.52 242.5,145.5C 244.355,145.34 245.688,146.007 246.5,147.5 Z"/></g>
<g><path style="opacity:1" fill="#8f5d86" d="M 239.5,146.5 C 240.014,147.625 240.347,148.791 240.5,150C 238.457,153.178 236.791,152.845 235.5,149C 237.073,148.663 238.406,147.829 239.5,146.5 Z"/></g>
<g><path style="opacity:1" fill="#500d3e" d="M 260.5,154.5 C 261.117,154.611 261.617,154.944 262,155.5C 262.667,161.5 262.667,167.5 262,173.5C 261.5,174 261,174.5 260.5,175C 253.753,175.792 247.086,175.626 240.5,174.5C 240.334,168.158 240.5,161.825 241,155.5C 247.41,154.522 253.91,154.189 260.5,154.5 Z"/></g>
<g><path style="opacity:1" fill="#9ca2b8" d="M 78.5,163.5 C 75.8333,163.5 73.1667,163.5 70.5,163.5C 70.5,167.167 70.5,170.833 70.5,174.5C 69.6773,171.023 69.1773,167.356 69,163.5C 68.8227,167.356 68.3227,171.023 67.5,174.5C 66.8333,159.833 66.1667,159.833 65.5,174.5C 65.1667,174.5 64.8333,174.5 64.5,174.5C 64.5,169.833 64.5,165.167 64.5,160.5C 65.8235,161.85 66.8235,161.683 67.5,160C 67.1639,158.97 66.4972,158.47 65.5,158.5C 65.5,158.167 65.5,157.833 65.5,157.5C 66.7079,156.766 68.0413,156.433 69.5,156.5C 69.5,158.5 69.5,160.5 69.5,162.5C 71.1439,162.714 72.6439,162.38 74,161.5C 75.6225,162.099 77.1225,162.766 78.5,163.5 Z"/></g>
<g><path style="opacity:1" fill="#7c2360" d="M 233.5,157.5 C 233.167,157.5 232.833,157.5 232.5,157.5C 233.038,155.883 233.371,154.216 233.5,152.5C 236.91,152.384 238.244,154.05 237.5,157.5C 236.167,157.5 234.833,157.5 233.5,157.5 Z"/></g>
<g><path style="opacity:1" fill="#13171c" d="M 166.5,158.5 C 168.465,158.948 168.798,159.948 167.5,161.5C 165.481,160.867 165.147,159.867 166.5,158.5 Z"/></g>
<g><path style="opacity:1" fill="#767c91" d="M 21.5,159.5 C 22.4834,163.298 22.8168,167.298 22.5,171.5C 24.7354,171.205 26.7354,171.539 28.5,172.5C 26.1667,172.5 23.8333,172.5 21.5,172.5C 21.5,168.167 21.5,163.833 21.5,159.5 Z"/></g>
<g><path style="opacity:1" fill="#d2bed0" d="M 273.5,160.5 C 273.5,161.5 273.5,162.5 273.5,163.5C 270.833,162.5 270.833,161.5 273.5,160.5 Z"/></g>
<g><path style="opacity:1" fill="#2e212f" d="M 295.5,159.5 C 299.056,159.275 299.39,160.108 296.5,162C 299.39,163.892 299.056,164.725 295.5,164.5C 295.5,162.833 295.5,161.167 295.5,159.5 Z"/></g>
<g><path style="opacity:1" fill="#e666dc" d="M 257.5,158.5 C 258.777,159.694 259.444,161.36 259.5,163.5C 260.437,168.903 258.437,170.57 253.5,168.5C 251.607,164.213 252.941,161.879 257.5,161.5C 257.5,160.5 257.5,159.5 257.5,158.5 Z"/></g>
<g><path style="opacity:1" fill="#493045" d="M 266.5,159.5 C 268.908,160.315 269.741,161.981 269,164.5C 268,163.167 267,163.167 266,164.5C 266.019,162.893 266.185,161.226 266.5,159.5 Z"/></g>
<g><path style="opacity:1" fill="#170d19" d="M 273.5,160.5 C 270.833,161.5 270.833,162.5 273.5,163.5C 272.791,164.404 271.791,164.737 270.5,164.5C 270.5,162.833 270.5,161.167 270.5,159.5C 271.791,159.263 272.791,159.596 273.5,160.5 Z"/></g>
<g><path style="opacity:1" fill="#e665dc" d="M 243.5,160.5 C 243.735,159.903 244.235,159.57 245,159.5C 246.221,160.272 247.221,161.272 248,162.5C 248.508,160.096 249.675,159.429 251.5,160.5C 248.931,162.976 248.931,165.476 251.5,168C 251.167,168.5 250.833,169 250.5,169.5C 249.281,168.737 248.281,167.737 247.5,166.5C 246.713,167.242 246.047,168.075 245.5,169C 244.668,169.688 244.002,169.521 243.5,168.5C 246.134,165.754 246.134,163.088 243.5,160.5 Z"/></g>
<g><path style="opacity:1" fill="#665967" d="M 273.5,163.5 C 273.5,162.5 273.5,161.5 273.5,160.5C 274.787,161.528 275.954,161.195 277,159.5C 278.882,160.093 279.882,161.427 280,163.5C 280.49,162.207 280.657,160.873 280.5,159.5C 283.598,159.413 283.932,159.913 281.5,161C 283.875,163.407 284.875,162.907 284.5,159.5C 285.873,159.343 287.207,159.51 288.5,160C 287.5,161 286.5,162 285.5,163C 286.5,163.333 287.5,163.667 288.5,164C 285.496,163.213 282.496,163.379 279.5,164.5C 277.68,164.351 276.18,163.684 275,162.5C 274.617,163.056 274.117,163.389 273.5,163.5 Z"/></g>
<g><path style="opacity:1" fill="#544251" d="M 291.5,160.5 C 293.026,161.105 294.026,162.271 294.5,164C 293.167,164.667 291.833,164.667 290.5,164C 291.337,162.989 291.67,161.822 291.5,160.5 Z"/></g>
<g><path style="opacity:1" fill="#6a1e5f" d="M 255.5,163.5 C 256.586,163.62 257.253,164.287 257.5,165.5C 256.696,167.957 255.696,167.957 254.5,165.5C 254.863,164.817 255.196,164.15 255.5,163.5 Z"/></g>
<g><path style="opacity:1" fill="#101630" d="M 182.5,163.5 C 185.603,163.67 188.77,164.004 192,164.5C 192.498,167.817 192.665,171.15 192.5,174.5C 191.5,174.5 190.5,174.5 189.5,174.5C 189.5,171.5 189.5,168.5 189.5,165.5C 188.167,165.5 186.833,165.5 185.5,165.5C 185.5,168.5 185.5,171.5 185.5,174.5C 184.5,174.5 183.5,174.5 182.5,174.5C 182.5,170.833 182.5,167.167 182.5,163.5 Z"/></g>
<g><path style="opacity:1" fill="#04041f" d="M 21.5,159.5 C 21.5,163.833 21.5,168.167 21.5,172.5C 23.8333,172.5 26.1667,172.5 28.5,172.5C 26.7354,171.539 24.7354,171.205 22.5,171.5C 22.8168,167.298 22.4834,163.298 21.5,159.5 Z"/></g>
<g><path style="opacity:1" fill="#cb98c9" d="M 260.5,153.5 C 260.5,153.833 260.5,154.167 260.5,154.5C 253.91,154.189 247.41,154.522 241,155.5C 240.5,161.825 240.334,168.158 240.5,174.5C 239.509,167.687 239.175,160.687 239.5,153.5C 246.5,153.5 253.5,153.5 260.5,153.5 Z"/></g>
<g><path style="opacity:1" fill="#10142a" d="M 62.5,158.5 C 62.8282,163.875 62.4948,169.208 61.5,174.5C 59.2593,174.119 56.926,173.952 54.5,174C 52.0922,170.957 51.9255,167.791 54,164.5C 55.3561,163.62 56.8561,163.286 58.5,163.5C 59.4511,162.081 59.7845,160.415 59.5,158.5C 60.5,158.5 61.5,158.5 62.5,158.5 Z"/></g>
<g><path style="opacity:1" fill="#171c33" d="M 165.5,163.5 C 166.5,163.5 167.5,163.5 168.5,163.5C 168.5,167.167 168.5,170.833 168.5,174.5C 167.5,174.5 166.5,174.5 165.5,174.5C 165.5,170.833 165.5,167.167 165.5,163.5 Z"/></g>
<g><path style="opacity:1" fill="#0d122a" d="M 33.5,163.5 C 38.0386,162.539 40.372,164.373 40.5,169C 40.0875,173.212 37.7542,175.046 33.5,174.5C 30.8485,173.675 29.5152,171.842 29.5,169C 29.5286,166.075 30.8619,164.242 33.5,163.5 Z"/></g>
<g><path style="opacity:1" fill="#b9bac5" d="M 293.5,165.5 C 295.064,168.477 297.397,169.144 300.5,167.5C 301.328,168.415 302.328,169.081 303.5,169.5C 306.904,168.947 310.404,168.947 314,169.5C 316.625,169.419 318.959,168.752 321,167.5C 324.089,169.949 324.089,172.282 321,174.5C 319.221,173.521 317.555,173.854 316,175.5C 315.333,172.833 314.667,172.833 314,175.5C 313,174.833 312,174.167 311,173.5C 307.196,174.569 303.363,174.236 299.5,172.5C 298.059,173.304 296.559,173.971 295,174.5C 291.576,173.663 288.243,173.33 285,173.5C 283.687,174.573 282.187,175.24 280.5,175.5C 276.651,175.426 272.651,174.926 268.5,174C 265.015,173.507 264.515,172.007 267,169.5C 267.333,170.167 267.667,170.833 268,171.5C 269.753,170.373 271.587,169.373 273.5,168.5C 279.314,169.214 284.98,169.214 290.5,168.5C 292.213,168.121 293.213,167.121 293.5,165.5 Z"/></g>
<g><path style="opacity:1" fill="#0c1127" d="M 172.5,163.5 C 175.119,163.232 177.619,163.565 180,164.5C 182.547,172.283 179.88,175.283 172,173.5C 169.991,170.05 170.158,166.717 172.5,163.5 Z"/></g>
<g><path style="opacity:1" fill="#bfc8d6" d="M 174.5,165.5 C 178.473,166.075 179.473,168.242 177.5,172C 176.216,172.684 175.049,172.517 174,171.5C 173.322,169.402 173.489,167.402 174.5,165.5 Z"/></g>
<g><path style="opacity:1" fill="#c4c9e1" d="M 33.5,165.5 C 37.4735,166.075 38.4735,168.242 36.5,172C 35.2161,172.684 34.0495,172.517 33,171.5C 32.3224,169.402 32.4891,167.402 33.5,165.5 Z"/></g>
<g><path style="opacity:1" fill="#0d1128" d="M 156.5,165.5 C 156.817,168.572 156.484,171.572 155.5,174.5C 153.071,174.579 150.571,174.245 148,173.5C 147.302,169.349 149.135,167.016 153.5,166.5C 151.405,166.239 149.405,165.906 147.5,165.5C 148.492,163.974 149.992,163.307 152,163.5C 154.008,163.307 155.508,163.974 156.5,165.5 Z"/></g>
<g><path style="opacity:1" fill="#0b0d26" d="M 160.5,174.5 C 160.231,171.071 159.231,168.071 157.5,165.5C 158.502,163.989 159.169,162.322 159.5,160.5C 160.5,160.5 161.5,160.5 162.5,160.5C 162.48,162.143 163.147,163.476 164.5,164.5C 161.833,167.5 161.833,170.5 164.5,173.5C 163.311,174.429 161.978,174.762 160.5,174.5 Z"/></g>
<g><path style="opacity:1" fill="#c5cdd9" d="M 81.5,135.5 C 77.5,136.167 77.5,136.833 81.5,137.5C 80.5,138.167 79.5,138.833 78.5,139.5C 78.5,143.5 78.5,147.5 78.5,151.5C 79.5,151.5 80.5,151.5 81.5,151.5C 81.5,147.5 81.5,143.5 81.5,139.5C 82.1667,139.5 82.8333,139.5 83.5,139.5C 83.5,143.5 83.5,147.5 83.5,151.5C 84.5,151.5 85.5,151.5 86.5,151.5C 86.3354,148.482 86.502,145.482 87,142.5C 88,141.167 89,141.167 90,142.5C 90.4974,145.146 90.6641,147.813 90.5,150.5C 91.5,150.5 92.5,150.5 93.5,150.5C 93.9903,146.513 93.3236,142.846 91.5,139.5C 94.8936,139.09 98.5603,138.423 102.5,137.5C 103.772,137.57 104.938,137.903 106,138.5C 106.536,146.372 107.036,154.039 107.5,161.5C 106.316,159.59 104.816,159.257 103,160.5C 101.578,165.175 99.745,169.675 97.5,174C 100.76,172.39 104.427,171.557 108.5,171.5C 108.5,172.5 108.5,173.5 108.5,174.5C 109.675,174.719 110.675,174.386 111.5,173.5C 110.675,171.199 110.008,168.865 109.5,166.5C 110.391,165.739 111.058,164.739 111.5,163.5C 110.669,161.527 110.502,159.527 111,157.5C 111.333,158.5 111.667,159.5 112,160.5C 114.148,158.428 113.982,156.594 111.5,155C 123.38,153.382 123.38,152.382 111.5,152C 114.036,151.814 116.369,151.314 118.5,150.5C 120.749,149.92 122.415,148.587 123.5,146.5C 124.167,146.5 124.833,146.5 125.5,146.5C 127.847,152.254 131.18,152.921 135.5,148.5C 136.309,146.708 136.809,144.708 137,142.5C 137.186,145.036 137.686,147.369 138.5,149.5C 138.973,150.906 139.973,151.573 141.5,151.5C 139.756,154.1 138.423,153.934 137.5,151C 135.061,150.485 134.895,150.985 137,152.5C 137.226,155.095 137.726,157.595 138.5,160C 138.167,160.333 137.833,160.667 137.5,161C 140.3,162.232 143.3,162.899 146.5,163C 145.944,163.383 145.611,163.883 145.5,164.5C 146.167,164.833 146.833,165.167 147.5,165.5C 149.405,165.906 151.405,166.239 153.5,166.5C 149.135,167.016 147.302,169.349 148,173.5C 150.571,174.245 153.071,174.579 155.5,174.5C 156.484,171.572 156.817,168.572 156.5,165.5C 156.833,165.5 157.167,165.5 157.5,165.5C 159.231,168.071 160.231,171.071 160.5,174.5C 160.505,177.994 160.838,181.66 161.5,185.5C 147.127,184.851 133.127,185.518 119.5,187.5C 112.833,187.5 106.167,187.5 99.5,187.5C 84.5364,185.516 69.2031,184.849 53.5,185.5C 54.7643,181.213 54.0976,177.213 51.5,173.5C 53.5055,166.019 50.8389,162.853 43.5,164C 42.8333,164.667 42.1667,165.333 41.5,166C 43.8859,165.649 46.2192,165.815 48.5,166.5C 43.6048,166.554 41.4382,168.888 42,173.5C 43.3561,174.38 44.8561,174.714 46.5,174.5C 43.4371,175.201 40.2704,175.868 37,176.5C 35.6976,175.915 34.531,175.249 33.5,174.5C 37.7542,175.046 40.0875,173.212 40.5,169C 40.372,164.373 38.0386,162.539 33.5,163.5C 35.9686,162.683 38.6353,162.183 41.5,162C 44.7318,158.638 45.3985,158.638 43.5,162C 46.5182,162.499 49.5182,162.332 52.5,161.5C 54.7986,161.599 56.7986,162.266 58.5,163.5C 56.8561,163.286 55.3561,163.62 54,164.5C 51.9255,167.791 52.0922,170.957 54.5,174C 56.926,173.952 59.2593,174.119 61.5,174.5C 62.4948,169.208 62.8282,163.875 62.5,158.5C 63.1667,163.833 63.8333,169.167 64.5,174.5C 64.8333,174.5 65.1667,174.5 65.5,174.5C 66.1667,174.5 66.8333,174.5 67.5,174.5C 68.3227,171.023 68.8227,167.356 69,163.5C 69.1773,167.356 69.6773,171.023 70.5,174.5C 72.22,172.342 73.0533,169.675 73,166.5C 74.3333,165.167 75.6667,165.167 77,166.5C 77.1816,169.226 77.6816,171.893 78.5,174.5C 79.7582,170.79 79.7582,167.123 78.5,163.5C 77.1225,162.766 75.6225,162.099 74,161.5C 72.6439,162.38 71.1439,162.714 69.5,162.5C 69.5,160.5 69.5,158.5 69.5,156.5C 68.0413,156.433 66.7079,156.766 65.5,157.5C 66.1834,155.824 67.5168,155.157 69.5,155.5C 69.67,154.178 69.3366,153.011 68.5,152C 66.2922,151.809 64.2922,151.309 62.5,150.5C 63.5,150.5 64.5,150.5 65.5,150.5C 65.5,148.167 65.5,145.833 65.5,143.5C 66.1667,143.5 66.8333,143.5 67.5,143.5C 67.3379,145.527 67.5045,147.527 68,149.5C 71.3073,152.458 74.1407,152.125 76.5,148.5C 74.5868,147.949 72.5868,147.782 70.5,148C 69.9415,147.275 69.6082,146.442 69.5,145.5C 70.4679,141.341 72.4679,140.674 75.5,143.5C 76.3946,141.655 75.7279,140.322 73.5,139.5C 73.281,138.325 73.6143,137.325 74.5,136.5C 76.2141,137.609 76.8808,136.942 76.5,134.5C 78.4147,134.216 80.0813,134.549 81.5,135.5 Z"/></g>
<g><path style="opacity:1" fill="#0d1329" d="M 83.5,163.5 C 86.1667,163.5 88.8333,163.5 91.5,163.5C 91.6657,167.846 91.499,172.179 91,176.5C 88.4781,178.662 85.6447,178.995 82.5,177.5C 84.5,176.833 86.5,176.167 88.5,175.5C 81.4334,173.802 79.7667,169.802 83.5,163.5 Z"/></g>
<g><path style="opacity:1" fill="#0f152d" d="M 51.5,173.5 C 49.85,174.048 48.1834,174.381 46.5,174.5C 44.8561,174.714 43.3561,174.38 42,173.5C 41.4382,168.888 43.6048,166.554 48.5,166.5C 46.2192,165.815 43.8859,165.649 41.5,166C 42.1667,165.333 42.8333,164.667 43.5,164C 50.8389,162.853 53.5055,166.019 51.5,173.5 Z"/></g>
<g><path style="opacity:1" fill="#bcc0dd" d="M 150.5,169.5 C 151.978,169.238 153.311,169.571 154.5,170.5C 153.68,172.111 152.346,172.778 150.5,172.5C 150.5,171.5 150.5,170.5 150.5,169.5 Z"/></g>
<g><path style="opacity:1" fill="#171a2a" d="M 124.5,163.5 C 125.5,163.5 126.5,163.5 127.5,163.5C 127.5,167.167 127.5,170.833 127.5,174.5C 126.5,174.5 125.5,174.5 124.5,174.5C 124.5,170.833 124.5,167.167 124.5,163.5 Z"/></g>
<g><path style="opacity:1" fill="#c3c9e5" d="M 44.5,169.5 C 45.9778,169.238 47.3112,169.571 48.5,170.5C 47.6798,172.111 46.3464,172.778 44.5,172.5C 44.5,171.5 44.5,170.5 44.5,169.5 Z"/></g>
<g><path style="opacity:1" fill="#c8d0e2" d="M 85.5,165.5 C 86.5,165.5 87.5,165.5 88.5,165.5C 88.5,167.833 88.5,170.167 88.5,172.5C 84.452,171.738 83.452,169.404 85.5,165.5 Z"/></g>
<g><path style="opacity:1" fill="#0b0f27" d="M 145.5,164.5 C 145.5,167.833 145.5,171.167 145.5,174.5C 144.5,174.5 143.5,174.5 142.5,174.5C 142.5,171.5 142.5,168.5 142.5,165.5C 141.178,165.33 140.011,165.663 139,166.5C 138,177.167 137,177.167 136,166.5C 134.989,165.663 133.822,165.33 132.5,165.5C 132.5,168.5 132.5,171.5 132.5,174.5C 131.5,174.5 130.5,174.5 129.5,174.5C 129.5,170.833 129.5,167.167 129.5,163.5C 134.982,163.976 140.315,164.309 145.5,164.5 Z"/></g>
<g><path style="opacity:1" fill="#00021c" d="M 67.5,174.5 C 66.8333,174.5 66.1667,174.5 65.5,174.5C 66.1667,159.833 66.8333,159.833 67.5,174.5 Z"/></g>
<g><path style="opacity:1" fill="#c7cee1" d="M 56.5,165.5 C 57.5,165.5 58.5,165.5 59.5,165.5C 59.5,167.833 59.5,170.167 59.5,172.5C 55.452,171.738 54.452,169.404 56.5,165.5 Z"/></g>
<g><path style="opacity:1" fill="#141830" d="M 112.5,163.5 C 115.5,163.5 118.5,163.5 121.5,163.5C 121.823,167.226 121.489,170.893 120.5,174.5C 119.682,171.893 119.182,169.226 119,166.5C 117.989,165.663 116.822,165.33 115.5,165.5C 115.5,168.5 115.5,171.5 115.5,174.5C 114.5,174.5 113.5,174.5 112.5,174.5C 112.5,170.833 112.5,167.167 112.5,163.5 Z"/></g>
<g><path style="opacity:1" fill="#0b112a" d="M 107.5,161.5 C 107.402,163.553 108.069,165.22 109.5,166.5C 110.008,168.865 110.675,171.199 111.5,173.5C 110.675,174.386 109.675,174.719 108.5,174.5C 108.5,173.5 108.5,172.5 108.5,171.5C 104.427,171.557 100.76,172.39 97.5,174C 99.745,169.675 101.578,165.175 103,160.5C 104.816,159.257 106.316,159.59 107.5,161.5 Z"/></g>
<g><path style="opacity:1" fill="#bdc5d8" d="M 104.5,163.5 C 105.931,164.78 106.598,166.447 106.5,168.5C 105.5,168.5 104.5,168.5 103.5,168.5C 103.366,166.708 103.699,165.042 104.5,163.5 Z"/></g>
<g><path style="opacity:1" fill="#050720" d="M 78.5,163.5 C 79.7582,167.123 79.7582,170.79 78.5,174.5C 77.6816,171.893 77.1816,169.226 77,166.5C 75.6667,165.167 74.3333,165.167 73,166.5C 73.0533,169.675 72.22,172.342 70.5,174.5C 70.5,170.833 70.5,167.167 70.5,163.5C 73.1667,163.5 75.8333,163.5 78.5,163.5 Z"/></g>
<g><path style="opacity:1" fill="#11141c" d="M 124.5,158.5 C 127.674,158.952 128.007,159.952 125.5,161.5C 124.614,160.675 124.281,159.675 124.5,158.5 Z"/></g>
<g><path style="opacity:1" fill="#181b22" d="M 65.5,158.5 C 66.4972,158.47 67.1639,158.97 67.5,160C 66.8235,161.683 65.8235,161.85 64.5,160.5C 64.8333,159.833 65.1667,159.167 65.5,158.5 Z"/></g>
<g><path style="opacity:1" fill="#080a28" d="M 78.5,139.5 C 79.5,139.5 80.5,139.5 81.5,139.5C 81.5,143.5 81.5,147.5 81.5,151.5C 80.5,151.5 79.5,151.5 78.5,151.5C 78.5,147.5 78.5,143.5 78.5,139.5 Z"/></g>
<g><path style="opacity:1" fill="#12172b" d="M 97.5,139.5 C 100.272,140.371 102.938,140.371 105.5,139.5C 105.666,143.846 105.499,148.179 105,152.5C 102.321,155.835 99.1547,156.335 95.5,154C 96,153.5 96.5,153 97,152.5C 99.2003,153.99 101.034,153.657 102.5,151.5C 96.9171,152.08 94.4171,149.413 95,143.5C 95.6622,142.016 96.4955,140.683 97.5,139.5 Z"/></g>
<g><path style="opacity:1" fill="#bcc2d7" d="M 99.5,141.5 C 100.496,141.414 101.329,141.748 102,142.5C 102.495,144.473 102.662,146.473 102.5,148.5C 97.1605,148.177 96.1605,145.843 99.5,141.5 Z"/></g>
<g><path style="opacity:1" fill="#0d1330" d="M 83.5,139.5 C 86.0618,140.371 88.7284,140.371 91.5,139.5C 93.3236,142.846 93.9903,146.513 93.5,150.5C 92.5,150.5 91.5,150.5 90.5,150.5C 90.6641,147.813 90.4974,145.146 90,142.5C 89,141.167 88,141.167 87,142.5C 86.502,145.482 86.3354,148.482 86.5,151.5C 85.5,151.5 84.5,151.5 83.5,151.5C 83.5,147.5 83.5,143.5 83.5,139.5 Z"/></g>
</svg>
