<svg width="48" height="49" viewBox="0 0 48 49" fill="none" xmlns="http://www.w3.org/2000/svg">
<rect y="0.953125" width="48" height="48" rx="8" fill="#FB8045"/>
<g clip-path="url(#clip0_115_965)">
<path d="M33.5711 29.1311C33.5461 29.1131 31.0041 27.2251 31.0041 20.9551C31.0041 17.0961 27.8631 13.9551 24.0041 13.9551C20.1441 13.9551 17.0041 17.0961 17.0041 20.9551C17.0041 27.2251 14.4621 29.1141 14.4491 29.1231C14.0821 29.3671 13.9191 29.8221 14.0471 30.2461C14.1741 30.6681 14.5641 30.9551 15.0041 30.9551H33.0041C33.4391 30.9551 33.8171 30.6701 33.9491 30.2561C34.0811 29.8421 33.9261 29.3851 33.5711 29.1311ZM17.1441 28.9551C18.0491 27.4731 19.0041 24.9591 19.0041 20.9551C19.0041 18.1991 21.2471 15.9561 24.0041 15.9561C26.7611 15.9561 29.0041 18.1991 29.0041 20.9551C29.0041 24.9591 29.9591 27.4731 30.8631 28.9551H17.1441ZM26.2361 33.0921C25.7581 32.8131 25.1481 32.9771 24.8701 33.4531C24.5921 33.9291 23.9781 34.0941 23.5021 33.8161C23.3521 33.7281 23.2261 33.6031 23.1391 33.4531C22.8611 32.9741 22.2491 32.8121 21.7721 33.0921C21.2941 33.3691 21.1321 33.9811 21.4101 34.4591C21.6721 34.9081 22.0491 35.2851 22.4991 35.5471C22.9721 35.8201 23.4881 35.9511 23.9991 35.9511C25.0351 35.9511 26.0441 35.4141 26.6001 34.4571C26.8771 33.9801 26.7141 33.3691 26.2361 33.0921Z" fill="white"/>
</g>
<defs>
<clipPath id="clip0_115_965">
<rect width="24" height="24" fill="white" transform="translate(12 12.9531)"/>
</clipPath>
</defs>
</svg>
