<svg width="756" height="837" viewBox="0 0 756 837" fill="none" xmlns="http://www.w3.org/2000/svg">
<g opacity="0.3" clip-path="url(#clip0_101_178)">
<path opacity="0.1" fill-rule="evenodd" clip-rule="evenodd" d="M695.514 47.7291L630.777 112.466C624.819 118.424 615.157 118.424 609.199 112.466L544.462 47.7291C538.503 41.7701 538.503 32.1091 544.462 26.1501L609.199 -38.5859C615.157 -44.5459 624.819 -44.5459 630.777 -38.5859L695.514 26.1501C701.473 32.1091 701.473 41.7701 695.514 47.7291ZM695.514 -132.271L630.777 -67.5339C624.819 -61.5759 615.157 -61.5759 609.199 -67.5339L544.462 -132.271C538.503 -138.229 538.503 -147.891 544.462 -153.85L609.199 -218.586C615.157 -224.545 624.819 -224.545 630.777 -218.586L695.514 -153.85C701.473 -147.891 701.473 -138.229 695.514 -132.271ZM605.514 -222.271L540.777 -157.535C534.819 -151.576 525.157 -151.576 519.199 -157.535L454.462 -222.271C448.503 -228.23 448.503 -237.891 454.462 -243.85L519.199 -308.586C525.157 -314.545 534.819 -314.545 540.777 -308.586L605.514 -243.85C611.473 -237.891 611.473 -228.23 605.514 -222.271ZM515.514 -153.85C521.473 -147.891 521.473 -138.229 515.514 -132.271L450.777 -67.5339C444.819 -61.5759 435.157 -61.5759 429.199 -67.5339L364.462 -132.271C358.503 -138.229 358.503 -147.891 364.462 -153.85L429.199 -218.586C435.157 -224.545 444.819 -224.545 450.777 -218.586L515.514 -153.85ZM425.514 -222.271L360.777 -157.535C354.819 -151.576 345.157 -151.576 339.199 -157.535L274.462 -222.271C268.503 -228.23 268.503 -237.891 274.462 -243.85L339.199 -308.586C345.157 -314.545 354.819 -314.545 360.777 -308.586L425.514 -243.85C431.473 -237.891 431.473 -228.23 425.514 -222.271ZM274.462 -63.8499L339.199 -128.586C345.157 -134.545 354.819 -134.545 360.777 -128.586L425.514 -63.8499C431.473 -57.8909 431.473 -48.2299 425.514 -42.2709L360.777 22.4661C354.819 28.4241 345.157 28.4241 339.199 22.4661L274.462 -42.2709C268.503 -48.2299 268.503 -57.8909 274.462 -63.8499ZM274.462 116.15L339.199 51.4141C345.157 45.455 354.819 45.455 360.777 51.4141L425.514 116.15C431.473 122.109 431.473 131.77 425.514 137.729L360.777 202.465C354.819 208.425 345.157 208.425 339.199 202.465L274.462 137.729C268.503 131.77 268.503 122.109 274.462 116.15ZM364.462 206.15L429.199 141.414C435.157 135.455 444.819 135.455 450.777 141.414L515.514 206.15C521.473 212.109 521.473 221.77 515.514 227.729L450.777 292.466C444.819 298.424 435.157 298.424 429.199 292.466L364.462 227.729C358.503 221.77 358.503 212.109 364.462 206.15ZM515.514 47.7291L450.777 112.466C444.819 118.424 435.157 118.424 429.199 112.466L364.462 47.7291C358.503 41.7701 358.503 32.1091 364.462 26.1501L429.199 -38.5859C435.157 -44.5459 444.819 -44.5459 450.777 -38.5859L515.514 26.1501C521.473 32.1091 521.473 41.7701 515.514 47.7291ZM454.462 137.729C448.503 131.77 448.503 122.109 454.462 116.15L519.199 51.4141C525.157 45.455 534.819 45.455 540.777 51.4141L605.514 116.15C611.473 122.109 611.473 131.77 605.514 137.729L540.777 202.465C534.819 208.425 525.157 208.425 519.199 202.465L454.462 137.729ZM544.462 206.15L609.199 141.414C615.157 135.455 624.819 135.455 630.777 141.414L695.514 206.15C701.473 212.109 701.473 221.77 695.514 227.729L630.777 292.466C624.819 298.424 615.157 298.424 609.199 292.466L544.462 227.729C538.503 221.77 538.503 212.109 544.462 206.15Z" fill="#BEBCE4"/>
<path opacity="0.1" fill-rule="evenodd" clip-rule="evenodd" d="M184.462 206.15L249.199 141.414C255.157 135.455 264.819 135.455 270.777 141.414L335.514 206.15C341.473 212.109 341.473 221.77 335.514 227.729L270.777 292.466C264.819 298.424 255.157 298.424 249.199 292.466L184.462 227.729C178.503 221.77 178.503 212.109 184.462 206.15Z" fill="#BEBCE4"/>
<path opacity="0.1" fill-rule="evenodd" clip-rule="evenodd" d="M1055.51 47.7291L990.777 112.466C984.819 118.424 975.157 118.424 969.199 112.466L904.462 47.7291C898.503 41.7701 898.503 32.1091 904.462 26.1501L969.199 -38.5859C975.157 -44.5459 984.819 -44.5459 990.777 -38.5859L1055.51 26.1501C1061.47 32.1091 1061.47 41.7701 1055.51 47.7291ZM1055.51 -132.271L990.777 -67.5339C984.819 -61.5759 975.157 -61.5759 969.199 -67.5339L904.462 -132.271C898.503 -138.229 898.503 -147.891 904.462 -153.85L969.199 -218.586C975.157 -224.545 984.819 -224.545 990.777 -218.586L1055.51 -153.85C1061.47 -147.891 1061.47 -138.229 1055.51 -132.271ZM965.514 -222.271L900.777 -157.535C894.819 -151.576 885.157 -151.576 879.199 -157.535L814.462 -222.271C808.503 -228.23 808.503 -237.891 814.462 -243.85L879.199 -308.586C885.157 -314.545 894.819 -314.545 900.777 -308.586L965.514 -243.85C971.473 -237.891 971.473 -228.23 965.514 -222.271ZM875.514 -153.85C881.473 -147.891 881.473 -138.229 875.514 -132.271L810.777 -67.5339C804.819 -61.5759 795.157 -61.5759 789.199 -67.5339L724.462 -132.271C718.503 -138.229 718.503 -147.891 724.462 -153.85L789.199 -218.586C795.157 -224.545 804.819 -224.545 810.777 -218.586L875.514 -153.85ZM785.514 -222.271L720.777 -157.535C714.819 -151.576 705.157 -151.576 699.199 -157.535L634.462 -222.271C628.503 -228.23 628.503 -237.891 634.462 -243.85L699.199 -308.586C705.157 -314.545 714.819 -314.545 720.777 -308.586L785.514 -243.85C791.473 -237.891 791.473 -228.23 785.514 -222.271ZM634.462 -63.8499L699.199 -128.586C705.157 -134.545 714.819 -134.545 720.777 -128.586L785.514 -63.8499C791.473 -57.8909 791.473 -48.2299 785.514 -42.2709L720.777 22.4661C714.819 28.4241 705.157 28.4241 699.199 22.4661L634.462 -42.2709C628.503 -48.2299 628.503 -57.8909 634.462 -63.8499ZM724.462 26.1501L789.199 -38.5859C795.157 -44.5459 804.819 -44.5459 810.777 -38.5859L875.514 26.1501C881.473 32.1091 881.473 41.7701 875.514 47.7291L810.777 112.466C804.819 118.424 795.157 118.424 789.199 112.466L724.462 47.7291C718.503 41.7701 718.503 32.1091 724.462 26.1501ZM724.462 206.15L789.199 141.414C795.157 135.455 804.819 135.455 810.777 141.414L875.514 206.15C881.473 212.109 881.473 221.77 875.514 227.729L810.777 292.466C804.819 298.424 795.157 298.424 789.199 292.466L724.462 227.729C718.503 221.77 718.503 212.109 724.462 206.15ZM814.462 -42.2709C808.503 -48.2299 808.503 -57.8909 814.462 -63.8499L879.199 -128.586C885.157 -134.545 894.819 -134.545 900.777 -128.586L965.514 -63.8499C971.473 -57.8909 971.473 -48.2299 965.514 -42.2709L900.777 22.4661C894.819 28.4241 885.157 28.4241 879.199 22.4661L814.462 -42.2709ZM814.462 137.729C808.503 131.77 808.503 122.109 814.462 116.15L879.199 51.4141C885.157 45.455 894.819 45.455 900.777 51.4141L965.514 116.15C971.473 122.109 971.473 131.77 965.514 137.729L900.777 202.465C894.819 208.425 885.157 208.425 879.199 202.465L814.462 137.729ZM904.462 206.15L969.199 141.414C975.157 135.455 984.819 135.455 990.777 141.414L1055.51 206.15C1061.47 212.109 1061.47 221.77 1055.51 227.729L990.777 292.466C984.819 298.424 975.157 298.424 969.199 292.466L904.462 227.729C898.503 221.77 898.503 212.109 904.462 206.15Z" fill="#BEBCE4"/>
<path opacity="0.1" fill-rule="evenodd" clip-rule="evenodd" d="M695.514 587.729L630.777 652.465C624.819 658.425 615.157 658.425 609.199 652.465L544.462 587.729C538.503 581.77 538.503 572.109 544.462 566.15L609.199 501.413C615.157 495.455 624.819 495.455 630.777 501.413L695.514 566.15C701.473 572.109 701.473 581.77 695.514 587.729ZM695.514 407.729L630.777 472.465C624.819 478.424 615.157 478.424 609.199 472.465L544.462 407.729C538.503 401.77 538.503 392.109 544.462 386.15L609.199 321.413C615.157 315.455 624.819 315.455 630.777 321.413L695.514 386.15C701.473 392.109 701.473 401.77 695.514 407.729ZM605.514 317.729L540.777 382.466C534.819 388.424 525.157 388.424 519.199 382.466L454.462 317.729C448.503 311.771 448.503 302.109 454.462 296.15L519.199 231.414C525.157 225.454 534.819 225.454 540.777 231.414L605.514 296.15C611.473 302.109 611.473 311.771 605.514 317.729ZM515.514 386.15C521.473 392.109 521.473 401.77 515.514 407.729L450.777 472.465C444.819 478.424 435.157 478.424 429.199 472.465L364.462 407.729C358.503 401.77 358.503 392.109 364.462 386.15L429.199 321.413C435.157 315.455 444.819 315.455 450.777 321.413L515.514 386.15ZM425.514 317.729L360.777 382.466C354.819 388.424 345.157 388.424 339.199 382.466L274.462 317.729C268.503 311.771 268.503 302.109 274.462 296.15L339.199 231.414C345.157 225.454 354.819 225.454 360.777 231.414L425.514 296.15C431.473 302.109 431.473 311.771 425.514 317.729ZM274.462 476.15L339.199 411.414C345.157 405.455 354.819 405.455 360.777 411.414L425.514 476.15C431.473 482.109 431.473 491.77 425.514 497.729L360.777 562.466C354.819 568.424 345.157 568.424 339.199 562.466L274.462 497.729C268.503 491.77 268.503 482.109 274.462 476.15ZM274.462 656.15L339.199 591.414C345.157 585.455 354.819 585.455 360.777 591.414L425.514 656.15C431.473 662.109 431.473 671.77 425.514 677.729L360.777 742.463C354.819 748.423 345.157 748.423 339.199 742.463L274.462 677.729C268.503 671.77 268.503 662.109 274.462 656.15ZM364.462 746.153L429.199 681.414C435.157 675.455 444.819 675.455 450.777 681.414L515.514 746.153C521.473 752.113 521.473 761.773 515.514 767.733L450.777 832.463C444.819 838.423 435.157 838.423 429.199 832.463L364.462 767.733C358.503 761.773 358.503 752.113 364.462 746.153ZM515.514 587.729L450.777 652.465C444.819 658.425 435.157 658.425 429.199 652.465L364.462 587.729C358.503 581.77 358.503 572.109 364.462 566.15L429.199 501.413C435.157 495.455 444.819 495.455 450.777 501.413L515.514 566.15C521.473 572.109 521.473 581.77 515.514 587.729ZM454.462 677.729C448.503 671.77 448.503 662.109 454.462 656.15L519.199 591.414C525.157 585.455 534.819 585.455 540.777 591.414L605.514 656.15C611.473 662.109 611.473 671.77 605.514 677.729L540.777 742.463C534.819 748.423 525.157 748.423 519.199 742.463L454.462 677.729ZM544.462 746.153L609.199 681.414C615.157 675.455 624.819 675.455 630.777 681.414L695.514 746.153C701.473 752.113 701.473 761.773 695.514 767.733L630.777 832.463C624.819 838.423 615.157 838.423 609.199 832.463L544.462 767.733C538.503 761.773 538.503 752.113 544.462 746.153Z" fill="#BEBCE4"/>
<path opacity="0.1" fill-rule="evenodd" clip-rule="evenodd" d="M1055.51 587.729L990.777 652.465C984.819 658.425 975.157 658.425 969.199 652.465L904.462 587.729C898.503 581.77 898.503 572.109 904.462 566.15L969.199 501.413C975.157 495.455 984.819 495.455 990.777 501.413L1055.51 566.15C1061.47 572.109 1061.47 581.77 1055.51 587.729ZM1055.51 407.729L990.777 472.465C984.819 478.424 975.157 478.424 969.199 472.465L904.462 407.729C898.503 401.77 898.503 392.109 904.462 386.15L969.199 321.413C975.157 315.455 984.819 315.455 990.777 321.413L1055.51 386.15C1061.47 392.109 1061.47 401.77 1055.51 407.729ZM965.514 317.729L900.777 382.466C894.819 388.424 885.157 388.424 879.199 382.466L814.462 317.729C808.503 311.771 808.503 302.109 814.462 296.15L879.199 231.414C885.157 225.454 894.819 225.454 900.777 231.414L965.514 296.15C971.473 302.109 971.473 311.771 965.514 317.729ZM875.514 566.15C881.473 572.109 881.473 581.77 875.514 587.729L810.777 652.465C804.819 658.425 795.157 658.425 789.199 652.465L724.462 587.729C718.503 581.77 718.503 572.109 724.462 566.15L789.199 501.413C795.157 495.455 804.819 495.455 810.777 501.413L875.514 566.15ZM785.514 497.729L720.777 562.466C714.819 568.424 705.157 568.424 699.199 562.466L634.462 497.729C628.503 491.77 628.503 482.109 634.462 476.15L699.199 411.414C705.157 405.455 714.819 405.455 720.777 411.414L785.514 476.15C791.473 482.109 791.473 491.77 785.514 497.729ZM785.514 317.729L720.777 382.466C714.819 388.424 705.157 388.424 699.199 382.466L634.462 317.729C628.503 311.771 628.503 302.109 634.462 296.15L699.199 231.414C705.157 225.454 714.819 225.454 720.777 231.414L785.514 296.15C791.473 302.109 791.473 311.771 785.514 317.729ZM634.462 656.15L699.199 591.414C705.157 585.455 714.819 585.455 720.777 591.414L785.514 656.15C791.473 662.109 791.473 671.77 785.514 677.729L720.777 742.463C714.819 748.423 705.157 748.423 699.199 742.463L634.462 677.729C628.503 671.77 628.503 662.109 634.462 656.15ZM724.462 746.153L789.199 681.414C795.157 675.455 804.819 675.455 810.777 681.414L875.514 746.153C881.473 752.113 881.473 761.773 875.514 767.733L810.777 832.463C804.819 838.423 795.157 838.423 789.199 832.463L724.462 767.733C718.503 761.773 718.503 752.113 724.462 746.153ZM814.462 497.729C808.503 491.77 808.503 482.109 814.462 476.15L879.199 411.414C885.157 405.455 894.819 405.455 900.777 411.414L965.514 476.15C971.473 482.109 971.473 491.77 965.514 497.729L900.777 562.466C894.819 568.424 885.157 568.424 879.199 562.466L814.462 497.729ZM814.462 677.729C808.503 671.77 808.503 662.109 814.462 656.15L879.199 591.414C885.157 585.455 894.819 585.455 900.777 591.414L965.514 656.15C971.473 662.109 971.473 671.77 965.514 677.729L900.777 742.463C894.819 748.423 885.157 748.423 879.199 742.463L814.462 677.729ZM904.462 746.153L969.199 681.414C975.157 675.455 984.819 675.455 990.777 681.414L1055.51 746.153C1061.47 752.113 1061.47 761.773 1055.51 767.733L990.777 832.463C984.819 838.423 975.157 838.423 969.199 832.463L904.462 767.733C898.503 761.773 898.503 752.113 904.462 746.153Z" fill="#BEBCE4"/>
<path opacity="0.1" fill-rule="evenodd" clip-rule="evenodd" d="M4.46199 26.1501L69.199 -38.5859C75.157 -44.5459 84.819 -44.5459 90.777 -38.5859L155.514 26.1501C161.473 32.1091 161.473 41.7701 155.514 47.7291L90.777 112.466C84.819 118.424 75.157 118.424 69.199 112.466L4.46199 47.7291C-1.49701 41.7701 -1.49701 32.1091 4.46199 26.1501Z" fill="#BEBCE4"/>
<path opacity="0.1" fill-rule="evenodd" clip-rule="evenodd" d="M94.462 -63.8499L159.199 -128.586C165.157 -134.545 174.819 -134.545 180.777 -128.586L245.514 -63.8499C251.473 -57.8909 251.473 -48.2299 245.514 -42.2709L180.777 22.4661C174.819 28.4241 165.157 28.4241 159.199 22.4661L94.462 -42.2709C88.503 -48.2299 88.503 -57.8909 94.462 -63.8499Z" fill="#BEBCE4"/>
<path opacity="0.1" fill-rule="evenodd" clip-rule="evenodd" d="M94.462 -63.8499L159.199 -128.586C165.157 -134.545 174.819 -134.545 180.777 -128.586L245.514 -63.8499C251.473 -57.8909 251.473 -48.2299 245.514 -42.2709L180.777 22.4661C174.819 28.4241 165.157 28.4241 159.199 22.4661L94.462 -42.2709C88.503 -48.2299 88.503 -57.8909 94.462 -63.8499Z" fill="#BEBCE4"/>
<path opacity="0.2" fill-rule="evenodd" clip-rule="evenodd" d="M364.462 206.15L429.199 141.414C435.157 135.455 444.819 135.455 450.777 141.414L515.514 206.15C521.473 212.109 521.473 221.77 515.514 227.729L450.777 292.466C444.819 298.424 435.157 298.424 429.199 292.466L364.462 227.729C358.503 221.77 358.503 212.109 364.462 206.15Z" fill="#BEBCE4"/>
<path opacity="0.1" fill-rule="evenodd" clip-rule="evenodd" d="M634.462 -63.8499L699.199 -128.586C705.157 -134.545 714.819 -134.545 720.777 -128.586L785.514 -63.8499C791.473 -57.8909 791.473 -48.2299 785.514 -42.2709L720.777 22.4661C714.819 28.4241 705.157 28.4241 699.199 22.4661L634.462 -42.2709C628.503 -48.2299 628.503 -57.8909 634.462 -63.8499Z" fill="#BEBCE4"/>
<path opacity="0.2" fill-rule="evenodd" clip-rule="evenodd" d="M634.462 476.15L699.199 411.414C705.157 405.455 714.819 405.455 720.777 411.414L785.514 476.15C791.473 482.109 791.473 491.77 785.514 497.729L720.777 562.466C714.819 568.424 705.157 568.424 699.199 562.466L634.462 497.729C628.503 491.77 628.503 482.109 634.462 476.15Z" fill="#BEBCE4"/>
<path opacity="0.1" fill-rule="evenodd" clip-rule="evenodd" d="M544.462 746.153L609.199 681.414C615.157 675.455 624.819 675.455 630.777 681.414L695.514 746.153C701.473 752.113 701.473 761.773 695.514 767.733L630.777 832.463C624.819 838.423 615.157 838.423 609.199 832.463L544.462 767.733C538.503 761.773 538.503 752.113 544.462 746.153Z" fill="#BEBCE4"/>
<path opacity="0.1" fill-rule="evenodd" clip-rule="evenodd" d="M184.462 26.1501L249.199 -38.5859C255.157 -44.5459 264.819 -44.5459 270.777 -38.5859L335.514 26.1501C341.473 32.1091 341.473 41.7701 335.514 47.7291L270.777 112.466C264.819 118.424 255.157 118.424 249.199 112.466L184.462 47.7291C178.503 41.7701 178.503 32.1091 184.462 26.1501Z" fill="#BEBCE4"/>
</g>
<defs>
<clipPath id="clip0_101_178">
<rect width="1060" height="1151" fill="white" transform="translate(0 -314.047)"/>
</clipPath>
</defs>
</svg>
