<svg width="48" height="48" viewBox="0 0 48 48" fill="none" xmlns="http://www.w3.org/2000/svg">
<g clip-path="url(#clip0_797_798)">
<path d="M34 3C35.654 3 37 4.346 37 6V26C37 27.654 35.654 29 34 29H16.992L8 33.26V29.364L5.5 28.942C4.051 28.697 3 27.46 3 26V6C3 4.346 4.346 3 6 3H34ZM34 0H6C2.687 0 0 2.687 0 6V26C0 28.971 2.165 31.421 5 31.899V38L17.667 32H34C37.313 32 40 29.313 40 26V6C40 2.687 37.313 0 34 0Z" fill="white"/>
<path d="M43 8.09009V11.1841C44.161 11.5991 45 12.6981 45 14.0001V34.0001C45 35.4601 43.949 36.6971 42.501 36.9411L40 37.3631V41.2591L31.008 37.0001H15V40.0001H30.333L43 46.0001V39.8991C45.835 39.4201 48 36.9701 48 34.0001V14.0001C48 11.0281 45.836 8.56709 43 8.09009Z" fill="white"/>
<path d="M19.992 23.5C19.938 23.5 19.835 23.487 19.746 23.399C19.152 22.735 13.433 16.382 12.773 15.721C11.951 14.902 11.5 13.817 11.5 12.662C11.5 11.509 11.951 10.424 12.77 9.608C13.523 8.856 14.426 8.506 15.613 8.506C16.462 8.506 17.647 9.211 18.948 10.49L20.017 11.541L21.069 10.473C22.268 9.256 23.523 8.5 24.347 8.5C25.472 8.5 26.361 8.886 27.229 9.753C28.049 10.569 28.5 11.654 28.5 12.808C28.5 13.963 28.049 15.048 27.229 15.865L20.196 23.442C20.154 23.482 20.058 23.5 19.992 23.5Z" fill="white"/>
<path d="M24.352 10C24.954 10.001 25.493 10.141 26.171 10.816C26.705 11.349 27 12.056 27 12.809C27 13.556 26.71 14.26 26.182 14.791C26.105 14.868 25.95 15.035 25.091 15.96L20.428 20.984L20.005 21.441C18.114 19.343 14.387 15.215 13.829 14.656C13.295 14.123 13 13.415 13 12.663C13 11.911 13.294 11.204 13.832 10.668C14.303 10.198 14.819 10.006 15.613 10.006C15.62 10.006 16.363 10.052 17.896 11.56L20.034 13.662L22.138 11.526C23.23 10.416 24.099 10.02 24.352 10ZM24.347 7C22.872 7 21.228 8.174 20 9.421C18.732 8.174 17.139 7.006 15.613 7.006C14.122 7.006 12.806 7.452 11.712 8.546C9.42999 10.819 9.42999 14.507 11.712 16.781C12.363 17.433 18.688 24.461 18.688 24.461C19.048 24.82 19.521 25 19.992 25C20.465 25 20.936 24.82 21.297 24.461L27.29 18C27.29 18 28.27 16.943 28.288 16.927C30.57 14.653 30.57 10.964 28.288 8.691C27.155 7.561 25.89 7 24.347 7Z" fill="white"/>
</g>
<defs>
<clipPath id="clip0_797_798">
<rect width="48" height="48" fill="white"/>
</clipPath>
</defs>
</svg>
