<svg width="48" height="48" viewBox="0 0 48 48" fill="none" xmlns="http://www.w3.org/2000/svg">
<g clip-path="url(#clip0_797_790)">
<g clip-path="url(#clip1_797_790)">
<path fill-rule="evenodd" clip-rule="evenodd" d="M14 20C15.104 20 16 20.896 16 22C16 23.104 15.104 24 14 24C12.896 24 12 23.104 12 22C12 20.896 12.896 20 14 20Z" fill="white"/>
<path d="M35 3C40.514 3 45 7.486 45 13C45 18.514 40.514 23 35 23C29.486 23 25 18.514 25 13C25 7.486 29.486 3 35 3ZM35 0C27.82 0 22 5.82 22 13C22 20.18 27.82 26 35 26C42.18 26 48 20.18 48 13C48 5.82 42.18 0 35 0Z" fill="white"/>
<path d="M34.318 18.7971C32.552 18.6171 30.806 17.9871 29.457 17.0151L31.077 14.6201C32.229 15.4311 33.309 15.9161 34.426 16.0971V13.9361C31.528 13.2701 30.051 12.2801 30.051 10.0471V10.0101C30.051 7.88506 31.6 6.40906 34.354 6.21106V5.18506H36.227V6.26506C37.704 6.42706 38.946 6.93206 40.026 7.67006L38.549 10.0831C37.811 9.56006 36.947 9.20006 36.137 9.00206V11.0911C39 11.7571 40.44 12.7831 40.44 15.0161V15.0521C40.44 17.2491 38.748 18.5991 36.191 18.8331V20.5981H34.319L34.318 18.7971ZM34.443 8.84006C33.561 8.91206 33.219 9.27206 33.219 9.74006V9.77606C33.219 10.2441 33.471 10.5141 34.443 10.7841V8.84006ZM37.324 15.2861V15.2501C37.324 14.7641 37.054 14.4941 36.119 14.2241V16.2041C36.947 16.1141 37.324 15.8081 37.324 15.2861Z" fill="white"/>
<path d="M44.998 27C44.975 31.4 42.534 35.614 38.285 38.568L37 39.463V45H31V42.019L27.701 42.349C26.739 42.446 25.937 42.491 25.179 42.491C24.27 42.491 23.339 42.436 22.342 42.323L19 41.945V45H13V39.254L11.769 38.356C9.572 36.763 7.839 34.788 6.751 32.643L5.921 31H3V25H5.348L6.038 22.967C6.887 20.459 8.57 18.121 10.904 16.203L12 15.306V10.295L16.445 12.959L17.739 12.543C18.155 12.409 18.578 12.302 19 12.191V9.093C18.259 9.264 17.53 9.459 16.821 9.687L9 5V13.888C6.286 16.117 4.25 19 3.196 22H2.524C1.13 22 0 23.214 0 24.699V31.31C0 32.796 1.13 34 2.524 34H4.079C5.407 36.617 7 38.929 10 40.784V45.475C10 46.87 11.219 48 12.705 48H19.319C20.805 48 22 46.87 22 45.476V45.304C23 45.421 24.098 45.491 25.174 45.491C26.131 45.491 27.074 45.428 28 45.335V45.477C28 46.87 29.205 48 30.69 48H37.304C38.791 48 40 46.87 40 45.476V41.032C44.981 37.642 47.978 32.621 48 27.001L44.998 27Z" fill="white"/>
</g>
</g>
<defs>
<clipPath id="clip0_797_790">
<rect width="48" height="48" fill="white"/>
</clipPath>
<clipPath id="clip1_797_790">
<rect width="48" height="48" fill="white"/>
</clipPath>
</defs>
</svg>
