<svg width="17" height="17" viewBox="0 0 17 17" fill="none" xmlns="http://www.w3.org/2000/svg">
<g clip-path="url(#clip0_797_750)">
<g clip-path="url(#clip1_797_750)">
<path d="M8.91016 1.83333C12.5862 1.83333 15.5768 4.824 15.5768 8.5C15.5768 12.176 12.5862 15.1667 8.91016 15.1667C5.23416 15.1667 2.24349 12.176 2.24349 8.5C2.24349 4.824 5.23416 1.83333 8.91016 1.83333ZM8.91016 0.5C4.49216 0.5 0.910156 4.082 0.910156 8.5C0.910156 12.918 4.49216 16.5 8.91016 16.5C13.3282 16.5 16.9102 12.918 16.9102 8.5C16.9102 4.082 13.3282 0.5 8.91016 0.5ZM12.9102 9.16667H9.57682V12.5H8.24349V9.16667H4.91016V7.83333H8.24349V4.5H9.57682V7.83333H12.9102V9.16667Z" fill="#23D2E2"/>
</g>
</g>
<defs>
<clipPath id="clip0_797_750">
<rect width="16" height="16" fill="white" transform="translate(0.910156 0.5)"/>
</clipPath>
<clipPath id="clip1_797_750">
<rect width="16" height="16" fill="white" transform="translate(0.910156 0.5)"/>
</clipPath>
</defs>
</svg>
