<svg width="390" height="251" viewBox="0 0 390 251" fill="none" xmlns="http://www.w3.org/2000/svg">
<g clip-path="url(#clip0_797_748)" filter="url(#filter0_d_797_748)">
<rect width="270" height="130" transform="translate(60 50.5)" fill="#29293D"/>
<path d="M102.281 96.5L110.119 80.9886V80.8594H100.988V77.5909H114.256V80.9055L106.408 96.5H102.281ZM115.696 96.5V93.6193L122.426 87.3871C122.999 86.8331 123.479 86.3345 123.867 85.8913C124.261 85.4482 124.559 85.0142 124.762 84.5895C124.965 84.1586 125.067 83.6939 125.067 83.1953C125.067 82.6413 124.941 82.1643 124.688 81.7642C124.436 81.358 124.091 81.0471 123.654 80.8317C123.217 80.6101 122.722 80.4993 122.168 80.4993C121.589 80.4993 121.085 80.6162 120.654 80.8501C120.223 81.084 119.89 81.4195 119.656 81.8565C119.423 82.2936 119.306 82.8137 119.306 83.4169H115.511C115.511 82.1797 115.791 81.1056 116.351 80.1946C116.911 79.2836 117.696 78.5788 118.706 78.0803C119.715 77.5817 120.878 77.3324 122.196 77.3324C123.55 77.3324 124.728 77.5724 125.732 78.0526C126.741 78.5265 127.526 79.1851 128.086 80.0284C128.646 80.8717 128.926 81.8381 128.926 82.9276C128.926 83.6416 128.785 84.3464 128.502 85.0419C128.225 85.7375 127.729 86.5099 127.015 87.3594C126.301 88.2027 125.295 89.2152 123.996 90.397L121.235 93.1023V93.2315H129.176V96.5H115.696ZM138.999 77.5909V96.5H135.001V81.3857H134.89L130.56 84.1001V80.5547L135.241 77.5909H138.999ZM143.514 96.7401C142.904 96.7401 142.381 96.5246 141.944 96.0938C141.513 95.6567 141.298 95.1335 141.298 94.5241C141.298 93.9209 141.513 93.4039 141.944 92.973C142.381 92.5421 142.904 92.3267 143.514 92.3267C144.104 92.3267 144.621 92.5421 145.065 92.973C145.508 93.4039 145.729 93.9209 145.729 94.5241C145.729 94.9304 145.625 95.3028 145.416 95.6413C145.212 95.9737 144.945 96.2415 144.612 96.4446C144.28 96.6416 143.914 96.7401 143.514 96.7401ZM154.002 96.7585C152.623 96.7585 151.395 96.5215 150.318 96.0476C149.247 95.5675 148.4 94.9089 147.779 94.0717C147.163 93.2285 146.846 92.2559 146.828 91.1541H150.853C150.878 91.6158 151.029 92.022 151.306 92.3729C151.589 92.7176 151.964 92.9853 152.432 93.1761C152.9 93.367 153.426 93.4624 154.011 93.4624C154.62 93.4624 155.159 93.3546 155.627 93.1392C156.095 92.9238 156.461 92.6252 156.725 92.2436C156.99 91.862 157.122 91.4219 157.122 90.9233C157.122 90.4186 156.981 89.9723 156.698 89.5845C156.421 89.1906 156.021 88.8828 155.497 88.6612C154.98 88.4396 154.365 88.3288 153.651 88.3288H151.887V85.3928H153.651C154.254 85.3928 154.787 85.2881 155.248 85.0788C155.716 84.8696 156.079 84.5803 156.338 84.2109C156.596 83.8355 156.725 83.3984 156.725 82.8999C156.725 82.4259 156.612 82.0104 156.384 81.6534C156.162 81.2902 155.848 81.0071 155.442 80.804C155.042 80.6009 154.574 80.4993 154.039 80.4993C153.497 80.4993 153.001 80.5978 152.552 80.7947C152.103 80.9856 151.743 81.2595 151.472 81.6165C151.201 81.9735 151.056 82.392 151.038 82.8722H147.206C147.225 81.7827 147.536 80.8224 148.139 79.9915C148.742 79.1605 149.554 78.5111 150.576 78.0433C151.604 77.5694 152.764 77.3324 154.057 77.3324C155.362 77.3324 156.504 77.5694 157.483 78.0433C158.461 78.5173 159.221 79.1574 159.763 79.9638C160.311 80.764 160.582 81.6626 160.576 82.6598C160.582 83.7185 160.252 84.6018 159.588 85.3097C158.929 86.0175 158.07 86.4669 157.012 86.6577V86.8054C158.403 86.9839 159.461 87.4671 160.188 88.255C160.92 89.0367 161.283 90.0154 161.277 91.1911C161.283 92.2682 160.973 93.2254 160.345 94.0625C159.723 94.8996 158.864 95.5582 157.769 96.0384C156.673 96.5185 155.417 96.7585 154.002 96.7585ZM170.108 96.7585C169.136 96.7524 168.197 96.5893 167.292 96.2692C166.393 95.9491 165.587 95.429 164.873 94.7088C164.159 93.9886 163.593 93.0346 163.174 91.8466C162.762 90.6586 162.556 89.1998 162.556 87.4702C162.562 85.8821 162.743 84.4633 163.1 83.2138C163.463 81.9581 163.981 80.8932 164.651 80.0192C165.329 79.1451 166.138 78.4803 167.08 78.0249C168.021 77.5632 169.077 77.3324 170.247 77.3324C171.508 77.3324 172.623 77.5786 173.589 78.071C174.555 78.5573 175.331 79.219 175.916 80.0561C176.507 80.8932 176.864 81.8319 176.987 82.8722H173.044C172.89 82.2135 172.567 81.6965 172.075 81.321C171.582 80.9455 170.973 80.7578 170.247 80.7578C169.016 80.7578 168.08 81.2933 167.44 82.3643C166.806 83.4354 166.483 84.8911 166.47 86.7315H166.6C166.883 86.1714 167.264 85.6944 167.744 85.3004C168.231 84.9003 168.782 84.5956 169.397 84.3864C170.019 84.1709 170.674 84.0632 171.364 84.0632C172.484 84.0632 173.481 84.3279 174.355 84.8572C175.229 85.3804 175.919 86.1006 176.423 87.0178C176.928 87.9349 177.181 88.9844 177.181 90.1662C177.181 91.4465 176.882 92.5852 176.285 93.5824C175.694 94.5795 174.866 95.3613 173.801 95.9276C172.743 96.4877 171.512 96.7647 170.108 96.7585ZM170.09 93.6193C170.705 93.6193 171.256 93.4716 171.742 93.1761C172.229 92.8807 172.61 92.4806 172.887 91.9759C173.164 91.4711 173.303 90.9048 173.303 90.277C173.303 89.6491 173.164 89.0859 172.887 88.5874C172.616 88.0888 172.241 87.6918 171.761 87.3963C171.281 87.1009 170.733 86.9531 170.117 86.9531C169.656 86.9531 169.228 87.0393 168.834 87.2116C168.446 87.384 168.105 87.6241 167.809 87.9318C167.52 88.2396 167.292 88.5966 167.126 89.0028C166.96 89.4029 166.877 89.8307 166.877 90.2862C166.877 90.8956 167.015 91.4527 167.292 91.9574C167.575 92.4621 167.957 92.8653 168.437 93.1669C168.923 93.4685 169.474 93.6193 170.09 93.6193ZM178.715 96.5V93.6193L185.446 87.3871C186.018 86.8331 186.498 86.3345 186.886 85.8913C187.28 85.4482 187.579 85.0142 187.782 84.5895C187.985 84.1586 188.087 83.6939 188.087 83.1953C188.087 82.6413 187.96 82.1643 187.708 81.7642C187.456 81.358 187.111 81.0471 186.674 80.8317C186.237 80.6101 185.741 80.4993 185.187 80.4993C184.609 80.4993 184.104 80.6162 183.673 80.8501C183.242 81.084 182.91 81.4195 182.676 81.8565C182.442 82.2936 182.325 82.8137 182.325 83.4169H178.53C178.53 82.1797 178.81 81.1056 179.371 80.1946C179.931 79.2836 180.716 78.5788 181.725 78.0803C182.735 77.5817 183.898 77.3324 185.215 77.3324C186.569 77.3324 187.748 77.5724 188.751 78.0526C189.761 78.5265 190.546 79.1851 191.106 80.0284C191.666 80.8717 191.946 81.8381 191.946 82.9276C191.946 83.6416 191.804 84.3464 191.521 85.0419C191.244 85.7375 190.749 86.5099 190.035 87.3594C189.321 88.2027 188.314 89.2152 187.016 90.397L184.255 93.1023V93.2315H192.195V96.5H178.715Z" fill="white"/>
<g clip-path="url(#clip1_797_748)">
<g clip-path="url(#clip2_797_748)">
<path d="M203.91 75.8333C207.586 75.8333 210.577 78.824 210.577 82.5C210.577 86.176 207.586 89.1667 203.91 89.1667C200.234 89.1667 197.243 86.176 197.243 82.5C197.243 78.824 200.234 75.8333 203.91 75.8333ZM203.91 74.5C199.492 74.5 195.91 78.082 195.91 82.5C195.91 86.918 199.492 90.5 203.91 90.5C208.328 90.5 211.91 86.918 211.91 82.5C211.91 78.082 208.328 74.5 203.91 74.5ZM207.91 83.1667H204.577V86.5H203.243V83.1667H199.91V81.8333H203.243V78.5H204.577V81.8333H207.91V83.1667Z" fill="#23D2E2"/>
</g>
</g>
<path d="M216.618 86.5V85.1705L219.724 82.294C219.988 82.0384 220.21 81.8082 220.389 81.6037C220.571 81.3991 220.708 81.1989 220.802 81.0028C220.896 80.804 220.943 80.5895 220.943 80.3594C220.943 80.1037 220.885 79.8835 220.768 79.6989C220.652 79.5114 220.493 79.3679 220.291 79.2685C220.089 79.1662 219.86 79.1151 219.605 79.1151C219.338 79.1151 219.105 79.169 218.906 79.277C218.707 79.3849 218.554 79.5398 218.446 79.7415C218.338 79.9432 218.284 80.1832 218.284 80.4616H216.532C216.532 79.8906 216.662 79.3949 216.92 78.9744C217.179 78.554 217.541 78.2287 218.007 77.9986C218.473 77.7685 219.01 77.6534 219.618 77.6534C220.243 77.6534 220.787 77.7642 221.25 77.9858C221.716 78.2045 222.078 78.5085 222.336 78.8977C222.595 79.2869 222.724 79.733 222.724 80.2358C222.724 80.5653 222.659 80.8906 222.528 81.2116C222.4 81.5327 222.172 81.8892 221.842 82.2812C221.512 82.6705 221.048 83.1378 220.449 83.6832L219.174 84.9318V84.9915H222.839V86.5H216.618ZM225.254 86.6108C224.973 86.6108 224.732 86.5114 224.53 86.3125C224.331 86.1108 224.232 85.8693 224.232 85.5881C224.232 85.3097 224.331 85.071 224.53 84.8722C224.732 84.6733 224.973 84.5739 225.254 84.5739C225.527 84.5739 225.766 84.6733 225.97 84.8722C226.175 85.071 226.277 85.3097 226.277 85.5881C226.277 85.7756 226.229 85.9474 226.132 86.1037C226.038 86.2571 225.915 86.3807 225.761 86.4744C225.608 86.5653 225.439 86.6108 225.254 86.6108ZM230.457 77.7727V86.5H228.612V79.5241H228.561L226.562 80.777V79.1406L228.723 77.7727H230.457ZM237.309 84.8636V84.4034C237.309 84.054 237.382 83.733 237.53 83.4403C237.681 83.1449 237.898 82.9091 238.182 82.733C238.469 82.554 238.819 82.4645 239.23 82.4645C239.648 82.4645 239.999 82.5526 240.283 82.7287C240.57 82.9048 240.786 83.1406 240.931 83.4361C241.078 83.7287 241.152 84.0511 241.152 84.4034V84.8636C241.152 85.2131 241.078 85.5355 240.931 85.831C240.783 86.1236 240.566 86.358 240.279 86.5341C239.992 86.7131 239.642 86.8026 239.23 86.8026C238.813 86.8026 238.462 86.7131 238.178 86.5341C237.894 86.358 237.678 86.1236 237.53 85.831C237.382 85.5355 237.309 85.2131 237.309 84.8636ZM238.549 84.4034V84.8636C238.549 85.0653 238.597 85.2557 238.694 85.4347C238.793 85.6136 238.972 85.7031 239.23 85.7031C239.489 85.7031 239.665 85.6151 239.759 85.4389C239.855 85.2628 239.904 85.071 239.904 84.8636V84.4034C239.904 84.196 239.858 84.0028 239.767 83.8239C239.676 83.6449 239.498 83.5554 239.23 83.5554C238.975 83.5554 238.797 83.6449 238.698 83.8239C238.598 84.0028 238.549 84.196 238.549 84.4034ZM232.83 79.8693V79.4091C232.83 79.0568 232.905 78.7344 233.056 78.4418C233.206 78.1463 233.424 77.9105 233.708 77.7344C233.995 77.5582 234.341 77.4702 234.748 77.4702C235.168 77.4702 235.52 77.5582 235.804 77.7344C236.088 77.9105 236.304 78.1463 236.452 78.4418C236.6 78.7344 236.674 79.0568 236.674 79.4091V79.8693C236.674 80.2216 236.598 80.544 236.448 80.8366C236.3 81.1293 236.083 81.3636 235.796 81.5398C235.512 81.7131 235.162 81.7997 234.748 81.7997C234.333 81.7997 233.982 81.7116 233.695 81.5355C233.411 81.3565 233.195 81.1222 233.047 80.8324C232.902 80.5398 232.83 80.2187 232.83 79.8693ZM234.078 79.4091V79.8693C234.078 80.0767 234.127 80.2685 234.223 80.4446C234.323 80.6207 234.498 80.7088 234.748 80.7088C235.009 80.7088 235.186 80.6207 235.28 80.4446C235.377 80.2685 235.425 80.0767 235.425 79.8693V79.4091C235.425 79.2017 235.38 79.0085 235.289 78.8295C235.198 78.6506 235.017 78.5611 234.748 78.5611C234.495 78.5611 234.32 78.652 234.223 78.8338C234.127 79.0156 234.078 79.2074 234.078 79.4091ZM233.392 86.5L239.392 77.7727H240.509L234.509 86.5H233.392Z" fill="white"/>
<path d="M102.122 116.409L106.009 127.429H106.162L110.048 116.409H111.71L106.903 129.5H105.267L100.46 116.409H102.122ZM112.645 129.5V119.682H114.153V129.5H112.645ZM113.412 118.045C113.118 118.045 112.864 117.945 112.651 117.745C112.442 117.545 112.338 117.304 112.338 117.023C112.338 116.741 112.442 116.501 112.651 116.3C112.864 116.1 113.118 116 113.412 116C113.706 116 113.957 116.1 114.166 116.3C114.379 116.501 114.486 116.741 114.486 117.023C114.486 117.304 114.379 117.545 114.166 117.745C113.957 117.945 113.706 118.045 113.412 118.045ZM120.133 129.705C119.187 129.705 118.371 129.496 117.685 129.078C117.003 128.656 116.476 128.068 116.106 127.314C115.739 126.555 115.556 125.673 115.556 124.668C115.556 123.662 115.739 122.776 116.106 122.009C116.476 121.237 116.992 120.636 117.653 120.206C118.317 119.771 119.093 119.554 119.979 119.554C120.491 119.554 120.996 119.639 121.494 119.81C121.993 119.98 122.447 120.257 122.856 120.641C123.265 121.02 123.591 121.523 123.834 122.149C124.077 122.776 124.198 123.547 124.198 124.463V125.102H116.63V123.798H122.664C122.664 123.244 122.553 122.75 122.332 122.315C122.114 121.881 121.803 121.538 121.398 121.286C120.998 121.035 120.525 120.909 119.979 120.909C119.378 120.909 118.859 121.058 118.42 121.357C117.985 121.651 117.65 122.034 117.416 122.507C117.182 122.98 117.065 123.487 117.065 124.028V124.898C117.065 125.639 117.192 126.268 117.448 126.783C117.708 127.295 118.068 127.685 118.528 127.953C118.989 128.217 119.523 128.349 120.133 128.349C120.529 128.349 120.887 128.294 121.207 128.183C121.53 128.068 121.81 127.898 122.044 127.672C122.278 127.442 122.459 127.156 122.587 126.815L124.045 127.224C123.891 127.719 123.633 128.153 123.271 128.528C122.909 128.899 122.462 129.189 121.929 129.398C121.396 129.602 120.797 129.705 120.133 129.705ZM127.817 129.5L124.826 119.682H126.411L128.533 127.199H128.635L130.732 119.682H132.343L134.414 127.173H134.516L136.638 119.682H138.223L135.232 129.5H133.749L131.601 121.957H131.448L129.3 129.5H127.817ZM146.272 121.881L144.917 122.264C144.832 122.038 144.706 121.819 144.54 121.606C144.378 121.388 144.157 121.21 143.875 121.069C143.594 120.928 143.234 120.858 142.795 120.858C142.194 120.858 141.694 120.996 141.293 121.273C140.897 121.546 140.698 121.893 140.698 122.315C140.698 122.69 140.835 122.987 141.108 123.204C141.38 123.421 141.806 123.602 142.386 123.747L143.843 124.105C144.721 124.318 145.375 124.644 145.806 125.083C146.236 125.518 146.451 126.078 146.451 126.764C146.451 127.327 146.289 127.83 145.966 128.273C145.646 128.716 145.198 129.065 144.623 129.321C144.048 129.577 143.379 129.705 142.616 129.705C141.615 129.705 140.786 129.487 140.13 129.053C139.473 128.618 139.058 127.983 138.883 127.148L140.315 126.79C140.451 127.318 140.709 127.714 141.088 127.979C141.472 128.243 141.973 128.375 142.591 128.375C143.294 128.375 143.852 128.226 144.265 127.928C144.683 127.625 144.892 127.263 144.892 126.841C144.892 126.5 144.772 126.214 144.534 125.984C144.295 125.75 143.929 125.575 143.434 125.46L141.798 125.077C140.899 124.864 140.238 124.533 139.816 124.086C139.399 123.634 139.19 123.07 139.19 122.392C139.19 121.838 139.345 121.348 139.657 120.922C139.972 120.496 140.4 120.161 140.941 119.918C141.487 119.675 142.105 119.554 142.795 119.554C143.767 119.554 144.529 119.767 145.083 120.193C145.642 120.619 146.038 121.182 146.272 121.881Z" fill="white"/>
<path d="M102.247 141.318V151.5H101.074V141.318H102.247ZM106.243 151.679C105.759 151.679 105.32 151.588 104.926 151.406C104.531 151.22 104.218 150.953 103.986 150.605C103.754 150.254 103.638 149.83 103.638 149.332C103.638 148.895 103.724 148.54 103.897 148.268C104.069 147.993 104.299 147.778 104.588 147.622C104.876 147.466 105.194 147.35 105.542 147.274C105.894 147.195 106.247 147.132 106.601 147.085C107.065 147.026 107.441 146.981 107.73 146.951C108.021 146.918 108.234 146.863 108.366 146.787C108.502 146.711 108.57 146.578 108.57 146.389V146.349C108.57 145.859 108.436 145.478 108.167 145.206C107.902 144.934 107.499 144.798 106.959 144.798C106.399 144.798 105.96 144.921 105.642 145.166C105.324 145.411 105.1 145.673 104.971 145.952L103.857 145.554C104.056 145.09 104.321 144.729 104.652 144.47C104.987 144.208 105.352 144.026 105.746 143.923C106.144 143.817 106.535 143.764 106.919 143.764C107.165 143.764 107.446 143.794 107.765 143.854C108.086 143.91 108.396 144.028 108.694 144.207C108.996 144.386 109.246 144.656 109.445 145.017C109.644 145.378 109.743 145.862 109.743 146.469V151.5H108.57V150.466H108.51C108.431 150.632 108.298 150.809 108.113 150.998C107.927 151.187 107.68 151.348 107.372 151.48C107.064 151.613 106.687 151.679 106.243 151.679ZM106.422 150.625C106.886 150.625 107.277 150.534 107.596 150.352C107.917 150.169 108.159 149.934 108.321 149.646C108.487 149.357 108.57 149.054 108.57 148.736V147.662C108.52 147.722 108.411 147.776 108.242 147.826C108.076 147.872 107.884 147.914 107.665 147.95C107.45 147.983 107.239 148.013 107.034 148.04C106.832 148.063 106.668 148.083 106.542 148.099C106.237 148.139 105.952 148.204 105.686 148.293C105.425 148.379 105.213 148.51 105.05 148.686C104.891 148.858 104.811 149.094 104.811 149.392C104.811 149.8 104.962 150.108 105.264 150.317C105.569 150.522 105.955 150.625 106.422 150.625ZM116.894 145.574L115.84 145.872C115.774 145.696 115.676 145.526 115.547 145.36C115.421 145.191 115.248 145.052 115.03 144.942C114.811 144.833 114.531 144.778 114.189 144.778C113.722 144.778 113.333 144.886 113.021 145.102C112.713 145.314 112.559 145.584 112.559 145.912C112.559 146.204 112.665 146.434 112.877 146.603C113.089 146.772 113.42 146.913 113.871 147.026L115.005 147.304C115.687 147.47 116.196 147.723 116.531 148.065C116.866 148.403 117.033 148.839 117.033 149.372C117.033 149.81 116.907 150.201 116.655 150.545C116.407 150.89 116.059 151.162 115.611 151.361C115.164 151.56 114.643 151.659 114.05 151.659C113.271 151.659 112.627 151.49 112.116 151.152C111.606 150.814 111.283 150.32 111.147 149.67L112.26 149.392C112.366 149.803 112.567 150.111 112.862 150.317C113.16 150.522 113.55 150.625 114.03 150.625C114.577 150.625 115.011 150.509 115.333 150.277C115.658 150.042 115.82 149.76 115.82 149.432C115.82 149.167 115.727 148.945 115.542 148.766C115.356 148.583 115.071 148.447 114.687 148.358L113.414 148.06C112.714 147.894 112.201 147.637 111.873 147.289C111.548 146.938 111.385 146.499 111.385 145.972C111.385 145.541 111.506 145.16 111.748 144.828C111.994 144.497 112.327 144.237 112.748 144.048C113.172 143.859 113.652 143.764 114.189 143.764C114.945 143.764 115.538 143.93 115.969 144.261C116.403 144.593 116.712 145.03 116.894 145.574ZM121.72 143.864V144.858H117.763V143.864H121.72ZM118.916 142.034H120.09V149.312C120.09 149.644 120.138 149.893 120.234 150.058C120.333 150.221 120.459 150.33 120.612 150.386C120.767 150.439 120.931 150.466 121.104 150.466C121.233 150.466 121.339 150.459 121.422 150.446C121.505 150.429 121.571 150.416 121.621 150.406L121.859 151.46C121.78 151.49 121.669 151.52 121.526 151.55C121.384 151.583 121.203 151.599 120.984 151.599C120.653 151.599 120.328 151.528 120.01 151.386C119.695 151.243 119.433 151.026 119.225 150.734C119.019 150.443 118.916 150.075 118.916 149.631V142.034ZM126.623 151.5V143.864H127.756V145.057H127.856C128.015 144.649 128.272 144.333 128.626 144.107C128.981 143.879 129.407 143.764 129.904 143.764C130.408 143.764 130.827 143.879 131.162 144.107C131.5 144.333 131.763 144.649 131.952 145.057H132.032C132.227 144.662 132.521 144.349 132.912 144.117C133.303 143.882 133.772 143.764 134.319 143.764C135.001 143.764 135.56 143.978 135.994 144.406C136.428 144.83 136.645 145.491 136.645 146.389V151.5H135.472V146.389C135.472 145.826 135.318 145.423 135.01 145.181C134.702 144.939 134.339 144.818 133.921 144.818C133.384 144.818 132.968 144.981 132.673 145.305C132.378 145.627 132.231 146.035 132.231 146.528V151.5H131.037V146.27C131.037 145.836 130.897 145.486 130.615 145.221C130.333 144.952 129.97 144.818 129.526 144.818C129.221 144.818 128.936 144.899 128.671 145.062C128.409 145.224 128.197 145.45 128.035 145.738C127.876 146.023 127.796 146.353 127.796 146.727V151.5H126.623ZM141.493 151.659C140.804 151.659 140.199 151.495 139.678 151.167C139.161 150.839 138.757 150.38 138.465 149.79C138.177 149.2 138.033 148.51 138.033 147.722C138.033 146.926 138.177 146.232 138.465 145.638C138.757 145.045 139.161 144.585 139.678 144.256C140.199 143.928 140.804 143.764 141.493 143.764C142.182 143.764 142.786 143.928 143.303 144.256C143.823 144.585 144.227 145.045 144.516 145.638C144.807 146.232 144.953 146.926 144.953 147.722C144.953 148.51 144.807 149.2 144.516 149.79C144.227 150.38 143.823 150.839 143.303 151.167C142.786 151.495 142.182 151.659 141.493 151.659ZM141.493 150.605C142.017 150.605 142.447 150.471 142.786 150.202C143.124 149.934 143.374 149.581 143.536 149.143C143.699 148.706 143.78 148.232 143.78 147.722C143.78 147.211 143.699 146.736 143.536 146.295C143.374 145.854 143.124 145.498 142.786 145.226C142.447 144.954 142.017 144.818 141.493 144.818C140.969 144.818 140.538 144.954 140.2 145.226C139.862 145.498 139.612 145.854 139.45 146.295C139.287 146.736 139.206 147.211 139.206 147.722C139.206 148.232 139.287 148.706 139.45 149.143C139.612 149.581 139.862 149.934 140.2 150.202C140.538 150.471 140.969 150.605 141.493 150.605ZM147.517 146.906V151.5H146.344V143.864H147.478V145.057H147.577C147.756 144.669 148.028 144.357 148.392 144.122C148.757 143.884 149.228 143.764 149.804 143.764C150.321 143.764 150.774 143.87 151.162 144.082C151.549 144.291 151.851 144.609 152.066 145.037C152.282 145.461 152.39 145.998 152.39 146.648V151.5H151.216V146.727C151.216 146.127 151.061 145.66 150.749 145.325C150.437 144.987 150.01 144.818 149.466 144.818C149.092 144.818 148.757 144.899 148.462 145.062C148.17 145.224 147.94 145.461 147.771 145.773C147.602 146.084 147.517 146.462 147.517 146.906ZM157.455 143.864V144.858H153.497V143.864H157.455ZM154.651 142.034H155.824V149.312C155.824 149.644 155.872 149.893 155.968 150.058C156.068 150.221 156.194 150.33 156.346 150.386C156.502 150.439 156.666 150.466 156.838 150.466C156.967 150.466 157.073 150.459 157.156 150.446C157.239 150.429 157.306 150.416 157.355 150.406L157.594 151.46C157.514 151.49 157.403 151.52 157.261 151.55C157.118 151.583 156.938 151.599 156.719 151.599C156.387 151.599 156.063 151.528 155.744 151.386C155.43 151.243 155.168 151.026 154.959 150.734C154.753 150.443 154.651 150.075 154.651 149.631V142.034ZM160.157 146.906V151.5H158.984V141.318H160.157V145.057H160.256C160.435 144.662 160.704 144.349 161.062 144.117C161.423 143.882 161.904 143.764 162.504 143.764C163.024 143.764 163.48 143.869 163.871 144.077C164.262 144.283 164.565 144.599 164.781 145.027C164.999 145.451 165.109 145.991 165.109 146.648V151.5H163.935V146.727C163.935 146.121 163.778 145.652 163.463 145.32C163.151 144.986 162.719 144.818 162.165 144.818C161.781 144.818 161.436 144.899 161.131 145.062C160.83 145.224 160.591 145.461 160.415 145.773C160.243 146.084 160.157 146.462 160.157 146.906Z" fill="#767588"/>
<g clip-path="url(#clip3_797_748)">
<path fill-rule="evenodd" clip-rule="evenodd" d="M169.1 202.499C169.1 202.499 179.096 152.54 241.094 150.619C300.669 148.773 315.037 120.356 315.1 88.499C316.99 55.713 348.535 24.499 407.1 24.499L399.1 202.499H169.1Z" fill="#FB8045"/>
<path fill-rule="evenodd" clip-rule="evenodd" d="M317.1 88.5594C317.059 104.739 313.386 120.387 301.845 132.21C290.299 144.039 271.222 151.686 241.156 152.618C210.775 153.559 193.311 166.23 183.406 178.534C178.43 184.714 175.334 190.838 173.485 195.413C172.651 197.474 172.073 199.215 171.691 200.499H397.188L405.008 26.5125C348.512 27.2436 318.919 57.5769 317.1 88.5594ZM169.1 202.499L167.139 202.107L166.66 204.499H401.012L409.192 22.499H407.1C347.861 22.499 315.074 54.1937 313.103 88.3839L313.1 88.4394V88.495C313.069 104.152 309.523 118.618 298.983 129.416C288.435 140.222 270.541 147.706 241.032 148.62C209.415 149.6 190.882 162.869 180.29 176.025C175.017 182.575 171.739 189.06 169.776 193.913C168.795 196.341 168.14 198.367 167.729 199.795C167.523 200.51 167.378 201.076 167.283 201.469C167.236 201.665 167.201 201.819 167.177 201.926C167.165 201.98 167.156 202.022 167.15 202.052L167.143 202.088L167.14 202.1L167.139 202.104C167.139 202.104 167.139 202.107 169.1 202.499Z" fill="#D02E41"/>
<path fill-rule="evenodd" clip-rule="evenodd" d="M242.999 142.52C247.414 142.52 250.992 146.101 250.992 150.519C250.992 154.936 247.414 158.517 242.999 158.517C238.585 158.517 235.006 154.936 235.006 150.519C235.006 146.101 238.585 142.52 242.999 142.52Z" fill="#33334D"/>
<path fill-rule="evenodd" clip-rule="evenodd" d="M242.999 144.52C239.691 144.52 237.006 147.204 237.006 150.519C237.006 153.833 239.691 156.517 242.999 156.517C246.308 156.517 248.992 153.833 248.992 150.519C248.992 147.204 246.308 144.52 242.999 144.52ZM233.006 150.519C233.006 144.998 237.479 140.52 242.999 140.52C248.52 140.52 252.992 144.998 252.992 150.519C252.992 156.039 248.52 160.517 242.999 160.517C237.479 160.517 233.006 156.039 233.006 150.519Z" fill="#D02E41"/>
<path fill-rule="evenodd" clip-rule="evenodd" d="M315.994 81.5129C320.409 81.5129 323.987 85.0939 323.987 89.5099C323.987 93.9279 320.409 97.5089 315.994 97.5089C311.58 97.5089 308.001 93.9279 308.001 89.5099C308.001 85.0939 311.58 81.5129 315.994 81.5129Z" fill="#33334D"/>
<path fill-rule="evenodd" clip-rule="evenodd" d="M314.994 83.5129C311.686 83.5129 309.001 86.1975 309.001 89.5099C309.001 92.8246 311.686 95.5089 314.994 95.5089C318.303 95.5089 320.987 92.8248 320.987 89.5099C320.987 86.1973 318.303 83.5129 314.994 83.5129ZM305.001 89.5099C305.001 83.9903 309.474 79.5129 314.994 79.5129C320.515 79.5129 324.987 83.9905 324.987 89.5099C324.987 95.031 320.515 99.5089 314.994 99.5089C309.474 99.5089 305.001 95.0312 305.001 89.5099Z" fill="#D02E41"/>
</g>
</g>
<defs>
<filter id="filter0_d_797_748" x="0" y="0.5" width="390" height="250" filterUnits="userSpaceOnUse" color-interpolation-filters="sRGB">
<feFlood flood-opacity="0" result="BackgroundImageFix"/>
<feColorMatrix in="SourceAlpha" type="matrix" values="0 0 0 0 0 0 0 0 0 0 0 0 0 0 0 0 0 0 127 0" result="hardAlpha"/>
<feOffset dy="10"/>
<feGaussianBlur stdDeviation="30"/>
<feComposite in2="hardAlpha" operator="out"/>
<feColorMatrix type="matrix" values="0 0 0 0 0.105882 0 0 0 0 0.105882 0 0 0 0 0.160784 0 0 0 0.06 0"/>
<feBlend mode="normal" in2="BackgroundImageFix" result="effect1_dropShadow_797_748"/>
<feBlend mode="normal" in="SourceGraphic" in2="effect1_dropShadow_797_748" result="shape"/>
</filter>
<clipPath id="clip0_797_748">
<rect width="270" height="130" fill="white" transform="translate(60 50.5)"/>
</clipPath>
<clipPath id="clip1_797_748">
<rect width="16" height="16" fill="white" transform="translate(195.91 74.5)"/>
</clipPath>
<clipPath id="clip2_797_748">
<rect width="16" height="16" fill="white" transform="translate(195.91 74.5)"/>
</clipPath>
<clipPath id="clip3_797_748">
<rect width="244" height="182" fill="white" transform="translate(166 22.5)"/>
</clipPath>
</defs>
</svg>
