<svg width="17" height="17" viewBox="0 0 17 17" fill="none" xmlns="http://www.w3.org/2000/svg">
<g clip-path="url(#clip0_797_735)">
<g clip-path="url(#clip1_797_735)">
<path d="M8.12012 1.58333C11.7961 1.58333 14.7868 4.574 14.7868 8.25C14.7868 11.926 11.7961 14.9167 8.12012 14.9167C4.44412 14.9167 1.45345 11.926 1.45345 8.25C1.45345 4.574 4.44412 1.58333 8.12012 1.58333ZM8.12012 0.25C3.70212 0.25 0.120117 3.832 0.120117 8.25C0.120117 12.668 3.70212 16.25 8.12012 16.25C12.5381 16.25 16.1201 12.668 16.1201 8.25C16.1201 3.832 12.5381 0.25 8.12012 0.25ZM12.1201 8.91667H4.12012V7.58333H12.1201V8.91667Z" fill="#FB8045"/>
</g>
</g>
<defs>
<clipPath id="clip0_797_735">
<rect width="16" height="16" fill="white" transform="translate(0.120117 0.25)"/>
</clipPath>
<clipPath id="clip1_797_735">
<rect width="16" height="16" fill="white" transform="translate(0.120117 0.25)"/>
</clipPath>
</defs>
</svg>
