<svg width="479" height="221" viewBox="0 0 479 221" fill="none" xmlns="http://www.w3.org/2000/svg">
<g clip-path="url(#clip0_881_63)">
<rect width="479" height="221" fill="#29293D"/>
<g clip-path="url(#clip1_881_63)">
<g clip-path="url(#clip2_881_63)">
<path fill-rule="evenodd" clip-rule="evenodd" d="M534.1 240.1H530.1C529.895 240.1 528.1 240.104 528.1 238.999V191.999C528.1 190.895 529.895 189.999 530.1 189.999H534.1C536.104 189.999 536.1 190.895 536.1 191.999V238.999C536.1 240.104 536.104 240.1 534.1 240.1ZM522.1 252.999H518.1C517.895 252.999 516.1 252.104 516.1 250.999V203.999C516.1 202.895 517.895 201.1 518.1 201.1H522.1C524.105 201.1 524.1 202.895 524.1 203.999V250.999C524.1 252.104 524.105 252.999 522.1 252.999ZM509.1 247.1H505.1C504.895 247.1 503.1 247.104 503.1 245.999V198.999C503.1 197.895 504.895 196.1 505.1 196.1H509.1C511.104 196.1 511.1 197.895 511.1 198.999V245.999C511.1 247.104 511.104 247.1 509.1 247.1ZM497.1 238.999H493.1C492.895 238.999 491.1 238.104 491.1 236.999V189.999C491.1 188.895 492.895 187.1 493.1 187.1H497.1C499.104 187.1 499.1 188.895 499.1 189.999V236.999C499.1 238.104 499.104 238.999 497.1 238.999ZM485.1 229.999H481.1C480.895 229.999 479.1 229.104 479.1 227.999V180.999C479.1 179.895 480.895 178.999 481.1 178.999H485.1C487.104 178.999 487.1 179.895 487.1 180.999V227.999C487.1 229.104 487.104 229.999 485.1 229.999ZM473.1 252.999H469.1C468.895 252.999 467.1 252.104 467.1 250.999V203.999C467.1 202.895 468.895 201.1 469.1 201.1H473.1C475.104 201.1 475.1 202.895 475.1 203.999V250.999C475.1 252.104 475.104 252.999 473.1 252.999ZM461.1 239.999H457.1C456.895 239.999 455.1 239.104 455.1 237.999V190.999C455.1 189.895 456.895 188.999 457.1 188.999H461.1C463.105 188.999 463.1 189.895 463.1 190.999V237.999C463.1 239.104 463.105 239.999 461.1 239.999ZM449.1 232.999H445.1C444.895 232.999 443.1 232.104 443.1 230.999V183.999C443.1 182.895 444.895 181.999 445.1 181.999H449.1C451.104 181.999 451.1 182.895 451.1 183.999V230.999C451.1 232.104 451.104 232.999 449.1 232.999ZM437.1 242.1H433.1C432.895 242.1 431.1 242.104 431.1 240.1V193.999C431.1 192.894 432.895 191.999 433.1 191.999H437.1C439.105 191.999 439.1 192.894 439.1 193.999V240.1C439.1 242.104 439.105 242.1 437.1 242.1ZM425.1 256.999H421.1C420.895 256.999 419.1 256.104 419.1 254.999V207.999C419.1 206.895 420.895 205.999 421.1 205.999H425.1C427.105 205.999 427.1 206.895 427.1 207.999V254.999C427.1 256.104 427.105 256.999 425.1 256.999ZM413.1 251.999H409.1C408.895 251.999 407.1 251.104 407.1 249.999V202.999C407.1 201.894 408.895 200.999 409.1 200.999H413.1C415.105 200.999 415.1 201.894 415.1 202.999V249.999C415.1 251.104 415.105 251.999 413.1 251.999ZM401.1 242.1H397.1C396.895 242.1 395.1 242.104 395.1 240.1V193.999C395.1 192.894 396.895 191.999 397.1 191.999H401.1C403.104 191.999 403.1 192.894 403.1 193.999V240.1C403.1 242.104 403.104 242.1 401.1 242.1ZM389.1 248.999H385.1C384.895 248.999 383.1 248.104 383.1 246.999V199.999C383.1 198.895 384.895 197.999 385.1 197.999H389.1C391.104 197.999 391.1 198.895 391.1 199.999V246.999C391.1 248.104 391.104 248.999 389.1 248.999ZM377.1 240.1H373.1C372.895 240.1 371.1 240.104 371.1 238.999V191.999C371.1 190.895 372.895 189.999 373.1 189.999H377.1C379.104 189.999 379.1 190.895 379.1 191.999V238.999C379.1 240.104 379.104 240.1 377.1 240.1ZM365.1 234.999H361.1C360.895 234.999 359.1 234.104 359.1 232.999V185.999C359.1 184.895 360.895 183.999 361.1 183.999H365.1C367.104 183.999 367.1 184.895 367.1 185.999V232.999C367.1 234.104 367.104 234.999 365.1 234.999ZM353.1 254.999H349.1C348.895 254.999 347.1 254.104 347.1 252.999V205.999C347.1 204.895 348.895 203.999 349.1 203.999H353.1C355.104 203.999 355.1 204.895 355.1 205.999V252.999C355.1 254.104 355.104 254.999 353.1 254.999ZM341.1 266.1H337.1C336.895 266.1 335.1 266.104 335.1 264.1V217.999C335.1 216.894 336.895 215.999 337.1 215.999H341.1C343.104 215.999 343.1 216.894 343.1 217.999V264.1C343.1 266.104 343.104 266.1 341.1 266.1ZM329.1 240.1H325.1C324.895 240.1 323.1 240.104 323.1 238.999V191.999C323.1 190.895 324.895 189.999 325.1 189.999H329.1C331.105 189.999 331.1 190.895 331.1 191.999V238.999C331.1 240.104 331.105 240.1 329.1 240.1ZM317.1 227.999H313.1C312.895 227.999 311.1 227.104 311.1 225.1V178.999C311.1 177.894 312.895 176.999 313.1 176.999H317.1C319.104 176.999 319.1 177.894 319.1 178.999V225.1C319.1 227.104 319.104 227.999 317.1 227.999ZM305.1 242.1H301.1C300.895 242.1 299.1 242.104 299.1 240.1V193.999C299.1 192.894 300.895 191.999 301.1 191.999H305.1C307.105 191.999 307.1 192.894 307.1 193.999V240.1C307.1 242.104 307.105 242.1 305.1 242.1ZM293.1 247.1H289.1C288.895 247.1 287.1 247.104 287.1 245.999V198.999C287.1 197.895 288.895 196.1 289.1 196.1H293.1C295.105 196.1 295.1 197.895 295.1 198.999V245.999C295.1 247.104 295.105 247.1 293.1 247.1ZM281.1 252.999H277.1C276.895 252.999 275.1 252.104 275.1 250.999V203.999C275.1 202.895 276.895 201.1 277.1 201.1H281.1C283.105 201.1 283.1 202.895 283.1 203.999V250.999C283.1 252.104 283.105 252.999 281.1 252.999ZM268.1 236.999H264.1C263.895 236.999 262.1 236.103 262.1 234.999V187.1C262.1 186.895 263.895 185.999 264.1 185.999H268.1C270.104 185.999 270.1 186.895 270.1 187.1V234.999C270.1 236.103 270.104 236.999 268.1 236.999ZM256.1 245.999H252.1C251.895 245.999 250.1 245.104 250.1 243.999V196.1C250.1 195.895 251.895 194.999 252.1 194.999H256.1C258.104 194.999 258.1 195.895 258.1 196.1V243.999C258.1 245.104 258.104 245.999 256.1 245.999ZM244.1 240.1H240.1C239.895 240.1 238.1 240.104 238.1 238.999V191.999C238.1 190.895 239.895 189.999 240.1 189.999H244.1C246.105 189.999 246.1 190.895 246.1 191.999V238.999C246.1 240.104 246.105 240.1 244.1 240.1ZM232.1 252.999H228.1C227.895 252.999 226.1 252.104 226.1 250.999V203.999C226.1 202.895 227.895 201.1 228.1 201.1H232.1C234.104 201.1 234.1 202.895 234.1 203.999V250.999C234.1 252.104 234.104 252.999 232.1 252.999ZM219.1 247.1H215.1C214.895 247.1 213.1 247.104 213.1 245.999V198.999C213.1 197.895 214.895 196.1 215.1 196.1H219.1C221.104 196.1 221.1 197.895 221.1 198.999V245.999C221.1 247.104 221.104 247.1 219.1 247.1ZM207.1 238.999H203.1C202.895 238.999 201.1 238.104 201.1 236.999V189.999C201.1 188.895 202.895 187.1 203.1 187.1H207.1C209.104 187.1 209.1 188.895 209.1 189.999V236.999C209.1 238.104 209.104 238.999 207.1 238.999ZM195.1 229.999H191.1C190.895 229.999 189.1 229.104 189.1 227.999V180.999C189.1 179.895 190.895 178.999 191.1 178.999H195.1C197.104 178.999 197.1 179.895 197.1 180.999V227.999C197.1 229.104 197.104 229.999 195.1 229.999ZM183.1 252.999H179.1C178.895 252.999 177.1 252.104 177.1 250.999V203.999C177.1 202.895 178.895 201.1 179.1 201.1H183.1C185.104 201.1 185.1 202.895 185.1 203.999V250.999C185.1 252.104 185.104 252.999 183.1 252.999ZM171.1 239.999H167.1C166.895 239.999 165.1 239.104 165.1 237.999V190.999C165.1 189.895 166.895 188.999 167.1 188.999H171.1C173.105 188.999 173.1 189.895 173.1 190.999V237.999C173.1 239.104 173.105 239.999 171.1 239.999ZM159.1 232.999H155.1C154.895 232.999 153.1 232.104 153.1 230.999V183.999C153.1 182.895 154.895 181.999 155.1 181.999H159.1C161.104 181.999 161.1 182.895 161.1 183.999V230.999C161.1 232.104 161.104 232.999 159.1 232.999ZM147.1 242.1H143.1C142.895 242.1 141.1 242.104 141.1 240.1V193.999C141.1 192.894 142.895 191.999 143.1 191.999H147.1C149.105 191.999 149.1 192.894 149.1 193.999V240.1C149.1 242.104 149.105 242.1 147.1 242.1ZM135.1 256.999H131.1C130.895 256.999 129.1 256.104 129.1 254.999V207.999C129.1 206.895 130.895 205.999 131.1 205.999H135.1C137.105 205.999 137.1 206.895 137.1 207.999V254.999C137.1 256.104 137.105 256.999 135.1 256.999ZM123.1 251.999H119.1C118.895 251.999 117.1 251.104 117.1 249.999V202.999C117.1 201.894 118.895 200.999 119.1 200.999H123.1C125.104 200.999 125.1 201.894 125.1 202.999V249.999C125.1 251.104 125.104 251.999 123.1 251.999ZM111.1 242.1H107.1C106.895 242.1 105.1 242.104 105.1 240.1V193.999C105.1 192.894 106.895 191.999 107.1 191.999H111.1C113.104 191.999 113.1 192.894 113.1 193.999V240.1C113.1 242.104 113.104 242.1 111.1 242.1ZM99.1 248.999H95.1C94.895 248.999 93.1 248.104 93.1 246.999V199.999C93.1 198.895 94.895 197.999 95.1 197.999H99.1C101.104 197.999 101.1 198.895 101.1 199.999V246.999C101.1 248.104 101.104 248.999 99.1 248.999ZM87.1 240.1H83.1C82.895 240.1 81.1 240.104 81.1 238.999V191.999C81.1 190.895 82.895 189.999 83.1 189.999H87.1C89.104 189.999 89.1 190.895 89.1 191.999V238.999C89.1 240.104 89.104 240.1 87.1 240.1ZM75.1 234.999H71.1C70.895 234.999 69.1 234.104 69.1 232.999V185.999C69.1 184.895 70.895 183.999 71.1 183.999H75.1C77.105 183.999 77.1 184.895 77.1 185.999V232.999C77.1 234.104 77.105 234.999 75.1 234.999ZM63.1 254.999H59.1C58.895 254.999 57.1 254.104 57.1 252.999V205.999C57.1 204.895 58.895 203.999 59.1 203.999H63.1C65.104 203.999 65.1 204.895 65.1 205.999V252.999C65.1 254.104 65.104 254.999 63.1 254.999ZM51.1 266.1H47.1C46.895 266.1 45.1 266.104 45.1 264.1V217.999C45.1 216.894 46.895 215.999 47.1 215.999H51.1C53.104 215.999 53.1 216.894 53.1 217.999V264.1C53.1 266.104 53.104 266.1 51.1 266.1ZM39.1 240.1H35.1C34.895 240.1 33.1 240.104 33.1 238.999V191.999C33.1 190.895 34.895 189.999 35.1 189.999H39.1C41.105 189.999 41.1 190.895 41.1 191.999V238.999C41.1 240.104 41.105 240.1 39.1 240.1ZM27.1 227.999H23.1C22.895 227.999 21.1 227.104 21.1 225.1V178.999C21.1 177.894 22.895 176.999 23.1 176.999H27.1C29.104 176.999 29.1 177.894 29.1 178.999V225.1C29.1 227.104 29.104 227.999 27.1 227.999ZM15.1 242.1H11.1C10.895 242.1 9.1 242.104 9.1 240.1V193.999C9.1 192.894 10.895 191.999 11.1 191.999H15.1C17.105 191.999 17.1 192.894 17.1 193.999V240.1C17.1 242.104 17.105 242.1 15.1 242.1ZM3.1 247.1H-0.900002C-1.105 247.1 -2.9 247.104 -2.9 245.999V198.999C-2.9 197.895 -1.105 196.1 -0.900002 196.1H3.1C5.105 196.1 5.1 197.895 5.1 198.999V245.999C5.1 247.104 5.105 247.1 3.1 247.1ZM-8.9 252.999H-12.9C-13.105 252.999 -14.9 252.104 -14.9 250.999V203.999C-14.9 202.895 -13.105 201.1 -12.9 201.1H-8.9C-6.896 201.1 -6.9 202.895 -6.9 203.999V250.999C-6.9 252.104 -6.896 252.999 -8.9 252.999ZM-21.9 236.999H-25.9C-26.105 236.999 -27.9 236.103 -27.9 234.999V187.1C-27.9 186.895 -26.105 185.999 -25.9 185.999H-21.9C-19.896 185.999 -19.9 186.895 -19.9 187.1V234.999C-19.9 236.103 -19.896 236.999 -21.9 236.999ZM-33.9 245.999H-37.9C-38.105 245.999 -39 245.104 -39 243.999V196.1C-39 195.895 -38.105 194.999 -37.9 194.999H-33.9C-31.896 194.999 -31.9 195.895 -31.9 196.1V243.999C-31.9 245.104 -31.896 245.999 -33.9 245.999Z" fill="#33334D"/>
</g>
</g>
<g clip-path="url(#clip3_881_63)">
<g clip-path="url(#clip4_881_63)">
<path fill-rule="evenodd" clip-rule="evenodd" d="M534.1 249.999H530.1C529.895 249.999 528.1 249.104 528.1 247.999V200.999C528.1 199.895 529.895 198.999 530.1 198.999H534.1C536.104 198.999 536.1 199.895 536.1 200.999V247.999C536.1 249.104 536.104 249.999 534.1 249.999ZM522.1 259.999H518.1C517.895 259.999 516.1 259.104 516.1 257.999V210.999C516.1 209.895 517.895 208.999 518.1 208.999H522.1C524.105 208.999 524.1 209.895 524.1 210.999V257.999C524.1 259.104 524.105 259.999 522.1 259.999ZM509.1 253.999H505.1C504.895 253.999 503.1 253.104 503.1 251.999V204.999C503.1 203.895 504.895 202.999 505.1 202.999H509.1C511.104 202.999 511.1 203.895 511.1 204.999V251.999C511.1 253.104 511.104 253.999 509.1 253.999ZM497.1 262.1H493.1C492.895 262.1 491.1 262.104 491.1 260.1V213.999C491.1 212.894 492.895 211.999 493.1 211.999H497.1C499.104 211.999 499.1 212.894 499.1 213.999V260.1C499.1 262.104 499.104 262.1 497.1 262.1ZM485.1 253.999H481.1C480.895 253.999 479.1 253.104 479.1 251.999V204.999C479.1 203.895 480.895 202.999 481.1 202.999H485.1C487.104 202.999 487.1 203.895 487.1 204.999V251.999C487.1 253.104 487.104 253.999 485.1 253.999ZM473.1 261.999H469.1C468.895 261.999 467.1 261.104 467.1 259.999V212.1C467.1 211.895 468.895 210.999 469.1 210.999H473.1C475.104 210.999 475.1 211.895 475.1 212.1V259.999C475.1 261.104 475.104 261.999 473.1 261.999ZM461.1 246.999H457.1C456.895 246.999 455.1 246.104 455.1 244.999V197.1C455.1 196.894 456.895 195.999 457.1 195.999H461.1C463.105 195.999 463.1 196.894 463.1 197.1V244.999C463.1 246.104 463.105 246.999 461.1 246.999ZM449.1 253.999H445.1C444.895 253.999 443.1 253.104 443.1 251.999V204.999C443.1 203.895 444.895 202.999 445.1 202.999H449.1C451.104 202.999 451.1 203.895 451.1 204.999V251.999C451.1 253.104 451.104 253.999 449.1 253.999ZM437.1 249.999H433.1C432.895 249.999 431.1 249.104 431.1 247.999V200.999C431.1 199.895 432.895 198.999 433.1 198.999H437.1C439.105 198.999 439.1 199.895 439.1 200.999V247.999C439.1 249.104 439.105 249.999 437.1 249.999ZM425.1 261.999H421.1C420.895 261.999 419.1 261.104 419.1 259.999V212.1C419.1 211.895 420.895 210.999 421.1 210.999H425.1C427.105 210.999 427.1 211.895 427.1 212.1V259.999C427.1 261.104 427.105 261.999 425.1 261.999ZM413.1 271.999H409.1C408.895 271.999 407.1 271.103 407.1 269.999V222.999C407.1 221.895 408.895 220.999 409.1 220.999H413.1C415.105 220.999 415.1 221.895 415.1 222.999V269.999C415.1 271.103 415.105 271.999 413.1 271.999ZM401.1 264.999H397.1C396.895 264.999 395.1 264.104 395.1 262.1V215.999C395.1 214.895 396.895 213.999 397.1 213.999H401.1C403.104 213.999 403.1 214.895 403.1 215.999V262.1C403.1 264.104 403.104 264.999 401.1 264.999ZM389.1 255.1H385.1C384.895 255.1 383.1 255.104 383.1 253.999V206.999C383.1 205.895 384.895 204.999 385.1 204.999H389.1C391.104 204.999 391.1 205.895 391.1 206.999V253.999C391.1 255.104 391.104 255.1 389.1 255.1ZM377.1 245.999H373.1C372.895 245.999 371.1 245.104 371.1 243.1V196.999C371.1 195.895 372.895 194.999 373.1 194.999H377.1C379.104 194.999 379.1 195.895 379.1 196.999V243.1C379.1 245.104 379.104 245.999 377.1 245.999ZM365.1 253.999H361.1C360.895 253.999 359.1 253.104 359.1 251.999V204.999C359.1 203.895 360.895 202.999 361.1 202.999H365.1C367.104 202.999 367.1 203.895 367.1 204.999V251.999C367.1 253.104 367.104 253.999 365.1 253.999ZM353.1 261.999H349.1C348.895 261.999 347.1 261.104 347.1 259.999V212.1C347.1 211.895 348.895 210.999 349.1 210.999H353.1C355.104 210.999 355.1 211.895 355.1 212.1V259.999C355.1 261.104 355.104 261.999 353.1 261.999ZM341.1 275.999H337.1C336.895 275.999 335.1 275.104 335.1 273.999V226.999C335.1 225.895 336.895 224.999 337.1 224.999H341.1C343.104 224.999 343.1 225.895 343.1 226.999V273.999C343.1 275.104 343.104 275.999 341.1 275.999ZM329.1 264.999H325.1C324.895 264.999 323.1 264.104 323.1 262.1V215.999C323.1 214.895 324.895 213.999 325.1 213.999H329.1C331.105 213.999 331.1 214.895 331.1 215.999V262.1C331.1 264.104 331.105 264.999 329.1 264.999ZM317.1 249.999H313.1C312.895 249.999 311.1 249.104 311.1 247.999V200.999C311.1 199.895 312.895 198.999 313.1 198.999H317.1C319.104 198.999 319.1 199.895 319.1 200.999V247.999C319.1 249.104 319.104 249.999 317.1 249.999ZM305.1 253.999H301.1C300.895 253.999 299.1 253.104 299.1 251.999V204.999C299.1 203.895 300.895 202.999 301.1 202.999H305.1C307.105 202.999 307.1 203.895 307.1 204.999V251.999C307.1 253.104 307.105 253.999 305.1 253.999ZM293.1 271.999H289.1C288.895 271.999 287.1 271.103 287.1 269.999V222.999C287.1 221.895 288.895 220.999 289.1 220.999H293.1C295.105 220.999 295.1 221.895 295.1 222.999V269.999C295.1 271.103 295.105 271.999 293.1 271.999ZM281.1 257.999H277.1C276.895 257.999 275.1 257.104 275.1 255.1V208.999C275.1 207.894 276.895 206.999 277.1 206.999H281.1C283.105 206.999 283.1 207.894 283.1 208.999V255.1C283.1 257.104 283.105 257.999 281.1 257.999ZM268.1 266.999H264.1C263.895 266.999 262.1 266.104 262.1 264.999V217.999C262.1 216.895 263.895 215.999 264.1 215.999H268.1C270.104 215.999 270.1 216.895 270.1 217.999V264.999C270.1 266.104 270.104 266.999 268.1 266.999ZM256.1 250.999H252.1C251.895 250.999 250.1 250.104 250.1 248.999V201.999C250.1 200.895 251.895 199.999 252.1 199.999H256.1C258.104 199.999 258.1 200.895 258.1 201.999V248.999C258.1 250.104 258.104 250.999 256.1 250.999ZM244.1 249.999H240.1C239.895 249.999 238.1 249.104 238.1 247.999V200.999C238.1 199.895 239.895 198.999 240.1 198.999H244.1C246.105 198.999 246.1 199.895 246.1 200.999V247.999C246.1 249.104 246.105 249.999 244.1 249.999ZM232.1 259.999H228.1C227.895 259.999 226.1 259.104 226.1 257.999V210.999C226.1 209.895 227.895 208.999 228.1 208.999H232.1C234.104 208.999 234.1 209.895 234.1 210.999V257.999C234.1 259.104 234.104 259.999 232.1 259.999ZM219.1 253.999H215.1C214.895 253.999 213.1 253.104 213.1 251.999V204.999C213.1 203.895 214.895 202.999 215.1 202.999H219.1C221.104 202.999 221.1 203.895 221.1 204.999V251.999C221.1 253.104 221.104 253.999 219.1 253.999ZM207.1 262.1H203.1C202.895 262.1 201.1 262.104 201.1 260.1V213.999C201.1 212.894 202.895 211.999 203.1 211.999H207.1C209.104 211.999 209.1 212.894 209.1 213.999V260.1C209.1 262.104 209.104 262.1 207.1 262.1ZM195.1 253.999H191.1C190.895 253.999 189.1 253.104 189.1 251.999V204.999C189.1 203.895 190.895 202.999 191.1 202.999H195.1C197.104 202.999 197.1 203.895 197.1 204.999V251.999C197.1 253.104 197.104 253.999 195.1 253.999ZM183.1 261.999H179.1C178.895 261.999 177.1 261.104 177.1 259.999V212.1C177.1 211.895 178.895 210.999 179.1 210.999H183.1C185.104 210.999 185.1 211.895 185.1 212.1V259.999C185.1 261.104 185.104 261.999 183.1 261.999ZM171.1 246.999H167.1C166.895 246.999 165.1 246.104 165.1 244.999V197.1C165.1 196.894 166.895 195.999 167.1 195.999H171.1C173.105 195.999 173.1 196.894 173.1 197.1V244.999C173.1 246.104 173.105 246.999 171.1 246.999ZM159.1 253.999H155.1C154.895 253.999 153.1 253.104 153.1 251.999V204.999C153.1 203.895 154.895 202.999 155.1 202.999H159.1C161.104 202.999 161.1 203.895 161.1 204.999V251.999C161.1 253.104 161.104 253.999 159.1 253.999ZM147.1 249.999H143.1C142.895 249.999 141.1 249.104 141.1 247.999V200.999C141.1 199.895 142.895 198.999 143.1 198.999H147.1C149.105 198.999 149.1 199.895 149.1 200.999V247.999C149.1 249.104 149.105 249.999 147.1 249.999ZM135.1 261.999H131.1C130.895 261.999 129.1 261.104 129.1 259.999V212.1C129.1 211.895 130.895 210.999 131.1 210.999H135.1C137.105 210.999 137.1 211.895 137.1 212.1V259.999C137.1 261.104 137.105 261.999 135.1 261.999ZM123.1 271.999H119.1C118.895 271.999 117.1 271.103 117.1 269.999V222.999C117.1 221.895 118.895 220.999 119.1 220.999H123.1C125.104 220.999 125.1 221.895 125.1 222.999V269.999C125.1 271.103 125.104 271.999 123.1 271.999ZM111.1 264.999H107.1C106.895 264.999 105.1 264.104 105.1 262.1V215.999C105.1 214.895 106.895 213.999 107.1 213.999H111.1C113.104 213.999 113.1 214.895 113.1 215.999V262.1C113.1 264.104 113.104 264.999 111.1 264.999ZM99.1 255.1H95.1C94.895 255.1 93.1 255.104 93.1 253.999V206.999C93.1 205.895 94.895 204.999 95.1 204.999H99.1C101.104 204.999 101.1 205.895 101.1 206.999V253.999C101.1 255.104 101.104 255.1 99.1 255.1ZM87.1 245.999H83.1C82.895 245.999 81.1 245.104 81.1 243.1V196.999C81.1 195.895 82.895 194.999 83.1 194.999H87.1C89.104 194.999 89.1 195.895 89.1 196.999V243.1C89.1 245.104 89.104 245.999 87.1 245.999ZM75.1 253.999H71.1C70.895 253.999 69.1 253.104 69.1 251.999V204.999C69.1 203.895 70.895 202.999 71.1 202.999H75.1C77.105 202.999 77.1 203.895 77.1 204.999V251.999C77.1 253.104 77.105 253.999 75.1 253.999ZM63.1 261.999H59.1C58.895 261.999 57.1 261.104 57.1 259.999V212.1C57.1 211.895 58.895 210.999 59.1 210.999H63.1C65.104 210.999 65.1 211.895 65.1 212.1V259.999C65.1 261.104 65.104 261.999 63.1 261.999ZM51.1 275.999H47.1C46.895 275.999 45.1 275.104 45.1 273.999V226.999C45.1 225.895 46.895 224.999 47.1 224.999H51.1C53.104 224.999 53.1 225.895 53.1 226.999V273.999C53.1 275.104 53.104 275.999 51.1 275.999ZM39.1 264.999H35.1C34.895 264.999 33.1 264.104 33.1 262.1V215.999C33.1 214.895 34.895 213.999 35.1 213.999H39.1C41.105 213.999 41.1 214.895 41.1 215.999V262.1C41.1 264.104 41.105 264.999 39.1 264.999ZM27.1 249.999H23.1C22.895 249.999 21.1 249.104 21.1 247.999V200.999C21.1 199.895 22.895 198.999 23.1 198.999H27.1C29.104 198.999 29.1 199.895 29.1 200.999V247.999C29.1 249.104 29.104 249.999 27.1 249.999ZM15.1 253.999H11.1C10.895 253.999 9.1 253.104 9.1 251.999V204.999C9.1 203.895 10.895 202.999 11.1 202.999H15.1C17.105 202.999 17.1 203.895 17.1 204.999V251.999C17.1 253.104 17.105 253.999 15.1 253.999ZM3.1 271.999H-0.900002C-1.105 271.999 -2.9 271.103 -2.9 269.999V222.999C-2.9 221.895 -1.105 220.999 -0.900002 220.999H3.1C5.105 220.999 5.1 221.895 5.1 222.999V269.999C5.1 271.103 5.105 271.999 3.1 271.999ZM-8.9 257.999H-12.9C-13.105 257.999 -14.9 257.104 -14.9 255.1V208.999C-14.9 207.894 -13.105 206.999 -12.9 206.999H-8.9C-6.896 206.999 -6.9 207.894 -6.9 208.999V255.1C-6.9 257.104 -6.896 257.999 -8.9 257.999ZM-21.9 266.999H-25.9C-26.105 266.999 -27.9 266.104 -27.9 264.999V217.999C-27.9 216.895 -26.105 215.999 -25.9 215.999H-21.9C-19.896 215.999 -19.9 216.895 -19.9 217.999V264.999C-19.9 266.104 -19.896 266.999 -21.9 266.999ZM-33.9 250.999H-37.9C-38.105 250.999 -39 250.104 -39 248.999V201.999C-39 200.895 -38.105 199.999 -37.9 199.999H-33.9C-31.896 199.999 -31.9 200.895 -31.9 201.999V248.999C-31.9 250.104 -31.896 250.999 -33.9 250.999Z" fill="#FB8045"/>
</g>
</g>
<g clip-path="url(#clip5_881_63)">
<g clip-path="url(#clip6_881_63)">
<path fill-rule="evenodd" clip-rule="evenodd" d="M509.1 253.999H505.1C504.895 253.999 503.1 253.104 503.1 251.999V204.999C503.1 203.895 504.895 202.999 505.1 202.999H509.1C511.104 202.999 511.1 203.895 511.1 204.999V251.999C511.1 253.104 511.104 253.999 509.1 253.999ZM449.1 253.999H445.1C444.895 253.999 443.1 253.104 443.1 251.999V204.999C443.1 203.895 444.895 202.999 445.1 202.999H449.1C451.104 202.999 451.1 203.895 451.1 204.999V251.999C451.1 253.104 451.104 253.999 449.1 253.999ZM377.1 245.999H373.1C372.895 245.999 371.1 245.104 371.1 243.1V196.999C371.1 195.895 372.895 194.999 373.1 194.999H377.1C379.104 194.999 379.1 195.895 379.1 196.999V243.1C379.1 245.104 379.104 245.999 377.1 245.999ZM353.1 261.999H349.1C348.895 261.999 347.1 261.104 347.1 259.999V212.1C347.1 211.895 348.895 210.999 349.1 210.999H353.1C355.104 210.999 355.1 211.895 355.1 212.1V259.999C355.1 261.104 355.104 261.999 353.1 261.999ZM329.1 264.999H325.1C324.895 264.999 323.1 264.104 323.1 262.1V215.999C323.1 214.895 324.895 213.999 325.1 213.999H329.1C331.105 213.999 331.1 214.895 331.1 215.999V262.1C331.1 264.104 331.105 264.999 329.1 264.999ZM268.1 266.999H264.1C263.895 266.999 262.1 266.104 262.1 264.999V217.999C262.1 216.895 263.895 215.999 264.1 215.999H268.1C270.104 215.999 270.1 216.895 270.1 217.999V264.999C270.1 266.104 270.104 266.999 268.1 266.999ZM219.1 253.999H215.1C214.895 253.999 213.1 253.104 213.1 251.999V204.999C213.1 203.895 214.895 202.999 215.1 202.999H219.1C221.104 202.999 221.1 203.895 221.1 204.999V251.999C221.1 253.104 221.104 253.999 219.1 253.999ZM159.1 253.999H155.1C154.895 253.999 153.1 253.104 153.1 251.999V204.999C153.1 203.895 154.895 202.999 155.1 202.999H159.1C161.104 202.999 161.1 203.895 161.1 204.999V251.999C161.1 253.104 161.104 253.999 159.1 253.999ZM87.1 245.999H83.1C82.895 245.999 81.1 245.104 81.1 243.1V196.999C81.1 195.895 82.895 194.999 83.1 194.999H87.1C89.104 194.999 89.1 195.895 89.1 196.999V243.1C89.1 245.104 89.104 245.999 87.1 245.999ZM63.1 261.999H59.1C58.895 261.999 57.1 261.104 57.1 259.999V212.1C57.1 211.895 58.895 210.999 59.1 210.999H63.1C65.104 210.999 65.1 211.895 65.1 212.1V259.999C65.1 261.104 65.104 261.999 63.1 261.999ZM39.1 264.999H35.1C34.895 264.999 33.1 264.104 33.1 262.1V215.999C33.1 214.895 34.895 213.999 35.1 213.999H39.1C41.105 213.999 41.1 214.895 41.1 215.999V262.1C41.1 264.104 41.105 264.999 39.1 264.999ZM-21.9 266.999H-25.9C-26.105 266.999 -27 266.104 -27 264.999V217.999C-27 216.895 -26.105 215.999 -25.9 215.999H-21.9C-19.896 215.999 -19.9 216.895 -19.9 217.999V264.999C-19.9 266.104 -19.896 266.999 -21.9 266.999Z" fill="#FF8291"/>
</g>
</g>
</g>
<defs>
<clipPath id="clip0_881_63">
<rect width="479" height="221" fill="white"/>
</clipPath>
<clipPath id="clip1_881_63">
<rect width="517.5" height="90" fill="white" transform="translate(-39 177)"/>
</clipPath>
<clipPath id="clip2_881_63">
<rect width="576" height="90" fill="white" transform="translate(-39 177)"/>
</clipPath>
<clipPath id="clip3_881_63">
<rect width="517.5" height="81" fill="white" transform="translate(-39 195)"/>
</clipPath>
<clipPath id="clip4_881_63">
<rect width="576" height="81" fill="white" transform="translate(-39 195)"/>
</clipPath>
<clipPath id="clip5_881_63">
<rect width="505.5" height="72" fill="white" transform="translate(-27 195)"/>
</clipPath>
<clipPath id="clip6_881_63">
<rect width="539" height="72" fill="white" transform="translate(-27 195)"/>
</clipPath>
</defs>
</svg>
