<svg width="390" height="480" viewBox="0 0 390 480" fill="none" xmlns="http://www.w3.org/2000/svg">
<g clip-path="url(#clip0_797_669)" filter="url(#filter0_d_797_669)">
<rect width="270" height="360" transform="translate(60 50)" fill="#29293D"/>
<path d="M151.147 147.614C152.942 147.614 154.67 147.915 156.329 148.517C157.999 149.119 159.488 150.08 160.795 151.398C162.113 152.716 163.153 154.466 163.914 156.648C164.687 158.818 165.079 161.483 165.09 164.642C165.09 167.608 164.755 170.256 164.084 172.585C163.425 174.903 162.476 176.875 161.238 178.5C159.999 180.125 158.505 181.364 156.755 182.216C155.005 183.057 153.05 183.477 150.891 183.477C148.562 183.477 146.505 183.028 144.721 182.131C142.937 181.222 141.499 179.989 140.408 178.432C139.329 176.864 138.675 175.102 138.448 173.148H145.726C146.011 174.42 146.607 175.409 147.516 176.114C148.425 176.807 149.55 177.153 150.891 177.153C153.164 177.153 154.891 176.165 156.073 174.188C157.255 172.199 157.851 169.477 157.863 166.023H157.624C157.101 167.045 156.397 167.926 155.511 168.665C154.624 169.392 153.607 169.955 152.459 170.352C151.323 170.75 150.113 170.949 148.829 170.949C146.772 170.949 144.937 170.466 143.323 169.5C141.709 168.534 140.437 167.205 139.505 165.511C138.573 163.818 138.107 161.886 138.107 159.716C138.096 157.375 138.636 155.29 139.726 153.46C140.817 151.631 142.34 150.199 144.295 149.165C146.261 148.119 148.545 147.602 151.147 147.614ZM151.198 153.409C150.05 153.409 149.028 153.682 148.13 154.227C147.243 154.773 146.539 155.506 146.016 156.426C145.505 157.347 145.255 158.375 145.266 159.511C145.266 160.659 145.516 161.693 146.016 162.614C146.528 163.523 147.221 164.25 148.096 164.795C148.982 165.33 149.993 165.597 151.13 165.597C151.982 165.597 152.772 165.437 153.499 165.119C154.226 164.801 154.857 164.364 155.391 163.807C155.937 163.239 156.363 162.585 156.67 161.847C156.976 161.108 157.13 160.324 157.13 159.494C157.118 158.392 156.857 157.381 156.346 156.46C155.834 155.54 155.13 154.801 154.232 154.244C153.334 153.687 152.323 153.409 151.198 153.409ZM167.275 176.864V171.051L181.849 148.091H186.861V156.136H183.895L174.707 170.676V170.949H195.417V176.864H167.275ZM184.031 183V175.091L184.167 172.517V148.091H191.088V183H184.031ZM197.935 183V177.682L210.361 166.176C211.418 165.153 212.304 164.233 213.02 163.415C213.747 162.597 214.299 161.795 214.674 161.011C215.049 160.216 215.236 159.358 215.236 158.438C215.236 157.415 215.003 156.534 214.537 155.795C214.071 155.045 213.435 154.472 212.628 154.074C211.821 153.665 210.907 153.46 209.884 153.46C208.816 153.46 207.884 153.676 207.088 154.108C206.293 154.54 205.679 155.159 205.247 155.966C204.816 156.773 204.6 157.733 204.6 158.847H197.594C197.594 156.562 198.111 154.58 199.145 152.898C200.179 151.216 201.628 149.915 203.492 148.994C205.355 148.074 207.503 147.614 209.935 147.614C212.435 147.614 214.611 148.057 216.463 148.943C218.327 149.818 219.776 151.034 220.81 152.591C221.844 154.148 222.361 155.932 222.361 157.943C222.361 159.261 222.1 160.562 221.577 161.847C221.066 163.131 220.151 164.557 218.833 166.125C217.515 167.682 215.657 169.551 213.259 171.733L208.162 176.727V176.966H222.821V183H197.935ZM225.974 183V148.091H233.355V163.483H233.815L246.377 148.091H255.224L242.269 163.722L255.377 183H246.548L236.985 168.648L233.355 173.08V183H225.974Z" fill="white"/>
<path d="M155.349 217.182C155.272 216.534 154.961 216.031 154.416 215.673C153.87 215.315 153.201 215.136 152.409 215.136C151.829 215.136 151.322 215.23 150.887 215.418C150.457 215.605 150.12 215.863 149.877 216.191C149.639 216.519 149.519 216.892 149.519 217.31C149.519 217.659 149.602 217.96 149.769 218.211C149.939 218.458 150.156 218.665 150.421 218.831C150.685 218.993 150.962 219.127 151.252 219.234C151.541 219.336 151.808 219.419 152.051 219.483L153.38 219.841C153.721 219.93 154.1 220.054 154.518 220.212C154.94 220.369 155.343 220.585 155.726 220.857C156.114 221.126 156.433 221.471 156.685 221.893C156.936 222.315 157.062 222.832 157.062 223.446C157.062 224.153 156.877 224.793 156.506 225.364C156.139 225.935 155.602 226.388 154.895 226.725C154.192 227.062 153.338 227.23 152.332 227.23C151.394 227.23 150.583 227.079 149.897 226.776C149.215 226.474 148.678 226.052 148.286 225.511C147.898 224.969 147.678 224.341 147.627 223.625H149.264C149.306 224.119 149.473 224.528 149.762 224.852C150.056 225.172 150.427 225.411 150.875 225.568C151.326 225.722 151.812 225.798 152.332 225.798C152.937 225.798 153.48 225.7 153.962 225.504C154.443 225.304 154.825 225.027 155.106 224.673C155.387 224.315 155.528 223.898 155.528 223.42C155.528 222.986 155.406 222.632 155.164 222.359C154.921 222.087 154.601 221.865 154.205 221.695C153.808 221.524 153.38 221.375 152.92 221.247L151.309 220.787C150.286 220.493 149.477 220.073 148.88 219.528C148.284 218.982 147.985 218.268 147.985 217.386C147.985 216.653 148.183 216.014 148.58 215.469C148.98 214.919 149.517 214.493 150.191 214.19C150.868 213.884 151.625 213.73 152.46 213.73C153.303 213.73 154.053 213.881 154.71 214.184C155.366 214.482 155.886 214.891 156.269 215.411C156.657 215.931 156.862 216.521 156.883 217.182H155.349ZM165.251 222.986V217.182H166.76V227H165.251V225.338H165.149C164.919 225.837 164.561 226.261 164.075 226.61C163.589 226.955 162.976 227.128 162.234 227.128C161.621 227.128 161.075 226.994 160.598 226.725C160.121 226.452 159.746 226.043 159.473 225.498C159.2 224.948 159.064 224.256 159.064 223.42V217.182H160.572V223.318C160.572 224.034 160.773 224.605 161.173 225.031C161.578 225.457 162.094 225.67 162.72 225.67C163.095 225.67 163.476 225.575 163.864 225.383C164.256 225.191 164.584 224.897 164.849 224.501C165.117 224.104 165.251 223.599 165.251 222.986ZM169.327 227V213.909H170.836V218.741H170.964C171.075 218.571 171.228 218.354 171.424 218.089C171.624 217.821 171.91 217.582 172.28 217.374C172.655 217.161 173.163 217.054 173.802 217.054C174.628 217.054 175.357 217.261 175.988 217.674C176.619 218.087 177.111 218.673 177.464 219.432C177.818 220.19 177.995 221.085 177.995 222.116C177.995 223.156 177.818 224.058 177.464 224.82C177.111 225.579 176.621 226.167 175.994 226.585C175.368 226.998 174.646 227.205 173.827 227.205C173.197 227.205 172.692 227.1 172.312 226.891C171.933 226.678 171.641 226.437 171.437 226.169C171.232 225.896 171.075 225.67 170.964 225.491H170.785V227H169.327ZM170.81 222.091C170.81 222.832 170.919 223.487 171.136 224.053C171.354 224.616 171.671 225.057 172.089 225.376C172.506 225.692 173.018 225.849 173.623 225.849C174.253 225.849 174.78 225.683 175.202 225.351C175.628 225.014 175.947 224.562 176.16 223.996C176.378 223.425 176.486 222.79 176.486 222.091C176.486 221.401 176.38 220.778 176.167 220.224C175.958 219.666 175.641 219.225 175.214 218.901C174.793 218.573 174.262 218.409 173.623 218.409C173.009 218.409 172.494 218.565 172.076 218.876C171.658 219.183 171.343 219.613 171.13 220.167C170.917 220.717 170.81 221.358 170.81 222.091ZM186.857 219.381L185.502 219.764C185.417 219.538 185.291 219.319 185.125 219.106C184.963 218.888 184.741 218.71 184.46 218.569C184.179 218.428 183.819 218.358 183.38 218.358C182.779 218.358 182.278 218.496 181.878 218.773C181.481 219.046 181.283 219.393 181.283 219.815C181.283 220.19 181.42 220.487 181.692 220.704C181.965 220.921 182.391 221.102 182.971 221.247L184.428 221.605C185.306 221.818 185.96 222.144 186.39 222.583C186.821 223.018 187.036 223.578 187.036 224.264C187.036 224.827 186.874 225.33 186.55 225.773C186.231 226.216 185.783 226.565 185.208 226.821C184.633 227.077 183.964 227.205 183.201 227.205C182.199 227.205 181.371 226.987 180.714 226.553C180.058 226.118 179.643 225.483 179.468 224.648L180.9 224.29C181.036 224.818 181.294 225.214 181.673 225.479C182.057 225.743 182.557 225.875 183.175 225.875C183.878 225.875 184.437 225.726 184.85 225.428C185.268 225.125 185.476 224.763 185.476 224.341C185.476 224 185.357 223.714 185.118 223.484C184.88 223.25 184.513 223.075 184.019 222.96L182.383 222.577C181.483 222.364 180.823 222.033 180.401 221.586C179.983 221.134 179.775 220.57 179.775 219.892C179.775 219.338 179.93 218.848 180.241 218.422C180.557 217.996 180.985 217.661 181.526 217.418C182.072 217.175 182.689 217.054 183.38 217.054C184.351 217.054 185.114 217.267 185.668 217.693C186.226 218.119 186.623 218.682 186.857 219.381ZM192.895 227.205C191.975 227.205 191.182 226.987 190.518 226.553C189.853 226.118 189.341 225.519 188.983 224.756C188.626 223.994 188.447 223.122 188.447 222.142C188.447 221.145 188.63 220.265 188.996 219.502C189.367 218.735 189.883 218.136 190.543 217.706C191.208 217.271 191.983 217.054 192.87 217.054C193.56 217.054 194.182 217.182 194.736 217.438C195.29 217.693 195.744 218.051 196.098 218.511C196.452 218.972 196.671 219.509 196.756 220.122H195.248C195.133 219.675 194.877 219.278 194.481 218.933C194.089 218.584 193.56 218.409 192.895 218.409C192.307 218.409 191.792 218.562 191.349 218.869C190.91 219.172 190.567 219.6 190.319 220.154C190.077 220.704 189.955 221.349 189.955 222.091C189.955 222.849 190.074 223.51 190.313 224.072C190.556 224.635 190.897 225.072 191.336 225.383C191.779 225.694 192.299 225.849 192.895 225.849C193.287 225.849 193.643 225.781 193.963 225.645C194.283 225.509 194.553 225.312 194.775 225.057C194.996 224.801 195.154 224.494 195.248 224.136H196.756C196.671 224.716 196.46 225.238 196.123 225.702C195.791 226.163 195.35 226.529 194.8 226.802C194.255 227.07 193.62 227.205 192.895 227.205ZM198.561 227V217.182H200.019V218.665H200.121C200.3 218.179 200.624 217.785 201.093 217.482C201.561 217.18 202.09 217.028 202.678 217.028C202.789 217.028 202.927 217.031 203.093 217.035C203.26 217.039 203.385 217.045 203.471 217.054V218.588C203.419 218.575 203.302 218.556 203.119 218.531C202.94 218.501 202.75 218.486 202.55 218.486C202.073 218.486 201.647 218.586 201.272 218.786C200.901 218.982 200.607 219.255 200.39 219.604C200.177 219.95 200.07 220.344 200.07 220.787V227H198.561ZM204.859 227V217.182H206.367V227H204.859ZM205.626 215.545C205.332 215.545 205.078 215.445 204.865 215.245C204.656 215.045 204.552 214.804 204.552 214.523C204.552 214.241 204.656 214.001 204.865 213.8C205.078 213.6 205.332 213.5 205.626 213.5C205.92 213.5 206.171 213.6 206.38 213.8C206.593 214.001 206.7 214.241 206.7 214.523C206.7 214.804 206.593 215.045 206.38 215.245C206.171 215.445 205.92 215.545 205.626 215.545ZM208.935 227V213.909H210.443V218.741H210.571C210.682 218.571 210.835 218.354 211.031 218.089C211.232 217.821 211.517 217.582 211.888 217.374C212.263 217.161 212.77 217.054 213.409 217.054C214.236 217.054 214.965 217.261 215.595 217.674C216.226 218.087 216.718 218.673 217.072 219.432C217.426 220.19 217.602 221.085 217.602 222.116C217.602 223.156 217.426 224.058 217.072 224.82C216.718 225.579 216.228 226.167 215.602 226.585C214.975 226.998 214.253 227.205 213.435 227.205C212.804 227.205 212.299 227.1 211.92 226.891C211.541 226.678 211.249 226.437 211.044 226.169C210.84 225.896 210.682 225.67 210.571 225.491H210.392V227H208.935ZM210.418 222.091C210.418 222.832 210.526 223.487 210.744 224.053C210.961 224.616 211.279 225.057 211.696 225.376C212.114 225.692 212.625 225.849 213.23 225.849C213.861 225.849 214.387 225.683 214.809 225.351C215.235 225.014 215.555 224.562 215.768 223.996C215.985 223.425 216.094 222.79 216.094 222.091C216.094 221.401 215.987 220.778 215.774 220.224C215.565 219.666 215.248 219.225 214.822 218.901C214.4 218.573 213.869 218.409 213.23 218.409C212.617 218.409 212.101 218.565 211.683 218.876C211.266 219.183 210.95 219.613 210.737 220.167C210.524 220.717 210.418 221.358 210.418 222.091ZM223.626 227.205C222.68 227.205 221.864 226.996 221.178 226.578C220.496 226.156 219.97 225.568 219.599 224.814C219.233 224.055 219.05 223.173 219.05 222.168C219.05 221.162 219.233 220.276 219.599 219.509C219.97 218.737 220.486 218.136 221.146 217.706C221.811 217.271 222.587 217.054 223.473 217.054C223.984 217.054 224.489 217.139 224.988 217.31C225.486 217.48 225.94 217.757 226.349 218.141C226.759 218.52 227.084 219.023 227.327 219.649C227.57 220.276 227.692 221.047 227.692 221.963V222.602H220.124V221.298H226.158C226.158 220.744 226.047 220.25 225.825 219.815C225.608 219.381 225.297 219.038 224.892 218.786C224.491 218.535 224.018 218.409 223.473 218.409C222.872 218.409 222.352 218.558 221.913 218.857C221.479 219.151 221.144 219.534 220.91 220.007C220.675 220.48 220.558 220.987 220.558 221.528V222.398C220.558 223.139 220.686 223.768 220.942 224.283C221.202 224.795 221.562 225.185 222.022 225.453C222.482 225.717 223.017 225.849 223.626 225.849C224.023 225.849 224.381 225.794 224.7 225.683C225.024 225.568 225.303 225.398 225.538 225.172C225.772 224.942 225.953 224.656 226.081 224.315L227.538 224.724C227.385 225.219 227.127 225.653 226.765 226.028C226.403 226.399 225.955 226.689 225.423 226.898C224.89 227.102 224.291 227.205 223.626 227.205ZM229.586 227V217.182H231.044V218.665H231.146C231.325 218.179 231.649 217.785 232.118 217.482C232.586 217.18 233.115 217.028 233.703 217.028C233.814 217.028 233.952 217.031 234.118 217.035C234.285 217.039 234.41 217.045 234.496 217.054V218.588C234.444 218.575 234.327 218.556 234.144 218.531C233.965 218.501 233.775 218.486 233.575 218.486C233.098 218.486 232.672 218.586 232.297 218.786C231.926 218.982 231.632 219.255 231.415 219.604C231.202 219.95 231.095 220.344 231.095 220.787V227H229.586ZM242.838 219.381L241.483 219.764C241.398 219.538 241.272 219.319 241.106 219.106C240.944 218.888 240.723 218.71 240.441 218.569C240.16 218.428 239.8 218.358 239.361 218.358C238.76 218.358 238.259 218.496 237.859 218.773C237.463 219.046 237.264 219.393 237.264 219.815C237.264 220.19 237.401 220.487 237.674 220.704C237.946 220.921 238.372 221.102 238.952 221.247L240.409 221.605C241.287 221.818 241.941 222.144 242.372 222.583C242.802 223.018 243.017 223.578 243.017 224.264C243.017 224.827 242.855 225.33 242.531 225.773C242.212 226.216 241.764 226.565 241.189 226.821C240.614 227.077 239.945 227.205 239.182 227.205C238.181 227.205 237.352 226.987 236.696 226.553C236.039 226.118 235.624 225.483 235.449 224.648L236.881 224.29C237.017 224.818 237.275 225.214 237.654 225.479C238.038 225.743 238.539 225.875 239.156 225.875C239.86 225.875 240.418 225.726 240.831 225.428C241.249 225.125 241.458 224.763 241.458 224.341C241.458 224 241.338 223.714 241.1 223.484C240.861 223.25 240.495 223.075 240 222.96L238.364 222.577C237.465 222.364 236.804 222.033 236.382 221.586C235.965 221.134 235.756 220.57 235.756 219.892C235.756 219.338 235.911 218.848 236.223 218.422C236.538 217.996 236.966 217.661 237.507 217.418C238.053 217.175 238.671 217.054 239.361 217.054C240.333 217.054 241.095 217.267 241.649 217.693C242.208 218.119 242.604 218.682 242.838 219.381Z" fill="white"/>
<path d="M169.1 249.159C168.411 249.159 167.806 248.995 167.285 248.667C166.768 248.339 166.364 247.88 166.072 247.29C165.784 246.7 165.64 246.01 165.64 245.222C165.64 244.426 165.784 243.732 166.072 243.138C166.364 242.545 166.768 242.085 167.285 241.756C167.806 241.428 168.411 241.264 169.1 241.264C169.79 241.264 170.393 241.428 170.91 241.756C171.43 242.085 171.834 242.545 172.123 243.138C172.415 243.732 172.56 244.426 172.56 245.222C172.56 246.01 172.415 246.7 172.123 247.29C171.834 247.88 171.43 248.339 170.91 248.667C170.393 248.995 169.79 249.159 169.1 249.159ZM169.1 248.105C169.624 248.105 170.055 247.971 170.393 247.702C170.731 247.434 170.981 247.081 171.143 246.643C171.306 246.206 171.387 245.732 171.387 245.222C171.387 244.711 171.306 244.236 171.143 243.795C170.981 243.354 170.731 242.998 170.393 242.726C170.055 242.454 169.624 242.318 169.1 242.318C168.576 242.318 168.146 242.454 167.807 242.726C167.469 242.998 167.219 243.354 167.057 243.795C166.894 244.236 166.813 244.711 166.813 245.222C166.813 245.732 166.894 246.206 167.057 246.643C167.219 247.081 167.469 247.434 167.807 247.702C168.146 247.971 168.576 248.105 169.1 248.105ZM177.352 241.364V242.358H173.235V241.364H177.352ZM174.468 249V240.31C174.468 239.872 174.571 239.508 174.777 239.216C174.982 238.924 175.249 238.705 175.577 238.56C175.905 238.414 176.252 238.341 176.616 238.341C176.904 238.341 177.14 238.364 177.322 238.411C177.504 238.457 177.64 238.5 177.73 238.54L177.392 239.554C177.332 239.534 177.249 239.509 177.143 239.479C177.04 239.45 176.904 239.435 176.735 239.435C176.348 239.435 176.068 239.532 175.895 239.728C175.726 239.924 175.642 240.21 175.642 240.588V249H174.468ZM184.381 249.179C183.897 249.179 183.458 249.088 183.063 248.906C182.669 248.72 182.356 248.453 182.124 248.105C181.892 247.754 181.776 247.33 181.776 246.832C181.776 246.395 181.862 246.04 182.034 245.768C182.207 245.493 182.437 245.278 182.725 245.122C183.014 244.966 183.332 244.85 183.68 244.774C184.031 244.695 184.384 244.632 184.739 244.585C185.203 244.526 185.579 244.481 185.867 244.451C186.159 244.418 186.371 244.363 186.504 244.287C186.64 244.211 186.708 244.078 186.708 243.889V243.849C186.708 243.359 186.573 242.978 186.305 242.706C186.04 242.434 185.637 242.298 185.097 242.298C184.537 242.298 184.098 242.421 183.779 242.666C183.461 242.911 183.237 243.173 183.108 243.452L181.995 243.054C182.193 242.59 182.459 242.229 182.79 241.97C183.125 241.708 183.489 241.526 183.884 241.423C184.282 241.317 184.673 241.264 185.057 241.264C185.302 241.264 185.584 241.294 185.902 241.354C186.224 241.41 186.534 241.528 186.832 241.707C187.134 241.886 187.384 242.156 187.583 242.517C187.782 242.878 187.881 243.362 187.881 243.969V249H186.708V247.966H186.648C186.568 248.132 186.436 248.309 186.25 248.498C186.065 248.687 185.818 248.848 185.509 248.98C185.201 249.113 184.825 249.179 184.381 249.179ZM184.56 248.125C185.024 248.125 185.415 248.034 185.733 247.852C186.055 247.669 186.297 247.434 186.459 247.146C186.625 246.857 186.708 246.554 186.708 246.236V245.162C186.658 245.222 186.549 245.276 186.38 245.326C186.214 245.372 186.022 245.414 185.803 245.45C185.587 245.483 185.377 245.513 185.171 245.54C184.969 245.563 184.805 245.583 184.679 245.599C184.374 245.639 184.089 245.704 183.824 245.793C183.562 245.879 183.35 246.01 183.188 246.186C183.029 246.358 182.949 246.594 182.949 246.892C182.949 247.3 183.1 247.608 183.402 247.817C183.706 248.022 184.093 248.125 184.56 248.125ZM190.796 238.818V249H189.622V238.818H190.796ZM193.718 238.818V249H192.545V238.818H193.718ZM202.326 241.364V242.358H198.368V241.364H202.326ZM199.522 239.534H200.695V246.812C200.695 247.144 200.743 247.393 200.839 247.558C200.938 247.721 201.064 247.83 201.217 247.886C201.373 247.939 201.537 247.966 201.709 247.966C201.838 247.966 201.944 247.959 202.027 247.946C202.11 247.929 202.176 247.916 202.226 247.906L202.465 248.96C202.385 248.99 202.274 249.02 202.132 249.05C201.989 249.083 201.808 249.099 201.59 249.099C201.258 249.099 200.933 249.028 200.615 248.886C200.3 248.743 200.039 248.526 199.83 248.234C199.624 247.943 199.522 247.575 199.522 247.131V239.534ZM203.69 249V241.364H204.864V249H203.69ZM204.287 240.091C204.058 240.091 203.861 240.013 203.695 239.857C203.533 239.701 203.452 239.514 203.452 239.295C203.452 239.077 203.533 238.889 203.695 238.734C203.861 238.578 204.058 238.5 204.287 238.5C204.516 238.5 204.711 238.578 204.874 238.734C205.039 238.889 205.122 239.077 205.122 239.295C205.122 239.514 205.039 239.701 204.874 239.857C204.711 240.013 204.516 240.091 204.287 240.091ZM206.613 249V241.364H207.746V242.557H207.846C208.005 242.149 208.262 241.833 208.616 241.607C208.971 241.379 209.397 241.264 209.894 241.264C210.398 241.264 210.817 241.379 211.152 241.607C211.49 241.833 211.753 242.149 211.942 242.557H212.022C212.217 242.162 212.511 241.849 212.902 241.617C213.293 241.382 213.762 241.264 214.309 241.264C214.991 241.264 215.55 241.478 215.984 241.906C216.418 242.33 216.635 242.991 216.635 243.889V249H215.462V243.889C215.462 243.326 215.308 242.923 215 242.681C214.692 242.439 214.329 242.318 213.911 242.318C213.374 242.318 212.958 242.481 212.663 242.805C212.368 243.127 212.221 243.535 212.221 244.028V249H211.027V243.77C211.027 243.336 210.887 242.986 210.605 242.721C210.323 242.452 209.96 242.318 209.516 242.318C209.211 242.318 208.926 242.399 208.661 242.562C208.399 242.724 208.187 242.95 208.025 243.238C207.866 243.523 207.786 243.853 207.786 244.227V249H206.613ZM221.582 249.159C220.847 249.159 220.212 248.997 219.678 248.672C219.148 248.344 218.739 247.886 218.45 247.3C218.165 246.71 218.023 246.024 218.023 245.241C218.023 244.459 218.165 243.77 218.45 243.173C218.739 242.573 219.14 242.106 219.653 241.771C220.17 241.433 220.774 241.264 221.463 241.264C221.861 241.264 222.254 241.33 222.641 241.463C223.029 241.596 223.382 241.811 223.7 242.109C224.018 242.404 224.272 242.795 224.461 243.283C224.65 243.77 224.744 244.37 224.744 245.082V245.58H218.858V244.565H223.551C223.551 244.134 223.465 243.75 223.293 243.412C223.124 243.074 222.882 242.807 222.567 242.612C222.255 242.416 221.887 242.318 221.463 242.318C220.996 242.318 220.591 242.434 220.25 242.666C219.912 242.895 219.652 243.193 219.469 243.561C219.287 243.929 219.196 244.323 219.196 244.744V245.42C219.196 245.997 219.295 246.486 219.494 246.887C219.696 247.285 219.977 247.588 220.334 247.797C220.692 248.002 221.108 248.105 221.582 248.105C221.891 248.105 222.169 248.062 222.418 247.976C222.669 247.886 222.887 247.754 223.069 247.578C223.251 247.399 223.392 247.177 223.491 246.912L224.625 247.23C224.506 247.615 224.305 247.953 224.023 248.244C223.742 248.533 223.394 248.758 222.979 248.92C222.565 249.08 222.099 249.159 221.582 249.159Z" fill="#767588"/>
<g clip-path="url(#clip1_797_669)">
<path fill-rule="evenodd" clip-rule="evenodd" d="M351.1 321.999L337.1 323.999L326.1 314.999L316.1 333.999L303.1 340.999L291.1 338.999L286.1 332.999L271.1 348.1L254.1 355.999L224.1 331.999L217.1 340.999L209.1 338.999L201.1 333.999L194.1 341.999H182.1L164.1 353.999L153.1 349.999L144.1 359.999L132.1 347.999L117.1 348.1L108.1 330.999L98.1 333.999L92.1 326.999L76.1 341.999L53.1 320.999L48.1 329.1L38.1 335.999L22.1 321.999L1.1 328.999L-13.9 324.1L-26.9 339.999H-43.9L-51.9 330.999L-61 335.999L-74.9 318.999L-83.9 324.1L-95 318.999L-106 320.999L-117 317.999V428.999H360.1L351.1 321.999Z" fill="#33334D"/>
<path fill-rule="evenodd" clip-rule="evenodd" d="M325.785 313.449L337.393 322.947L352.008 320.859L361.188 429.999H-118V316.69L-105.956 319.974L-94.8688 317.959L-83.9477 322.977L-74.6596 317.713L-60.7524 334.722L-51.6825 329.738L-43.4509 338.999H-27.3741L-14.241 322.937L1.097 327.946L22.327 320.869L38.173 334.734L47.359 328.396L52.883 319.447L76.091 340.637L92.179 325.554L98.436 332.854L108.601 329.804L117.702 347.096L132.511 346.996L144.062 358.546L152.808 348.829L163.966 352.886L181.797 340.999H193.646L200.908 332.7L209.496 338.067L216.711 339.871L223.933 330.585L254.241 354.831L270.517 347.268L286.165 331.515L291.631 338.073L302.927 339.956L315.357 333.263L325.785 313.449ZM326.415 316.548L316.843 334.735L303.273 342.041L290.569 339.924L286.035 334.483L271.684 348.931L253.959 357.167L224.267 333.413L217.489 342.127L208.704 339.931L201.292 335.298L194.554 342.999H182.403L164.234 355.112L153.392 351.169L144.138 361.451L131.689 349.002L116.498 349.104L107.599 332.193L97.764 335.144L92.021 328.443L76.109 343.361L53.317 322.551L48.841 329.804L38.027 337.264L21.873 323.129L1.103 330.052L-13.559 325.263L-26.4259 340.999H-44.3491L-52.1175 332.259L-61.2476 337.276L-75.1404 320.285L-83.8523 325.222L-95.1312 320.039L-106.044 322.023L-116 319.308V427.999H359.012L350.192 323.139L336.807 325.051L326.415 316.548Z" fill="#1B1B29"/>
</g>
<path fill-rule="evenodd" clip-rule="evenodd" d="M41.6001 354.999L55.6001 356.999L66.6001 347.1L76.6001 366.999L90.6001 374.999L99.6001 369.999L106.6 365.999L121.6 381.999L138.6 388.999L168.6 364.999L175.6 373.999L183.6 371.1L191.6 366.999L198.6 374.999H210.6L228.6 386.999L239.6 382.999L248.6 392.999L260.6 380.999L275.6 381.999L284.6 363.999L294.6 366.999L300.6 359.999L316.6 374.999L336.6 371.1L344.6 362.999L354.6 368.999L370.6 354.999L391.6 361.999L406.6 357.999L419.6 372.999H436.6L444.6 363.999L454.6 368.999L467.6 351.999L476.6 357.999L488.6 351.999L499.6 353.999L510.6 350.999V461.999H32.6001L41.6001 354.999Z" fill="#FB8045"/>
<path fill-rule="evenodd" clip-rule="evenodd" d="M55.6001 356.999L41.6001 354.999L32.6001 461.999H510.6V350.999L499.6 353.999L488.6 351.999L476.6 357.999L467.6 351.999L454.6 368.999L444.6 363.999L436.6 372.999H419.6L406.6 357.999L391.6 361.999L370.6 354.999L354.6 368.999L344.6 362.999L336.6 371.1L316.6 374.999L300.6 359.999L294.6 366.999L284.6 363.999L275.6 381.999L260.6 380.999L248.6 392.999L239.6 382.999L228.6 386.999L210.6 374.999H198.6L191.6 366.999L183.6 371.1L175.6 373.999L168.6 364.999L138.6 388.999L121.6 381.999L106.6 365.999L99.6001 369.999L90.6001 374.999L76.6001 366.999L66.6001 347.1L55.6001 356.999ZM65.9898 350.34L56.2429 359.111L43.4154 357.279L34.7754 459.999H508.6V353.618L499.689 356.048L488.898 354.086L476.456 360.307L468.05 354.703L455.184 371.527L445.076 366.473L437.498 374.999H418.687L405.907 360.254L391.536 364.086L371.055 357.259L354.82 371.464L344.919 365.523L337.589 372.945L315.978 377.158L300.758 362.888L295.272 369.289L285.637 366.398L276.794 384.083L261.372 383.055L248.524 395.904L239.016 385.34L228.333 389.224L209.994 376.999H197.692L191.123 369.491L184.4 372.937L174.914 376.375L168.266 367.827L138.929 391.297L120.438 383.683L106.221 368.519L100.582 371.742L90.5862 377.295L75.084 368.436L65.9898 350.34Z" fill="#D02E41"/>
</g>
<defs>
<filter id="filter0_d_797_669" x="0" y="0" width="390" height="480" filterUnits="userSpaceOnUse" color-interpolation-filters="sRGB">
<feFlood flood-opacity="0" result="BackgroundImageFix"/>
<feColorMatrix in="SourceAlpha" type="matrix" values="0 0 0 0 0 0 0 0 0 0 0 0 0 0 0 0 0 0 127 0" result="hardAlpha"/>
<feOffset dy="10"/>
<feGaussianBlur stdDeviation="30"/>
<feComposite in2="hardAlpha" operator="out"/>
<feColorMatrix type="matrix" values="0 0 0 0 0.105882 0 0 0 0 0.105882 0 0 0 0 0.160784 0 0 0 0.06 0"/>
<feBlend mode="normal" in2="BackgroundImageFix" result="effect1_dropShadow_797_669"/>
<feBlend mode="normal" in="SourceGraphic" in2="effect1_dropShadow_797_669" result="shape"/>
</filter>
<clipPath id="clip0_797_669">
<rect width="270" height="360" fill="white" transform="translate(60 50)"/>
</clipPath>
<clipPath id="clip1_797_669">
<rect width="480" height="116" fill="white" transform="translate(-118 314)"/>
</clipPath>
</defs>
</svg>
