<svg width="270" height="360" viewBox="0 0 270 360" fill="none" xmlns="http://www.w3.org/2000/svg">
<g clip-path="url(#clip0_881_2)">
<rect width="270" height="360" fill="#29293D"/>
<g clip-path="url(#clip1_881_2)">
<path fill-rule="evenodd" clip-rule="evenodd" d="M291.1 271.999L277.1 273.999L266.1 264.999L256.1 283.999L243.1 290.999L231.1 288.999L226.1 282.999L211.1 298.1L194.1 305.999L164.1 281.999L157.1 290.999L149.1 288.999L141.1 283.999L134.1 291.999H122.1L104.1 303.999L93.1 299.999L84.1 309.999L72.1 297.999L57.1 298.1L48.1 280.999L38.1 283.999L32.1 276.999L16.1 291.999L-6.89999 270.999L-11.9 279.1L-21.9 285.999L-37.9 271.999L-58.9 278.999L-73.9 274.1L-86.9 289.999H-103.9L-111.9 280.999L-121 285.999L-134.9 268.999L-143.9 274.1L-155 268.999L-166 270.999L-177 267.999V378.999H300.1L291.1 271.999Z" fill="#33334D"/>
<path fill-rule="evenodd" clip-rule="evenodd" d="M265.785 263.449L277.393 272.947L292.008 270.859L301.188 379.999H-178V266.69L-165.956 269.974L-154.869 267.959L-143.948 272.977L-134.66 267.713L-120.752 284.722L-111.683 279.738L-103.451 288.999H-87.3741L-74.241 272.937L-58.903 277.946L-37.673 270.869L-21.827 284.734L-12.641 278.396L-7.117 269.447L16.091 290.637L32.179 275.554L38.436 282.854L48.601 279.804L57.702 297.096L72.511 296.996L84.062 308.546L92.808 298.829L103.966 302.886L121.797 290.999H133.646L140.908 282.7L149.496 288.067L156.711 289.871L163.933 280.585L194.241 304.831L210.517 297.268L226.165 281.515L231.631 288.073L242.927 289.956L255.357 283.263L265.785 263.449ZM266.415 266.548L256.843 284.735L243.273 292.041L230.569 289.924L226.035 284.483L211.684 298.931L193.959 307.167L164.267 283.413L157.489 292.127L148.704 289.931L141.292 285.298L134.554 292.999H122.403L104.234 305.112L93.392 301.169L84.138 311.451L71.689 299.002L56.498 299.104L47.599 282.193L37.764 285.144L32.021 278.443L16.109 293.361L-6.683 272.551L-11.159 279.804L-21.973 287.264L-38.127 273.129L-58.897 280.052L-73.559 275.263L-86.4259 290.999H-104.349L-112.118 282.259L-121.248 287.276L-135.14 270.285L-143.852 275.222L-155.131 270.039L-166.044 272.023L-176 269.308V377.999H299.012L290.192 273.139L276.807 275.051L266.415 266.548Z" fill="#1B1B29"/>
</g>
<path fill-rule="evenodd" clip-rule="evenodd" d="M-18.3999 304.999L-4.39988 306.999L6.60012 297.1L16.6001 316.999L30.6001 324.999L39.6001 319.999L46.6001 315.999L61.6001 331.999L78.6001 338.999L108.6 314.999L115.6 323.999L123.6 321.1L131.6 316.999L138.6 324.999H150.6L168.6 336.999L179.6 332.999L188.6 342.999L200.6 330.999L215.6 331.999L224.6 313.999L234.6 316.999L240.6 309.999L256.6 324.999L276.6 321.1L284.6 312.999L294.6 318.999L310.6 304.999L331.6 311.999L346.6 307.999L359.6 322.999H376.6L384.6 313.999L394.6 318.999L407.6 301.999L416.6 307.999L428.6 301.999L439.6 303.999L450.6 300.999V411.999H-27.3999L-18.3999 304.999Z" fill="#FB8045"/>
<path fill-rule="evenodd" clip-rule="evenodd" d="M-4.39988 306.999L-18.3999 304.999L-27.3999 411.999H450.6V300.999L439.6 303.999L428.6 301.999L416.6 307.999L407.6 301.999L394.6 318.999L384.6 313.999L376.6 322.999H359.6L346.6 307.999L331.6 311.999L310.6 304.999L294.6 318.999L284.6 312.999L276.6 321.1L256.6 324.999L240.6 309.999L234.6 316.999L224.6 313.999L215.6 331.999L200.6 330.999L188.6 342.999L179.6 332.999L168.6 336.999L150.6 324.999H138.6L131.6 316.999L123.6 321.1L115.6 323.999L108.6 314.999L78.6001 338.999L61.6001 331.999L46.6001 315.999L39.6001 319.999L30.6001 324.999L16.6001 316.999L6.60012 297.1L-4.39988 306.999ZM5.98982 300.34L-3.75708 309.111L-16.5846 307.279L-25.2246 409.999H448.6V303.618L439.689 306.048L428.898 304.086L416.456 310.307L408.05 304.703L395.184 321.527L385.076 316.473L377.498 324.999H358.687L345.907 310.254L331.536 314.086L311.055 307.259L294.82 321.464L284.919 315.523L277.589 322.945L255.978 327.158L240.758 312.888L235.272 319.289L225.637 316.398L216.794 334.083L201.372 333.055L188.524 345.904L179.016 335.34L168.333 339.224L149.994 326.999H137.692L131.123 319.491L124.4 322.937L114.914 326.375L108.266 317.827L78.9291 341.297L60.4376 333.683L46.2211 318.519L40.5819 321.742L30.5862 327.295L15.084 318.436L5.98982 300.34Z" fill="#D02E41"/>
</g>
<defs>
<clipPath id="clip0_881_2">
<rect width="270" height="360" fill="white"/>
</clipPath>
<clipPath id="clip1_881_2">
<rect width="480" height="116" fill="white" transform="translate(-178 264)"/>
</clipPath>
</defs>
</svg>
