<svg width="108" height="24" viewBox="0 0 108 24" fill="none" xmlns="http://www.w3.org/2000/svg">
<g clip-path="url(#clip0_115_1411)">
<path fill-rule="evenodd" clip-rule="evenodd" d="M102.308 15.883V16.643C102.308 17.609 102.337 18.332 102.395 18.814C102.452 19.296 102.571 19.646 102.752 19.867C102.932 20.087 103.211 20.199 103.589 20.199C104.098 20.199 104.447 20.002 104.636 19.61C104.824 19.218 104.927 18.564 104.944 17.649L107.875 17.821C107.891 17.952 107.899 18.132 107.899 18.359C107.899 19.749 107.517 20.787 106.754 21.473C105.991 22.159 104.911 22.503 103.515 22.503C101.841 22.503 100.666 21.979 99.993 20.933C99.319 19.887 98.983 18.27 98.983 16.08V13.457C98.983 11.203 99.332 9.55601 100.03 8.51901C100.728 7.48201 101.922 6.96201 103.614 6.96201C104.779 6.96201 105.675 7.17501 106.298 7.59901C106.922 8.02401 107.362 8.68601 107.616 9.58501C107.871 10.483 107.998 11.726 107.998 13.311V15.883H102.308ZM104.796 12.796C104.796 11.831 104.763 11.1 104.698 10.602C104.632 10.104 104.513 9.75201 104.34 9.54701C104.168 9.34401 103.901 9.24101 103.54 9.24101C103.178 9.24101 102.912 9.34801 102.739 9.56001C102.567 9.77201 102.452 10.121 102.395 10.602C102.337 11.085 102.308 11.815 102.308 12.796V13.874H104.796V12.796ZM94.136 22.491C93.496 22.491 92.913 22.343 92.387 22.05C91.862 21.756 91.468 21.354 91.205 20.849H91.131L90.786 22.27H87.979V0.946014H91.255L91.254 8.86201H91.279C91.575 8.29101 91.994 7.82901 92.535 7.47801C93.077 7.12501 93.66 6.95001 94.284 6.95001C95.088 6.95001 95.721 7.16301 96.181 7.58801C96.64 8.01301 96.973 8.69901 97.178 9.64601C97.383 10.594 97.486 11.91 97.486 13.593V15.97C97.486 18.21 97.215 19.855 96.673 20.91C96.131 21.964 95.285 22.491 94.136 22.491ZM94.062 13.838C94.062 12.662 94.025 11.756 93.952 11.119C93.878 10.481 93.746 10.027 93.558 9.75801C93.368 9.48801 93.102 9.35301 92.757 9.35301C92.428 9.35301 92.125 9.48501 91.846 9.74601C91.566 10.007 91.369 10.342 91.255 10.751V19.28C91.402 19.543 91.595 19.738 91.833 19.869C92.071 20 92.33 20.065 92.609 20.065C92.97 20.065 93.258 19.934 93.471 19.673C93.685 19.412 93.837 18.971 93.927 18.349C94.017 17.729 94.062 16.87 94.062 15.776V13.838ZM82.973 20.433H82.899C82.176 21.821 81.093 22.515 79.648 22.515C78.646 22.515 77.907 22.189 77.431 21.535C76.955 20.882 76.717 19.86 76.717 18.471V7.24501H80.116V18.274C80.116 18.946 80.19 19.424 80.337 19.709C80.485 19.996 80.731 20.138 81.076 20.138C81.372 20.138 81.655 20.048 81.926 19.867C82.197 19.689 82.398 19.46 82.53 19.182V7.24501H85.929V22.27H83.269L82.973 20.433ZM74.356 22.27H71.031V4.42601H67.656V1.70401H77.73V4.42601H74.356V22.27ZM68.494 7.24501V22.27H65.834L65.538 20.433H65.464C64.742 21.821 63.658 22.515 62.213 22.515C61.211 22.515 60.473 22.189 59.996 21.535C59.52 20.882 59.282 19.86 59.282 18.471V7.24501H62.681V18.274C62.681 18.946 62.755 19.424 62.903 19.709C63.05 19.996 63.297 20.138 63.642 20.138C63.937 20.138 64.221 20.048 64.491 19.867C64.762 19.689 64.963 19.46 65.095 19.182V7.24501H68.494ZM55.586 21.842C54.904 22.29 53.98 22.515 52.815 22.515C51.616 22.515 50.676 22.286 49.995 21.83C49.313 21.373 48.829 20.661 48.542 19.697C48.254 18.733 48.11 17.45 48.11 15.848V13.667C48.11 12.049 48.274 10.75 48.603 9.77001C48.931 8.78901 49.444 8.07401 50.142 7.62501C50.84 7.17501 51.756 6.95101 52.889 6.95101C54.005 6.95101 54.9 7.17901 55.573 7.63701C56.247 8.09501 56.739 8.80901 57.051 9.78201C57.363 10.755 57.519 12.049 57.519 13.667V15.848C57.519 17.45 57.367 18.737 57.064 19.709C56.76 20.681 56.267 21.393 55.586 21.842ZM54.096 12.392C54.096 11.314 54.001 10.526 53.812 10.027C53.623 9.52801 53.291 9.27901 52.815 9.27901C52.355 9.27901 52.03 9.52801 51.842 10.027C51.653 10.526 51.559 11.314 51.559 12.392V17.074C51.559 18.186 51.649 18.987 51.83 19.476C52.01 19.966 52.338 20.211 52.815 20.211C53.291 20.211 53.623 19.966 53.812 19.476C54.001 18.987 54.096 18.186 54.096 17.074V12.392ZM45.068 22.27H41.718V15.603L37.851 1.70401H41.225L42.58 8.00401C42.925 9.55701 43.179 10.88 43.343 11.974H43.442C43.557 11.191 43.811 9.87601 44.205 8.02901L45.609 1.70401H48.984L45.068 15.603V22.27ZM30.679 23.279C27.993 23.995 17.223 23.995 17.223 23.995C17.223 23.995 6.45195 23.995 3.76595 23.279C2.28495 22.884 1.11695 21.723 0.720953 20.248C0.00195318 17.576 0.00195312 11.998 0.00195312 11.998C0.00195312 11.998 0.00195318 6.42101 0.720953 3.74801C1.11695 2.27401 2.28495 1.11201 3.76595 0.717014C6.45195 0.00201422 17.223 0.00201416 17.223 0.00201416C17.223 0.00201416 27.993 0.00201422 30.679 0.717014C32.161 1.11201 33.328 2.27401 33.724 3.74801C34.444 6.42101 34.444 11.998 34.444 11.998C34.444 11.998 34.444 17.576 33.724 20.248C33.328 21.723 32.161 22.884 30.679 23.279ZM13.779 6.85701V17.14L22.727 11.998L13.779 6.85701Z" fill="white"/>
</g>
<defs>
<clipPath id="clip0_115_1411">
<rect width="108" height="24" fill="white"/>
</clipPath>
</defs>
</svg>
