<?xml version="1.0" standalone="no"?>
<!DOCTYPE svg PUBLIC "-//W3C//DTD SVG 20010904//EN"
 "http://www.w3.org/TR/2001/REC-SVG-20010904/DTD/svg10.dtd">
<svg version="1.0" xmlns="http://www.w3.org/2000/svg"
 width="405.000000pt" height="720.000000pt" viewBox="0 0 405.000000 720.000000"
 preserveAspectRatio="xMidYMid meet">

<g transform="translate(0.000000,720.000000) scale(0.100000,-0.100000)"
fill="#000000" stroke="none">
<path d="M0 7185 c0 -13 231 -15 2020 -15 l2020 0 -2 -3561 -3 -3561 -28 -24
-28 -24 35 0 36 0 0 3600 0 3600 -2025 0 c-1793 0 -2025 -2 -2025 -15z"/>
<path d="M1584 6816 c-18 -14 -19 -33 -22 -582 -2 -498 -1 -570 13 -590 l15
-24 1050 0 c940 0 1050 2 1064 16 14 14 16 81 16 589 l0 574 -22 15 c-20 14
-137 16 -1058 16 -879 0 -1039 -2 -1056 -14z m1103 -489 c59 -35 108 -70 108
-77 0 -21 -217 -140 -232 -128 -9 7 -13 45 -13 123 0 113 5 145 20 145 5 0 57
-28 117 -63z m240 -64 c-3 -10 -5 -2 -5 17 0 19 2 27 5 18 2 -10 2 -26 0 -35z
m156 24 c7 4 5 -2 -3 -13 -8 -10 -16 -21 -17 -23 -2 -2 -2 11 -2 30 1 19 3 26
6 16 3 -10 9 -14 16 -10z m85 -2 c-3 -3 -9 2 -12 12 -6 14 -5 15 5 6 7 -7 10
-15 7 -18z m-31 -22 c-3 -10 -5 -4 -5 12 0 17 2 24 5 18 2 -7 2 -21 0 -30z
m-234 12 c4 -8 3 -16 -1 -19 -4 -3 -9 4 -9 15 -2 23 3 25 10 4z m84 -17 c-3
-7 -5 -2 -5 12 0 14 2 19 5 13 2 -7 2 -19 0 -25z m266 12 c3 -11 1 -18 -4 -14
-5 3 -9 12 -9 20 0 20 7 17 13 -6z m152 -10 c-3 -5 -12 -10 -18 -10 -7 0 -6 4
3 10 19 12 23 12 15 0z"/>
<path d="M1043 6765 c0 -22 2 -30 4 -17 2 12 2 30 0 40 -3 9 -5 -1 -4 -23z"/>
<path d="M1183 6783 c-4 -9 -1 -19 5 -21 7 -2 12 -8 12 -13 0 -6 -6 -7 -12 -3
-10 6 -10 4 0 -7 10 -10 14 -11 25 0 10 10 9 15 -5 25 -20 15 -25 31 -6 20 7
-4 8 -3 4 4 -10 16 -15 15 -23 -5z"/>
<path d="M313 6766 c1 -16 9 -32 17 -34 12 -4 13 -2 4 9 -7 8 -14 23 -17 34
-4 13 -5 9 -4 -9z"/>
<path d="M610 6765 c0 -14 5 -25 10 -25 6 0 10 11 10 25 0 14 -4 25 -10 25 -5
0 -10 -11 -10 -25z"/>
<path d="M920 6761 c0 -31 13 -39 38 -22 21 13 10 46 -16 49 -19 3 -22 -1 -22
-27z m38 2 c-5 -25 -28 -28 -28 -4 0 12 6 21 16 21 9 0 14 -7 12 -17z"/>
<path d="M1260 6767 c0 -14 4 -28 8 -31 9 -5 8 41 -1 51 -4 3 -7 -5 -7 -20z"/>
<path d="M354 6765 c-4 -9 -2 -21 4 -27 15 -15 44 -1 40 19 -4 23 -36 29 -44
8z m34 -6 c-2 -6 -8 -10 -13 -10 -5 0 -11 4 -13 10 -2 6 4 11 13 11 9 0 15 -5
13 -11z"/>
<path d="M410 6755 c0 -14 2 -25 4 -25 2 0 6 11 8 25 3 14 1 25 -3 25 -5 0 -9
-11 -9 -25z"/>
<path d="M447 6766 c-5 -14 10 -36 25 -36 4 0 8 5 8 11 0 5 -4 7 -10 4 -5 -3
-10 1 -10 9 0 10 6 13 17 9 11 -4 14 -3 9 5 -10 16 -33 15 -39 -2z"/>
<path d="M501 6753 c2 -25 2 -25 6 -5 3 13 10 21 16 19 7 -3 11 -10 10 -16 -2
-6 2 -11 7 -11 6 0 10 7 10 15 0 22 18 18 23 -5 4 -17 4 -17 3 2 -1 19 -8 23
-38 25 -36 3 -38 2 -37 -24z"/>
<path d="M641 6743 c1 -21 3 -30 6 -21 2 9 10 15 17 12 15 -6 30 22 20 37 -3
5 -14 9 -25 9 -16 0 -19 -7 -18 -37z m37 16 c-2 -6 -8 -10 -13 -10 -5 0 -11 4
-13 10 -2 6 4 11 13 11 9 0 15 -5 13 -11z"/>
<path d="M703 6758 c4 -25 27 -37 27 -14 0 9 -6 16 -12 16 -9 0 -8 4 2 10 13
8 12 10 -2 10 -13 0 -17 -6 -15 -22z"/>
<path d="M750 6761 c0 -11 4 -22 9 -25 4 -3 6 6 3 19 -5 30 -12 33 -12 6z"/>
<path d="M782 6755 c0 -16 2 -22 5 -12 2 9 2 23 0 30 -3 6 -5 -1 -5 -18z"/>
<path d="M811 6758 c1 -17 2 -19 6 -5 6 24 21 21 26 -5 l4 -23 2 23 c1 24 21
31 21 7 0 -8 5 -15 11 -15 6 0 8 7 5 16 -3 9 -6 18 -6 20 0 2 -16 4 -35 4 -30
0 -35 -3 -34 -22z"/>
<path d="M983 6764 c-8 -22 18 -37 36 -20 7 8 10 19 7 25 -10 16 -36 13 -43
-5z m28 -7 c-1 -12 -15 -9 -19 4 -3 6 1 10 8 8 6 -3 11 -8 11 -12z"/>
<path d="M1064 6765 c-8 -19 12 -36 33 -28 19 7 12 37 -10 41 -9 2 -20 -4 -23
-13z m34 -6 c-2 -6 -8 -10 -13 -10 -5 0 -11 4 -13 10 -2 6 4 11 13 11 9 0 15
-5 13 -11z"/>
<path d="M1120 6755 c0 -14 2 -25 4 -25 2 0 6 11 8 25 3 14 1 25 -3 25 -5 0
-9 -11 -9 -25z"/>
<path d="M1232 6760 c0 -14 2 -19 5 -12 2 6 2 18 0 25 -3 6 -5 1 -5 -13z"/>
<path d="M797 6683 c-4 -3 -7 -20 -6 -37 l1 -31 9 34 c10 33 8 47 -4 34z"/>
<path d="M322 6655 c-7 -14 -12 -27 -12 -28 0 -1 11 -2 25 -2 27 0 27 0 19 33
-8 29 -18 28 -32 -3z"/>
<path d="M524 6664 c3 -9 6 -22 6 -30 0 -8 4 -14 8 -14 5 0 7 14 4 30 -2 17
-9 30 -14 30 -6 0 -7 -7 -4 -16z"/>
<path d="M693 6670 c-25 -10 -26 -11 -17 -34 3 -9 15 -16 25 -16 14 0 19 7 19
30 0 17 -1 30 -2 29 -2 0 -13 -4 -25 -9z m17 -25 c0 -8 -4 -15 -9 -15 -13 0
-22 16 -14 24 11 11 23 6 23 -9z"/>
<path d="M977 6673 c-23 -6 -19 -46 6 -51 13 -3 17 3 17 27 0 17 -1 30 -2 30
-2 -1 -11 -3 -21 -6z m13 -28 c0 -8 -4 -15 -10 -15 -5 0 -10 7 -10 15 0 8 5
15 10 15 6 0 10 -7 10 -15z"/>
<path d="M381 6643 c2 -24 2 -25 6 -5 2 12 8 22 13 22 5 0 11 -10 13 -22 4
-20 4 -19 6 5 1 21 -4 27 -19 27 -15 0 -20 -6 -19 -27z"/>
<path d="M437 6650 c3 -11 9 -20 14 -20 11 0 11 3 3 24 -9 23 -23 20 -17 -4z"/>
<path d="M473 6654 c-8 -21 13 -42 28 -27 13 13 5 43 -11 43 -6 0 -13 -7 -17
-16z m27 -9 c0 -8 -4 -15 -8 -15 -5 0 -9 7 -9 15 0 8 4 15 9 15 4 0 8 -7 8
-15z"/>
<path d="M564 6645 c1 -11 9 -21 19 -23 13 -3 17 3 16 25 -1 23 -2 24 -6 6 -5
-27 -20 -30 -26 -5 -3 13 -4 12 -3 -3z"/>
<path d="M621 6643 c2 -24 2 -25 6 -5 2 12 8 22 13 22 5 0 11 -10 13 -22 4
-20 4 -19 6 5 1 21 -4 27 -19 27 -15 0 -20 -6 -19 -27z"/>
<path d="M735 6660 c-8 -13 13 -40 29 -39 7 0 6 2 -1 6 -7 2 -13 12 -13 21 0
14 2 15 10 2 5 -8 12 -11 15 -8 10 10 -4 28 -20 28 -8 0 -17 -5 -20 -10z"/>
<path d="M822 6645 c0 -16 2 -22 5 -12 2 9 2 23 0 30 -3 6 -5 -1 -5 -18z"/>
<path d="M847 6664 c-10 -11 -8 -34 3 -34 6 0 10 7 10 15 0 23 18 18 23 -7 5
-20 5 -20 4 2 -2 24 -26 38 -40 24z"/>
<path d="M904 6655 c-7 -18 3 -35 20 -35 14 0 28 35 18 44 -10 11 -33 6 -38
-9z"/>
<path d="M763 4760 c-13 -5 -23 -17 -23 -26 0 -16 1 -16 18 -1 16 15 49 17
252 17 203 0 236 -2 252 -17 26 -23 34 -9 9 16 -20 20 -31 21 -253 20 -128 0
-243 -4 -255 -9z"/>
<path d="M1000 4725 c0 -9 5 -15 11 -13 6 2 11 8 11 13 0 5 -5 11 -11 13 -6 2
-11 -4 -11 -13z"/>
<path d="M1293 4450 c0 -30 2 -43 4 -27 2 15 2 39 0 55 -2 15 -4 2 -4 -28z"/>
<path d="M1174 4348 c-16 -9 -35 -17 -43 -17 -21 -1 -68 -45 -63 -60 2 -7 -5
-15 -17 -18 -12 -3 -21 -10 -21 -15 0 -10 -90 -5 -109 6 -6 4 -26 0 -45 -9
-19 -9 -40 -14 -46 -10 -6 4 -23 -6 -37 -21 -15 -17 -21 -30 -14 -32 6 -2 9
-8 6 -12 -3 -5 -12 -7 -20 -3 -11 4 -15 -2 -15 -21 0 -14 -5 -26 -11 -26 -5 0
-8 -4 -5 -8 4 -7 8 -159 4 -194 -2 -22 -11 -25 -81 -26 -76 -1 -101 -21 -94
-74 3 -21 2 -38 -1 -38 -4 0 -7 -52 -6 -117 1 -110 2 -117 25 -136 21 -17 34
-18 119 -12 52 3 200 10 329 13 228 7 234 8 249 30 8 13 10 22 4 22 -6 0 -14
-4 -17 -10 -11 -18 -23 -10 -18 13 l5 22 -20 -22 c-26 -30 -40 -29 -54 3 -10
20 -9 27 2 34 11 7 9 11 -11 19 -34 12 -80 68 -73 86 4 8 1 15 -5 15 -9 0 -8
6 0 23 18 32 18 67 -1 67 -12 1 -12 3 3 11 9 5 22 7 27 4 6 -3 10 -1 10 6 0
10 3 10 11 2 6 -6 19 -9 28 -5 14 5 14 4 2 -12 -10 -12 -16 -14 -21 -5 -6 8
-9 8 -14 0 -8 -13 18 -26 33 -17 5 4 12 2 16 -4 4 -6 11 -7 17 -4 7 5 9 1 5
-9 -4 -11 -2 -14 9 -10 9 3 12 12 9 24 -4 11 -3 29 1 41 6 20 7 21 20 4 11
-15 12 -12 9 28 -2 36 1 46 12 46 13 0 14 11 8 73 -4 39 -6 88 -5 107 2 19 3
87 4 150 l1 115 -36 0 c-21 0 -50 -8 -65 -17z m16 -252 c0 -3 -4 -8 -10 -11
-5 -3 -10 -1 -10 4 0 6 5 11 10 11 6 0 10 -2 10 -4z m20 -22 c0 -8 -5 -12 -10
-9 -6 4 -8 11 -5 16 9 14 15 11 15 -7z m-99 -157 c-8 -8 -11 -7 -11 4 0 20 13
34 18 19 3 -7 -1 -17 -7 -23z m139 -26 c0 -5 -9 -13 -20 -16 -13 -4 -20 -15
-20 -30 0 -13 -4 -26 -8 -29 -10 -6 -8 33 2 56 5 10 12 15 17 12 5 -3 9 0 9 5
0 6 5 11 10 11 6 0 10 -4 10 -9z m-150 -31 c0 -11 -7 -20 -15 -20 -13 0 -13 3
-3 20 7 11 14 20 15 20 2 0 3 -9 3 -20z m-175 -140 c-10 -11 -14 -20 -9 -20 5
0 9 -14 10 -31 1 -17 -2 -27 -5 -22 -3 5 -14 12 -23 16 -10 3 -18 11 -18 16 0
6 7 7 17 4 11 -4 14 -3 9 6 -7 11 18 51 32 51 3 0 -3 -9 -13 -20z m-55 -27 c0
-20 -3 -24 -11 -16 -7 7 -9 19 -6 27 10 24 17 19 17 -11z m160 7 c0 -5 -5 -10
-11 -10 -5 0 -7 5 -4 10 3 6 8 10 11 10 2 0 4 -4 4 -10z m-43 -35 c0 -8 -6
-16 -13 -19 -7 -3 -10 2 -7 15 6 22 20 26 20 4z m63 6 c0 -6 -4 -13 -10 -16
-5 -3 -10 1 -10 9 0 9 5 16 10 16 6 0 10 -4 10 -9z m-160 -56 c6 -21 60 -35
60 -16 0 6 4 11 10 11 5 0 7 -7 4 -15 -4 -9 0 -15 9 -15 8 0 17 -7 21 -15 5
-13 -6 -15 -72 -14 l-77 1 4 44 c2 35 7 44 20 42 9 -2 18 -12 21 -23z m128 -2
c0 -10 3 -26 7 -37 6 -14 5 -18 -6 -14 -15 5 -22 68 -8 68 4 0 7 -8 7 -17z"/>
<path d="M2611 4300 c0 -33 1 -34 10 -11 6 16 6 28 -1 35 -7 7 -10 -1 -9 -24z"/>
<path d="M2655 4310 c-4 -11 -11 -18 -16 -15 -5 4 -9 2 -9 -4 0 -16 18 -22 23
-9 4 10 8 9 16 -2 8 -12 11 -8 11 18 0 36 -15 43 -25 12z"/>
<path d="M2952 4300 c0 -19 2 -27 5 -17 2 9 2 25 0 35 -3 9 -5 1 -5 -18z"/>
<path d="M2990 4300 c0 -22 5 -30 18 -30 9 0 13 4 7 8 -5 4 -10 14 -10 22 0 8
5 18 10 22 6 4 2 8 -7 8 -13 0 -18 -8 -18 -30z"/>
<path d="M2697 4313 c-4 -3 -7 -15 -7 -25 0 -13 7 -18 25 -18 29 0 36 34 9 44
-19 7 -19 7 -27 -1z m23 -18 c0 -8 -4 -15 -10 -15 -5 0 -10 7 -10 15 0 8 5 15
10 15 6 0 10 -7 10 -15z"/>
<path d="M2753 4304 c-4 -10 1 -22 11 -30 16 -12 16 -13 -1 -17 -11 -4 -9 -5
7 -4 18 1 26 9 28 26 5 35 -33 56 -45 25z m27 -9 c0 -8 -4 -15 -10 -15 -5 0
-10 7 -10 15 0 8 5 15 10 15 6 0 10 -7 10 -15z"/>
<path d="M2841 4311 c-18 -12 -6 -41 16 -40 17 1 17 2 0 6 -20 5 -17 30 2 25
7 -1 10 2 6 8 -7 12 -6 12 -24 1z"/>
<path d="M2893 4309 c-16 -16 -5 -39 18 -39 13 0 19 7 18 23 -1 16 -2 18 -6 5
-2 -10 -9 -18 -15 -18 -6 0 -8 9 -5 20 6 23 5 24 -10 9z"/>
<path d="M3044 4296 c0 -12 7 -23 14 -23 17 0 15 34 -2 40 -9 4 -13 -2 -12
-17z"/>
<path d="M3117 4309 c7 -9 10 -19 6 -22 -11 -12 -21 -8 -26 11 -3 9 -5 1 -6
-18 0 -19 3 -30 7 -24 4 6 15 13 25 17 9 3 17 10 17 15 0 5 -8 16 -17 23 -16
12 -17 12 -6 -2z"/>
<path d="M3157 4314 c-14 -15 -7 -44 11 -43 10 0 12 3 5 6 -16 6 -17 33 -2 33
5 0 7 -4 4 -10 -3 -5 -1 -10 5 -10 14 0 8 22 -6 27 -6 2 -13 0 -17 -3z"/>
<path d="M3271 4311 c-18 -12 -7 -41 16 -41 14 0 15 2 4 9 -11 7 -11 9 0 14
10 3 11 8 4 15 -6 7 -16 8 -24 3z"/>
<path d="M3324 4306 c-3 -8 -4 -21 -1 -28 3 -7 6 -3 6 10 1 12 5 22 10 22 5 0
12 -10 14 -22 5 -21 5 -21 4 1 -2 28 -24 40 -33 17z"/>
<path d="M3380 4305 c-14 -17 -5 -35 18 -35 15 1 15 2 -1 11 -9 6 -15 15 -12
20 4 5 11 7 16 4 5 -4 9 -1 9 4 0 16 -15 13 -30 -4z"/>
<path d="M3434 4306 c-7 -18 3 -36 19 -35 9 0 9 2 0 6 -15 5 -18 33 -4 33 5 0
12 -5 14 -10 3 -6 4 -5 3 2 -4 18 -25 22 -32 4z"/>
<path d="M2812 4290 c0 -14 2 -19 5 -12 2 6 2 18 0 25 -3 6 -5 1 -5 -13z"/>
<path d="M3200 4290 c0 -11 2 -20 4 -20 2 0 6 9 9 20 3 11 1 20 -4 20 -5 0 -9
-9 -9 -20z"/>
<path d="M3242 4290 c0 -14 2 -19 5 -12 2 6 2 18 0 25 -3 6 -5 1 -5 -13z"/>
<path d="M1293 4255 c0 -27 2 -38 4 -22 2 15 2 37 0 50 -2 12 -4 0 -4 -28z"/>
<path d="M3060 3875 l0 -55 200 0 200 0 0 55 0 55 -200 0 -200 0 0 -55z m190
9 c0 -2 -9 -8 -19 -13 -14 -8 -20 -7 -24 2 -3 7 5 13 19 13 13 1 24 0 24 -2z
m78 -13 c3 -8 -8 -11 -37 -10 -28 2 -37 6 -31 14 12 14 63 12 68 -4z"/>
<path d="M1220 3710 c-13 -8 -12 -10 3 -10 9 0 17 5 17 10 0 12 -1 12 -20 0z"/>
<path d="M623 2913 c12 -3 16 -10 12 -24 -4 -11 -2 -19 4 -19 6 0 11 11 11 25
0 20 -5 25 -22 24 -18 -1 -19 -2 -5 -6z"/>
<path d="M1846 2908 c3 -5 10 -6 15 -3 13 9 11 12 -6 12 -8 0 -12 -4 -9 -9z"/>
<path d="M1892 2390 c0 -19 2 -27 5 -17 2 9 2 25 0 35 -3 9 -5 1 -5 -18z"/>
<path d="M2241 2413 c0 -7 -8 -13 -16 -13 -17 0 -20 -35 -4 -46 17 -10 31 11
26 42 -2 16 -5 23 -6 17z m-1 -38 c0 -8 -4 -15 -10 -15 -5 0 -10 7 -10 15 0 8
5 15 10 15 6 0 10 -7 10 -15z"/>
<path d="M2562 2390 c0 -19 2 -27 5 -17 2 9 2 25 0 35 -3 9 -5 1 -5 -18z"/>
<path d="M1401 2378 c0 -26 2 -29 8 -13 7 18 8 18 18 1 10 -18 10 -18 17 0 6
16 8 16 16 4 7 -11 10 -8 10 13 0 33 -16 36 -26 5 l-7 -23 -10 23 c-15 32 -27
27 -26 -10z"/>
<path d="M1590 2387 c0 -14 4 -28 9 -32 5 -3 8 6 7 20 -4 35 -16 44 -16 12z"/>
<path d="M1658 2385 c2 -14 6 -25 7 -25 1 0 5 11 7 25 3 16 1 25 -7 25 -8 0
-10 -9 -7 -25z"/>
<path d="M1701 2382 c1 -17 3 -21 6 -9 6 24 21 21 26 -5 4 -21 4 -20 6 3 1 19
-5 28 -19 32 -16 4 -20 0 -19 -21z"/>
<path d="M1830 2379 c0 -24 4 -30 18 -27 10 2 18 14 20 31 3 22 -1 27 -17 27
-17 0 -21 -6 -21 -31z m30 -9 c0 -5 -4 -10 -10 -10 -5 0 -10 5 -10 10 0 6 5
10 10 10 6 0 10 -4 10 -10z"/>
<path d="M2101 2383 c0 -16 3 -22 6 -15 2 6 11 12 19 12 8 0 14 7 14 15 0 8
-9 15 -20 15 -15 0 -20 -6 -19 -27z"/>
<path d="M2340 2384 c0 -15 3 -23 8 -18 4 5 10 11 13 14 4 3 1 11 -7 18 -12
11 -14 8 -14 -14z"/>
<path d="M1483 2384 c-8 -22 13 -42 30 -25 10 10 9 11 -5 6 -13 -5 -18 -2 -18
10 0 11 5 15 15 11 8 -3 15 -1 15 4 0 16 -30 11 -37 -6z"/>
<path d="M1535 2390 c-4 -6 -1 -18 6 -26 12 -14 14 -14 26 2 7 9 10 21 7 25
-7 12 -31 11 -39 -1z m22 -22 c-3 -8 -6 -5 -6 6 -1 11 2 17 5 13 3 -3 4 -12 1
-19z"/>
<path d="M1757 2393 c-12 -11 -8 -31 8 -36 8 -4 17 -1 21 5 4 7 3 8 -4 4 -7
-4 -12 -1 -12 8 0 10 6 13 17 9 11 -4 14 -3 9 5 -8 13 -29 16 -39 5z"/>
<path d="M1913 2384 c-3 -8 0 -21 7 -27 10 -10 11 -7 5 12 -5 17 -4 22 6 18 8
-2 13 -10 12 -16 -2 -6 2 -11 7 -11 6 0 10 9 10 20 0 24 -38 28 -47 4z"/>
<path d="M1973 2384 c-8 -22 13 -42 30 -25 10 10 9 12 -2 9 -21 -5 -25 20 -4
25 17 4 17 5 0 6 -10 0 -20 -6 -24 -15z"/>
<path d="M2043 2393 c-17 -6 -16 -30 1 -36 10 -4 13 2 12 19 0 13 -1 24 -1 23
0 0 -6 -3 -12 -6z"/>
<path d="M2153 2384 c-3 -8 -1 -20 6 -27 14 -14 47 15 37 32 -10 16 -36 13
-43 -5z m28 -7 c-1 -12 -15 -9 -19 4 -3 6 1 10 8 8 6 -3 11 -8 11 -12z"/>
<path d="M2274 2378 c3 -23 18 -28 24 -9 2 6 -2 11 -10 11 -10 0 -9 3 2 10 13
8 12 10 -2 10 -13 0 -17 -6 -14 -22z"/>
<path d="M2383 2384 c-3 -8 -1 -20 4 -25 14 -14 43 0 43 22 0 24 -38 26 -47 3z
m35 -5 c-2 -6 -8 -10 -13 -10 -5 0 -11 4 -13 10 -2 6 4 11 13 11 9 0 15 -5 13
-11z"/>
<path d="M2440 2379 c0 -10 5 -19 10 -19 6 0 9 5 8 11 -2 6 2 13 9 16 6 2 13
-6 16 -19 l4 -23 2 23 c1 26 18 29 24 5 4 -14 5 -14 6 3 1 19 -5 22 -39 22
-33 1 -40 -3 -40 -19z"/>
<path d="M2542 2380 c0 -14 2 -19 5 -12 2 6 2 18 0 25 -3 6 -5 1 -5 -13z"/>
<path d="M2590 2379 c7 -11 9 -27 6 -35 -3 -8 -2 -13 3 -10 5 3 14 21 20 38
10 30 9 31 -4 14 -13 -17 -15 -18 -15 -3 0 9 -5 17 -10 17 -7 0 -7 -7 0 -21z"/>
<path d="M1058 1784 c-51 -27 -72 -101 -46 -159 10 -23 10 -28 -5 -36 -15 -9
-17 -32 -17 -213 0 -195 1 -204 23 -237 33 -49 69 -58 250 -58 179 -1 214 8
247 61 18 30 20 50 20 235 0 172 -2 203 -15 211 -13 7 -14 14 -5 36 24 64 2
134 -50 161 -42 21 -362 21 -402 -1z m96 -50 c30 -12 16 -22 -29 -22 -45 1
-50 11 -10 21 11 3 21 5 22 6 1 0 8 -2 17 -5z m280 -14 c4 -5 -13 -8 -38 -8
-46 1 -62 13 -28 21 20 5 53 -2 66 -13z m81 -198 c-2 -248 -6 -333 -15 -327
-16 10 -13 388 3 383 7 -3 12 -24 12 -56z"/>
<path d="M2543 1770 c-46 -19 -55 -77 -22 -142 l21 -40 -26 -27 c-43 -45 -42
-78 2 -163 2 -5 -6 -8 -17 -8 -24 0 -23 6 -21 -115 2 -158 22 -170 280 -170
261 0 280 13 280 190 0 90 -1 95 -21 95 -11 0 -19 3 -17 8 45 87 45 118 -1
161 l-29 27 24 44 c28 55 30 90 5 121 -20 24 -47 27 -149 16 -56 -6 -72 -21
-72 -68 0 -45 21 -69 60 -69 16 0 41 -4 55 -10 54 -21 12 -30 -135 -30 -147 0
-189 9 -135 30 14 6 39 10 54 10 39 0 51 17 51 72 0 51 3 49 -77 62 -18 4 -45
8 -60 11 -16 2 -38 0 -50 -5z m-13 -83 c0 -5 -4 -5 -10 -2 -5 3 -10 14 -10 23
0 15 2 15 10 2 5 -8 10 -19 10 -23z m325 -262 c26 -12 27 -13 8 -14 -12 -1
-24 3 -27 7 -6 9 -139 7 -155 -2 -5 -4 -12 -2 -15 3 -14 22 143 28 189 6z
m-341 -138 c-1 -50 -5 -92 -10 -92 -5 0 -10 42 -12 93 -2 70 0 92 10 92 10 0
13 -23 12 -93z m516 4 c0 -50 -4 -92 -9 -95 -15 -10 -21 21 -21 105 0 64 3 79
15 79 12 0 15 -17 15 -89z"/>
<path d="M1060 972 c0 -12 4 -22 9 -22 10 0 9 26 -2 36 -4 4 -7 -2 -7 -14z"/>
<path d="M1327 970 c-3 -11 -1 -20 4 -20 5 0 9 9 9 20 0 11 -2 20 -4 20 -2 0
-6 -9 -9 -20z"/>
<path d="M1407 970 c-3 -11 -1 -20 4 -20 5 0 9 9 9 20 0 11 -2 20 -4 20 -2 0
-6 -9 -9 -20z"/>
<path d="M2701 974 c0 -11 3 -14 6 -6 3 7 2 16 -1 19 -3 4 -6 -2 -5 -13z"/>
<path d="M2799 983 c-1 -5 -1 -12 0 -16 1 -5 -6 -6 -16 -3 -10 3 -24 2 -32 -3
-9 -6 -2 -8 20 -7 23 1 35 7 37 19 2 9 1 17 -2 17 -3 0 -7 -3 -7 -7z"/>
<path d="M2861 974 c0 -11 3 -14 6 -6 3 7 2 16 -1 19 -3 4 -6 -2 -5 -13z"/>
<path d="M1114 968 c4 -20 26 -21 26 -1 0 14 -2 15 -9 4 -6 -9 -10 -10 -14 -2
-4 8 -5 8 -3 -1z"/>
<path d="M1150 971 c0 -6 4 -13 10 -16 6 -3 7 1 4 9 -7 18 -14 21 -14 7z"/>
<path d="M1274 969 c2 -15 20 -13 24 3 3 10 2 10 -6 -1 -7 -9 -11 -10 -15 -2
-4 7 -5 8 -3 0z"/>
<path d="M2520 971 c0 -6 4 -13 10 -16 6 -3 7 1 4 9 -7 18 -14 21 -14 7z"/>
<path d="M2592 963 c-7 -7 -9 -13 -4 -13 4 0 16 6 26 13 14 10 15 14 4 14 -7
0 -19 -6 -26 -14z"/>
<path d="M2650 970 c0 -5 5 -10 10 -10 6 0 10 5 10 10 0 6 -4 10 -10 10 -5 0
-10 -4 -10 -10z"/>
<path d="M2924 969 c2 -15 20 -13 24 3 3 10 2 10 -6 -1 -7 -9 -11 -10 -15 -2
-4 7 -5 8 -3 0z"/>
<path d="M790 575 l0 -55 476 0 475 0 -3 53 -3 52 -472 3 -473 2 0 -55z m450
-4 c0 -4 -16 -8 -35 -9 -31 -2 -44 6 -30 20 7 7 65 -3 65 -11z m110 -1 c0 -5
-20 -10 -45 -10 -25 0 -45 5 -45 10 0 6 20 10 45 10 25 0 45 -4 45 -10z"/>
<path d="M2290 575 l0 -55 470 0 470 0 0 55 0 55 -470 0 -470 0 0 -55z m431 2
c11 3 19 0 19 -6 0 -6 -16 -11 -35 -11 -25 0 -35 4 -35 15 0 12 4 14 16 7 9
-5 25 -7 35 -5z m129 -8 c0 -5 -22 -9 -50 -9 -50 0 -70 16 -27 22 32 5 77 -3
77 -13z"/>
<path d="M0 22 c0 -17 6 -22 27 -22 14 0 24 1 22 3 -2 1 -14 11 -26 21 -23 19
-23 19 -23 -2z"/>
</g>
</svg>
