<?xml version="1.0" encoding="UTF-8"?>
<svg version="1.1" xmlns="http://www.w3.org/2000/svg" width="404" height="720">
<path d="M0 0 C133.32 0 266.64 0 404 0 C404 237.6 404 475.2 404 720 C270.68 720 137.36 720 0 720 C0 482.4 0 244.8 0 0 Z " fill="#DDDDDD" transform="translate(0,0)"/>
<path d="M0 0 C43.56 0 87.12 0 132 0 C132 145.86 132 291.72 132 442 C88.11 442 44.22 442 -1 442 C-1.02202488 385.83622772 -1.04049692 329.67245949 -1.05106533 273.50868413 C-1.05231611 266.88559085 -1.05361043 260.26249757 -1.05493164 253.6394043 C-1.05519395 252.32080549 -1.05545626 251.00220669 -1.05572652 249.64365035 C-1.06004606 228.26275472 -1.06797164 206.88186191 -1.0771528 185.50096787 C-1.08648777 163.57985265 -1.09205528 141.65873885 -1.09408849 119.73762172 C-1.09546405 106.19935354 -1.09981638 92.66109291 -1.10791647 79.12282705 C-1.113182 69.85275833 -1.11480474 60.58269355 -1.11350138 51.31262345 C-1.11285769 45.95566449 -1.1138789 40.59871879 -1.11920547 35.24176216 C-1.12403813 30.34610058 -1.12433954 25.45046128 -1.12089889 20.55479871 C-1.12047307 18.77551902 -1.12176993 16.99623799 -1.12488318 15.21696097 C-1.12884499 12.8147154 -1.12676476 10.41255232 -1.12304783 8.01030827 C-1.12567484 7.30541894 -1.12830186 6.60052961 -1.13100848 5.87428001 C-1.1141458 1.1141458 -1.1141458 1.1141458 0 0 Z " fill="#F3F3F3" transform="translate(272,95)"/>
<path d="M0 0 C66.66 0 133.32 0 202 0 C202 66.99 202 133.98 202 203 C135.34 203 68.68 203 0 203 C0 136.01 0 69.02 0 0 Z " fill="#DCE2DC" transform="translate(33,277)"/>
<path d="M0 0 C133.32 0 266.64 0 404 0 C404 23.43 404 46.86 404 71 C348.23 71 292.46 71 235 71 C235 70.34 235 69.68 235 69 C234.01 69.33 233.02 69.66 232 70 C232.33 69.01 232.66 68.02 233 67 C233.66 67 234.32 67 235 67 C235 66.34 235 65.68 235 65 C234.01 64.67 233.02 64.34 232 64 C231.67 62.35 231.34 60.7 231 59 C237.83836969 58.11013235 244.5033475 57.86228525 251.39477539 57.88647461 C253.04997696 57.88625557 253.04997696 57.88625557 254.73861694 57.8860321 C258.35831724 57.88672454 261.97796503 57.89448543 265.59765625 57.90234375 C268.11828076 57.90421031 270.63890564 57.90563309 273.15953064 57.90663147 C279.09849702 57.91004959 285.03744676 57.91791791 290.97640461 57.92798096 C297.74310833 57.93919534 304.50981299 57.94466591 311.27652371 57.94967639 C325.18435941 57.96010211 339.09217868 57.97766822 353 58 C351.95436989 56.73126446 351.95436989 56.73126446 349.6187672 56.8758015 C348.54985447 56.87618122 347.48094174 56.87656094 346.37963772 56.87695217 C345.15149143 56.87496112 343.92334514 56.87297007 342.65798229 56.87091869 C341.27747608 56.87377228 339.89697007 56.87671789 338.51646423 56.87974548 C337.06367126 56.87930991 335.61087836 56.87843526 334.15808588 56.87715632 C330.14698131 56.87490863 326.13590319 56.87893635 322.12480199 56.88393438 C317.80644248 56.8882348 313.48808457 56.88679275 309.16972351 56.8860321 C301.68158042 56.88550661 294.19344601 56.88865607 286.7053051 56.89426994 C275.87858096 56.90238149 265.05186105 56.90499981 254.2251342 56.90625793 C236.66139893 56.908449 219.0976683 56.91511056 201.53393555 56.92456055 C184.46785505 56.93373326 167.40177582 56.94081478 150.33569336 56.94506836 C148.75895378 56.94546244 148.75895378 56.94546244 147.15036087 56.94586449 C141.87723844 56.94716949 136.60411599 56.9484332 131.33099353 56.94967639 C87.55399232 56.9600507 43.77699676 56.97794484 0 57 C0 38.19 0 19.38 0 0 Z " fill="#F7F5F7" transform="translate(0,0)"/>
<path d="M0 0 C133.32 0 266.64 0 404 0 C404 18.81 404 37.62 404 57 C270.68 57 137.36 57 0 57 C0 38.19 0 19.38 0 0 Z " fill="#F9F9F9" transform="translate(0,663)"/>
<path d="M0 0 C43.89 0 87.78 0 133 0 C133.0309375 30.4115625 133.0309375 30.4115625 133.0625 61.4375 C133.071604 67.84986084 133.08070801 74.26222168 133.09008789 80.86889648 C133.09460449 88.67199707 133.09460449 88.67199707 133.09544373 92.31971741 C133.09698387 94.87885946 133.10014101 97.43795299 133.10557556 99.99708557 C133.11367764 103.86321395 133.11390757 107.72932171 133.11352539 111.59545898 C133.1171235 112.74416945 133.12072161 113.89287992 133.12442875 115.0763998 C133.12305125 116.11055051 133.12167376 117.14470121 133.12025452 118.21018982 C133.12163721 119.56937357 133.12163721 119.56937357 133.12304783 120.95601559 C133 123 133 123 132 124 C130.29174312 124.09622036 128.57947886 124.12187628 126.86851501 124.12025452 C125.75647202 124.12162918 124.64442902 124.12300385 123.49868774 124.12442017 C122.26798553 124.12082489 121.03728333 124.11722961 119.76928711 124.11352539 C118.48166977 124.11367142 117.19405243 124.11381744 115.86741638 124.1139679 C112.3262524 124.11425586 108.78512201 124.10835936 105.24396586 124.10139394 C101.54705012 124.09516017 97.85013369 124.09455658 94.1532135 124.09336853 C87.14796101 124.09025528 80.14272405 124.08204199 73.13747841 124.07201904 C63.67454396 124.05877239 54.21160528 124.05335794 44.7486639 124.04751682 C29.83243096 124.03810209 14.91623079 124.01818313 0 124 C0 83.08 0 42.16 0 0 Z " fill="#F5F5F5" transform="translate(271,538)"/>
<path d="M0 0 C3.69381647 -0.00311687 7.3876263 -0.00805698 11.08143997 -0.01352882 C16.81652286 -0.02176264 22.55158596 -0.02494432 28.2866745 -0.02401733 C30.37692363 -0.02441504 32.46717321 -0.0264702 34.55741882 -0.03032303 C37.40723528 -0.03521206 40.25698252 -0.0338378 43.10680008 -0.03084755 C43.92611794 -0.03365872 44.74543581 -0.03646989 45.58958149 -0.03936625 C50.57137964 -0.02577985 55.34834889 0.38180391 60.28087234 1.09061241 C60.28087234 1.42061241 60.28087234 1.75061241 60.28087234 2.09061241 C53.93758958 3.22741241 47.71935422 3.22486718 41.28697586 3.2041378 C39.50053917 3.20435684 39.50053917 3.20435684 37.67801285 3.20458031 C34.4305796 3.20400519 31.18319009 3.19900812 27.9357655 3.19200635 C24.53517298 3.18573269 21.1345795 3.18516585 17.73398209 3.18398094 C11.30266734 3.18087942 4.8713697 3.17268199 -1.55993754 3.16263145 C-8.88523018 3.15143361 -16.21052367 3.14595063 -23.53582275 3.14093602 C-38.5969339 3.13049835 -53.65802906 3.11292183 -68.71912766 3.09061241 C-67.60058179 6.81675394 -67.60058179 6.81675394 -64.71912766 9.09061241 C-64.71912766 9.75061241 -64.71912766 10.41061241 -64.71912766 11.09061241 C-65.37912766 11.75061241 -66.03912766 12.41061241 -66.71912766 13.09061241 C-66.05912766 13.09061241 -65.39912766 13.09061241 -64.71912766 13.09061241 C-64.71912766 13.75061241 -64.71912766 14.41061241 -64.71912766 15.09061241 C-8.94912766 15.09061241 46.82087234 15.09061241 104.28087234 15.09061241 C104.28087234 22.68061241 104.28087234 30.27061241 104.28087234 38.09061241 C61.74826937 38.11340112 19.21566726 38.13110973 -23.3169406 38.14167774 C-28.33275752 38.14292852 -33.34857443 38.14422284 -38.36439133 38.14554405 C-39.36299435 38.14580636 -40.36159737 38.14606867 -41.39046109 38.14633893 C-57.58196965 38.15069601 -73.77347467 38.15858377 -89.96498113 38.16776521 C-106.56599791 38.17710069 -123.16701284 38.1826678 -139.76803213 38.18470091 C-150.02038859 38.18607635 -160.27273506 38.19042812 -170.52508844 38.19852888 C-177.54550559 38.20379503 -184.56591755 38.20541701 -191.58633655 38.20411379 C-195.64307608 38.2034702 -199.69979811 38.20449022 -203.75653458 38.20981789 C-207.46422694 38.2146519 -211.17188988 38.21495105 -214.87958355 38.21151131 C-216.8691328 38.21088267 -218.85868167 38.21522438 -220.84822601 38.21969372 C-222.01367118 38.21770267 -223.17911635 38.21571162 -224.37987804 38.21366024 C-225.39411105 38.21403996 -226.40834405 38.21441968 -227.45331138 38.21481091 C-229.71912766 38.09061241 -229.71912766 38.09061241 -230.71912766 37.09061241 C-232.71694892 36.93235983 -234.72001599 36.8394207 -236.72303391 36.77420616 C-238.54544601 36.71136436 -238.54544601 36.71136436 -240.40467453 36.64725304 C-242.32376633 36.58827843 -242.32376633 36.58827843 -244.28162766 36.52811241 C-245.56488937 36.48492882 -246.84815109 36.44174522 -248.17029953 36.39725304 C-251.35312619 36.29076441 -254.53603439 36.18875279 -257.71912766 36.09061241 C-257.71912766 36.75061241 -257.71912766 37.41061241 -257.71912766 38.09061241 C-271.57912766 38.09061241 -285.43912766 38.09061241 -299.71912766 38.09061241 C-299.71912766 25.88061241 -299.71912766 13.67061241 -299.71912766 1.09061241 C-271.05099722 0.96039028 -242.3828566 0.83269201 -213.71469969 0.70843014 C-210.25393601 0.69342731 -206.79317243 0.67840338 -203.33240891 0.66336632 C-202.29985574 0.6588804 -202.29985574 0.6588804 -201.24644291 0.65430385 C-191.06675923 0.6100321 -180.88708267 0.56435468 -170.70740891 0.51785851 C-113.8051041 0.25851913 -56.90291951 0.0378235 0 0 Z " fill="#F3F3F3" transform="translate(299.7191276550293,55.90938758850098)"/>
<path d="M0 0 C26.07 0 52.14 0 79 0 C78.67 0.99 78.34 1.98 78 3 C77.01 3 76.02 3 75 3 C75.81202881 3.83265381 76.62405762 4.66530762 77.46069336 5.52319336 C80.44063822 9.11711817 80.63148247 11.94161507 80.62890625 16.62890625 C80.63131821 17.34102768 80.63373016 18.05314911 80.63621521 18.78684998 C80.63524084 20.28365684 80.62194515 21.78050158 80.59692383 23.27709961 C80.56253265 25.56033238 80.57630074 27.83970546 80.59570312 30.12304688 C80.5888056 31.5833497 80.57913404 33.04364261 80.56640625 34.50390625 C80.55552979 35.82205322 80.54465332 37.1402002 80.53344727 38.49829102 C79.91597241 42.55158248 78.91303153 44.16339902 76 47 C72.40799719 49.36647284 69.23295235 49.24199324 65 49.22705078 C63.95537598 49.22748886 63.95537598 49.22748886 62.88964844 49.22793579 C60.59297113 49.22654524 58.29662051 49.21099168 56 49.1953125 C54.40104347 49.1915798 52.80208464 49.18873404 51.203125 49.18673706 C46.99602935 49.1791077 42.78907221 49.15947352 38.58203125 49.1373291 C34.30470642 49.11690504 30.02735953 49.1077296 25.75 49.09765625 C18.22911461 49.07851713 10.70832253 49.0495188 3.1875 49.01345825 C-1.53188317 48.99353209 -6.24912352 49.01800425 -10.96826172 49.06347656 C-18.03895728 49.1290135 -25.10963731 49.17386548 -32.18055534 49.20724869 C-36.45566092 49.2281407 -40.73044839 49.25651622 -45.00537109 49.30175781 C-49.14674115 49.3452955 -53.28780488 49.36915098 -57.42938614 49.37950897 C-59.00423142 49.38687899 -60.57906055 49.40127107 -62.15377426 49.42292023 C-64.36053278 49.45206668 -66.56602842 49.4559518 -68.77294922 49.45410156 C-70.026633 49.46298401 -71.28031677 49.47186646 -72.57199097 49.48101807 C-76.64708251 48.90920141 -78.80044831 47.53539306 -82 45 C-84.44536019 41.69280799 -84.23827333 38.52494036 -84.1875 34.5 C-84.18105469 33.3759375 -84.17460938 32.251875 -84.16796875 31.09375 C-84.02909285 28.53584979 -83.63101153 26.45457695 -83 24 C-83.33 23.67 -83.66 23.34 -84 23 C-84.15272417 20.92060164 -84.22195322 18.83481069 -84.25 16.75 C-84.27578125 15.61046875 -84.3015625 14.4709375 -84.328125 13.296875 C-83.96190935 9.61727968 -83.2866464 7.88316285 -81 5 C-76.9191543 1.95012839 -73.90976607 1.6289621 -68.87060547 1.64355469 C-68.17243713 1.64151031 -67.4742688 1.63946594 -66.75494385 1.63735962 C-64.45875423 1.63436367 -62.16329117 1.65279022 -59.8671875 1.671875 C-58.26726458 1.67493447 -56.667339 1.67680916 -55.06741333 1.67755127 C-51.72013093 1.68214665 -48.37309013 1.69654481 -45.02587891 1.71875 C-40.73396295 1.74707746 -36.4422367 1.75796707 -32.15023613 1.7624321 C-28.84915265 1.7665867 -25.54810752 1.77640379 -22.24704361 1.78830719 C-20.66418896 1.79400568 -19.08133064 1.79876578 -17.49847031 1.80257416 C-15.289116 1.80944273 -13.07991179 1.82307682 -10.87060547 1.83886719 C-9.61327606 1.84569519 -8.35594666 1.85252319 -7.06051636 1.85955811 C-4 2 -4 2 -1 3 C-0.67 2.01 -0.34 1.02 0 0 Z " fill="#0339D5" transform="translate(136,353)"/>
<path d="M0 0 C3.69381647 -0.00311687 7.3876263 -0.00805698 11.08143997 -0.01352882 C16.81652286 -0.02176264 22.55158596 -0.02494432 28.2866745 -0.02401733 C30.37692363 -0.02441504 32.46717321 -0.0264702 34.55741882 -0.03032303 C37.40723528 -0.03521206 40.25698252 -0.0338378 43.10680008 -0.03084755 C43.92611794 -0.03365872 44.74543581 -0.03646989 45.58958149 -0.03936625 C50.57137964 -0.02577985 55.34834889 0.38180391 60.28087234 1.09061241 C60.28087234 1.42061241 60.28087234 1.75061241 60.28087234 2.09061241 C53.93758958 3.22741241 47.71935422 3.22486718 41.28697586 3.2041378 C39.50053917 3.20435684 39.50053917 3.20435684 37.67801285 3.20458031 C34.4305796 3.20400519 31.18319009 3.19900812 27.9357655 3.19200635 C24.53517298 3.18573269 21.1345795 3.18516585 17.73398209 3.18398094 C11.30266734 3.18087942 4.8713697 3.17268199 -1.55993754 3.16263145 C-8.88523018 3.15143361 -16.21052367 3.14595063 -23.53582275 3.14093602 C-38.5969339 3.13049835 -53.65802906 3.11292183 -68.71912766 3.09061241 C-67.60058179 6.81675394 -67.60058179 6.81675394 -64.71912766 9.09061241 C-64.71912766 9.75061241 -64.71912766 10.41061241 -64.71912766 11.09061241 C-65.37912766 11.75061241 -66.03912766 12.41061241 -66.71912766 13.09061241 C-66.05912766 13.09061241 -65.39912766 13.09061241 -64.71912766 13.09061241 C-64.71912766 13.75061241 -64.71912766 14.41061241 -64.71912766 15.09061241 C-8.94912766 15.09061241 46.82087234 15.09061241 104.28087234 15.09061241 C103.95087234 16.08061241 103.62087234 17.07061241 103.28087234 18.09061241 C102.95087234 17.76061241 102.62087234 17.43061241 102.28087234 17.09061241 C100.14911755 16.98756034 98.01388065 16.95659408 95.87964153 16.95194721 C95.19976147 16.94910499 94.5198814 16.94626278 93.81939891 16.94333443 C91.51263513 16.93492964 89.20592119 16.93371473 86.89914322 16.93239403 C85.24010919 16.9278326 83.58107632 16.92283321 81.92204481 16.91743046 C77.34087402 16.90379212 72.75971069 16.89641461 68.17852485 16.8900038 C63.24665374 16.88202475 58.31479828 16.86831846 53.38293839 16.85529137 C44.83075765 16.83349307 36.27857536 16.8153609 27.7263813 16.79968643 C15.36119253 16.77701825 2.99602106 16.74887126 -9.36915307 16.71936715 C-29.42859336 16.67165372 -49.4880407 16.62839974 -69.5474968 16.58792686 C-89.03871333 16.54859099 -108.52992357 16.50716938 -128.02112961 16.46292686 C-129.22163911 16.46020259 -130.42214861 16.45747832 -131.65903718 16.45467149 C-137.68136327 16.44099233 -143.70368926 16.427272 -149.72601521 16.41353118 C-199.72370629 16.2995075 -249.72141106 16.19278513 -299.71912766 16.09061241 C-299.71912766 11.14061241 -299.71912766 6.19061241 -299.71912766 1.09061241 C-271.05099773 0.96028363 -242.38285656 0.83269201 -213.71469969 0.70843014 C-210.25393601 0.69342731 -206.79317243 0.67840338 -203.33240891 0.66336632 C-202.29985574 0.6588804 -202.29985574 0.6588804 -201.24644291 0.65430385 C-191.06675923 0.6100321 -180.88708267 0.56435468 -170.70740891 0.51785851 C-113.8051041 0.25851913 -56.90291951 0.0378235 0 0 Z " fill="#E1AFD5" transform="translate(299.7191276550293,55.90938758850098)"/>
<path d="M0 0 C3.69381647 -0.00311687 7.3876263 -0.00805698 11.08143997 -0.01352882 C16.81652286 -0.02176264 22.55158596 -0.02494432 28.2866745 -0.02401733 C30.37692363 -0.02441504 32.46717321 -0.0264702 34.55741882 -0.03032303 C37.40723528 -0.03521206 40.25698252 -0.0338378 43.10680008 -0.03084755 C43.92611794 -0.03365872 44.74543581 -0.03646989 45.58958149 -0.03936625 C50.57137964 -0.02577985 55.34834889 0.38180391 60.28087234 1.09061241 C60.28087234 1.42061241 60.28087234 1.75061241 60.28087234 2.09061241 C53.93758958 3.22741241 47.71935422 3.22486718 41.28697586 3.2041378 C39.50053917 3.20435684 39.50053917 3.20435684 37.67801285 3.20458031 C34.4305796 3.20400519 31.18319009 3.19900812 27.9357655 3.19200635 C24.53517298 3.18573269 21.1345795 3.18516585 17.73398209 3.18398094 C11.30266734 3.18087942 4.8713697 3.17268199 -1.55993754 3.16263145 C-8.88523018 3.15143361 -16.21052367 3.14595063 -23.53582275 3.14093602 C-38.5969339 3.13049835 -53.65802906 3.11292183 -68.71912766 3.09061241 C-67.60058179 6.81675394 -67.60058179 6.81675394 -64.71912766 9.09061241 C-64.71912766 9.75061241 -64.71912766 10.41061241 -64.71912766 11.09061241 C-65.37912766 11.75061241 -66.03912766 12.41061241 -66.71912766 13.09061241 C-66.05912766 13.09061241 -65.39912766 13.09061241 -64.71912766 13.09061241 C-64.71912766 13.75061241 -64.71912766 14.41061241 -64.71912766 15.09061241 C-8.94912766 15.09061241 46.82087234 15.09061241 104.28087234 15.09061241 C103.95087234 16.08061241 103.62087234 17.07061241 103.28087234 18.09061241 C102.95087234 17.76061241 102.62087234 17.43061241 102.28087234 17.09061241 C100.14911755 16.98756034 98.01388065 16.95659408 95.87964153 16.95194721 C95.19976147 16.94910499 94.5198814 16.94626278 93.81939891 16.94333443 C91.51263513 16.93492964 89.20592119 16.93371473 86.89914322 16.93239403 C85.24010919 16.9278326 83.58107632 16.92283321 81.92204481 16.91743046 C77.34087402 16.90379212 72.75971069 16.89641461 68.17852485 16.8900038 C63.24665374 16.88202475 58.31479828 16.86831846 53.38293839 16.85529137 C44.83075765 16.83349307 36.27857536 16.8153609 27.7263813 16.79968643 C15.36119253 16.77701825 2.99602106 16.74887126 -9.36915307 16.71936715 C-29.42859336 16.67165372 -49.4880407 16.62839974 -69.5474968 16.58792686 C-89.03871333 16.54859099 -108.52992357 16.50716938 -128.02112961 16.46292686 C-129.22163911 16.46020259 -130.42214861 16.45747832 -131.65903718 16.45467149 C-137.68136327 16.44099233 -143.70368926 16.427272 -149.72601521 16.41353118 C-199.72370627 16.2995075 -249.72141092 16.19271122 -299.71912766 16.09061241 C-299.82374574 12.18051155 -299.23622321 9.69371436 -297.71912766 6.09061241 C-297.71912766 5.10061241 -297.71912766 4.11061241 -297.71912766 3.09061241 C-296.06912766 3.09061241 -294.41912766 3.09061241 -292.71912766 3.09061241 C-292.09455492 6.52576243 -291.71912766 9.58126055 -291.71912766 13.09061241 C-291.05912766 13.42061241 -290.39912766 13.75061241 -289.71912766 14.09061241 C-290.04912766 11.12061241 -290.37912766 8.15061241 -290.71912766 5.09061241 C-289.06912766 5.42061241 -287.41912766 5.75061241 -285.71912766 6.09061241 C-285.05912766 8.40061241 -284.39912766 10.71061241 -283.71912766 13.09061241 C-280.41912766 13.42061241 -277.11912766 13.75061241 -273.71912766 14.09061241 C-273.38912766 13.10061241 -273.05912766 12.11061241 -272.71912766 11.09061241 C-273.37912766 11.09061241 -274.03912766 11.09061241 -274.71912766 11.09061241 C-274.05912766 9.11061241 -273.39912766 7.13061241 -272.71912766 5.09061241 C-270.40912766 5.09061241 -268.09912766 5.09061241 -265.71912766 5.09061241 C-265.71912766 5.75061241 -265.71912766 6.41061241 -265.71912766 7.09061241 C-264.39912766 7.09061241 -263.07912766 7.09061241 -261.71912766 7.09061241 C-262.04912766 8.41061241 -262.37912766 9.73061241 -262.71912766 11.09061241 C-263.85350266 11.21436241 -264.98787766 11.33811241 -266.15662766 11.46561241 C-267.33225266 11.67186241 -268.50787766 11.87811241 -269.71912766 12.09061241 C-270.04912766 12.75061241 -270.37912766 13.41061241 -270.71912766 14.09061241 C-208.34912766 14.09061241 -145.97912766 14.09061241 -81.71912766 14.09061241 C-81.71912766 13.43061241 -81.71912766 12.77061241 -81.71912766 12.09061241 C-81.05912766 11.76061241 -80.39912766 11.43061241 -79.71912766 11.09061241 C-79.71912766 10.10061241 -79.71912766 9.11061241 -79.71912766 8.09061241 C-80.37912766 8.09061241 -81.03912766 8.09061241 -81.71912766 8.09061241 C-82.04912766 8.75061241 -82.37912766 9.41061241 -82.71912766 10.09061241 C-82.71912766 8.44061241 -82.71912766 6.79061241 -82.71912766 5.09061241 C-82.38912766 5.75061241 -82.05912766 6.41061241 -81.71912766 7.09061241 C-81.05912766 7.09061241 -80.39912766 7.09061241 -79.71912766 7.09061241 C-79.71912766 6.43061241 -79.71912766 5.77061241 -79.71912766 5.09061241 C-78.06912766 5.42061241 -76.41912766 5.75061241 -74.71912766 6.09061241 C-74.71912766 5.43061241 -74.71912766 4.77061241 -74.71912766 4.09061241 C-77.65451219 2.62292014 -80.32689781 2.80391592 -83.59412766 2.71561241 C-84.82904953 2.66662804 -86.06397141 2.61764366 -87.33631516 2.56717491 C-90.85936482 2.76975982 -90.85936482 2.76975982 -93.03944016 5.42654991 C-93.87088547 6.74526085 -93.87088547 6.74526085 -94.71912766 8.09061241 C-95.37912766 9.08061241 -96.03912766 10.07061241 -96.71912766 11.09061241 C-97.27600266 10.86373741 -97.83287766 10.63686241 -98.40662766 10.40311241 C-101.63922032 9.96627557 -103.06026241 11.34135896 -105.71912766 13.09061241 C-106.37912766 13.09061241 -107.03912766 13.09061241 -107.71912766 13.09061241 C-108.04912766 12.43061241 -108.37912766 11.77061241 -108.71912766 11.09061241 C-109.37912766 12.08061241 -110.03912766 13.07061241 -110.71912766 14.09061241 C-113.10194016 14.38358116 -113.10194016 14.38358116 -115.84412766 14.27811241 C-116.75420578 14.2510421 -117.66428391 14.22397179 -118.60194016 14.19608116 C-119.30061203 14.16127647 -119.99928391 14.12647179 -120.71912766 14.09061241 C-120.38912766 13.10061241 -120.05912766 12.11061241 -119.71912766 11.09061241 C-120.37912766 11.09061241 -121.03912766 11.09061241 -121.71912766 11.09061241 C-121.71912766 12.08061241 -121.71912766 13.07061241 -121.71912766 14.09061241 C-122.70912766 13.76061241 -123.69912766 13.43061241 -124.71912766 13.09061241 C-124.05912766 10.45061241 -123.39912766 7.81061241 -122.71912766 5.09061241 C-121.39912766 5.09061241 -120.07912766 5.09061241 -118.71912766 5.09061241 C-118.38912766 5.75061241 -118.05912766 6.41061241 -117.71912766 7.09061241 C-117.38912766 5.44061241 -117.05912766 3.79061241 -116.71912766 2.09061241 C-127.61961868 2.1980589 -138.52004267 2.31068116 -149.42041111 2.42995167 C-154.48163097 2.4851674 -159.54285662 2.53858532 -164.60413742 2.58792686 C-169.48654577 2.63559023 -174.36888337 2.68793386 -179.25120735 2.74355316 C-181.11594702 2.76396775 -182.98070608 2.78268232 -184.84547997 2.79968643 C-187.45292943 2.82375019 -190.0602451 2.85380216 -192.66761398 2.88529015 C-193.44229019 2.89104561 -194.2169664 2.89680107 -195.01511765 2.90273094 C-198.17428583 2.94623068 -200.70016086 3.08429015 -203.71912766 4.09061241 C-203.71912766 4.75061241 -203.71912766 5.41061241 -203.71912766 6.09061241 C-202.06912766 6.09061241 -200.41912766 6.09061241 -198.71912766 6.09061241 C-199.04912766 6.75061241 -199.37912766 7.41061241 -199.71912766 8.09061241 C-200.37912766 8.09061241 -201.03912766 8.09061241 -201.71912766 8.09061241 C-202.04912766 8.75061241 -202.37912766 9.41061241 -202.71912766 10.09061241 C-206.06406449 11.08505309 -208.40867962 11.19409509 -211.71912766 10.09061241 C-211.71912766 8.77061241 -211.71912766 7.45061241 -211.71912766 6.09061241 C-212.04912766 8.07061241 -212.37912766 10.05061241 -212.71912766 12.09061241 C-213.70912766 11.59561241 -213.70912766 11.59561241 -214.71912766 11.09061241 C-216.09255596 11.02166521 -217.46914867 11.00593533 -218.84412766 11.02811241 C-220.76225266 11.05904991 -220.76225266 11.05904991 -222.71912766 11.09061241 C-223.21412766 8.61561241 -223.21412766 8.61561241 -223.71912766 6.09061241 C-222.06912766 5.43061241 -220.41912766 4.77061241 -218.71912766 4.09061241 C-224.32912766 3.76061241 -229.93912766 3.43061241 -235.71912766 3.09061241 C-235.71912766 5.73061241 -235.71912766 8.37061241 -235.71912766 11.09061241 C-238.91928621 12.15733193 -240.60457059 12.03906713 -243.90662766 11.65311241 C-244.80768234 11.55127647 -245.70873703 11.44944054 -246.63709641 11.34451866 C-247.32416672 11.2607296 -248.01123703 11.17694054 -248.71912766 11.09061241 C-248.71912766 9.11061241 -248.71912766 7.13061241 -248.71912766 5.09061241 C-247.72912766 5.42061241 -246.73912766 5.75061241 -245.71912766 6.09061241 C-245.05912766 6.09061241 -244.39912766 6.09061241 -243.71912766 6.09061241 C-243.05912766 6.09061241 -242.39912766 6.09061241 -241.71912766 6.09061241 C-242.21412766 4.60561241 -242.21412766 4.60561241 -242.71912766 3.09061241 C-261.52912766 2.76061241 -280.33912766 2.43061241 -299.71912766 2.09061241 C-299.71912766 1.76061241 -299.71912766 1.43061241 -299.71912766 1.09061241 C-271.05099773 0.96028363 -242.38285656 0.83269201 -213.71469969 0.70843014 C-210.25393601 0.69342731 -206.79317243 0.67840338 -203.33240891 0.66336632 C-202.29985574 0.6588804 -202.29985574 0.6588804 -201.24644291 0.65430385 C-191.06675923 0.6100321 -180.88708267 0.56435468 -170.70740891 0.51785851 C-113.8051041 0.25851913 -56.90291951 0.0378235 0 0 Z " fill="#DBB3CE" transform="translate(299.7191276550293,55.90938758850098)"/>
<path d="M0 0 C18.81 0 37.62 0 57 0 C57.495 1.98 57.495 1.98 58 4 C56.02 4.99 56.02 4.99 54 6 C53.01 5.01 52.02 4.02 51 3 C51 4.98 51 6.96 51 9 C54.63 9 58.26 9 62 9 C62.33 7.68 62.66 6.36 63 5 C63.33 3.68 63.66 2.36 64 1 C69.94 1 75.88 1 82 1 C81.67 1.66 81.34 2.32 81 3 C78.9375 3.625 78.9375 3.625 77 4 C77 5.32 77 6.64 77 8 C79.97 8 82.94 8 86 8 C86.33 6.35 86.66 4.7 87 3 C89 5 89 5 89 8 C91.31 8.33 93.62 8.66 96 9 C96.33 8.34 96.66 7.68 97 7 C97.99 6.34 98.98 5.68 100 5 C98.68 4.67 97.36 4.34 96 4 C96 3.34 96 2.68 96 2 C99.00015912 0.99994696 100.97423756 0.88424415 104.10546875 0.90234375 C105.08837891 0.90556641 106.07128906 0.90878906 107.08398438 0.91210938 C108.62022461 0.92467773 108.62022461 0.92467773 110.1875 0.9375 C111.22326172 0.94201172 112.25902344 0.94652344 113.32617188 0.95117188 C115.88417266 0.9629599 118.44205733 0.97941485 121 1 C121 3.66666667 121 6.33333333 121 9 C118.69 8.67 116.38 8.34 114 8 C113.66916916 8.81329269 113.33833832 9.62658539 112.9974823 10.46452332 C111 13 111 13 107.48823547 13.60127258 C106.00561326 13.61577871 104.52256754 13.60244365 103.0402832 13.56762695 C102.23029877 13.56835709 101.42031433 13.56908722 100.58578491 13.56983948 C97.90677058 13.56635417 95.22949202 13.52745043 92.55078125 13.48828125 C90.6941981 13.47895643 88.83760265 13.47183876 86.98100281 13.46684265 C82.09310978 13.4477467 77.20595901 13.39862361 72.31835938 13.34332275 C67.33148236 13.2921862 62.34448547 13.26934058 57.35742188 13.24414062 C47.57128836 13.19050732 37.78570589 13.10516316 28 13 C28.8125 11.04296875 28.8125 11.04296875 30 9 C33 8.3125 33 8.3125 36 8 C36.66 7.67 37.32 7.34 38 7 C36.68 6.34 35.36 5.68 34 5 C34 4.34 34 3.68 34 3 C31.69 3.33 29.38 3.66 27 4 C26.34 5.65 25.68 7.3 25 9 C25.66 9 26.32 9 27 9 C26.67 10.32 26.34 11.64 26 13 C22.7 12.67 19.4 12.34 16 12 C15.34895833 9.94921875 14.69791667 7.8984375 14.046875 5.84765625 C13.70140625 5.23792969 13.3559375 4.62820312 13 4 C11.68 3.67 10.36 3.34 9 3 C9.33 5.97 9.66 8.94 10 12 C8.68 11.34 7.36 10.68 6 10 C6.66 9.67 7.32 9.34 8 9 C7.814375 8.38125 7.62875 7.7625 7.4375 7.125 C7 5 7 5 8 3 C6.02 2.34 4.04 1.68 2 1 C2.226875 1.763125 2.45375 2.52625 2.6875 3.3125 C2.790625 4.199375 2.89375 5.08625 3 6 C2.01 6.99 1.02 7.98 0 9 C0 6.03 0 3.06 0 0 Z " fill="#E695CF" transform="translate(0,58)"/>
<path d="M0 0 C1.65 0 3.3 0 5 0 C5.62457273 3.43515002 6 6.49064814 6 10 C6.66 10.33 7.32 10.66 8 11 C7.67 8.03 7.34 5.06 7 2 C8.65 2.33 10.3 2.66 12 3 C12.66 5.31 13.32 7.62 14 10 C17.3 10.33 20.6 10.66 24 11 C24.33 10.01 24.66 9.02 25 8 C24.34 8 23.68 8 23 8 C23.66 6.02 24.32 4.04 25 2 C27.31 2 29.62 2 32 2 C32 2.66 32 3.32 32 4 C33.32 4 34.64 4 36 4 C35.67 5.32 35.34 6.64 35 8 C33.865625 8.12375 32.73125 8.2475 31.5625 8.375 C30.386875 8.58125 29.21125 8.7875 28 9 C27.67 9.66 27.34 10.32 27 11 C150.75 11.33 274.5 11.66 402 12 C401.67 12.99 401.34 13.98 401 15 C400.67 14.67 400.34 14.34 400 14 C397.86824521 13.89694793 395.73300831 13.86598167 393.59876919 13.8613348 C392.91888912 13.85849258 392.23900906 13.85565036 391.53852656 13.85272202 C389.23176278 13.84431723 386.92504884 13.84310232 384.61827087 13.84178162 C382.95923684 13.83722019 381.30020397 13.8322208 379.64117247 13.82681805 C375.06000168 13.8131797 370.47883834 13.8058022 365.89765251 13.79939139 C360.9657814 13.79141234 356.03392593 13.77770605 351.10206604 13.76467896 C342.54988531 13.74288066 333.99770302 13.72474849 325.44550896 13.70907402 C313.08032018 13.68640584 300.71514871 13.65825885 288.34997458 13.62875474 C268.2905343 13.58104131 248.23108696 13.53778733 228.17163086 13.49731445 C208.68041433 13.45797858 189.18920408 13.41655696 169.69799805 13.37231445 C168.49748855 13.36959018 167.29697905 13.36686591 166.06009047 13.36405908 C160.03776439 13.35037992 154.01543839 13.33665958 147.99311244 13.32291877 C97.99542139 13.20889509 47.99771673 13.10209881 -2 13 C-2.10461808 9.08989914 -1.51709556 6.60310195 0 3 C0 2.01 0 1.02 0 0 Z " fill="#8B6F84" transform="translate(2,59)"/>
<path d="M0 0 C10.23 0 20.46 0 31 0 C32.16778523 7.00671141 32.16778523 7.00671141 30 11 C26.95634906 12.52182547 23.77787609 12.18360092 20.4375 12.203125 C19.69040771 12.20882507 18.94331543 12.21452515 18.17358398 12.22039795 C16.59327613 12.22984679 15.01294859 12.23638147 13.43261719 12.24023438 C11.0094194 12.24996219 8.58706193 12.28099412 6.1640625 12.3125 C4.63021338 12.31902787 3.09635819 12.32427919 1.5625 12.328125 C0.83538818 12.3404718 0.10827637 12.3528186 -0.64086914 12.36553955 C-2.68359375 12.35644531 -2.68359375 12.35644531 -6 12 C-6.66 11.01 -7.32 10.02 -8 9 C-8.66 9 -9.32 9 -10 9 C-10.33 7.35 -10.66 5.7 -11 4 C-7.38026598 2.68373308 -4.90432869 2 -1 2 C-0.67 1.34 -0.34 0.68 0 0 Z " fill="#E2A6D5" transform="translate(133,59)"/>
<path d="M0 0 C0.66 0 1.32 0 2 0 C2 0.99 2 1.98 2 3 C3.64574566 3.02688151 5.29161413 3.04634123 6.9375 3.0625 C8.31228516 3.07990234 8.31228516 3.07990234 9.71484375 3.09765625 C11.96593327 3.25949049 11.96593327 3.25949049 13 2 C14.46737025 1.90081543 15.93943909 1.86920159 17.41015625 1.8671875 C18.31830078 1.86589844 19.22644531 1.86460938 20.16210938 1.86328125 C21.11923828 1.86714844 22.07636719 1.87101562 23.0625 1.875 C23.99255859 1.87113281 24.92261719 1.86726563 25.88085938 1.86328125 C30.05006178 1.86914099 34.13022972 1.94464001 38.265625 2.5 C46.11311724 3.55071026 54.06907869 3.22855753 61.9375 2.5 C68.35622441 1.94115583 74.74900328 1.88688006 81.1875 1.875 C82.73135376 1.86823242 82.73135376 1.86823242 84.30639648 1.86132812 C85.27134033 1.86326172 86.23628418 1.86519531 87.23046875 1.8671875 C88.10082764 1.86831543 88.97118652 1.86944336 89.86791992 1.87060547 C92 2 92 2 94 3 C95.72835465 3.09629223 97.46037253 3.13075017 99.19140625 3.1328125 C100.73151367 3.13474609 100.73151367 3.13474609 102.30273438 3.13671875 C103.37845703 3.13285156 104.45417969 3.12898438 105.5625 3.125 C107.18188477 3.13080078 107.18188477 3.13080078 108.83398438 3.13671875 C109.85943359 3.13542969 110.88488281 3.13414063 111.94140625 3.1328125 C112.88701416 3.13168457 113.83262207 3.13055664 114.80688477 3.12939453 C116.97638251 3.2450282 116.97638251 3.2450282 118 2 C121.5 1.875 121.5 1.875 125 2 C125.33 2.33 125.66 2.66 126 3 C127.69558726 3.09932153 129.39525747 3.13080007 131.09375 3.1328125 C132.12371094 3.13410156 133.15367187 3.13539062 134.21484375 3.13671875 C135.29894531 3.13285156 136.38304687 3.12898438 137.5 3.125 C139.12615234 3.13080078 139.12615234 3.13080078 140.78515625 3.13671875 C141.81511719 3.13542969 142.84507812 3.13414063 143.90625 3.1328125 C144.85822266 3.13168457 145.81019531 3.13055664 146.79101562 3.12939453 C148.97452138 3.24699456 148.97452138 3.24699456 150 2 C152.51266397 1.86040756 154.70108459 1.93013686 157.15600586 2.50390625 C160.86495843 3.15087952 164.50375142 3.10362562 168.25390625 3.0625 C169.91796823 3.05393388 171.58203075 3.04547465 173.24609375 3.03710938 C174.54909424 3.02780396 174.54909424 3.02780396 175.87841797 3.01831055 C193.28105662 2.89959144 210.61415942 3.17544449 228 4 C228 4.33 228 4.66 228 5 C151.11 5 74.22 5 -5 5 C-3.35 3.35 -1.7 1.7 0 0 Z " fill="#E3D8DD" transform="translate(7,52)"/>
<path d="M0 0 C10.23 0 20.46 0 31 0 C30.67 1.65 30.34 3.3 30 5 C28.35 5 26.7 5 25 5 C25 5.66 25 6.32 25 7 C27.97 7.495 27.97 7.495 31 8 C31.33 7.34 31.66 6.68 32 6 C32.66 6 33.32 6 34 6 C34 6.66 34 7.32 34 8 C34.66 8.33 35.32 8.66 36 9 C35.67 9.66 35.34 10.32 35 11 C36.32 11.33 37.64 11.66 39 12 C33.60653012 12.02464849 28.21309275 12.04283531 22.81958008 12.05493164 C20.98331125 12.05997231 19.14704646 12.06680477 17.31079102 12.07543945 C14.67723599 12.08751672 12.04373384 12.09323081 9.41015625 12.09765625 C8.17109276 12.10539818 8.17109276 12.10539818 6.90699768 12.11329651 C4.93763632 12.11349205 2.96838386 12.06204152 1 12 C0.67 11.67 0.34 11.34 0 11 C0 7.37 0 3.74 0 0 Z " fill="#F5F7F8" transform="translate(279,319)"/>
<path d="M0 0 C2.97 0.33 5.94 0.66 9 1 C11.88633065 12.5453226 13.72198078 32.30143818 8.95703125 43.4375 C8.64121094 43.953125 8.32539063 44.46875 8 45 C9.485 45.495 9.485 45.495 11 46 C10.67 47.32 10.34 48.64 10 50 C9.33438553 49.83734146 8.66877106 49.67468292 7.98298645 49.50709534 C4.39544177 48.89722761 0.89794865 48.86815039 -2.7277832 48.88647461 C-3.48929184 48.88632858 -4.25080048 48.88618256 -5.03538513 48.8860321 C-7.54054662 48.88672613 -10.04563282 48.8944946 -12.55078125 48.90234375 C-14.29241393 48.90420974 -16.03404714 48.90563279 -17.77568054 48.90663147 C-22.35085509 48.91044238 -26.9259977 48.92026047 -31.50115967 48.93133545 C-36.17329476 48.94158025 -40.84543503 48.94613566 -45.51757812 48.95117188 C-54.67839942 48.96188404 -63.83919705 48.97894332 -73 49 C-73 48.34 -73 47.68 -73 47 C-72.11130219 46.99635437 -71.22260437 46.99270874 -70.30697632 46.98895264 C-61.92042046 46.9510423 -53.53425228 46.89415503 -45.1479702 46.81609726 C-40.83675009 46.77663475 -36.52573386 46.74444039 -32.21435547 46.72900391 C-28.05142284 46.71382904 -23.88905074 46.67936935 -19.72636795 46.63169098 C-18.1404572 46.61688563 -16.55446642 46.60895947 -14.96848679 46.60811615 C-12.74189672 46.60574204 -10.51685019 46.57863051 -8.29052734 46.54589844 C-6.39190445 46.53257477 -6.39190445 46.53257477 -4.45492554 46.51898193 C-0.38251468 45.90724439 1.81029568 44.55838028 5 42 C6.48033819 39.03932362 6.20379329 36.01038079 6.23828125 32.76171875 C6.25038887 31.68504692 6.25038887 31.68504692 6.26274109 30.58662415 C6.27657786 29.06599337 6.28730185 27.54533159 6.29516602 26.0246582 C6.31235842 23.70658958 6.35624181 21.38995531 6.40039062 19.07226562 C6.41051977 17.59376047 6.41903519 16.11524321 6.42578125 14.63671875 C6.45204338 13.60208748 6.45204338 13.60208748 6.47883606 12.54655457 C6.45198956 6.54647731 4.05254124 4.05254124 0 0 Z " fill="#9BBAE0" transform="translate(209,355)"/>
<path d="M0 0 C13.53 0 27.06 0 41 0 C41.495 0.99 41.495 0.99 42 2 C41.01 2 40.02 2 39 2 C39 2.66 39 3.32 39 4 C40.65 4 42.3 4 44 4 C43.67 4.66 43.34 5.32 43 6 C42.34 6 41.68 6 41 6 C40.67 6.66 40.34 7.32 40 8 C36.65506316 8.99444068 34.31044803 9.10348268 31 8 C31 6.68 31 5.36 31 4 C30.67 5.98 30.34 7.96 30 10 C29.34 9.67 28.68 9.34 28 9 C26.62657169 8.9310528 25.24997898 8.91532292 23.875 8.9375 C21.956875 8.9684375 21.956875 8.9684375 20 9 C19.67 7.35 19.34 5.7 19 4 C20.65 3.34 22.3 2.68 24 2 C18.39 1.67 12.78 1.34 7 1 C7 3.64 7 6.28 7 9 C3.79984144 10.06671952 2.11455706 9.94845472 -1.1875 9.5625 C-2.08855469 9.46066406 -2.98960938 9.35882813 -3.91796875 9.25390625 C-4.60503906 9.17011719 -5.29210938 9.08632812 -6 9 C-6 7.02 -6 5.04 -6 3 C-5.01 3.33 -4.02 3.66 -3 4 C-2.34 4 -1.68 4 -1 4 C-0.34 4 0.32 4 1 4 C0.67 2.68 0.34 1.36 0 0 Z " fill="#DAA0CC" transform="translate(57,58)"/>
<path d="M0 0 C0.98291016 0.00322266 1.96582031 0.00644531 2.97851562 0.00976562 C4.51475586 0.02233398 4.51475586 0.02233398 6.08203125 0.03515625 C7.63567383 0.04192383 7.63567383 0.04192383 9.22070312 0.04882812 C11.77870391 0.06061615 14.33658858 0.0770711 16.89453125 0.09765625 C16.89453125 2.76432292 16.89453125 5.43098958 16.89453125 8.09765625 C14.58453125 7.76765625 12.27453125 7.43765625 9.89453125 7.09765625 C9.35058716 8.32005005 9.35058716 8.32005005 8.7956543 9.56713867 C6.89453125 12.09765625 6.89453125 12.09765625 3.98364258 12.6652832 C2.82630615 12.63909912 1.66896973 12.61291504 0.4765625 12.5859375 C-0.77705078 12.56982422 -2.03066406 12.55371094 -3.32226562 12.53710938 C-4.63259766 12.49521484 -5.94292969 12.45332031 -7.29296875 12.41015625 C-8.62821404 12.38507286 -9.96350404 12.36225973 -11.29882812 12.34179688 C-14.56883582 12.28277147 -17.83659208 12.20047101 -21.10546875 12.09765625 C-21.10546875 11.76765625 -21.10546875 11.43765625 -21.10546875 11.09765625 C-19.12546875 10.76765625 -17.14546875 10.43765625 -15.10546875 10.09765625 C-15.10546875 9.43765625 -15.10546875 8.77765625 -15.10546875 8.09765625 C-12.09515131 7.1634198 -11.23896607 7.05315714 -8.10546875 8.09765625 C-7.77546875 7.43765625 -7.44546875 6.77765625 -7.10546875 6.09765625 C-6.11546875 5.43765625 -5.12546875 4.77765625 -4.10546875 4.09765625 C-5.42546875 3.76765625 -6.74546875 3.43765625 -8.10546875 3.09765625 C-8.10546875 2.43765625 -8.10546875 1.77765625 -8.10546875 1.09765625 C-5.10530963 0.09760321 -3.13123119 -0.0180996 0 0 Z " fill="#E59DD0" transform="translate(104.10546875,58.90234375)"/>
<path d="M0 0 C8.25 0 16.5 0 25 0 C25.495 0.99 25.495 0.99 26 2 C25.38125 2.598125 24.7625 3.19625 24.125 3.8125 C21.86323046 6.00811144 21.86323046 6.00811144 20 9 C19.443125 8.773125 18.88625 8.54625 18.3125 8.3125 C15.07990734 7.87566315 13.65886525 9.25074655 11 11 C10.34 11 9.68 11 9 11 C8.67 10.34 8.34 9.68 8 9 C7.01 10.485 7.01 10.485 6 12 C3.6171875 12.29296875 3.6171875 12.29296875 0.875 12.1875 C-0.03507813 12.16042969 -0.94515625 12.13335937 -1.8828125 12.10546875 C-2.58148438 12.07066406 -3.28015625 12.03585938 -4 12 C-3.67 11.01 -3.34 10.02 -3 9 C-3.66 9 -4.32 9 -5 9 C-5 9.99 -5 10.98 -5 12 C-5.99 11.67 -6.98 11.34 -8 11 C-7.34 8.36 -6.68 5.72 -6 3 C-4.68 3 -3.36 3 -2 3 C-1.67 3.66 -1.34 4.32 -1 5 C-0.67 3.35 -0.34 1.7 0 0 Z " fill="#DCADD0" transform="translate(183,58)"/>
<path d="M0 0 C24.75 0 49.5 0 75 0 C75 0.99 75 1.98 75 3 C50.58 3 26.16 3 1 3 C0.67 2.01 0.34 1.02 0 0 Z " fill="#7DA7D6" transform="translate(315,370)"/>
<path d="M0 0 C14.46481682 -0.02339864 28.9296307 -0.04094678 43.39446259 -0.05181217 C50.1112888 -0.05696035 56.82810323 -0.06397481 63.54492188 -0.07543945 C70.02881495 -0.08631663 76.51269579 -0.09228709 82.99659729 -0.09487724 C85.46847221 -0.09672278 87.94034648 -0.10032662 90.41221619 -0.10573006 C93.87834106 -0.11300454 97.34441558 -0.11398823 100.81054688 -0.11352539 C102.33832764 -0.1189183 102.33832764 -0.1189183 103.89697266 -0.12442017 C109.36045149 -0.11654248 114.59483972 0.1928192 120 1 C120 1.33 120 1.66 120 2 C114.5677661 2.91280013 109.34185803 3.14285889 103.83935547 3.12939453 C102.94903625 3.13114685 102.05871704 3.13289917 101.14141846 3.13470459 C98.21665462 3.13908378 95.29195189 3.1361995 92.3671875 3.1328125 C90.32650745 3.13348655 88.28582748 3.13445742 86.24514771 3.13571167 C81.9767378 3.13718321 77.70834887 3.1350511 73.43994141 3.13037109 C67.97124505 3.1246669 62.5025977 3.12796064 57.03390312 3.13394356 C52.82345206 3.13755765 48.6130126 3.13640679 44.40256119 3.13381577 C42.38594685 3.13314922 40.36933145 3.13396539 38.35271835 3.13629532 C35.53573563 3.13883652 32.71883228 3.13496079 29.90185547 3.12939453 C29.07056122 3.13141876 28.23926697 3.13344299 27.38278198 3.13552856 C23.44548176 3.12112581 19.84862611 2.93803154 16 2 C14.6731234 1.8662147 13.34316848 1.75936731 12.01171875 1.68359375 C11.30595703 1.64169922 10.60019531 1.59980469 9.87304688 1.55664062 C9.15181641 1.51732422 8.43058594 1.47800781 7.6875 1.4375 C6.94693359 1.39431641 6.20636719 1.35113281 5.44335938 1.30664062 C3.62908536 1.20129568 1.8145645 1.10021684 0 1 C0 0.67 0 0.34 0 0 Z " fill="#DCCDDB" transform="translate(240,56)"/>
<path d="M0 0 C25.08 0 50.16 0 76 0 C76 0.33 76 0.66 76 1 C71.60777457 1.16921214 67.21533642 1.32957927 62.82250977 1.48217773 C61.33186412 1.53515628 59.8412985 1.59044367 58.35083008 1.64819336 C50.4827421 1.95152226 42.8164304 2.18964837 35 1 C34.67 1.99 34.34 2.98 34 4 C29.545 4.495 29.545 4.495 25 5 C25 6.65 25 8.3 25 10 C25.99 9.67 26.98 9.34 28 9 C28 9.66 28 10.32 28 11 C28.66 11.33 29.32 11.66 30 12 C29 13 29 13 25.40234375 13.09765625 C23.91403133 13.0909822 22.42573568 13.07902183 20.9375 13.0625 C19.79958008 13.05573242 19.79958008 13.05573242 18.63867188 13.04882812 C16.75908129 13.0370068 14.87953101 13.01907078 13 13 C13.66 11.02 14.32 9.04 15 7 C16.32 7 17.64 7 19 7 C19.33 7.66 19.66 8.32 20 9 C20.99 9 21.98 9 23 9 C22.34 8.67 21.68 8.34 21 8 C20.375 5.9375 20.375 5.9375 20 4 C20.99 4 21.98 4 23 4 C23 3.01 23 2.02 23 1 C15.41 1 7.82 1 0 1 C0 0.67 0 0.34 0 0 Z M30 10 C32 11 32 11 32 11 Z " fill="#DEA5D0" transform="translate(98,58)"/>
<path d="M0 0 C23.43 0 46.86 0 71 0 C71 0.99 71 1.98 71 3 C47.57 3 24.14 3 0 3 C0 2.01 0 1.02 0 0 Z " fill="#DEC7DE" transform="translate(313,68)"/>
<path d="M0 0 C4.40544297 -0.2986741 7.0439982 -0.44873554 11.0625 1.4375 C13.32578702 4.43087961 13.19762991 5.15356628 12.8125 8.75 C12.56720908 10.17131189 12.3042656 11.59013562 12 13 C11.34 13 10.68 13 10 13 C10 13.99 10 14.98 10 16 C8.54052295 15.93993922 7.08220728 15.8511311 5.625 15.75 C4.40683594 15.68039062 4.40683594 15.68039062 3.1640625 15.609375 C1 15 1 15 -0.1640625 13.015625 C-0.57785156 12.01789063 -0.57785156 12.01789063 -1 11 C-1.66 10.67 -2.32 10.34 -3 10 C-2.67 8.68 -2.34 7.36 -2 6 C-1.34 6 -0.68 6 0 6 C1.01111093 2.95086772 1.01111093 2.95086772 0 0 Z " fill="#2C4DB6" transform="translate(129,371)"/>
<path d="M0 0 C1.04440498 -0.00021904 1.04440498 -0.00021904 2.10990906 -0.0004425 C4.41192744 0.00025417 6.71386488 0.0080379 9.01586914 0.01586914 C10.61625626 0.01773498 12.21664396 0.0191581 13.81703186 0.02015686 C18.03231379 0.0239755 22.24756128 0.0337961 26.46282959 0.04486084 C30.74678078 0.05506433 35.03073744 0.05965875 39.31469727 0.06469727 C46.84957656 0.07427245 54.38443263 0.08877553 61.91929626 0.10679626 C64.31736837 0.11184817 66.71544797 0.11352539 69.11352539 0.11352539 C93.11352539 0.11352539 117.11352539 0.11352539 141.11352539 0.11352539 C141.11352539 0.44352539 141.11352539 0.77352539 141.11352539 1.11352539 C140.23513504 1.12383286 139.35674469 1.13414032 138.45173645 1.14476013 C130.16803989 1.24279501 121.88441359 1.34531796 113.60083485 1.45286465 C109.34231405 1.50799568 105.08378628 1.56139974 100.82519531 1.61083984 C96.71434895 1.65862854 92.60358346 1.71097614 88.49283409 1.76646614 C86.92560532 1.7868241 85.35835443 1.80554778 83.7910862 1.82259941 C81.59355314 1.84678919 79.396171 1.87682297 77.19873047 1.90820312 C75.94852615 1.92374741 74.69832184 1.93929169 73.41023254 1.95530701 C70.18340955 2.02357757 70.18340955 2.02357757 67.35820007 2.68885803 C65.11352539 3.11352539 65.11352539 3.11352539 62.11352539 2.11352539 C59.8595438 2.02372074 57.60293424 1.99595015 55.34716797 2 C54.66397995 1.99985397 53.98079193 1.99970795 53.27690125 1.9995575 C51.02058732 2.0002537 48.76435613 2.00803243 46.50805664 2.01586914 C44.9429275 2.01773436 43.37779778 2.01915777 41.81266785 2.02015686 C37.69449246 2.02397387 33.57635237 2.03379721 29.45819092 2.04486084 C25.25541664 2.05509248 21.05263666 2.05965824 16.84985352 2.06469727 C8.60439461 2.0754202 0.35896439 2.09248685 -7.88647461 2.11352539 C-7.88647461 3.10352539 -7.88647461 4.09352539 -7.88647461 5.11352539 C-8.50522461 5.23727539 -9.12397461 5.36102539 -9.76147461 5.48852539 C-12.07768293 5.98549895 -12.07768293 5.98549895 -13.88647461 8.11352539 C-13.32407951 4.85163383 -12.47242411 3.20217691 -9.88647461 1.11352539 C-6.39747977 -0.04947289 -3.68207678 -0.00648748 0 0 Z " fill="#0836B5" transform="translate(66.886474609375,354.886474609375)"/>
<path d="M0 0 C0.74056641 0.00451172 1.48113281 0.00902344 2.24414062 0.01367188 C4.05862899 0.02537825 5.87307534 0.04331102 7.6875 0.0625 C7.3575 1.3825 7.0275 2.7025 6.6875 4.0625 C-1.0625 5.1875 -1.0625 5.1875 -3.3125 4.0625 C-3.3125 3.4025 -3.3125 2.7425 -3.3125 2.0625 C-4.6325 2.0625 -5.9525 2.0625 -7.3125 2.0625 C-6.9825 3.7125 -6.6525 5.3625 -6.3125 7.0625 C-5.62542969 7.09988281 -4.93835938 7.13726562 -4.23046875 7.17578125 C-3.32941406 7.24152344 -2.42835938 7.30726563 -1.5 7.375 C-0.16001953 7.46201172 -0.16001953 7.46201172 1.20703125 7.55078125 C3.99354 8.12563581 4.92885754 8.8831856 6.6875 11.0625 C4.81115741 12.93884259 2.146675 12.19496191 -0.34570312 12.19921875 C-1.53583008 12.19341797 -1.53583008 12.19341797 -2.75 12.1875 C-3.53955078 12.19136719 -4.32910156 12.19523437 -5.14257812 12.19921875 C-11.05923867 12.18913067 -11.05923867 12.18913067 -13.3125 11.0625 C-13.3125 7.7625 -13.3125 4.4625 -13.3125 1.0625 C-8.8746439 -0.04915232 -4.54293614 -0.05277763 0 0 Z " fill="#F7F7F7" transform="translate(292.3125,384.9375)"/>
<path d="M0 0 C0.99 0.33 1.98 0.66 3 1 C3 2.32 3 3.64 3 5 C-6.39711884 5.0232116 -15.79422776 5.04095997 -25.19136906 5.05181217 C-29.5552427 5.05702173 -33.91909666 5.06408429 -38.28295898 5.07543945 C-42.49749888 5.08633694 -46.7120199 5.09229135 -50.9265728 5.09487724 C-52.5312473 5.09671915 -54.13592081 5.10031587 -55.74058723 5.10573006 C-57.99513067 5.11303163 -60.24959696 5.11398712 -62.50415039 5.11352539 C-63.78544327 5.115746 -65.06673615 5.11796661 -66.38685608 5.12025452 C-70.02252041 4.99925046 -73.4152352 4.58286057 -77 4 C-77 3.67 -77 3.34 -77 3 C-51.92 3 -26.84 3 -1 3 C-0.67 2.01 -0.34 1.02 0 0 Z " fill="#D5E7F3" transform="translate(133,400)"/>
<path d="M0 0 C1.98 0 3.96 0 6 0 C5.67 0.99 5.34 1.98 5 3 C6.32 3 7.64 3 9 3 C9.33 3.99 9.66 4.98 10 6 C10.66 6.33 11.32 6.66 12 7 C12 7.66 12 8.32 12 9 C11.34 9.66 10.68 10.32 10 11 C10.66 11 11.32 11 12 11 C12 11.66 12 12.32 12 13 C6.72 13 1.44 13 -4 13 C-4.33 12.01 -4.66 11.02 -5 10 C-4.34 9.67 -3.68 9.34 -3 9 C-3 8.01 -3 7.02 -3 6 C-3.66 6 -4.32 6 -5 6 C-5.33 6.66 -5.66 7.32 -6 8 C-6 6.35 -6 4.7 -6 3 C-5.67 3.66 -5.34 4.32 -5 5 C-4.34 5 -3.68 5 -3 5 C-3 4.34 -3 3.68 -3 3 C-1.35 3.33 0.3 3.66 2 4 C2 3.34 2 2.68 2 2 C1.34 1.34 0.68 0.68 0 0 Z " fill="#DFB5D8" transform="translate(223,58)"/>
<path d="M0 0 C2.97 0 5.94 0 9 0 C8.67 1.65 8.34 3.3 8 5 C8.66 5.33 9.32 5.66 10 6 C7.35261084 7.4606285 6.10551666 8 3 8 C3.66 10.31 4.32 12.62 5 15 C7.97 15.495 7.97 15.495 11 16 C11 16.66 11 17.32 11 18 C10.01 18.33 9.02 18.66 8 19 C8 19.66 8 20.32 8 21 C5.36 21 2.72 21 0 21 C0 14.07 0 7.14 0 0 Z " fill="#F2F5F0" transform="translate(0,72)"/>
<path d="M0 0 C1.65 0 3.3 0 5 0 C5.62457273 3.43515002 6 6.49064814 6 10 C6.66 10.33 7.32 10.66 8 11 C7.67 8.03 7.34 5.06 7 2 C8.65 2.33 10.3 2.66 12 3 C12.66 5.31 13.32 7.62 14 10 C17.3 10.33 20.6 10.66 24 11 C24 11.33 24 11.66 24 12 C15.42 12 6.84 12 -2 12 C-1.67 10.35 -1.34 8.7 -1 7 C-0.65596692 4.66822025 -0.32050798 2.33512959 0 0 Z " fill="#E194C9" transform="translate(2,59)"/>
<path d="M0 0 C36.63 0 73.26 0 111 0 C111 0.33 111 0.66 111 1 C94.29157175 2.14806378 94.29157175 2.14806378 86 2 C85.67 2.99 85.34 3.98 85 5 C84.01 4.67 83.02 4.34 82 4 C82.33 3.34 82.66 2.68 83 2 C41.915 1.505 41.915 1.505 0 1 C0 0.67 0 0.34 0 0 Z " fill="#DCBFD5" transform="translate(145,57)"/>
<path d="M0 0 C2.0625 0.4375 2.0625 0.4375 4 1 C4 1.66 4 2.32 4 3 C4.69867188 2.97679687 5.39734375 2.95359375 6.1171875 2.9296875 C7.02726562 2.91164063 7.93734375 2.89359375 8.875 2.875 C10.23238281 2.84019531 10.23238281 2.84019531 11.6171875 2.8046875 C14 3 14 3 16 5 C15.67 4.67 15.34 4.34 15 4 C15 3.34 15 2.68 15 2 C20.41538462 1.63076923 20.41538462 1.63076923 23.375 3.5 C23.91125 3.995 24.4475 4.49 25 5 C24.67 5.99 24.34 6.98 24 8 C22.67696283 8.3721042 21.34262065 8.70630173 20 9 C19.67 9.66 19.34 10.32 19 11 C17.02 11 15.04 11 13 11 C13 10.34 13 9.68 13 9 C11.39658445 8.66307215 9.79223445 8.33058907 8.1875 8 C7.29417969 7.814375 6.40085937 7.62875 5.48046875 7.4375 C2.92739307 6.91315157 2.92739307 6.91315157 0 7 C-0.38133299 5.0085944 -0.71325582 3.00720923 -1 1 C-0.67 0.67 -0.34 0.34 0 0 Z " fill="#D5D5D5" transform="translate(285,386)"/>
<path d="M0 0 C0.99 0.33 1.98 0.66 3 1 C2.96519531 1.88042969 2.93039063 2.76085937 2.89453125 3.66796875 C2.86746094 4.82941406 2.84039062 5.99085938 2.8125 7.1875 C2.77769531 8.33605469 2.74289063 9.48460937 2.70703125 10.66796875 C3.03100061 14.35258031 3.71977306 16.11512861 6 19 C9.56352377 21.38866331 12.85161022 21.27466724 17.06347656 21.31884766 C17.76631775 21.32889328 18.46915894 21.3389389 19.19329834 21.34928894 C21.50906582 21.38010119 23.82471779 21.39715036 26.140625 21.4140625 C27.74917595 21.43277575 29.3577171 21.45234929 30.96624756 21.4727478 C35.1944806 21.52405851 39.42274546 21.56368985 43.65112305 21.60089111 C47.96801621 21.64093744 52.28477711 21.69202691 56.6015625 21.7421875 C65.06761796 21.83893422 73.53373892 21.92334294 82 22 C82 22.33 82 22.66 82 23 C56.26 23 30.52 23 4 23 C4 23.66 4 24.32 4 25 C2.68 24.67 1.36 24.34 0 24 C0.99 24 1.98 24 3 24 C3 23.01 3 22.02 3 21 C2.01 20.67 1.02 20.34 0 20 C0 13.4 0 6.8 0 0 Z " fill="#6E91D2" transform="translate(50,380)"/>
<path d="M0 0 C3.63 0 7.26 0 11 0 C9.60804085 2.7839183 7.84424221 2.97898997 5 4 C5.33 5.32 5.66 6.64 6 8 C8.31 8.33 10.62 8.66 13 9 C13 6.36 13 3.72 13 1 C13.99 0.67 14.98 0.34 16 0 C16.02687279 1.81242052 16.04633715 3.62495233 16.0625 5.4375 C16.07410156 6.44683594 16.08570313 7.45617187 16.09765625 8.49609375 C16 11 16 11 15 12 C13.58429877 12.08651611 12.164405 12.10704904 10.74609375 12.09765625 C9.89208984 12.09443359 9.03808594 12.09121094 8.15820312 12.08789062 C7.26037109 12.07951172 6.36253906 12.07113281 5.4375 12.0625 C4.53580078 12.05798828 3.63410156 12.05347656 2.70507812 12.04882812 C0.46998686 12.03700225 -1.76497437 12.0205222 -4 12 C-2.68 11.67 -1.36 11.34 0 11 C0 7.37 0 3.74 0 0 Z " fill="#F5F9F8" transform="translate(366,469)"/>
<path d="M0 0 C26.07 0.33 52.14 0.66 79 1 C79 1.33 79 1.66 79 2 C77.66362236 2.00879936 77.66362236 2.00879936 76.30024719 2.01777649 C67.89870955 2.07571213 59.49743751 2.1477939 51.09615803 2.23571491 C46.77709638 2.28041711 42.45812903 2.31967348 38.13891602 2.34643555 C33.96957836 2.37247016 29.80060359 2.41287344 25.63149071 2.46318626 C24.04195868 2.47985396 22.45236388 2.49136886 20.86275673 2.49761391 C18.63378606 2.50725634 16.40574352 2.53531548 14.17700195 2.56762695 C12.90903275 2.57873001 11.64106354 2.58983307 10.33467102 2.60127258 C6.76016425 3.02867722 4.86918064 3.87281168 2 6 C-0.60718219 9.46583501 -0.20291938 13.04235344 -0.125 17.25 C-0.10695312 18.51328125 -0.08890625 19.7765625 -0.0703125 21.078125 C-0.04710937 22.04234375 -0.02390625 23.0065625 0 24 C-0.99 23.67 -1.98 23.34 -3 23 C-3 16.4 -3 9.8 -3 3 C-2.01 3 -1.02 3 0 3 C0 2.01 0 1.02 0 0 Z " fill="#5D7ED7" transform="translate(53,353)"/>
<path d="M0 0 C1.1859375 0.00257813 2.371875 0.00515625 3.59375 0.0078125 C4.7796875 0.00523437 5.965625 0.00265625 7.1875 0 C10.09375 0.1328125 10.09375 0.1328125 11.09375 1.1328125 C11.21875 4.1328125 11.21875 4.1328125 11.09375 7.1328125 C10.09375 8.1328125 10.09375 8.1328125 6.93359375 8.23046875 C5.00193359 8.21306641 5.00193359 8.21306641 3.03125 8.1953125 C1.74089844 8.18628906 0.45054687 8.17726563 -0.87890625 8.16796875 C-1.87792969 8.15636719 -2.87695312 8.14476562 -3.90625 8.1328125 C-3.94866723 5.79986475 -3.94717937 3.46578683 -3.90625 1.1328125 C-2.90625 0.1328125 -2.90625 0.1328125 0 0 Z " fill="#ECECEC" transform="translate(295.90625,428.8671875)"/>
<path d="M0 0 C0.33 0 0.66 0 1 0 C1.10854617 2.39706123 1.18753157 4.78915838 1.25 7.1875 C1.28351563 7.86103516 1.31703125 8.53457031 1.3515625 9.22851562 C1.4210224 12.78833544 1.11681007 14.81057128 -0.765625 17.86328125 C-5.01490319 21.92683924 -8.15530681 22.24953993 -14 22.24291992 C-14.69641602 22.24481827 -15.39283203 22.24671661 -16.11035156 22.24867249 C-18.40701643 22.25237006 -20.70336335 22.2416902 -23 22.23046875 C-24.59895796 22.22927618 -26.19791662 22.22882395 -27.796875 22.2290802 C-31.14587803 22.22751706 -34.49477392 22.21924062 -37.84375 22.20581055 C-42.13446944 22.18882102 -46.42507118 22.18499635 -50.71582031 22.18575573 C-54.01693849 22.18548367 -57.31803099 22.17999663 -60.61914062 22.17275429 C-62.2011699 22.1695744 -63.78320208 22.1676018 -65.36523438 22.16686058 C-67.57687321 22.1646898 -69.7883879 22.15592963 -72 22.14526367 C-73.258125 22.14145187 -74.51625 22.13764008 -75.8125 22.13371277 C-78.41588436 22.02450313 -80.53138129 21.77561396 -83 21 C-83 20.34 -83 19.68 -83 19 C-81.97356384 19.24349686 -81.97356384 19.24349686 -80.9263916 19.49191284 C-77.62361142 20.06534949 -74.53066685 20.1271708 -71.17773438 20.12939453 C-70.17919182 20.13202301 -70.17919182 20.13202301 -69.16047668 20.13470459 C-66.97154086 20.13908684 -64.78268658 20.13619793 -62.59375 20.1328125 C-61.06587712 20.13348658 -59.53800435 20.13445748 -58.01013184 20.13571167 C-54.81257096 20.13718373 -51.61503808 20.13504989 -48.41748047 20.13037109 C-44.32531252 20.1246741 -40.23321016 20.12795574 -36.14104462 20.13394356 C-32.9874421 20.13756244 -29.83385506 20.13640448 -26.68025208 20.13381577 C-25.17161552 20.13315017 -23.66297755 20.13396205 -22.15434265 20.13629532 C-20.04361262 20.13884362 -17.93298785 20.13495062 -15.82226562 20.12939453 C-14.62267212 20.12859894 -13.42307861 20.12780334 -12.18713379 20.12698364 C-9.33228085 20.01323893 -6.77357825 19.65796356 -4 19 C-3.505 17.515 -3.505 17.515 -3 16 C-2.34 15.01 -1.68 14.02 -1 13 C-0.5396236 9.80193335 -0.5396236 9.80193335 -0.375 6.3125 C-0.30023438 5.13300781 -0.22546875 3.95351563 -0.1484375 2.73828125 C-0.07496094 1.38283203 -0.07496094 1.38283203 0 0 Z " fill="#0D39B7" transform="translate(215,380)"/>
<path d="M0 0 C31.35 0 62.7 0 95 0 C93.68 0.99 92.36 1.98 91 3 C88.98649216 2.69738865 88.98649216 2.69738865 87 2 C84.17924316 1.88205328 81.38109242 1.81499871 78.55957031 1.79467773 C77.71042557 1.78477814 76.86128082 1.77487854 75.98640442 1.76467896 C73.18367284 1.73312753 70.38092432 1.70833165 67.578125 1.68359375 C65.63327599 1.66301874 63.6884314 1.64202212 61.74359131 1.62062073 C56.62757955 1.56545662 51.51152781 1.51602237 46.39544678 1.46777344 C41.17375129 1.41751709 35.95211378 1.3618526 30.73046875 1.30664062 C20.48702871 1.19912829 10.2435383 1.09766793 0 1 C0 0.67 0 0.34 0 0 Z " fill="#FEF2FD" transform="translate(61,72)"/>
<path d="M0 0 C0.598125 0.165 1.19625 0.33 1.8125 0.5 C4.98442461 1.22501134 6.90083506 1.03305498 10 0 C12 6.875 12 6.875 12 8 C16.29 8.33 20.58 8.66 25 9 C25 9.33 25 9.66 25 10 C16.42 10 7.84 10 -1 10 C0.32 9.34 1.64 8.68 3 8 C3 7.01 3 6.02 3 5 C2.01 4.67 1.02 4.34 0 4 C0 2.68 0 1.36 0 0 Z " fill="#EBEBEB" transform="translate(288,200)"/>
<path d="M0 0 C0.94875 0.04125 1.8975 0.0825 2.875 0.125 C2.875 1.115 2.875 2.105 2.875 3.125 C4.525 3.125 6.175 3.125 7.875 3.125 C7.545 4.775 7.215 6.425 6.875 8.125 C4.235 8.125 1.595 8.125 -1.125 8.125 C-1.455 8.785 -1.785 9.445 -2.125 10.125 C-3.115 10.125 -4.105 10.125 -5.125 10.125 C-5.3203125 4.0703125 -5.3203125 4.0703125 -5.125 2.125 C-3.125 0.125 -3.125 0.125 0 0 Z " fill="#E6F8FA" transform="translate(316.125,491.875)"/>
<path d="M0 0 C1.19109375 -0.00386719 1.19109375 -0.00386719 2.40625 -0.0078125 C4.5 0.125 4.5 0.125 6.5 1.125 C6.17 1.785 5.84 2.445 5.5 3.125 C4.18 3.125 2.86 3.125 1.5 3.125 C1.5 4.115 1.5 5.105 1.5 6.125 C3.15 6.125 4.8 6.125 6.5 6.125 C6.5 6.785 6.5 7.445 6.5 8.125 C4.03183586 9.35908207 2.25338799 9.32697579 -0.5 9.375 C-1.386875 9.40078125 -2.27375 9.4265625 -3.1875 9.453125 C-3.950625 9.34484375 -4.71375 9.2365625 -5.5 9.125 C-7.5 6.125 -7.5 6.125 -7.25 3.5 C-7.0025 2.71625 -6.755 1.9325 -6.5 1.125 C-4.13386544 -0.05806728 -2.63219264 -0.00854608 0 0 Z " fill="#929292" transform="translate(387.5,302.875)"/>
<path d="M0 0 C1.0326802 2.78823655 1.04509293 3.8677274 0.0625 6.75 C-0.288125 7.4925 -0.63875 8.235 -1 9 C-4.375 9.1875 -4.375 9.1875 -8 9 C-10.1519437 5.77208445 -10.20086443 4.71599191 -10 1 C-6.42181037 -1.33958553 -4.07775191 -0.9267618 0 0 Z " fill="#D8F8D9" transform="translate(13,79)"/>
<path d="M0 0 C2.64 0 5.28 0 8 0 C8 0.33 8 0.66 8 1 C6.02 1.33 4.04 1.66 2 2 C2.33 3.98 2.66 5.96 3 8 C-3.435 8.495 -3.435 8.495 -10 9 C-10.33 7.35 -10.66 5.7 -11 4 C-7.38026598 2.68373308 -4.90432869 2 -1 2 C-0.67 1.34 -0.34 0.68 0 0 Z " fill="#A16E96" transform="translate(133,59)"/>
<path d="M0 0 C1.98 0 3.96 0 6 0 C6 2.64 6 5.28 6 8 C2.79984144 9.06671952 1.11455706 8.94845472 -2.1875 8.5625 C-3.08855469 8.46066406 -3.98960938 8.35882813 -4.91796875 8.25390625 C-5.60503906 8.17011719 -6.29210938 8.08632812 -7 8 C-7 6.02 -7 4.04 -7 2 C-6.01 2.33 -5.02 2.66 -4 3 C-3.34 3 -2.68 3 -2 3 C-1.34 3 -0.68 3 0 3 C0 2.01 0 1.02 0 0 Z " fill="#D596C7" transform="translate(58,59)"/>
<path d="M0 0 C-0.33 2.97 -0.66 5.94 -1 9 C-1.66 8.67 -2.32 8.34 -3 8 C-4.37342831 7.9310528 -5.75002102 7.91532292 -7.125 7.9375 C-9.043125 7.9684375 -9.043125 7.9684375 -11 8 C-11.33 6.35 -11.66 4.7 -12 3 C-7.77050005 0.58314288 -4.87664009 -0.34833144 0 0 Z " fill="#B879AA" transform="translate(88,59)"/>
<path d="M0 0 C0 2.97 0 5.94 0 9 C-0.99 9 -1.98 9 -3 9 C-3 8.01 -3 7.02 -3 6 C-4.65 6 -6.3 6 -8 6 C-8 5.01 -8 4.02 -8 3 C-10.64 3.66 -13.28 4.32 -16 5 C-15.67 3.68 -15.34 2.36 -15 1 C-12.68753088 0.83290546 -10.37502385 0.66633538 -8.0625 0.5 C-6.77472656 0.4071875 -5.48695313 0.314375 -4.16015625 0.21875 C-1 0 -1 0 0 0 Z " fill="#F5F8F9" transform="translate(327,489)"/>
<path d="M0 0 C2.31 0 4.62 0 7 0 C7 0.66 7 1.32 7 2 C8.32 2 9.64 2 11 2 C10.67 3.32 10.34 4.64 10 6 C8.906875 6.103125 7.81375 6.20625 6.6875 6.3125 C3.14440371 6.97307727 2.06756277 7.2027092 0 10 C0 8.68 0 7.36 0 6 C-0.66 6 -1.32 6 -2 6 C-1.34 4.02 -0.68 2.04 0 0 Z " fill="#C37BAF" transform="translate(27,61)"/>
<path d="M0 0 C4.34464536 0.60825035 8.67551867 1.26167392 13 2 C12.625 3.9375 12.625 3.9375 12 6 C9.29120665 7.35439668 6.99066732 7.06501451 4 7 C4 6.34 4 5.68 4 5 C2.02 5.33 0.04 5.66 -2 6 C-2.33 4.35 -2.66 2.7 -3 1 C-2.01 1.495 -2.01 1.495 -1 2 C-0.67 1.34 -0.34 0.68 0 0 Z " fill="#AE81A5" transform="translate(152,61)"/>
<path d="M0 0 C3.63 0 7.26 0 11 0 C11 2.66666667 11 5.33333333 11 8 C4.25 7.125 4.25 7.125 2 6 C1.67 6.66 1.34 7.32 1 8 C0.67 5.36 0.34 2.72 0 0 Z " fill="#B478A7" transform="translate(110,59)"/>
<path d="M0 0 C1.65 0 3.3 0 5 0 C5.33 0.99 5.66 1.98 6 3 C6.99 3.33 7.98 3.66 9 4 C9 5.65 9 7.3 9 9 C6.69 9 4.38 9 2 9 C2 8.34 2 7.68 2 7 C1.34 7 0.68 7 0 7 C0 4.69 0 2.38 0 0 Z " fill="#DDDDDD" transform="translate(344,131)"/>
<path d="M0 0 C0.66 0.33 1.32 0.66 2 1 C1.67 7.27 1.34 13.54 1 20 C1.99 20.33 2.98 20.66 4 21 C3.67 22.32 3.34 23.64 3 25 C1.68 25 0.36 25 -1 25 C-1.33 24.01 -1.66 23.02 -2 22 C-3.65 22 -5.3 22 -7 22 C-6.030625 21.154375 -5.06125 20.30875 -4.0625 19.4375 C0.67667126 14.06272224 -0.01747218 6.7879434 0 0 Z " fill="#93B5D2" transform="translate(216,380)"/>
<path d="M0 0 C1.2065625 0.0309375 1.2065625 0.0309375 2.4375 0.0625 C2.4375 1.0525 2.4375 2.0425 2.4375 3.0625 C3.4275 3.0625 4.4175 3.0625 5.4375 3.0625 C5.4375 5.0425 5.4375 7.0225 5.4375 9.0625 C3.4575 9.0625 1.4775 9.0625 -0.5625 9.0625 C-0.5625 8.4025 -0.5625 7.7425 -0.5625 7.0625 C-1.5525 7.0625 -2.5425 7.0625 -3.5625 7.0625 C-3.60504356 5.06295254 -3.60330783 3.06208364 -3.5625 1.0625 C-2.5625 0.0625 -2.5625 0.0625 0 0 Z " fill="#D8D8D8" transform="translate(390.5625,130.9375)"/>
<path d="M0 0 C2.64 0 5.28 0 8 0 C8 2.64 8 5.28 8 8 C5.36 8 2.72 8 0 8 C0 5.36 0 2.72 0 0 Z " fill="#BCBCBC" transform="translate(355,239)"/>
<path d="M0 0 C2.64 0 5.28 0 8 0 C8 2.64 8 5.28 8 8 C5.36 8 2.72 8 0 8 C0 5.36 0 2.72 0 0 Z " fill="#AAAAAA" transform="translate(282,132)"/>
<path d="M0 0 C0.99 0.33 1.98 0.66 3 1 C2.96519531 1.88042969 2.93039063 2.76085937 2.89453125 3.66796875 C2.86746094 4.82941406 2.84039062 5.99085938 2.8125 7.1875 C2.77769531 8.33605469 2.74289063 9.48460937 2.70703125 10.66796875 C3.02852379 14.32441054 3.79973093 16.09917357 6 19 C8.58443323 20.73490246 8.58443323 20.73490246 11 22 C11 22.33 11 22.66 11 23 C8.69 23 6.38 23 4 23 C4 23.66 4 24.32 4 25 C2.68 24.67 1.36 24.34 0 24 C0.99 24 1.98 24 3 24 C3 23.01 3 22.02 3 21 C2.01 20.67 1.02 20.34 0 20 C0 13.4 0 6.8 0 0 Z " fill="#849CBD" transform="translate(50,380)"/>
<path d="M0 0 C2.31 0 4.62 0 7 0 C7 0.66 7 1.32 7 2 C7.66 2 8.32 2 9 2 C9 3.98 9 5.96 9 8 C7.02 8 5.04 8 3 8 C3 7.34 3 6.68 3 6 C2.01 5.67 1.02 5.34 0 5 C0 3.35 0 1.7 0 0 Z " fill="#DDDDDD" transform="translate(358,132)"/>
<path d="M0 0 C3 0.125 3 0.125 4 1.125 C4.125 4.125 4.125 4.125 4 7.125 C3 8.125 3 8.125 0 8.25 C-3 8.125 -3 8.125 -4 7.125 C-4.125 4.125 -4.125 4.125 -4 1.125 C-3 0.125 -3 0.125 0 0 Z " fill="#BFBFBF" transform="translate(282,520.875)"/>
<path d="M0 0 C3 0.125 3 0.125 4 1.125 C4.125 4.125 4.125 4.125 4 7.125 C3 8.125 3 8.125 0 8.25 C-3 8.125 -3 8.125 -4 7.125 C-4.125 4.125 -4.125 4.125 -4 1.125 C-3 0.125 -3 0.125 0 0 Z " fill="#C3C3C3" transform="translate(282,366.875)"/>
<path d="M0 0 C3.63 0.33 7.26 0.66 11 1 C9.02 1.99 9.02 1.99 7 3 C3.32836931 4.92323512 1.43237227 6.0805086 0 10 C-0.24172707 13.50869414 -0.24172707 13.50869414 -0.125 17.25 C-0.10695312 18.51328125 -0.08890625 19.7765625 -0.0703125 21.078125 C-0.04710937 22.04234375 -0.02390625 23.0065625 0 24 C-0.99 23.67 -1.98 23.34 -3 23 C-3 16.4 -3 9.8 -3 3 C-2.01 3 -1.02 3 0 3 C0 2.01 0 1.02 0 0 Z " fill="#7B99C1" transform="translate(53,353)"/>
<path d="M0 0 C3 0.125 3 0.125 4 1.125 C4.04080783 3.12458364 4.04254356 5.12545254 4 7.125 C1.6739143 7.50563221 -0.66055264 7.83769945 -3 8.125 C-4 7.125 -4 7.125 -4.125 4.125 C-3.96 0.165 -3.96 0.165 0 0 Z " fill="#BEBEBE" transform="translate(282,256.875)"/>
<path d="M0 0 C3.625 0.375 3.625 0.375 7 1 C7.1875 3.375 7.1875 3.375 7 6 C4 8 4 8 1.3125 7.625 C0.549375 7.41875 -0.21375 7.2125 -1 7 C-1.625 4.625 -1.625 4.625 -2 2 C-1.34 1.34 -0.68 0.68 0 0 Z " fill="#C4C4C4" transform="translate(389,181)"/>
<path d="M0 0 C1.1859375 0.00257813 2.371875 0.00515625 3.59375 0.0078125 C4.7796875 0.00523437 5.965625 0.00265625 7.1875 0 C10.09375 0.1328125 10.09375 0.1328125 11.09375 1.1328125 C11.21875 4.1328125 11.21875 4.1328125 11.09375 7.1328125 C10.09375 8.1328125 10.09375 8.1328125 6.93359375 8.23046875 C5.00193359 8.21306641 5.00193359 8.21306641 3.03125 8.1953125 C1.74089844 8.18628906 0.45054687 8.17726563 -0.87890625 8.16796875 C-1.87792969 8.15636719 -2.87695312 8.14476562 -3.90625 8.1328125 C-3.94866723 5.79986475 -3.94717937 3.46578683 -3.90625 1.1328125 C-2.90625 0.1328125 -2.90625 0.1328125 0 0 Z M-2.90625 2.1328125 C-2.57625 3.7828125 -2.24625 5.4328125 -1.90625 7.1328125 C1.72375 7.1328125 5.35375 7.1328125 9.09375 7.1328125 C9.09375 5.4828125 9.09375 3.8328125 9.09375 2.1328125 C5.13375 2.1328125 1.17375 2.1328125 -2.90625 2.1328125 Z " fill="#E2E2E2" transform="translate(295.90625,428.8671875)"/>
<path d="M0 0 C2.0625 0.4375 2.0625 0.4375 4 1 C4 1.66 4 2.32 4 3 C6.97 3.33 9.94 3.66 13 4 C13 4.99 13 5.98 13 7 C8.71 7 4.42 7 0 7 C-0.33 5.02 -0.66 3.04 -1 1 C-0.67 0.67 -0.34 0.34 0 0 Z " fill="#C7C7C7" transform="translate(285,386)"/>
<path d="M0 0 C0.99 0.33 1.98 0.66 3 1 C2.01 1 1.02 1 0 1 C0 0.67 0 0.34 0 0 Z M-1 2 C1.0625 2.4375 1.0625 2.4375 3 3 C3 3.99 3 4.98 3 6 C3.66 6 4.32 6 5 6 C5.33 7.65 5.66 9.3 6 11 C3.36 11 0.72 11 -2 11 C-2.09765625 4.84765625 -2.09765625 4.84765625 -2 3 C-1.67 2.67 -1.34 2.34 -1 2 Z " fill="#DEDEDE" transform="translate(334,468)"/>
<path d="M0 0 C2.4375 1.0625 2.4375 1.0625 4 2 C3.67 2.99 3.34 3.98 3 5 C2.443125 4.773125 1.88625 4.54625 1.3125 4.3125 C-1.92009266 3.87566315 -3.34113475 5.25074655 -6 7 C-6.66 7 -7.32 7 -8 7 C-8.68707555 4.50935112 -9 2.62113708 -9 0 C-5.88094953 -1.55952523 -3.35318513 -0.6359489 0 0 Z " fill="#AA809F" transform="translate(200,62)"/>
<path d="M0 0 C1.32 0 2.64 0 4 0 C4 1.32 4 2.64 4 4 C5.65 4 7.3 4 9 4 C8.67 5.32 8.34 6.64 8 8 C5.36 8 2.72 8 0 8 C0 5.36 0 2.72 0 0 Z " fill="#E2E2E2" transform="translate(314,471)"/>
<path d="M0 0 C4.62 0 9.24 0 14 0 C14 0.33 14 0.66 14 1 C10.04 1 6.08 1 2 1 C2 2.32 2 3.64 2 5 C2.99 5 3.98 5 5 5 C5 4.34 5 3.68 5 3 C6.65 3 8.3 3 10 3 C9.01 3.66 8.02 4.32 7 5 C9.31 5.33 11.62 5.66 14 6 C14 6.33 14 6.66 14 7 C9.38 7 4.76 7 0 7 C0 4.69 0 2.38 0 0 Z " fill="#DEDEDE" transform="translate(292,409)"/>
<path d="M0 0 C2.97 0 5.94 0 9 0 C8.01 0.33 7.02 0.66 6 1 C6 2.65 6 4.3 6 6 C5.0409375 6.37125 5.0409375 6.37125 4.0625 6.75 C1.81258459 7.81562433 1.81258459 7.81562433 1.25 10.125 C1.1675 10.74375 1.085 11.3625 1 12 C0.67 12 0.34 12 0 12 C0 8.04 0 4.08 0 0 Z " fill="#F9F1F8" transform="translate(0,72)"/>
<path d="M0 0 C2.31 0 4.62 0 7 0 C7.04254356 1.99954746 7.04080783 4.00041636 7 6 C6 7 6 7 2.9375 7.0625 C1.4834375 7.0315625 1.4834375 7.0315625 0 7 C0 4.69 0 2.38 0 0 Z " fill="#757575" transform="translate(279,430)"/>
<path d="M0 0 C2.94956528 1.36944102 5.52468811 2.87830409 8 5 C8 5.66 8 6.32 8 7 C7.4225 6.835 6.845 6.67 6.25 6.5 C3.73335631 5.85537969 3.73335631 5.85537969 0 6 C-0.33 5.34 -0.66 4.68 -1 4 C-1.99 5.485 -1.99 5.485 -3 7 C-3.99 7 -4.98 7 -6 7 C-6 6.34 -6 5.68 -6 5 C-5.34 5 -4.68 5 -4 5 C-3.67 4.01 -3.34 3.02 -3 2 C-2.01 1.34 -1.02 0.68 0 0 Z " fill="#C6E0F6" transform="translate(133,372)"/>
<path d="M0 0 C1.32 1.32 2.64 2.64 4 4 C3.01 4.495 3.01 4.495 2 5 C2 5.66 2 6.32 2 7 C-3.625 8.125 -3.625 8.125 -7 7 C-7 6.01 -7 5.02 -7 4 C-6.01 4 -5.02 4 -4 4 C-4 3.34 -4 2.68 -4 2 C-2.68 1.34 -1.36 0.68 0 0 Z " fill="#C8C8C8" transform="translate(365,256)"/>
<path d="M0 0 C0.66 0.66 1.32 1.32 2 2 C2.99 2 3.98 2 5 2 C5.33 1.34 5.66 0.68 6 0 C6 0.66 6 1.32 6 2 C6.66 2 7.32 2 8 2 C8 3.98 8 5.96 8 8 C6.02 8 4.04 8 2 8 C2 7.34 2 6.68 2 6 C1.34 6 0.68 6 0 6 C0 4.02 0 2.04 0 0 Z " fill="#D8D8D8" transform="translate(373,132)"/>
<path d="M0 0 C0 2.97 0 5.94 0 9 C-0.33 8.34 -0.66 7.68 -1 7 C-3.31 7 -5.62 7 -8 7 C-8 6.01 -8 5.02 -8 4 C-7.34 4 -6.68 4 -6 4 C-6 3.01 -6 2.02 -6 1 C-1.125 0 -1.125 0 0 0 Z " fill="#939393" transform="translate(381,104)"/>
<path d="M0 0 C1.65 0 3.3 0 5 0 C5 2.97 5 5.94 5 9 C3.35 9 1.7 9 0 9 C0 6.03 0 3.06 0 0 Z " fill="#B0B0B1" transform="translate(324,78)"/>
<path d="M0 0 C0.66 0 1.32 0 2 0 C2 0.99 2 1.98 2 3 C9.59 3.33 17.18 3.66 25 4 C25 4.33 25 4.66 25 5 C15.1 5 5.2 5 -5 5 C-3.35 3.35 -1.7 1.7 0 0 Z " fill="#EDDDE9" transform="translate(7,52)"/>
<path d="M0 0 C0.33 0 0.66 0 1 0 C1 2.97 1 5.94 1 9 C1.66 9.33 2.32 9.66 3 10 C1.35 10.33 -0.3 10.66 -2 11 C-2.28875 10.360625 -2.5775 9.72125 -2.875 9.0625 C-3.82823451 6.84793921 -3.82823451 6.84793921 -6 6 C-6 5.34 -6 4.68 -6 4 C-5.38125 3.896875 -4.7625 3.79375 -4.125 3.6875 C-1.63473516 3.12474627 -1.63473516 3.12474627 0 0 Z " fill="#3253C2" transform="translate(132,375)"/>
<path d="M0 0 C0.33 0.66 0.66 1.32 1 2 C1.66 2 2.32 2 3 2 C2.67 2.99 2.34 3.98 2 5 C-1.72781062 5.95857987 -4.27352821 5.88258542 -8 5 C-8.99 5 -9.98 5 -11 5 C-10.67 3.68 -10.34 2.36 -10 1 C-6.7 1.33 -3.4 1.66 0 2 C0 1.34 0 0.68 0 0 Z " fill="#9D9D9D" transform="translate(322,388)"/>
<path d="M0 0 C-0.33 1.65 -0.66 3.3 -1 5 C-2.65 5.33 -4.3 5.66 -6 6 C-6.66 4.68 -7.32 3.36 -8 2 C-8.66 2.66 -9.32 3.32 -10 4 C-10 2.68 -10 1.36 -10 0 C-6.30581799 -1.231394 -3.7943739 -0.64432764 0 0 Z " fill="#C1C0C1" transform="translate(108,81)"/>
<path d="M0 0 C2.97 0.33 5.94 0.66 9 1 C8.67 7.6 8.34 14.2 8 21 C7.67 21 7.34 21 7 21 C6.96132812 19.57107422 6.96132812 19.57107422 6.921875 18.11328125 C6.86515625 16.85902344 6.8084375 15.60476563 6.75 14.3125 C6.70359375 13.07113281 6.6571875 11.82976562 6.609375 10.55078125 C5.76762384 5.64596201 3.41628207 3.41628207 0 0 Z " fill="#6B99CD" transform="translate(209,355)"/>
<path d="M0 0 C2.92596542 0.31349629 3.98299489 0.98334001 6.1171875 3.07421875 C8.52511384 6.8159964 8.47081778 9.20867129 8.375 13.625 C8.36210937 14.93726563 8.34921875 16.24953125 8.3359375 17.6015625 C8 21 8 21 6 24 C6.06960937 22.37191406 6.06960937 22.37191406 6.140625 20.7109375 C6.17816487 19.26565269 6.21456264 17.82033789 6.25 16.375 C6.28351563 15.66214844 6.31703125 14.94929688 6.3515625 14.21484375 C6.44665403 9.03235548 5.47880617 6.08437613 2 2 C1.34 2 0.68 2 0 2 C0 1.34 0 0.68 0 0 Z " fill="#0E3BB6" transform="translate(208,356)"/>
<path d="M0 0 C1.32 0.33 2.64 0.66 4 1 C4 1.66 4 2.32 4 3 C4.66 3 5.32 3 6 3 C5.67 3.99 5.34 4.98 5 6 C2.03 6 -0.94 6 -4 6 C-3.67 4.68 -3.34 3.36 -3 2 C-2.01 2 -1.02 2 0 2 C0 1.34 0 0.68 0 0 Z " fill="#696969" transform="translate(218,80)"/>
<path d="M0 0 C0.598125 0.165 1.19625 0.33 1.8125 0.5 C4.98442461 1.22501134 6.90083506 1.03305498 10 0 C10.33 1.65 10.66 3.3 11 5 C7.33333333 5 3.66666667 5 0 5 C0 3.35 0 1.7 0 0 Z " fill="#A1A1A1" transform="translate(288,200)"/>
<path d="M0 0 C3.3 0.33 6.6 0.66 10 1 C10.33 2.32 10.66 3.64 11 5 C7.49064814 5 4.43515002 4.62457273 1 4 C0.67 4.66 0.34 5.32 0 6 C0 4.02 0 2.04 0 0 Z " fill="#C3C3C4" transform="translate(79,80)"/>
<path d="M0 0 C3.875 1.875 3.875 1.875 5 3 C5.04063832 4.66617115 5.042721 6.33388095 5 8 C4.01 8 3.02 8 2 8 C2 6.68 2 5.36 2 4 C1.34 4 0.68 4 0 4 C0 5.32 0 6.64 0 8 C-0.66 8 -1.32 8 -2 8 C-2.6875 5.6875 -2.6875 5.6875 -3 3 C-1.5625 1.1875 -1.5625 1.1875 0 0 Z " fill="#696A6A" transform="translate(26,79)"/>
<path d="M0 0 C2.475 0.495 2.475 0.495 5 1 C5 1.99 5 2.98 5 4 C5.66 4 6.32 4 7 4 C7 4.99 7 5.98 7 7 C5.02 7 3.04 7 1 7 C0.67 7.66 0.34 8.32 0 9 C0 6.03 0 3.06 0 0 Z " fill="#8C8C8C" transform="translate(345,104)"/>
<path d="M0 0 C0.99 0.33 1.98 0.66 3 1 C5.21081851 1.10540926 5.21081851 1.10540926 8 0 C8 1.98 8 3.96 8 6 C5.36 6 2.72 6 0 6 C0 4.02 0 2.04 0 0 Z " fill="#945482" transform="translate(51,61)"/>
<path d="M0 0 C1.65 0 3.3 0 5 0 C6.125 5.75 6.125 5.75 5 8 C3.33333333 8 1.66666667 8 0 8 C0 5.36 0 2.72 0 0 Z " fill="#AA6396" transform="translate(2,59)"/>
<path d="M0 0 C1.98 0 3.96 0 6 0 C6 2.31 6 4.62 6 7 C4.02 7 2.04 7 0 7 C0 4.69 0 2.38 0 0 Z " fill="#585858" transform="translate(279,409)"/>
<path d="M0 0 C3.125 0.125 3.125 0.125 6.125 1.125 C6.125 2.445 6.125 3.765 6.125 5.125 C3.155 5.125 0.185 5.125 -2.875 5.125 C-3.205 3.805 -3.535 2.485 -3.875 1.125 C-2.875 0.125 -2.875 0.125 0 0 Z " fill="#A3A3A3" transform="translate(318.875,133.875)"/>
<path d="M0 0 C-0.33 1.65 -0.66 3.3 -1 5 C-2.98 5.33 -4.96 5.66 -7 6 C-7 4.02 -7 2.04 -7 0 C-4.3333581 -1.33332095 -2.83319697 -0.67102033 0 0 Z " fill="#8D8C8D" transform="translate(311,80)"/>
<path d="M0 0 C3.66666667 0 7.33333333 0 11 0 C10.67 1.32 10.34 2.64 10 4 C7.98177083 3.96744792 5.96354167 3.93489583 3.9453125 3.90234375 C1.91814596 3.87350758 1.91814596 3.87350758 0 5 C0 3.35 0 1.7 0 0 Z " fill="#A1A1A1" transform="translate(302,135)"/>
<path d="M0 0 C1.65 0 3.3 0 5 0 C5.33 1.65 5.66 3.3 6 5 C3.625 5.625 3.625 5.625 1 6 C0.34 5.34 -0.32 4.68 -1 4 C-0.625 1.875 -0.625 1.875 0 0 Z " fill="#4BC751" transform="translate(5,80)"/>
<path d="M0 0 C5.28 0 10.56 0 16 0 C15.34 0.66 14.68 1.32 14 2 C11.1796875 1.9765625 11.1796875 1.9765625 7.875 1.625 C6.77929688 1.51414063 5.68359375 1.40328125 4.5546875 1.2890625 C3.71164062 1.19367187 2.86859375 1.09828125 2 1 C2.226875 1.763125 2.45375 2.52625 2.6875 3.3125 C2.790625 4.199375 2.89375 5.08625 3 6 C2.01 6.99 1.02 7.98 0 9 C0 6.03 0 3.06 0 0 Z " fill="#DC96C6" transform="translate(0,58)"/>
<path d="M0 0 C3.66666667 0 7.33333333 0 11 0 C11 1.32 11 2.64 11 4 C7.37 4 3.74 4 0 4 C0 2.68 0 1.36 0 0 Z " fill="#CACACA" transform="translate(295,183)"/>
<path d="M0 0 C2.97 0 5.94 0 9 0 C9.33 1.32 9.66 2.64 10 4 C9.195625 3.814375 8.39125 3.62875 7.5625 3.4375 C6.2940625 3.2209375 6.2940625 3.2209375 5 3 C4.67 3.33 4.34 3.66 4 4 C2.33382885 4.04063832 0.66611905 4.042721 -1 4 C-0.67 2.68 -0.34 1.36 0 0 Z " fill="#CCCBCC" transform="translate(290,160)"/>
<path d="M0 0 C2.475 0.495 2.475 0.495 5 1 C5 2.98 5 4.96 5 7 C3.35 7.33 1.7 7.66 0 8 C0 5.36 0 2.72 0 0 Z " fill="#D5D5D5" transform="translate(324,104)"/>
<path d="M0 0 C-0.33 1.98 -0.66 3.96 -1 6 C-1.99 6 -2.98 6 -4 6 C-4.33 6.66 -4.66 7.32 -5 8 C-5.66 8 -6.32 8 -7 8 C-7.1875 5.125 -7.1875 5.125 -7 2 C-4 0 -4 0 0 0 Z " fill="#888888" transform="translate(289,104)"/>
<path d="M0 0 C1.4540625 0.0309375 1.4540625 0.0309375 2.9375 0.0625 C3.2675 1.7125 3.5975 3.3625 3.9375 5.0625 C3.6075 4.0725 3.2775 3.0825 2.9375 2.0625 C2.2775 2.0625 1.6175 2.0625 0.9375 2.0625 C0.2775 3.3825 -0.3825 4.7025 -1.0625 6.0625 C-2.0525 6.0625 -3.0425 6.0625 -4.0625 6.0625 C-4.105221 4.39638095 -4.10313832 2.72867115 -4.0625 1.0625 C-3.0625 0.0625 -3.0625 0.0625 0 0 Z " fill="#A4A3A5" transform="translate(63.0625,80.9375)"/>
<path d="M0 0 C1.32 0 2.64 0 4 0 C4.66 0.99 5.32 1.98 6 3 C5.67 3.99 5.34 4.98 5 6 C3.68 6 2.36 6 1 6 C1 6.99 1 7.98 1 9 C0.01 8.67 -0.98 8.34 -2 8 C-1.34 5.36 -0.68 2.72 0 0 Z " fill="#A7759B" transform="translate(177,61)"/>
<path d="M0 0 C2.97 0.495 2.97 0.495 6 1 C6 2.32 6 3.64 6 5 C3.4791665 6.26041675 2.64903564 5.66225891 0 5 C-0.99 5.495 -0.99 5.495 -2 6 C-2.33 4.35 -2.66 2.7 -3 1 C-2.01 1.495 -2.01 1.495 -1 2 C-0.67 1.34 -0.34 0.68 0 0 Z " fill="#915D84" transform="translate(152,61)"/>
<path d="M0 0 C0.99 0 1.98 0 3 0 C3 1.32 3 2.64 3 4 C4.32 4 5.64 4 7 4 C7 4.99 7 5.98 7 7 C4.69 7 2.38 7 0 7 C0 4.69 0 2.38 0 0 Z " fill="#5C5C5C" transform="translate(298,492)"/>
<path d="M0 0 C2.97 0.33 5.94 0.66 9 1 C9 1.99 9 2.98 9 4 C5.06329512 5.31223496 2.87511856 4.24296256 -1 3 C-0.67 2.01 -0.34 1.02 0 0 Z " fill="#CACACA" transform="translate(356,449)"/>
<path d="M0 0 C1.98 0 3.96 0 6 0 C6 2 6 4 6 6 C3.69 5.67 1.38 5.34 -1 5 C-0.67 3.35 -0.34 1.7 0 0 Z " fill="#AAAAAA" transform="translate(332,200)"/>
<path d="M0 0 C0.33 0.66 0.66 1.32 1 2 C1.66 2 2.32 2 3 2 C3 1.34 3 0.68 3 0 C4.98 0.66 6.96 1.32 9 2 C8.67 3.32 8.34 4.64 8 6 C6.35 6 4.7 6 3 6 C3 5.01 3 4.02 3 3 C2.34 3 1.68 3 1 3 C0.67 3.66 0.34 4.32 0 5 C0 3.35 0 1.7 0 0 Z " fill="#896681" transform="translate(217,61)"/>
<path d="M0 0 C2.33944736 0.28730055 4.6739143 0.61936779 7 1 C6.67 2.32 6.34 3.64 6 5 C3.69 5 1.38 5 -1 5 C-1 1 -1 1 0 0 Z " fill="#B4B4B4" transform="translate(324,431)"/>
<path d="M0 0 C7.42857143 -0.14285714 7.42857143 -0.14285714 11 1 C10.67 1.99 10.34 2.98 10 4 C6.37 4 2.74 4 -1 4 C-0.67 2.68 -0.34 1.36 0 0 Z " fill="#9FB8B9" transform="translate(303,323)"/>
<path d="M0 0 C-0.33 4.29 -0.66 8.58 -1 13 C-1.33 13 -1.66 13 -2 13 C-2.33 9.7 -2.66 6.4 -3 3 C-5.64 2.67 -8.28 2.34 -11 2 C-7.36576791 -0.32590854 -4.22911669 -0.16265833 0 0 Z " fill="#EAEBEB" transform="translate(367,467)"/>
<path d="M0 0 C0.33 0 0.66 0 1 0 C1.03738281 0.81984375 1.07476562 1.6396875 1.11328125 2.484375 C1.17902344 3.56203125 1.24476562 4.6396875 1.3125 5.75 C1.37050781 6.81734375 1.42851563 7.8846875 1.48828125 8.984375 C2.03660906 12.21574195 2.93125269 13.53746969 5 16 C5 16.66 5 17.32 5 18 C5.99 18.33 6.98 18.66 8 19 C7.34 19.33 6.68 19.66 6 20 C1.125 16.375 1.125 16.375 0 13 C-0.06937062 10.77181559 -0.08457084 8.54165476 -0.0625 6.3125 C-0.05347656 5.13300781 -0.04445312 3.95351563 -0.03515625 2.73828125 C-0.02355469 1.83464844 -0.01195312 0.93101562 0 0 Z " fill="#143DAD" transform="translate(52,381)"/>
<path d="M0 0 C1.1446875 0.495 1.1446875 0.495 2.3125 1 C4.99069135 2.17436686 4.99069135 2.17436686 8 2 C8 2.99 8 3.98 8 5 C5.6739143 5.38063221 3.33944736 5.71269945 1 6 C0 5 0 5 -0.0625 2.4375 C-0.041875 1.633125 -0.02125 0.82875 0 0 Z " fill="#B2B2B2" transform="translate(326,305)"/>
<path d="M0 0 C0 0.66 0 1.32 0 2 C-5.28 2 -10.56 2 -16 2 C-12.07625555 -1.92374445 -5.09852064 -1.48021567 0 0 Z " fill="#DEC2DB" transform="translate(296,69)"/>
<path d="M0 0 C0.99 0 1.98 0 3 0 C3 1.32 3 2.64 3 4 C4.32 4 5.64 4 7 4 C7 4.99 7 5.98 7 7 C4.625 7.125 4.625 7.125 2 7 C0 5 0 5 -0.125 2.375 C-0.08375 1.59125 -0.0425 0.8075 0 0 Z " fill="#4389AA" transform="translate(315,492)"/>
<path d="M0 0 C1.67542976 0.28604898 3.34385343 0.61781233 5 1 C4.67 2.32 4.34 3.64 4 5 C2.68 5.33 1.36 5.66 0 6 C-0.38218767 4.34385343 -0.71395102 2.67542976 -1 1 C-0.67 0.67 -0.34 0.34 0 0 Z " fill="#C8C8C8" transform="translate(308,284)"/>
<path d="M0 0 C2.31 0 4.62 0 7 0 C7 1.65 7 3.3 7 5 C4.69 5 2.38 5 0 5 C0 3.35 0 1.7 0 0 Z " fill="#A7A7A7" transform="translate(291,221)"/>
<path d="M0 0 C2.0625 0.4375 2.0625 0.4375 4 1 C4.33 2.32 4.66 3.64 5 5 C3.35 5.33 1.7 5.66 0 6 C-0.38218767 4.34385343 -0.71395102 2.67542976 -1 1 C-0.67 0.67 -0.34 0.34 0 0 Z " fill="#CACACA" transform="translate(323,159)"/>
<path d="M0 0 C0.99 0.66 1.98 1.32 3 2 C3 3.32 3 4.64 3 6 C1.35 6.66 -0.3 7.32 -2 8 C-2 5.69 -2 3.38 -2 1 C-1.34 0.67 -0.68 0.34 0 0 Z M-4 8 C-2 9 -2 9 -2 9 Z " fill="#F9F9F9" transform="translate(292,132)"/>
<path d="M0 0 C1.4540625 0.0309375 1.4540625 0.0309375 2.9375 0.0625 C4.06781152 2.32312304 3.9375 2.60058707 3.9375 5.0625 C1.6275 5.0625 -0.6825 5.0625 -3.0625 5.0625 C-3.625 3.125 -3.625 3.125 -4.0625 1.0625 C-3.0625 0.0625 -3.0625 0.0625 0 0 Z " fill="#945D88" transform="translate(92.0625,61.9375)"/>
<path d="M0 0 C2.64 0 5.28 0 8 0 C8 0.33 8 0.66 8 1 C6.02 1.33 4.04 1.66 2 2 C2.33 3.98 2.66 5.96 3 8 C1.68 7.67 0.36 7.34 -1 7 C-0.67 4.69 -0.34 2.38 0 0 Z " fill="#BE82B1" transform="translate(133,59)"/>
<path d="M0 0 C1.2065625 0.0309375 1.2065625 0.0309375 2.4375 0.0625 C1.7775 0.7225 1.1175 1.3825 0.4375 2.0625 C1.0975 2.7225 1.7575 3.3825 2.4375 4.0625 C1.1175 4.0625 -0.2025 4.0625 -1.5625 4.0625 C-1.5625 4.7225 -1.5625 5.3825 -1.5625 6.0625 C-0.2425 6.3925 1.0775 6.7225 2.4375 7.0625 C0.0625 7.1875 0.0625 7.1875 -2.5625 7.0625 C-3.2225 6.4025 -3.8825 5.7425 -4.5625 5.0625 C-3.80953264 0.09291543 -3.80953264 0.09291543 0 0 Z " fill="#A3BDC8" transform="translate(374.5625,470.9375)"/>
<path d="M0 0 C0.33 0.99 0.66 1.98 1 3 C-0.65614657 3.38218767 -2.32457024 3.71395102 -4 4 C-4.33 3.67 -4.66 3.34 -5 3 C-5.99 3 -6.98 3 -8 3 C-7.34 2.67 -6.68 2.34 -6 2 C-6 1.34 -6 0.68 -6 0 C-6.66 -0.33 -7.32 -0.66 -8 -1 C-4.63757626 -2.20086562 -2.95940955 -2.0409721 0 0 Z " fill="#ABABAB" transform="translate(306,370)"/>
<path d="M0 0 C3.3 0.33 6.6 0.66 10 1 C9.67 1.99 9.34 2.98 9 4 C6.03 4 3.06 4 0 4 C0 2.68 0 1.36 0 0 Z " fill="#959595" transform="translate(359,323)"/>
<path d="M0 0 C0.99 0 1.98 0 3 0 C2.8125 1.875 2.8125 1.875 2 4 C-0.5625 5.25 -0.5625 5.25 -3 6 C-4.35432675 4.68799596 -5.68733482 3.35368596 -7 2 C-7 1.67 -7 1.34 -7 1 C-5.35 1 -3.7 1 -2 1 C-2 1.66 -2 2.32 -2 3 C-1.34 3 -0.68 3 0 3 C0 2.01 0 1.02 0 0 Z " fill="#AEAEAE" transform="translate(315,306)"/>
<path d="M0 0 C2.00720923 0.28674418 4.0085944 0.61866701 6 1 C6 1.99 6 2.98 6 4 C4.02 4.33 2.04 4.66 0 5 C-0.5625 3.0625 -0.5625 3.0625 -1 1 C-0.67 0.67 -0.34 0.34 0 0 Z " fill="#D5D5D5" transform="translate(389,305)"/>
<path d="M0 0 C3.3 0.33 6.6 0.66 10 1 C10 2.32 10 3.64 10 5 C5.545 4.01 5.545 4.01 1 3 C0.67 3.66 0.34 4.32 0 5 C0 3.35 0 1.7 0 0 Z " fill="#9A9A9A" transform="translate(303,259)"/>
<path d="M0 0 C1.9375 0.3125 1.9375 0.3125 4 1 C4.33 1.99 4.66 2.98 5 4 C4.67 4.66 4.34 5.32 4 6 C2.35 5.67 0.7 5.34 -1 5 C-0.67 3.35 -0.34 1.7 0 0 Z " fill="#CACACA" transform="translate(322,182)"/>
<path d="M0 0 C0.99 0 1.98 0 3 0 C3 0.66 3 1.32 3 2 C4.32 2 5.64 2 7 2 C6.67 3.32 6.34 4.64 6 6 C4.02 6 2.04 6 0 6 C0 4.02 0 2.04 0 0 Z " fill="#975988" transform="translate(31,61)"/>
<path d="M0 0 C0 0.99 0 1.98 0 3 C-2.97 3 -5.94 3 -9 3 C-9 2.01 -9 1.02 -9 0 C-5.67465243 -1.10844919 -3.37817425 -0.84454356 0 0 Z " fill="#9D9D9D" transform="translate(298,390)"/>
<path d="M0 0 C2.97 0.33 5.94 0.66 9 1 C8.67 1.99 8.34 2.98 8 4 C7.34 3.67 6.68 3.34 6 3 C5.67 3.33 5.34 3.66 5 4 C3.33985384 4.36442233 1.67293936 4.69972883 0 5 C0 3.35 0 1.7 0 0 Z " fill="#A6A6A6" transform="translate(348,259)"/>
<path d="M0 0 C2.97 0.495 2.97 0.495 6 1 C6.33 2.65 6.66 4.3 7 6 C6.67 5.01 6.34 4.02 6 3 C5.34 3 4.68 3 4 3 C4 3.99 4 4.98 4 6 C3.01 6 2.02 6 1 6 C0.67 4.02 0.34 2.04 0 0 Z " fill="#9A7391" transform="translate(183,61)"/>
<path d="M0 0 C1.65 0 3.3 0 5 0 C5 1.65 5 3.3 5 5 C3.02 5.99 3.02 5.99 1 7 C0 6 0 6 -0.0625 2.9375 C-0.041875 1.968125 -0.02125 0.99875 0 0 Z " fill="#9D7997" transform="translate(227,61)"/>
<path d="M0 0 C0.99 0 1.98 0 3 0 C3 1.32 3 2.64 3 4 C3.99 4 4.98 4 6 4 C6 4.99 6 5.98 6 7 C1.125 6.125 1.125 6.125 0 5 C-0.04063832 3.33382885 -0.042721 1.66611905 0 0 Z " fill="#595A5A" transform="translate(333,492)"/>
<path d="M0 0 C0 1.98 0 3.96 0 6 C-2.97 5.505 -2.97 5.505 -6 5 C-6 4.34 -6 3.68 -6 3 C-5.34 2.67 -4.68 2.34 -4 2 C-4.66 1.34 -5.32 0.68 -6 0 C-2.25 -1.125 -2.25 -1.125 0 0 Z " fill="#CEEAF3" transform="translate(379,472)"/>
<path d="M0 0 C2.97 0.33 5.94 0.66 9 1 C8.67 1.99 8.34 2.98 8 4 C5.04215769 5.22393475 3.00272755 4.96516243 0 4 C0 2.68 0 1.36 0 0 Z " fill="#A4A4A4" transform="translate(313,431)"/>
<path d="M0 0 C1.6396875 0.2475 1.6396875 0.2475 3.3125 0.5 C6.87525873 1.06718184 6.87525873 1.06718184 10 1 C9.67 1.99 9.34 2.98 9 4 C5.62182575 4.84454356 3.32534757 5.10844919 0 4 C0 2.68 0 1.36 0 0 Z " fill="#939393" transform="translate(335,259)"/>
<path d="M0 0 C0.1875 2.375 0.1875 2.375 0 5 C-0.99 5.66 -1.98 6.32 -3 7 C-3.99 6.67 -4.98 6.34 -6 6 C-5.6875 4.125 -5.6875 4.125 -5 2 C-2 0 -2 0 0 0 Z " fill="#AFAFAF" transform="translate(396,182)"/>
<path d="M0 0 C2.31 0 4.62 0 7 0 C7 1.32 7 2.64 7 4 C4.69 4 2.38 4 0 4 C0 2.68 0 1.36 0 0 Z " fill="#CDCDCD" transform="translate(279,160)"/>
<path d="M0 0 C1.98 0.99 1.98 0.99 4 2 C4 1.34 4 0.68 4 0 C4.99 0.33 5.98 0.66 7 1 C7.6875 3.0625 7.6875 3.0625 8 5 C5.36 5 2.72 5 0 5 C0 3.35 0 1.7 0 0 Z " fill="#A2A1A2" transform="translate(360,80)"/>
<path d="M0 0 C2.475 0.495 2.475 0.495 5 1 C5 2.32 5 3.64 5 5 C3.35 5.33 1.7 5.66 0 6 C0 4.02 0 2.04 0 0 Z " fill="#81416F" transform="translate(9,61)"/>
<path d="M0 0 C1.65 0 3.3 0 5 0 C5.33 0.66 5.66 1.32 6 2 C4.25 4.0625 4.25 4.0625 2 6 C-0.25 5.75 -0.25 5.75 -2 5 C-1.34 3.35 -0.68 1.7 0 0 Z " fill="#D4A5CA" transform="translate(203,58)"/>
<path d="M0 0 C0.99 0.33 1.98 0.66 3 1 C2.01 1.33 1.02 1.66 0 2 C0 2.66 0 3.32 0 4 C1.65 4 3.3 4 5 4 C4.67 4.66 4.34 5.32 4 6 C3.34 6 2.68 6 2 6 C1.67 6.66 1.34 7.32 1 8 C-0.32 7.67 -1.64 7.34 -3 7 C-2.34 6.34 -1.68 5.68 -1 5 C-1.3185177 2.89179203 -1.3185177 2.89179203 -2 1 C-1.34 0.67 -0.68 0.34 0 0 Z " fill="#C686B5" transform="translate(96,58)"/>
<path d="M0 0 C1.98 0 3.96 0 6 0 C6.33 0.66 6.66 1.32 7 2 C6.0625 4.125 6.0625 4.125 5 6 C2.5 4.6875 2.5 4.6875 0 3 C0 2.01 0 1.02 0 0 Z " fill="#C5C5C5" transform="translate(125,80)"/>
<path d="M0 0 C1.98 0.495 1.98 0.495 4 1 C3.67 2.65 3.34 4.3 3 6 C1.68 5.67 0.36 5.34 -1 5 C-0.67 3.35 -0.34 1.7 0 0 Z " fill="#995C88" transform="translate(77,61)"/>
<path d="M0 0 C1.65 0 3.3 0 5 0 C5 1.65 5 3.3 5 5 C3.35 5 1.7 5 0 5 C0 3.35 0 1.7 0 0 Z " fill="#F3F3F3" transform="translate(280,522)"/>
<path d="M0 0 C0.33 0 0.66 0 1 0 C1 1.98 1 3.96 1 6 C5.455 5.505 5.455 5.505 10 5 C10 5.66 10 6.32 10 7 C4.39436958 7.82622671 -0.42289352 8.06795656 -6 7 C-6 6.67 -6 6.34 -6 6 C-4.02 6 -2.04 6 0 6 C0 4.02 0 2.04 0 0 Z " fill="#EAECE8" transform="translate(310,496)"/>
<path d="M0 0 C1.32 0.33 2.64 0.66 4 1 C4 1.66 4 2.32 4 3 C4.66 3.33 5.32 3.66 6 4 C5.01 4 4.02 4 3 4 C2.67 4.66 2.34 5.32 2 6 C3.65 6 5.3 6 7 6 C7 6.33 7 6.66 7 7 C4.69 7 2.38 7 0 7 C0 4.69 0 2.38 0 0 Z " fill="#DADADA" transform="translate(298,471)"/>
<path d="M0 0 C1.98 0.66 3.96 1.32 6 2 C6 2.99 6 3.98 6 5 C3.69 5 1.38 5 -1 5 C-0.67 3.35 -0.34 1.7 0 0 Z " fill="#A8A8A8" transform="translate(279,305)"/>
<path d="M0 0 C1.65 0 3.3 0 5 0 C5 1.65 5 3.3 5 5 C3.35 5 1.7 5 0 5 C0 3.35 0 1.7 0 0 Z " fill="#F3F3F3" transform="translate(280,258)"/>
<path d="M0 0 C1.98 0.66 3.96 1.32 6 2 C5.67 3.32 5.34 4.64 5 6 C2 6 2 6 -1 4 C-0.67 2.68 -0.34 1.36 0 0 Z " fill="#A6A6A6" transform="translate(332,221)"/>
<path d="M0 0 C0 1.98 0 3.96 0 6 C-3.875 5.125 -3.875 5.125 -5 4 C-7.05396726 4.40929986 -7.05396726 4.40929986 -9 5 C-8.67 4.01 -8.34 3.02 -8 2 C-2.10526316 0 -2.10526316 0 0 0 Z " fill="#929292" transform="translate(58,80)"/>
<path d="M0 0 C1.65 0 3.3 0 5 0 C5 4.95 5 9.9 5 15 C4.67 15 4.34 15 4 15 C3.67 11.04 3.34 7.08 3 3 C2.01 3 1.02 3 0 3 C0 2.01 0 1.02 0 0 Z " fill="#E4D6E6" transform="translate(399,56)"/>
<path d="M0 0 C0.99 0 1.98 0 3 0 C3 0.99 3 1.98 3 3 C3.66 3 4.32 3 5 3 C5.33 3.99 5.66 4.98 6 6 C4.02 6 2.04 6 0 6 C0 4.02 0 2.04 0 0 Z " fill="#D5D5D5" transform="translate(334,471)"/>
<path d="M0 0 C2.31 0 4.62 0 7 0 C7 1.65 7 3.3 7 5 C4.69 4.67 2.38 4.34 0 4 C1.32 3.67 2.64 3.34 4 3 C4 2.34 4 1.68 4 1 C3.01 1.33 2.02 1.66 1 2 C0.67 1.34 0.34 0.68 0 0 Z " fill="#F5F5F5" transform="translate(298,431)"/>
<path d="M0 0 C-0.3358407 3.10652645 -0.59049279 4.60414303 -2.875 6.8125 C-5 8 -5 8 -8 8 C-7 6 -7 6 -4 4 C-4.33 3.01 -4.66 2.02 -5 1 C-2 0 -2 0 0 0 Z " fill="#888888" transform="translate(395,409)"/>
<path d="M0 0 C5.75 0.875 5.75 0.875 8 2 C7.67 2.99 7.34 3.98 7 5 C5.35 4.67 3.7 4.34 2 4 C2 3.34 2 2.68 2 2 C1.34 2 0.68 2 0 2 C-0.33 2.66 -0.66 3.32 -1 4 C-0.67 2.68 -0.34 1.36 0 0 Z " fill="#825E7C" transform="translate(196,62)"/>
<path d="M0 0 C0 0.99 0 1.98 0 3 C-1.65 3.33 -3.3 3.66 -5 4 C-5.33 3.34 -5.66 2.68 -6 2 C-6.99 2.495 -6.99 2.495 -8 3 C-7.67 2.01 -7.34 1.02 -7 0 C-4.3333581 -1.33332095 -2.83319697 -0.67102033 0 0 Z " fill="#B7B7B7" transform="translate(370,199)"/>
<path d="M0 0 C2.33333333 0 4.66666667 0 7 0 C7 1.32 7 2.64 7 4 C4.36 4 1.72 4 -1 4 C-0.67 2.68 -0.34 1.36 0 0 Z " fill="#C5C5C5" transform="translate(287,183)"/>
<path d="M0 0 C0.66 0 1.32 0 2 0 C2 0.66 2 1.32 2 2 C3.32 1.67 4.64 1.34 6 1 C6 2.32 6 3.64 6 5 C5.01 4.67 4.02 4.34 3 4 C2.67 4.66 2.34 5.32 2 6 C1.34 6 0.68 6 0 6 C0 4.02 0 2.04 0 0 Z " fill="#636363" transform="translate(296,105)"/>
<path d="M0 0 C1.98 0.66 3.96 1.32 6 2 C4.71034824 3.37562854 3.37310707 4.70766393 2 6 C1.34 6 0.68 6 0 6 C0 4.02 0 2.04 0 0 Z " fill="#5C5C5D" transform="translate(344,80)"/>
<path d="M0 0 C2.31 0 4.62 0 7 0 C6.67 1.32 6.34 2.64 6 4 C4.35 4 2.7 4 1 4 C0.67 2.68 0.34 1.36 0 0 Z " fill="#AEAEAE" transform="translate(295,523)"/>
<path d="M0 0 C2 1.1875 2 1.1875 4 3 C4.25 5.6875 4.25 5.6875 4 8 C3.34 8 2.68 8 2 8 C2 7.34 2 6.68 2 6 C1.34 6 0.68 6 0 6 C0 4.02 0 2.04 0 0 Z " fill="#2D3A5D" transform="translate(133,378)"/>
<path d="M0 0 C2.64 0 5.28 0 8 0 C7.67 0.99 7.34 1.98 7 3 C2.25 4.125 2.25 4.125 0 3 C0 2.01 0 1.02 0 0 Z " fill="#9A9A9A" transform="translate(318,260)"/>
<path d="M0 0 C0 1.65 0 3.3 0 5 C-2.97 4.505 -2.97 4.505 -6 4 C-6 3.01 -6 2.02 -6 1 C-3 0 -3 0 0 0 Z " fill="#A8A8A8" transform="translate(364,259)"/>
<path d="M0 0 C2.97 0.495 2.97 0.495 6 1 C6 2.32 6 3.64 6 5 C4.02 5 2.04 5 0 5 C0 3.35 0 1.7 0 0 Z " fill="#A0A0A0" transform="translate(295,134)"/>
<path d="M0 0 C1.32 0.33 2.64 0.66 4 1 C3.67 2.65 3.34 4.3 3 6 C2.01 6 1.02 6 0 6 C0 4.02 0 2.04 0 0 Z " fill="#A6A6A6" transform="translate(44,80)"/>
<path d="M0 0 C2.97 0.495 2.97 0.495 6 1 C6 1.99 6 2.98 6 4 C4.02 4 2.04 4 0 4 C0 2.68 0 1.36 0 0 Z " fill="#C8C8C8" transform="translate(323,449)"/>
<path d="M0 0 C-0.25 2.375 -0.25 2.375 -1 5 C-3.0625 6.3125 -3.0625 6.3125 -5 7 C-5 5.02 -5 3.04 -5 1 C-2 0 -2 0 0 0 Z " fill="#868686" transform="translate(395,429)"/>
<path d="M0 0 C2.31 0.33 4.62 0.66 7 1 C6.67 1.99 6.34 2.98 6 4 C3.69 4 1.38 4 -1 4 C-0.67 2.68 -0.34 1.36 0 0 Z " fill="#9F9F9F" transform="translate(291,306)"/>
<path d="M0 0 C1.65 0.33 3.3 0.66 5 1 C4.67 2.32 4.34 3.64 4 5 C2.35 4.67 0.7 4.34 -1 4 C-0.67 2.68 -0.34 1.36 0 0 Z " fill="#A6A6A6" transform="translate(320,306)"/>
<path d="M0 0 C1.98 0 3.96 0 6 0 C6.33 0.99 6.66 1.98 7 3 C3.98968256 3.93423645 3.13349732 4.04449911 0 3 C0 2.01 0 1.02 0 0 Z " fill="#E69ED4" transform="translate(88,59)"/>
<path d="M0 0 C0 0.66 0 1.32 0 2 C-1.65 2.66 -3.3 3.32 -5 4 C-5.66 2.68 -6.32 1.36 -7 0 C-3.86650268 -1.04449911 -3.01031744 -0.93423645 0 0 Z " fill="#ABABAB" transform="translate(328,524)"/>
<path d="M0 0 C0.625 1.875 0.625 1.875 1 4 C-1 6 -1 6 -3.625 6.125 C-4.40875 6.08375 -5.1925 6.0425 -6 6 C-4 4 -2 2 0 0 Z " fill="#BFDCFA" transform="translate(215,396)"/>
<path d="M0 0 C1.16959987 0.97566112 2.33561177 1.955625 3.5 2.9375 C4.1496875 3.48277344 4.799375 4.02804687 5.46875 4.58984375 C5.9740625 5.05519531 6.479375 5.52054687 7 6 C7 6.33 7 6.66 7 7 C5.35 7 3.7 7 2 7 C2 6.34 2 5.68 2 5 C1.34 5 0.68 5 0 5 C0 3.35 0 1.7 0 0 Z " fill="#C7E0F7" transform="translate(52,395)"/>
<path d="M0 0 C1.98 0 3.96 0 6 0 C5.67 1.65 5.34 3.3 5 5 C3.68 4.67 2.36 4.34 1 4 C0.67 2.68 0.34 1.36 0 0 Z " fill="#B1B1B1" transform="translate(291,369)"/>
<path d="M0 0 C-0.99 0.33 -1.98 0.66 -3 1 C-3 1.99 -3 2.98 -3 4 C-3.61875 4.12375 -4.2375 4.2475 -4.875 4.375 C-7.19120832 4.87197356 -7.19120832 4.87197356 -9 7 C-8.02086745 1.32103121 -5.73500486 -0.46500039 0 0 Z " fill="#113FB2" transform="translate(62,356)"/>
<path d="M0 0 C2.475 0.495 2.475 0.495 5 1 C4.67 2.32 4.34 3.64 4 5 C2.68 4.67 1.36 4.34 0 4 C0 2.68 0 1.36 0 0 Z " fill="#C2D4D9" transform="translate(215,352)"/>
<path d="M0 0 C1.98 0.66 3.96 1.32 6 2 C4.1875 3.5625 4.1875 3.5625 2 5 C1.01 4.67 0.02 4.34 -1 4 C-0.67 2.68 -0.34 1.36 0 0 Z " fill="#D2D2D2" transform="translate(312,347)"/>
<path d="M0 0 C0.99 0.33 1.98 0.66 3 1 C3.6875 3.0625 3.6875 3.0625 4 5 C1.69 5 -0.62 5 -3 5 C-2.67 4.01 -2.34 3.02 -2 2 C-1.67 2.33 -1.34 2.66 -1 3 C-0.67 2.01 -0.34 1.02 0 0 Z " fill="#A7A7A7" transform="translate(304,305)"/>
<path d="M0 0 C2.31 0 4.62 0 7 0 C6.67 1.32 6.34 2.64 6 4 C4.02 3.34 2.04 2.68 0 2 C0 1.34 0 0.68 0 0 Z " fill="#CCCCCC" transform="translate(286,285)"/>
<path d="M0 0 C1.32 0.66 2.64 1.32 4 2 C3.67 2.99 3.34 3.98 3 5 C2.34 4.67 1.68 4.34 1 4 C0.67 4.99 0.34 5.98 0 7 C-0.33 6.34 -0.66 5.68 -1 5 C-1.66 4.67 -2.32 4.34 -3 4 C-2.67 3.01 -2.34 2.02 -2 1 C-1.67 1.33 -1.34 1.66 -1 2 C-0.67 1.34 -0.34 0.68 0 0 Z " fill="#9B9B9B" transform="translate(282,240)"/>
<path d="M0 0 C2.4375 0.375 2.4375 0.375 5 1 C5.33 1.66 5.66 2.32 6 3 C5.34 3.66 4.68 4.32 4 5 C1.875 4.625 1.875 4.625 0 4 C0 2.68 0 1.36 0 0 Z " fill="#9B9B9B" transform="translate(288,200)"/>
<path d="M0 0 C1.65 0.33 3.3 0.66 5 1 C5 1.66 5 2.32 5 3 C2 5 2 5 -1 5 C-0.67 3.35 -0.34 1.7 0 0 Z " fill="#A7A7A7" transform="translate(378,200)"/>
<path d="M0 0 C1.65 0 3.3 0 5 0 C5.33 0.99 5.66 1.98 6 3 C4.02 3.66 2.04 4.32 0 5 C0 3.35 0 1.7 0 0 Z " fill="#BEBEBF" transform="translate(138,81)"/>
<path d="M0 0 C1.32 0 2.64 0 4 0 C3.67 1.65 3.34 3.3 3 5 C2.01 5.33 1.02 5.66 0 6 C-1.125 2.25 -1.125 2.25 0 0 Z " fill="#CCCCCC" transform="translate(104,81)"/>
<path d="M0 0 C0.33 0 0.66 0 1 0 C1 1.65 1 3.3 1 5 C-2 6 -2 6 -5 5 C-5 4.01 -5 3.02 -5 2 C-4.01 2.33 -3.02 2.66 -2 3 C-1.34 2.01 -0.68 1.02 0 0 Z " fill="#BBBBBB" transform="translate(308,522)"/>
<path d="M0 0 C2.31 0.33 4.62 0.66 7 1 C6.67 1.66 6.34 2.32 6 3 C3.69 3 1.38 3 -1 3 C-0.67 2.01 -0.34 1.02 0 0 Z " fill="#F9F9F9" transform="translate(305,394)"/>
<path d="M0 0 C1.27875 -0.061875 2.5575 -0.12375 3.875 -0.1875 C4.95394531 -0.23970703 4.95394531 -0.23970703 6.0546875 -0.29296875 C6.69664062 -0.19628906 7.33859375 -0.09960938 8 0 C8.66 0.99 9.32 1.98 10 3 C3 3 3 3 1.25 1.5 C0.8375 1.005 0.425 0.51 0 0 Z " fill="#3053C2" transform="translate(129,371)"/>
<path d="M0 0 C2.375 -0.125 2.375 -0.125 5 0 C5.66 0.66 6.32 1.32 7 2 C6.625 4.125 6.625 4.125 6 6 C3.97945196 4.35830472 1.97956942 2.69088222 0 1 C0 0.67 0 0.34 0 0 Z " fill="#B9DBF9" transform="translate(209,355)"/>
<path d="M0 0 C1.65 0 3.3 0 5 0 C4.02433888 1.16959987 3.044375 2.33561177 2.0625 3.5 C1.51722656 4.1496875 0.97195312 4.799375 0.41015625 5.46875 C-0.05519531 5.9740625 -0.52054688 6.479375 -1 7 C-1.33 7 -1.66 7 -2 7 C-2 5.35 -2 3.7 -2 2 C-1.34 2 -0.68 2 0 2 C0 1.34 0 0.68 0 0 Z " fill="#BFE1FB" transform="translate(54,355)"/>
<path d="M0 0 C1.65 0 3.3 0 5 0 C5 1.65 5 3.3 5 5 C3.35 4.67 1.7 4.34 0 4 C0 2.68 0 1.36 0 0 Z " fill="#E2E2E2" transform="translate(391,135)"/>
<path d="M0 0 C0.66 0.33 1.32 0.66 2 1 C1.67 2.32 1.34 3.64 1 5 C1.66 5 2.32 5 3 5 C3 5.66 3 6.32 3 7 C1.35 7 -0.3 7 -2 7 C-2 6.34 -2 5.68 -2 5 C-1.34 5 -0.68 5 0 5 C-0.2784375 4.0409375 -0.2784375 4.0409375 -0.5625 3.0625 C-0.7790625 2.0415625 -0.7790625 2.0415625 -1 1 C-0.67 0.67 -0.34 0.34 0 0 Z " fill="#5F5E5F" transform="translate(362,104)"/>
<path d="M0 0 C0.99 0.33 1.98 0.66 3 1 C3 2.32 3 3.64 3 5 C1.68 5 0.36 5 -1 5 C-0.67 3.35 -0.34 1.7 0 0 Z " fill="#B8D6E5" transform="translate(133,400)"/>
<path d="M0 0 C1.32 0 2.64 0 4 0 C3.67 1.65 3.34 3.3 3 5 C2.01 4.67 1.02 4.34 0 4 C0 2.68 0 1.36 0 0 Z " fill="#B4D5E9" transform="translate(132,352)"/>
<path d="M0 0 C1.98 0 3.96 0 6 0 C5.67 1.65 5.34 3.3 5 5 C3.68 4.67 2.36 4.34 1 4 C0.67 2.68 0.34 1.36 0 0 Z " fill="#929292" transform="translate(328,259)"/>
<path d="M0 0 C1.65 0 3.3 0 5 0 C4.67 1.32 4.34 2.64 4 4 C2.68 4 1.36 4 0 4 C0 2.68 0 1.36 0 0 Z " fill="#CECECE" transform="translate(306,160)"/>
<path d="M0 0 C0.99 0.33 1.98 0.66 3 1 C3.6875 3.0625 3.6875 3.0625 4 5 C2.35 4.67 0.7 4.34 -1 4 C-0.67 2.68 -0.34 1.36 0 0 Z " fill="#B5B5B5" transform="translate(316,134)"/>
<path d="M0 0 C0.99 0 1.98 0 3 0 C3 1.98 3 3.96 3 6 C2.01 6 1.02 6 0 6 C0 4.02 0 2.04 0 0 Z " fill="#7E7E7E" transform="translate(310,104)"/>
<path d="M0 0 C0.66 0.33 1.32 0.66 2 1 C2.625 3.5625 2.625 3.5625 3 6 C2.21625 5.649375 1.4325 5.29875 0.625 4.9375 C-0.24125 4.628125 -1.1075 4.31875 -2 4 C-2.99 4.495 -2.99 4.495 -4 5 C-3 2 -3 2 0 0 Z " fill="#E7E9E8" transform="translate(28,76)"/>
<path d="M0 0 C0.99 0.33 1.98 0.66 3 1 C3.33 2.65 3.66 4.3 4 6 C3.01 6.33 2.02 6.66 1 7 C0 6 0 6 -0.0625 2.9375 C-0.041875 1.968125 -0.02125 0.99875 0 0 Z " fill="#9C648E" transform="translate(60,61)"/>
<path d="M0 0 C1.98 0 3.96 0 6 0 C5.01 2.97 4.02 5.94 3 9 C2.34 8.34 1.68 7.68 1 7 C1.66 7 2.32 7 3 7 C2.42547254 3.06924356 2.42547254 3.06924356 0 0 Z " fill="#D0A8C8" transform="translate(223,58)"/>
<path d="M0 0 C0.99 0.33 1.98 0.66 3 1 C3 1.66 3 2.32 3 3 C4.32 3.33 5.64 3.66 7 4 C4.36 4 1.72 4 -1 4 C-0.67 2.68 -0.34 1.36 0 0 Z " fill="#5F5F5F" transform="translate(215,82)"/>
<path d="M0 0 C1.43088528 2.86177057 0.59991697 4.93375773 0 8 C-0.66 8 -1.32 8 -2 8 C-2.6875 5.6875 -2.6875 5.6875 -3 3 C-1.5625 1.1875 -1.5625 1.1875 0 0 Z " fill="#5E5C5C" transform="translate(26,79)"/>
<path d="M0 0 C2.475 0.99 2.475 0.99 5 2 C5 2.99 5 3.98 5 5 C3.68 4.67 2.36 4.34 1 4 C0.67 2.68 0.34 1.36 0 0 Z " fill="#AAAAAB" transform="translate(373,80)"/>
<path d="M0 0 C2.475 0.495 2.475 0.495 5 1 C5 2.65 5 4.3 5 6 C4.67 5.01 4.34 4.02 4 3 C2.02 3.99 2.02 3.99 0 5 C0 3.35 0 1.7 0 0 Z " fill="#9B638C" transform="translate(127,61)"/>
</svg>
