<?xml version="1.0" standalone="no"?>
<!DOCTYPE svg PUBLIC "-//W3C//DTD SVG 20010904//EN"
 "http://www.w3.org/TR/2001/REC-SVG-20010904/DTD/svg10.dtd">
<svg version="1.0" xmlns="http://www.w3.org/2000/svg"
 width="480.000000pt" height="720.000000pt" viewBox="0 0 480.000000 720.000000"
 preserveAspectRatio="xMidYMid meet">

<g transform="translate(0.000000,720.000000) scale(0.100000,-0.100000)"
fill="#000000" stroke="none">
<path d="M2210 5460 c0 -11 7 -20 15 -20 8 0 15 9 15 20 0 11 -7 20 -15 20 -8
0 -15 -9 -15 -20z"/>
<path d="M2072 5256 c4 -19 1 -26 -10 -26 -8 0 -13 -3 -9 -6 3 -3 15 -3 27 1
24 8 25 45 1 53 -10 3 -13 -2 -9 -22z"/>
<path d="M2462 4089 c2 -6 7 -10 11 -10 4 1 26 1 50 1 31 0 38 3 27 10 -21 13
-93 13 -88 -1z"/>
<path d="M2210 4063 c-42 -14 -41 -17 10 -24 61 -8 89 4 46 21 -29 11 -33 11
-56 3z"/>
<path d="M2123 3990 c-35 -5 -67 -12 -73 -15 -16 -10 -12 -62 11 -137 23 -78
37 -89 124 -90 54 -1 75 -11 75 -37 0 -110 182 -138 225 -35 8 20 15 45 15 55
0 17 8 19 60 19 33 0 69 6 80 12 12 8 31 45 46 91 44 133 30 141 -232 135 -82
-1 -176 0 -209 4 -33 3 -88 2 -122 -2z m151 -39 c54 -13 59 -21 46 -72 -17
-63 -69 -109 -123 -109 -64 0 -89 18 -106 73 -13 43 -13 52 0 75 22 39 97 52
183 33z m370 -10 c18 -15 21 -74 6 -118 -13 -35 -46 -53 -99 -53 -31 0 -40 4
-44 21 -4 15 -11 19 -25 15 -15 -5 -25 1 -41 27 -29 47 -28 100 2 115 29 16
181 10 201 -7z m-242 -78 c9 -32 16 -58 15 -59 -1 -1 -26 -4 -55 -8 l-53 -7
19 38 c11 21 23 52 26 70 10 45 28 32 48 -34z"/>
<path d="M2200 3908 c-10 -22 -10 -30 0 -43 15 -18 41 -20 58 -3 16 16 15 28
-2 28 -7 0 -20 10 -29 23 l-15 22 -12 -27z"/>
<path d="M2481 3917 c-27 -33 11 -83 46 -61 22 14 28 34 10 34 -8 0 -21 10
-29 21 -12 19 -15 20 -27 6z"/>
</g>
</svg>
