<?xml version="1.0" encoding="UTF-8"?>
<!DOCTYPE svg PUBLIC "-//W3C//DTD SVG 1.1//EN" "http://www.w3.org/Graphics/SVG/1.1/DTD/svg11.dtd">
<svg xmlns="http://www.w3.org/2000/svg" version="1.1" width="480px" height="720px" style="shape-rendering:geometricPrecision; text-rendering:geometricPrecision; image-rendering:optimizeQuality; fill-rule:evenodd; clip-rule:evenodd" xmlns:xlink="http://www.w3.org/1999/xlink">
<g><path style="opacity:1" fill="#eeb451" d="M 1.5,-0.5 C 160.167,-0.5 318.833,-0.5 477.5,-0.5C 477.5,238.833 477.5,478.167 477.5,717.5C 476.711,717.217 476.044,716.717 475.5,716C 428.5,715.333 381.5,715.333 334.5,716C 332.28,717.796 329.946,717.963 327.5,716.5C 323.666,717.992 319.666,718.659 315.5,718.5C 210.845,718.414 106.178,718.414 1.5,718.5C 1.5,478.833 1.5,239.167 1.5,-0.5 Z"/></g>
<g><path style="opacity:1" fill="#e4b65e" d="M 477.5,-0.5 C 478.167,-0.5 478.833,-0.5 479.5,-0.5C 479.5,239.5 479.5,479.5 479.5,719.5C 478.833,719.5 478.167,719.5 477.5,719.5C 477.5,718.833 477.5,718.167 477.5,717.5C 477.5,478.167 477.5,238.833 477.5,-0.5 Z"/></g>
<g><path style="opacity:1" fill="#e6b55f" d="M -0.5,-0.5 C 0.166667,-0.5 0.833333,-0.5 1.5,-0.5C 1.5,239.167 1.5,478.833 1.5,718.5C 1.5,718.833 1.5,719.167 1.5,719.5C 0.833333,719.5 0.166667,719.5 -0.5,719.5C -0.5,479.5 -0.5,239.5 -0.5,-0.5 Z"/></g>
<g><path style="opacity:1" fill="#f8e2b6" d="M 244.5,243.5 C 240.486,243.334 236.486,243.501 232.5,244C 228.308,246.453 223.975,248.619 219.5,250.5C 226.416,243.083 234.749,240.75 244.5,243.5 Z"/></g>
<g><path style="opacity:1" fill="#fefefc" d="M 244.5,243.5 C 245.5,243.5 246.5,243.5 247.5,243.5C 247.5,243.833 247.5,244.167 247.5,244.5C 249.893,246.882 252.559,249.048 255.5,251C 258.096,252.136 260.763,252.969 263.5,253.5C 265.301,256.631 267.967,258.631 271.5,259.5C 272.711,260.72 272.711,261.887 271.5,263C 276.463,262.593 280.463,264.26 283.5,268C 287.332,270.034 291.332,271.534 295.5,272.5C 298.245,273.084 300.578,274.418 302.5,276.5C 303.709,278.941 305.376,280.941 307.5,282.5C 308.038,284.117 308.371,285.784 308.5,287.5C 308.667,309.836 308.5,332.169 308,354.5C 306.5,356.833 305,359.167 303.5,361.5C 301.122,363.552 298.789,365.552 296.5,367.5C 292.567,369.425 288.567,371.258 284.5,373C 282.382,374.049 280.716,375.549 279.5,377.5C 275.016,379.243 270.683,381.243 266.5,383.5C 264.801,383.34 263.134,383.506 261.5,384C 260.167,386.667 258.167,388.667 255.5,390C 251.213,391.488 246.88,392.822 242.5,394C 237.435,394.258 232.435,393.758 227.5,392.5C 225.02,391.758 222.687,390.758 220.5,389.5C 217.025,385.588 212.692,382.922 207.5,381.5C 206.833,380.833 206.167,380.167 205.5,379.5C 201.176,376.145 196.509,373.145 191.5,370.5C 190.311,369.571 188.978,369.238 187.5,369.5C 185.109,367.864 182.442,366.697 179.5,366C 177.254,364.743 175.921,362.91 175.5,360.5C 175.753,358.173 175.086,356.173 173.5,354.5C 172.5,331.176 172.167,307.843 172.5,284.5C 175.076,283.893 177.409,282.726 179.5,281C 176.833,279.333 176.833,277.667 179.5,276C 182.146,275.503 184.813,275.336 187.5,275.5C 187.833,273.5 188.167,271.5 188.5,269.5C 190.179,269.715 191.179,269.048 191.5,267.5C 195.024,265.653 198.69,263.986 202.5,262.5C 203.298,262.043 203.631,261.376 203.5,260.5C 208.489,256.669 213.822,253.336 219.5,250.5C 223.975,248.619 228.308,246.453 232.5,244C 236.486,243.501 240.486,243.334 244.5,243.5 Z"/></g>
<g><path style="opacity:1" fill="#fcf7d6" d="M 247.5,244.5 C 253.056,246.723 258.389,249.389 263.5,252.5C 263.5,252.833 263.5,253.167 263.5,253.5C 260.763,252.969 258.096,252.136 255.5,251C 252.559,249.048 249.893,246.882 247.5,244.5 Z"/></g>
<g><path style="opacity:1" fill="#e6bf7b" d="M 247.5,244.5 C 247.5,244.167 247.5,243.833 247.5,243.5C 248.873,243.343 250.207,243.51 251.5,244C 254.625,246.107 257.958,247.94 261.5,249.5C 262.425,250.357 263.092,251.357 263.5,252.5C 258.389,249.389 253.056,246.723 247.5,244.5 Z"/></g>
<g><path style="opacity:1" fill="#fcf7e2" d="M 263.5,253.5 C 271.293,257.23 278.959,261.23 286.5,265.5C 289.603,267.655 292.603,269.989 295.5,272.5C 291.332,271.534 287.332,270.034 283.5,268C 280.463,264.26 276.463,262.593 271.5,263C 272.711,261.887 272.711,260.72 271.5,259.5C 267.967,258.631 265.301,256.631 263.5,253.5 Z"/></g>
<g><path style="opacity:1" fill="#f9efc9" d="M 203.5,260.5 C 203.631,261.376 203.298,262.043 202.5,262.5C 198.69,263.986 195.024,265.653 191.5,267.5C 194.761,264.192 198.761,261.859 203.5,260.5 Z"/></g>
<g><path style="opacity:1" fill="#ebc88f" d="M 286.5,265.5 C 292.845,266.9 298.179,270.066 302.5,275C 303.448,275.483 304.448,275.649 305.5,275.5C 305.4,278.108 306.067,280.442 307.5,282.5C 305.376,280.941 303.709,278.941 302.5,276.5C 300.578,274.418 298.245,273.084 295.5,272.5C 292.603,269.989 289.603,267.655 286.5,265.5 Z"/></g>
<g><path style="opacity:1" fill="#f7f9b9" d="M 241.5,282.5 C 236.845,280.085 231.845,278.752 226.5,278.5C 226.5,279.5 226.5,280.5 226.5,281.5C 225.566,280.432 225.232,279.099 225.5,277.5C 228.85,277.335 232.183,277.502 235.5,278C 237.526,279.594 239.526,281.094 241.5,282.5 Z"/></g>
<g><path style="opacity:1" fill="#f1d7a1" d="M 178.5,274.5 C 176.369,277.712 174.036,280.712 171.5,283.5C 171.693,278.759 174.027,275.759 178.5,274.5 Z"/></g>
<g><path style="opacity:1" fill="#f3e978" d="M 241.5,282.5 C 243.074,282.937 244.241,283.937 245,285.5C 246.728,288.692 248.561,291.692 250.5,294.5C 250.5,295.167 250.5,295.833 250.5,296.5C 249.833,296.5 249.167,296.5 248.5,296.5C 246.379,290.682 242.545,286.016 237,282.5C 231.914,280.43 229.414,282.096 229.5,287.5C 229.975,284.687 228.975,282.687 226.5,281.5C 226.5,280.5 226.5,279.5 226.5,278.5C 231.845,278.752 236.845,280.085 241.5,282.5 Z"/></g>
<g><path style="opacity:1" fill="#fdfbe9" d="M 191.5,267.5 C 191.179,269.048 190.179,269.715 188.5,269.5C 188.167,271.5 187.833,273.5 187.5,275.5C 184.813,275.336 182.146,275.503 179.5,276C 176.833,277.667 176.833,279.333 179.5,281C 177.409,282.726 175.076,283.893 172.5,284.5C 172.167,307.843 172.5,331.176 173.5,354.5C 175.086,356.173 175.753,358.173 175.5,360.5C 174.167,359.5 172.833,358.5 171.5,357.5C 171.768,355.901 171.434,354.568 170.5,353.5C 170.187,330.122 170.52,306.788 171.5,283.5C 174.036,280.712 176.369,277.712 178.5,274.5C 182.071,270.969 186.404,268.636 191.5,267.5 Z"/></g>
<g><path style="opacity:1" fill="#f4da5a" d="M 248.5,296.5 C 245.333,296.913 242.166,297.247 239,297.5C 236.876,296.773 234.709,296.106 232.5,295.5C 231.534,297.396 231.201,299.396 231.5,301.5C 230.5,301.5 229.5,301.5 228.5,301.5C 229.383,296.897 229.717,292.23 229.5,287.5C 229.414,282.096 231.914,280.43 237,282.5C 242.545,286.016 246.379,290.682 248.5,296.5 Z"/></g>
<g><path style="opacity:1" fill="#f4e9a8" d="M 250.5,294.5 C 252.527,297.22 254.193,300.22 255.5,303.5C 255.167,303.5 254.833,303.5 254.5,303.5C 253.167,301.167 251.833,298.833 250.5,296.5C 250.5,295.833 250.5,295.167 250.5,294.5 Z"/></g>
<g><path style="opacity:1" fill="#f2e8af" d="M 227.5,297.5 C 227.67,298.822 227.337,299.989 226.5,301C 223.986,302.252 221.32,302.752 218.5,302.5C 218.216,299.746 217.549,297.08 216.5,294.5C 215.583,295.127 214.583,295.461 213.5,295.5C 214.254,293.554 215.588,292.721 217.5,293C 218.525,295.071 219.358,297.238 220,299.5C 223.223,301.16 225.723,300.494 227.5,297.5 Z"/></g>
<g><path style="opacity:1" fill="#ecd67d" d="M 226.5,281.5 C 228.975,282.687 229.975,284.687 229.5,287.5C 229.717,292.23 229.383,296.897 228.5,301.5C 224.424,303.688 220.091,304.021 215.5,302.5C 217.159,299.799 216.492,298.132 213.5,297.5C 213.5,296.833 213.5,296.167 213.5,295.5C 214.583,295.461 215.583,295.127 216.5,294.5C 217.549,297.08 218.216,299.746 218.5,302.5C 221.32,302.752 223.986,302.252 226.5,301C 227.337,299.989 227.67,298.822 227.5,297.5C 228.87,292.197 228.537,286.863 226.5,281.5 Z"/></g>
<g><path style="opacity:1" fill="#f4f1c8" d="M 263.5,303.5 C 261.723,303.786 260.056,304.453 258.5,305.5C 256.962,305.547 255.962,304.88 255.5,303.5C 258.421,303.854 260.754,302.854 262.5,300.5C 263.386,301.325 263.719,302.325 263.5,303.5 Z"/></g>
<g><path style="opacity:1" fill="#eec257" d="M 248.5,296.5 C 249.167,296.5 249.833,296.5 250.5,296.5C 251.833,298.833 253.167,301.167 254.5,303.5C 254.539,304.583 254.873,305.583 255.5,306.5C 251.555,307.491 247.555,307.824 243.5,307.5C 243.038,306.12 242.038,305.453 240.5,305.5C 237.358,307.58 234.358,309.914 231.5,312.5C 225.232,311.941 218.732,310.941 212,309.5C 210.167,309.519 208.667,310.185 207.5,311.5C 207.833,308.833 208.167,306.167 208.5,303.5C 209.69,301.131 211.357,299.131 213.5,297.5C 216.492,298.132 217.159,299.799 215.5,302.5C 220.091,304.021 224.424,303.688 228.5,301.5C 229.5,301.5 230.5,301.5 231.5,301.5C 231.201,299.396 231.534,297.396 232.5,295.5C 234.709,296.106 236.876,296.773 239,297.5C 242.166,297.247 245.333,296.913 248.5,296.5 Z"/></g>
<g><path style="opacity:1" fill="#e8ba65" d="M 254.5,303.5 C 254.833,303.5 255.167,303.5 255.5,303.5C 255.962,304.88 256.962,305.547 258.5,305.5C 260.056,304.453 261.723,303.786 263.5,303.5C 263.833,303.5 264.167,303.5 264.5,303.5C 265.167,305.833 265.833,308.167 266.5,310.5C 265.85,310.196 265.183,309.863 264.5,309.5C 262.78,310.955 260.78,311.788 258.5,312C 253.833,312.667 249.167,312.667 244.5,312C 243.62,310.644 243.286,309.144 243.5,307.5C 247.555,307.824 251.555,307.491 255.5,306.5C 254.873,305.583 254.539,304.583 254.5,303.5 Z"/></g>
<g><path style="opacity:1" fill="#eab861" d="M 169.5,286.5 C 169.169,309.006 169.503,331.34 170.5,353.5C 171.434,354.568 171.768,355.901 171.5,357.5C 169.766,355.91 168.6,353.91 168,351.5C 167.333,332.167 167.333,312.833 168,293.5C 168.186,290.964 168.686,288.631 169.5,286.5 Z"/></g>
<g><path style="opacity:1" fill="#f0d69f" d="M 171.5,283.5 C 170.52,306.788 170.187,330.122 170.5,353.5C 169.503,331.34 169.169,309.006 169.5,286.5C 169.427,284.973 170.094,283.973 171.5,283.5 Z"/></g>
<g><path style="opacity:1" fill="#eaa853" d="M 243.5,307.5 C 243.286,309.144 243.62,310.644 244.5,312C 249.167,312.667 253.833,312.667 258.5,312C 260.78,311.788 262.78,310.955 264.5,309.5C 265.183,309.863 265.85,310.196 266.5,310.5C 268.123,313.215 268.79,316.215 268.5,319.5C 249.351,319.125 230.351,319.125 211.5,319.5C 209.5,319.5 207.5,319.5 205.5,319.5C 205.111,316.447 205.777,313.78 207.5,311.5C 208.667,310.185 210.167,309.519 212,309.5C 218.732,310.941 225.232,311.941 231.5,312.5C 234.358,309.914 237.358,307.58 240.5,305.5C 242.038,305.453 243.038,306.12 243.5,307.5 Z"/></g>
<g><path style="opacity:1" fill="#553916" d="M 218.5,312.5 C 221.807,312.063 224.807,312.73 227.5,314.5C 227.167,314.833 226.833,315.167 226.5,315.5C 223.35,315.234 220.683,314.234 218.5,312.5 Z"/></g>
<g><path style="opacity:1" fill="#815c34" d="M 245.5,309.5 C 249.375,309.085 253.042,309.585 256.5,311C 254.667,311.167 252.833,311.333 251,311.5C 248.705,311.453 246.871,310.787 245.5,309.5 Z"/></g>
<g><path style="opacity:1" fill="#dcb768" d="M 307.5,282.5 C 308.79,283.058 309.623,284.058 310,285.5C 310.83,308.337 310.663,331.004 309.5,353.5C 309.831,331.327 309.497,309.327 308.5,287.5C 308.371,285.784 308.038,284.117 307.5,282.5 Z"/></g>
<g><path style="opacity:1" fill="#d5a572" d="M 264.5,303.5 C 267.169,307.504 269.335,311.837 271,316.5C 271.817,322.016 271.651,327.35 270.5,332.5C 270.5,328.5 270.5,324.5 270.5,320.5C 268.833,320.5 267.167,320.5 265.5,320.5C 261.012,320.101 256.512,319.767 252,319.5C 246.564,320.406 241.064,321.073 235.5,321.5C 227.617,319.984 219.617,319.317 211.5,319.5C 230.351,319.125 249.351,319.125 268.5,319.5C 268.79,316.215 268.123,313.215 266.5,310.5C 265.833,308.167 265.167,305.833 264.5,303.5 Z"/></g>
<g><path style="opacity:1" fill="#47342e" d="M 211.5,319.5 C 219.617,319.317 227.617,319.984 235.5,321.5C 241.064,321.073 246.564,320.406 252,319.5C 256.512,319.767 261.012,320.101 265.5,320.5C 265.5,320.833 265.5,321.167 265.5,321.5C 264.325,321.281 263.325,321.614 262.5,322.5C 263.993,323.141 264.993,324.141 265.5,325.5C 258.979,322.465 252.312,321.798 245.5,323.5C 244.167,323.833 242.833,324.167 241.5,324.5C 240.306,323.223 238.64,322.556 236.5,322.5C 234.36,322.556 232.694,323.223 231.5,324.5C 229.565,323.85 227.565,323.517 225.5,323.5C 224.833,323.5 224.167,323.5 223.5,323.5C 221.5,323.5 219.5,323.5 217.5,323.5C 215.5,323.5 213.5,323.5 211.5,323.5C 208.013,324.445 206.68,326.778 207.5,330.5C 206.833,330.833 206.167,331.167 205.5,331.5C 204.778,331.082 204.278,330.416 204,329.5C 203.503,326.854 203.336,324.187 203.5,321.5C 206.428,321.435 209.095,320.768 211.5,319.5 Z"/></g>
<g><path style="opacity:1" fill="#23202f" d="M 265.5,321.5 C 265.833,321.5 266.167,321.5 266.5,321.5C 268.546,323.866 268.879,326.533 267.5,329.5C 266.828,328.051 266.161,326.718 265.5,325.5C 264.993,324.141 263.993,323.141 262.5,322.5C 263.325,321.614 264.325,321.281 265.5,321.5 Z"/></g>
<g><path style="opacity:1" fill="#272934" d="M 241.5,324.5 C 241.5,324.833 241.5,325.167 241.5,325.5C 240.778,325.918 240.278,326.584 240,327.5C 239.617,326.944 239.117,326.611 238.5,326.5C 237.167,326.5 235.833,326.5 234.5,326.5C 233.833,326.5 233.167,326.5 232.5,326.5C 232.167,325.833 231.833,325.167 231.5,324.5C 232.694,323.223 234.36,322.556 236.5,322.5C 238.64,322.556 240.306,323.223 241.5,324.5 Z"/></g>
<g><path style="opacity:1" fill="#cd9974" d="M 245.5,323.5 C 252.312,321.798 258.979,322.465 265.5,325.5C 265.815,329.371 265.482,333.038 264.5,336.5C 264.5,335.5 264.5,334.5 264.5,333.5C 264.808,331.076 264.474,328.743 263.5,326.5C 262.264,325.754 260.93,325.421 259.5,325.5C 259.5,328.167 259.5,330.833 259.5,333.5C 258.163,334.315 257.163,335.482 256.5,337C 253.854,337.497 251.187,337.664 248.5,337.5C 248.167,336.833 247.833,336.167 247.5,335.5C 253.299,337.742 256.966,335.908 258.5,330C 257.356,324.673 254.023,322.506 248.5,323.5C 247.5,323.5 246.5,323.5 245.5,323.5 Z"/></g>
<g><path style="opacity:1" fill="#dda26d" d="M 211.5,323.5 C 213.5,323.5 215.5,323.5 217.5,323.5C 213.512,327.799 213.512,332.132 217.5,336.5C 215.926,336.063 214.759,335.063 214,333.5C 213.818,330.774 213.318,328.107 212.5,325.5C 209.828,327.425 208.828,330.092 209.5,333.5C 207.845,329.776 208.511,326.443 211.5,323.5 Z"/></g>
<g><path style="opacity:1" fill="#e8c0a9" d="M 223.5,323.5 C 224.167,323.5 224.833,323.5 225.5,323.5C 226.975,325.638 227.975,327.971 228.5,330.5C 228.36,332.03 227.693,333.03 226.5,333.5C 226.167,333.5 225.833,333.5 225.5,333.5C 225.833,332.167 226.167,330.833 226.5,329.5C 226.938,329.565 227.272,329.399 227.5,329C 226.035,327.226 224.702,325.392 223.5,323.5 Z"/></g>
<g><path style="opacity:1" fill="#5b3425" d="M 241.5,325.5 C 241.119,330.186 242.119,334.519 244.5,338.5C 243.833,338.5 243.167,338.5 242.5,338.5C 242.5,337.833 242.167,337.5 241.5,337.5C 240.946,334.254 239.946,331.254 238.5,328.5C 238.5,327.833 238.5,327.167 238.5,326.5C 239.117,326.611 239.617,326.944 240,327.5C 240.278,326.584 240.778,325.918 241.5,325.5 Z"/></g>
<g><path style="opacity:1" fill="#e69859" d="M 264.5,333.5 C 262.901,334.562 261.234,334.562 259.5,333.5C 259.5,330.833 259.5,328.167 259.5,325.5C 260.93,325.421 262.264,325.754 263.5,326.5C 264.474,328.743 264.808,331.076 264.5,333.5 Z"/></g>
<g><path style="opacity:1" fill="#a4795e" d="M 211.5,323.5 C 208.511,326.443 207.845,329.776 209.5,333.5C 209.5,334.833 209.5,336.167 209.5,337.5C 207.837,335.562 207.171,333.228 207.5,330.5C 206.68,326.778 208.013,324.445 211.5,323.5 Z"/></g>
<g><path style="opacity:1" fill="#f8f0e5" d="M 217.5,323.5 C 219.5,323.5 221.5,323.5 223.5,323.5C 224.702,325.392 226.035,327.226 227.5,329C 227.272,329.399 226.938,329.565 226.5,329.5C 224.077,329.576 222.244,328.576 221,326.5C 217.848,328.647 217.682,331.147 220.5,334C 222.265,334.64 223.932,334.473 225.5,333.5C 225.833,333.5 226.167,333.5 226.5,333.5C 224.155,336.075 221.155,337.075 217.5,336.5C 213.512,332.132 213.512,327.799 217.5,323.5 Z"/></g>
<g><path style="opacity:1" fill="#f6f0ea" d="M 248.5,323.5 C 254.023,322.506 257.356,324.673 258.5,330C 256.966,335.908 253.299,337.742 247.5,335.5C 244.633,331.233 244.967,327.233 248.5,323.5 Z"/></g>
<g><path style="opacity:1" fill="#5b281b" d="M 232.5,326.5 C 233.167,326.5 233.833,326.5 234.5,326.5C 233.567,330.965 232.234,335.298 230.5,339.5C 229.5,339.5 228.5,339.5 227.5,339.5C 230.831,335.874 232.497,331.541 232.5,326.5 Z"/></g>
<g><path style="opacity:1" fill="#282940" d="M 251.5,329.5 C 254.106,332.616 253.106,333.949 248.5,333.5C 246.559,331.989 246.059,329.989 247,327.5C 248.011,326.663 249.178,326.33 250.5,326.5C 250.263,327.791 250.596,328.791 251.5,329.5 Z"/></g>
<g><path style="opacity:1" fill="#d28a65" d="M 245.5,323.5 C 246.5,323.5 247.5,323.5 248.5,323.5C 244.967,327.233 244.633,331.233 247.5,335.5C 247.833,336.167 248.167,336.833 248.5,337.5C 248.833,338.167 249.167,338.833 249.5,339.5C 247.708,339.634 246.042,339.301 244.5,338.5C 242.119,334.519 241.119,330.186 241.5,325.5C 241.5,325.167 241.5,324.833 241.5,324.5C 242.833,324.167 244.167,323.833 245.5,323.5 Z"/></g>
<g><path style="opacity:1" fill="#9ba3af" d="M 251.5,329.5 C 252.5,329.5 253.5,329.5 254.5,329.5C 254.659,334.252 252.659,335.586 248.5,333.5C 253.106,333.949 254.106,332.616 251.5,329.5 Z"/></g>
<g><path style="opacity:1" fill="#d49d70" d="M 208.5,303.5 C 208.167,306.167 207.833,308.833 207.5,311.5C 205.777,313.78 205.111,316.447 205.5,319.5C 207.5,319.5 209.5,319.5 211.5,319.5C 209.095,320.768 206.428,321.435 203.5,321.5C 203.336,324.187 203.503,326.854 204,329.5C 204.278,330.416 204.778,331.082 205.5,331.5C 205.517,333.565 205.85,335.565 206.5,337.5C 206.5,339.5 206.5,341.5 206.5,343.5C 203.161,338.472 201.828,332.805 202.5,326.5C 202.18,318.108 204.18,310.442 208.5,303.5 Z"/></g>
<g><path style="opacity:1" fill="#de855c" d="M 225.5,323.5 C 227.565,323.517 229.565,323.85 231.5,324.5C 231.833,325.167 232.167,325.833 232.5,326.5C 232.497,331.541 230.831,335.874 227.5,339.5C 226.833,340.167 226.167,340.833 225.5,341.5C 220.821,341.666 216.155,341.499 211.5,341C 210.177,340.184 209.511,339.017 209.5,337.5C 209.5,336.167 209.5,334.833 209.5,333.5C 208.828,330.092 209.828,327.425 212.5,325.5C 213.318,328.107 213.818,330.774 214,333.5C 214.759,335.063 215.926,336.063 217.5,336.5C 221.155,337.075 224.155,336.075 226.5,333.5C 227.693,333.03 228.36,332.03 228.5,330.5C 227.975,327.971 226.975,325.638 225.5,323.5 Z"/></g>
<g><path style="opacity:1" fill="#303b4a" d="M 226.5,329.5 C 226.167,330.833 225.833,332.167 225.5,333.5C 223.932,334.473 222.265,334.64 220.5,334C 217.682,331.147 217.848,328.647 221,326.5C 222.244,328.576 224.077,329.576 226.5,329.5 Z"/></g>
<g><path style="opacity:1" fill="#dc7d53" d="M 238.5,328.5 C 239.946,331.254 240.946,334.254 241.5,337.5C 239.052,338.473 236.385,338.806 233.5,338.5C 233.932,334.712 234.932,331.045 236.5,327.5C 237.183,327.863 237.85,328.196 238.5,328.5 Z"/></g>
<g><path style="opacity:1" fill="#e07f5b" d="M 259.5,333.5 C 261.234,334.562 262.901,334.562 264.5,333.5C 264.5,334.5 264.5,335.5 264.5,336.5C 264.443,337.609 264.11,338.609 263.5,339.5C 259.339,341.063 255.005,341.729 250.5,341.5C 250.672,340.508 250.338,339.842 249.5,339.5C 249.167,338.833 248.833,338.167 248.5,337.5C 251.187,337.664 253.854,337.497 256.5,337C 257.163,335.482 258.163,334.315 259.5,333.5 Z"/></g>
<g><path style="opacity:1" fill="#ba7b65" d="M 234.5,326.5 C 235.833,326.5 237.167,326.5 238.5,326.5C 238.5,327.167 238.5,327.833 238.5,328.5C 237.85,328.196 237.183,327.863 236.5,327.5C 234.932,331.045 233.932,334.712 233.5,338.5C 236.385,338.806 239.052,338.473 241.5,337.5C 242.167,337.5 242.5,337.833 242.5,338.5C 239.517,339.388 236.35,340.054 233,340.5C 231.93,340.472 231.097,340.139 230.5,339.5C 232.234,335.298 233.567,330.965 234.5,326.5 Z"/></g>
<g><path style="opacity:1" fill="#4f2920" d="M 266.5,321.5 C 267.5,321.5 268.5,321.5 269.5,321.5C 269.665,324.85 269.498,328.183 269,331.5C 267.382,334.291 266.215,337.291 265.5,340.5C 264.5,341.333 263.5,342.167 262.5,343C 258.514,343.499 254.514,343.666 250.5,343.5C 250.5,343.167 250.5,342.833 250.5,342.5C 253.518,342.665 256.518,342.498 259.5,342C 261.32,341.8 262.653,340.966 263.5,339.5C 264.11,338.609 264.443,337.609 264.5,336.5C 265.482,333.038 265.815,329.371 265.5,325.5C 266.161,326.718 266.828,328.051 267.5,329.5C 268.879,326.533 268.546,323.866 266.5,321.5 Z"/></g>
<g><path style="opacity:1" fill="#9f6258" d="M 263.5,339.5 C 262.653,340.966 261.32,341.8 259.5,342C 256.518,342.498 253.518,342.665 250.5,342.5C 250.5,342.167 250.5,341.833 250.5,341.5C 255.005,341.729 259.339,341.063 263.5,339.5 Z"/></g>
<g><path style="opacity:1" fill="#5f2f27" d="M 207.5,330.5 C 207.171,333.228 207.837,335.562 209.5,337.5C 209.511,339.017 210.177,340.184 211.5,341C 216.155,341.499 220.821,341.666 225.5,341.5C 225.5,342.167 225.5,342.833 225.5,343.5C 220.437,344.926 215.437,344.759 210.5,343C 208.531,341.5 207.198,339.667 206.5,337.5C 205.85,335.565 205.517,333.565 205.5,331.5C 206.167,331.167 206.833,330.833 207.5,330.5 Z"/></g>
<g><path style="opacity:1" fill="#faf3e3" d="M 213.5,295.5 C 213.5,296.167 213.5,296.833 213.5,297.5C 211.357,299.131 209.69,301.131 208.5,303.5C 204.18,310.442 202.18,318.108 202.5,326.5C 201.828,332.805 203.161,338.472 206.5,343.5C 206.5,344.167 206.833,344.5 207.5,344.5C 207.5,345.167 207.5,345.833 207.5,346.5C 205.574,347.242 203.741,348.242 202,349.5C 200.863,346.68 200.696,343.68 201.5,340.5C 200.96,333.65 200.294,326.816 199.5,320C 200.06,316.641 200.726,313.308 201.5,310C 205.046,304.636 209.046,299.803 213.5,295.5 Z"/></g>
<g><path style="opacity:1" fill="#2e2636" d="M 242.5,338.5 C 243.167,338.5 243.833,338.5 244.5,338.5C 246.042,339.301 247.708,339.634 249.5,339.5C 250.338,339.842 250.672,340.508 250.5,341.5C 250.5,341.833 250.5,342.167 250.5,342.5C 250.5,342.833 250.5,343.167 250.5,343.5C 249.662,343.842 249.328,344.508 249.5,345.5C 248.833,345.5 248.167,345.5 247.5,345.5C 246.609,344.89 245.609,344.557 244.5,344.5C 241.696,343.362 238.696,343.195 235.5,344C 234.177,344.816 233.511,345.983 233.5,347.5C 231.799,348.211 230.799,349.545 230.5,351.5C 229.609,352.11 228.609,352.443 227.5,352.5C 226.072,349.697 225.405,346.697 225.5,343.5C 225.5,342.833 225.5,342.167 225.5,341.5C 226.167,340.833 226.833,340.167 227.5,339.5C 228.5,339.5 229.5,339.5 230.5,339.5C 231.097,340.139 231.93,340.472 233,340.5C 236.35,340.054 239.517,339.388 242.5,338.5 Z"/></g>
<g><path style="opacity:1" fill="#592a4c" d="M 244.5,344.5 C 240.393,344.123 236.726,345.123 233.5,347.5C 233.511,345.983 234.177,344.816 235.5,344C 238.696,343.195 241.696,343.362 244.5,344.5 Z"/></g>
<g><path style="opacity:1" fill="#c87866" d="M 206.5,337.5 C 207.198,339.667 208.531,341.5 210.5,343C 215.437,344.759 220.437,344.926 225.5,343.5C 225.405,346.697 226.072,349.697 227.5,352.5C 227.5,352.833 227.5,353.167 227.5,353.5C 226.022,353.762 224.689,353.429 223.5,352.5C 224.42,350.214 224.42,347.881 223.5,345.5C 218.333,345.91 213.333,345.243 208.5,343.5C 207.893,343.624 207.56,343.957 207.5,344.5C 206.833,344.5 206.5,344.167 206.5,343.5C 206.5,341.5 206.5,339.5 206.5,337.5 Z"/></g>
<g><path style="opacity:1" fill="#c07c68" d="M 265.5,321.5 C 265.5,321.167 265.5,320.833 265.5,320.5C 267.167,320.5 268.833,320.5 270.5,320.5C 270.5,324.5 270.5,328.5 270.5,332.5C 269.965,336.309 268.965,339.976 267.5,343.5C 266.733,344.172 266.066,345.005 265.5,346C 262.183,346.498 258.85,346.665 255.5,346.5C 253.735,345.539 251.735,345.205 249.5,345.5C 249.328,344.508 249.662,343.842 250.5,343.5C 254.514,343.666 258.514,343.499 262.5,343C 263.5,342.167 264.5,341.333 265.5,340.5C 266.215,337.291 267.382,334.291 269,331.5C 269.498,328.183 269.665,324.85 269.5,321.5C 268.5,321.5 267.5,321.5 266.5,321.5C 266.167,321.5 265.833,321.5 265.5,321.5 Z"/></g>
<g><path style="opacity:1" fill="#fae3d3" d="M 267.5,343.5 C 267.67,344.822 267.337,345.989 266.5,347C 268.833,348.043 271.166,348.876 273.5,349.5C 271.109,350.408 268.776,350.574 266.5,350C 267.649,352.459 267.649,354.959 266.5,357.5C 265.167,357.5 263.833,357.5 262.5,357.5C 264.565,355.102 264.898,352.435 263.5,349.5C 262.534,351.396 262.201,353.396 262.5,355.5C 261.5,355.5 260.5,355.5 259.5,355.5C 258.833,347.5 258.167,347.5 257.5,355.5C 256.778,355.082 256.278,354.416 256,353.5C 255.722,354.416 255.222,355.082 254.5,355.5C 254.264,352.391 254.597,349.391 255.5,346.5C 258.85,346.665 262.183,346.498 265.5,346C 266.066,345.005 266.733,344.172 267.5,343.5 Z"/></g>
<g><path style="opacity:1" fill="#e67457" d="M 227.5,353.5 C 227.5,354.5 227.5,355.5 227.5,356.5C 226.167,356.5 224.833,356.5 223.5,356.5C 220.884,355.52 218.551,354.02 216.5,352C 215.207,351.51 213.873,351.343 212.5,351.5C 211.167,349.5 209.5,347.833 207.5,346.5C 207.5,345.833 207.5,345.167 207.5,344.5C 207.56,343.957 207.893,343.624 208.5,343.5C 213.333,345.243 218.333,345.91 223.5,345.5C 224.42,347.881 224.42,350.214 223.5,352.5C 224.689,353.429 226.022,353.762 227.5,353.5 Z"/></g>
<g><path style="opacity:1" fill="#d94774" d="M 246.5,349.5 C 246.5,349.833 246.5,350.167 246.5,350.5C 243.567,352.583 240.4,352.916 237,351.5C 235.715,351.95 234.548,352.617 233.5,353.5C 233.167,353 232.833,352.5 232.5,352C 233.439,350.056 234.773,348.389 236.5,347C 239.817,346.502 243.15,346.335 246.5,346.5C 246.5,347.5 246.5,348.5 246.5,349.5 Z"/></g>
<g><path style="opacity:1" fill="#d59b8c" d="M 273.5,349.5 C 272.178,351.802 272.178,354.135 273.5,356.5C 271.262,356.277 268.928,356.61 266.5,357.5C 267.649,354.959 267.649,352.459 266.5,350C 268.776,350.574 271.109,350.408 273.5,349.5 Z"/></g>
<g><path style="opacity:1" fill="#c25071" d="M 244.5,344.5 C 245.609,344.557 246.609,344.89 247.5,345.5C 247.768,347.099 247.434,348.432 246.5,349.5C 246.5,348.5 246.5,347.5 246.5,346.5C 243.15,346.335 239.817,346.502 236.5,347C 234.773,348.389 233.439,350.056 232.5,352C 232.833,352.5 233.167,353 233.5,353.5C 234.548,352.617 235.715,351.95 237,351.5C 240.4,352.916 243.567,352.583 246.5,350.5C 242.775,356.13 237.775,357.63 231.5,355C 230.663,353.989 230.33,352.822 230.5,351.5C 230.799,349.545 231.799,348.211 233.5,347.5C 236.726,345.123 240.393,344.123 244.5,344.5 Z"/></g>
<g><path style="opacity:1" fill="#843037" d="M 247.5,345.5 C 248.167,345.5 248.833,345.5 249.5,345.5C 249.422,351.161 246.756,354.995 241.5,357C 236.01,358.504 231.343,357.337 227.5,353.5C 227.5,353.167 227.5,352.833 227.5,352.5C 228.609,352.443 229.609,352.11 230.5,351.5C 230.33,352.822 230.663,353.989 231.5,355C 237.775,357.63 242.775,356.13 246.5,350.5C 246.5,350.167 246.5,349.833 246.5,349.5C 247.434,348.432 247.768,347.099 247.5,345.5 Z"/></g>
<g><path style="opacity:1" fill="#c69178" d="M 262.5,357.5 C 260.302,357.88 258.635,357.213 257.5,355.5C 258.167,347.5 258.833,347.5 259.5,355.5C 260.5,355.5 261.5,355.5 262.5,355.5C 262.201,353.396 262.534,351.396 263.5,349.5C 264.898,352.435 264.565,355.102 262.5,357.5 Z"/></g>
<g><path style="opacity:1" fill="#de8f7e" d="M 212.5,351.5 C 213.873,351.343 215.207,351.51 216.5,352C 218.551,354.02 220.884,355.52 223.5,356.5C 225.09,358.234 227.09,359.4 229.5,360C 234.155,360.499 238.821,360.666 243.5,360.5C 231.431,363.64 221.097,360.64 212.5,351.5 Z"/></g>
<g><path style="opacity:1" fill="#db7461" d="M 249.5,345.5 C 251.735,345.205 253.735,345.539 255.5,346.5C 254.597,349.391 254.264,352.391 254.5,355.5C 251.109,357.743 247.442,359.41 243.5,360.5C 238.821,360.666 234.155,360.499 229.5,360C 227.09,359.4 225.09,358.234 223.5,356.5C 224.833,356.5 226.167,356.5 227.5,356.5C 227.5,355.5 227.5,354.5 227.5,353.5C 231.343,357.337 236.01,358.504 241.5,357C 246.756,354.995 249.422,351.161 249.5,345.5 Z"/></g>
<g><path style="opacity:1" fill="#e8c792" d="M 308.5,287.5 C 309.497,309.327 309.831,331.327 309.5,353.5C 308.639,357.026 307.306,360.359 305.5,363.5C 302.489,364.853 299.489,366.186 296.5,367.5C 298.789,365.552 301.122,363.552 303.5,361.5C 305,359.167 306.5,356.833 308,354.5C 308.5,332.169 308.667,309.836 308.5,287.5 Z"/></g>
<g><path style="opacity:1" fill="#f8e8c0" d="M 187.5,369.5 C 188.978,369.238 190.311,369.571 191.5,370.5C 196.509,373.145 201.176,376.145 205.5,379.5C 198.925,377.096 192.925,373.763 187.5,369.5 Z"/></g>
<g><path style="opacity:1" fill="#e3b664" d="M 279.5,377.5 C 278.402,378.397 278.402,379.23 279.5,380C 276.953,380.552 274.953,381.886 273.5,384C 272.207,384.49 270.873,384.657 269.5,384.5C 269.5,385.5 269.5,386.5 269.5,387.5C 267.167,387.5 264.833,387.5 262.5,387.5C 263.833,386.167 265.167,384.833 266.5,383.5C 270.683,381.243 275.016,379.243 279.5,377.5 Z"/></g>
<g><path style="opacity:1" fill="#e2c380" d="M 207.5,381.5 C 212.692,382.922 217.025,385.588 220.5,389.5C 216.241,387.533 211.907,385.866 207.5,384.5C 207.5,383.5 207.5,382.5 207.5,381.5 Z"/></g>
<g><path style="opacity:1" fill="#f9efd1" d="M 266.5,383.5 C 265.167,384.833 263.833,386.167 262.5,387.5C 258.146,389.902 253.813,392.402 249.5,395C 243.558,396.406 237.558,396.739 231.5,396C 230.269,394.595 228.936,393.429 227.5,392.5C 232.435,393.758 237.435,394.258 242.5,394C 246.88,392.822 251.213,391.488 255.5,390C 258.167,388.667 260.167,386.667 261.5,384C 263.134,383.506 264.801,383.34 266.5,383.5 Z"/></g>
<g><path style="opacity:1" fill="#ecb553" d="M 231.5,415.5 C 231.703,417.044 232.37,418.378 233.5,419.5C 232.352,421.149 231.019,422.649 229.5,424C 230.025,424.692 230.692,425.192 231.5,425.5C 232.833,424.167 234.167,422.833 235.5,421.5C 238.019,423.359 238.019,425.359 235.5,427.5C 233.343,428.05 231.343,428.717 229.5,429.5C 220.651,429.174 211.984,429.507 203.5,430.5C 203.5,440.5 203.5,450.5 203.5,460.5C 202.21,459.942 201.377,458.942 201,457.5C 199.883,458.949 199.216,460.616 199,462.5C 198.25,463.126 197.416,463.626 196.5,464C 190.934,462.779 185.434,462.279 180,462.5C 176.275,465.297 175.608,464.63 178,460.5C 179.487,461.741 180.32,461.241 180.5,459C 180.227,457.467 179.894,455.967 179.5,454.5C 182.044,455.708 183.378,457.708 183.5,460.5C 186.167,460.5 188.833,460.5 191.5,460.5C 191.017,457.342 190.017,454.342 188.5,451.5C 187.653,448.84 187.153,446.174 187,443.5C 188.264,441.393 190.097,440.393 192.5,440.5C 192.952,437.124 193.618,433.791 194.5,430.5C 190.685,429.192 187.019,429.192 183.5,430.5C 182.35,433.138 180.517,435.138 178,436.5C 176.69,435.87 175.856,434.87 175.5,433.5C 175.5,432.167 175.5,430.833 175.5,429.5C 168.159,429.334 160.826,429.5 153.5,430C 152.684,437.421 152.184,444.921 152,452.5C 149.618,453.866 147.452,453.533 145.5,451.5C 144.833,444.679 144.167,438.012 143.5,431.5C 143.5,431.167 143.5,430.833 143.5,430.5C 141.105,429.186 138.605,429.186 136,430.5C 135.178,438.345 135.344,446.011 136.5,453.5C 139.704,460.96 145.371,463.627 153.5,461.5C 151.696,462.162 149.696,462.495 147.5,462.5C 142.926,462.171 138.593,461.337 134.5,460C 135.5,460.833 136.5,461.667 137.5,462.5C 136.05,463.85 135.383,465.516 135.5,467.5C 134.167,467.5 132.833,467.5 131.5,467.5C 131.5,466.167 131.5,464.833 131.5,463.5C 128.833,463.5 126.167,463.5 123.5,463.5C 123.5,460.833 123.5,458.167 123.5,455.5C 127.347,455.619 131.014,454.953 134.5,453.5C 134.334,445.493 134.5,437.493 135,429.5C 138.411,428.707 141.911,428.207 145.5,428C 142.361,427.246 139.361,426.246 136.5,425C 141.976,422.535 146.81,423.368 151,427.5C 151.617,426.551 151.451,425.718 150.5,425C 151.09,423.701 152.09,422.868 153.5,422.5C 155.453,423.156 157.453,423.489 159.5,423.5C 159.5,420.833 159.5,418.167 159.5,415.5C 163.5,415.5 167.5,415.5 171.5,415.5C 172.037,418.972 171.037,421.805 168.5,424C 171.468,426.135 173.968,425.635 176,422.5C 177.584,422.988 178.751,423.988 179.5,425.5C 182.149,422.961 184.816,422.961 187.5,425.5C 189.578,423.014 192.245,422.014 195.5,422.5C 195.5,420.167 195.5,417.833 195.5,415.5C 201.168,415.677 206.501,417.011 211.5,419.5C 213.937,419.402 215.937,418.402 217.5,416.5C 222.12,415.507 226.786,415.173 231.5,415.5 Z"/></g>
<g><path style="opacity:1" fill="#eab358" d="M 231.5,415.5 C 233.044,415.703 234.378,416.37 235.5,417.5C 239.5,414.833 240.167,415.5 237.5,419.5C 240.923,422.42 241.256,425.587 238.5,429C 239,429.5 239.5,430 240,430.5C 240.499,435.823 240.666,441.156 240.5,446.5C 242.833,446.5 245.167,446.5 247.5,446.5C 247.5,447.5 247.5,448.5 247.5,449.5C 240.032,450.019 239.866,450.685 247,451.5C 249.379,451.346 251.546,450.68 253.5,449.5C 254.37,444.841 255.203,440.175 256,435.5C 256.667,434.167 257.333,434.167 258,435.5C 258.912,433.341 259.745,431.175 260.5,429C 265.167,428.667 269.833,428.333 274.5,428C 271.786,426.206 268.786,425.04 265.5,424.5C 268.68,423.101 271.847,422.768 275,423.5C 275.49,424.793 275.657,426.127 275.5,427.5C 280.695,427.179 285.695,427.513 290.5,428.5C 287.881,428.232 285.381,428.565 283,429.5C 282.667,438.167 282.333,446.833 282,455.5C 281.878,453.563 281.045,452.23 279.5,451.5C 278.131,447.336 276.465,443.336 274.5,439.5C 273.616,436.977 272.782,434.31 272,431.5C 268.108,429.933 264.442,430.267 261,432.5C 260.302,435.004 259.469,437.337 258.5,439.5C 256.533,443.146 255.366,447.146 255,451.5C 254,452.5 253,453.5 252,454.5C 247.263,453.531 242.43,453.197 237.5,453.5C 237.5,451.5 237.5,449.5 237.5,447.5C 238.652,442.015 238.818,436.349 238,430.5C 235.281,429.556 232.448,429.223 229.5,429.5C 231.343,428.717 233.343,428.05 235.5,427.5C 238.019,425.359 238.019,423.359 235.5,421.5C 234.167,422.833 232.833,424.167 231.5,425.5C 230.692,425.192 230.025,424.692 229.5,424C 231.019,422.649 232.352,421.149 233.5,419.5C 232.37,418.378 231.703,417.044 231.5,415.5 Z"/></g>
<g><path style="opacity:1" fill="#e2b86a" d="M 290.5,428.5 C 290.5,428.833 290.5,429.167 290.5,429.5C 288.208,429.244 286.041,429.577 284,430.5C 283.833,435.5 283.667,440.5 283.5,445.5C 283.506,450.881 284.172,455.881 285.5,460.5C 287.5,460.5 289.5,460.5 291.5,460.5C 288.913,461.816 285.913,462.483 282.5,462.5C 279.5,462.333 276.5,462.167 273.5,462C 271.845,460.556 271.178,458.722 271.5,456.5C 268.15,456.335 264.817,456.502 261.5,457C 260.915,458.302 260.249,459.469 259.5,460.5C 259.286,458.856 259.62,457.356 260.5,456C 264.541,455.173 268.541,455.34 272.5,456.5C 274.486,459.843 277.486,461.176 281.5,460.5C 281.127,457.426 280.461,454.426 279.5,451.5C 281.045,452.23 281.878,453.563 282,455.5C 282.333,446.833 282.667,438.167 283,429.5C 285.381,428.565 287.881,428.232 290.5,428.5 Z"/></g>
<g><path style="opacity:1" fill="#e5c37e" d="M 203.5,430.5 C 211.984,429.507 220.651,429.174 229.5,429.5C 232.448,429.223 235.281,429.556 238,430.5C 238.818,436.349 238.652,442.015 237.5,447.5C 237.666,442.156 237.499,436.823 237,431.5C 234.619,430.565 232.119,430.232 229.5,430.5C 229.5,440.5 229.5,450.5 229.5,460.5C 228.508,453.018 228.175,445.352 228.5,437.5C 223.12,437.324 217.787,437.658 212.5,438.5C 212.5,439.833 212.5,441.167 212.5,442.5C 216.371,442.185 220.038,442.518 223.5,443.5C 219.5,443.5 215.5,443.5 211.5,443.5C 211.5,441.167 211.5,438.833 211.5,436.5C 216.167,436.5 220.833,436.5 225.5,436.5C 225.5,434.5 225.5,432.5 225.5,430.5C 218.167,430.5 210.833,430.5 203.5,430.5 Z"/></g>
<g><path style="opacity:1" fill="#f0daa6" d="M 143.5,430.5 C 141.208,430.244 139.041,430.577 137,431.5C 136.5,438.826 136.334,446.159 136.5,453.5C 135.344,446.011 135.178,438.345 136,430.5C 138.605,429.186 141.105,429.186 143.5,430.5 Z"/></g>
<g><path style="opacity:1" fill="#fcf1ce" d="M 203.5,430.5 C 210.833,430.5 218.167,430.5 225.5,430.5C 225.5,432.5 225.5,434.5 225.5,436.5C 220.833,436.5 216.167,436.5 211.5,436.5C 215.634,435.515 219.968,435.182 224.5,435.5C 224.67,434.178 224.337,433.011 223.5,432C 217.175,431.5 210.842,431.334 204.5,431.5C 204.5,440.833 204.5,450.167 204.5,459.5C 206.5,459.5 208.5,459.5 210.5,459.5C 210.5,456.167 210.5,452.833 210.5,449.5C 214.785,448.705 219.119,448.372 223.5,448.5C 223.5,447.167 223.5,445.833 223.5,444.5C 219.298,444.817 215.298,444.483 211.5,443.5C 215.5,443.5 219.5,443.5 223.5,443.5C 224.468,445.607 224.802,447.941 224.5,450.5C 220.167,450.5 215.833,450.5 211.5,450.5C 211.5,453.833 211.5,457.167 211.5,460.5C 208.833,460.5 206.167,460.5 203.5,460.5C 203.5,450.5 203.5,440.5 203.5,430.5 Z"/></g>
<g><path style="opacity:1" fill="#fcfdf7" d="M 211.5,436.5 C 211.5,438.833 211.5,441.167 211.5,443.5C 215.298,444.483 219.298,444.817 223.5,444.5C 223.5,445.833 223.5,447.167 223.5,448.5C 219.119,448.372 214.785,448.705 210.5,449.5C 210.5,452.833 210.5,456.167 210.5,459.5C 208.5,459.5 206.5,459.5 204.5,459.5C 204.5,450.167 204.5,440.833 204.5,431.5C 210.842,431.334 217.175,431.5 223.5,432C 224.337,433.011 224.67,434.178 224.5,435.5C 219.968,435.182 215.634,435.515 211.5,436.5 Z"/></g>
<g><path style="opacity:1" fill="#fcfbf3" d="M 274.5,439.5 C 274.674,444.093 275.674,448.426 277.5,452.5C 271.627,454.069 265.627,454.902 259.5,455C 258.62,456.356 258.286,457.856 258.5,459.5C 256.833,459.5 255.167,459.5 253.5,459.5C 256.008,453.189 257.674,446.522 258.5,439.5C 259.469,437.337 260.302,435.004 261,432.5C 264.442,430.267 268.108,429.933 272,431.5C 272.782,434.31 273.616,436.977 274.5,439.5 Z"/></g>
<g><path style="opacity:1" fill="#fbfdf6" d="M 307.5,431.5 C 309.167,431.5 310.833,431.5 312.5,431.5C 312.5,440.833 312.5,450.167 312.5,459.5C 310.833,459.5 309.167,459.5 307.5,459.5C 307.819,454.637 307.486,449.97 306.5,445.5C 305.504,445.414 304.671,445.748 304,446.5C 303.626,448.491 302.793,450.158 301.5,451.5C 300.127,451.657 298.793,451.49 297.5,451C 296.87,449.108 295.87,447.441 294.5,446C 302.157,444.175 306.49,439.342 307.5,431.5 Z"/></g>
<g><path style="opacity:1" fill="#eab356" d="M 341.5,453.5 C 336.833,453.5 332.167,453.5 327.5,453.5C 327.5,452.167 327.5,450.833 327.5,449.5C 331.902,449.772 336.235,449.439 340.5,448.5C 340.833,447.5 341.167,446.5 341.5,445.5C 341.36,443.97 340.693,442.97 339.5,442.5C 335.702,441.517 331.702,441.183 327.5,441.5C 327.5,440.167 327.5,438.833 327.5,437.5C 332.363,437.819 337.03,437.486 341.5,436.5C 341.795,434.265 341.461,432.265 340.5,430.5C 333.098,429.173 325.598,429.173 318,430.5C 317.5,440.828 317.334,451.161 317.5,461.5C 316.833,461.167 316.167,460.833 315.5,460.5C 315.666,450.494 315.5,440.494 315,430.5C 312.263,429.39 309.429,429.223 306.5,430C 305.748,430.671 305.414,431.504 305.5,432.5C 303.528,436.3 301.361,439.967 299,443.5C 295.839,439.213 293.006,434.88 290.5,430.5C 290.5,430.167 290.5,429.833 290.5,429.5C 293.315,431.715 296.148,434.049 299,436.5C 299.333,435.833 299.667,435.167 300,434.5C 300.893,435.711 301.726,435.711 302.5,434.5C 301.125,432.624 299.958,430.624 299,428.5C 298.28,426.888 298.446,425.388 299.5,424C 301.821,423.163 304.155,422.83 306.5,423C 306.957,423.414 307.291,423.914 307.5,424.5C 304.965,427.679 305.965,429.012 310.5,428.5C 311.833,428.333 313.167,428.167 314.5,428C 314.043,427.586 313.709,427.086 313.5,426.5C 314.689,425.571 316.022,425.238 317.5,425.5C 317.5,426.5 317.5,427.5 317.5,428.5C 325.507,428.334 333.507,428.5 341.5,429C 343.211,430.435 344.378,432.269 345,434.5C 345.333,434.167 345.667,433.833 346,433.5C 347.401,435.192 349.234,435.859 351.5,435.5C 352.013,440.085 351.346,444.418 349.5,448.5C 347.157,449.725 345.323,449.059 344,446.5C 343.682,448.061 342.849,449.228 341.5,450C 324.496,450.887 324.496,452.053 341.5,453.5 Z"/></g>
<g><path style="opacity:1" fill="#fcfcf4" d="M 187.5,451.5 C 187.833,451.5 188.167,451.5 188.5,451.5C 190.017,454.342 191.017,457.342 191.5,460.5C 188.833,460.5 186.167,460.5 183.5,460.5C 183.378,457.708 182.044,455.708 179.5,454.5C 179.483,452.972 178.816,452.472 177.5,453C 174.758,454.886 173.091,457.386 172.5,460.5C 170.167,460.5 167.833,460.5 165.5,460.5C 167.557,454.719 169.89,449.053 172.5,443.5C 171.323,439.802 169.99,436.136 168.5,432.5C 172.833,432.167 174.833,434.167 174.5,438.5C 177.025,439.64 179.692,440.307 182.5,440.5C 182.067,445.229 183.734,448.896 187.5,451.5 Z"/></g>
<g><path style="opacity:1" fill="#fbf4df" d="M 175.5,433.5 C 175.856,434.87 176.69,435.87 178,436.5C 180.517,435.138 182.35,433.138 183.5,430.5C 186.167,430.5 188.833,430.5 191.5,430.5C 189.431,435.637 187.098,440.637 184.5,445.5C 185.519,447.511 186.519,449.511 187.5,451.5C 183.734,448.896 182.067,445.229 182.5,440.5C 179.692,440.307 177.025,439.64 174.5,438.5C 174.833,434.167 172.833,432.167 168.5,432.5C 169.99,436.136 171.323,439.802 172.5,443.5C 170.833,441.5 169.167,439.5 167.5,437.5C 166.545,435.254 165.878,432.921 165.5,430.5C 169.433,429.857 172.766,430.857 175.5,433.5 Z"/></g>
<g><path style="opacity:1" fill="#fef9e0" d="M 340.5,430.5 C 341.461,432.265 341.795,434.265 341.5,436.5C 336.5,436.5 331.5,436.5 326.5,436.5C 326.5,438.5 326.5,440.5 326.5,442.5C 330.833,442.5 335.167,442.5 339.5,442.5C 340.301,444.042 340.634,445.708 340.5,447.5C 335.833,447.5 331.167,447.5 326.5,447.5C 330.298,446.517 334.298,446.183 338.5,446.5C 338.5,445.5 338.5,444.5 338.5,443.5C 334.524,444.331 330.524,444.497 326.5,444C 324.242,441.275 323.909,438.275 325.5,435C 330.202,434.828 334.868,434.328 339.5,433.5C 333.202,432.504 326.868,432.17 320.5,432.5C 320.5,441.5 320.5,450.5 320.5,459.5C 327.167,459.5 333.833,459.5 340.5,459.5C 340.5,458.167 340.5,456.833 340.5,455.5C 341.451,456.919 341.784,458.585 341.5,460.5C 334.167,460.5 326.833,460.5 319.5,460.5C 319.5,450.5 319.5,440.5 319.5,430.5C 326.5,430.5 333.5,430.5 340.5,430.5 Z"/></g>
<g><path style="opacity:1" fill="#fcf8e4" d="M 290.5,430.5 C 293.006,434.88 295.839,439.213 299,443.5C 301.361,439.967 303.528,436.3 305.5,432.5C 306.167,432.167 306.833,431.833 307.5,431.5C 306.49,439.342 302.157,444.175 294.5,446C 295.87,447.441 296.87,449.108 297.5,451C 298.793,451.49 300.127,451.657 301.5,451.5C 300.796,453.344 299.463,453.844 297.5,453C 296.035,449.954 294.201,447.121 292,444.5C 291.501,449.489 291.334,454.489 291.5,459.5C 291.5,459.833 291.5,460.167 291.5,460.5C 289.5,460.5 287.5,460.5 285.5,460.5C 284.361,450.911 284.194,441.244 285,431.5C 286.699,430.594 288.533,430.261 290.5,430.5 Z"/></g>
<g><path style="opacity:1" fill="#e4c894" d="M 341.5,436.5 C 337.03,437.486 332.363,437.819 327.5,437.5C 327.5,438.833 327.5,440.167 327.5,441.5C 331.702,441.183 335.702,441.517 339.5,442.5C 335.167,442.5 330.833,442.5 326.5,442.5C 326.5,440.5 326.5,438.5 326.5,436.5C 331.5,436.5 336.5,436.5 341.5,436.5 Z"/></g>
<g><path style="opacity:1" fill="#e4b766" d="M 229.5,460.5 C 239.5,460.5 249.5,460.5 259.5,460.5C 258.817,462.176 257.483,462.843 255.5,462.5C 246.494,462.666 237.494,462.5 228.5,462C 227.695,457.251 227.195,452.418 227,447.5C 225.812,448.563 225.312,449.897 225.5,451.5C 221.5,451.5 217.5,451.5 213.5,451.5C 213.82,454.898 213.487,458.232 212.5,461.5C 209.579,462.407 206.579,462.74 203.5,462.5C 203.5,461.833 203.5,461.167 203.5,460.5C 206.167,460.5 208.833,460.5 211.5,460.5C 211.5,457.167 211.5,453.833 211.5,450.5C 215.833,450.5 220.167,450.5 224.5,450.5C 224.802,447.941 224.468,445.607 223.5,443.5C 220.038,442.518 216.371,442.185 212.5,442.5C 212.5,441.167 212.5,439.833 212.5,438.5C 217.787,437.658 223.12,437.324 228.5,437.5C 228.175,445.352 228.508,453.018 229.5,460.5 Z"/></g>
<g><path style="opacity:1" fill="#fcfdfa" d="M 326.5,447.5 C 326.232,450.119 326.565,452.619 327.5,455C 331.821,455.499 336.154,455.666 340.5,455.5C 340.5,456.833 340.5,458.167 340.5,459.5C 333.833,459.5 327.167,459.5 320.5,459.5C 320.5,450.5 320.5,441.5 320.5,432.5C 326.868,432.17 333.202,432.504 339.5,433.5C 334.868,434.328 330.202,434.828 325.5,435C 323.909,438.275 324.242,441.275 326.5,444C 330.524,444.497 334.524,444.331 338.5,443.5C 338.5,444.5 338.5,445.5 338.5,446.5C 334.298,446.183 330.298,446.517 326.5,447.5 Z"/></g>
<g><path style="opacity:1" fill="#e3b96a" d="M 183.5,430.5 C 187.019,429.192 190.685,429.192 194.5,430.5C 193.618,433.791 192.952,437.124 192.5,440.5C 190.097,440.393 188.264,441.393 187,443.5C 187.153,446.174 187.653,448.84 188.5,451.5C 188.167,451.5 187.833,451.5 187.5,451.5C 186.519,449.511 185.519,447.511 184.5,445.5C 187.098,440.637 189.431,435.637 191.5,430.5C 188.833,430.5 186.167,430.5 183.5,430.5 Z"/></g>
<g><path style="opacity:1" fill="#eedaa8" d="M 339.5,442.5 C 340.693,442.97 341.36,443.97 341.5,445.5C 341.167,446.5 340.833,447.5 340.5,448.5C 336.235,449.439 331.902,449.772 327.5,449.5C 327.5,450.833 327.5,452.167 327.5,453.5C 332.167,453.5 336.833,453.5 341.5,453.5C 342.756,455.941 342.756,458.274 341.5,460.5C 341.784,458.585 341.451,456.919 340.5,455.5C 336.154,455.666 331.821,455.499 327.5,455C 326.565,452.619 326.232,450.119 326.5,447.5C 331.167,447.5 335.833,447.5 340.5,447.5C 340.634,445.708 340.301,444.042 339.5,442.5 Z"/></g>
<g><path style="opacity:1" fill="#ecd5a0" d="M 290.5,429.5 C 290.5,429.833 290.5,430.167 290.5,430.5C 288.533,430.261 286.699,430.594 285,431.5C 284.194,441.244 284.361,450.911 285.5,460.5C 284.172,455.881 283.506,450.881 283.5,445.5C 283.667,440.5 283.833,435.5 284,430.5C 286.041,429.577 288.208,429.244 290.5,429.5 Z"/></g>
<g><path style="opacity:1" fill="#fcf6db" d="M 307.5,431.5 C 309.265,430.539 311.265,430.205 313.5,430.5C 313.5,440.833 313.5,451.167 313.5,461.5C 311.167,461.5 308.833,461.5 306.5,461.5C 306.5,456.167 306.5,450.833 306.5,445.5C 307.486,449.97 307.819,454.637 307.5,459.5C 309.167,459.5 310.833,459.5 312.5,459.5C 312.5,450.167 312.5,440.833 312.5,431.5C 310.833,431.5 309.167,431.5 307.5,431.5 Z"/></g>
<g><path style="opacity:1" fill="#ebb452" d="M 255.5,462.5 C 255.389,463.117 255.056,463.617 254.5,464C 250.848,464.499 247.182,464.665 243.5,464.5C 243.5,466.833 243.5,469.167 243.5,471.5C 247.63,471.534 251.63,472.201 255.5,473.5C 255.5,475.5 255.5,477.5 255.5,479.5C 257.39,479.703 258.89,479.037 260,477.5C 262.574,479.002 265.407,480.002 268.5,480.5C 268.977,481.931 269.643,483.264 270.5,484.5C 273.421,483.593 276.421,483.26 279.5,483.5C 279.859,485.766 279.192,487.599 277.5,489C 278.381,489.708 279.047,490.542 279.5,491.5C 276.196,493.037 274.029,495.704 273,499.5C 267.056,489.118 265.223,490.451 267.5,503.5C 270.193,501.73 273.193,501.063 276.5,501.5C 276.088,503.973 277.088,505.306 279.5,505.5C 278.365,507.213 276.698,507.88 274.5,507.5C 274.5,506.167 274.5,504.833 274.5,503.5C 273.448,503.351 272.448,503.517 271.5,504C 273.291,506.106 273.958,508.606 273.5,511.5C 269.433,510.659 266.433,511.993 264.5,515.5C 263.534,513.604 263.201,511.604 263.5,509.5C 261.876,509.36 260.71,510.027 260,511.5C 259.503,508.854 259.336,506.187 259.5,503.5C 256.712,503.077 254.712,504.077 253.5,506.5C 248.88,507.493 244.214,507.827 239.5,507.5C 239.5,508.833 239.5,510.167 239.5,511.5C 238.167,511.5 236.833,511.5 235.5,511.5C 235.5,512.833 235.5,514.167 235.5,515.5C 234.167,515.5 232.833,515.5 231.5,515.5C 231.374,513.8 230.707,512.3 229.5,511C 229.759,509.739 230.426,508.739 231.5,508C 225.159,507.904 218.825,507.071 212.5,505.5C 213.823,502.289 215.99,501.289 219,502.5C 219.483,503.448 219.649,504.448 219.5,505.5C 222.163,505.101 224.663,505.101 227,505.5C 228.876,504.381 229.709,502.714 229.5,500.5C 231.199,500.66 232.866,500.494 234.5,500C 235.833,498.667 235.833,497.333 234.5,496C 233.128,495.598 231.795,495.098 230.5,494.5C 229.808,495.025 229.308,495.692 229,496.5C 228.51,495.207 228.343,493.873 228.5,492.5C 230.527,492.662 232.527,492.495 234.5,492C 231.854,491.503 229.187,491.336 226.5,491.5C 226.11,494.839 225.61,498.173 225,501.5C 224,502.167 223,502.833 222,503.5C 220.549,499.304 220.049,495.137 220.5,491C 218.193,490.729 217.026,491.895 217,494.5C 216.626,493.584 216.126,492.75 215.5,492C 211.848,491.501 208.182,491.335 204.5,491.5C 204.896,494.482 204.229,497.149 202.5,499.5C 201.914,499.291 201.414,498.957 201,498.5C 200.667,496.5 200.333,494.5 200,492.5C 198.708,491.209 197.542,491.209 196.5,492.5C 195.081,495.596 194.081,498.929 193.5,502.5C 191.604,503.466 189.604,503.799 187.5,503.5C 188.527,500.076 189.86,496.742 191.5,493.5C 190.833,490.167 188.833,488.833 185.5,489.5C 187.235,486.933 189.235,486.933 191.5,489.5C 192.308,489.192 192.975,488.692 193.5,488C 191.625,485.802 191.625,483.969 193.5,482.5C 193.167,481.833 192.833,481.167 192.5,480.5C 197.456,479.506 202.456,479.173 207.5,479.5C 206.769,483.603 207.769,487.103 210.5,490C 214.157,489.733 217.823,488.9 221.5,487.5C 221.167,490.5 222.5,491.833 225.5,491.5C 224.056,482.585 223.222,473.585 223,464.5C 216.888,463.55 210.888,463.55 205,464.5C 204.283,463.956 203.783,463.289 203.5,462.5C 206.579,462.74 209.579,462.407 212.5,461.5C 213.487,458.232 213.82,454.898 213.5,451.5C 217.5,451.5 221.5,451.5 225.5,451.5C 225.312,449.897 225.812,448.563 227,447.5C 227.195,452.418 227.695,457.251 228.5,462C 237.494,462.5 246.494,462.666 255.5,462.5 Z"/></g>
<g><path style="opacity:1" fill="#fbfbfb" d="M 286.5,431.5 C 290.29,430.953 292.29,432.62 292.5,436.5C 291.885,438.116 290.885,439.449 289.5,440.5C 290.457,446.439 290.79,452.439 290.5,458.5C 288.801,458.66 287.134,458.494 285.5,458C 286.484,449.251 286.817,440.418 286.5,431.5 Z"/></g>
<g><path style="opacity:1" fill="#fdfbf1" d="M 143.5,430.5 C 143.5,430.833 143.5,431.167 143.5,431.5C 143.334,438.841 143.5,446.174 144,453.5C 147.164,456.112 150.331,456.112 153.5,453.5C 154.117,453.389 154.617,453.056 155,452.5C 155.333,445.833 155.667,439.167 156,432.5C 157.356,431.62 158.856,431.286 160.5,431.5C 160.5,439.5 160.5,447.5 160.5,455.5C 159.512,456.795 158.512,458.128 157.5,459.5C 155.847,459.66 154.514,460.326 153.5,461.5C 145.371,463.627 139.704,460.96 136.5,453.5C 136.334,446.159 136.5,438.826 137,431.5C 139.041,430.577 141.208,430.244 143.5,430.5 Z"/></g>
<g><path style="opacity:1" fill="#e4bc77" d="M 315.5,460.5 C 315.5,461.5 315.5,462.5 315.5,463.5C 312.187,462.955 308.854,462.455 305.5,462C 304.718,459.26 304.218,456.426 304,453.5C 300.025,455.129 296.525,454.463 293.5,451.5C 292.832,454.306 292.166,456.972 291.5,459.5C 291.334,454.489 291.501,449.489 292,444.5C 294.201,447.121 296.035,449.954 297.5,453C 299.463,453.844 300.796,453.344 301.5,451.5C 302.793,450.158 303.626,448.491 304,446.5C 304.671,445.748 305.504,445.414 306.5,445.5C 306.5,450.833 306.5,456.167 306.5,461.5C 308.833,461.5 311.167,461.5 313.5,461.5C 313.5,451.167 313.5,440.833 313.5,430.5C 311.265,430.205 309.265,430.539 307.5,431.5C 306.833,431.833 306.167,432.167 305.5,432.5C 305.414,431.504 305.748,430.671 306.5,430C 309.429,429.223 312.263,429.39 315,430.5C 315.5,440.494 315.666,450.494 315.5,460.5 Z"/></g>
<g><path style="opacity:1" fill="#e5c782" d="M 340.5,430.5 C 333.5,430.5 326.5,430.5 319.5,430.5C 319.5,440.5 319.5,450.5 319.5,460.5C 326.833,460.5 334.167,460.5 341.5,460.5C 333.684,461.492 325.684,461.826 317.5,461.5C 317.334,451.161 317.5,440.828 318,430.5C 325.598,429.173 333.098,429.173 340.5,430.5 Z"/></g>
<g><path style="opacity:1" fill="#fbf4d8" d="M 237.5,447.5 C 237.5,449.5 237.5,451.5 237.5,453.5C 242.43,453.197 247.263,453.531 252,454.5C 253,453.5 254,452.5 255,451.5C 255.366,447.146 256.533,443.146 258.5,439.5C 257.674,446.522 256.008,453.189 253.5,459.5C 255.167,459.5 256.833,459.5 258.5,459.5C 258.286,457.856 258.62,456.356 259.5,455C 265.627,454.902 271.627,454.069 277.5,452.5C 275.674,448.426 274.674,444.093 274.5,439.5C 276.465,443.336 278.131,447.336 279.5,451.5C 280.461,454.426 281.127,457.426 281.5,460.5C 277.486,461.176 274.486,459.843 272.5,456.5C 268.541,455.34 264.541,455.173 260.5,456C 259.62,457.356 259.286,458.856 259.5,460.5C 249.5,460.5 239.5,460.5 229.5,460.5C 229.5,450.5 229.5,440.5 229.5,430.5C 232.119,430.232 234.619,430.565 237,431.5C 237.499,436.823 237.666,442.156 237.5,447.5 Z"/></g>
<g><path style="opacity:1" fill="#fdfdf7" d="M 237.5,453.5 C 241.386,455.275 245.72,456.108 250.5,456C 251.337,457.011 251.67,458.178 251.5,459.5C 244.5,459.5 237.5,459.5 230.5,459.5C 230.786,450.498 231.119,441.498 231.5,432.5C 232.833,432.5 234.167,432.5 235.5,432.5C 235.112,439.747 235.779,446.747 237.5,453.5 Z"/></g>
<g><path style="opacity:1" fill="#ebd3a4" d="M 264.5,439.5 C 266.144,439.286 267.644,439.62 269,440.5C 269.498,443.482 269.665,446.482 269.5,449.5C 267.5,449.5 265.5,449.5 263.5,449.5C 263.46,446.119 263.793,442.786 264.5,439.5 Z"/></g>
<g><path style="opacity:1" fill="#dfb467" d="M 265.5,440.5 C 266.496,440.414 267.329,440.748 268,441.5C 268.497,443.81 268.663,446.143 268.5,448.5C 266.654,448.778 265.32,448.111 264.5,446.5C 265.348,444.591 265.682,442.591 265.5,440.5 Z"/></g>
<g><path style="opacity:1" fill="#e3bf77" d="M 175.5,433.5 C 172.766,430.857 169.433,429.857 165.5,430.5C 165.878,432.921 166.545,435.254 167.5,437.5C 169.167,439.5 170.833,441.5 172.5,443.5C 169.89,449.053 167.557,454.719 165.5,460.5C 167.833,460.5 170.167,460.5 172.5,460.5C 173.091,457.386 174.758,454.886 177.5,453C 178.816,452.472 179.483,452.972 179.5,454.5C 178.504,454.414 177.671,454.748 177,455.5C 175.444,461.529 171.61,463.696 165.5,462C 163.694,461.19 162.194,460.024 161,458.5C 159.862,458.989 158.695,459.322 157.5,459.5C 158.512,458.128 159.512,456.795 160.5,455.5C 161.493,447.35 161.826,439.017 161.5,430.5C 158.881,430.232 156.381,430.565 154,431.5C 153.5,438.826 153.334,446.159 153.5,453.5C 150.331,456.112 147.164,456.112 144,453.5C 143.5,446.174 143.334,438.841 143.5,431.5C 144.167,438.012 144.833,444.679 145.5,451.5C 147.452,453.533 149.618,453.866 152,452.5C 152.184,444.921 152.684,437.421 153.5,430C 160.826,429.5 168.159,429.334 175.5,429.5C 175.5,430.833 175.5,432.167 175.5,433.5 Z"/></g>
<g><path style="opacity:1" fill="#fcf3d3" d="M 160.5,455.5 C 160.5,447.5 160.5,439.5 160.5,431.5C 158.856,431.286 157.356,431.62 156,432.5C 155.667,439.167 155.333,445.833 155,452.5C 154.617,453.056 154.117,453.389 153.5,453.5C 153.334,446.159 153.5,438.826 154,431.5C 156.381,430.565 158.881,430.232 161.5,430.5C 161.826,439.017 161.493,447.35 160.5,455.5 Z"/></g>
<g><path style="opacity:1" fill="#ecb353" d="M 167.5,437.5 C 167.892,440.315 168.892,442.815 170.5,445C 168.296,448.103 166.963,451.603 166.5,455.5C 165.5,455.5 164.5,455.5 163.5,455.5C 163.334,448.492 163.5,441.492 164,434.5C 164.759,436.063 165.926,437.063 167.5,437.5 Z"/></g>
<g><path style="opacity:1" fill="#e8b65e" d="M 340.5,494.5 C 340.5,495.5 340.5,496.5 340.5,497.5C 337.679,497.684 336.012,496.351 335.5,493.5C 334.675,492.614 333.675,492.281 332.5,492.5C 332.177,496.226 332.511,499.893 333.5,503.5C 334.187,501.726 335.02,500.059 336,498.5C 338.352,502.363 340.352,502.029 342,497.5C 342.739,499.889 343.905,501.889 345.5,503.5C 345.631,504.376 345.298,505.043 344.5,505.5C 343.059,504.696 341.559,504.029 340,503.5C 333.428,503.841 326.928,505.174 320.5,507.5C 319.833,507.167 319.167,506.833 318.5,506.5C 316.594,509.815 313.927,511.149 310.5,510.5C 315.186,506.685 316.353,502.019 314,496.5C 313.506,498.134 313.34,499.801 313.5,501.5C 310.664,502.776 307.664,503.442 304.5,503.5C 304.335,500.15 304.502,496.817 305,493.5C 307.758,492.707 310.258,492.707 312.5,493.5C 309.247,490.908 305.913,490.908 302.5,493.5C 303.215,491.44 304.549,489.774 306.5,488.5C 312.783,489.294 319.116,489.794 325.5,490C 328.341,492.721 331.174,492.887 334,490.5C 336.375,490.818 337.542,492.151 337.5,494.5C 338.5,494.5 339.5,494.5 340.5,494.5 Z"/></g>
<g><path style="opacity:1" fill="#f0c272" d="M 212.5,505.5 C 211.853,504.726 211.52,503.726 211.5,502.5C 212.182,500.159 212.849,497.826 213.5,495.5C 211.5,495.5 209.5,495.5 207.5,495.5C 208.232,504.299 204.732,506.965 197,503.5C 196.501,499.848 196.335,496.182 196.5,492.5C 197.542,491.209 198.708,491.209 200,492.5C 200.333,494.5 200.667,496.5 201,498.5C 201.414,498.957 201.914,499.291 202.5,499.5C 204.229,497.149 204.896,494.482 204.5,491.5C 208.182,491.335 211.848,491.501 215.5,492C 216.126,492.75 216.626,493.584 217,494.5C 217.026,491.895 218.193,490.729 220.5,491C 220.049,495.137 220.549,499.304 222,503.5C 223,502.833 224,502.167 225,501.5C 225.61,498.173 226.11,494.839 226.5,491.5C 229.187,491.336 231.854,491.503 234.5,492C 232.527,492.495 230.527,492.662 228.5,492.5C 228.343,493.873 228.51,495.207 229,496.5C 229.308,495.692 229.808,495.025 230.5,494.5C 231.795,495.098 233.128,495.598 234.5,496C 235.833,497.333 235.833,498.667 234.5,500C 232.866,500.494 231.199,500.66 229.5,500.5C 229.709,502.714 228.876,504.381 227,505.5C 224.663,505.101 222.163,505.101 219.5,505.5C 219.649,504.448 219.483,503.448 219,502.5C 215.99,501.289 213.823,502.289 212.5,505.5 Z"/></g>
<g><path style="opacity:1" fill="#f9d58b" d="M 239.5,491.5 C 241.25,495.183 241.917,499.183 241.5,503.5C 243.604,503.201 245.604,503.534 247.5,504.5C 244.914,505.48 242.247,505.813 239.5,505.5C 239.5,500.833 239.5,496.167 239.5,491.5 Z"/></g>
<g><path style="opacity:1" fill="#f2cb85" d="M 283.5,491.5 C 286.187,491.336 288.854,491.503 291.5,492C 290.234,492.309 289.067,492.809 288,493.5C 287.502,496.482 287.335,499.482 287.5,502.5C 289.308,502.491 290.975,502.991 292.5,504C 289.722,505.392 286.722,505.892 283.5,505.5C 283.5,500.833 283.5,496.167 283.5,491.5 Z"/></g>
<g><path style="opacity:1" fill="#fad183" d="M 325.5,503.5 C 319.968,506.89 316.968,505.056 316.5,498C 316.439,495.739 317.106,493.739 318.5,492C 321.429,491.223 324.263,491.39 327,492.5C 327.167,494.333 327.333,496.167 327.5,498C 327.453,500.295 326.787,502.129 325.5,503.5 Z"/></g>
<g><path style="opacity:1" fill="#e4b860" d="M 325.5,503.5 C 318.734,503.591 316.734,500.424 319.5,494C 321.473,493.505 323.473,493.338 325.5,493.5C 325.5,496.833 325.5,500.167 325.5,503.5 Z"/></g>
<g><path style="opacity:1" fill="#f1c87f" d="M 279.5,491.5 C 279.5,496.167 279.5,500.833 279.5,505.5C 277.088,505.306 276.088,503.973 276.5,501.5C 273.193,501.063 270.193,501.73 267.5,503.5C 265.223,490.451 267.056,489.118 273,499.5C 274.029,495.704 276.196,493.037 279.5,491.5 Z"/></g>
<g><path style="opacity:1" fill="#f4cd8a" d="M 255.5,491.5 C 256.496,491.414 257.329,491.748 258,492.5C 258.725,494.949 259.725,497.283 261,499.5C 261.667,500.833 261.667,502.167 261,503.5C 257.544,500.701 254.377,501.035 251.5,504.5C 251.167,504.333 250.833,504.167 250.5,504C 252.091,499.806 253.757,495.639 255.5,491.5 Z"/></g>
<g><path style="opacity:1" fill="#f7d188" d="M 345.5,503.5 C 343.905,501.889 342.739,499.889 342,497.5C 340.352,502.029 338.352,502.363 336,498.5C 335.02,500.059 334.187,501.726 333.5,503.5C 332.511,499.893 332.177,496.226 332.5,492.5C 333.675,492.281 334.675,492.614 335.5,493.5C 336.012,496.351 337.679,497.684 340.5,497.5C 340.5,496.5 340.5,495.5 340.5,494.5C 341.265,493.34 342.265,492.34 343.5,491.5C 344.086,491.709 344.586,492.043 345,492.5C 345.499,496.152 345.665,499.818 345.5,503.5 Z"/></g>
<g><path style="opacity:1" fill="#e8b55b" d="M 185.5,489.5 C 188.833,488.833 190.833,490.167 191.5,493.5C 189.86,496.742 188.527,500.076 187.5,503.5C 189.604,503.799 191.604,503.466 193.5,502.5C 194.081,498.929 195.081,495.596 196.5,492.5C 196.335,496.182 196.501,499.848 197,503.5C 204.732,506.965 208.232,504.299 207.5,495.5C 209.5,495.5 211.5,495.5 213.5,495.5C 212.849,497.826 212.182,500.159 211.5,502.5C 211.52,503.726 211.853,504.726 212.5,505.5C 209.84,505.231 207.006,505.565 204,506.5C 197.227,508.814 190.394,510.814 183.5,512.5C 182.08,509.739 181.413,506.739 181.5,503.5C 180.5,503.5 179.5,503.5 178.5,503.5C 178.247,501.173 178.914,499.173 180.5,497.5C 181.815,499.769 182.982,502.102 184,504.5C 184.944,503.737 185.444,502.737 185.5,501.5C 183.595,498.177 181.928,494.844 180.5,491.5C 178.742,493.792 177.576,496.459 177,499.5C 176.152,496.582 174.818,493.916 173,491.5C 173.495,495.508 174.329,499.508 175.5,503.5C 173.919,501.326 172.419,498.993 171,496.5C 169.426,499.322 167.926,502.156 166.5,505C 162.838,505.11 159.671,506.277 157,508.5C 155.244,507.104 153.744,505.437 152.5,503.5C 151.738,504.628 151.071,505.795 150.5,507C 146.5,507.667 142.5,507.667 138.5,507C 134.984,502.105 133.651,496.605 134.5,490.5C 138.559,489.534 142.392,490.2 146,492.5C 146.671,491.748 147.504,491.414 148.5,491.5C 148.102,494.34 147.269,497.007 146,499.5C 143.324,490.194 140.991,490.528 139,500.5C 137.803,497.911 136.803,495.244 136,492.5C 135.771,496.739 136.771,500.739 139,504.5C 140.167,502.833 141.333,501.167 142.5,499.5C 144.111,500.32 144.778,501.654 144.5,503.5C 146.124,503.64 147.29,502.973 148,501.5C 148.934,498.864 149.768,496.197 150.5,493.5C 150.457,492.584 150.124,491.917 149.5,491.5C 150.095,488.887 150.929,488.887 152,491.5C 153.019,490.313 154.186,489.313 155.5,488.5C 157.882,490.071 160.549,490.904 163.5,491C 164.5,494.333 165.5,494.333 166.5,491C 168.715,490.31 170.882,489.476 173,488.5C 175.163,488.495 176.663,489.495 177.5,491.5C 179.409,490.652 181.409,490.318 183.5,490.5C 183.848,495.375 184.515,495.041 185.5,489.5 Z"/></g>
<g><path style="opacity:1" fill="#f9d48a" d="M 178.5,503.5 C 177.348,504.625 176.348,504.625 175.5,503.5C 174.329,499.508 173.495,495.508 173,491.5C 174.818,493.916 176.152,496.582 177,499.5C 177.576,496.459 178.742,493.792 180.5,491.5C 181.928,494.844 183.595,498.177 185.5,501.5C 185.444,502.737 184.944,503.737 184,504.5C 182.982,502.102 181.815,499.769 180.5,497.5C 178.914,499.173 178.247,501.173 178.5,503.5 Z"/></g>
<g><path style="opacity:1" fill="#f9d591" d="M 160.5,491.5 C 161.496,491.414 162.329,491.748 163,492.5C 164.228,502.96 165.894,502.96 168,492.5C 168.258,496.803 167.258,500.803 165,504.5C 162.388,495.329 160.555,495.329 159.5,504.5C 158.5,504.5 157.5,504.5 156.5,504.5C 155.344,500.555 154.844,496.555 155,492.5C 157.477,500.355 159.311,500.021 160.5,491.5 Z"/></g>
<g><path style="opacity:1" fill="#f7d38d" d="M 148.5,491.5 C 148.833,491.5 149.167,491.5 149.5,491.5C 150.124,491.917 150.457,492.584 150.5,493.5C 149.768,496.197 148.934,498.864 148,501.5C 147.29,502.973 146.124,503.64 144.5,503.5C 144.778,501.654 144.111,500.32 142.5,499.5C 141.333,501.167 140.167,502.833 139,504.5C 136.771,500.739 135.771,496.739 136,492.5C 136.803,495.244 137.803,497.911 139,500.5C 140.991,490.528 143.324,490.194 146,499.5C 147.269,497.007 148.102,494.34 148.5,491.5 Z"/></g>
<g><path style="opacity:1" fill="#f5cd82" d="M 313.5,501.5 C 313.279,502.735 312.612,503.735 311.5,504.5C 302.314,506.334 299.314,502.668 302.5,493.5C 305.913,490.908 309.247,490.908 312.5,493.5C 310.258,492.707 307.758,492.707 305,493.5C 304.502,496.817 304.335,500.15 304.5,503.5C 307.664,503.442 310.664,502.776 313.5,501.5 Z"/></g>
<g><path style="opacity:1" fill="#d70916" d="M 138.5,607.5 C 137.25,607.423 136.417,606.756 136,605.5C 135.5,591.504 135.333,577.504 135.5,563.5C 135.833,563.5 136.167,563.5 136.5,563.5C 137.882,562.199 139.548,561.366 141.5,561C 206.5,560.333 271.5,560.333 336.5,561C 338.421,561.36 340.088,562.194 341.5,563.5C 342.833,576.833 342.833,590.167 341.5,603.5C 340.738,604.628 340.071,605.795 339.5,607C 272.501,607.5 205.501,607.667 138.5,607.5 Z"/></g>
<g><path style="opacity:1" fill="#c92913" d="M 142.5,559.5 C 208.168,559.333 273.834,559.5 339.5,560C 342.693,561.026 344.026,563.192 343.5,566.5C 343.667,579.504 343.5,592.504 343,605.5C 341.833,606.667 340.667,607.833 339.5,609C 272.833,609.667 206.167,609.667 139.5,609C 138.944,608.617 138.611,608.117 138.5,607.5C 205.501,607.667 272.501,607.5 339.5,607C 340.071,605.795 340.738,604.628 341.5,603.5C 342.833,590.167 342.833,576.833 341.5,563.5C 340.088,562.194 338.421,561.36 336.5,561C 271.5,560.333 206.5,560.333 141.5,561C 139.548,561.366 137.882,562.199 136.5,563.5C 137.392,560.708 139.392,559.375 142.5,559.5 Z"/></g>
<g><path style="opacity:1" fill="#f79a55" d="M 135.5,563.5 C 135.333,577.504 135.5,591.504 136,605.5C 136.417,606.756 137.25,607.423 138.5,607.5C 138.611,608.117 138.944,608.617 139.5,609C 206.167,609.667 272.833,609.667 339.5,609C 340.667,607.833 341.833,606.667 343,605.5C 343.5,592.504 343.667,579.504 343.5,566.5C 344.661,579.994 344.827,593.66 344,607.5C 342.745,608.211 341.579,609.044 340.5,610C 273.834,610.5 207.167,610.667 140.5,610.5C 138.685,609.37 136.685,608.704 134.5,608.5C 134.171,593.324 134.504,578.324 135.5,563.5 Z"/></g>
<g><path style="opacity:1" fill="#c61c22" d="M 251.5,577.5 C 251.5,582.167 251.5,586.833 251.5,591.5C 252.833,591.5 254.167,591.5 255.5,591.5C 255.238,590.022 255.571,588.689 256.5,587.5C 258.133,589.503 260.133,590.836 262.5,591.5C 263.167,591.5 263.833,591.5 264.5,591.5C 265.5,591.5 266.5,591.5 267.5,591.5C 268.5,591.5 269.5,591.5 270.5,591.5C 270.833,591.5 271.167,591.5 271.5,591.5C 275.367,592.726 279.367,592.726 283.5,591.5C 283.833,591.5 284.167,591.5 284.5,591.5C 287.5,591.5 290.5,591.5 293.5,591.5C 281.983,594.136 270.316,594.136 258.5,591.5C 258.192,590.692 257.692,590.025 257,589.5C 256.51,590.793 256.343,592.127 256.5,593.5C 253.786,593.75 251.119,593.917 248.5,594C 249.167,593.667 249.833,593.333 250.5,593C 247.305,592.819 244.305,592.319 241.5,591.5C 243.857,591.663 246.19,591.497 248.5,591C 249.337,589.989 249.67,588.822 249.5,587.5C 248.5,587.5 247.5,587.5 246.5,587.5C 243.09,587.616 241.756,585.95 242.5,582.5C 245.059,582.802 247.393,582.468 249.5,581.5C 248.172,577.746 245.506,576.579 241.5,578C 240.956,578.717 240.289,579.217 239.5,579.5C 239.414,578.504 239.748,577.671 240.5,577C 244.221,576.322 247.888,576.489 251.5,577.5 Z"/></g>
<g><path style="opacity:1" fill="#c31a24" d="M 196.5,588.5 C 197.167,588.5 197.833,588.5 198.5,588.5C 200.888,591.076 203.888,592.076 207.5,591.5C 209.411,591.426 210.578,590.426 211,588.5C 211.236,590.119 212.069,591.119 213.5,591.5C 216.5,591.5 219.5,591.5 222.5,591.5C 220.71,592.997 218.544,593.664 216,593.5C 208.811,592.904 201.644,592.237 194.5,591.5C 195.167,590.5 195.833,589.5 196.5,588.5 Z"/></g>
<g><path style="opacity:1" fill="#ac2d31" d="M 235.5,580.5 C 235.285,582.179 235.952,583.179 237.5,583.5C 237.776,586.719 239.109,589.385 241.5,591.5C 236.883,592.321 232.216,592.321 227.5,591.5C 230.685,591.98 233.519,591.314 236,589.5C 236.667,588.167 236.667,586.833 236,585.5C 233.899,584.076 231.733,582.742 229.5,581.5C 231.396,580.534 233.396,580.201 235.5,580.5 Z"/></g>
<g><path style="opacity:1" fill="#fedede" d="M 198.5,577.5 C 199.5,577.5 200.5,577.5 201.5,577.5C 201.335,580.518 201.502,583.518 202,586.5C 203.312,588.658 204.978,588.991 207,587.5C 207.498,584.183 207.665,580.85 207.5,577.5C 208.5,577.5 209.5,577.5 210.5,577.5C 211.197,582.64 210.197,587.307 207.5,591.5C 203.888,592.076 200.888,591.076 198.5,588.5C 198.5,584.833 198.5,581.167 198.5,577.5 Z"/></g>
<g><path style="opacity:1" fill="#fbd8d3" d="M 249.5,581.5 C 242.978,578.731 240.478,580.731 242,587.5C 243.616,588.801 245.116,588.801 246.5,587.5C 247.5,587.5 248.5,587.5 249.5,587.5C 249.67,588.822 249.337,589.989 248.5,591C 246.19,591.497 243.857,591.663 241.5,591.5C 239.109,589.385 237.776,586.719 237.5,583.5C 237.733,581.938 238.4,580.605 239.5,579.5C 240.289,579.217 240.956,578.717 241.5,578C 245.506,576.579 248.172,577.746 249.5,581.5 Z"/></g>
<g><path style="opacity:1" fill="#ba2a30" d="M 187.5,578.5 C 186.489,580.402 186.322,582.402 187,584.5C 188.987,585.218 190.821,586.218 192.5,587.5C 190.865,588.681 189.198,588.681 187.5,587.5C 185.512,588.289 185.179,589.455 186.5,591C 188.81,591.497 191.143,591.663 193.5,591.5C 190.77,592.817 187.937,592.817 185,591.5C 185.682,587.185 185.515,582.851 184.5,578.5C 185.5,578.5 186.5,578.5 187.5,578.5 Z"/></g>
<g><path style="opacity:1" fill="#ebaaaa" d="M 293.5,577.5 C 293.5,578.5 293.5,579.5 293.5,580.5C 291.5,580.5 289.5,580.5 287.5,580.5C 288.952,579.698 290.618,579.198 292.5,579C 289.854,578.503 287.187,578.336 284.5,578.5C 284.5,582.833 284.5,587.167 284.5,591.5C 284.167,591.5 283.833,591.5 283.5,591.5C 283.5,587.167 283.5,582.833 283.5,578.5C 286.625,577.521 289.958,577.187 293.5,577.5 Z"/></g>
<g><path style="opacity:1" fill="#f9d4d5" d="M 251.5,577.5 C 255.487,577.01 259.154,577.676 262.5,579.5C 261.55,583.542 261.55,587.542 262.5,591.5C 260.133,590.836 258.133,589.503 256.5,587.5C 255.571,588.689 255.238,590.022 255.5,591.5C 254.167,591.5 252.833,591.5 251.5,591.5C 251.5,586.833 251.5,582.167 251.5,577.5 Z"/></g>
<g><path style="opacity:1" fill="#fdd8d9" d="M 267.5,577.5 C 267.5,582.167 267.5,586.833 267.5,591.5C 266.5,591.5 265.5,591.5 264.5,591.5C 264.5,587.167 264.5,582.833 264.5,578.5C 265.209,577.596 266.209,577.263 267.5,577.5 Z"/></g>
<g><path style="opacity:1" fill="#ab2c36" d="M 264.5,578.5 C 264.5,582.833 264.5,587.167 264.5,591.5C 263.833,591.5 263.167,591.5 262.5,591.5C 261.55,587.542 261.55,583.542 262.5,579.5C 263.167,579.167 263.833,578.833 264.5,578.5 Z"/></g>
<g><path style="opacity:1" fill="#b22f38" d="M 223.5,579.5 C 224.5,579.5 225.5,579.5 226.5,579.5C 225.588,580.738 225.421,582.072 226,583.5C 228.101,584.924 230.267,586.258 232.5,587.5C 230.865,588.681 229.198,588.681 227.5,587.5C 226.081,588.005 225.415,589.005 225.5,590.5C 224.609,591.11 223.609,591.443 222.5,591.5C 223.582,590.406 224.248,589.073 224.5,587.5C 223.731,584.885 223.397,582.219 223.5,579.5 Z"/></g>
<g><path style="opacity:1" fill="#b74241" d="M 210.5,577.5 C 211.5,577.5 212.5,577.5 213.5,577.5C 213.5,582.167 213.5,586.833 213.5,591.5C 212.069,591.119 211.236,590.119 211,588.5C 210.578,590.426 209.411,591.426 207.5,591.5C 210.197,587.307 211.197,582.64 210.5,577.5 Z"/></g>
<g><path style="opacity:1" fill="#fcdfdd" d="M 213.5,577.5 C 216.518,577.335 219.518,577.502 222.5,578C 223.056,578.383 223.389,578.883 223.5,579.5C 223.397,582.219 223.731,584.885 224.5,587.5C 224.248,589.073 223.582,590.406 222.5,591.5C 219.5,591.5 216.5,591.5 213.5,591.5C 213.5,586.833 213.5,582.167 213.5,577.5 Z"/></g>
<g><path style="opacity:1" fill="#a43a3d" d="M 216.5,585.5 C 218.167,585.5 219.833,585.5 221.5,585.5C 221.5,586.5 221.5,587.5 221.5,588.5C 219.833,588.5 218.167,588.5 216.5,588.5C 216.5,587.5 216.5,586.5 216.5,585.5 Z"/></g>
<g><path style="opacity:1" fill="#fbdfde" d="M 287.5,580.5 C 287.5,581.5 287.5,582.5 287.5,583.5C 294.167,584.167 294.167,584.833 287.5,585.5C 287.5,586.5 287.5,587.5 287.5,588.5C 289.5,588.5 291.5,588.5 293.5,588.5C 293.5,589.5 293.5,590.5 293.5,591.5C 290.5,591.5 287.5,591.5 284.5,591.5C 284.5,587.167 284.5,582.833 284.5,578.5C 287.187,578.336 289.854,578.503 292.5,579C 290.618,579.198 288.952,579.698 287.5,580.5 Z"/></g>
<g><path style="opacity:1" fill="#fbd9d6" d="M 235.5,580.5 C 233.396,580.201 231.396,580.534 229.5,581.5C 231.733,582.742 233.899,584.076 236,585.5C 236.667,586.833 236.667,588.167 236,589.5C 233.519,591.314 230.685,591.98 227.5,591.5C 226.833,591.167 226.167,590.833 225.5,590.5C 225.415,589.005 226.081,588.005 227.5,587.5C 229.198,588.681 230.865,588.681 232.5,587.5C 230.267,586.258 228.101,584.924 226,583.5C 225.421,582.072 225.588,580.738 226.5,579.5C 228.812,577.633 231.479,577.133 234.5,578C 235.252,578.671 235.586,579.504 235.5,580.5 Z"/></g>
<g><path style="opacity:1" fill="#ae403e" d="M 267.5,577.5 C 268.5,577.5 269.5,577.5 270.5,577.5C 270.5,582.167 270.5,586.833 270.5,591.5C 269.5,591.5 268.5,591.5 267.5,591.5C 267.5,586.833 267.5,582.167 267.5,577.5 Z"/></g>
<g><path style="opacity:1" fill="#b42b31" d="M 255.5,580.5 C 257.346,580.222 258.68,580.889 259.5,582.5C 258.311,583.429 256.978,583.762 255.5,583.5C 255.5,582.5 255.5,581.5 255.5,580.5 Z"/></g>
<g><path style="opacity:1" fill="#ce2129" d="M 207.5,577.5 C 207.665,580.85 207.498,584.183 207,587.5C 204.978,588.991 203.312,588.658 202,586.5C 201.502,583.518 201.335,580.518 201.5,577.5C 200.5,577.5 199.5,577.5 198.5,577.5C 198.167,577.5 197.833,577.5 197.5,577.5C 199.556,576.784 201.723,576.117 204,575.5C 204.71,576.973 205.876,577.64 207.5,577.5 Z"/></g>
<g><path style="opacity:1" fill="#fddbdb" d="M 189.5,577.5 C 192.056,577.132 194.056,577.966 195.5,580C 195.167,580.5 194.833,581 194.5,581.5C 187.96,580.842 187.96,581.675 194.5,584C 196.037,585.11 196.703,586.61 196.5,588.5C 195.833,589.5 195.167,590.5 194.5,591.5C 194.167,591.5 193.833,591.5 193.5,591.5C 191.143,591.663 188.81,591.497 186.5,591C 185.179,589.455 185.512,588.289 187.5,587.5C 189.198,588.681 190.865,588.681 192.5,587.5C 190.821,586.218 188.987,585.218 187,584.5C 186.322,582.402 186.489,580.402 187.5,578.5C 187.842,577.662 188.508,577.328 189.5,577.5 Z"/></g>
<g><path style="opacity:1" fill="#bb2c34" d="M 293.5,577.5 C 294.497,577.47 295.164,577.97 295.5,579C 293.775,581.886 293.108,585.052 293.5,588.5C 291.5,588.5 289.5,588.5 287.5,588.5C 287.5,587.5 287.5,586.5 287.5,585.5C 294.167,584.833 294.167,584.167 287.5,583.5C 287.5,582.5 287.5,581.5 287.5,580.5C 289.5,580.5 291.5,580.5 293.5,580.5C 293.5,579.5 293.5,578.5 293.5,577.5 Z"/></g>
<g><path style="opacity:1" fill="#b33239" d="M 249.5,581.5 C 247.393,582.468 245.059,582.802 242.5,582.5C 241.756,585.95 243.09,587.616 246.5,587.5C 245.116,588.801 243.616,588.801 242,587.5C 240.478,580.731 242.978,578.731 249.5,581.5 Z"/></g>
<g><path style="opacity:1" fill="#9f3c43" d="M 216.5,580.5 C 217.833,580.5 219.167,580.5 220.5,580.5C 220.5,581.5 220.5,582.5 220.5,583.5C 219.167,583.5 217.833,583.5 216.5,583.5C 216.5,582.5 216.5,581.5 216.5,580.5 Z"/></g>
<g><path style="opacity:1" fill="#b0373d" d="M 189.5,577.5 C 192.026,576.343 194.693,576.343 197.5,577.5C 197.833,577.5 198.167,577.5 198.5,577.5C 198.5,581.167 198.5,584.833 198.5,588.5C 197.833,588.5 197.167,588.5 196.5,588.5C 196.703,586.61 196.037,585.11 194.5,584C 187.96,581.675 187.96,580.842 194.5,581.5C 194.833,581 195.167,580.5 195.5,580C 194.056,577.966 192.056,577.132 189.5,577.5 Z"/></g>
<g><path style="opacity:1" fill="#b32935" d="M 270.5,577.5 C 274.881,576.076 279.214,576.409 283.5,578.5C 283.5,582.833 283.5,587.167 283.5,591.5C 279.367,592.726 275.367,592.726 271.5,591.5C 274.187,591.664 276.854,591.497 279.5,591C 283.085,589.397 283.418,587.231 280.5,584.5C 282.007,582.031 281.673,579.865 279.5,578C 276.518,577.502 273.518,577.335 270.5,577.5 Z"/></g>
<g><path style="opacity:1" fill="#fedee1" d="M 270.5,577.5 C 273.518,577.335 276.518,577.502 279.5,578C 281.673,579.865 282.007,582.031 280.5,584.5C 283.418,587.231 283.085,589.397 279.5,591C 276.854,591.497 274.187,591.664 271.5,591.5C 271.167,591.5 270.833,591.5 270.5,591.5C 270.5,586.833 270.5,582.167 270.5,577.5 Z"/></g>
<g><path style="opacity:1" fill="#ea8d97" d="M 278.5,586.5 C 273.167,587.167 273.167,587.833 278.5,588.5C 277.081,589.451 275.415,589.784 273.5,589.5C 273.5,588.167 273.5,586.833 273.5,585.5C 275.415,585.216 277.081,585.549 278.5,586.5 Z"/></g>
<g><path style="opacity:1" fill="#9e222d" d="M 278.5,586.5 C 278.5,587.167 278.5,587.833 278.5,588.5C 273.167,587.833 273.167,587.167 278.5,586.5 Z"/></g>
<g><path style="opacity:1" fill="#e58b8a" d="M 277.5,580.5 C 273.5,581.167 273.5,581.833 277.5,582.5C 276.432,583.434 275.099,583.768 273.5,583.5C 273.5,582.167 273.5,580.833 273.5,579.5C 275.099,579.232 276.432,579.566 277.5,580.5 Z"/></g>
<g><path style="opacity:1" fill="#982f2b" d="M 277.5,580.5 C 278.833,581.167 278.833,581.833 277.5,582.5C 273.5,581.833 273.5,581.167 277.5,580.5 Z"/></g>
<g><path style="opacity:1" fill="#c6232c" d="M 213.5,577.5 C 220.655,576.345 227.988,576.178 235.5,577C 236.308,578.706 237.641,579.539 239.5,579.5C 238.4,580.605 237.733,581.938 237.5,583.5C 235.952,583.179 235.285,582.179 235.5,580.5C 235.586,579.504 235.252,578.671 234.5,578C 231.479,577.133 228.812,577.633 226.5,579.5C 225.5,579.5 224.5,579.5 223.5,579.5C 223.389,578.883 223.056,578.383 222.5,578C 219.518,577.502 216.518,577.335 213.5,577.5 Z"/></g>
<g><path style="opacity:1" fill="#f0b055" d="M 140.5,610.5 C 207.167,610.667 273.834,610.5 340.5,610C 341.579,609.044 342.745,608.211 344,607.5C 344.827,593.66 344.661,579.994 343.5,566.5C 344.026,563.192 342.693,561.026 339.5,560C 273.834,559.5 208.168,559.333 142.5,559.5C 142.611,558.883 142.944,558.383 143.5,558C 146.167,557.667 148.833,557.333 151.5,557C 149.167,556.667 146.833,556.333 144.5,556C 154.666,555.483 164.833,554.983 175,554.5C 228.733,554.656 282.399,554.656 336,554.5C 338.338,555.84 340.671,557.174 343,558.5C 343.5,558.333 344,558.167 344.5,558C 343.253,556.506 343.253,555.006 344.5,553.5C 347.688,557.607 348.855,562.274 348,567.5C 347.667,567.167 347.333,566.833 347,566.5C 346.587,582.278 346.753,597.944 347.5,613.5C 346.5,613.5 345.5,613.5 344.5,613.5C 344.5,614.5 344.5,615.5 344.5,616.5C 342.473,616.662 340.473,616.495 338.5,616C 337.167,615 337.167,614 338.5,613C 337.5,612.667 336.5,612.333 335.5,612C 320.778,611.068 306.112,611.401 291.5,613C 292.308,613.308 292.975,613.808 293.5,614.5C 291.922,615.298 290.256,615.798 288.5,616C 281.508,616.5 274.508,616.666 267.5,616.5C 267.5,617.5 267.5,618.5 267.5,619.5C 262.056,617.542 256.39,616.209 250.5,615.5C 214.986,616.099 179.319,616.266 143.5,616C 147.804,615.969 151.804,614.969 155.5,613C 150.294,612.563 145.294,611.73 140.5,610.5 Z"/></g>
<g><path style="opacity:1" fill="#e8ad4b" d="M 477.5,717.5 C 477.5,718.167 477.5,718.833 477.5,719.5C 318.833,719.5 160.167,719.5 1.5,719.5C 1.5,719.167 1.5,718.833 1.5,718.5C 106.178,718.414 210.845,718.414 315.5,718.5C 319.666,718.659 323.666,717.992 327.5,716.5C 329.946,717.963 332.28,717.796 334.5,716C 381.5,715.333 428.5,715.333 475.5,716C 476.044,716.717 476.711,717.217 477.5,717.5 Z"/></g>
</svg>
