<?xml version="1.0" standalone="no"?>
<!DOCTYPE svg PUBLIC "-//W3C//DTD SVG 20010904//EN"
 "http://www.w3.org/TR/2001/REC-SVG-20010904/DTD/svg10.dtd">
<svg version="1.0" xmlns="http://www.w3.org/2000/svg"
 width="480.000000pt" height="720.000000pt" viewBox="0 0 480.000000 720.000000"
 preserveAspectRatio="xMidYMid meet">

<g transform="translate(0.000000,720.000000) scale(0.100000,-0.100000)"
fill="#000000" stroke="none">
<path d="M2150 3730 c-11 -7 -5 -10 25 -10 22 0 52 -6 67 -14 15 -8 29 -12 32
-8 29 28 -85 58 -124 32z"/>
<path d="M2499 3709 c-17 -10 -13 -13 37 -27 49 -14 77 -15 70 -3 -10 16 -92
39 -107 30z"/>
<path d="M1973 3639 c-10 -51 0 -177 17 -208 6 -12 25 -24 41 -28 22 -4 27 -8
17 -15 -9 -6 -6 -8 12 -7 14 1 43 1 65 1 l40 -2 -1 -50 c-2 -59 30 -130 59
-130 9 0 17 -4 17 -10 0 -6 27 -10 61 -10 74 0 112 23 136 82 14 36 19 39 42
33 14 -3 51 -9 81 -12 54 -5 56 -4 90 33 19 21 35 44 36 51 1 7 11 25 22 40
10 15 22 44 26 65 7 36 6 36 -49 62 -74 33 -153 52 -255 61 -47 4 -89 11 -95
15 -5 4 -43 19 -83 35 -54 20 -98 28 -171 32 l-99 6 -9 -44z m199 -10 c64 -14
128 -53 128 -78 0 -26 -51 -99 -86 -122 -49 -32 -159 -16 -192 27 -17 24 -12
144 7 168 16 19 68 21 143 5z m407 -96 c95 -30 109 -61 66 -156 -21 -48 -29
-57 -57 -62 -47 -8 -124 16 -120 38 2 9 -2 18 -8 18 -5 1 -14 2 -19 3 -22 3
-35 28 -42 83 -6 47 -5 61 8 75 21 24 98 24 172 1z m-214 -50 c4 -32 9 -65 11
-75 4 -14 -3 -16 -58 -11 -35 2 -65 7 -68 9 -2 3 1 13 8 22 7 9 27 38 44 65
17 26 37 47 44 47 8 0 15 -21 19 -57z"/>
<path d="M2150 3572 c-21 -17 -23 -23 -13 -45 16 -34 49 -44 74 -21 19 17 19
17 -3 28 -12 6 -25 22 -28 35 l-5 23 -25 -20z"/>
<path d="M2462 3498 c-28 -28 -7 -78 33 -78 20 0 45 17 45 31 0 4 -9 9 -20 12
-12 3 -20 14 -20 26 0 23 -19 28 -38 9z"/>
<path d="M2308 3153 c7 -3 16 -2 19 1 4 3 -2 6 -13 5 -11 0 -14 -3 -6 -6z"/>
</g>
</svg>
