<?xml version="1.0" encoding="UTF-8"?>
<svg version="1.1" xmlns="http://www.w3.org/2000/svg" width="405" height="720">
<path d="M0 0 C133.65 0 267.3 0 405 0 C405 237.6 405 475.2 405 720 C271.35 720 137.7 720 0 720 C0 482.4 0 244.8 0 0 Z " fill="#E3E4DD" transform="translate(0,0)"/>
<path d="M0 0 C1.22080086 0.00037972 2.44160172 0.00075944 3.69939655 0.00115067 C4.71921665 -0.0005801 4.71921665 -0.0005801 5.75963917 -0.00234583 C8.06641491 -0.00501907 10.37312258 -0.00048458 12.67989486 0.00394398 C14.33892783 0.00350842 15.99796074 0.0026338 17.65699327 0.00135481 C22.23817529 -0.00089318 26.81933416 0.00313527 31.40051323 0.00813287 C36.33237541 0.01243285 41.26423618 0.01099128 46.1960997 0.0102306 C54.74828856 0.00970508 63.30046983 0.01285484 71.85265678 0.01846844 C84.21783535 0.02657961 96.58301022 0.02919826 108.94819116 0.03045643 C129.00764115 0.03264756 149.06708709 0.03930928 169.12653488 0.04875904 C188.61774561 0.0579316 208.10895524 0.06500174 227.60016769 0.06926686 C228.81293591 0.06953485 230.02570413 0.06980285 231.2752229 0.07007897 C240.75921687 0.07215827 250.24321086 0.07411524 259.72720486 0.07603353 C306.25086221 0.08547508 352.77450941 0.10559151 399.29816574 0.1241985 C399.29816574 80.9741985 399.29816574 161.8241985 399.29816574 245.1241985 C333.23566574 245.5616985 333.23566574 245.5616985 312.45026535 245.69231373 C306.25007343 245.735612 306.25007343 245.735612 300.04988998 245.78009754 C297.30887978 245.79919774 294.56789665 245.81688741 291.82686752 245.83246571 C288.31173091 245.85252809 284.79664952 245.87702675 281.28156334 245.90450448 C279.4081466 245.91810442 277.5346998 245.92736372 275.6612553 245.93636185 C269.46934477 245.98918087 263.29236329 246.16453064 257.11043686 246.51203114 C255.87941521 246.5797878 254.64839357 246.64754446 253.38006824 246.71735436 C250.13350004 246.91545084 250.13350004 246.91545084 247.29816574 249.1241985 C247.35617355 248.47193287 247.41418136 247.81966725 247.47394699 247.147636 C247.83734094 240.96775326 247.83734094 240.96775326 245.11066574 235.6241985 C239.63732872 230.75901004 234.65040077 230.82202736 227.64264816 230.80535084 C226.67631454 230.79530522 225.70998092 230.78525959 224.71436447 230.77490956 C221.5274604 230.74407431 218.34064036 230.7270413 215.15363449 230.710136 C212.94116884 230.69142464 210.72871033 230.67185126 208.51625961 230.65145069 C202.69828382 230.60012015 196.88028489 230.56049923 191.06220382 230.52330738 C185.1232214 230.48327363 179.18433531 230.43217838 173.24543136 230.382011 C161.59640376 230.28524066 149.94733642 230.20186174 138.29816574 230.1241985 C138.29816574 221.8741985 138.29816574 213.6241985 138.29816574 205.1241985 C140.26084396 205.10961598 142.22352218 205.09503346 144.2456755 205.08000904 C150.74776435 205.02825531 157.2496078 204.96294196 163.7514748 204.88848358 C167.69157798 204.84385424 171.63157953 204.80458212 175.57184738 204.77776295 C179.37811468 204.75165523 183.18398934 204.71120105 186.99001259 204.66101223 C188.43833332 204.64439376 189.8867219 204.63284831 191.33512443 204.62658459 C203.06558918 204.80917489 203.06558918 204.80917489 213.17316574 199.4991985 C214.93263133 195.78477114 215.52619772 192.22877417 215.29816574 188.1241985 C212.95341095 183.05952816 210.45850852 181.05241234 205.29816574 179.1241985 C200.93369755 178.63461504 196.58144166 178.61116835 192.19269699 178.5773235 C190.85893032 178.55725304 189.52517956 178.53610148 188.19144577 178.51395375 C184.58281402 178.45865846 180.97425508 178.4234021 177.36533111 178.39372593 C175.10929805 178.37418665 172.85336174 178.34996627 170.59739059 178.32430226 C147.79666015 178.06889194 124.9948096 178.05573138 102.19391388 178.2912975 C99.99051876 178.31165366 97.78717513 178.32520496 95.58371872 178.33696705 C91.4710817 178.36043063 87.3596251 178.41785419 83.24738449 178.47966725 C81.42689087 178.48630642 81.42689087 178.48630642 79.5696196 178.49307972 C72.96882633 178.62750188 68.62904101 179.09737261 63.29816574 183.1241985 C60.78225343 187.06214819 60.71667087 191.57377041 61.29816574 196.1241985 C62.68844761 199.59990318 63.77389538 200.81050042 66.9883818 202.73389393 C70.63165891 204.26428531 73.19257097 204.51942873 77.12970871 204.55657154 C78.11125679 204.57185902 78.11125679 204.57185902 79.11263412 204.58745533 C81.25529608 204.61742296 83.39750984 204.62682573 85.54035324 204.63591725 C87.03394929 204.65277609 88.52753127 204.67092796 90.02109665 204.69031483 C93.9369556 204.73769051 97.85275743 204.76757989 101.76880783 204.79375416 C105.77089601 204.82362276 109.77278764 204.87013133 113.77472824 204.91521412 C121.61579351 205.00110579 129.4568388 205.06697407 137.29816574 205.1241985 C137.29816574 213.3741985 137.29816574 221.6241985 137.29816574 230.1241985 C134.30028976 230.1335442 131.30241379 230.1428899 128.21369308 230.15251881 C118.30696906 230.18629109 108.4004533 230.24184155 98.49389595 230.30810124 C92.48772348 230.34760455 86.48169826 230.3797792 80.47541183 230.39519459 C74.6786229 230.41034211 68.88223871 230.44475446 63.08562988 230.49250752 C60.87450183 230.50734085 58.66331601 230.51524063 56.45213836 230.51608235 C53.35398886 230.5184478 50.25696166 230.54549471 47.15900558 230.57830006 C45.78875229 230.57075451 45.78875229 230.57075451 44.39081711 230.56305653 C38.74392379 230.65552157 35.63279683 231.4269202 31.29816574 235.1241985 C29.90948058 237.22459181 29.90948058 237.22459181 29.29816574 239.1241985 C28.63816574 239.1241985 27.97816574 239.1241985 27.29816574 239.1241985 C27.46203933 245.82811829 28.38915385 249.44351274 33.29816574 254.1241985 C36.15294102 255.84062813 38.26036037 256.37768238 41.57557052 256.4026714 C42.84594162 256.41941662 42.84594162 256.41941662 44.14197677 256.43650013 C45.06266952 256.43866032 45.98336227 256.44082051 46.9319548 256.44304615 C47.90789596 256.45309178 48.88383713 256.4631374 49.88935226 256.47348744 C53.11415912 256.50437039 56.33888275 256.52136893 59.56379074 256.538261 C61.80010583 256.55696851 64.03641383 256.57654161 66.27271408 256.5969463 C72.15810862 256.64831738 78.04352605 256.68791657 83.92902511 256.72508961 C89.93494234 256.765098 95.94076391 256.81620479 101.94660324 256.866386 C113.73039696 256.9632043 125.51423 257.04656464 137.29816574 257.1241985 C137.29816574 265.3741985 137.29816574 273.6241985 137.29816574 282.1241985 C135.29995773 282.1335442 133.30174972 282.1428899 131.24298996 282.15251881 C124.62910463 282.1863381 118.01552971 282.24191431 111.40189308 282.30810124 C107.3933427 282.34755284 103.38501122 282.37975244 99.37629074 282.39519459 C95.50511162 282.41037682 91.63453438 282.44484908 87.76362365 282.49250752 C86.28936006 282.50730537 84.81501053 282.5152386 83.34067291 282.51608235 C81.26970448 282.5184588 79.20039038 282.54558739 77.12970871 282.57830006 C75.36432251 282.59162373 75.36432251 282.59162373 73.56327194 282.60521656 C68.87347002 283.35065096 65.89472533 285.68729487 62.42316574 288.8116985 C60.61361394 292.53133274 60.66674666 296.07610062 61.29816574 300.1241985 C63.79363532 305.20756247 64.86948775 305.9527273 70.29816574 308.1241985 C103.46316574 308.6191985 103.46316574 308.6191985 137.29816574 309.1241985 C137.29816574 386.0141985 137.29816574 462.9041985 137.29816574 542.1241985 C114.21879074 542.1448235 91.13941574 542.1654485 67.36066574 542.1866985 C56.41084518 542.2003545 56.41084518 542.2003545 45.23981613 542.21428639 C36.35761398 542.21880299 36.35761398 542.21880299 32.20562118 542.21964222 C29.29232412 542.22057765 26.3790451 542.22434005 23.46575302 542.22977406 C19.75658907 542.23660157 16.04745158 542.23869554 12.33828193 542.23727077 C10.32541784 542.23771031 8.31255672 542.24309007 6.2997002 542.24862725 C5.12280848 542.24724975 3.94591676 542.24587225 2.73336166 542.24445301 C1.70187531 542.24537481 0.67038896 542.2462966 -0.39235455 542.24724633 C-2.70183426 542.1241985 -2.70183426 542.1241985 -3.70183426 541.1241985 C-3.80178631 538.26512529 -3.83542905 535.43014761 -3.8276754 532.57056385 C-3.82912884 531.65798782 -3.83058228 530.74541178 -3.83207977 529.80518192 C-3.83576746 526.70683335 -3.83224062 523.60853314 -3.8288179 520.51018482 C-3.82996863 518.28264201 -3.83155583 516.05509937 -3.83354515 513.82755715 C-3.83774513 507.67489215 -3.83564478 501.52224254 -3.83255893 495.36957747 C-3.83053861 489.42565724 -3.83318827 483.48173964 -3.8357063 477.53782001 C-3.84098324 464.62329767 -3.8405112 451.70878025 -3.83762738 438.79425743 C-3.83511603 427.49282979 -3.83445316 416.19140395 -3.83565003 404.88997608 C-3.83572641 404.14156269 -3.8358028 403.39314929 -3.8358815 402.6220567 C-3.83619281 399.58432771 -3.83651121 396.54659872 -3.83684126 393.50886973 C-3.83990319 364.98789437 -3.83712216 336.46692217 -3.83174436 307.9459473 C-3.82699844 282.58316216 -3.82742305 257.22038203 -3.83220536 231.85759693 C-3.83755506 203.39020132 -3.83968607 174.92280849 -3.83659309 146.45541245 C-3.83627235 143.42308194 -3.83595951 140.39075142 -3.83565003 137.35842091 C-3.83557095 136.61173357 -3.83549187 135.86504624 -3.8354104 135.09573201 C-3.83427089 123.79887446 -3.83560699 112.50201891 -3.83812958 101.20516163 C-3.84098229 88.36560541 -3.84028805 75.52605492 -3.83484884 62.68649942 C-3.83216266 56.12855302 -3.83120887 49.57061474 -3.83449799 43.01266819 C-3.83745839 37.01974564 -3.83587246 31.02684287 -3.83052044 25.03392214 C-3.82939515 22.85561774 -3.82998987 20.67731171 -3.83239622 18.49900836 C-3.83539752 15.5585922 -3.83235854 12.61824554 -3.8276754 9.67783314 C-3.83001657 8.81439946 -3.83235773 7.95096579 -3.83476985 7.06136745 C-3.81255503 0.17525635 -3.81255503 0.17525635 0 0 Z " fill="#E5E6E0" transform="translate(3.701834261417389,83.8758015036583)"/>
<path d="M0 0 C133.65 0 267.3 0 405 0 C405 237.6 405 475.2 405 720 C271.35 720 137.7 720 0 720 C0 688.65 0 657.3 0 625 C12.17253662 625.00523682 24.34507324 625.01047363 36.88647461 625.01586914 C75.7863847 625.03190224 114.6862948 625.04303521 153.58620733 625.05106533 C159.62347091 625.05231611 165.66073448 625.05361043 171.69799805 625.05493164 C172.89996287 625.05519395 174.1019277 625.05545626 175.34031571 625.05572652 C194.82975244 625.06008373 214.31918623 625.06797155 233.80862122 625.0771528 C253.79063514 625.08648792 273.77264752 625.09205531 293.75466353 625.09408849 C306.09526289 625.09546402 318.43585395 625.09981617 330.77645076 625.10791647 C339.226553 625.11318219 347.67665093 625.11480469 356.12675469 625.11350138 C361.0098018 625.11285772 365.89283436 625.11387857 370.77587891 625.11920547 C375.23854222 625.12403854 379.70118109 625.12433927 384.16384549 625.12089889 C385.78565655 625.12047311 387.40746907 625.12176962 389.0292772 625.12488318 C391.21913856 625.12884573 393.40890947 625.1267643 395.59876919 625.12304783 C396.81957005 625.12342755 398.04037091 625.12380727 399.29816574 625.1241985 C401.91670317 625.30792708 401.91670317 625.30792708 403 624 C403.09903571 621.13997482 403.13174808 618.30407242 403.12304783 615.44357204 C403.1247786 614.07425859 403.1247786 614.07425859 403.12654433 612.67728224 C403.12921896 609.57792285 403.12468191 606.47861404 403.12025452 603.3792572 C403.12069005 601.15100183 403.12156461 598.9227465 403.12284368 596.69449145 C403.12509224 590.53989447 403.12106246 584.38531471 403.11606562 578.23071992 C403.11220732 572.28497879 403.1130248 566.33923888 403.11374746 560.39349694 C403.1150635 548.22515283 403.11171188 536.05681414 403.10573006 523.8884716 C403.09981964 511.83459382 403.09596545 499.78071829 403.09487724 487.72683907 C403.0948085 486.97828054 403.09473976 486.22972202 403.09466894 485.45847991 C403.09433062 481.65716462 403.09402923 477.85584932 403.09374207 474.05453403 C403.09163983 447.10691112 403.08489738 420.15929116 403.07543945 393.21166992 C403.06625993 367.02709977 403.05919081 340.84253042 403.05493164 314.65795898 C403.054661 313.01231895 403.05439029 311.36667891 403.05411953 309.72103888 C403.05193086 296.35022774 403.04988824 282.97941658 403.04788104 269.60860541 C403.03848795 207.73906748 403.01841903 145.86953724 403 84 C270.01 84.33 137.02 84.66 0 85 C0 56.95 0 28.9 0 0 Z " fill="#BC92A2" transform="translate(0,0)"/>
<path d="M0 0 C133.65 0 267.3 0 405 0 C405 237.6 405 475.2 405 720 C404.34 720 403.68 720 403 720 C402.505 674.46 402.505 674.46 402 628 C362.4 628 322.8 628 282 628 C281.34 629.32 280.68 630.64 280 632 C279.34 630.68 278.68 629.36 278 628 C268.76 628 259.52 628 250 628 C249.67 627.34 249.34 626.68 249 626 C249.78759925 625.99576806 250.5751985 625.99153612 251.38666439 625.98717594 C270.52259636 625.88401415 289.65849019 625.77539843 308.79435635 625.66066074 C318.04819393 625.60530768 327.30203536 625.55182232 336.5559082 625.50268555 C344.61858619 625.45986917 352.68123555 625.41359771 360.74386936 625.36312145 C365.0156684 625.33649992 369.28746168 625.31164643 373.55929375 625.29092598 C377.57538739 625.27139151 381.59142643 625.24725751 385.60747147 625.21950912 C387.08575643 625.21012172 388.56405339 625.20245256 390.04235649 625.19658089 C392.05201942 625.18834839 394.06165199 625.17348277 396.0712738 625.15821838 C397.19862662 625.15176583 398.32597944 625.14531328 399.48749447 625.1386652 C401.93879188 625.28356358 401.93879188 625.28356358 403 624 C403.09903571 621.13997482 403.13174808 618.30407242 403.12304783 615.44357204 C403.1247786 614.07425859 403.1247786 614.07425859 403.12654433 612.67728224 C403.12921896 609.57792285 403.12468191 606.47861404 403.12025452 603.3792572 C403.12069005 601.15100183 403.12156461 598.9227465 403.12284368 596.69449145 C403.12509224 590.53989447 403.12106246 584.38531471 403.11606562 578.23071992 C403.11220732 572.28497879 403.1130248 566.33923888 403.11374746 560.39349694 C403.1150635 548.22515283 403.11171188 536.05681414 403.10573006 523.8884716 C403.09981964 511.83459382 403.09596545 499.78071829 403.09487724 487.72683907 C403.0948085 486.97828054 403.09473976 486.22972202 403.09466894 485.45847991 C403.09433062 481.65716462 403.09402923 477.85584932 403.09374207 474.05453403 C403.09163983 447.10691112 403.08489738 420.15929116 403.07543945 393.21166992 C403.06625993 367.02709977 403.05919081 340.84253042 403.05493164 314.65795898 C403.054661 313.01231895 403.05439029 311.36667891 403.05411953 309.72103888 C403.05193086 296.35022774 403.04988824 282.97941658 403.04788104 269.60860541 C403.03848795 207.73906748 403.01841903 145.86953724 403 84 C270.01 84.33 137.02 84.66 0 85 C0 56.95 0 28.9 0 0 Z " fill="#4D58F4" transform="translate(0,0)"/>
<path d="M0 0 C40.26 0 80.52 0 122 0 C122 66.66 122 133.32 122 202 C81.74 202 41.48 202 0 202 C0 135.34 0 68.68 0 0 Z " fill="#F3F4F3" transform="translate(281,331)"/>
<path d="M0 0 C40.26 0 80.52 0 122 0 C122 54.45 122 108.9 122 165 C81.74 165 41.48 165 0 165 C0 110.55 0 56.1 0 0 Z " fill="#F3F3F3" transform="translate(281,105)"/>
<path d="M0 0 C52.8 0.33 105.6 0.66 160 1 C164.63326051 9.68736345 169.11709312 18.10336335 173.0625 27.0625 C176.25659078 34.19862255 179.54834703 41.23458279 183.1015625 48.19921875 C184.62865469 51.2192642 186.08201281 54.27020586 187.5234375 57.33203125 C193.25221396 69.49716686 199.33212519 81.32435913 206 93 C206.33 93.66 206.66 94.32 207 95 C138.69 95 70.38 95 0 95 C0 63.65 0 32.3 0 0 Z " fill="#460F5B" transform="translate(0,625)"/>
<path d="M0 0 C9.16491056 1.03790259 18.36570188 0.81326793 27.57275391 0.63793945 C38.48874904 0.48860198 38.48874904 0.48860198 43.6484375 2.06079102 C46.17257398 2.78290083 48.71835379 3.30766589 51.29135132 3.82434082 C69.23659092 7.43476839 84.61856321 12.0034851 100.5222168 21.40161133 C103.76142333 23.16815208 107.11674596 24.46116796 110.55957031 25.77368164 C114.08939746 27.17395569 117.402414 28.90505341 120.73779297 30.7121582 C121.36621094 31.0421582 121.99462891 31.3721582 122.64208984 31.7121582 C126.40428289 33.72916641 129.61716754 36.03332714 132.92529297 38.7121582 C133.91529297 39.0421582 134.90529297 39.3721582 135.92529297 39.7121582 C135.92529297 40.3721582 135.92529297 41.0321582 135.92529297 41.7121582 C136.87404297 41.9596582 137.82279297 42.2071582 138.80029297 42.4621582 C141.92529297 43.7121582 141.92529297 43.7121582 142.92529297 45.7746582 C143.25529297 46.4140332 143.58529297 47.0534082 143.92529297 47.7121582 C146.98437709 48.52800388 146.98437709 48.52800388 149.92529297 48.7121582 C149.92529297 49.0421582 149.92529297 49.3721582 149.92529297 49.7121582 C38.38529297 49.7121582 -73.15470703 49.7121582 -188.07470703 49.7121582 C-181.24039366 44.58642318 -173.77863054 42.50611861 -165.52636719 40.63427734 C-156.84808448 38.65815557 -150.12448163 37.02081804 -143.57080078 30.73168945 C-137.99724427 26.22225484 -130.75974517 24.11108761 -124.07470703 21.7121582 C-123.02669922 21.33317383 -121.97869141 20.95418945 -120.89892578 20.5637207 C-114.00533687 18.28107537 -106.98420583 16.81866321 -99.88720703 15.3371582 C-88.38066483 12.93113454 -77.4439318 9.55881195 -66.48486328 5.32543945 C-45.11645926 -2.82539507 -22.48217826 -2.78371016 0 0 Z " fill="#3D21EA" transform="translate(252.07470703125,34.287841796875)"/>
<path d="M0 0 C0.33 0 0.66 0 1 0 C1 52.14 1 104.28 1 158 C23.11 158 45.22 158 68 158 C73.61138848 160.80569424 76.26353952 162.52707905 79 168 C79.12875626 172.59843793 78.665172 176.7226056 75.8125 180.4375 C71.09193938 184.73845523 66.49557576 185.2509409 60.26025391 185.22705078 C59.61564209 185.22734283 58.97103027 185.22763489 58.30688477 185.22793579 C56.19663577 185.22655315 54.08674908 185.21104311 51.9765625 185.1953125 C50.50540357 185.19157856 49.03424215 185.18873339 47.56307983 185.18673706 C43.70628902 185.17913056 39.84965079 185.159508 35.99291992 185.1373291 C32.05129052 185.11680613 28.10963627 185.10772159 24.16796875 185.09765625 C16.44523516 185.07625901 8.72265847 185.04110151 1 185 C1 193.25 1 201.5 1 210 C3.96758301 209.98428955 6.93516602 209.9685791 9.99267578 209.95239258 C19.79945723 209.902675 29.60624425 209.86954229 39.41311836 209.84456348 C45.35881341 209.82891014 51.30437929 209.80767762 57.25 209.77368164 C62.9882522 209.74107683 68.72638018 209.72314449 74.46471786 209.71536827 C76.6535729 209.70982682 78.84242117 209.69900575 81.0312233 209.68280983 C84.09795047 209.661021 87.16416485 209.65803373 90.23095703 209.65942383 C91.13510849 209.648638 92.03925995 209.63785217 92.97080994 209.6267395 C99.69634799 209.6597096 103.84130049 210.98208524 108.875 215.6875 C111.39156633 219.61038281 111.92672591 222.5136073 111 227 C109.63177992 230.83713117 107.86929578 233.44614247 104.3710556 235.67498875 C100.39052161 237.23955871 96.89705496 237.42094184 92.68811035 237.38768005 C91.86642317 237.39306559 91.04473599 237.39845113 90.1981492 237.40399987 C87.45290936 237.41827383 84.70815209 237.41117718 81.96289062 237.40405273 C79.9914664 237.40975654 78.02004548 237.41672084 76.04862976 237.42485046 C70.69953162 237.4427944 65.3505974 237.4416113 60.0014782 237.43590808 C55.53559579 237.43281845 51.06974497 237.43890608 46.60386705 237.44494683 C36.06938075 237.45899411 25.53497554 237.45742866 15.00048828 237.44604492 C4.13156504 237.43455936 -6.73711158 237.44864636 -17.60600233 237.4754414 C-26.93864159 237.49758791 -36.27120338 237.50423825 -45.60386705 237.49836498 C-51.17751503 237.49499221 -56.75100485 237.49743205 -62.32463074 237.51461601 C-67.56468867 237.5300666 -72.80438068 237.52615043 -78.04442406 237.50731087 C-79.9673016 237.50361998 -81.89020615 237.50674797 -83.81305885 237.51719666 C-86.43849926 237.53037392 -89.0627224 237.5188885 -91.68811035 237.50120544 C-92.44862119 237.51081045 -93.20913203 237.52041546 -93.99268866 237.53031152 C-100.38627056 237.44173486 -103.80431753 235.02233912 -108.375 230.8125 C-110.6539712 226.86812678 -110.34909457 223.45095576 -110 219 C-109.34 219 -108.68 219 -108 219 C-107.938125 218.4225 -107.87625 217.845 -107.8125 217.25 C-106.48032055 213.56088769 -103.42181986 211.71090993 -100 210 C-98.6568787 209.90858216 -97.30933202 209.87805848 -95.96310425 209.87974548 C-95.11893951 209.87837082 -94.27477478 209.87699615 -93.4050293 209.87557983 C-92.477146 209.87917511 -91.5492627 209.88277039 -90.59326172 209.88647461 C-89.61761261 209.88632858 -88.6419635 209.88618256 -87.63674927 209.8860321 C-84.40103966 209.88673065 -81.1653871 209.89452034 -77.9296875 209.90234375 C-75.69052156 209.90420814 -73.45135521 209.90563194 -71.21218872 209.90663147 C-65.31027099 209.91045502 -59.40837776 209.92028393 -53.50646973 209.93133545 C-47.48738944 209.94155306 -41.4683052 209.94612984 -35.44921875 209.95117188 C-23.63279999 209.96190633 -11.81640586 209.97950183 0 210 C0 201.75 0 193.5 0 185 C-1.98773438 185.02618408 -3.97546875 185.05236816 -6.0234375 185.0793457 C-12.61309358 185.16018289 -19.20263176 185.21751877 -25.79264832 185.25906086 C-29.7857143 185.28508307 -33.77824063 185.32034376 -37.77099609 185.37719727 C-41.62898004 185.43178389 -45.48644708 185.46147594 -49.3447876 185.47438622 C-50.81195201 185.48357871 -52.27909019 185.50152953 -53.74603271 185.52865028 C-67.55336062 185.77361653 -67.55336062 185.77361653 -73.59741211 181.46720886 C-76.43320462 178.50076382 -76.98228461 176.21967088 -77.3125 172.125 C-77.17731446 168.08445432 -76.36938222 165.36299412 -74 162 C-52.55207061 149.74404035 -24.70267642 158 0 158 C0 105.86 0 53.72 0 0 Z " fill="#141414" transform="translate(141,104)"/>
<path d="M0 0 C40.26 0 80.52 0 122 0 C122 22.11 122 44.22 122 67 C81.74 67 41.48 67 0 67 C0 44.89 0 22.78 0 0 Z " fill="#F4F4F4" transform="translate(281,558)"/>
<path d="M0 0 C132.66 0 265.32 0 402 0 C402 6.6 402 13.2 402 20 C362.75438002 20.02280907 323.50876108 20.04050786 284.26313579 20.05106533 C279.63058335 20.05231605 274.99803093 20.05361037 270.36547852 20.05493164 C269.44321472 20.05519395 268.52095093 20.05545626 267.57073975 20.05572652 C252.63455729 20.06007867 237.69837868 20.06796374 222.7621985 20.0771528 C207.43806678 20.08650195 192.11393707 20.09205829 176.78980261 20.09408849 C167.33283835 20.09546109 157.87588496 20.0997975 148.41892404 20.10791647 C141.9352962 20.11319948 135.45167399 20.11480074 128.96804415 20.11350138 C125.22650219 20.11286044 121.48497922 20.113848 117.74344063 20.11920547 C113.68648683 20.12497216 109.62957354 20.12298868 105.57261658 20.12025452 C104.39070344 20.12316736 103.20879031 20.1260802 101.99106163 20.12908131 C96.5428741 20.11913218 91.36799495 19.93300554 86 19 C83.95102804 18.86383363 81.89979844 18.75802378 79.84765625 18.68359375 C78.18959961 18.62075195 78.18959961 18.62075195 76.49804688 18.55664062 C75.36431641 18.51732422 74.23058594 18.47800781 73.0625 18.4375 C71.90169922 18.39431641 70.74089844 18.35113281 69.54492188 18.30664062 C66.69671768 18.20115158 63.84843471 18.09903445 61 18 C61 18.66 61 19.32 61 20 C47.14 20 33.28 20 19 20 C19 21.32 19 22.64 19 24 C18.01 23.67 17.02 23.34 16 23 C10.93988857 21.54984611 6.04862691 21.31712436 1 23 C1.07726318 23.6487207 1.15452637 24.29744141 1.23413086 24.96582031 C2.22086765 34.59821173 1.89828837 44.09536696 1.5625 53.75 C1.5091386 55.4296677 1.45639981 57.10935529 1.40429688 58.7890625 C1.27669716 62.85963968 1.14071288 66.92985589 1 71 C0.67 71 0.34 71 0 71 C0 47.57 0 24.14 0 0 Z M7 27.8125 C10 28 10 28 12 29 C12 29.66 12 30.32 12 31 C12.66 31.33 13.32 31.66 14 32 C13.67 33.32 13.34 34.64 13 36 C12.01 36 11.02 36 10 36 C10 36.66 10 37.32 10 38 C9.01 38 8.02 38 7 38 C7.33 36.68 7.66 35.36 8 34 C8.99 34 9.98 34 11 34 C11 33.34 11 32.68 11 32 C10.01 31.67 9.02 31.34 8 31 C8 30.34 8 29.68 8 29 C7.34 29 6.68 29 6 29 C6 30.65 6 32.3 6 34 C5.01 34.33 4.02 34.66 3 35 C2.375 32.625 2.375 32.625 2 30 C4 28 4 28 7 27.8125 Z " fill="#F3F2F3" transform="translate(1,84)"/>
<path d="M0 0 C40.26 0 80.52 0 122 0 C122 18.81 122 37.62 122 57 C47.75 57.495 47.75 57.495 -28 58 C-28 56.35 -28 54.7 -28 53 C-25 52 -25 52 -22 53 C-21.67 52.01 -21.34 51.02 -21 50 C-20.67 50.33 -20.34 50.66 -20 51 C-19.34 50.34 -18.68 49.68 -18 49 C-18 50.32 -18 51.64 -18 53 C-12.06 53.33 -6.12 53.66 0 54 C0 36.18 0 18.36 0 0 Z " fill="#F3F3F3" transform="translate(281,272)"/>
<path d="M0 0 C1.76025764 -0.01073296 1.76025764 -0.01073296 3.55607605 -0.02168274 C4.85013367 -0.02437164 6.14419128 -0.02706055 7.47746277 -0.02983093 C8.84893975 -0.03609484 10.22041502 -0.04274158 11.59188843 -0.04974365 C15.32338576 -0.06715983 19.05487027 -0.07770705 22.78639817 -0.08594918 C25.11718039 -0.09109798 27.44795862 -0.09717376 29.77873802 -0.10346031 C37.06963391 -0.12251402 44.36051966 -0.13674484 51.65143567 -0.14507228 C60.07052965 -0.15484676 68.48936084 -0.18117081 76.90836221 -0.22157317 C83.41373698 -0.25172195 89.91903638 -0.26653996 96.42447966 -0.26985329 C100.3108537 -0.27220519 104.19694707 -0.28118327 108.08324623 -0.30631447 C111.73998163 -0.32957891 115.39625126 -0.33383533 119.05304146 -0.32355309 C121.03331103 -0.32282092 123.01355686 -0.34192362 124.99372864 -0.36161804 C126.17569321 -0.35467422 127.35765778 -0.34773041 128.57543945 -0.34057617 C129.60064099 -0.34296453 130.62584253 -0.34535288 131.68211079 -0.34781361 C136.10808913 0.43570753 138.53951638 2.98191457 141.29069519 6.39717102 C142.87725767 10.07131571 143.39697783 13.26623313 142.47819519 17.14717102 C139.96287359 21.3149531 136.99415367 24.28353502 132.47819519 26.14717102 C129.87880135 26.40164661 129.87880135 26.40164661 126.87446594 26.40786743 C125.73331329 26.41495224 124.59216064 26.42203705 123.41642761 26.42933655 C122.16853455 26.42685913 120.92064148 26.42438171 119.63493347 26.42182922 C118.31750153 26.42694016 117.00006958 26.43205109 115.64271545 26.43731689 C112.03106617 26.45070557 108.41952154 26.45128564 104.80785227 26.4487536 C101.79102006 26.44768361 98.774209 26.45256805 95.75738132 26.45735902 C88.63842427 26.46845413 81.51951998 26.46889185 74.40055847 26.46284485 C67.06147852 26.4568066 59.72259036 26.46911217 52.38354313 26.49041492 C46.07852525 26.50804192 39.77356834 26.51403048 33.46852672 26.51077718 C29.70461811 26.50896563 25.94084625 26.51158735 22.17695999 26.52549171 C18.63596039 26.53808311 15.09525918 26.5361138 11.55426407 26.52308083 C9.63984141 26.51959402 7.72540959 26.53088391 5.8110199 26.54264832 C-4.79307157 26.47778878 -4.79307157 26.47778878 -9.52180481 23.14717102 C-13.16216931 19.12361026 -14.26857592 15.70828472 -14.05305481 10.40107727 C-13.11368013 6.41564205 -10.55199889 3.78485291 -7.52180481 1.14717102 C-4.89552181 -0.16597048 -2.94229357 0.01227829 0 0 Z " fill="#171716" transform="translate(77.52180480957031,366.8528289794922)"/>
<path d="M0 0 C2.31 0 4.62 0 7 0 C7.33 0.99 7.66 1.98 8 3 C10.97 3.33 13.94 3.66 17 4 C17.33 4.99 17.66 5.98 18 7 C20.4073278 9.20671715 22.43165643 10.78687116 25.5 11.9375 C28.74966647 13.31860825 30.5515598 15.48877928 33 18 C34.32567199 18.68177416 35.65753688 19.35191436 37 20 C37.66 20.99 38.32 21.98 39 23 C41.55183404 24.20450304 41.55183404 24.20450304 44 25 C44 25.99 44 26.98 44 28 C44.66 28 45.32 28 46 28 C47.33203125 29.49609375 47.33203125 29.49609375 48.8125 31.4375 C50.9101844 33.9938918 51.65584747 34.88777635 54.875 35.9375 C55.926875 35.9684375 55.926875 35.9684375 57 36 C57.144375 36.825 57.28875 37.65 57.4375 38.5 C59.40247858 42.90155201 62.10216115 44.97871568 65.73828125 48.046875 C69.86603702 51.61143093 72.64694522 54.58778087 74 60 C49.58 60 25.16 60 0 60 C0 40.2 0 20.4 0 0 Z " fill="#190932" transform="translate(0,660)"/>
<path d="M0 0 C40.26 0 80.52 0 122 0 C122 7.26 122 14.52 122 22 C81.74 22 41.48 22 0 22 C0 14.74 0 7.48 0 0 Z " fill="#F4F4F4" transform="translate(281,535)"/>
<path d="M0 0 C9.0232169 -0.1130947 18.04596084 -0.20476931 27.06972694 -0.25906086 C31.26013203 -0.28512208 35.45002586 -0.32045533 39.64013672 -0.37719727 C43.68614072 -0.43164299 47.73165391 -0.46144668 51.77799606 -0.47438622 C53.31937763 -0.48360375 54.86073323 -0.50160404 56.40190506 -0.52865028 C58.56620947 -0.56511117 60.72850283 -0.56993877 62.89306641 -0.56762695 C64.73839462 -0.58428154 64.73839462 -0.58428154 66.6210022 -0.60127258 C71.13486217 0.20194198 72.7510967 1.8126237 76 5 C78.4645292 8.64443128 78.19245739 11.51350388 77.61328125 15.7421875 C76.59804099 19.4798236 74.79256672 21.34041265 72 24 C68.56961706 25.14346098 65.9436825 25.120116 62.32543945 25.11352539 C61.652005 25.11367142 60.97857056 25.11381744 60.284729 25.1139679 C58.06088021 25.11327175 55.83711539 25.10549332 53.61328125 25.09765625 C52.07057236 25.09579101 50.52786289 25.09436761 48.9851532 25.09336853 C44.92616132 25.08955169 40.86720527 25.07972851 36.80822754 25.06866455 C32.66577641 25.05843252 28.5233195 25.05386707 24.38085938 25.04882812 C16.25388799 25.0381055 8.12695258 25.02051543 0 25 C0 16.75 0 8.5 0 0 Z " fill="#151414" transform="translate(142,263)"/>
<path d="M0 0 C0.6737265 -0.00043808 1.347453 -0.00087616 2.04159546 -0.00132751 C4.2548381 0.00075226 6.46731063 0.02404351 8.68041992 0.04760742 C10.22026658 0.0532063 11.76011861 0.05747502 13.29997253 0.06047058 C17.34262988 0.0718965 21.38496123 0.10134395 25.42749023 0.13458252 C29.55667715 0.16533222 33.68591701 0.17898636 37.81518555 0.1940918 C45.90975249 0.22621617 54.0039924 0.27896536 62.09838867 0.34057617 C62.09838867 8.59057617 62.09838867 16.84057617 62.09838867 25.34057617 C53.20554665 25.43105668 44.31301189 25.50439516 35.41981316 25.54782486 C31.29003632 25.56867223 27.16059158 25.59693707 23.03100586 25.64233398 C19.04337438 25.68589451 15.05606171 25.70973472 11.0682106 25.72008514 C9.54918527 25.7274583 8.03017677 25.74185659 6.51128769 25.7634964 C4.37832106 25.79266793 2.2466604 25.79652672 0.11352539 25.79467773 C-1.09892853 25.80356018 -2.31138245 25.81244263 -3.56057739 25.82159424 C-8.11408774 25.16601253 -11.41927414 23.22718713 -14.27661133 19.59057617 C-15.62982104 14.71902121 -15.38934754 10.7011035 -13.71411133 6.02807617 C-10.11617623 0.69320688 -6.20706331 -0.03404239 0 0 Z " fill="#141414" transform="translate(78.901611328125,262.659423828125)"/>
<path d="M0 0 C13.17811685 -0.13909385 26.35605872 -0.24566943 39.53476048 -0.31087303 C45.65437839 -0.34216958 51.77349364 -0.38461354 57.89282227 -0.45263672 C63.79969655 -0.51788642 69.70608771 -0.55371865 75.6132946 -0.56926346 C77.86557558 -0.58033952 80.11783047 -0.60196889 82.36990547 -0.63438034 C85.52786261 -0.67801661 88.68383031 -0.68393087 91.84204102 -0.68115234 C92.77064941 -0.702724 93.69925781 -0.72429565 94.65600586 -0.746521 C100.30240525 -0.69285902 103.4755954 0.38115264 107.7282095 4.12550926 C109 6 109 6 110 12 C73.7 12 37.4 12 0 12 C0 8.04 0 4.08 0 0 Z " fill="#161313" transform="translate(142,315)"/>
<path d="M0 0 C0.99574036 -0.00073013 1.99148071 -0.00146027 3.01739502 -0.00221252 C6.29682572 0.00126088 9.57482243 0.040112 12.85400391 0.0793457 C15.13228581 0.08867466 17.41057776 0.09579038 19.68887329 0.1007843 C25.6764917 0.11984729 31.66350075 0.1689431 37.65087891 0.2243042 C43.76407631 0.27551115 49.87737246 0.2983015 55.99072266 0.32348633 C67.97927118 0.37706167 79.96736806 0.46236682 91.95556641 0.56762695 C91.95556641 4.52762695 91.95556641 8.48762695 91.95556641 12.56762695 C55.98556641 12.56762695 20.01556641 12.56762695 -17.04443359 12.56762695 C-16.04443359 5.56762695 -16.04443359 5.56762695 -13.60971069 2.66560364 C-9.40024964 -0.38167591 -5.01991268 -0.09680272 0 0 Z " fill="#151413" transform="translate(49.04443359375,314.432373046875)"/>
<path d="M0 0 C31.02 0 62.04 0 94 0 C94.495 3.465 94.495 3.465 95 7 C95.99 6.67 96.98 6.34 98 6 C98.495 7.485 98.495 7.485 99 9 C99.37849614 4.45804635 98.9891703 3.9855604 96 0 C100.62 0 105.24 0 110 0 C108.96418824 6.21487057 108.49754628 7.16063122 104 11 C101.7060839 12.14695805 100.43662851 12.12338652 97.88717651 12.12025452 C97.02618347 12.12162918 96.16519043 12.12300385 95.27810669 12.12442017 C94.33152191 12.12082489 93.38493713 12.11722961 92.40966797 12.11352539 C90.91693359 12.11374443 90.91693359 12.11374443 89.39404297 12.1139679 C86.09340257 12.11326931 82.79281808 12.10547944 79.4921875 12.09765625 C77.20818106 12.09579188 74.92417422 12.09436807 72.64016724 12.09336853 C66.61988222 12.08954487 60.59962121 12.07971586 54.5793457 12.06866455 C48.43961919 12.05844718 42.29988881 12.05387021 36.16015625 12.04882812 C24.10676027 12.03809348 12.05338213 12.02101885 0 12 C0 8.04 0 4.08 0 0 Z " fill="#151316" transform="translate(142,328)"/>
<path d="M0 0 C0.33 0 0.66 0 1 0 C1 52.14 1 104.28 1 158 C23.11 158 45.22 158 68 158 C68 158.33 68 158.66 68 159 C45.89 159 23.78 159 1 159 C1 167.25 1 175.5 1 184 C22.78 184 44.56 184 67 184 C67 184.33 67 184.66 67 185 C45.22 185 23.44 185 1 185 C1 193.25 1 201.5 1 210 C33.67 210 66.34 210 100 210 C100 210.33 100 210.66 100 211 C67.33 211 34.66 211 1 211 C1 214.96 1 218.92 1 223 C37.3 223 73.6 223 111 223 C111 223.33 111 223.66 111 224 C106.71 224.33 102.42 224.66 98 225 C98.99 225.99 99.98 226.98 101 228 C100.6875 230.6875 100.6875 230.6875 100 233 C99.34 232.67 98.68 232.34 98 232 C97.01 232 96.02 232 95 232 C95 229.36 95 226.72 95 224 C63.98 224 32.96 224 1 224 C1 227.96 1 231.92 1 236 C34 236 67 236 101 236 C101 236.33 101 236.66 101 237 C34.67 237 -31.66 237 -100 237 C-100 236.67 -100 236.34 -100 236 C-67 236 -34 236 0 236 C0 232.04 0 228.08 0 224 C-35.97 224 -71.94 224 -109 224 C-109.495 225.98 -109.495 225.98 -110 228 C-110 225.03 -110 222.06 -110 219 C-109.67 220.32 -109.34 221.64 -109 223 C-73.03 223 -37.06 223 0 223 C0 219.04 0 215.08 0 211 C-33 211 -66 211 -100 211 C-100 210.67 -100 210.34 -100 210 C-67 210 -34 210 0 210 C0 201.75 0 193.5 0 185 C-22.11 185 -44.22 185 -67 185 C-67 184.67 -67 184.34 -67 184 C-44.89 184 -22.78 184 0 184 C0 175.75 0 167.5 0 159 C-22.11 159 -44.22 159 -67 159 C-67 158.67 -67 158.34 -67 158 C-44.89 158 -22.78 158 0 158 C0 105.86 0 53.72 0 0 Z " fill="#969592" transform="translate(141,104)"/>
<path d="M0 0 C0.33 0 0.66 0 1 0 C1 237.6 1 475.2 1 720 C0.34 720 -0.32 720 -1 720 C-1.33 689.64 -1.66 659.28 -2 628 C-41.6 628 -81.2 628 -122 628 C-122.66 629.32 -123.32 630.64 -124 632 C-124.66 630.68 -125.32 629.36 -126 628 C-135.24 628 -144.48 628 -154 628 C-154.33 627.34 -154.66 626.68 -155 626 C-154.21240075 625.99576806 -153.4248015 625.99153612 -152.61333561 625.98717594 C-133.47740364 625.88401415 -114.34150981 625.77539843 -95.20564365 625.66066074 C-85.95180607 625.60530768 -76.69796464 625.55182232 -67.4440918 625.50268555 C-59.38141381 625.45986917 -51.31876445 625.41359771 -43.25613064 625.36312145 C-38.9843316 625.33649992 -34.71253832 625.31164643 -30.44070625 625.29092598 C-26.42461261 625.27139151 -22.40857357 625.24725751 -18.39252853 625.21950912 C-16.91424357 625.21012172 -15.43594661 625.20245256 -13.95764351 625.19658089 C-11.94798058 625.18834839 -9.93834801 625.17348277 -7.9287262 625.15821838 C-6.80137338 625.15176583 -5.67402056 625.14531328 -4.51250553 625.1386652 C-2.06120812 625.28356358 -2.06120812 625.28356358 -1 624 C-0.90109504 622.6277691 -0.87131905 621.25048451 -0.86938947 619.87469524 C-0.86570876 618.97799561 -0.86202805 618.08129599 -0.85823581 617.15742365 C-0.85925847 616.1589391 -0.86028114 615.16045456 -0.8613348 614.13171291 C-0.85707147 612.54966438 -0.85707147 612.54966438 -0.85272202 610.93565527 C-0.84431107 607.35385999 -0.84310184 603.77209679 -0.84178162 600.19029236 C-0.83722061 597.61555308 -0.83222128 595.04081455 -0.82681805 592.46607691 C-0.8157314 586.84356511 -0.80837775 581.22105785 -0.80341911 575.59853745 C-0.79602905 567.2379653 -0.78294968 558.87740895 -0.76867336 550.51684607 C-0.74482475 536.45523978 -0.72563664 522.39363069 -0.70907402 508.33201408 C-0.69265191 494.40252232 -0.67417715 480.47303578 -0.65294075 466.54355049 C-0.65162314 465.67853884 -0.65030554 464.81352719 -0.648948 463.92230306 C-0.64224623 459.52962395 -0.63550758 455.1369449 -0.62875474 450.74426586 C-0.58094914 419.60384833 -0.53777637 388.46342592 -0.49731445 357.32299805 C-0.45798751 327.06420537 -0.41657057 296.80541674 -0.37231445 266.54663086 C-0.37095192 265.6144715 -0.36958939 264.68231213 -0.36818558 263.72190552 C-0.35450059 254.36106353 -0.34077302 245.0002216 -0.32701423 235.63937972 C-0.29898517 216.56904017 -0.27124046 197.4987002 -0.2436676 178.42835999 C-0.2423994 177.55147219 -0.2411312 176.67458439 -0.23982458 175.77112423 C-0.15512086 117.18075606 -0.07706715 58.59037866 0 0 Z " fill="#44414D" transform="translate(404,0)"/>
<path d="M0 0 C133.32 0 266.64 0 404 0 C404 28.38 404 56.76 404 86 C401.52266361 82.28399541 401.76970605 79.51369814 401.86474609 75.22387695 C401.87893837 74.03816101 401.87893837 74.03816101 401.89341736 72.82849121 C401.92710402 70.21485303 401.97521656 67.60168837 402.0234375 64.98828125 C402.04960372 63.17654153 402.0748708 61.36478862 402.09927368 59.55302429 C402.16593359 54.78367424 402.2448245 50.01460146 402.32623291 45.2454834 C402.40714425 40.37925868 402.4765298 35.51287127 402.546875 30.64648438 C402.68661358 21.09746122 402.8392693 11.54869126 403 2 C402.1555677 2.07087043 401.3111354 2.14174086 400.44111425 2.21475887 C391.83103597 2.89016555 383.31281314 3.13826892 374.67497253 3.11352539 C373.28907263 3.11324456 371.90317258 3.11340996 370.51727277 3.11397648 C366.75078213 3.11426897 362.98432378 3.10838159 359.21784055 3.10140657 C355.13933395 3.09498296 351.06082594 3.09445954 346.98231506 3.0932312 C339.92605772 3.09035511 332.86981095 3.08393304 325.81355858 3.07516479 C315.593113 3.06255927 305.37267129 3.05652202 295.15221921 3.05223143 C278.54247574 3.0451758 261.93273717 3.03438422 245.32299805 3.02050781 C243.83429265 3.01926609 243.83429265 3.01926609 242.3155124 3.01799929 C234.26559452 3.01125669 226.2156768 3.00433228 218.16575909 2.99739647 C211.13321121 2.99134421 204.10066327 2.98536336 197.06811523 2.97949219 C196.0777747 2.97866406 195.08743417 2.97783593 194.06708332 2.97698271 C177.51978786 2.96326894 160.97249231 2.95352482 144.42519265 2.94658184 C134.23797557 2.94211648 124.05077316 2.93410941 113.86356292 2.92143703 C106.87680536 2.9129732 99.89005115 2.9081118 92.9032888 2.90601182 C88.88092276 2.90467498 84.8585757 2.90172017 80.83621597 2.89425278 C60.04838657 2.7887445 60.04838657 2.7887445 39.29457569 3.82740784 C34.49070637 4.07906701 29.78988117 3.66051589 25.00390625 3.2578125 C17.36040851 2.68205325 9.65899039 2.92580095 2 3 C1.67 4.32 1.34 5.64 1 7 C0.67 7 0.34 7 0 7 C0 4.69 0 2.38 0 0 Z " fill="#5865EC" transform="translate(0,0)"/>
<path d="M0 0 C0.33 0 0.66 0 1 0 C1 3.96 1 7.92 1 12 C37.3 12 73.6 12 111 12 C111 12.33 111 12.66 111 13 C104.565 13.495 104.565 13.495 98 14 C98.99 14.99 99.98 15.98 101 17 C100.6875 19.6875 100.6875 19.6875 100 22 C99.34 21.67 98.68 21.34 98 21 C97.01 21 96.02 21 95 21 C95 18.36 95 15.72 95 13 C63.98 13 32.96 13 1 13 C1 16.96 1 20.92 1 25 C34 25 67 25 101 25 C101 25.33 101 25.66 101 26 C34.67 26 -31.66 26 -100 26 C-100 25.67 -100 25.34 -100 25 C-67 25 -34 25 0 25 C0 21.04 0 17.08 0 13 C-35.97 13 -71.94 13 -109 13 C-109.33 14.32 -109.66 15.64 -110 17 C-110 14.03 -110 11.06 -110 8 C-109.67 9.32 -109.34 10.64 -109 12 C-73.03 12 -37.06 12 0 12 C0 8.04 0 4.08 0 0 Z " fill="#655362" transform="translate(141,315)"/>
<path d="M0 0 C0.33 0 0.66 0 1 0 C1 31.68 1 63.36 1 96 C0.67 96 0.34 96 0 96 C-0.33 65.64 -0.66 35.28 -1 4 C-40.6 4 -80.2 4 -121 4 C-121.66 5.32 -122.32 6.64 -123 8 C-123.66 6.68 -124.32 5.36 -125 4 C-134.24 4 -143.48 4 -153 4 C-153.33 3.34 -153.66 2.68 -154 2 C-153.21240075 1.99576806 -152.4248015 1.99153612 -151.61333561 1.98717594 C-132.47740364 1.88401415 -113.34150981 1.77539843 -94.20564365 1.66066074 C-84.95180607 1.60530768 -75.69796464 1.55182232 -66.4440918 1.50268555 C-58.38141381 1.45986917 -50.31876445 1.41359771 -42.25613064 1.36312145 C-37.9843316 1.33649992 -33.71253832 1.31164643 -29.44070625 1.29092598 C-25.42461261 1.27139151 -21.40857357 1.24725751 -17.39252853 1.21950912 C-15.91424357 1.21012172 -14.43594661 1.20245256 -12.95764351 1.19658089 C-10.94798058 1.18834839 -8.93834801 1.17348277 -6.9287262 1.15821838 C-5.80137338 1.15176583 -4.67402056 1.14531328 -3.51250553 1.1386652 C-1.06120812 1.28356358 -1.06120812 1.28356358 0 0 Z " fill="#6B3D76" transform="translate(403,624)"/>
<path d="M0 0 C0.33 0 0.66 0 1 0 C1 52.14 1 104.28 1 158 C23.11 158 45.22 158 68 158 C68 158.33 68 158.66 68 159 C45.89 159 23.78 159 1 159 C1 167.25 1 175.5 1 184 C0.67 184 0.34 184 0 184 C0 175.75 0 167.5 0 159 C-22.11 159 -44.22 159 -67 159 C-67 158.67 -67 158.34 -67 158 C-44.89 158 -22.78 158 0 158 C0 105.86 0 53.72 0 0 Z " fill="#92838F" transform="translate(141,104)"/>
<path d="M0 0 C2.9375 0.375 2.9375 0.375 6 1 C7 3 7 3 6.8125 6.1875 C7.07909375 11.60823963 9.12151627 15.12151627 13 19 C12.625 21.125 12.625 21.125 12 23 C12.66 23 13.32 23 14 23 C14.12375 23.639375 14.2475 24.27875 14.375 24.9375 C14.58125 25.618125 14.7875 26.29875 15 27 C15.66 27.33 16.32 27.66 17 28 C17.52581866 29.97181997 18.04556071 31.94591104 18.5078125 33.93359375 C19.60913104 38.85440561 19.60913104 38.85440561 22.97265625 42.33203125 C25.47259225 44.38881867 25.81082492 45.7642943 26.5625 48.875 C28.01832337 54.29308362 28.01832337 54.29308362 31 59 C32.32 59 33.64 59 35 59 C35 62.63 35 66.26 35 70 C36.32 70 37.64 70 39 70 C38.979375 70.7425 38.95875 71.485 38.9375 72.25 C38.99430689 74.74950315 39.08773628 76.67787416 40 79 C40.99 79.33 41.98 79.66 43 80 C44.6875 82.5625 44.6875 82.5625 46 85 C43.71875 84.84375 43.71875 84.84375 41 84 C39.21875 81.71875 39.21875 81.71875 37.5 78.5 C37.17523682 77.89978027 36.85047363 77.29956055 36.51586914 76.68115234 C35.76508336 75.28261978 35.02371483 73.87900899 34.28955078 72.47167969 C32.82358657 69.66186869 31.3312728 66.86668647 29.83984375 64.0703125 C24.70023747 54.36911038 19.65609375 44.67687898 15.39477539 34.55444336 C13.40224053 29.83423348 11.19167974 25.25688062 8.875 20.6875 C0 3.17357117 0 3.17357117 0 0 Z " fill="#F7EADA" transform="translate(165,635)"/>
<path d="M0 0 C0.99 0.495 0.99 0.495 2 1 C2.495 3.97 2.495 3.97 3 7 C-19.77 6.67 -42.54 6.34 -66 6 C-66.33 4.68 -66.66 3.36 -67 2 C-44.89 2 -22.78 2 0 2 C0 1.34 0 0.68 0 0 Z " fill="#9FBFDB" transform="translate(390,356)"/>
<path d="M0 0 C1.084021 0.00523682 2.16804199 0.01047363 3.28491211 0.01586914 C5.03964844 0.02070313 5.03964844 0.02070313 6.82983398 0.02563477 C8.67738281 0.03820312 8.67738281 0.03820312 10.56225586 0.05102539 C12.41560547 0.05779297 12.41560547 0.05779297 14.30639648 0.06469727 C17.37089703 0.07652931 20.43530307 0.09301366 23.49975586 0.11352539 C22.12475586 2.11352539 22.12475586 2.11352539 20.49975586 4.11352539 C19.83975586 4.11352539 19.17975586 4.11352539 18.49975586 4.11352539 C18.16975586 5.43352539 17.83975586 6.75352539 17.49975586 8.11352539 C18.15975586 8.44352539 18.81975586 8.77352539 19.49975586 9.11352539 C19.16975586 9.77352539 18.83975586 10.43352539 18.49975586 11.11352539 C11.23975586 11.11352539 3.97975586 11.11352539 -3.50024414 11.11352539 C-3.50024414 0.15893111 -3.50024414 0.15893111 0 0 Z " fill="#F6F7F7" transform="translate(291.500244140625,310.886474609375)"/>
<path d="M0 0 C2.31 0 4.62 0 7 0 C6.01 0.495 6.01 0.495 5 1 C5 1.66 5 2.32 5 3 C5.99 3.33 6.98 3.66 8 4 C8.33 5.65 8.66 7.3 9 9 C9.86625 8.443125 9.86625 8.443125 10.75 7.875 C13 7 13 7 15.25 7.875 C15.8275 8.24625 16.405 8.6175 17 9 C17 9.66 17 10.32 17 11 C13.37 11 9.74 11 6 11 C6 10.34 6 9.68 6 9 C4.02 9.33 2.04 9.66 0 10 C-1.6415049 6.7169902 -0.51888624 3.57454967 0 0 Z M12 2 C13.82337891 2.10828125 13.82337891 2.10828125 15.68359375 2.21875 C17.26822826 2.31251536 18.85286372 2.40626452 20.4375 2.5 C21.23994141 2.54769531 22.04238281 2.59539062 22.86914062 2.64453125 C27.32939371 3.09226492 27.32939371 3.09226492 31.6875 2.5 C34.49769161 1.892391 37.13338512 1.93484966 40 2 C39.67 3.32 39.34 4.64 39 6 C37.02 6 35.04 6 33 6 C32.67 6.99 32.34 7.98 32 9 C28.55152617 11.52003857 25.13426005 11.15901 21 11 C20.67 10.01 20.34 9.02 20 8 C17.69 7.67 15.38 7.34 13 7 C12.67 5.35 12.34 3.7 12 2 Z " fill="#E9E9E9" transform="translate(291,139)"/>
<path d="M0 0 C33.99 0 67.98 0 103 0 C103 0.33 103 0.66 103 1 C102.00093628 1.01213028 102.00093628 1.01213028 100.98168945 1.02450562 C93.97199237 1.11138851 86.96255135 1.21091493 79.953125 1.31738281 C77.34639834 1.35537611 74.73962453 1.39027728 72.1328125 1.421875 C53.08850184 1.65045236 53.08850184 1.65045236 34.16577148 3.57324219 C26.23633552 4.64215975 18.36379743 3.91585916 10.4375 3.125 C9.53708984 3.04636719 8.63667969 2.96773438 7.70898438 2.88671875 C6.42797852 2.76103516 6.42797852 2.76103516 5.12109375 2.6328125 C3.96758423 2.52283936 3.96758423 2.52283936 2.79077148 2.41064453 C2.19981689 2.27513184 1.6088623 2.13961914 1 2 C0.67 1.34 0.34 0.68 0 0 Z " fill="#1E0F21" transform="translate(32,328)"/>
<path d="M0 0 C0.33 0 0.66 0 1 0 C1 3.96 1 7.92 1 12 C-34.97 12 -70.94 12 -108 12 C-107.67 9.69 -107.34 7.38 -107 5 C-106.01 5 -105.02 5 -104 5 C-102 7 -102 7 -102 11 C-51.51 10.505 -51.51 10.505 0 10 C0 6.7 0 3.4 0 0 Z " fill="#25081E" transform="translate(140,315)"/>
<path d="M0 0 C27.06 0 54.12 0 82 0 C82.495 0.99 82.495 0.99 83 2 C66.5 2 50 2 33 2 C32.34 3.32 31.68 4.64 31 6 C30.34 4.68 29.68 3.36 29 2 C19.76 2 10.52 2 1 2 C0.67 1.34 0.34 0.68 0 0 Z " fill="#7D5B7A" transform="translate(249,626)"/>
<path d="M0 0 C1.10601562 -0.01417969 2.21203125 -0.02835937 3.3515625 -0.04296875 C6.2750427 0.17988052 7.90958529 0.66615872 10.375 2.1875 C9.4375 4.125 9.4375 4.125 7.375 6.1875 C5.01240021 6.64299221 2.73889524 6.81296719 0.3359375 6.9140625 C-0.63472656 7.04941406 -0.63472656 7.04941406 -1.625 7.1875 C-1.955 7.8475 -2.285 8.5075 -2.625 9.1875 C-2.625 8.1975 -2.625 7.2075 -2.625 6.1875 C-4.935 6.8475 -7.245 7.5075 -9.625 8.1875 C-9.625 9.5075 -9.625 10.8275 -9.625 12.1875 C-10.615 11.8575 -11.605 11.5275 -12.625 11.1875 C-12.625 7.85416667 -12.625 4.52083333 -12.625 1.1875 C-8.37515382 0.3850366 -4.3240057 0.02531619 0 0 Z " fill="#F5F2F1" transform="translate(16.625,83.8125)"/>
<path d="M0 0 C1.32 0.33 2.64 0.66 4 1 C3.01 1.33 2.02 1.66 1 2 C1.07726318 2.6487207 1.15452637 3.29744141 1.23413086 3.96582031 C2.22086765 13.59821173 1.89828837 23.09536696 1.5625 32.75 C1.5091386 34.4296677 1.45639981 36.10935529 1.40429688 37.7890625 C1.27669716 41.85963968 1.14071288 45.92985589 1 50 C0.67 50 0.34 50 0 50 C0 33.5 0 17 0 0 Z M7 6.8125 C10 7 10 7 12 8 C12 8.66 12 9.32 12 10 C12.66 10.33 13.32 10.66 14 11 C13.67 12.32 13.34 13.64 13 15 C12.01 15 11.02 15 10 15 C10 15.66 10 16.32 10 17 C9.01 17 8.02 17 7 17 C7.33 15.68 7.66 14.36 8 13 C8.99 13 9.98 13 11 13 C11 12.34 11 11.68 11 11 C10.01 10.67 9.02 10.34 8 10 C8 9.34 8 8.68 8 8 C7.34 8 6.68 8 6 8 C6 9.65 6 11.3 6 13 C5.01 13.33 4.02 13.66 3 14 C2.375 11.625 2.375 11.625 2 9 C4 7 4 7 7 6.8125 Z " fill="#F5F6F9" transform="translate(1,105)"/>
<path d="M0 0 C1.051875 0.020625 2.10375 0.04125 3.1875 0.0625 C4.5075 0.0625 5.8275 0.0625 7.1875 0.0625 C9.1875 0.0625 11.1875 0.0625 13.1875 0.0625 C13.56883299 2.0539056 13.90075582 4.05529077 14.1875 6.0625 C13.1875 7.0625 13.1875 7.0625 11.33984375 7.16015625 C9.2890625 7.12760417 7.23828125 7.09505208 5.1875 7.0625 C5.1875 6.4025 5.1875 5.7425 5.1875 5.0625 C4.1975 5.0625 3.2075 5.0625 2.1875 5.0625 C2.1875 5.7225 2.1875 6.3825 2.1875 7.0625 C-0.1875 7.1875 -0.1875 7.1875 -2.8125 7.0625 C-3.4725 6.4025 -4.1325 5.7425 -4.8125 5.0625 C-4.23712785 1.26504382 -4.0148577 0.08921906 0 0 Z " fill="#F3E5BD" transform="translate(10.8125,89.9375)"/>
<path d="M0 0 C2.9375 0.375 2.9375 0.375 6 1 C7 3 7 3 6.8125 6.1875 C7.07909375 11.60823963 9.12151627 15.12151627 13 19 C12.625 21.125 12.625 21.125 12 23 C12.66 23 13.32 23 14 23 C14.12375 23.639375 14.2475 24.27875 14.375 24.9375 C14.58125 25.618125 14.7875 26.29875 15 27 C15.66 27.33 16.32 27.66 17 28 C16.34 28.33 15.68 28.66 15 29 C12 28 12 28 10.55786133 25.53149414 C10.0708374 24.46020264 9.58381348 23.38891113 9.08203125 22.28515625 C8.55029297 21.12435547 8.01855469 19.96355469 7.47070312 18.76757812 C7.06283569 17.85600952 7.06283569 17.85600952 6.64672852 16.92602539 C5.8151961 15.06852263 4.96865101 13.21848019 4.11914062 11.36914062 C0 2.30099588 0 2.30099588 0 0 Z " fill="#F3EAD8" transform="translate(165,635)"/>
<path d="M0 0 C0.33 1.32 0.66 2.64 1 4 C7.6 4 14.2 4 21 4 C21 5.32 21 6.64 21 8 C10.96557967 8.87801178 1.06394247 9.1176305 -9 9 C-9 7.35 -9 5.7 -9 4 C-6 3 -6 3 -3 4 C-2.67 3.01 -2.34 2.02 -2 1 C-1.67 1.33 -1.34 1.66 -1 2 C-0.67 1.34 -0.34 0.68 0 0 Z " fill="#F4DCEF" transform="translate(262,321)"/>
<path d="M0 0 C0.89847656 0.00257813 1.79695313 0.00515625 2.72265625 0.0078125 C3.61855469 0.00523437 4.51445312 0.00265625 5.4375 0 C7.78515625 0.1328125 7.78515625 0.1328125 9.78515625 1.1328125 C9.91015625 3.5078125 9.91015625 3.5078125 9.78515625 6.1328125 C7.37028682 8.54768193 6.65807836 8.429005 3.34765625 8.4453125 C2.17396484 8.47044922 2.17396484 8.47044922 0.9765625 8.49609375 C-1.70543781 8.05148407 -2.60879291 7.29339555 -4.21484375 5.1328125 C-3.82503774 1.81946139 -3.50074291 0.20992109 0 0 Z " fill="#585858" transform="translate(385.21484375,296.8671875)"/>
<path d="M0 0 C1.97909398 -0.02686553 3.95828971 -0.04633375 5.9375 -0.0625 C7.03964844 -0.07410156 8.14179688 -0.08570313 9.27734375 -0.09765625 C12 0 12 0 13 1 C13 2.98 13 4.96 13 7 C8.71 7 4.42 7 0 7 C0 4.69 0 2.38 0 0 Z " fill="#B7B7B7" transform="translate(301,496)"/>
<path d="M0 0 C20.79 0 41.58 0 63 0 C63 0.33 63 0.66 63 1 C52.44 1 41.88 1 31 1 C31.33 1.99 31.66 2.98 32 4 C31.5625 6.1875 31.5625 6.1875 31 8 C29.68 8.33 28.36 8.66 27 9 C27 7.35 27 5.7 27 4 C27.66 4 28.32 4 29 4 C29 3.34 29 2.68 29 2 C19.43 1.67 9.86 1.34 0 1 C0 0.67 0 0.34 0 0 Z " fill="#E3E3E3" transform="translate(334,310)"/>
<path d="M0 0 C2.97 0 5.94 0 9 0 C8.67 1.32 8.34 2.64 8 4 C6.02 4 4.04 4 2 4 C1.67 4.99 1.34 5.98 1 7 C-2.44847383 9.52003857 -5.86573995 9.15901 -10 9 C-10.33 8.01 -10.66 7.02 -11 6 C-11.66 5.67 -12.32 5.34 -13 5 C-12.34 4.01 -11.68 3.02 -11 2 C-11 2.66 -11 3.32 -11 4 C-7.7 3.67 -4.4 3.34 -1 3 C-0.67 2.01 -0.34 1.02 0 0 Z " fill="#EDEDED" transform="translate(322,141)"/>
<path d="M0 0 C3.63 0 7.26 0 11 0 C11.33 1.32 11.66 2.64 12 4 C11.01 4.66 10.02 5.32 9 6 C9 6.66 9 7.32 9 8 C12.63 8 16.26 8 20 8 C20 8.33 20 8.66 20 9 C17.04210873 9.2210949 14.08447236 9.42740245 11.125 9.625 C9.86236328 9.72167969 9.86236328 9.72167969 8.57421875 9.8203125 C7.76855469 9.871875 6.96289062 9.9234375 6.1328125 9.9765625 C5.38918457 10.02893066 4.64555664 10.08129883 3.87939453 10.13525391 C2 10 2 10 0 8 C0.66 7.34 1.32 6.68 2 6 C1.34 4.02 0.68 2.04 0 0 Z " fill="#EBEBEB" transform="translate(336,221)"/>
<path d="M0 0 C3.96 0 7.92 0 12 0 C12 2.31 12 4.62 12 7 C8.04 7 4.08 7 0 7 C0 4.69 0 2.38 0 0 Z " fill="#303030" transform="translate(301,394)"/>
<path d="M0 0 C1.75570312 -0.01836914 1.75570312 -0.01836914 3.546875 -0.03710938 C4.6709375 -0.03904297 5.795 -0.04097656 6.953125 -0.04296875 C7.97051758 -0.04707764 8.98791016 -0.05118652 10.03613281 -0.05541992 C12.77611571 0.18983763 14.41333535 0.78125146 16.75 2.1875 C8.04786393 3.35031933 -0.61788151 3.30329895 -9.375 3.25 C-10.82291511 3.24497252 -12.27083192 3.24041183 -13.71875 3.23632812 C-17.22920259 3.22542705 -20.73959007 3.20823202 -24.25 3.1875 C-17.5194179 -1.29955473 -7.81608514 0.00436165 0 0 Z " fill="#3521E1" transform="translate(227.25,32.8125)"/>
<path d="M0 0 C1.65 0 3.3 0 5 0 C5 3.63 5 7.26 5 11 C6.32 11 7.64 11 9 11 C8.979375 11.7425 8.95875 12.485 8.9375 13.25 C8.99430689 15.74950315 9.08773628 17.67787416 10 20 C10.99 20.33 11.98 20.66 13 21 C14.6875 23.5625 14.6875 23.5625 16 26 C13.7265625 25.84375 13.7265625 25.84375 11 25 C5.17908669 17.68228042 2.1984788 8.95380457 0 0 Z " fill="#FAF0BC" transform="translate(195,694)"/>
<path d="M0 0 C1.32 0 2.64 0 4 0 C4 0.66 4 1.32 4 2 C6.31 2 8.62 2 11 2 C11 3.32 11 4.64 11 6 C10.36707031 5.83628906 9.73414063 5.67257812 9.08203125 5.50390625 C4.93248907 4.82546399 0.88358502 4.89444625 -3.3125 4.9375 C-4.56643555 4.94426758 -4.56643555 4.94426758 -5.84570312 4.95117188 C-7.89716649 4.96289452 -9.94859273 4.98082797 -12 5 C-12 3.68 -12 2.36 -12 1 C-8.04 1.33 -4.08 1.66 0 2 C0 1.34 0 0.68 0 0 Z " fill="#A6A6A6" transform="translate(364,255)"/>
<path d="M0 0 C3 1 3 1 4.01147461 2.54711914 C4.30546143 3.20317139 4.59944824 3.85922363 4.90234375 4.53515625 C5.23556641 5.26283203 5.56878906 5.99050781 5.91210938 6.74023438 C6.25048828 7.50658203 6.58886719 8.27292969 6.9375 9.0625 C7.61230331 10.55382831 8.28808201 12.04471565 8.96484375 13.53515625 C9.29597168 14.27266113 9.62709961 15.01016602 9.96826172 15.77001953 C11.01002969 18.021678 12.12118085 20.22650001 13.25390625 22.43359375 C15 26 15 26 15 28 C13.68 28.33 12.36 28.66 11 29 C11.020625 28.2575 11.04125 27.515 11.0625 26.75 C11.00671312 24.29537721 10.6930096 22.33890739 10 20 C9.01 20 8.02 20 7 20 C6.67 19.34 6.34 18.68 6 18 C5.34 17.67 4.68 17.34 4 17 C4.99 16.67 5.98 16.34 7 16 C6.6390625 15.31292969 6.278125 14.62585938 5.90625 13.91796875 C5.21015625 12.56638672 5.21015625 12.56638672 4.5 11.1875 C3.80390625 9.84751953 3.80390625 9.84751953 3.09375 8.48046875 C2 6 2 6 2 3 C1.34 3 0.68 3 0 3 C0 2.01 0 1.02 0 0 Z " fill="#702677" transform="translate(167,645)"/>
<path d="M0 0 C1.98 0.99 3.96 1.98 6 3 C5.67 4.65 5.34 6.3 5 8 C3.23303157 8.27599507 1.46103785 8.51996915 -0.3125 8.75 C-1.29863281 8.88921875 -2.28476563 9.0284375 -3.30078125 9.171875 C-6 9 -6 9 -7.85546875 7.140625 C-9 5 -9 5 -9 3 C-6.03 3 -3.06 3 0 3 C0 2.01 0 1.02 0 0 Z " fill="#DFBBD7" transform="translate(133,472)"/>
<path d="M0 0 C4.62 0 9.24 0 14 0 C13.67 1.32 13.34 2.64 13 4 C11.02 4 9.04 4 7 4 C7.33 5.65 7.66 7.3 8 9 C6.68 9 5.36 9 4 9 C3.3309224 7.68872739 2.66480194 6.3759455 2 5.0625 C1.62875 4.33160156 1.2575 3.60070312 0.875 2.84765625 C0 1 0 1 0 0 Z " fill="#B8BEAA" transform="translate(160,626)"/>
<path d="M0 0 C0.62044189 0.03552979 1.24088379 0.07105957 1.88012695 0.10766602 C4.69062008 0.26525147 7.50151416 0.41397433 10.3125 0.5625 C11.77719727 0.64661133 11.77719727 0.64661133 13.27148438 0.73242188 C14.20927734 0.78076172 15.14707031 0.82910156 16.11328125 0.87890625 C17.40939331 0.94960327 17.40939331 0.94960327 18.73168945 1.02172852 C21.16835425 1.11450752 21.16835425 1.11450752 24 0 C24 1.32 24 2.64 24 4 C23.03578125 3.98839844 22.0715625 3.97679687 21.078125 3.96484375 C19.81484375 3.95582031 18.5515625 3.94679688 17.25 3.9375 C15.37054688 3.92009766 15.37054688 3.92009766 13.453125 3.90234375 C10.675414 3.98089893 8.63316126 4.29468895 6 5 C3.99053778 4.72949547 1.98645776 4.40632091 0 4 C0 2.68 0 1.36 0 0 Z " fill="#ADADAD" transform="translate(307,517)"/>
<path d="M0 0 C0.33 0 0.66 0 1 0 C1 11.22 1 22.44 1 34 C-1.31 33.67 -3.62 33.34 -6 33 C-6.33 31.02 -6.66 29.04 -7 27 C-5.35 26.67 -3.7 26.34 -2 26 C-1.67 27.65 -1.34 29.3 -1 31 C-0.67 20.77 -0.34 10.54 0 0 Z " fill="#4A45EC" transform="translate(402,49)"/>
<path d="M0 0 C3.67900176 4.21780294 6.1438999 8.74696538 8.6875 13.6875 C9.29174805 14.84475586 9.29174805 14.84475586 9.90820312 16.02539062 C11.28972409 18.67504139 12.66363536 21.32727072 14 24 C13.01 24 12.02 24 11 24 C10.34 22.35 9.68 20.7 9 19 C8.34 19 7.68 19 7 19 C6.566875 17.865625 6.13375 16.73125 5.6875 15.5625 C5.130625 14.386875 4.57375 13.21125 4 12 C3.01 11.67 2.02 11.34 1 11 C1.33 9.35 1.66 7.7 2 6 C1.01 6 0.02 6 -1 6 C-1.042721 4.33388095 -1.04063832 2.66617115 -1 1 C-0.67 0.67 -0.34 0.34 0 0 Z " fill="#682669" transform="translate(193,696)"/>
<path d="M0 0 C0 0.99 0 1.98 0 3 C-2.8320775 3.96218017 -5.66556127 4.9198208 -8.5 5.875 C-9.29148438 6.14441406 -10.08296875 6.41382813 -10.8984375 6.69140625 C-25.17333756 11.48870873 -25.17333756 11.48870873 -30 10 C-27.20209497 7.20209497 -24.82020154 7.5884929 -20.99609375 7.34375 C-20.33738281 7.2303125 -19.67867187 7.116875 -19 7 C-18.67 6.34 -18.34 5.68 -18 5 C-16.25 4.47265625 -16.25 4.47265625 -14 4.0625 C-9.17956631 3.09531828 -4.6286585 1.64136826 0 0 Z " fill="#5955FC" transform="translate(178,40)"/>
<path d="M0 0 C1.32 0 2.64 0 4 0 C4.33 1.65 4.66 3.3 5 5 C-1.27 5 -7.54 5 -14 5 C-14 3.68 -14 2.36 -14 1 C-13.07316406 1.01160156 -12.14632813 1.02320313 -11.19140625 1.03515625 C-9.39509766 1.04869141 -9.39509766 1.04869141 -7.5625 1.0625 C-5.77005859 1.07990234 -5.77005859 1.07990234 -3.94140625 1.09765625 C-1.11126659 1.33901792 -1.11126659 1.33901792 0 0 Z " fill="#A7A7A7" transform="translate(348,497)"/>
<path d="M0 0 C2.33294775 -0.04241723 4.66702567 -0.04092937 7 0 C8 1 8 1 8.125 4 C8 7 8 7 7 8 C4 8.125 4 8.125 1 8 C0 7 0 7 -0.0625 3.4375 C-0.041875 2.303125 -0.02125 1.16875 0 0 Z " fill="#B9B9B9" transform="translate(358,237)"/>
<path d="M0 0 C2.875 -0.125 2.875 -0.125 6 0 C8 2 8 2 8.125 5.125 C8.08375 6.07375 8.0425 7.0225 8 8 C5.66705225 8.04241723 3.33297433 8.04092937 1 8 C0 7 0 7 -0.0625 3.4375 C-0.041875 2.303125 -0.02125 1.16875 0 0 Z " fill="#B3B3B3" transform="translate(6,574)"/>
<path d="M0 0 C2.92824652 0.97608217 4.95613276 1.08226668 8 1 C7.67 1.99 7.34 2.98 7 4 C5.02 4 3.04 4 1 4 C1 4.66 1 5.32 1 6 C-2.3 6 -5.6 6 -9 6 C-8.34 5.67 -7.68 5.34 -7 5 C-7.33 3.68 -7.66 2.36 -8 1 C-2.25 -1.125 -2.25 -1.125 0 0 Z " fill="#BDBCBF" transform="translate(385,90)"/>
<path d="M0 0 C5.49925421 -0.04940929 10.99837942 -0.08572395 16.49780273 -0.10986328 C18.36891938 -0.11992567 20.24002028 -0.13357691 22.11108398 -0.15087891 C24.79935591 -0.17511684 27.48742006 -0.18648063 30.17578125 -0.1953125 C31.01337479 -0.20563507 31.85096832 -0.21595764 32.71394348 -0.22659302 C38.65838488 -0.22774341 38.65838488 -0.22774341 42 2 C41.67 2.33 41.34 2.66 41 3 C39.20533336 2.93024264 37.41357337 2.78840053 35.625 2.625 C27.96449591 2.01056373 20.30476672 1.70951892 12.625 1.4375 C11.39346191 1.39383301 10.16192383 1.35016602 8.89306641 1.30517578 C5.92877039 1.20158144 2.96442735 1.09975513 0 1 C0 0.67 0 0.34 0 0 Z " fill="#5957FD" transform="translate(213,32)"/>
<path d="M0 0 C4.95 0.33 9.9 0.66 15 1 C14.67 1.99 14.34 2.98 14 4 C8.94997778 5.03590199 4.12583611 5.10251672 -1 5 C-0.67 3.35 -0.34 1.7 0 0 Z " fill="#AAAAAA" transform="translate(324,543)"/>
<path d="M0 0 C0 1.65 0 3.3 0 5 C-2.3125 6.125 -2.3125 6.125 -5 7 C-5.99 6.34 -6.98 5.68 -8 5 C-8.1875 2.375 -8.1875 2.375 -8 0 C-5.13822943 -1.43088528 -3.06624227 -0.59991697 0 0 Z " fill="#A5A5A5" transform="translate(396,185)"/>
<path d="M0 0 C4.62 0 9.24 0 14 0 C14.33 1.32 14.66 2.64 15 4 C12.03 3.505 12.03 3.505 9 3 C9 3.66 9 4.32 9 5 C3.5 5.36666667 3.5 5.36666667 1.125 3.625 C0 2 0 2 0 0 Z " fill="#ACACAC" transform="translate(299,357)"/>
<path d="M0 0 C0.99 0 1.98 0 3 0 C5 2 5 2 5 6 C10.94 6 16.88 6 23 6 C23 6.33 23 6.66 23 7 C15.08 7 7.16 7 -1 7 C-0.67 4.69 -0.34 2.38 0 0 Z " fill="#20081B" transform="translate(33,320)"/>
<path d="M0 0 C1.98 0 3.96 0 6 0 C6 0.99 6 1.98 6 3 C6.66 3 7.32 3 8 3 C8 4.65 8 6.3 8 8 C5.125 8.125 5.125 8.125 2 8 C0 6 0 6 -0.125 2.875 C-0.08375 1.92625 -0.0425 0.9775 0 0 Z " fill="#D9D9D9" transform="translate(388,138)"/>
<path d="M0 0 C5.75 -0.125 5.75 -0.125 8 1 C8 2.98 8 4.96 8 7 C6.02 7 4.04 7 2 7 C2 6.34 2 5.68 2 5 C1.34 5 0.68 5 0 5 C0 3.35 0 1.7 0 0 Z " fill="#DEDEDE" transform="translate(348,139)"/>
<path d="M0 0 C1.67542976 0.28604898 3.34385343 0.61781233 5 1 C5 3.31 5 5.62 5 8 C3.34385343 8.38218767 1.67542976 8.71395102 0 9 C-1 8 -1 8 -1.125 4.5 C-1 1 -1 1 0 0 Z " fill="#A0A0A0" transform="translate(330,89)"/>
<path d="M0 0 C1.216875 0.165 2.43375 0.33 3.6875 0.5 C6.81607836 0.89454541 9.84168804 1.09869725 13 1 C13 2.32 13 3.64 13 5 C12.01 5 11.02 5 10 5 C9.67 4.34 9.34 3.68 9 3 C8.608125 3.495 8.21625 3.99 7.8125 4.5 C6 6 6 6 3.375 6.25 C1 6 1 6 0 5 C-0.04063832 3.33382885 -0.042721 1.66611905 0 0 Z " fill="#BEBFC0" transform="translate(143,91)"/>
<path d="M0 0 C1.67542976 0.28604898 3.34385343 0.61781233 5 1 C5.66 2.98 6.32 4.96 7 7 C1.25 8.125 1.25 8.125 -1 7 C-1.04254356 5.00045254 -1.04080783 2.99958364 -1 1 C-0.67 0.67 -0.34 0.34 0 0 Z " fill="#A0A0A0" transform="translate(312,90)"/>
<path d="M0 0 C1.99954746 -0.04254356 4.00041636 -0.04080783 6 0 C7 1 7 1 7.0625 4.0625 C7.041875 5.031875 7.02125 6.00125 7 7 C4.69 7 2.38 7 0 7 C0 4.69 0 2.38 0 0 Z " fill="#D3D3D3" transform="translate(288,542)"/>
<path d="M0 0 C2.31 0 4.62 0 7 0 C7.04254356 1.99954746 7.04080783 4.00041636 7 6 C6 7 6 7 2.9375 7.0625 C1.4834375 7.0315625 1.4834375 7.0315625 0 7 C0 4.69 0 2.38 0 0 Z " fill="#ABABAB" transform="translate(288,356)"/>
<path d="M0 0 C1.99954746 -0.04254356 4.00041636 -0.04080783 6 0 C7 1 7 1 7.125 3.5 C7 6 7 6 6 7 C4.00041636 7.04080783 1.99954746 7.04254356 0 7 C0 4.69 0 2.38 0 0 Z " fill="#B1B1B1" transform="translate(288,515)"/>
<path d="M0 0 C1.67542976 0.28604898 3.34385343 0.61781233 5 1 C5 1.66 5 2.32 5 3 C5.66 3 6.32 3 7 3 C6.67 3.66 6.34 4.32 6 5 C5.34 4.67 4.68 4.34 4 4 C4.33 4.66 4.66 5.32 5 6 C5.66 6 6.32 6 7 6 C6.67 6.99 6.34 7.98 6 9 C4.35 8.67 2.7 8.34 1 8 C1 7.34 1 6.68 1 6 C0.34 6 -0.32 6 -1 6 C-1.042721 4.33388095 -1.04063832 2.66617115 -1 1 C-0.67 0.67 -0.34 0.34 0 0 Z " fill="#E1E1E1" transform="translate(376,138)"/>
<path d="M0 0 C2.39073149 2.93189994 3.84107307 5.72143288 5.1875 9.25 C5.53167969 10.14203125 5.87585938 11.0340625 6.23046875 11.953125 C6.48441406 12.62859375 6.73835937 13.3040625 7 14 C6.01 14.33 5.02 14.66 4 15 C3.566875 13.88625 3.13375 12.7725 2.6875 11.625 C1.30088881 7.82487666 1.30088881 7.82487666 -2 6 C-2.1875 3.375 -2.1875 3.375 -2 1 C-1.34 0.67 -0.68 0.34 0 0 Z " fill="#6F277A" transform="translate(182,673)"/>
<path d="M0 0 C2.31 0 4.62 0 7 0 C7 2.31 7 4.62 7 7 C4.69 7 2.38 7 0 7 C0 4.69 0 2.38 0 0 Z " fill="#BBBBB9" transform="translate(388,432)"/>
<path d="M0 0 C5.61 0.33 11.22 0.66 17 1 C16.67 1.99 16.34 2.98 16 4 C10.66666667 4 5.33333333 4 0 4 C0 2.68 0 1.36 0 0 Z " fill="#989898" transform="translate(303,141)"/>
<path d="M0 0 C2.64 0 5.28 0 8 0 C7.67 1.98 7.34 3.96 7 6 C6.01 6 5.02 6 4 6 C4 6.66 4 7.32 4 8 C3.01 8 2.02 8 1 8 C0.67 5.36 0.34 2.72 0 0 Z " fill="#A3A3A3" transform="translate(289,113)"/>
<path d="M0 0 C0.66 0 1.32 0 2 0 C2 0.99 2 1.98 2 3 C2.66 3.33 3.32 3.66 4 4 C3.01 4.33 2.02 4.66 1 5 C0.67 6.98 0.34 8.96 0 11 C1.32 11.33 2.64 11.66 4 12 C4 12.66 4 13.32 4 14 C2.02 14 0.04 14 -2 14 C-2 10.37 -2 6.74 -2 3 C-1.34 3 -0.68 3 0 3 C0 2.01 0 1.02 0 0 Z " fill="#4549EC" transform="translate(2,69)"/>
<path d="M0 0 C1.32 0 2.64 0 4 0 C4 1.32 4 2.64 4 4 C4.99 4 5.98 4 7 4 C7 5.32 7 6.64 7 8 C4.69 8 2.38 8 0 8 C0 5.36 0 2.72 0 0 Z " fill="#DDE0DF" transform="translate(321,432)"/>
<path d="M0 0 C1.65 0 3.3 0 5 0 C5.33 2.31 5.66 4.62 6 7 C3.69 7 1.38 7 -1 7 C-0.67 4.69 -0.34 2.38 0 0 Z " fill="#656565" transform="translate(7,613)"/>
<path d="M0 0 C1.423125 0.2784375 1.423125 0.2784375 2.875 0.5625 C5.89868793 1.28686632 5.89868793 1.28686632 8 0 C9.99960012 -0.039992 12.00047242 -0.04346799 14 0 C14 1.32 14 2.64 14 4 C10.04 4 6.08 4 2 4 C2 3.34 2 2.68 2 2 C1.34 2 0.68 2 0 2 C0 1.34 0 0.68 0 0 Z " fill="#A1A6A2" transform="translate(294,376)"/>
<path d="M0 0 C0.33 1.32 0.66 2.64 1 4 C-0.98567708 4.22786458 -2.97135417 4.45572917 -4.95703125 4.68359375 C-7.19396393 4.97170735 -7.19396393 4.97170735 -10 6 C-10 4.35 -10 2.7 -10 1 C-6.78548731 -0.60725635 -3.56387464 -0.05748185 0 0 Z " fill="#C4C7C4" transform="translate(126,92)"/>
<path d="M0 0 C3.63 0 7.26 0 11 0 C11.33 1.32 11.66 2.64 12 4 C8.55465996 4.86133501 6.39620354 4.93688374 3 4 C2.01 4.495 2.01 4.495 1 5 C0.67 3.35 0.34 1.7 0 0 Z " fill="#AFAFAF" transform="translate(336,221)"/>
<path d="M0 0 C0.62648438 0.0721875 1.25296875 0.144375 1.8984375 0.21875 C3.12433594 0.35796875 3.12433594 0.35796875 4.375 0.5 C5.59316406 0.63921875 5.59316406 0.63921875 6.8359375 0.78125 C8.96912825 1.03352351 8.96912825 1.03352351 11 1 C11 2.32 11 3.64 11 5 C7.37 5 3.74 5 0 5 C0 3.35 0 1.7 0 0 Z " fill="#A6A6A6" transform="translate(64,91)"/>
<path d="M0 0 C2.97 0.495 2.97 0.495 6 1 C6.6875 3.75 6.6875 3.75 7 7 C5.5625 9.375 5.5625 9.375 4 11 C3.32880451 9.5437455 2.66318193 8.08492133 2 6.625 C1.62875 5.81289063 1.2575 5.00078125 0.875 4.1640625 C0 2 0 2 0 0 Z " fill="#E5E0CF" transform="translate(165,635)"/>
<path d="M0 0 C2.97 0 5.94 0 9 0 C9.33 1.32 9.66 2.64 10 4 C6.7 4.33 3.4 4.66 0 5 C0 3.35 0 1.7 0 0 Z " fill="#D7D7D7" transform="translate(299,337)"/>
<path d="M0 0 C0 1.32 0 2.64 0 4 C-0.66 4 -1.32 4 -2 4 C-2 4.99 -2 5.98 -2 7 C-1.01 7 -0.02 7 1 7 C1.33 5.68 1.66 4.36 2 3 C2 4.65 2 6.3 2 8 C-1.71599191 8.20086443 -2.77208445 8.1519437 -6 6 C-6.1875 3.375 -6.1875 3.375 -6 1 C-3 0 -3 0 0 0 Z " fill="#DCDCDC" transform="translate(367,138)"/>
<path d="M0 0 C4.62 0 9.24 0 14 0 C15.32 2.97 16.64 5.94 18 9 C17.01 9 16.02 9 15 9 C12.19744677 6.0936485 12 5.21174952 12 1 C11.34 1 10.68 1 10 1 C9.67 1.66 9.34 2.32 9 3 C9 2.34 9 1.68 9 1 C6.03 1 3.06 1 0 1 C0 0.67 0 0.34 0 0 Z " fill="#5E1E60" transform="translate(147,627)"/>
<path d="M0 0 C4.95 0 9.9 0 15 0 C15 0.33 15 0.66 15 1 C8.565 1.495 8.565 1.495 2 2 C2.99 2.99 3.98 3.98 5 5 C4.6875 7.6875 4.6875 7.6875 4 10 C3.34 9.67 2.68 9.34 2 9 C2.33 8.34 2.66 7.68 3 7 C2.01 7 1.02 7 0 7 C0 4.69 0 2.38 0 0 Z " fill="#4B3C48" transform="translate(237,327)"/>
<path d="M0 0 C2.31 0 4.62 0 7 0 C6.01 0.495 6.01 0.495 5 1 C5 1.66 5 2.32 5 3 C5.66 3 6.32 3 7 3 C6.67 4.32 6.34 5.64 6 7 C5.360625 6.814375 4.72125 6.62875 4.0625 6.4375 C3.0415625 6.2209375 3.0415625 6.2209375 2 6 C1.67 6.33 1.34 6.66 1 7 C0.67 7 0.34 7 0 7 C0 4.69 0 2.38 0 0 Z " fill="#999999" transform="translate(291,139)"/>
<path d="M0 0 C-1.98 0.99 -1.98 0.99 -4 2 C2.93 2.495 2.93 2.495 10 3 C10 3.33 10 3.66 10 4 C2.74 4 -4.52 4 -12 4 C-4.51612903 -1.61290323 -4.51612903 -1.61290323 0 0 Z " fill="#3421DE" transform="translate(78,79)"/>
<path d="M0 0 C2.625 -0.1875 2.625 -0.1875 5 0 C5 2.31 5 4.62 5 7 C2.03 6.505 2.03 6.505 -1 6 C-1.33 5.01 -1.66 4.02 -2 3 C-1.34 2.01 -0.68 1.02 0 0 Z " fill="#B5C8D7" transform="translate(374,432)"/>
<path d="M0 0 C0.33 1.32 0.66 2.64 1 4 C-3.29 4 -7.58 4 -12 4 C-12 3.01 -12 2.02 -12 1 C-10.14375 1.0309375 -10.14375 1.0309375 -8.25 1.0625 C-5.3359175 1.06766681 -2.79046673 0.93015558 0 0 Z " fill="#9D9D9D" transform="translate(378,315)"/>
<path d="M0 0 C0 2.64 0 5.28 0 8 C-2.31 7.67 -4.62 7.34 -7 7 C-7 6.01 -7 5.02 -7 4 C-6.34 4 -5.68 4 -5 4 C-5 3.01 -5 2.02 -5 1 C-1.125 0 -1.125 0 0 0 Z " fill="#929292" transform="translate(382,113)"/>
<path d="M0 0 C2.475 0.495 2.475 0.495 5 1 C5 1.99 5 2.98 5 4 C5.66 4 6.32 4 7 4 C7 4.99 7 5.98 7 7 C4.69 7.33 2.38 7.66 0 8 C0 5.36 0 2.72 0 0 Z " fill="#929292" transform="translate(349,113)"/>
<path d="M0 0 C-0.33 1.32 -0.66 2.64 -1 4 C-1.66 3.67 -2.32 3.34 -3 3 C-3.33 3.66 -3.66 4.32 -4 5 C-5.98 5 -7.96 5 -10 5 C-10.33 3.68 -10.66 2.36 -11 1 C-7.26562152 0.12132271 -3.83225427 -0.08912219 0 0 Z " fill="#D1D1D1" transform="translate(309,279)"/>
<path d="M0 0 C2.125 0.375 2.125 0.375 4 1 C4.625 2.875 4.625 2.875 5 5 C4.34 5.66 3.68 6.32 3 7 C0.875 6.625 0.875 6.625 -1 6 C-1.625 4.125 -1.625 4.125 -2 2 C-1.34 1.34 -0.68 0.68 0 0 Z " fill="#5FCD61" transform="translate(29,90)"/>
<path d="M0 0 C2.5625718 -0.02710123 5.12485365 -0.04688771 7.6875 -0.0625 C8.40873047 -0.07087891 9.12996094 -0.07925781 9.87304688 -0.08789062 C13.71555382 -0.10543632 17.26639526 0.06475779 21 1 C20.01 1.495 20.01 1.495 19 2 C17.86649466 4.01669827 17.86649466 4.01669827 17 6 C16.82726562 5.35546875 16.65453125 4.7109375 16.4765625 4.046875 C15.07017372 1.59554118 15.07017372 1.59554118 11.5234375 1.390625 C10.141427 1.32418219 8.7583219 1.2780748 7.375 1.25 C6.31539063 1.20552734 6.31539063 1.20552734 5.234375 1.16015625 C3.49019953 1.08944643 1.74509173 1.04245965 0 1 C0 0.67 0 0.34 0 0 Z " fill="#846780" transform="translate(263,626)"/>
<path d="M0 0 C3.96 0.33 7.92 0.66 12 1 C12 1.99 12 2.98 12 4 C8 4 4 4 0 4 C0 2.68 0 1.36 0 0 Z " fill="#AFAFAF" transform="translate(319,498)"/>
<path d="M0 0 C1.32 0 2.64 0 4 0 C4 0.66 4 1.32 4 2 C4.66 2.33 5.32 2.66 6 3 C5.67 4.32 5.34 5.64 5 7 C4.01 7 3.02 7 2 7 C2 7.66 2 8.32 2 9 C1.01 9 0.02 9 -1 9 C-0.67 7.68 -0.34 6.36 0 5 C0.99 5 1.98 5 3 5 C3 4.34 3 3.68 3 3 C2.01 2.67 1.02 2.34 0 2 C0 1.34 0 0.68 0 0 Z " fill="#DFF3F5" transform="translate(9,113)"/>
<path d="M0 0 C3.3 0.33 6.6 0.66 10 1 C10 2.32 10 3.64 10 5 C9.443125 4.814375 8.88625 4.62875 8.3125 4.4375 C5.59478983 3.92333862 3.66678301 4.35132305 1 5 C0.67 5 0.34 5 0 5 C0 3.35 0 1.7 0 0 Z " fill="#CCCDCB" transform="translate(96,91)"/>
<path d="M0 0 C2.64 0 5.28 0 8 0 C7.67 1.65 7.34 3.3 7 5 C4.36 5 1.72 5 -1 5 C-0.67 3.35 -0.34 1.7 0 0 Z " fill="#D6B4CE" transform="translate(254,320)"/>
<path d="M0 0 C1.134375 0.020625 2.26875 0.04125 3.4375 0.0625 C0.26853791 2.72626524 -2.76769369 4.02194952 -6.6875 5.3125 C-7.74195312 5.66828125 -8.79640625 6.0240625 -9.8828125 6.390625 C-12.5625 7.0625 -12.5625 7.0625 -14.5625 6.0625 C-11.31164905 4.01910798 -8.13644968 2.45236932 -4.5625 1.0625 C-3.5625 0.0625 -3.5625 0.0625 0 0 Z " fill="#5A55FD" transform="translate(132.5625,52.9375)"/>
<path d="M0 0 C1.65 0.33 3.3 0.66 5 1 C4.67 2.65 4.34 4.3 4 6 C3.01 6.33 2.02 6.66 1 7 C0.01 6.01 -0.98 5.02 -2 4 C-1.34 2.68 -0.68 1.36 0 0 Z " fill="#6E6E6E" transform="translate(8,594)"/>
<path d="M0 0 C1.98 0 3.96 0 6 0 C6 0.66 6 1.32 6 2 C3.5 3.625 3.5 3.625 1 5 C2.65 4.34 4.3 3.68 6 3 C6 4.32 6 5.64 6 7 C4.02 7 2.04 7 0 7 C0 4.69 0 2.38 0 0 Z " fill="#757576" transform="translate(288,394)"/>
<path d="M0 0 C1.051875 0.2475 1.051875 0.2475 2.125 0.5 C5.13888194 1.02415338 7.94713625 1.07099683 11 1 C10.67 1.99 10.34 2.98 10 4 C6.37 4 2.74 4 -1 4 C-0.67 2.68 -0.34 1.36 0 0 Z " fill="#A0A0A0" transform="translate(338,256)"/>
<path d="M0 0 C3.64775386 3.88309282 4.58525633 6.71201818 5 12 C3.68 11.67 2.36 11.34 1 11 C1.33 9.35 1.66 7.7 2 6 C1.01 6 0.02 6 -1 6 C-1.042721 4.33388095 -1.04063832 2.66617115 -1 1 C-0.67 0.67 -0.34 0.34 0 0 Z " fill="#71247E" transform="translate(193,696)"/>
<path d="M0 0 C3.3 0.33 6.6 0.66 10 1 C10 1.99 10 2.98 10 4 C6.7 4 3.4 4 0 4 C0 2.68 0 1.36 0 0 Z " fill="#D1D1D1" transform="translate(300,412)"/>
<path d="M0 0 C0 0.99 0 1.98 0 3 C-3.66305234 3.74926071 -6.42355152 4.2380014 -10 3 C-10 2.01 -10 1.02 -10 0 C-6.33694766 -0.74926071 -3.57644848 -1.2380014 0 0 Z " fill="#ABABAB" transform="translate(335,300)"/>
<path d="M0 0 C0.99 0.495 0.99 0.495 2 1 C4.3329866 1.04022391 6.66706666 1.04320247 9 1 C8.67 2.32 8.34 3.64 8 5 C4.94736336 5.98120464 3.05263664 5.98120464 0 5 C0 3.35 0 1.7 0 0 Z " fill="#9FA09E" transform="translate(76,91)"/>
<path d="M0 0 C2.0625 0.4375 2.0625 0.4375 4 1 C4 2.65 4 4.3 4 6 C2.125 6.625 2.125 6.625 0 7 C-0.66 6.34 -1.32 5.68 -2 5 C-1.46428571 1.46428571 -1.46428571 1.46428571 0 0 Z " fill="#BC5957" transform="translate(8,90)"/>
<path d="M0 0 C1.32 0.33 2.64 0.66 4 1 C4 1.33 4 1.66 4 2 C4.99 2 5.98 2 7 2 C7 3.65 7 5.3 7 7 C4.69 7 2.38 7 0 7 C0 4.69 0 2.38 0 0 Z " fill="#D5D5D4" transform="translate(337,433)"/>
<path d="M0 0 C1.65 0.33 3.3 0.66 5 1 C3.92598892 3.91517292 3.22189824 5.77810176 1 8 C0.01 8 -0.98 8 -2 8 C-1.33333333 5.33333333 -0.66666667 2.66666667 0 0 Z " fill="#A7A7A7" transform="translate(390,393)"/>
<path d="M0 0 C3.3 0 6.6 0 10 0 C10 0.99 10 1.98 10 3 C6.7 3.33 3.4 3.66 0 4 C0 2.68 0 1.36 0 0 Z " fill="#151514" transform="translate(302,396)"/>
<path d="M0 0 C1.5625 1.8125 1.5625 1.8125 3 4 C2.67 4.99 2.34 5.98 2 7 C0.35 7 -1.3 7 -3 7 C-3.33 5.35 -3.66 3.7 -4 2 C-2.68 1.34 -1.36 0.68 0 0 Z " fill="#BEBEBE" transform="translate(340,200)"/>
<path d="M0 0 C3.49234244 -0.09978121 6.59437148 0.22157062 10 1 C9.67 1.99 9.34 2.98 9 4 C6.03 4 3.06 4 0 4 C0 2.68 0 1.36 0 0 Z " fill="#ACACAC" transform="translate(332,517)"/>
<path d="M0 0 C1.32 0 2.64 0 4 0 C4 0.66 4 1.32 4 2 C4.66 2 5.32 2 6 2 C6 3.32 6 4.64 6 6 C4.02 6 2.04 6 0 6 C0 4.02 0 2.04 0 0 Z " fill="#DDE0DD" transform="translate(306,433)"/>
<path d="M0 0 C1.98 0 3.96 0 6 0 C6 0.66 6 1.32 6 2 C6.66 2.33 7.32 2.66 8 3 C8 3.66 8 4.32 8 5 C5.36 5 2.72 5 0 5 C0 3.35 0 1.7 0 0 Z " fill="#BABABA" transform="translate(300,255)"/>
<path d="M0 0 C0.33 0.66 0.66 1.32 1 2 C1.99 2 2.98 2 4 2 C4.33 2.99 4.66 3.98 5 5 C3.35 5.66 1.7 6.32 0 7 C-0.33 5.68 -0.66 4.36 -1 3 C-2.32 3 -3.64 3 -5 3 C-5.33 3.66 -5.66 4.32 -6 5 C-6 4.01 -6 3.02 -6 2 C-4.02 2 -2.04 2 0 2 C0 1.34 0 0.68 0 0 Z " fill="#D7D7D7" transform="translate(307,476)"/>
<path d="M0 0 C2.97 0.33 5.94 0.66 9 1 C9 1.99 9 2.98 9 4 C6.03 4 3.06 4 0 4 C0 2.68 0 1.36 0 0 Z " fill="#CDCDCD" transform="translate(359,412)"/>
<path d="M0 0 C2.97 0 5.94 0 9 0 C8.67 1.32 8.34 2.64 8 4 C5.36 4 2.72 4 0 4 C0 2.68 0 1.36 0 0 Z " fill="#A3A3A3" transform="translate(322,141)"/>
<path d="M0 0 C0.66 0 1.32 0 2 0 C2.33 0.99 2.66 1.98 3 3 C3.99 3 4.98 3 6 3 C6.33 4.32 6.66 5.64 7 7 C4.36 7 1.72 7 -1 7 C-0.67 4.69 -0.34 2.38 0 0 Z " fill="#868686" transform="translate(317,113)"/>
<path d="M0 0 C1.32 0 2.64 0 4 0 C4.33 1.98 4.66 3.96 5 6 C3.02 6 1.04 6 -1 6 C-0.67 4.02 -0.34 2.04 0 0 Z " fill="#868686" transform="translate(363,114)"/>
<path d="M0 0 C1.9375 0.8125 1.9375 0.8125 4 2 C4.33 2.99 4.66 3.98 5 5 C4.34 5.66 3.68 6.32 3 7 C3 6.01 3 5.02 3 4 C2.01 4 1.02 4 0 4 C0 4.99 0 5.98 0 7 C-0.66 7 -1.32 7 -2 7 C-2.125 4.625 -2.125 4.625 -2 2 C-1.34 1.34 -0.68 0.68 0 0 Z " fill="#5E5F5D" transform="translate(47,90)"/>
<path d="M0 0 C1.010625 0.0825 2.02125 0.165 3.0625 0.25 C5.0625 3.25 5.0625 3.25 4.6875 5.9375 C4.48125 6.700625 4.275 7.46375 4.0625 8.25 C3.0725 7.92 2.0825 7.59 1.0625 7.25 C1.3925 5.93 1.7225 4.61 2.0625 3.25 C0.22549211 2.47757731 0.22549211 2.47757731 -1.9375 2.25 C-3.70940909 3.60444301 -3.70940909 3.60444301 -4.9375 5.25 C-3.82553359 0.32557733 -3.82553359 0.32557733 0 0 Z " fill="#E2FCDE" transform="translate(30.9375,88.75)"/>
<path d="M0 0 C-1.37310661 1.97384076 -2.53190103 2.88590088 -4.875 3.45703125 C-8.40031837 3.9430586 -10.56019843 4.14660052 -14 3 C-4.58997722 -0.44419134 -4.58997722 -0.44419134 0 0 Z " fill="#311DDE" transform="translate(146,52)"/>
<path d="M0 0 C6.75 -0.125 6.75 -0.125 9 1 C9 1.99 9 2.98 9 4 C6.03 3.67 3.06 3.34 0 3 C0 2.01 0 1.02 0 0 Z " fill="#ADADAD" transform="translate(300,544)"/>
<path d="M0 0 C1.65 0 3.3 0 5 0 C5.33 0.66 5.66 1.32 6 2 C6.33 1.34 6.66 0.68 7 0 C7.66 0 8.32 0 9 0 C9.33 1.32 9.66 2.64 10 4 C7.36 4 4.72 4 2 4 C1.34 2.68 0.68 1.36 0 0 Z " fill="#D0AAC4" transform="translate(128,214)"/>
<path d="M0 0 C2.0625 0.4375 2.0625 0.4375 4 1 C3.67 2.65 3.34 4.3 3 6 C1.68 5.67 0.36 5.34 -1 5 C-1 1 -1 1 0 0 Z " fill="#CBCBCB" transform="translate(328,185)"/>
<path d="M0 0 C0 2.64 0 5.28 0 8 C-1.32 7.67 -2.64 7.34 -4 7 C-4 5.02 -4 3.04 -4 1 C-2 0 -2 0 0 0 Z " fill="#D2D2D2" transform="translate(336,113)"/>
<path d="M0 0 C1.65 0 3.3 0 5 0 C5.5625 1.9375 5.5625 1.9375 6 4 C5 5 5 5 2.4375 5.0625 C1.2309375 5.0315625 1.2309375 5.0315625 0 5 C0 3.35 0 1.7 0 0 Z " fill="#E1B750" transform="translate(17,91)"/>
<path d="M0 0 C1.65 0 3.3 0 5 0 C5 3.96 5 7.92 5 12 C4.34 10.68 3.68 9.36 3 8 C2.195625 6.453125 2.195625 6.453125 1.375 4.875 C0 2 0 2 0 0 Z " fill="#FBFAC0" transform="translate(195,694)"/>
<path d="M0 0 C2.64 0.33 5.28 0.66 8 1 C7.01 2.485 7.01 2.485 6 4 C5.34 4 4.68 4 4 4 C4 4.33 4 4.66 4 5 C2.35 5 0.7 5 -1 5 C-0.67 3.35 -0.34 1.7 0 0 Z " fill="#C6C6C6" transform="translate(324,543)"/>
<path d="M0 0 C1.32 0 2.64 0 4 0 C4 1.32 4 2.64 4 4 C3.01 4 2.02 4 1 4 C1 4.66 1 5.32 1 6 C1.99 6.33 2.98 6.66 4 7 C2.35 6.67 0.7 6.34 -1 6 C-1.042721 4.33388095 -1.04063832 2.66617115 -1 1 C-0.67 0.67 -0.34 0.34 0 0 Z " fill="#B3B6B3" transform="translate(358,432)"/>
<path d="M0 0 C2.66666667 0 5.33333333 0 8 0 C8 1.32 8 2.64 8 4 C5.36 4 2.72 4 0 4 C0 2.68 0 1.36 0 0 Z " fill="#C3C4C2" transform="translate(107,92)"/>
<path d="M0 0 C2.475 0.99 2.475 0.99 5 2 C4.01 2.495 4.01 2.495 3 3 C3.061875 3.78375 3.12375 4.5675 3.1875 5.375 C3.125625 6.24125 3.06375 7.1075 3 8 C2.01 8.66 1.02 9.32 0 10 C0 6.7 0 3.4 0 0 Z " fill="#310D42" transform="translate(0,625)"/>
<path d="M0 0 C1.65 0 3.3 0 5 0 C5.33 0.99 5.66 1.98 6 3 C5.67 3.66 5.34 4.32 5 5 C3.35 5 1.7 5 0 5 C0 3.35 0 1.7 0 0 Z " fill="#F2F3F1" transform="translate(7,152)"/>
<path d="M0 0 C-0.33 0.66 -0.66 1.32 -1 2 C-1.66 2 -2.32 2 -3 2 C-3 2.99 -3 3.98 -3 5 C-4.98 5.33 -6.96 5.66 -9 6 C-8.34 5.67 -7.68 5.34 -7 5 C-7.33 3.68 -7.66 2.36 -8 1 C-2.25 -1.125 -2.25 -1.125 0 0 Z " fill="#D4D4D4" transform="translate(385,90)"/>
<path d="M0 0 C1.9375 0.375 1.9375 0.375 4 1 C4.33 1.66 4.66 2.32 5 3 C4.01 4.485 4.01 4.485 3 6 C1.68 5.34 0.36 4.68 -1 4 C-0.67 2.68 -0.34 1.36 0 0 Z " fill="#C9C9C9" transform="translate(315,279)"/>
<path d="M0 0 C-0.33 1.32 -0.66 2.64 -1 4 C-3.64 4 -6.28 4 -9 4 C-9 3.01 -9 2.02 -9 1 C-5.94152152 0.45627049 -3.11227195 0 0 0 Z " fill="#9D9D9D" transform="translate(323,256)"/>
<path d="M0 0 C2.31 0 4.62 0 7 0 C6.67 1.32 6.34 2.64 6 4 C4.02 4 2.04 4 0 4 C0 2.68 0 1.36 0 0 Z " fill="#D1D1D1" transform="translate(288,165)"/>
<path d="M0 0 C1.65 0 3.3 0 5 0 C5 1.65 5 3.3 5 5 C3.35 5 1.7 5 0 5 C0 3.35 0 1.7 0 0 Z " fill="#F4F5F6" transform="translate(7,133)"/>
<path d="M0 0 C1.89213369 2.38573379 3.02391783 4.07175348 4 7 C2.68 7.33 1.36 7.66 0 8 C-1.09658936 4.71023192 -0.79953138 3.28696233 0 0 Z " fill="#712376" transform="translate(189,688)"/>
<path d="M0 0 C1.32 0 2.64 0 4 0 C4.33 1.65 4.66 3.3 5 5 C3.02 5 1.04 5 -1 5 C-1.33 4.01 -1.66 3.02 -2 2 C-1.34 1.34 -0.68 0.68 0 0 Z " fill="#BDBDBD" transform="translate(348,497)"/>
<path d="M0 0 C0.99 0 1.98 0 3 0 C3 0.99 3 1.98 3 3 C3.99 3 4.98 3 6 3 C6 3.99 6 4.98 6 6 C4.35 5.67 2.7 5.34 1 5 C0.67 3.35 0.34 1.7 0 0 Z " fill="#B8BAB7" transform="translate(338,452)"/>
<path d="M0 0 C2 3 2 3 1.625 5.1875 C1.41875 5.785625 1.2125 6.38375 1 7 C-0.32 7.33 -1.64 7.66 -3 8 C-3 6.35 -3 4.7 -3 3 C-2.34 3 -1.68 3 -1 3 C-0.67 2.01 -0.34 1.02 0 0 Z " fill="#C5C5C5" transform="translate(364,311)"/>
<path d="M0 0 C3.3 0 6.6 0 10 0 C9.67 0.99 9.34 1.98 9 3 C7.88625 2.979375 6.7725 2.95875 5.625 2.9375 C2.16784079 2.73619282 2.16784079 2.73619282 0 4 C0 2.68 0 1.36 0 0 Z " fill="#929292" transform="translate(298,300)"/>
<path d="M0 0 C0.99 0.33 1.98 0.66 3 1 C3 1.66 3 2.32 3 3 C3.66 3 4.32 3 5 3 C5 3.66 5 4.32 5 5 C4.34 5 3.68 5 3 5 C3 5.66 3 6.32 3 7 C2.01 7 1.02 7 0 7 C0 4.69 0 2.38 0 0 Z " fill="#CECDCE" transform="translate(358,237)"/>
<path d="M0 0 C2.31 0.33 4.62 0.66 7 1 C7 1.99 7 2.98 7 4 C4.69 4 2.38 4 0 4 C0 2.68 0 1.36 0 0 Z " fill="#D0D0D0" transform="translate(313,165)"/>
<path d="M0 0 C1.98 0 3.96 0 6 0 C6 1.98 6 3.96 6 6 C5.01 6 4.02 6 3 6 C2.67 5.34 2.34 4.68 2 4 C1.34 3.34 0.68 2.68 0 2 C0 1.34 0 0.68 0 0 Z " fill="#E7E7E7" transform="translate(293,136)"/>
<path d="M0 0 C-3.95523655 2.75668002 -7.22423661 3.5317879 -12 4 C-12 3.34 -12 2.68 -12 2 C-10.56656 1.46809459 -9.12804633 0.94984742 -7.6875 0.4375 C-6.48673828 0.00244141 -6.48673828 0.00244141 -5.26171875 -0.44140625 C-3 -1 -3 -1 0 0 Z " fill="#3720E3" transform="translate(100,73)"/>
<path d="M0 0 C0.66 0.33 1.32 0.66 2 1 C-1.12621626 4.39417765 -3.56541027 6.6062718 -8 8 C-6.88333826 4.65001479 -6.25305075 4.20659778 -3.4375 2.3125 C-2.79683594 1.87550781 -2.15617187 1.43851562 -1.49609375 0.98828125 C-1.00238281 0.66214844 -0.50867188 0.33601563 0 0 Z " fill="#311CDE" transform="translate(110,64)"/>
<path d="M0 0 C1.32 0 2.64 0 4 0 C3.67 2.64 3.34 5.28 3 8 C1.10786631 5.61426621 -0.02391783 3.92824652 -1 1 C-0.67 0.67 -0.34 0.34 0 0 Z " fill="#F2E6BF" transform="translate(200,705)"/>
<path d="M0 0 C1.32 0 2.64 0 4 0 C4.33 1.65 4.66 3.3 5 5 C3.35 5 1.7 5 0 5 C0 3.35 0 1.7 0 0 Z " fill="#F2F2F2" transform="translate(289,516)"/>
<path d="M0 0 C-0.33 0.99 -0.66 1.98 -1 3 C-3.33333333 3 -5.66666667 3 -8 3 C-8.33 2.34 -8.66 1.68 -9 1 C-3.375 -1.125 -3.375 -1.125 0 0 Z " fill="#CACACA" transform="translate(340,413)"/>
<path d="M0 0 C1.98 0 3.96 0 6 0 C5.67 1.32 5.34 2.64 5 4 C3.02 4 1.04 4 -1 4 C-0.67 2.68 -0.34 1.36 0 0 Z " fill="#CBCBCB" transform="translate(311,186)"/>
<path d="M0 0 C1.98 0 3.96 0 6 0 C6.33 1.32 6.66 2.64 7 4 C2.25 5 2.25 5 0 5 C0 3.35 0 1.7 0 0 Z " fill="#A4A4A5" transform="translate(369,91)"/>
<path d="M0 0 C2.97 0.495 2.97 0.495 6 1 C5.67 2.32 5.34 3.64 5 5 C4.01 5 3.02 5 2 5 C2 5.66 2 6.32 2 7 C1.01 6.67 0.02 6.34 -1 6 C-0.34 6 0.32 6 1 6 C0.67 4.02 0.34 2.04 0 0 Z " fill="#F6E7D8" transform="translate(11,90)"/>
<path d="M0 0 C-0.33 0.99 -0.66 1.98 -1 3 C-4.96 3 -8.92 3 -13 3 C-8.28204509 0.64102255 -5.23723208 -0.14547867 0 0 Z " fill="#331FDD" transform="translate(161,49)"/>
<path d="M0 0 C0 1.65 0 3.3 0 5 C-1.65 5 -3.3 5 -5 5 C-5.33 4.34 -5.66 3.68 -6 3 C-3.375 0 -3.375 0 0 0 Z " fill="#B6B6B6" transform="translate(331,395)"/>
<path d="M0 0 C1.98 0.495 1.98 0.495 4 1 C3.67 2.32 3.34 3.64 3 5 C1.68 5 0.36 5 -1 5 C-0.67 3.35 -0.34 1.7 0 0 Z " fill="#E5E5E5" transform="translate(390,298)"/>
<path d="M0 0 C0.33 0.66 0.66 1.32 1 2 C2.65 2 4.3 2 6 2 C6 2.66 6 3.32 6 4 C4.35 3.67 2.7 3.34 1 3 C1 4.32 1 5.64 1 7 C2.65 7 4.3 7 6 7 C6 7.33 6 7.66 6 8 C4.02 8 2.04 8 0 8 C0 6.35 0 4.7 0 3 C-0.66 2.67 -1.32 2.34 -2 2 C-1.34 2 -0.68 2 0 2 C0 1.34 0 0.68 0 0 Z " fill="#A8A8A7" transform="translate(7,246)"/>
<path d="M0 0 C0.66 0 1.32 0 2 0 C2 1.98 2 3.96 2 6 C-0.97 5.505 -0.97 5.505 -4 5 C-3.67 4.01 -3.34 3.02 -3 2 C-2.01 2 -1.02 2 0 2 C0 1.34 0 0.68 0 0 Z " fill="#BEBEBE" transform="translate(335,238)"/>
<path d="M0 0 C1.65 0 3.3 0 5 0 C5.33 1.65 5.66 3.3 6 5 C4.02 5 2.04 5 0 5 C0 3.35 0 1.7 0 0 Z " fill="#A1A1A1" transform="translate(297,202)"/>
<path d="M0 0 C1.32 0 2.64 0 4 0 C4.33 1.65 4.66 3.3 5 5 C3.68 5 2.36 5 1 5 C0.67 3.35 0.34 1.7 0 0 Z " fill="#CECEBA" transform="translate(163,630)"/>
<path d="M0 0 C2.97 0.495 2.97 0.495 6 1 C6 1.99 6 2.98 6 4 C2.25 5.125 2.25 5.125 0 4 C0 2.68 0 1.36 0 0 Z " fill="#B5B5B5" transform="translate(315,543)"/>
<path d="M0 0 C1.98 0.495 1.98 0.495 4 1 C3.67 2.32 3.34 3.64 3 5 C1.68 4.67 0.36 4.34 -1 4 C-0.67 2.68 -0.34 1.36 0 0 Z " fill="#FBFCFD" transform="translate(393,357)"/>
<path d="M0 0 C0.99 0 1.98 0 3 0 C5 2 5 2 5 5 C3.02 5 1.04 5 -1 5 C-0.67 3.35 -0.34 1.7 0 0 Z " fill="#3E1F31" transform="translate(33,320)"/>
<path d="M0 0 C2.64 0.33 5.28 0.66 8 1 C7.67 1.99 7.34 2.98 7 4 C4.69 4 2.38 4 0 4 C0 2.68 0 1.36 0 0 Z " fill="#9E9E9E" transform="translate(324,256)"/>
<path d="M0 0 C1.32 0.33 2.64 0.66 4 1 C3.67 1.33 3.34 1.66 3 2 C3.66 2.66 4.32 3.32 5 4 C4.01 4.495 4.01 4.495 3 5 C3 5.66 3 6.32 3 7 C2.01 6.67 1.02 6.34 0 6 C0.33 5.34 0.66 4.68 1 4 C0.01 3.67 -0.98 3.34 -2 3 C-1.34 2.67 -0.68 2.34 0 2 C0 1.34 0 0.68 0 0 Z " fill="#A3A3A3" transform="translate(304,238)"/>
<path d="M0 0 C0.33 0.99 0.66 1.98 1 3 C1.99 2.67 2.98 2.34 4 2 C4 2.99 4 3.98 4 5 C3.34 5 2.68 5 2 5 C1.34 5.66 0.68 6.32 0 7 C-0.33 6.34 -0.66 5.68 -1 5 C-1.99 5.495 -1.99 5.495 -3 6 C-3 4.68 -3 3.36 -3 2 C-2.34 2 -1.68 2 -1 2 C-0.67 1.34 -0.34 0.68 0 0 Z " fill="#A0A0A0" transform="translate(291,238)"/>
<path d="M0 0 C1.65 0 3.3 0 5 0 C4.62875 0.5775 4.2575 1.155 3.875 1.75 C2.70833333 4 2.70833333 4 3.875 6.25 C4.24625 6.8275 4.6175 7.405 5 8 C3.35 8 1.7 8 0 8 C0.185625 7.05125 0.37125 6.1025 0.5625 5.125 C1.28686632 2.10131207 1.28686632 2.10131207 0 0 Z " fill="#ABABAB" transform="translate(345,237)"/>
<path d="M0 0 C0 3 0 3 -1.3125 4.38671875 C-2.875 5.59114583 -4.4375 6.79557292 -6 8 C-6.33 6.68 -6.66 5.36 -7 4 C-5.68 4 -4.36 4 -3 4 C-3 3.01 -3 2.02 -3 1 C-2.01 0.67 -1.02 0.34 0 0 Z " fill="#F4F4F3" transform="translate(11,188)"/>
<path d="M0 0 C0.33 1.32 0.66 2.64 1 4 C-1.33333333 4 -3.66666667 4 -6 4 C-6 3.01 -6 2.02 -6 1 C-4.02 0.67 -2.04 0.34 0 0 Z " fill="#CCCCCC" transform="translate(307,164)"/>
<path d="M0 0 C1.485 0.99 1.485 0.99 3 2 C3 3.32 3 4.64 3 6 C4.65 5.67 6.3 5.34 8 5 C7.67 5.99 7.34 6.98 7 8 C5.35 7.67 3.7 7.34 2 7 C2 6.34 2 5.68 2 5 C1.34 5 0.68 5 0 5 C0 3.35 0 1.7 0 0 Z " fill="#DADADA" transform="translate(375,139)"/>
<path d="M0 0 C1.98 0.66 3.96 1.32 6 2 C3.94766315 4.2477975 2.99332739 5.0022242 0 6 C0 4.02 0 2.04 0 0 Z " fill="#5F5F5F" transform="translate(348,91)"/>
<path d="M0 0 C1.65 0 3.3 0 5 0 C5 0.66 5 1.32 5 2 C0.05 3.485 0.05 3.485 -5 5 C-5 4.34 -5 3.68 -5 3 C-3.35 2.67 -1.7 2.34 0 2 C0 1.34 0 0.68 0 0 Z " fill="#5A56FC" transform="translate(187,36)"/>
<path d="M0 0 C2.97 0.495 2.97 0.495 6 1 C6 1.99 6 2.98 6 4 C4.02 4 2.04 4 0 4 C0 2.68 0 1.36 0 0 Z " fill="#A2A2A2" transform="translate(300,517)"/>
<path d="M0 0 C1.98 0.99 3.96 1.98 6 3 C5.67 4.65 5.34 6.3 5 8 C2.2175651 6.60878255 1.44789935 4.69835788 0 2 C0 1.34 0 0.68 0 0 Z " fill="#D6C4CE" transform="translate(133,472)"/>
<path d="M0 0 C0.66 0 1.32 0 2 0 C2 1.32 2 2.64 2 4 C3.32 4 4.64 4 6 4 C6 4.66 6 5.32 6 6 C4.02 6 2.04 6 0 6 C0 4.02 0 2.04 0 0 Z " fill="#B4B6B3" transform="translate(306,452)"/>
<path d="M0 0 C0.66 0 1.32 0 2 0 C2 1.32 2 2.64 2 4 C3.32 4 4.64 4 6 4 C6 4.66 6 5.32 6 6 C4.02 6 2.04 6 0 6 C0 4.02 0 2.04 0 0 Z " fill="#B6B9B6" transform="translate(322,452)"/>
<path d="M0 0 C0.99 0.33 1.98 0.66 3 1 C5.14255793 0.61067144 5.14255793 0.61067144 7 0 C6.67 1.32 6.34 2.64 6 4 C3.03 3.505 3.03 3.505 0 3 C0 2.01 0 1.02 0 0 Z " fill="#A3B8BD" transform="translate(310,315)"/>
<path d="M0 0 C0 0.66 0 1.32 0 2 C-0.99 2 -1.98 2 -3 2 C-3 2.66 -3 3.32 -3 4 C-3.66 4 -4.32 4 -5 4 C-5.66 2.68 -6.32 1.36 -7 0 C-4.3333581 -1.33332095 -2.83319697 -0.67102033 0 0 Z " fill="#BBBBBB" transform="translate(372,201)"/>
<path d="M0 0 C0.66 0 1.32 0 2 0 C2 0.66 2 1.32 2 2 C2.66 2 3.32 2 4 2 C3.67 2.99 3.34 3.98 3 5 C1.35 4.67 -0.3 4.34 -2 4 C-2 3.34 -2 2.68 -2 2 C-1.34 2 -0.68 2 0 2 C0 1.34 0 0.68 0 0 Z " fill="#DCDCDC" transform="translate(391,185)"/>
<path d="M0 0 C2 0 2 0 3.625 1.375 C5 3 5 3 5 5 C3.35 5.66 1.7 6.32 0 7 C0 4.69 0 2.38 0 0 Z " fill="#5B97AF" transform="translate(7,113)"/>
<path d="M0 0 C0.99 0.33 1.98 0.66 3 1 C3.3721042 2.32303717 3.70630173 3.65737935 4 5 C4.66 5.33 5.32 5.66 6 6 C4.33388095 6.042721 2.66617115 6.04063832 1 6 C0 5 0 5 -0.0625 2.4375 C-0.041875 1.633125 -0.02125 0.82875 0 0 Z " fill="#D1D1D3" transform="translate(143,91)"/>
<path d="M0 0 C1.32 0 2.64 0 4 0 C4 1.65 4 3.3 4 5 C2.68 5 1.36 5 0 5 C0 3.35 0 1.7 0 0 Z " fill="#EAEAEA" transform="translate(330,91)"/>
<path d="M0 0 C2.31 0 4.62 0 7 0 C7 0.99 7 1.98 7 3 C5.02 3.33 3.04 3.66 1 4 C0.67 2.68 0.34 1.36 0 0 Z " fill="#CACACA" transform="translate(310,338)"/>
<path d="M0 0 C1.32 0.33 2.64 0.66 4 1 C3.34 1.66 2.68 2.32 2 3 C1.75787127 4.98128508 1.75787127 4.98128508 1.875 7.125 C1.91625 8.40375 1.9575 9.6825 2 11 C1.01 11.495 1.01 11.495 0 12 C0 8.04 0 4.08 0 0 Z " fill="#1B0B1B" transform="translate(142,328)"/>
<path d="M0 0 C2.125 0.9375 2.125 0.9375 4 2 C4 2.66 4 3.32 4 4 C2.02 4 0.04 4 -2 4 C-2 3.01 -2 2.02 -2 1 C-1.34 0.67 -0.68 0.34 0 0 Z " fill="#ACACAC" transform="translate(311,299)"/>
<path d="M0 0 C2.97 0.495 2.97 0.495 6 1 C6 1.99 6 2.98 6 4 C4.02 4 2.04 4 0 4 C0 2.68 0 1.36 0 0 Z " fill="#919191" transform="translate(288,299)"/>
<path d="M0 0 C1.98 0 3.96 0 6 0 C6 1.32 6 2.64 6 4 C3.03 3.505 3.03 3.505 0 3 C0 2.01 0 1.02 0 0 Z " fill="#989898" transform="translate(369,257)"/>
<path d="M0 0 C1.32 0 2.64 0 4 0 C4.33 1.65 4.66 3.3 5 5 C3.68 5 2.36 5 1 5 C0.67 3.35 0.34 1.7 0 0 Z " fill="#BEBEBE" transform="translate(364,255)"/>
<path d="M0 0 C0.66 0 1.32 0 2 0 C2.66 1.65 3.32 3.3 4 5 C2.02 5 0.04 5 -2 5 C-1.34 3.35 -0.68 1.7 0 0 Z " fill="#EFEFED" transform="translate(9,172)"/>
<path d="M0 0 C2.475 0.495 2.475 0.495 5 1 C5 1.99 5 2.98 5 4 C4.34 4 3.68 4 3 4 C2.67 4.66 2.34 5.32 2 6 C1.34 6 0.68 6 0 6 C0 4.02 0 2.04 0 0 Z " fill="#636363" transform="translate(304,114)"/>
<path d="M0 0 C1.65 0.33 3.3 0.66 5 1 C5 1.99 5 2.98 5 4 C2.625 4.625 2.625 4.625 0 5 C-0.66 4.34 -1.32 3.68 -2 3 C-1.34 3 -0.68 3 0 3 C0 2.01 0 1.02 0 0 Z " fill="#CDCDCC" transform="translate(47,94)"/>
<path d="M0 0 C1.98 0 3.96 0 6 0 C6 0.99 6 1.98 6 3 C4.02 3 2.04 3 0 3 C0 2.01 0 1.02 0 0 Z " fill="#E7E9E8" transform="translate(322,437)"/>
<path d="M0 0 C2.475 0.495 2.475 0.495 5 1 C4.67 1.99 4.34 2.98 4 4 C3.01 4.33 2.02 4.66 1 5 C0.67 3.35 0.34 1.7 0 0 Z " fill="#DCDCDC" transform="translate(289,357)"/>
<path d="M0 0 C2.64 0 5.28 0 8 0 C7.01 1.485 7.01 1.485 6 3 C2.375 3.1875 2.375 3.1875 -1 3 C-0.67 2.01 -0.34 1.02 0 0 Z " fill="#EFF9FB" transform="translate(312,319)"/>
<path d="M0 0 C1.98 0 3.96 0 6 0 C6 0.99 6 1.98 6 3 C4.02 3 2.04 3 0 3 C0 2.01 0 1.02 0 0 Z " fill="#A7A7A7" transform="translate(366,316)"/>
<path d="M0 0 C1.65 0 3.3 0 5 0 C5 0.99 5 1.98 5 3 C3.35 3.66 1.7 4.32 0 5 C0 3.35 0 1.7 0 0 Z " fill="#A9A9A9" transform="translate(379,202)"/>
<path d="M0 0 C1.98 0 3.96 0 6 0 C5.67 0.99 5.34 1.98 5 3 C3.35 3.33 1.7 3.66 0 4 C0 2.68 0 1.36 0 0 Z " fill="#CCCCCC" transform="translate(303,186)"/>
<path d="M0 0 C1.32 0.33 2.64 0.66 4 1 C4.33 2.32 4.66 3.64 5 5 C4.34 4.67 3.68 4.34 3 4 C2.01 4.33 1.02 4.66 0 5 C0 3.35 0 1.7 0 0 Z " fill="#C0C0BE" transform="translate(96,91)"/>
<path d="M0 0 C1.65 0 3.3 0 5 0 C5 1.65 5 3.3 5 5 C2 4 2 4 0 3 C0 2.01 0 1.02 0 0 Z " fill="#AEAEAE" transform="translate(363,91)"/>
<path d="M0 0 C0.53625 0.226875 1.0725 0.45375 1.625 0.6875 C-3.79038462 3.76442308 -3.79038462 3.76442308 -6.75 3.375 C-7.554375 3.0346875 -7.554375 3.0346875 -8.375 2.6875 C-2.95961538 -0.38942308 -2.95961538 -0.38942308 0 0 Z " fill="#361EE3" transform="translate(130.375,56.3125)"/>
<path d="M0 0 C1.32 0 2.64 0 4 0 C4.33 0.99 4.66 1.98 5 3 C2.69 3.33 0.38 3.66 -2 4 C-1.34 2.68 -0.68 1.36 0 0 Z " fill="#EAE9EA" transform="translate(302,479)"/>
<path d="M0 0 C2.475 0.495 2.475 0.495 5 1 C5.33 1.99 5.66 2.98 6 4 C4.02 4 2.04 4 0 4 C0 2.68 0 1.36 0 0 Z " fill="#A8A8A8" transform="translate(319,396)"/>
<path d="M0 0 C1.98 0 3.96 0 6 0 C5.67 1.32 5.34 2.64 5 4 C3.35 3.67 1.7 3.34 0 3 C0 2.01 0 1.02 0 0 Z " fill="#DEDEDE" transform="translate(303,279)"/>
<path d="M0 0 C0.66 0.33 1.32 0.66 2 1 C2 3.64 2 6.28 2 9 C1.34 8.67 0.68 8.34 0 8 C-0.95067299 4.71585695 -1.10102197 3.30306592 0 0 Z " fill="#FBFAFB" transform="translate(289,138)"/>
<path d="M0 0 C0.99 0.33 1.98 0.66 3 1 C1.87926138 1.83905565 0.75325453 2.67107831 -0.375 3.5 C-1.00148438 3.9640625 -1.62796875 4.428125 -2.2734375 4.90625 C-4 6 -4 6 -6 6 C-6 5.34 -6 4.68 -6 4 C-4.36368108 2.95107762 -2.69514137 1.95093297 -1 1 C-0.67 0.67 -0.34 0.34 0 0 Z " fill="#5858FD" transform="translate(112,60)"/>
</svg>
