<?xml version="1.0" standalone="no"?>
<!DOCTYPE svg PUBLIC "-//W3C//DTD SVG 20010904//EN"
 "http://www.w3.org/TR/2001/REC-SVG-20010904/DTD/svg10.dtd">
<svg version="1.0" xmlns="http://www.w3.org/2000/svg"
 width="405.000000pt" height="720.000000pt" viewBox="0 0 405.000000 720.000000"
 preserveAspectRatio="xMidYMid meet">

<g transform="translate(0.000000,720.000000) scale(0.100000,-0.100000)"
fill="#000000" stroke="none">
<path d="M2632 6713 c-2 -58 -6 -62 -35 -35 -20 17 -20 17 -3 -10 9 -14 23
-28 29 -31 13 -5 73 40 65 49 -3 2 -11 -2 -18 -11 -21 -26 -29 -17 -33 38 l-3
52 -2 -52z"/>
<path d="M1564 6690 c10 -66 28 -82 40 -35 7 29 26 24 26 -6 0 -40 26 -18 36
31 6 28 7 50 3 50 -4 0 -10 -14 -14 -30 -7 -32 -25 -32 -25 0 0 32 -20 33 -26
1 -8 -37 -24 -41 -24 -7 0 14 -5 28 -12 32 -8 5 -9 -5 -4 -36z"/>
<path d="M1708 6680 c-16 -50 -13 -61 10 -38 10 10 17 10 33 0 12 -8 23 -12
25 -10 7 7 -31 98 -42 98 -5 0 -17 -22 -26 -50z m42 -6 c0 -8 -7 -14 -15 -14
-15 0 -21 21 -9 33 10 9 24 -2 24 -19z"/>
<path d="M1803 6723 c13 -3 17 -15 17 -49 0 -24 5 -44 10 -44 6 0 10 20 10 44
0 34 4 46 18 49 9 3 -3 5 -28 5 -25 0 -37 -2 -27 -5z"/>
<path d="M1901 6716 c-7 -8 -11 -30 -9 -48 3 -30 6 -33 37 -33 22 0 36 5 39
15 4 12 2 13 -9 3 -7 -7 -21 -13 -31 -13 -14 0 -18 8 -18 34 0 38 15 55 33 37
17 -17 31 -13 17 4 -16 19 -44 19 -59 1z"/>
<path d="M1999 6692 c-3 -24 -1 -48 3 -55 5 -8 8 -4 8 11 0 17 6 22 25 22 18
0 25 -5 25 -20 0 -11 5 -20 10 -20 6 0 10 23 10 50 0 30 -4 50 -11 50 -6 0 -9
-9 -6 -20 3 -11 1 -21 -4 -21 -36 -5 -44 -2 -49 21 -6 21 -7 18 -11 -18z"/>
<path d="M2152 6678 c1 -36 2 -43 5 -20 5 40 17 41 33 2 20 -48 40 -38 40 20
0 28 -4 50 -10 50 -5 0 -10 -13 -10 -30 0 -16 -4 -30 -9 -30 -5 0 -14 14 -21
30 -19 45 -30 36 -28 -22z"/>
<path d="M2274 6722 c-19 -12 -26 -50 -14 -72 9 -16 19 -20 43 -18 28 3 32 7
35 36 5 50 -29 78 -64 54z m44 -46 c3 -34 1 -37 -20 -34 -27 4 -37 41 -17 64
19 23 34 11 37 -30z"/>
<path d="M2360 6724 c0 -3 5 -25 11 -50 12 -46 32 -54 37 -16 2 12 7 22 12 22
5 0 10 -10 12 -22 4 -27 25 -35 31 -11 15 52 18 83 8 83 -6 0 -11 -11 -11 -24
0 -37 -19 -42 -26 -7 -4 17 -10 31 -14 31 -4 0 -10 -14 -14 -31 -7 -35 -26
-30 -26 7 0 13 -4 24 -10 24 -5 0 -10 -3 -10 -6z"/>
<path d="M839 6347 c-27 -21 -39 -54 -39 -107 0 -44 5 -56 29 -81 41 -40 91
-40 132 1 17 16 28 34 24 40 -10 16 -39 11 -58 -10 -37 -43 -77 -15 -77 55 0
20 5 45 10 56 14 25 56 25 70 -1 10 -19 40 -27 53 -14 9 10 -20 61 -38 68 -27
10 -89 6 -106 -7z"/>
<path d="M1020 6245 l0 -115 25 0 25 0 0 115 0 115 -25 0 -25 0 0 -115z"/>
<path d="M1110 6245 l0 -115 30 0 c28 0 30 2 30 40 0 29 4 40 15 40 8 0 24
-18 35 -40 16 -30 26 -40 45 -40 30 0 31 14 5 58 l-20 33 20 26 c49 62 6 113
-96 113 l-64 0 0 -115z m118 46 c4 -25 -12 -41 -40 -41 -14 0 -18 8 -18 36 0
33 2 35 28 32 20 -2 28 -9 30 -27z"/>
<path d="M1349 6331 c-25 -26 -29 -37 -29 -86 0 -50 4 -60 30 -87 28 -28 36
-30 78 -25 46 5 82 32 82 63 0 22 -48 17 -60 -7 -8 -14 -19 -19 -38 -17 -56 6
-56 140 0 146 19 2 31 -3 40 -17 15 -25 58 -29 58 -6 0 9 -11 27 -25 40 -36
37 -97 35 -136 -4z"/>
<path d="M1540 6245 l0 -115 75 0 c68 0 75 2 75 20 0 17 -7 20 -50 20 l-50 0
0 95 c0 95 0 95 -25 95 l-25 0 0 -115z"/>
<path d="M1712 6248 l3 -113 78 -3 c72 -3 77 -1 77 18 0 17 -6 20 -50 20 -49
0 -50 1 -50 30 0 29 2 30 46 30 38 0 45 3 42 18 -2 12 -15 18 -46 20 -37 3
-42 6 -42 28 0 22 4 24 50 24 43 0 50 3 50 20 0 18 -7 20 -81 20 l-80 0 3
-112z"/>
<path d="M1980 6245 l0 -115 75 0 c68 0 75 2 75 20 0 17 -7 20 -50 20 l-50 0
0 95 c0 95 0 95 -25 95 l-25 0 0 -115z"/>
<path d="M2166 6329 c-21 -25 -26 -41 -26 -86 0 -47 4 -59 29 -84 74 -74 186
4 166 115 -16 85 -116 118 -169 55z m104 -28 c5 -11 10 -36 10 -56 0 -46 -15
-75 -40 -75 -26 0 -50 37 -50 78 0 46 16 72 45 72 14 0 29 -8 35 -19z"/>
<path d="M2425 6343 c-14 -37 -75 -206 -75 -209 0 -2 12 -4 26 -4 17 0 28 6
31 20 4 16 14 20 48 20 35 0 45 -4 50 -20 7 -22 55 -29 55 -7 -1 6 -18 57 -38
112 -33 89 -40 100 -63 103 -18 2 -29 -3 -34 -15z m49 -100 c6 -20 4 -23 -17
-23 -24 0 -25 1 -14 35 11 36 17 34 31 -12z"/>
<path d="M2590 6245 l0 -115 39 0 c54 0 97 17 116 47 19 28 22 101 6 132 -17
30 -63 51 -116 51 l-45 0 0 -115z m102 58 c37 -33 13 -133 -33 -133 -17 0 -19
7 -19 75 0 63 3 75 17 75 9 0 25 -7 35 -17z"/>
<path d="M2800 6245 l0 -115 25 0 25 0 0 115 0 115 -25 0 -25 0 0 -115z"/>
<path d="M2892 6248 l3 -113 27 -3 c27 -3 27 -3 30 65 l3 68 38 -68 c34 -60
42 -68 65 -65 l27 3 -2 95 c0 52 -2 103 -2 113 -1 11 -9 17 -26 17 -23 0 -24
-3 -27 -67 l-3 -68 -38 68 c-34 59 -42 67 -68 67 l-30 0 3 -112z"/>
<path d="M3149 6331 c-25 -26 -29 -37 -29 -86 0 -50 4 -60 30 -87 28 -28 36
-30 80 -26 65 7 80 20 80 74 l0 44 -45 0 c-33 0 -45 -4 -45 -15 0 -8 6 -15 14
-15 19 0 28 -14 20 -34 -9 -23 -50 -20 -68 6 -18 26 -20 65 -6 102 11 30 50
36 70 11 14 -17 60 -20 60 -5 0 6 -11 22 -25 35 -36 37 -97 35 -136 -4z"/>
<path d="M459 5953 c-17 -45 -60 -166 -66 -185 -4 -14 1 -18 22 -18 18 0 28 6
32 20 4 16 14 20 48 20 34 0 44 -4 48 -20 3 -14 14 -20 31 -20 14 0 26 3 26 8
0 4 -18 54 -39 112 -35 93 -42 105 -65 108 -21 3 -28 -2 -37 -25z m54 -115
c-6 -11 -31 -10 -37 1 -3 5 -1 24 6 42 l11 33 12 -34 c7 -19 10 -38 8 -42z"/>
<path d="M627 5973 c-4 -3 -7 -55 -7 -115 l0 -108 30 0 c29 0 29 0 32 68 l3
67 38 -68 c34 -60 42 -68 65 -65 l27 3 0 110 0 110 -27 3 c-27 3 -27 3 -30
-65 l-3 -68 -38 68 c-30 52 -43 67 -61 67 -12 0 -26 -3 -29 -7z"/>
<path d="M860 5865 l0 -115 25 0 25 0 0 115 0 115 -25 0 -25 0 0 -115z"/>
<path d="M950 5866 l0 -116 25 0 c24 0 25 2 26 78 l0 77 27 -75 c36 -101 56
-102 88 -6 13 38 26 72 30 75 3 3 4 -28 2 -69 l-3 -75 28 -3 27 -3 0 116 0
116 -37 -3 c-36 -3 -37 -4 -61 -76 -13 -40 -27 -71 -30 -67 -3 3 -15 36 -27
73 -20 66 -21 67 -58 70 l-37 3 0 -115z"/>
<path d="M1297 5963 c-2 -10 -21 -62 -40 -115 l-36 -98 29 0 c20 0 31 6 35 20
5 16 15 20 47 20 31 0 41 -4 45 -20 4 -14 14 -20 34 -20 l28 0 -36 98 c-19 53
-38 105 -40 115 -4 11 -15 17 -33 17 -18 0 -29 -6 -33 -17z m47 -85 c10 -38 7
-48 -14 -48 -11 0 -20 6 -20 13 0 23 12 57 20 57 4 0 10 -10 14 -22z"/>
<path d="M1430 5961 c0 -15 8 -21 33 -23 l32 -3 3 -92 c3 -91 3 -93 27 -93 25
0 25 1 25 95 l0 95 35 0 c28 0 35 4 35 20 0 19 -7 20 -95 20 -87 0 -95 -2 -95
-19z"/>
<path d="M1650 5865 l0 -115 25 0 25 0 0 115 0 115 -25 0 -25 0 0 -115z"/>
<path d="M1769 5951 c-25 -26 -29 -37 -29 -86 0 -49 4 -60 29 -86 32 -31 71
-38 114 -18 35 16 52 54 51 112 0 43 -5 54 -32 79 -44 39 -93 38 -133 -1z
m101 -30 c14 -28 13 -94 -3 -116 -23 -30 -65 -13 -73 30 -7 40 2 86 19 97 21
14 46 8 57 -11z"/>
<path d="M1970 5866 l0 -116 25 0 c24 0 25 2 25 65 0 36 3 65 8 65 4 0 23 -29
41 -65 30 -56 39 -65 63 -65 l28 0 0 115 0 115 -25 0 c-24 0 -25 -2 -25 -65 0
-36 -3 -65 -7 -65 -5 0 -24 29 -43 63 -28 50 -41 63 -63 65 l-27 3 0 -115z"/>
<path d="M2260 5960 c0 -16 7 -20 30 -20 l30 0 0 -95 0 -95 30 0 30 0 0 95 0
95 35 0 c28 0 35 4 35 20 0 19 -7 20 -95 20 -88 0 -95 -1 -95 -20z"/>
<path d="M2470 5890 c0 -83 2 -93 25 -115 18 -19 35 -25 65 -25 30 0 47 6 65
25 23 22 25 32 25 115 0 89 0 90 -25 90 -25 0 -25 -1 -25 -84 0 -88 -10 -111
-47 -104 -15 3 -19 17 -23 93 -5 89 -5 90 -32 93 l-28 3 0 -91z"/>
<path d="M2680 5961 c0 -15 8 -21 33 -23 l32 -3 0 -90 0 -90 28 -3 27 -3 0 95
0 96 35 0 c28 0 35 4 35 20 0 19 -7 20 -95 20 -87 0 -95 -2 -95 -19z"/>
<path d="M2917 5956 c-44 -40 -48 -123 -8 -175 12 -16 31 -25 62 -28 38 -4 50
-1 75 20 27 23 29 31 29 92 0 61 -3 69 -28 91 -38 32 -95 33 -130 0z m97 -38
c43 -61 -13 -165 -62 -116 -16 16 -16 110 0 126 19 19 45 14 62 -10z"/>
<path d="M3110 5865 l0 -115 30 0 c28 0 30 2 30 40 0 29 4 40 15 40 8 0 24
-18 35 -40 16 -30 26 -40 45 -40 30 0 31 14 4 59 l-20 33 20 20 c30 27 27 72
-5 97 -21 16 -41 21 -90 21 l-64 0 0 -115z m118 63 c7 -7 12 -15 12 -19 0 -15
-32 -39 -51 -39 -15 0 -19 7 -19 35 0 30 3 35 23 35 13 0 28 -5 35 -12z"/>
<path d="M3330 5865 l0 -115 25 0 25 0 0 115 0 115 -25 0 -25 0 0 -115z"/>
<path d="M3457 5883 c-19 -54 -38 -106 -42 -115 -6 -15 -2 -18 23 -18 21 0 31
6 35 20 4 16 14 20 45 20 32 0 42 -4 47 -20 4 -14 15 -20 35 -20 l29 0 -31 83
c-17 45 -35 97 -41 115 -8 26 -16 32 -37 32 -26 0 -30 -7 -63 -97z m77 -8 c8
-30 1 -45 -20 -45 -14 0 -19 26 -8 54 9 24 21 19 28 -9z"/>
<path d="M3650 5865 l0 -115 75 0 c68 0 75 2 75 20 0 17 -7 20 -50 20 l-50 0
0 95 c0 95 0 95 -25 95 l-25 0 0 -115z"/>
<path d="M2695 3200 c-8 -14 -12 -10 53 -46 30 -15 65 -41 78 -57 36 -43 42
-25 6 20 -35 44 -127 99 -137 83z"/>
<path d="M2395 3158 c-5 -5 -19 -15 -29 -22 -10 -7 -15 -15 -10 -19 5 -3 21 5
36 18 16 13 25 26 20 28 -4 3 -11 0 -17 -5z"/>
<path d="M2305 3066 c-16 -30 -26 -58 -21 -63 5 -4 11 -3 13 4 2 6 18 30 34
53 27 37 31 60 11 60 -4 0 -21 -24 -37 -54z"/>
<path d="M2871 2760 c-7 -17 -28 -53 -47 -80 -35 -51 -37 -64 -5 -32 33 32 69
87 76 115 10 36 -7 35 -24 -3z"/>
<path d="M2320 2701 c14 -27 69 -81 105 -103 31 -18 65 -24 65 -10 0 7 -84 47
-87 41 -1 -2 -18 17 -38 44 -36 47 -66 65 -45 28z"/>
<path d="M395 1150 c-7 -12 2 -140 12 -166 10 -26 41 -14 97 37 50 46 75 83
63 95 -8 8 -71 -22 -87 -41 -14 -17 -15 -15 -20 31 -5 44 -8 49 -32 52 -14 2
-29 -2 -33 -8z"/>
<path d="M319 1146 c-1 -3 -3 -10 -4 -16 -1 -5 -3 -16 -4 -22 -1 -10 -3 -10
-10 0 -6 10 -10 8 -14 -9 -6 -22 -7 -22 -25 -6 -39 36 -76 10 -54 -38 10 -22
89 -83 95 -74 47 74 59 136 32 159 -8 7 -16 10 -16 6z m12 -79 c-8 -8 -11 -4
-11 14 0 33 14 47 18 19 2 -12 -1 -27 -7 -33z m-94 3 c3 -24 3 -24 -11 -5 -18
24 -20 38 -4 33 6 -2 13 -15 15 -28z m68 -34 c-4 -20 -11 -34 -15 -31 -5 3 -3
21 3 40 13 44 20 39 12 -9z"/>
<path d="M157 973 c-4 -3 -7 -20 -7 -37 0 -23 -6 -34 -22 -41 -29 -13 -34 -38
-12 -60 15 -15 29 -16 82 -12 36 4 67 9 69 11 11 11 -29 116 -49 131 -24 16
-50 20 -61 8z"/>
<path d="M373 906 l-28 -24 0 -282 0 -282 28 -24 28 -24 277 0 c253 0 280 2
308 19 17 10 32 27 34 37 2 11 4 139 4 286 l1 266 -28 26 -28 26 -284 0 -284
0 -28 -24z"/>
<path d="M2170 879 c0 -5 5 -7 10 -4 6 3 10 8 10 11 0 2 -4 4 -10 4 -5 0 -10
-5 -10 -11z"/>
<path d="M2080 870 c0 -5 5 -10 10 -10 6 0 10 5 10 10 0 6 -4 10 -10 10 -5 0
-10 -4 -10 -10z"/>
<path d="M2320 830 c0 -41 4 -52 24 -65 17 -11 30 -13 48 -6 30 11 38 29 38
82 0 32 -3 39 -20 39 -17 0 -20 -7 -20 -46 0 -38 -3 -45 -17 -42 -13 2 -19 15
-21 46 -2 28 -8 42 -18 42 -10 0 -14 -13 -14 -50z"/>
<path d="M2456 851 c16 -28 16 -31 1 -55 -9 -14 -17 -28 -17 -31 0 -12 34 -3
46 13 12 16 13 16 19 0 4 -10 16 -18 26 -18 23 0 23 4 2 36 -15 24 -15 27 1
55 16 28 16 29 -1 29 -11 0 -24 -5 -30 -11 -8 -8 -13 -8 -17 0 -4 6 -16 11
-27 11 -19 0 -20 -1 -3 -29z"/>
<path d="M3088 863 c7 -3 16 -2 19 1 4 3 -2 6 -13 5 -11 0 -14 -3 -6 -6z"/>
<path d="M2110 852 c-41 -2 -77 -8 -81 -14 -15 -23 7 -63 39 -73 20 -6 31 -14
28 -22 -7 -18 40 -28 70 -14 14 6 22 15 19 21 -3 5 6 12 20 16 27 7 50 46 41
69 -6 16 -44 21 -136 17z m7 -27 c4 -15 -10 -32 -34 -39 -27 -9 -55 30 -32 45
18 12 61 7 66 -6z m108 5 c12 -19 -5 -50 -26 -47 -27 4 -43 23 -36 41 7 18 52
22 62 6z m-81 -25 c3 -9 0 -15 -9 -15 -9 0 -12 6 -9 15 4 8 7 15 9 15 2 0 5
-7 9 -15z"/>
<path d="M2080 816 c0 -9 5 -16 10 -16 6 0 10 4 10 9 0 6 -4 13 -10 16 -5 3
-10 -1 -10 -9z"/>
<path d="M2170 821 c0 -5 5 -13 10 -16 6 -3 10 -2 10 4 0 5 -4 13 -10 16 -5 3
-10 2 -10 -4z"/>
<path d="M2826 817 c3 -10 9 -15 12 -12 3 3 0 11 -7 18 -10 9 -11 8 -5 -6z"/>
<path d="M2605 810 c3 -5 8 -10 11 -10 2 0 4 5 4 10 0 6 -5 10 -11 10 -5 0 -7
-4 -4 -10z"/>
<path d="M2811 794 c0 -11 3 -14 6 -6 3 7 2 16 -1 19 -3 4 -6 -2 -5 -13z"/>
<path d="M2883 795 c0 -8 4 -12 9 -9 5 3 6 10 3 15 -9 13 -12 11 -12 -6z"/>
<path d="M2977 799 c7 -7 15 -10 18 -7 3 3 -2 9 -12 12 -14 6 -15 5 -6 -5z"/>
<path d="M2936 775 c-3 -8 -1 -15 4 -15 6 0 10 7 10 15 0 8 -2 15 -4 15 -2 0
-6 -7 -10 -15z"/>
</g>
</svg>
