<?xml version="1.0" standalone="no"?>
<!DOCTYPE svg PUBLIC "-//W3C//DTD SVG 20010904//EN"
 "http://www.w3.org/TR/2001/REC-SVG-20010904/DTD/svg10.dtd">
<svg version="1.0" xmlns="http://www.w3.org/2000/svg"
 width="450.000000pt" height="720.000000pt" viewBox="0 0 450.000000 720.000000"
 preserveAspectRatio="xMidYMid meet">

<g transform="translate(0.000000,720.000000) scale(0.100000,-0.100000)"
fill="#000000" stroke="none">
<path d="M2328 4103 c-36 -9 -16 -23 34 -23 32 0 48 4 43 9 -13 13 -56 20 -77
14z"/>
<path d="M2037 4058 c-15 -11 -9 -13 38 -15 53 -2 72 8 39 21 -25 10 -59 7
-77 -6z"/>
<path d="M1958 3990 c-62 -11 -68 -16 -68 -51 0 -42 38 -154 58 -172 11 -11
42 -17 87 -19 l70 -3 3 -32 c4 -38 48 -89 86 -99 39 -9 95 4 121 31 13 12 29
41 35 64 l11 41 59 0 c47 0 63 4 78 21 23 24 52 120 52 172 0 34 -2 37 -37 44
-21 4 -85 6 -143 4 -165 -5 -180 -5 -275 2 -49 3 -111 2 -137 -3z m199 -46
c18 -11 21 -20 16 -47 -17 -89 -54 -119 -144 -115 -60 3 -65 5 -78 33 -18 37
-20 110 -4 126 30 30 166 32 210 3z m336 -1 c23 -22 22 -89 -3 -130 -18 -31
-23 -33 -75 -33 -42 0 -55 3 -55 15 0 9 -9 15 -25 15 -33 0 -58 40 -59 93 -1
42 0 42 44 54 56 14 149 6 173 -14z m-242 -69 c25 -71 25 -72 -35 -76 l-54 -3
13 25 c7 14 18 44 25 68 6 24 16 42 22 40 7 -3 20 -26 29 -54z"/>
<path d="M2052 3918 c-32 -32 8 -80 48 -58 19 10 29 41 13 39 -21 -3 -33 2
-33 16 0 18 -12 19 -28 3z"/>
<path d="M2327 3923 c-11 -11 -8 -48 5 -61 16 -16 33 -15 52 4 22 21 20 34 -4
34 -11 0 -20 7 -20 15 0 15 -21 21 -33 8z"/>
</g>
</svg>
