<?xml version="1.0" standalone="no"?>
<!DOCTYPE svg PUBLIC "-//W3C//DTD SVG 20010904//EN"
 "http://www.w3.org/TR/2001/REC-SVG-20010904/DTD/svg10.dtd">
<svg version="1.0" xmlns="http://www.w3.org/2000/svg"
 width="462.000000pt" height="720.000000pt" viewBox="0 0 462.000000 720.000000"
 preserveAspectRatio="xMidYMid meet">

<g transform="translate(0.000000,720.000000) scale(0.100000,-0.100000)"
fill="#000000" stroke="none">
<path d="M0 3601 l0 -3601 2310 0 2310 0 0 3600 0 3600 -250 0 c-237 0 -250
-1 -260 -20 -7 -13 -7 -33 0 -62 5 -25 7 -132 4 -253 -2 -115 -9 -446 -15
-735 -5 -289 -13 -563 -17 -610 -3 -47 -6 -105 -6 -130 2 -105 -18 -619 -26
-658 -12 -64 1 -72 114 -72 54 0 114 -6 142 -15 27 -8 59 -15 72 -15 12 0 33
-7 45 -15 13 -8 47 -19 77 -24 53 -8 52 -9 -45 -11 -218 -5 -406 -5 -764 3
-296 7 -380 11 -403 23 -22 12 -36 12 -73 3 -29 -7 -45 -17 -43 -25 3 -14 213
-276 263 -329 l30 -32 160 -2 c88 -1 246 -6 350 -11 105 -5 254 -11 333 -12
106 -2 142 -6 142 -15 0 -8 12 -13 28 -13 20 0 35 -9 51 -31 13 -17 21 -32 19
-34 -1 -2 -223 -6 -492 -9 -269 -4 -493 -9 -497 -12 -5 -3 9 -40 30 -82 68
-133 99 -269 71 -312 -8 -12 -10 -11 -10 7 0 18 -9 25 -52 37 -29 8 -78 17
-108 21 -63 7 -200 35 -200 41 0 2 54 3 120 2 66 -1 123 1 127 5 13 13 -13 27
-72 38 -72 14 -87 25 -54 38 13 5 18 10 11 10 -31 2 -82 34 -82 52 0 12 -7 19
-20 19 -12 0 -22 9 -26 24 -3 14 -13 27 -21 30 -12 5 -13 9 -4 20 9 11 6 18
-14 32 -14 11 -28 34 -31 53 l-7 35 23 -22 c13 -12 25 -20 28 -18 6 6 -17 48
-41 74 -12 12 -22 28 -23 35 -4 25 -39 93 -55 107 -3 3 -18 23 -35 45 -16 22
-35 46 -41 53 -22 23 -14 -6 12 -48 14 -22 22 -40 18 -40 -5 1 -24 25 -43 55
-19 29 -38 51 -42 49 -4 -3 -8 1 -8 8 0 8 -25 41 -56 73 -31 33 -54 52 -51 43
4 -10 4 -18 2 -18 -9 0 -45 40 -45 50 0 5 -13 16 -29 24 -15 8 -36 26 -45 40
-9 15 -22 26 -29 25 -9 0 -9 -2 1 -6 6 -2 12 -9 12 -14 0 -13 -21 -11 -52 5
-16 8 -28 11 -28 6 0 -5 -7 -6 -17 -3 -11 4 -14 3 -9 -5 5 -8 2 -10 -10 -5
-21 8 -14 76 12 104 15 17 15 19 2 14 -9 -4 -26 -30 -38 -58 -12 -29 -28 -62
-36 -75 -13 -20 -17 -21 -29 -8 -10 10 -26 13 -49 9 -19 -3 -36 -1 -40 6 -4 6
-18 11 -31 11 -40 0 -55 34 -55 129 0 46 -2 82 -5 79 -3 -3 -6 -32 -7 -64 0
-39 -3 -52 -8 -39 -9 22 -5 61 12 119 11 35 10 39 -12 56 l-24 18 36 -1 c27
-1 45 7 73 32 43 38 74 51 118 51 61 1 4 19 -66 21 -105 3 -179 58 -182 133 0
19 3 33 6 30 4 -2 11 6 14 18 4 13 13 37 20 53 7 17 20 48 28 70 l16 40 0 -47
c1 -63 -28 -158 -49 -158 -13 0 -13 -1 0 -10 8 -5 12 -10 7 -10 -4 0 0 -11 9
-25 8 -13 13 -29 9 -35 -4 -6 -1 -9 7 -8 7 2 12 -3 10 -10 -1 -8 2 -11 7 -7 6
3 24 -1 42 -10 34 -18 45 -15 35 11 -4 9 -9 14 -13 11 -7 -8 -53 52 -53 69 0
6 7 17 15 24 8 7 15 21 15 31 0 10 8 32 19 49 l18 31 -1 -81 c-1 -78 0 -83 27
-106 16 -13 32 -22 37 -19 4 3 10 -1 13 -8 3 -9 24 -14 59 -15 49 -2 51 -1 34
13 -11 8 -23 15 -28 15 -4 0 -8 6 -8 13 0 7 -10 17 -22 22 -25 11 -77 108 -78
145 0 23 1 23 35 -13 38 -41 49 -44 71 -22 13 13 13 17 -1 38 -9 14 -17 33
-19 43 -6 28 -86 174 -96 174 -5 0 -11 9 -15 19 -16 51 -114 140 -155 141 -8
0 -21 10 -29 21 -12 20 -11 21 11 15 85 -26 100 -28 111 -17 9 9 9 16 0 30 -9
14 -9 22 0 31 9 10 9 11 0 6 -10 -5 -13 3 -13 31 0 21 -16 83 -36 138 -19 55
-38 109 -41 120 -18 71 -67 106 -162 116 -36 4 -67 12 -69 18 -2 6 -9 8 -14 5
-8 -5 -9 3 -5 24 5 24 3 32 -7 32 -8 0 -32 15 -55 34 -55 46 -111 54 -199 28
-37 -11 -99 -30 -139 -41 -40 -12 -75 -26 -79 -33 -5 -8 -1 -9 12 -4 10 4 44
9 74 12 l55 3 -55 -14 c-30 -9 -67 -13 -81 -11 -18 4 -42 -6 -79 -31 -59 -39
-150 -129 -150 -147 0 -6 14 3 29 21 36 39 128 98 163 105 38 7 28 -3 -28 -31
-26 -14 -65 -40 -86 -60 -44 -41 -108 -139 -109 -167 0 -15 -2 -16 -7 -4 -14
30 -32 19 -56 -33 -40 -88 -66 -149 -66 -159 0 -14 60 -4 70 12 16 25 11 -8
-9 -65 -16 -45 -18 -47 -24 -25 -5 19 -9 22 -16 11 -10 -15 -3 -53 9 -46 4 2
5 -8 2 -23 l-6 -27 -6 25 -7 25 -11 -25 c-6 -14 -11 -19 -11 -12 -2 28 -20 9
-26 -28 -4 -22 -11 -43 -16 -46 -5 -3 -7 -27 -3 -53 6 -43 -7 -161 -22 -208
-5 -14 -4 -15 4 -4 16 23 42 22 47 -2 3 -12 -6 -55 -20 -96 -18 -55 -22 -78
-14 -87 8 -10 8 -22 0 -46 -7 -19 -8 -35 -2 -41 14 -14 31 1 25 21 -5 14 -4
14 4 3 11 -15 5 -42 -12 -53 -6 -4 -5 -12 3 -22 13 -16 1 -51 -20 -58 -7 -2
-13 -16 -15 -31 -3 -33 18 -36 35 -4 9 17 10 17 5 2 -3 -11 -10 -35 -14 -54
-5 -18 -13 -38 -19 -44 -14 -14 -14 -30 -1 -22 6 3 10 -5 10 -19 0 -18 -9 -30
-31 -41 -17 -9 -36 -14 -42 -11 -7 2 -4 5 5 5 10 1 22 10 28 21 12 23 7 25
-22 9 -17 -9 -24 -8 -32 2 -6 8 -17 14 -23 14 -7 0 -12 5 -10 10 1 6 11 9 22
8 15 -2 14 1 -7 12 -24 13 -26 19 -18 40 7 17 6 25 -1 25 -8 0 -8 4 -2 13 15
18 25 67 14 67 -14 0 -43 -130 -35 -162 5 -25 3 -29 -13 -26 -11 2 -18 12 -18
27 0 34 -20 37 -48 7 -24 -26 -26 -26 -173 -26 -82 1 -196 5 -254 11 -58 6
-189 12 -292 14 -103 2 -191 6 -197 10 -8 4 -11 209 -11 673 l0 667 65 -3 c42
-3 65 0 65 7 0 9 -77 17 -118 12 -8 -1 -12 16 -12 59 l0 60 138 1 c111 1 127
3 82 10 -30 4 -92 9 -137 10 l-83 3 0 53 c0 36 4 53 13 53 6 1 91 1 187 1 96
1 167 3 157 6 -9 2 -93 10 -185 16 l-167 12 0 48 0 48 255 1 c180 0 239 3 200
9 -70 11 -306 32 -390 35 l-65 2 -3 46 -3 46 307 0 c169 0 305 2 303 5 -5 5
-236 21 -474 33 l-130 7 -3 43 -3 42 358 1 c197 1 345 5 328 9 -16 4 -63 8
-102 9 -91 1 -506 29 -551 37 -31 5 -33 7 -30 40 l3 35 405 0 c223 -1 464 -3
535 -6 188 -6 49 10 -210 25 -110 6 -267 16 -350 21 -82 5 -203 12 -268 15
l-118 6 3 37 3 36 320 -3 c292 -2 861 -15 1240 -27 101 -3 135 -2 105 4 -25 5
-191 14 -370 21 -179 7 -341 15 -360 19 -19 4 -71 9 -115 10 -44 1 -179 8
-300 16 -295 19 -497 29 -512 27 -8 -2 -13 9 -13 27 l0 30 191 3 c210 3 629
-5 1129 -21 556 -19 775 -24 770 -18 -3 3 -138 12 -300 21 -655 36 -1015 58
-1205 72 -110 8 -274 19 -365 24 -91 6 -180 13 -197 16 l-33 6 0 -3601z m1530
2477 c-36 -24 -70 -53 -75 -65 -7 -14 -16 -19 -24 -14 -15 9 122 121 148 121
8 0 -14 -19 -49 -42z m5 -43 c-47 -41 -85 -64 -51 -30 9 9 19 22 23 29 7 12
60 45 73 45 3 1 -17 -19 -45 -44z m367 -45 c13 -6 39 -34 60 -63 27 -40 43
-53 65 -55 15 -1 33 -10 40 -20 7 -9 17 -22 23 -29 15 -18 12 -60 -5 -67 -8
-3 -15 -18 -15 -33 0 -49 -45 -129 -91 -162 -51 -37 -55 -38 -61 -6 -4 20 1
29 22 42 63 37 82 141 35 189 -17 16 -32 23 -44 19 -13 -4 -20 0 -24 15 -5 20
-6 20 -60 -4 -31 -13 -57 -22 -59 -20 -3 2 -19 0 -36 -5 -25 -8 -32 -7 -32 5
0 8 -4 14 -10 14 -21 0 -8 37 25 73 19 21 35 42 35 47 0 11 81 69 97 70 7 0
22 -5 35 -10z m-482 -20 c-8 -6 -11 -10 -6 -10 4 0 2 -10 -6 -22 -8 -13 -18
-36 -22 -52 -4 -15 -10 -26 -13 -23 -10 11 19 107 35 116 21 12 31 3 12 -9z
m-5 -162 c-11 -56 -13 -84 -6 -86 6 -2 11 -10 11 -18 0 -9 -5 -12 -10 -9 -6 4
-13 -7 -16 -25 -9 -45 -20 -45 -16 1 5 46 -2 49 -22 12 -19 -36 -20 -11 -2 48
41 134 50 158 58 153 4 -3 8 0 8 7 0 7 3 10 6 6 3 -3 -1 -43 -11 -89z m342
-56 c-17 -19 -27 -22 -86 -22 -32 -1 -33 -1 -27 -36 12 -59 -54 -181 -89 -168
-22 9 -19 17 14 39 60 39 68 108 20 162 -16 19 -28 37 -26 39 2 2 20 -3 40
-11 47 -19 73 -19 122 4 46 21 55 19 32 -7z m-27 -144 c12 -28 32 -59 44 -69
11 -9 19 -19 16 -22 -10 -9 -146 -16 -158 -8 -11 6 -10 17 6 52 11 24 23 56
26 72 11 46 40 35 66 -25z m678 -4 c30 -20 51 -38 48 -41 -3 -3 -17 2 -31 11
-14 9 -31 14 -37 10 -6 -4 -8 -3 -4 4 4 6 -12 19 -39 31 -25 11 -45 23 -45 27
0 13 57 -9 108 -42z m-63 -231 c-10 -26 -36 -77 -58 -115 -48 -84 -62 -135
-41 -155 8 -8 14 -22 13 -31 0 -14 -2 -13 -9 3 -8 18 -9 17 -9 -7 -1 -15 3
-29 8 -32 5 -3 6 -16 3 -28 -10 -39 -41 47 -42 113 0 49 5 65 35 109 36 54 39
73 8 50 -10 -7 1 4 23 24 28 23 48 54 60 87 10 28 20 45 22 39 2 -6 -4 -32
-13 -57z m-640 -13 c5 -8 11 -7 21 1 10 8 18 9 27 0 8 -6 17 -8 20 -4 15 14
57 12 57 -4 0 -9 -6 -13 -15 -9 -8 3 -15 1 -15 -5 0 -6 -29 -9 -75 -7 -44 2
-74 7 -73 13 2 6 9 9 16 9 6 -1 12 2 12 7 0 12 17 11 25 -1z m874 -30 c26 -50
28 -76 2 -34 -20 32 -35 74 -28 74 3 0 14 -18 26 -40z m-619 -39 c0 -21 -31
-79 -54 -103 -15 -14 -48 -32 -74 -39 -44 -13 -157 -15 -193 -4 -21 7 -18 40
4 40 8 0 19 4 23 8 4 4 26 7 49 7 67 0 138 26 176 64 32 33 69 47 69 27z
m-644 -111 c14 0 34 -4 44 -10 13 -7 22 -6 32 3 7 8 19 12 27 9 8 -3 11 0 7 7
-5 7 1 11 13 11 14 0 19 -5 15 -15 -4 -10 0 -15 14 -15 12 0 23 -4 26 -9 3 -4
29 -11 58 -15 29 -3 80 -13 113 -21 33 -7 91 -21 129 -29 69 -16 106 -37 106
-61 0 -7 -10 -15 -21 -18 -20 -5 -21 -11 -15 -53 3 -26 6 -71 6 -101 0 -36 4
-52 11 -47 6 3 9 15 6 25 -4 15 -2 17 13 9 10 -6 21 -18 24 -27 15 -54 17 -85
6 -98 -8 -9 -8 -15 0 -20 7 -4 10 -49 9 -128 -1 -67 5 -194 15 -282 16 -158
20 -242 12 -234 -3 2 -7 31 -10 63 -2 32 -7 61 -10 64 -3 3 -6 0 -6 -6 0 -7
-4 -12 -10 -12 -5 0 -10 6 -10 14 0 7 -10 16 -21 19 -18 5 -20 11 -14 34 3 15
11 30 16 31 15 6 10 22 -6 22 -17 0 -19 18 -5 40 8 13 10 12 10 -2 0 -10 4
-18 9 -18 5 0 6 21 3 48 -6 56 -12 68 -12 24 0 -36 -20 -45 -20 -9 -1 49 -13
172 -17 177 -2 2 -3 -53 -1 -123 2 -70 0 -127 -4 -127 -11 0 -20 78 -13 110 4
17 2 30 -3 30 -5 0 -10 6 -9 13 1 45 -3 59 -17 48 -11 -9 -15 -8 -20 5 -3 9
-4 20 -1 24 3 5 1 11 -5 15 -13 8 -13 102 1 110 5 4 15 -7 22 -24 l11 -30 11
32 c5 18 15 33 20 33 22 3 55 17 56 23 0 3 2 14 4 24 2 13 -1 17 -11 13 -19
-7 -18 13 3 36 9 10 14 21 11 23 -3 3 -36 6 -73 6 -78 1 -105 -14 -86 -49 10
-19 9 -20 -18 -12 -16 4 -32 6 -34 4 -3 -3 -31 3 -63 14 -45 14 -60 24 -62 40
-4 23 7 28 23 13 6 -4 24 -12 40 -15 36 -9 26 3 -25 31 -36 20 -53 53 -27 53
19 0 31 120 14 136 -7 6 -34 19 -62 29 -27 9 -69 28 -91 41 -23 13 -67 33 -98
44 -31 12 -61 30 -66 40 -11 21 -35 17 -44 -6 -3 -9 -1 -12 4 -9 6 3 10 -1 10
-10 0 -11 -5 -15 -15 -11 -8 3 -15 1 -15 -4 0 -6 -4 -10 -10 -10 -5 0 -10 6
-10 14 0 18 37 84 59 107 15 14 16 13 19 -18 3 -28 7 -33 28 -33z m997 -20 c3
-11 1 -18 -4 -14 -5 3 -9 12 -9 20 0 20 7 17 13 -6z m-1105 -460 c-7 -11 -15
-15 -17 -9 -2 6 3 15 10 20 20 12 21 11 7 -11z m421 8 c6 -7 17 -13 23 -13 7
0 13 -19 15 -44 4 -61 13 -65 13 -5 1 43 2 46 13 29 14 -23 17 -265 4 -265 -5
0 -6 -18 -2 -40 4 -26 3 -40 -4 -40 -14 0 -14 -37 -1 -45 6 -3 10 -13 10 -21
0 -8 -4 -13 -9 -10 -5 3 -12 -5 -15 -19 -4 -14 -13 -25 -21 -25 -8 0 -15 -4
-15 -10 0 -5 5 -10 10 -10 6 0 10 -10 10 -21 0 -18 -2 -20 -16 -9 -13 11 -16
10 -21 -8 -3 -12 -12 -22 -19 -22 -18 0 -19 -47 -1 -53 10 -4 10 -7 0 -18 -10
-9 -13 -10 -13 -1 0 25 -19 11 -25 -20 -6 -27 -3 -34 19 -51 14 -10 26 -25 26
-33 0 -8 6 -11 15 -8 10 4 15 0 15 -10 0 -23 -45 -11 -85 22 -21 17 -30 21
-34 11 -2 -7 1 -15 8 -17 6 -2 11 -11 11 -21 0 -9 6 -23 13 -31 10 -12 9 -12
-5 -1 -16 12 -18 10 -18 -26 0 -21 6 -45 13 -52 10 -10 7 -10 -15 0 -16 7 -28
16 -28 21 0 4 -5 8 -10 8 -6 0 -1 -18 10 -40 11 -22 25 -40 31 -40 6 0 22 -8
35 -19 13 -10 44 -25 69 -32 48 -14 63 -35 18 -25 -16 3 -4 -6 26 -19 53 -25
55 -25 135 -11 45 8 127 33 183 56 l102 42 38 -29 c52 -40 158 -100 148 -82
-7 10 -1 9 18 -3 14 -10 33 -18 42 -18 8 0 26 -13 41 -29 32 -36 94 -132 94
-145 0 -6 15 -25 33 -44 l32 -34 -42 21 c-23 12 -57 23 -74 25 -27 2 -32 8
-35 31 -3 32 -24 60 -24 33 0 -27 -17 -30 -39 -7 -14 16 -24 19 -33 12 -7 -5
-39 -16 -70 -23 -32 -7 -66 -21 -76 -30 -10 -10 -38 -29 -63 -42 -24 -14 -59
-34 -77 -44 -35 -21 -39 -47 -7 -52 24 -3 107 34 185 83 67 42 106 44 179 10
55 -26 257 -83 326 -92 22 -3 52 -14 66 -24 38 -27 117 -59 144 -59 13 0 36
-6 52 -14 55 -27 99 -38 208 -51 61 -7 112 -12 114 -10 14 15 -78 75 -114 75
-14 0 -25 5 -25 10 0 17 46 11 104 -15 31 -14 65 -25 74 -25 10 0 22 -4 28 -9
12 -12 207 -91 212 -86 6 6 -49 75 -59 75 -5 0 -9 7 -9 15 0 8 -4 15 -10 15
-5 0 -32 23 -60 50 -61 60 -54 64 18 10 29 -22 55 -40 57 -40 3 0 -2 14 -10
31 -20 38 -68 89 -84 89 -6 0 -16 10 -22 23 -6 12 -31 35 -57 50 -49 31 -46
47 11 47 19 0 26 4 21 12 -4 7 -3 8 4 4 7 -4 12 -14 12 -23 0 -25 32 -75 89
-138 30 -33 65 -84 78 -115 14 -30 42 -93 64 -140 58 -129 89 -220 89 -267 l0
-41 172 -2 c94 0 175 -3 181 -7 5 -3 12 -1 16 5 3 6 114 12 279 17 l272 7 0
-66 0 -67 -92 0 c-51 0 -118 -2 -148 -4 -295 -19 -480 -25 -503 -16 -15 6 -34
8 -43 4 -8 -3 -26 0 -40 7 -20 11 -27 11 -42 -4 -11 -9 -26 -14 -34 -11 -21 8
-33 -12 -48 -75 -15 -67 -49 -150 -61 -150 -11 0 -12 14 -2 23 9 10 10 67 1
67 -5 0 -8 -4 -8 -10 0 -5 -10 -10 -22 -10 -21 1 -22 2 -6 14 15 11 10 13 -35
9 -45 -3 -49 -2 -27 8 65 30 90 44 81 47 -6 2 -20 -2 -33 -9 -31 -16 -78 -21
-78 -8 0 7 -11 9 -27 5 -22 -4 -24 -4 -8 4 11 5 36 11 56 14 19 4 44 13 55 20
17 13 13 13 -29 3 -37 -8 -53 -8 -68 1 -27 17 -56 15 -68 -5 -8 -14 -14 -16
-27 -7 -39 23 -27 34 38 34 69 0 133 14 144 32 5 8 0 9 -17 3 -13 -4 -44 -9
-69 -11 -25 -2 -74 -6 -109 -10 -57 -6 -63 -5 -58 10 5 13 0 16 -31 15 -30 0
-33 -2 -17 -9 11 -5 15 -9 8 -9 -20 -2 -43 11 -37 20 3 5 -4 9 -15 9 -10 0
-27 3 -37 7 -12 4 -15 3 -10 -5 8 -14 -31 1 -72 26 -38 24 -18 25 63 2 89 -25
233 -36 290 -22 l40 10 -37 1 c-21 1 -38 6 -38 11 0 6 -5 10 -11 10 -5 0 -7
-4 -4 -10 8 -13 -74 -17 -150 -7 -16 3 -37 7 -45 9 -8 3 -37 11 -65 17 -53 13
-75 26 -75 46 0 7 -9 15 -20 18 -19 5 -28 -7 -12 -16 4 -2 0 -2 -8 1 -47 14
-51 11 -15 -12 22 -14 35 -26 28 -26 -6 0 -13 -7 -15 -15 -2 -11 -15 -8 -63
15 -33 16 -62 27 -64 24 -6 -6 -5 -6 82 -47 73 -35 102 -56 56 -42 -14 5 -19
4 -15 -4 9 -13 -10 -7 -84 27 -30 14 -58 30 -62 36 -3 5 -14 11 -24 12 -9 2
-27 15 -39 30 -12 15 -26 24 -32 21 -6 -4 -16 -1 -22 7 -7 8 -22 12 -34 9 -16
-3 -18 -2 -8 5 16 12 -3 27 -24 18 -8 -3 -20 1 -27 8 -7 7 -26 16 -41 20 -15
3 -32 17 -37 29 -5 12 -9 16 -9 9 -1 -7 -6 -10 -11 -7 -6 4 -8 11 -5 16 4 5
-5 13 -18 18 -24 9 -46 31 -31 31 4 0 53 -26 108 -59 137 -80 245 -133 259
-128 7 3 -1 10 -18 16 -16 7 -32 16 -35 20 -11 15 -69 51 -83 51 -8 0 -17 7
-21 15 -3 8 -12 15 -20 15 -26 0 -100 37 -129 64 -15 14 -32 26 -38 26 -5 0
-9 5 -9 11 0 6 -8 8 -17 5 -10 -3 -25 -1 -33 5 -12 8 -9 9 10 4 18 -4 12 2
-18 21 -24 15 -41 28 -39 31 5 4 120 -53 157 -78 41 -28 233 -126 260 -133 18
-5 15 -1 -10 12 -19 10 -53 29 -75 43 -22 13 -52 31 -67 38 -15 8 -25 19 -21
24 3 6 1 7 -6 3 -12 -8 -21 -4 -151 66 -47 25 -96 49 -110 53 -24 7 -24 7 -5
-9 19 -15 19 -16 -10 -5 -28 10 -95 48 -95 53 0 2 12 1 28 -1 l27 -4 -25 15
c-14 8 -33 15 -44 16 -15 0 -16 -3 -6 -15 11 -13 8 -13 -20 -4 -23 8 -28 14
-19 20 16 9 20 7 -91 40 -41 12 -91 24 -110 26 l-35 5 23 -25 c13 -14 24 -32
26 -40 1 -8 8 -22 15 -31 22 -27 51 -89 45 -98 -7 -11 -33 21 -34 41 0 8 -14
27 -32 43 -17 15 -29 30 -26 33 3 3 -8 20 -24 37 -16 17 -27 37 -24 44 7 17
-13 31 -52 36 -32 4 -32 4 -17 -19 9 -13 13 -28 10 -33 -3 -5 26 -42 65 -82
78 -81 113 -144 154 -279 30 -99 31 -106 11 -89 -8 7 -12 16 -9 21 3 5 -4 22
-15 38 -11 15 -18 31 -15 34 3 3 -2 17 -11 31 -9 14 -14 30 -10 36 4 6 -1 20
-10 30 -9 10 -14 23 -11 28 3 6 -1 12 -9 16 -19 7 -19 1 5 -75 29 -89 48 -174
54 -244 5 -48 0 -78 -22 -150 l-27 -90 -55 -1 c-68 -1 -96 -10 -104 -31 -6
-13 -14 -9 -46 22 -40 40 -49 40 -29 3 6 -12 7 -24 2 -29 -8 -8 -85 73 -175
184 -13 16 -56 63 -95 105 -40 42 -73 80 -73 84 0 4 -7 8 -16 8 -17 0 -88 52
-154 114 -114 106 -189 156 -234 156 -9 0 -24 -10 -36 -22 -14 -16 -20 -18
-20 -7 0 8 26 42 58 75 46 49 65 79 96 155 21 52 52 123 68 159 16 36 31 73
33 82 2 10 11 33 20 52 9 19 15 41 13 47 -3 9 -45 13 -139 16 -148 4 -179 8
-179 24 0 8 41 9 143 3 194 -11 189 -12 239 38 50 50 98 68 189 68 l64 1 -30
16 c-16 9 -47 29 -67 45 -30 24 -37 34 -32 53 3 12 1 26 -5 29 -6 4 -11 24
-11 44 0 20 -7 73 -16 117 -8 44 -16 89 -18 100 -4 37 -14 42 -88 44 -39 1
-74 4 -77 6 -3 2 -141 6 -306 10 -165 4 -327 10 -360 14 -55 5 -60 8 -57 29 4
24 -15 31 -24 8 -7 -18 -42 -27 -50 -14 -4 6 0 14 7 19 11 7 10 9 -3 9 -10 0
-18 -7 -18 -15 0 -9 -9 -15 -21 -15 -15 0 -19 4 -15 16 3 9 6 19 6 24 0 5 15
6 33 3 26 -4 34 -2 34 10 0 9 -11 18 -24 22 -55 13 -15 23 85 20 59 -2 193 -7
297 -10 269 -8 437 -15 460 -20 11 -2 27 0 35 5 16 10 39 -14 40 -43 0 -13 6
-16 25 -13 13 3 29 7 35 11 5 3 10 2 10 -4 0 -5 -4 -12 -10 -16 -5 -3 -7 -12
-4 -20 5 -12 13 -9 39 11 19 14 40 36 49 49 17 26 47 179 52 270 12 200 19
226 53 193z m-358 -18 c-25 -22 -41 -26 -41 -10 0 6 9 10 19 10 11 0 23 5 26
10 3 6 9 10 13 10 4 -1 -4 -10 -17 -20z m487 -22 c18 -18 16 -69 -3 -62 -12 5
-15 -4 -15 -46 0 -29 -4 -49 -9 -45 -8 4 -8 50 -1 158 0 11 14 9 28 -5z m649
-30 c-3 -8 -6 -5 -6 6 -1 11 2 17 5 13 3 -3 4 -12 1 -19z m-62 -38 c3 -11 11
-20 16 -20 5 0 9 -7 9 -15 0 -29 85 -175 102 -175 4 0 8 -6 8 -13 0 -17 40
-42 40 -25 1 7 10 -4 21 -24 11 -21 23 -38 27 -38 4 -1 25 -16 47 -35 22 -19
33 -33 25 -31 -110 21 -217 88 -275 170 -11 15 -24 33 -30 40 -40 45 -67 144
-38 139 7 -2 15 8 19 22 7 30 20 32 29 5z m-1003 -61 c-2 -13 -3 -40 -2 -60 0
-24 -4 -36 -14 -36 -20 0 -33 106 -14 118 21 13 33 4 30 -22z m25 -1 c-3 -8
-6 -5 -6 6 -1 11 2 17 5 13 3 -3 4 -12 1 -19z m360 -80 c-3 -8 -6 -5 -6 6 -1
11 2 17 5 13 3 -3 4 -12 1 -19z m-396 -58 c5 0 9 -8 9 -17 0 -15 -2 -14 -15 3
-8 10 -14 26 -14 34 1 11 3 10 6 -2 2 -10 9 -18 14 -18z m406 -32 c-4 -28 -12
-56 -18 -62 -8 -8 -9 0 -5 29 3 22 5 50 6 63 0 12 5 22 11 22 8 0 10 -16 6
-52z m-383 -24 c5 -14 4 -15 -9 -4 -17 14 -19 20 -6 20 5 0 12 -7 15 -16z
m-1103 -45 c9 -4 33 -6 53 -2 22 3 42 1 51 -7 8 -7 24 -10 34 -7 14 3 18 1 14
-9 -6 -17 -25 -18 -41 -2 -10 10 -15 5 -24 -20 -19 -49 -55 -61 -178 -55 -154
6 -150 4 -150 62 0 27 4 51 10 53 19 6 215 -4 231 -13z m2039 -37 c0 -13 2
-13 13 3 13 17 15 17 35 -3 12 -12 29 -22 37 -22 8 0 15 -4 15 -10 0 -5 8 -10
18 -10 10 0 22 -3 26 -7 12 -13 40 -17 128 -17 48 -1 83 -5 79 -9 -4 -4 -43
-14 -87 -21 -130 -23 -244 -50 -244 -58 0 -12 27 -10 100 8 92 21 179 23 194
2 10 -14 15 -12 46 13 19 16 42 29 52 29 10 0 18 5 18 10 0 6 5 10 10 10 23 0
7 -31 -22 -44 -18 -7 -49 -30 -68 -51 -49 -52 -98 -81 -150 -88 -25 -4 -55
-10 -67 -13 -19 -5 -35 6 -88 60 -36 37 -65 75 -65 86 0 11 -4 20 -8 20 -9 0
-42 97 -42 124 0 9 5 14 10 11 6 -3 10 -15 10 -26 0 -10 5 -19 10 -19 6 0 10
14 10 31 0 27 2 30 15 19 8 -7 15 -20 15 -28z m-560 -2 c0 -5 -4 -10 -10 -10
-5 0 -10 5 -10 10 0 6 5 10 10 10 6 0 10 -4 10 -10z m1474 -73 c4 -15 1 -14
-18 5 -12 13 -21 26 -19 30 2 4 -1 9 -7 13 -5 3 -10 12 -10 18 0 16 47 -43 54
-66z m1283 7 c-3 -3 -12 -4 -19 -1 -8 3 -5 6 6 6 11 1 17 -2 13 -5z m-2577
-36 c0 -5 -4 -8 -10 -8 -5 0 -10 10 -10 23 0 18 2 19 10 7 5 -8 10 -18 10 -22z
m240 -20 c0 -5 5 -6 10 -3 6 3 10 1 10 -5 0 -6 4 -9 8 -6 4 3 36 -26 71 -64
34 -38 67 -68 73 -67 6 1 16 -18 22 -42 11 -42 20 -53 59 -65 18 -6 24 -50 9
-60 -5 -3 -26 -6 -48 -8 -21 -1 -42 -7 -46 -12 -4 -6 -8 3 -9 19 -1 17 -3 22
-6 13 -3 -13 -14 -18 -38 -18 -39 0 -50 14 -58 78 -3 26 -14 52 -27 64 -11 11
-23 33 -27 49 -3 16 -9 27 -13 24 -14 -8 -32 42 -24 66 4 13 7 32 5 41 -1 13
2 16 13 12 9 -3 16 -10 16 -16z m-37 -15 c-7 -2 -19 -2 -25 0 -7 3 -2 5 12 5
14 0 19 -2 13 -5z m-163 -23 c0 -5 -4 -10 -10 -10 -5 0 -10 5 -10 10 0 6 5 10
10 10 6 0 10 -4 10 -10z m493 -240 c-3 -11 -7 -20 -9 -20 -2 0 -4 9 -4 20 0
11 4 20 9 20 5 0 7 -9 4 -20z m737 -85 c9 -11 16 -12 26 -4 10 8 26 4 65 -18
66 -36 82 -58 54 -80 -20 -15 -20 -15 3 -8 13 4 22 2 22 -4 0 -6 -4 -11 -10
-11 -5 0 -10 -7 -10 -15 0 -32 -45 -11 -112 53 -31 29 -36 31 -31 13 3 -11 9
-21 14 -21 5 0 9 -10 9 -23 0 -20 -9 -26 -61 -41 -33 -11 -78 -19 -100 -19
-21 0 -39 -1 -39 -3 0 -14 15 -34 26 -34 8 0 18 -8 21 -17 4 -10 11 -21 17
-25 6 -4 7 -10 3 -14 -4 -4 -13 -2 -19 4 -7 7 -20 12 -29 12 -17 0 -39 16
-102 73 -16 15 -33 25 -36 21 -3 -3 2 -11 12 -19 10 -7 15 -19 11 -28 -6 -15
0 -26 39 -68 9 -10 14 -19 10 -19 -5 0 -1 -5 7 -11 11 -8 8 -9 -15 -4 -16 4
-32 10 -35 14 -3 5 -16 14 -29 21 -14 7 -30 17 -35 22 -6 5 -26 20 -45 33 -19
14 -31 25 -25 25 5 0 -4 7 -20 15 -15 8 -39 15 -52 15 -13 0 -24 4 -24 9 0 6
-24 11 -52 13 l-53 3 63 12 c35 7 78 21 96 33 40 24 46 25 46 5 0 -8 5 -15 10
-15 6 0 10 5 10 10 0 6 11 10 24 10 18 0 26 7 31 27 4 16 9 22 13 16 8 -13 92
-6 92 8 0 4 8 7 18 7 9 0 45 6 80 15 61 15 63 15 82 -6 22 -23 26 -17 10 14
-13 23 2 26 20 4z m218 -62 c44 -36 57 -62 21 -43 -21 12 -44 30 -103 83 l-31
28 35 -17 c19 -9 54 -32 78 -51z m97 2 c33 -14 75 -28 93 -31 38 -7 47 -17 28
-33 -10 -8 -38 1 -117 38 -107 51 -110 70 -4 26z m-3455 -59 c0 -2 -3 -11 -6
-20 -9 -23 -24 -20 -24 4 0 11 7 20 15 20 8 0 15 -2 15 -4z m95 -6 c19 -1 19
-1 2 -14 -16 -13 -16 -14 5 -19 17 -5 20 -9 11 -18 -14 -14 -72 -2 -80 17 -3
8 -13 14 -22 14 -13 1 -13 3 4 16 11 8 29 13 40 10 11 -3 29 -6 40 -6z m290
-15 c124 -8 219 -16 255 -22 l35 -6 -30 -6 c-16 -4 -50 -4 -75 0 -25 4 -58 5
-73 2 l-28 -6 21 -19 c11 -10 20 -26 20 -36 -1 -13 -6 -10 -21 11 -11 15 -25
25 -29 22 -5 -3 -16 5 -24 17 l-16 22 -37 -19 c-21 -11 -41 -21 -45 -23 -3 -2
-15 7 -27 19 -12 14 -26 19 -37 15 -10 -4 -22 0 -30 11 -7 10 -14 13 -14 6 0
-9 -9 -8 -34 2 -19 8 -43 12 -52 8 -12 -4 -15 -3 -10 5 7 12 16 12 251 -3z
m370 -35 c4 -6 -8 -10 -29 -10 -19 0 -38 5 -41 10 -4 6 8 10 29 10 19 0 38 -4
41 -10z m138 0 c19 0 27 -4 21 -9 -5 -5 -40 -7 -79 -4 -49 4 -64 8 -50 14 11
5 33 6 49 4 16 -3 42 -5 59 -5z m1567 -9 c19 -3 35 -11 35 -16 0 -6 7 -8 15
-6 8 2 44 4 79 5 52 0 66 -3 80 -20 9 -11 24 -23 34 -27 38 -15 10 -30 -58
-31 -94 -2 -106 -11 -63 -47 18 -15 39 -28 46 -29 6 0 12 -5 12 -10 0 -6 11
-15 25 -20 38 -14 32 -33 -7 -25 -18 4 -35 11 -38 15 -3 4 -15 10 -27 14 -13
4 -29 13 -35 20 -7 6 -30 22 -50 35 -21 12 -37 25 -36 29 3 8 -28 57 -52 84
-45 51 -46 52 -19 44 13 -4 40 -11 59 -15z m635 -11 c3 -5 2 -10 -4 -10 -5 0
-13 5 -16 10 -3 6 -2 10 4 10 5 0 13 -4 16 -10z m-2478 -29 c16 -26 -7 -46
-42 -37 -39 10 -30 29 11 24 29 -3 33 -2 20 7 -17 13 -21 25 -8 25 4 0 13 -9
19 -19z m428 -21 c-5 -8 -11 -8 -21 1 -12 10 -12 14 -2 20 16 10 33 -5 23 -21z
m-347 -10 c-3 -28 -35 -40 -44 -16 -9 24 1 42 25 42 18 0 21 -5 19 -26z m261
20 c10 -5 21 -15 24 -22 3 -10 -11 -12 -59 -10 -60 4 -78 15 -57 35 10 10 72
8 92 -3z m3189 -16 c20 -4 22 -7 11 -20 -11 -13 -10 -18 6 -27 19 -11 18 -12
-10 -18 -16 -4 -75 -8 -130 -9 -55 -1 -127 -6 -160 -11 -60 -10 -207 -13 -300
-7 -48 3 -50 4 -48 31 2 25 -1 27 -35 27 -28 0 -33 -3 -22 -10 13 -8 13 -10
-2 -10 -9 0 -20 5 -23 10 -3 6 -23 10 -43 10 -33 1 -35 2 -17 12 50 30 131 36
440 31 171 -2 321 -6 333 -9z m-2938 -24 c-18 -11 -24 -6 -16 16 5 14 9 15 19
5 9 -9 9 -14 -3 -21z m-403 14 c-3 -3 -12 -4 -19 -1 -8 3 -5 6 6 6 11 1 17 -2
13 -5z m2597 -82 c2 -4 1 -14 -4 -22 -7 -11 -11 -11 -24 -1 -9 8 -16 17 -16
22 0 11 37 12 44 1z m-1314 -497 c14 -16 10 -18 -14 -9 -9 3 -16 10 -16 15 0
14 16 11 30 -6z m-1912 -81 c97 -1 260 -9 362 -18 381 -32 341 -26 328 -50 -7
-13 -13 -16 -16 -8 -8 24 -24 12 -18 -14 4 -15 4 -40 0 -56 l-6 -30 -127 6
c-222 11 -370 31 -386 52 -8 11 -15 25 -15 31 0 13 -61 43 -87 43 -29 0 -6
-25 33 -36 21 -6 40 -18 42 -26 3 -13 -9 -16 -70 -17 -40 0 -112 2 -160 5
l-88 6 0 70 c0 62 2 69 15 58 11 -9 67 -14 193 -16z m832 -7 c14 -17 30 -43
37 -57 6 -14 19 -43 29 -65 36 -78 22 -257 -28 -357 -10 -21 -16 -38 -12 -38
3 0 -1 -11 -10 -25 -9 -13 -16 -33 -16 -43 0 -10 -3 -22 -7 -26 -4 -4 -8 -15
-8 -24 0 -9 -7 -17 -15 -17 -10 0 -14 9 -13 28 1 18 -3 27 -13 27 -8 0 -13 -4
-10 -9 7 -11 -3 -41 -14 -41 -4 0 -10 9 -13 20 -3 11 -12 20 -21 20 -9 0 -16
5 -16 12 0 6 -3 8 -6 5 -4 -4 1 -18 10 -32 9 -14 12 -25 6 -25 -5 0 -10 4 -10
9 0 9 -33 24 -55 26 -17 0 -36 88 -32 145 3 32 23 103 50 170 25 63 52 135 60
160 8 25 18 53 22 63 5 12 2 17 -9 17 -9 0 -16 5 -16 10 0 6 11 10 24 10 19 0
27 8 36 35 6 19 15 35 18 35 4 0 18 -15 32 -33z m1692 -131 c29 -18 43 -33 36
-37 -6 -4 -28 6 -49 23 -21 17 -42 27 -48 24 -5 -4 -17 4 -25 16 -9 12 -16 18
-16 13 0 -5 -12 3 -27 17 -16 14 -37 28 -47 30 -11 1 -21 9 -24 17 -5 14 116
-48 200 -103z m-1303 -9 c31 -25 73 -69 93 -98 20 -30 55 -72 76 -94 57 -60
117 -138 132 -175 10 -25 11 -39 2 -64 -7 -18 -12 -42 -12 -55 0 -12 -6 -24
-12 -27 -8 -2 -14 -26 -15 -55 -2 -32 -11 -62 -24 -80 -14 -21 -17 -29 -7 -30
10 0 10 -2 1 -6 -7 -2 -13 -10 -13 -17 0 -6 -8 -19 -19 -27 -21 -18 -81 -30
-81 -16 0 12 -181 -1 -195 -15 -3 -3 -24 0 -46 6 l-41 11 8 85 c6 71 10 250
13 571 0 31 8 75 17 98 14 36 20 40 42 36 13 -2 50 -24 81 -48z m1226 -15 c-3
-3 -11 0 -18 7 -9 10 -8 11 6 5 10 -3 15 -9 12 -12z m-521 -7 c3 -8 1 -15 -4
-15 -6 0 -10 7 -10 15 0 8 2 15 4 15 2 0 6 -7 10 -15z m446 -5 c8 -5 11 -10 5
-10 -5 0 -17 5 -25 10 -8 5 -10 10 -5 10 6 0 17 -5 25 -10z m245 -10 c4 -6 -5
-10 -20 -10 -15 0 -24 4 -20 10 3 6 12 10 20 10 8 0 17 -4 20 -10z m-685 -20
c0 -5 -2 -10 -4 -10 -3 0 -8 5 -11 10 -3 6 -1 10 4 10 6 0 11 -4 11 -10z m787
-27 c24 -8 45 -19 48 -24 9 -13 -80 16 -106 36 -20 14 -20 16 -4 10 11 -4 39
-14 62 -22z m261 -28 c45 -7 86 -16 90 -20 4 -4 -8 -5 -26 -2 -21 4 -31 3 -27
-3 3 -6 2 -10 -4 -10 -5 0 -11 4 -13 10 -1 5 -27 14 -56 20 -29 5 -61 15 -70
21 -15 9 -14 10 3 4 11 -4 57 -13 103 -20z m-1013 -35 c3 -5 2 -10 -4 -10 -5
0 -13 5 -16 10 -3 6 -2 10 4 10 5 0 13 -4 16 -10z m1218 -37 c-7 -2 -21 -2
-30 0 -10 3 -4 5 12 5 17 0 24 -2 18 -5z m54 -19 c-3 -3 -12 -4 -19 -1 -8 3
-5 6 6 6 11 1 17 -2 13 -5z m83 -54 c0 -5 -2 -10 -4 -10 -3 0 -8 5 -11 10 -3
6 -1 10 4 10 6 0 11 -4 11 -10z m-2375 -90 c-3 -5 -1 -10 4 -10 6 0 11 5 11
10 0 6 18 10 39 10 36 0 39 -2 36 -25 -1 -14 1 -25 6 -25 22 0 -6 -29 -41 -43
-32 -12 -40 -12 -44 -2 -3 8 0 16 7 18 7 2 0 3 -15 1 -19 -2 -28 2 -30 14 -4
20 13 62 25 62 5 0 5 -4 2 -10z m1065 -125 c74 -31 159 -66 188 -77 28 -12 52
-25 52 -30 0 -5 4 -7 9 -3 13 8 144 -41 157 -59 6 -9 14 -13 17 -9 4 3 13 0
22 -7 13 -11 14 -10 9 4 -3 9 -10 16 -15 16 -15 0 -10 30 5 36 17 6 56 -12 72
-34 6 -9 27 -15 47 -15 30 0 33 -2 21 -14 -11 -12 -12 -18 -2 -36 13 -22 13
-22 16 6 2 15 9 27 18 27 17 0 19 -17 2 -22 -8 -3 -4 -10 11 -17 19 -11 22
-11 16 1 -4 7 3 2 14 -12 11 -14 21 -20 21 -13 0 6 9 9 20 6 14 -4 20 0 20 11
0 9 7 16 15 16 14 0 20 -12 16 -33 -1 -5 3 -6 8 -2 6 3 19 -3 31 -15 21 -21
27 -50 10 -50 -5 0 -10 -5 -10 -10 0 -6 8 -5 20 2 11 7 18 19 15 26 -3 7 7 24
22 38 16 15 29 21 31 14 3 -7 8 -8 16 -1 8 7 12 3 14 -16 2 -29 20 -46 37 -35
5 3 16 7 23 8 8 2 19 10 26 20 9 12 15 14 20 6 4 -7 12 -12 17 -12 6 0 3 8 -7
17 -18 19 -3 32 19 15 7 -5 20 -12 31 -16 14 -5 17 -3 12 10 -4 9 12 -2 35
-25 l41 -41 -16 -34 c-18 -39 -20 -50 -6 -41 6 3 10 2 10 -3 0 -5 -8 -12 -18
-14 -16 -5 -20 -20 -25 -106 -9 -126 5 -265 40 -398 24 -93 25 -107 13 -143
-14 -43 -29 -51 -50 -26 -7 8 -9 15 -5 15 5 0 -2 8 -13 19 -12 10 -19 21 -15
25 3 3 1 6 -5 6 -7 0 -11 11 -10 25 3 27 13 33 21 13 3 -8 6 -7 6 4 1 9 -4 20
-9 23 -6 4 -8 10 -5 15 3 5 0 12 -6 15 -6 4 -14 17 -19 29 -7 17 -9 17 -9 4
-1 -10 -6 -18 -12 -18 -5 0 -7 5 -4 10 3 6 2 10 -4 10 -5 0 -12 -6 -14 -12 -4
-10 -6 -10 -6 -1 -1 6 4 15 9 18 6 3 10 11 10 16 0 6 -4 7 -10 4 -6 -4 -7 1
-3 11 4 12 3 15 -5 10 -7 -4 -12 -1 -12 9 0 10 5 13 13 9 7 -5 7 -1 -2 10 -13
15 -13 19 0 28 11 7 9 9 -9 5 -19 -4 -22 -2 -17 14 5 14 3 17 -9 13 -9 -3 -16
-1 -16 5 0 6 7 11 17 11 9 0 13 3 10 7 -4 3 -2 12 4 19 8 9 5 11 -10 7 -13 -3
-21 -1 -21 6 0 7 5 9 10 6 6 -3 10 0 10 9 0 8 3 23 6 33 5 15 4 15 -5 3 -6 -8
-11 -11 -11 -6 0 5 -8 2 -17 -5 -15 -11 -16 -11 -5 1 6 8 12 21 12 29 0 10 -7
5 -18 -11 -9 -16 -20 -28 -24 -28 -13 0 -9 12 9 32 17 19 16 19 -10 13 -22 -6
-26 -4 -21 9 3 9 10 13 15 10 5 -3 9 -1 9 5 0 14 -22 19 -53 10 -25 -7 -27 -6
-22 11 3 11 -1 30 -11 45 -18 27 -37 34 -27 10 5 -13 2 -14 -21 -4 -29 14 -35
30 -8 23 9 -3 25 1 35 8 16 12 14 13 -22 11 -26 -1 -41 3 -45 12 -3 10 4 13
30 10 35 -3 35 -3 14 15 -12 10 -28 16 -36 13 -8 -3 -14 0 -14 7 0 6 -4 9 -9
6 -5 -4 -12 0 -15 6 -4 7 -4 3 -2 -9 2 -13 0 -23 -5 -23 -5 0 -9 6 -9 13 0 9
-3 8 -9 -2 -5 -7 -14 -10 -21 -6 -8 5 -9 10 -2 14 6 4 14 21 17 40 5 30 4 32
-17 26 -22 -6 -22 -5 -4 9 10 8 24 17 30 19 8 3 -28 47 -39 47 -7 0 -43 -38
-48 -50 -4 -12 -6 -11 -6 3 -1 15 -3 16 -14 5 -8 -7 -16 -20 -20 -28 -4 -12
-6 -11 -6 3 -1 20 36 60 49 52 14 -8 24 15 11 28 -8 8 -11 8 -11 0 0 -6 -9
-13 -19 -16 -14 -3 -18 -1 -14 9 3 8 10 11 16 7 6 -4 7 -1 2 7 -6 10 -14 6
-31 -16 -20 -25 -23 -26 -17 -6 3 12 9 25 14 28 5 3 9 13 8 22 0 12 -3 10 -10
-6 -5 -13 -13 -20 -19 -17 -9 6 -14 -8 -11 -28 1 -5 -4 -5 -10 -2 -6 4 -9 16
-6 26 4 13 0 19 -11 20 -14 0 -13 2 3 9 14 6 15 9 4 9 -28 2 -41 -21 -23 -40
15 -16 14 -17 -5 -12 -15 4 -21 1 -21 -10 0 -9 10 -18 23 -20 12 -2 7 -3 -10
-1 -36 3 -45 -15 -12 -23 15 -4 17 -8 8 -14 -8 -5 -17 -3 -21 4 -6 9 -10 8
-17 -3 -6 -8 -13 -11 -18 -7 -4 5 -1 12 7 18 13 8 13 10 1 18 -11 7 -9 10 7
15 13 4 19 13 15 22 -3 7 0 14 7 14 10 0 10 3 1 14 -10 11 -8 17 6 25 17 11
17 11 -2 9 -24 -4 -39 -16 -48 -42 -6 -14 -4 -17 8 -12 9 3 13 2 10 -4 -3 -6
-15 -10 -26 -10 -11 0 -18 -4 -14 -9 3 -5 -5 -13 -17 -17 -36 -12 -48 -13 -48
-3 0 5 -7 9 -16 9 -9 0 -28 7 -42 15 -93 50 -273 128 -347 148 -48 14 -93 33
-101 43 -15 18 -15 18 -10 -1 6 -19 5 -18 -13 2 -10 12 -21 19 -25 16 -3 -3
-11 8 -17 25 -6 18 -15 29 -20 26 -6 -3 -8 6 -5 22 3 17 0 31 -7 36 -9 6 -9 8
0 8 6 0 15 -5 19 -11 4 -7 17 1 35 21 26 28 34 31 67 27 20 -3 98 -31 172 -62z
m-2075 -200 c55 -3 114 -8 130 -10 39 -5 144 -14 225 -20 36 -3 88 -7 115 -10
162 -18 233 -25 253 -25 22 0 22 -1 7 -17 -14 -14 -18 -14 -26 -2 -5 8 -9 11
-9 7 0 -4 -14 -2 -31 4 -22 8 -34 7 -42 -1 -8 -8 -6 -11 7 -11 9 0 14 -4 11
-10 -11 -17 -35 -11 -35 9 0 24 -45 33 -141 30 -38 -1 -72 1 -76 4 -3 4 -28 7
-54 7 -34 0 -51 -5 -57 -16 -6 -11 -11 -13 -16 -5 -4 6 -2 11 5 11 8 0 9 3 4
9 -6 4 -71 13 -145 20 -74 6 -165 14 -202 17 -39 3 -65 10 -62 15 3 6 13 8 22
5 10 -3 62 -8 117 -11z m2765 -25 c0 -5 -4 -10 -9 -10 -6 0 -13 5 -16 10 -3 6
1 10 9 10 9 0 16 -4 16 -10z m167 -5 c0 -8 -6 -15 -13 -15 -8 0 -11 6 -8 15 4
8 9 15 13 15 4 0 8 -7 8 -15z m-47 -10 c12 7 12 3 4 -19 -9 -23 -19 -20 -33
11 -11 23 -10 25 3 14 8 -7 20 -10 26 -6z m180 -25 c-8 -15 -17 -19 -32 -14
-13 4 -18 2 -14 -4 3 -6 1 -14 -5 -18 -9 -5 -10 1 -5 20 4 18 3 25 -4 21 -5
-3 -10 -1 -10 4 0 14 13 14 27 0 9 -9 16 -7 29 5 21 22 29 14 14 -14z m-2523
-44 c-8 -24 -24 -14 -24 15 0 29 1 30 14 13 7 -10 12 -23 10 -28z m-80 2 c-3
-7 -5 -2 -5 12 0 14 2 19 5 13 2 -7 2 -19 0 -25z m839 2 c29 0 34 -4 34 -22 0
-13 -4 -18 -8 -13 -4 6 -14 9 -22 9 -8 -1 -33 -2 -54 -3 -22 0 -37 -4 -34 -7
4 -3 0 -17 -7 -31 -17 -33 -12 -43 26 -43 27 0 43 19 17 21 -10 0 -10 2 0 6 6
2 10 9 6 14 -3 5 0 9 6 9 6 0 8 5 5 10 -3 6 -1 10 6 10 6 0 9 -8 6 -20 -3 -11
-1 -23 4 -26 6 -3 5 -12 -3 -21 -7 -9 -13 -19 -13 -22 1 -7 -18 -3 -54 11 -14
6 -35 11 -45 12 -30 2 -31 25 -2 36 14 5 26 14 26 19 0 10 -41 36 -50 32 -3
-1 -7 5 -8 15 -2 9 0 14 6 10 5 -3 31 -7 58 -8 34 -1 49 3 53 13 3 10 5 11 9
2 2 -7 19 -13 38 -13z m137 -15 c20 -4 37 -11 37 -15 0 -4 -15 -4 -34 0 -19 4
-48 6 -65 4 -30 -3 -44 10 -19 18 14 5 29 4 81 -7z m-315 -10 c-2 -5 -11 -11
-22 -12 -16 -3 -17 -1 -6 12 14 16 34 16 28 0z m3332 7 c0 -5 -62 -12 -137
-16 -76 -4 -154 -9 -173 -11 -19 -2 -152 -6 -295 -9 -182 -4 -251 -3 -230 4
17 6 75 10 130 10 103 0 478 18 505 24 32 8 200 6 200 -2z m-4575 -12 c3 -6
-1 -7 -9 -4 -18 7 -21 14 -7 14 6 0 13 -4 16 -10z m655 -15 c0 -8 -4 -15 -10
-15 -5 0 -7 7 -4 15 4 8 8 15 10 15 2 0 4 -7 4 -15z m2739 -8 c6 -8 8 -17 4
-20 -3 -4 2 -7 12 -7 10 0 28 -11 40 -24 12 -13 32 -29 44 -36 13 -6 20 -18
17 -25 -3 -9 0 -12 9 -9 8 3 21 -6 30 -20 10 -14 21 -23 26 -20 5 3 9 -2 9
-10 0 -9 5 -16 10 -16 6 0 10 -5 10 -11 0 -16 -36 -59 -44 -52 -3 3 -6 1 -6
-5 0 -7 -7 -12 -15 -12 -14 0 -19 14 -18 47 1 7 -3 10 -8 7 -10 -6 -12 26 -3
50 3 9 11 13 17 9 6 -3 7 -1 3 6 -6 9 -11 9 -21 1 -16 -13 -25 -59 -14 -66 15
-9 10 -24 -8 -24 -14 0 -15 2 -5 9 10 6 10 10 -2 20 -16 13 -32 -1 -21 -19 3
-5 1 -10 -4 -10 -6 0 -11 11 -11 24 0 17 -7 25 -24 28 -21 4 -23 3 -13 -13 8
-13 13 -15 19 -6 6 9 8 9 8 0 0 -21 -17 -23 -34 -5 -12 14 -14 26 -7 48 6 22
4 33 -7 44 -14 13 -15 12 -9 -3 6 -16 4 -16 -21 2 -38 27 -38 58 1 52 10 -2 9
17 -3 24 -8 5 -8 28 -1 53 3 8 30 0 40 -11z m-1946 -12 c-3 -9 -8 -14 -10 -11
-3 3 -2 9 2 15 9 16 15 13 8 -4z m1277 -11 c0 -16 -2 -16 -24 -8 -13 5 -14 9
-5 20 13 16 29 9 29 -12z m918 19 c-16 -2 -40 -2 -55 0 -16 2 -3 4 27 4 30 0
43 -2 28 -4z m697 -9 c-8 -9 -22 -13 -30 -10 -26 10 -16 26 16 26 28 0 29 -1
14 -16z m185 -11 c-12 -8 -24 -12 -27 -9 -9 8 30 36 40 29 5 -3 -1 -12 -13
-20z m-468 -5 c15 -12 13 -15 -18 -29 -19 -9 -34 -13 -34 -8 0 5 5 9 11 9 6 0
8 9 4 20 -7 23 12 27 37 8z m70 -3 c0 -5 -5 -11 -11 -13 -6 -2 -11 4 -11 13 0
9 5 15 11 13 6 -2 11 -8 11 -13z m-1278 -4 c3 -4 -1 -17 -8 -27 -13 -17 -14
-17 -13 9 2 27 11 35 21 18z m-35 -24 c0 -8 -2 -8 -6 1 -4 10 -8 9 -19 -5 -12
-16 -13 -16 -14 -1 0 16 19 29 33 21 4 -2 7 -10 6 -16z m-1559 -7 c0 -5 -5
-10 -11 -10 -5 0 -7 5 -4 10 3 6 8 10 11 10 2 0 4 -4 4 -10z m25 -20 c-3 -5
-12 -10 -18 -10 -7 0 -6 4 3 10 19 12 23 12 15 0z m87 -14 c-12 -7 -20 -15
-16 -18 3 -4 21 3 40 14 19 11 38 17 42 13 4 -4 1 -10 -5 -12 -7 -3 -13 -12
-14 -21 0 -9 -3 -12 -5 -6 -4 9 -13 9 -34 1 -37 -14 -47 -55 -20 -78 16 -14
17 -18 5 -23 -8 -3 -15 -13 -15 -23 0 -14 -2 -15 -9 -5 -4 7 -6 24 -3 38 3 19
0 24 -16 24 -12 0 -24 -4 -27 -10 -4 -6 1 -7 12 -3 16 6 16 5 4 -11 -10 -12
-16 -14 -22 -5 -4 7 -15 9 -25 5 -13 -5 -12 -1 6 16 15 14 33 22 44 19 14 -3
18 0 13 11 -3 9 -1 31 5 50 8 26 16 33 36 35 27 1 27 1 4 -11z m-92 -31 c0 -8
-4 -15 -9 -15 -13 0 -22 16 -14 24 11 11 23 6 23 -9z m295 -15 c-3 -5 -11 -10
-16 -10 -6 0 -7 5 -4 10 3 6 11 10 16 10 6 0 7 -4 4 -10z m-275 -10 c0 -5 -5
-10 -11 -10 -5 0 -7 5 -4 10 3 6 8 10 11 10 2 0 4 -4 4 -10z m-30 -20 c0 -11
-4 -20 -9 -20 -6 0 -9 9 -8 20 1 11 5 20 9 20 4 0 8 -9 8 -20z m135 -9 c-8
-13 -45 -15 -45 -2 0 5 10 11 23 13 27 5 31 3 22 -11z m75 1 c0 -13 -50 -33
-62 -26 -6 4 4 13 23 19 19 7 35 13 37 14 1 0 2 -3 2 -7z m1527 -34 c-3 -8 -6
-5 -6 6 -1 11 2 17 5 13 3 -3 4 -12 1 -19z m-1407 -23 c0 -8 -17 -22 -37 -30
-27 -12 -34 -18 -24 -24 10 -7 11 -13 2 -27 -9 -17 -10 -17 -11 -1 0 9 -5 17
-10 17 -6 0 -9 12 -7 28 2 15 9 27 16 27 6 0 16 7 21 15 9 13 10 13 10 0 1
-12 3 -11 11 3 11 19 29 14 29 -8z m-423 -7 c-3 -8 -6 -5 -6 6 -1 11 2 17 5
13 3 -3 4 -12 1 -19z m106 -16 c-9 -3 -13 -11 -10 -23 3 -10 1 -22 -5 -25 -16
-10 -18 0 -6 38 8 28 14 34 23 25 10 -10 10 -13 -2 -15z m125 15 c14 4 14 3 3
-5 -17 -12 -43 -4 -34 11 5 8 8 8 10 0 3 -7 12 -9 21 -6z m-163 -14 c-4 -10
-8 -25 -9 -33 -1 -8 -7 -24 -14 -35 l-11 -20 -1 20 c0 11 -3 30 -6 43 -6 19
-3 23 12 20 11 -2 18 2 17 10 -2 6 2 12 8 12 7 0 8 -7 4 -17z m2256 8 c13 -2
19 -33 9 -49 -8 -15 -9 -14 -10 6 0 13 -4 20 -10 17 -11 -7 -53 19 -45 27 5 4
32 4 56 -1z m-1921 -25 c0 -3 -4 -8 -10 -11 -5 -3 -10 -1 -10 4 0 6 5 11 10
11 6 0 10 -2 10 -4z m-77 -28 c6 -21 -14 -48 -21 -28 -2 5 -10 6 -18 3 -19 -7
-18 6 3 29 21 24 29 23 36 -4z m1584 16 c-3 -3 -12 -4 -19 -1 -8 3 -5 6 6 6
11 1 17 -2 13 -5z m454 -26 c-13 -22 -17 -24 -20 -11 -2 10 2 19 8 21 6 2 9 7
7 11 -3 4 1 8 8 8 10 0 10 -7 -3 -29z m-2191 12 c0 -5 -6 -10 -13 -10 -7 0
-29 -9 -50 -20 -45 -24 -47 -24 -47 -4 0 8 4 13 10 9 5 -3 19 0 32 6 13 7 30
16 38 20 21 11 30 11 30 -1z m55 0 c-3 -5 -12 -10 -18 -10 -7 0 -6 4 3 10 19
12 23 12 15 0z m-8 -54 c-22 -23 -27 -20 -14 8 7 15 16 21 21 16 5 -5 2 -15
-7 -24z m354 -33 c12 -19 19 -37 15 -40 -3 -4 -6 -2 -6 4 0 5 -16 27 -35 49
-19 21 -35 43 -35 48 0 14 38 -24 61 -61z m-280 34 c-1 -12 -15 -9 -19 4 -3 6
1 10 8 8 6 -3 11 -8 11 -12z m-235 -34 c-4 -4 -11 -1 -16 7 -16 25 -11 35 7
17 9 -9 13 -20 9 -24z m-86 7 c0 -5 -7 -10 -15 -10 -8 0 -15 5 -15 10 0 6 7
10 15 10 8 0 15 -4 15 -10z m60 -34 c0 -3 -4 -8 -10 -11 -5 -3 -10 -1 -10 4 0
6 5 11 10 11 6 0 10 -2 10 -4z m33 -13 c-3 -7 -9 -13 -14 -13 -5 0 -9 6 -9 13
0 8 6 14 14 14 8 0 12 -6 9 -14z m-153 -63 c-6 -12 -14 -19 -17 -17 -2 3 1 15
7 27 6 12 14 19 17 17 2 -3 -1 -15 -7 -27z m713 -10 c3 -11 3 -20 1 -20 -2 0
-8 9 -14 20 -6 11 -7 20 -2 20 6 0 12 -9 15 -20z m-563 -44 c0 -3 -4 -8 -10
-11 -5 -3 -10 -1 -10 4 0 6 5 11 10 11 6 0 10 -2 10 -4z m-209 -54 c-12 -17
-21 -35 -21 -41 0 -6 -18 -47 -40 -90 -45 -89 -46 -93 -23 -84 10 4 14 2 10
-4 -4 -6 0 -16 8 -23 8 -7 12 -16 9 -21 -3 -5 0 -9 7 -9 6 0 9 8 6 20 -6 23 8
26 28 6 9 -9 10 -17 3 -24 -5 -5 12 -3 39 6 26 8 51 20 54 25 3 5 9 2 12 -6 8
-20 -1 -27 -35 -27 -15 0 -28 -5 -28 -11 0 -5 -4 -8 -9 -5 -5 4 -21 2 -35 -4
-14 -5 -26 -6 -26 -1 0 12 -68 46 -76 38 -4 -4 -1 -7 8 -7 8 0 22 -8 31 -17
13 -16 13 -20 0 -32 -12 -11 -14 -11 -12 0 3 28 -1 39 -16 39 -8 0 -12 -6 -9
-14 6 -15 -12 -23 -60 -25 -24 -1 -27 1 -16 14 7 9 10 18 7 21 -3 3 -12 -3
-19 -15 -16 -26 -28 -27 -28 -1 0 10 -9 24 -20 30 -24 13 -26 7 -4 -15 19 -18
18 -20 -16 -29 -16 -5 -20 -4 -12 2 7 5 10 16 6 25 -8 22 -24 22 -24 0 0 -15
-2 -14 -16 3 -15 19 -15 19 -9 -2 4 -17 0 -20 -30 -21 -19 -1 -35 3 -35 8 0
14 -34 11 -56 -6 -24 -18 -35 -19 -28 -1 8 21 69 43 170 61 49 9 104 21 121
26 41 13 100 80 143 161 37 71 51 91 58 84 2 -3 -5 -18 -17 -34z m54 8 c-3 -5
-12 -10 -18 -10 -7 0 -6 4 3 10 19 12 23 12 15 0z m2115 -10 c0 -5 -5 -10 -11
-10 -5 0 -7 5 -4 10 3 6 8 10 11 10 2 0 4 -4 4 -10z m30 -12 c0 -7 -4 -19 -9
-27 -11 -17 -23 1 -15 23 7 19 24 21 24 4z m17 -40 c-3 -7 -5 -2 -5 12 0 14 2
19 5 13 2 -7 2 -19 0 -25z m-183 -40 c-5 -8 0 -9 14 -6 12 4 25 2 28 -4 4 -6
10 -5 16 3 8 11 9 11 6 1 -2 -8 -6 -12 -10 -10 -3 2 -15 -6 -27 -16 -19 -17
-21 -17 -21 -3 0 21 -23 22 -40 2 -10 -13 -9 -15 8 -15 12 0 24 -5 27 -10 4
-6 11 -7 17 -4 7 4 8 2 4 -4 -9 -15 -56 -16 -56 -2 0 6 -4 10 -9 10 -5 0 -4
-11 2 -24 7 -13 16 -22 22 -19 7 4 7 3 0 -4 -5 -6 -22 -13 -36 -17 -22 -5 -28
-2 -33 17 -5 18 -8 20 -16 7 -5 -8 -7 -24 -4 -35 l6 -20 -16 20 c-11 14 -15
16 -16 6 0 -8 -3 -11 -7 -8 -7 8 -39 -34 -35 -46 1 -5 -3 -5 -9 -1 -6 3 -15 0
-20 -7 -7 -11 -9 -10 -9 4 0 9 6 17 14 17 8 0 13 8 12 18 0 9 5 16 12 15 6 -2
12 3 12 10 0 17 34 49 43 42 4 -3 5 -2 2 2 -7 9 25 43 42 43 7 0 13 4 13 9 0
5 11 12 25 15 14 4 25 11 25 16 0 6 5 10 11 10 5 0 7 -5 3 -12z m100 -7 c3 -5
-2 -15 -12 -22 -15 -13 -16 -12 -4 3 10 13 10 17 0 21 -9 4 -9 6 -1 6 6 1 14
-3 17 -8z m22 -33 c4 -6 3 -8 -4 -4 -6 3 -13 2 -17 -4 -3 -5 -1 -10 5 -10 7 0
10 -5 8 -11 -4 -13 -24 -11 -20 2 1 5 -3 9 -10 9 -6 0 -3 7 8 15 23 18 21 17
30 3z m-1902 -43 c-4 -8 -15 -15 -25 -15 -10 0 -19 -4 -19 -10 0 -5 -9 -10
-19 -10 -11 0 -22 -6 -25 -12 -5 -10 -7 -10 -12 0 -3 6 -10 10 -15 6 -5 -3 -9
0 -9 6 0 6 8 9 18 6 9 -3 37 5 62 18 25 13 46 24 47 25 1 1 0 -6 -3 -14z
m-184 -5 c0 -5 -4 -10 -10 -10 -5 0 -10 5 -10 10 0 6 5 10 10 10 6 0 10 -4 10
-10z m-20 -50 c0 -5 -4 -10 -10 -10 -5 0 -10 5 -10 10 0 6 5 10 10 10 6 0 10
-4 10 -10z m75 -10 c-3 -5 -10 -10 -16 -10 -5 0 -9 5 -9 10 0 6 7 10 16 10 8
0 12 -4 9 -10z m-530 -60 c-3 -5 -10 -10 -16 -10 -5 0 -9 5 -9 10 0 6 7 10 16
10 8 0 12 -4 9 -10z m435 -10 c0 -5 -7 -10 -15 -10 -8 0 -15 5 -15 10 0 6 7
10 15 10 8 0 15 -4 15 -10z m40 6 c0 -3 -4 -8 -10 -11 -5 -3 -10 -1 -10 4 0 6
5 11 10 11 6 0 10 -2 10 -4z m-84 -21 c14 -13 13 -15 -10 -15 -25 0 -33 10
-19 23 9 10 13 9 29 -8z m-219 -1 c-3 -3 -12 -4 -19 -1 -8 3 -5 6 6 6 11 1 17
-2 13 -5z m93 -4 c0 -5 -5 -10 -11 -10 -5 0 -7 5 -4 10 3 6 8 10 11 10 2 0 4
-4 4 -10z m-860 -40 c0 -5 -4 -10 -10 -10 -5 0 -10 5 -10 10 0 6 5 10 10 10 6
0 10 -4 10 -10z m375 -30 c7 -12 -38 -12 -75 0 -20 7 -16 8 22 9 26 1 50 -3
53 -9z m205 -20 c12 -8 11 -10 -7 -10 -12 0 -25 5 -28 10 -8 13 15 13 35 0z
m3970 -65 c0 -8 -6 -15 -12 -15 -7 0 -62 -4 -123 -10 -138 -12 -399 -18 -1125
-26 -519 -6 -576 -6 -588 9 -12 14 9 16 240 17 139 1 260 2 268 2 8 1 57 -2
108 -4 50 -3 92 -2 92 2 0 8 69 6 153 -6 32 -4 47 -2 47 5 0 8 96 11 344 9
189 -2 342 0 340 4 -2 3 40 9 93 13 54 3 107 7 118 9 41 7 45 6 45 -9z m-2587
-25 c26 -11 -266 -2 -358 11 -39 5 9 6 138 3 108 -3 207 -9 220 -14z m537 -15
c142 -5 200 -13 200 -27 0 -7 -25 -8 -77 -3 -43 4 -132 8 -198 9 -203 5 -402
18 -416 28 -13 9 132 7 491 -7z"/>
<path d="M1862 4610 c0 -14 2 -19 5 -12 2 6 2 18 0 25 -3 6 -5 1 -5 -13z"/>
<path d="M1901 4444 c0 -11 3 -14 6 -6 3 7 2 16 -1 19 -3 4 -6 -2 -5 -13z"/>
<path d="M1905 4250 c-3 -5 -1 -10 4 -10 6 0 11 5 11 10 0 6 -2 10 -4 10 -3 0
-8 -4 -11 -10z"/>
<path d="M1656 4453 c10 -40 14 -41 14 -5 0 18 -5 32 -10 32 -6 0 -8 -11 -4
-27z"/>
<path d="M1758 3613 c-26 -6 -22 -23 5 -25 38 -2 58 2 78 15 17 13 15 14 -24
14 -23 0 -50 -2 -59 -4z"/>
<path d="M2021 3585 c-40 -14 -84 -25 -96 -25 -26 0 -162 -53 -179 -70 -7 -7
-6 -14 2 -22 8 -8 27 -7 78 5 65 16 106 34 223 98 89 47 83 50 -28 14z"/>
<path d="M2169 3530 c-8 -5 -27 -11 -42 -14 -15 -2 -31 -7 -36 -10 -5 -4 -12
0 -14 6 -4 8 -6 7 -6 -3 -1 -9 -13 -20 -27 -23 -14 -4 -45 -15 -68 -26 -22
-10 -68 -30 -101 -43 -32 -14 -61 -29 -62 -34 -2 -5 20 -16 49 -25 49 -15 52
-15 72 3 11 11 27 17 35 14 8 -3 26 5 40 18 14 13 60 48 101 77 41 30 77 55
79 57 11 8 -6 10 -20 3z"/>
<path d="M1810 3250 c0 -5 5 -10 11 -10 5 0 7 5 4 10 -3 6 -8 10 -11 10 -2 0
-4 -4 -4 -10z"/>
<path d="M3310 3130 c0 -5 5 -10 11 -10 5 0 7 5 4 10 -3 6 -8 10 -11 10 -2 0
-4 -4 -4 -10z"/>
<path d="M3200 3123 c1 -15 50 -44 68 -41 12 3 4 11 -25 26 -24 12 -43 19 -43
15z"/>
<path d="M3369 3093 c53 -43 191 -74 191 -42 0 15 -54 37 -120 49 -36 6 -74
13 -85 16 -14 4 -9 -3 14 -23z"/>
<path d="M2510 3014 c0 -7 52 -25 57 -20 2 2 -10 8 -26 14 -17 6 -31 9 -31 6z"/>
<path d="M3466 3006 c6 -15 19 -20 51 -19 6 0 9 -5 7 -12 -3 -7 5 -15 16 -18
12 -3 19 -10 15 -16 -10 -17 12 -13 31 6 11 11 13 18 5 21 -6 2 -11 12 -11 22
0 12 -7 18 -22 17 -13 0 -40 3 -61 7 -32 7 -36 6 -31 -8z"/>
<path d="M1865 2963 l-17 -28 23 22 c12 12 20 25 17 28 -3 3 -13 -7 -23 -22z"/>
<path d="M2610 2971 c8 -5 26 -12 40 -15 l25 -7 -25 15 c-14 9 -32 15 -40 15
-13 0 -13 -1 0 -8z"/>
<path d="M1901 2931 c-22 -31 -27 -46 -11 -36 17 10 52 65 41 65 -5 0 -19 -13
-30 -29z"/>
<path d="M2680 2936 c0 -3 9 -10 20 -16 11 -6 20 -8 20 -6 0 3 -9 10 -20 16
-11 6 -20 8 -20 6z"/>
<path d="M1922 2903 c-6 -3 -10 -9 -7 -14 3 -4 -2 -21 -12 -36 -13 -20 -14
-25 -3 -18 49 31 78 70 52 72 -9 0 -23 -2 -30 -4z"/>
<path d="M2780 2880 c19 -11 40 -19 45 -19 6 0 -6 8 -25 19 -19 11 -39 19 -45
19 -5 0 6 -8 25 -19z"/>
<path d="M2850 2877 c0 -3 25 -11 56 -17 42 -9 53 -15 43 -22 -10 -6 -6 -7 11
-2 14 3 27 8 30 11 8 8 -25 23 -51 23 -15 0 -41 3 -58 6 -17 4 -31 4 -31 1z"/>
<path d="M1939 2847 c-26 -24 -34 -57 -16 -69 8 -4 7 -15 -1 -33 -11 -24 -11
-27 4 -21 11 4 14 2 11 -6 -21 -51 -21 -52 -4 -45 19 7 22 -5 7 -33 -7 -14 -6
-17 8 -16 9 0 16 -5 14 -13 -1 -7 9 -24 23 -37 14 -12 25 -28 25 -34 0 -16 18
-12 39 9 16 16 18 25 9 67 -5 27 -11 63 -12 79 -2 17 -11 55 -20 85 -9 30 -16
59 -15 64 1 10 -21 26 -36 26 -5 -1 -22 -11 -36 -23z"/>
<path d="M2951 2811 c-12 -8 -10 -12 12 -22 19 -9 24 -15 15 -20 -7 -5 1 -7
20 -7 38 1 41 14 7 30 -13 6 -22 15 -19 19 7 12 -17 11 -35 0z"/>
<path d="M3124 2812 c5 -8 -4 -12 -26 -13 -30 -1 -29 -2 17 -15 28 -7 55 -12
60 -10 6 2 -2 7 -17 11 -16 4 -26 11 -23 15 3 5 0 12 -6 16 -8 4 -9 3 -5 -4z"/>
<path d="M3283 2813 c15 -2 37 -2 50 0 12 2 0 4 -28 4 -27 0 -38 -2 -22 -4z"/>
<path d="M2860 2786 c0 -2 7 -7 16 -10 8 -3 12 -2 9 4 -6 10 -25 14 -25 6z"/>
<path d="M3300 2758 c0 -4 18 -8 40 -8 22 0 40 4 40 10 0 5 -18 9 -40 8 -22
-1 -40 -5 -40 -10z"/>
<path d="M3130 2730 c8 -5 22 -9 30 -9 10 0 8 3 -5 9 -27 12 -43 12 -25 0z"/>
<path d="M3720 2721 c0 -21 27 -29 68 -21 76 13 75 30 -1 30 -37 0 -67 -4 -67
-9z"/>
<path d="M3188 2713 c7 -3 16 -2 19 1 4 3 -2 6 -13 5 -11 0 -14 -3 -6 -6z"/>
<path d="M3335 2710 l-70 -5 65 -6 c36 -3 74 -2 84 1 33 11 -3 15 -79 10z"/>
<path d="M3640 2699 c0 -5 5 -7 10 -4 6 3 10 8 10 11 0 2 -4 4 -10 4 -5 0 -10
-5 -10 -11z"/>
<path d="M3388 2623 c7 -3 16 -2 19 1 4 3 -2 6 -13 5 -11 0 -14 -3 -6 -6z"/>
<path d="M2565 4090 c-3 -5 -1 -10 4 -10 6 0 11 5 11 10 0 6 -2 10 -4 10 -3 0
-8 -4 -11 -10z"/>
<path d="M2990 3620 c0 -5 7 -10 15 -10 8 0 15 5 15 10 0 6 -7 10 -15 10 -8 0
-15 -4 -15 -10z"/>
<path d="M2588 3523 c12 -2 30 -2 40 0 9 3 -1 5 -23 4 -22 0 -30 -2 -17 -4z"/>
<path d="M198 2843 c7 -3 16 -2 19 1 4 3 -2 6 -13 5 -11 0 -14 -3 -6 -6z"/>
<path d="M295 2830 c3 -5 12 -10 20 -10 8 0 17 5 20 10 4 6 -5 10 -20 10 -15
0 -24 -4 -20 -10z"/>
<path d="M403 2823 c9 -2 23 -2 30 0 6 3 -1 5 -18 5 -16 0 -22 -2 -12 -5z"/>
<path d="M458 2823 c7 -3 16 -2 19 1 4 3 -2 6 -13 5 -11 0 -14 -3 -6 -6z"/>
<path d="M527 2816 c10 -6 32 -11 48 -12 17 -1 30 -3 30 -4 0 -1 35 -3 78 -5
47 -2 77 0 77 6 0 6 -17 10 -37 8 -21 -1 -49 1 -63 4 -14 3 -53 8 -88 10 -47
2 -58 1 -45 -7z"/>
<path d="M812 2780 c0 -14 2 -19 5 -12 2 6 2 18 0 25 -3 6 -5 1 -5 -13z"/>
<path d="M1218 2293 c7 -3 16 -2 19 1 4 3 -2 6 -13 5 -11 0 -14 -3 -6 -6z"/>
<path d="M2750 2042 c0 -4 9 -8 19 -8 11 0 17 4 15 8 -3 4 -12 8 -20 8 -8 0
-14 -4 -14 -8z"/>
<path d="M2870 1960 c-9 -6 -10 -10 -3 -10 6 0 15 5 18 10 8 12 4 12 -15 0z"/>
<path d="M2942 1958 c-17 -17 -15 -35 4 -42 10 -4 14 -14 11 -26 -3 -11 -1
-18 4 -14 14 8 11 31 -7 49 -13 12 -14 19 -4 30 15 18 9 20 -8 3z"/>
<path d="M3104 1928 c-4 -13 -14 -29 -23 -36 -13 -10 -11 -10 11 -1 18 8 24
17 20 27 -3 10 7 6 30 -11 36 -28 48 -33 48 -19 0 4 -13 13 -30 19 -16 6 -30
18 -30 27 0 24 -18 19 -26 -6z"/>
<path d="M3220 1932 c-13 -15 -13 -19 3 -34 23 -24 27 -23 27 7 0 14 6 25 13
25 8 0 7 4 -3 10 -19 12 -22 12 -40 -8z m20 -12 c0 -5 -5 -10 -11 -10 -5 0 -7
5 -4 10 3 6 8 10 11 10 2 0 4 -4 4 -10z"/>
<path d="M2995 1920 c-3 -5 -1 -10 4 -10 6 0 11 5 11 10 0 6 -2 10 -4 10 -3 0
-8 -4 -11 -10z"/>
<path d="M3365 1910 c3 -5 8 -10 11 -10 2 0 4 5 4 10 0 6 -5 10 -11 10 -5 0
-7 -4 -4 -10z"/>
<path d="M2990 1885 c0 -8 4 -15 10 -15 5 0 7 7 4 15 -4 8 -8 15 -10 15 -2 0
-4 -7 -4 -15z"/>
<path d="M3215 1871 c-3 -5 2 -11 10 -15 8 -3 17 -1 20 3 3 5 -2 11 -10 15 -8
3 -17 1 -20 -3z"/>
<path d="M2927 1859 c7 -7 15 -10 18 -7 3 3 -2 9 -12 12 -14 6 -15 5 -6 -5z"/>
<path d="M3078 1863 c-9 -19 -9 -73 1 -73 5 0 8 12 5 26 -3 19 -1 24 8 18 10
-6 11 -5 1 8 -7 8 -10 18 -6 21 3 4 4 7 0 7 -3 0 -7 -3 -9 -7z"/>
<path d="M3180 1859 c0 -5 5 -7 10 -4 6 3 10 8 10 11 0 2 -4 4 -10 4 -5 0 -10
-5 -10 -11z"/>
<path d="M2981 1843 c-13 -14 -12 -18 4 -29 14 -10 21 -11 26 -3 4 8 10 6 16
-5 9 -16 11 -16 23 -1 11 13 10 15 -4 9 -15 -6 -21 4 -17 31 1 6 -5 2 -12 -7
-19 -24 -30 -23 -22 2 8 24 5 25 -14 3z"/>
<path d="M3195 1830 c-3 -6 1 -7 9 -4 18 7 21 14 7 14 -6 0 -13 -4 -16 -10z"/>
<path d="M3113 1815 c0 -8 4 -12 9 -9 4 3 8 9 8 15 0 5 -4 9 -8 9 -5 0 -9 -7
-9 -15z"/>
<path d="M3140 1820 c0 -5 5 -10 10 -10 6 0 10 5 10 10 0 6 -4 10 -10 10 -5 0
-10 -4 -10 -10z"/>
<path d="M3130 1796 c0 -2 7 -7 16 -10 8 -3 12 -2 9 4 -6 10 -25 14 -25 6z"/>
<path d="M3092 1720 c0 -14 2 -19 5 -12 2 6 2 18 0 25 -3 6 -5 1 -5 -13z"/>
<path d="M3060 1709 c0 -5 5 -7 10 -4 6 3 10 8 10 11 0 2 -4 4 -10 4 -5 0 -10
-5 -10 -11z"/>
<path d="M3130 1709 c0 -5 5 -7 10 -4 6 3 10 8 10 11 0 2 -4 4 -10 4 -5 0 -10
-5 -10 -11z"/>
<path d="M3108 1673 c7 -3 16 -2 19 1 4 3 -2 6 -13 5 -11 0 -14 -3 -6 -6z"/>
<path d="M3301 1663 c7 -12 15 -20 18 -17 3 2 -3 12 -13 22 -17 16 -18 16 -5
-5z"/>
<path d="M3222 1555 c-7 -8 -9 -15 -4 -15 5 0 15 7 22 15 16 19 -1 19 -18 0z"/>
<path d="M3260 1370 c0 -5 5 -10 11 -10 5 0 7 5 4 10 -3 6 -8 10 -11 10 -2 0
-4 -4 -4 -10z"/>
<path d="M3291 1354 c0 -11 3 -14 6 -6 3 7 2 16 -1 19 -3 4 -6 -2 -5 -13z"/>
<path d="M3320 1281 c0 -6 5 -13 10 -16 6 -3 10 1 10 9 0 9 -4 16 -10 16 -5 0
-10 -4 -10 -9z"/>
<path d="M3380 1790 c-9 -6 -10 -10 -3 -10 6 0 15 5 18 10 8 12 4 12 -15 0z"/>
<path d="M3430 1780 c0 -5 7 -7 15 -4 8 4 15 8 15 10 0 2 -7 4 -15 4 -8 0 -15
-4 -15 -10z"/>
<path d="M3453 1733 c-7 -2 -13 -12 -13 -21 0 -12 3 -13 12 -4 7 7 21 12 33
12 16 0 17 2 5 10 -16 11 -19 11 -37 3z"/>
<path d="M3500 1610 c0 -5 5 -10 10 -10 6 0 10 5 10 10 0 6 -4 10 -10 10 -5 0
-10 -4 -10 -10z"/>
<path d="M2000 7190 c266 -13 670 -20 615 -10 -27 5 -212 11 -410 14 -247 3
-311 2 -205 -4z"/>
<path d="M2670 7170 c0 -5 26 -11 58 -12 133 -5 185 -8 342 -17 91 -5 188 -12
215 -15 28 -3 111 -8 185 -11 192 -8 421 -23 446 -30 12 -4 25 -1 32 8 20 23
-10 40 -60 34 -42 -5 -321 8 -875 38 -321 18 -343 18 -343 5z"/>
<path d="M2178 7053 c18 -2 45 -2 60 0 15 2 0 4 -33 4 -33 0 -45 -2 -27 -4z"/>
<path d="M2280 7051 c19 -12 450 -32 468 -22 13 8 -69 14 -353 26 -87 4 -125
3 -115 -4z"/>
<path d="M2900 7020 c225 -17 286 -19 255 -10 -16 5 -106 12 -200 14 -154 4
-159 4 -55 -4z"/>
<path d="M3316 7001 c-3 -4 102 -13 232 -20 130 -7 269 -17 307 -21 71 -9 90
-5 77 17 -6 9 -82 14 -282 18 -151 3 -287 8 -302 10 -15 2 -29 1 -32 -4z"/>
<path d="M3595 6852 c3 -3 29 -7 58 -8 28 -2 98 -6 154 -9 120 -8 118 -8 118
5 0 6 -65 11 -168 14 -92 2 -165 1 -162 -2z"/>
<path d="M3888 6703 c7 -3 16 -2 19 1 4 3 -2 6 -13 5 -11 0 -14 -3 -6 -6z"/>
<path d="M2126 6232 c-2 -4 11 -6 30 -4 19 2 34 6 34 8 0 8 -59 4 -64 -4z"/>
<path d="M1325 6010 c-3 -5 -1 -10 4 -10 6 0 11 5 11 10 0 6 -2 10 -4 10 -3 0
-8 -4 -11 -10z"/>
<path d="M2490 5571 c0 -5 5 -13 10 -16 6 -3 10 -2 10 4 0 5 -4 13 -10 16 -5
3 -10 2 -10 -4z"/>
<path d="M2362 5245 c0 -16 2 -22 5 -12 2 9 2 23 0 30 -3 6 -5 -1 -5 -18z"/>
<path d="M1140 5189 c0 -5 5 -7 10 -4 6 3 10 8 10 11 0 2 -4 4 -10 4 -5 0 -10
-5 -10 -11z"/>
<path d="M2658 5033 c6 -2 18 -2 25 0 6 3 1 5 -13 5 -14 0 -19 -2 -12 -5z"/>
<path d="M2806 5018 c19 -32 57 -78 65 -78 19 0 8 41 -18 65 -29 26 -60 35
-47 13z"/>
<path d="M1130 4928 c-12 -22 -12 -22 6 -6 10 10 15 20 12 24 -4 3 -12 -5 -18
-18z"/>
<path d="M578 4873 c7 -3 16 -2 19 1 4 3 -2 6 -13 5 -11 0 -14 -3 -6 -6z"/>
<path d="M1127 4823 c-4 -3 -7 -11 -7 -17 0 -6 5 -5 12 2 6 6 9 14 7 17 -3 3
-9 2 -12 -2z"/>
<path d="M1070 4775 c0 -14 29 -35 35 -26 3 6 -4 15 -15 21 -11 6 -20 8 -20 5z"/>
<path d="M3036 4465 c4 -8 11 -15 16 -15 6 0 5 6 -2 15 -7 8 -14 15 -16 15 -2
0 -1 -7 2 -15z"/>
<path d="M3200 4291 c0 -6 4 -13 10 -16 6 -3 7 1 4 9 -7 18 -14 21 -14 7z"/>
<path d="M3286 4067 c3 -10 9 -15 12 -12 3 3 0 11 -7 18 -10 9 -11 8 -5 -6z"/>
</g>
</svg>
