<?xml version="1.0" standalone="no"?>
<!DOCTYPE svg PUBLIC "-//W3C//DTD SVG 20010904//EN"
 "http://www.w3.org/TR/2001/REC-SVG-20010904/DTD/svg10.dtd">
<svg version="1.0" xmlns="http://www.w3.org/2000/svg"
 width="444.000000pt" height="720.000000pt" viewBox="0 0 444.000000 720.000000"
 preserveAspectRatio="xMidYMid meet">

<g transform="translate(0.000000,720.000000) scale(0.100000,-0.100000)"
fill="#000000" stroke="none">
<path d="M0 6530 l0 -659 26 -26 c22 -22 27 -23 40 -11 8 8 14 22 14 30 0 9 8
16 20 16 13 0 20 7 20 20 0 13 7 20 20 20 12 0 20 7 20 16 0 37 24 44 162 43
97 0 128 -3 115 -11 -11 -5 -32 -8 -48 -6 -20 3 -29 0 -29 -9 0 -13 146 -18
403 -13 48 1 77 -3 77 -9 0 -6 18 -11 39 -11 22 0 43 -4 46 -10 3 -5 33 -10
66 -10 32 0 59 -4 59 -9 0 -5 20 -12 45 -15 25 -4 51 -14 59 -22 9 -9 35 -14
70 -14 45 0 56 -3 61 -19 4 -14 18 -21 48 -24 65 -8 108 -21 105 -32 -3 -11
69 -23 150 -24 28 -1 52 -5 52 -11 0 -5 9 -10 20 -10 11 0 20 -4 20 -10 0 -5
14 -10 30 -10 17 0 30 -4 30 -10 0 -5 -4 -10 -10 -10 -5 0 -10 -4 -10 -10 0
-6 27 -10 60 -10 33 0 60 -4 60 -10 0 -5 18 -10 40 -10 33 0 40 -3 40 -19 0
-11 6 -22 13 -24 9 -4 9 -6 -1 -6 -7 -1 -10 -5 -7 -11 4 -6 -33 -10 -102 -11
-71 -1 -98 -4 -78 -9 18 -4 -30 -7 -115 -7 -104 0 -125 2 -75 6 70 6 70 6 28
14 -24 5 -43 13 -43 18 0 5 -22 9 -50 9 -43 0 -50 -3 -50 -20 0 -11 -6 -20
-12 -21 -7 -1 -2 -4 12 -8 19 -6 11 -9 -40 -15 -74 -9 -172 -30 -192 -42 -10
-6 -10 -4 1 9 7 9 21 17 30 17 9 0 22 5 28 11 6 6 29 12 52 14 62 4 62 15 0
15 -79 0 -129 -10 -129 -26 0 -8 -7 -14 -15 -14 -9 0 -15 -6 -14 -12 4 -32 -1
-38 -28 -32 -20 4 -24 3 -14 -4 11 -8 10 -12 -7 -21 -11 -6 -30 -11 -41 -11
-22 0 -110 -50 -111 -63 0 -4 20 6 44 23 25 16 48 30 53 30 4 0 -16 -16 -44
-35 -29 -19 -57 -35 -63 -35 -5 0 -9 -3 -8 -7 2 -5 -5 -17 -14 -28 -10 -11
-25 -29 -34 -40 -8 -11 -13 -14 -9 -8 4 9 1 11 -10 6 -11 -4 -13 -8 -5 -13 7
-5 5 -18 -8 -46 -11 -21 -25 -50 -30 -64 -10 -23 -10 -22 -5 8 3 20 1 32 -6
32 -6 0 -11 -6 -12 -12 0 -7 -2 -29 -4 -50 -3 -25 1 -38 10 -42 8 -3 12 -12 9
-20 -10 -25 32 -245 52 -278 4 -6 7 -27 8 -47 1 -26 5 -35 16 -34 8 2 21 -6
28 -17 10 -16 9 -18 -5 -13 -11 4 -26 -5 -48 -32 -27 -31 -37 -37 -58 -31 -14
3 -35 22 -47 41 -18 29 -28 35 -55 35 -52 0 -81 15 -95 52 -21 54 -48 77 -99
84 -61 9 -61 9 -48 49 16 53 -1 79 -69 105 -32 11 -74 34 -95 51 -72 57 -209
102 -209 68 0 -7 -10 -9 -24 -5 -14 3 -36 2 -50 -4 l-26 -10 0 -365 c0 -320 2
-369 16 -390 15 -23 15 -27 0 -50 -15 -22 -16 -210 -16 -2152 l0 -2128 1742 2
c959 0 1958 1 2221 2 l477 1 0 2323 0 2323 -47 12 c-27 7 -68 19 -93 26 -33 9
-87 10 -200 5 -85 -5 -213 -6 -285 -4 -71 3 -226 7 -343 10 -116 3 -219 8
-227 11 -8 4 -15 1 -15 -5 0 -6 -4 -11 -10 -11 -5 0 -7 13 -3 32 4 22 3 29 -5
24 -7 -4 -12 -14 -12 -22 0 -8 -5 -12 -11 -9 -6 4 -8 14 -5 22 3 8 2 11 -4 8
-12 -8 -31 30 -24 49 8 21 -5 39 -19 27 -8 -6 -18 -1 -31 17 -17 23 -18 25 -2
19 11 -4 15 -3 11 4 -4 6 -13 8 -20 5 -16 -6 -39 19 -30 33 3 6 0 9 -7 6 -7
-3 -22 7 -32 22 -10 16 -52 57 -92 91 -40 35 -72 68 -71 74 1 6 -6 12 -16 13
-10 2 -42 22 -72 44 -39 30 -53 46 -49 59 5 13 4 14 -4 3 -8 -11 -20 -8 -66
18 -31 18 -56 37 -56 42 0 5 -6 9 -12 9 -34 0 -99 49 -148 112 -30 38 -57 77
-59 86 -2 9 -8 20 -15 24 -8 6 -7 8 2 8 6 0 12 5 12 10 0 6 -4 10 -9 10 -15 0
-69 58 -62 66 3 4 -15 4 -41 2 -46 -5 -48 -5 -42 18 4 15 2 24 -6 24 -7 0 -10
-6 -7 -14 3 -8 -1 -17 -9 -20 -25 -10 -74 -7 -74 4 0 5 -15 7 -33 5 -28 -4
-29 -4 -7 4 14 5 21 10 15 10 -28 3 26 21 60 20 77 -2 75 -4 75 51 l0 50 -60
0 c-53 0 -60 2 -60 20 0 13 -7 20 -20 20 -13 0 -20 7 -20 20 0 18 7 20 60 20
l60 0 0 40 0 40 -60 0 c-53 0 -60 -2 -60 -20 0 -17 -7 -20 -40 -20 -36 0 -40
-2 -40 -25 0 -18 -5 -25 -20 -25 -11 0 -20 5 -20 10 0 6 -9 10 -20 10 -11 0
-20 5 -20 10 0 6 -10 10 -23 10 -27 0 -77 21 -77 33 0 5 -9 5 -20 2 -11 -3
-20 -2 -20 3 0 5 -19 7 -43 5 -29 -4 -54 0 -75 11 -17 9 -51 16 -75 16 -64 0
-107 10 -107 26 0 8 -7 14 -16 14 -8 0 -22 7 -31 16 -12 11 -26 14 -54 9 -46
-8 -48 -3 -14 30 22 23 31 25 128 25 74 0 116 -5 143 -16 29 -12 59 -15 116
-12 43 3 78 1 78 -4 0 -4 16 -8 35 -8 19 0 35 -4 35 -10 0 -5 9 -10 20 -10 11
0 20 -4 20 -10 0 -6 30 -10 70 -10 40 0 70 -4 70 -10 0 -6 33 -10 80 -10 73 0
80 2 80 20 0 17 7 20 40 20 38 0 40 2 40 30 0 28 2 30 40 30 22 0 40 -4 40
-10 0 -5 9 -10 20 -10 13 0 20 -7 20 -20 0 -13 7 -20 20 -20 13 0 20 -7 20
-20 0 -13 7 -20 20 -20 11 0 20 5 20 10 0 6 9 10 20 10 11 0 20 -4 20 -10 0
-5 9 -10 20 -10 13 0 20 -7 20 -20 0 -13 -7 -20 -20 -20 -11 0 -20 5 -20 10 0
6 -5 10 -11 10 -21 0 -39 -29 -39 -64 l0 -36 -55 0 -55 0 0 -40 c0 -39 1 -40
35 -40 34 0 35 -1 35 -42 0 -32 3 -39 10 -28 7 11 10 0 10 -37 0 -29 -4 -53
-10 -53 -5 0 -10 -16 -10 -35 0 -42 -23 -57 -46 -29 -9 11 -13 14 -10 7 4 -6
-2 -16 -11 -22 -23 -12 -17 -17 30 -25 31 -6 38 -4 32 6 -3 7 1 4 9 -7 13 -15
29 -19 80 -20 35 0 62 3 59 8 -2 4 6 7 19 8 94 3 164 11 166 19 2 6 21 10 43
10 37 0 39 2 39 30 l0 30 66 0 c60 0 68 3 94 30 15 17 35 30 44 30 9 0 16 5
16 10 0 6 18 10 40 10 22 0 40 -4 40 -10 0 -6 27 -10 60 -10 33 0 60 -4 60
-10 0 -5 14 -10 30 -10 23 0 30 4 30 20 0 18 7 20 80 20 47 0 80 -4 80 -10 0
-14 37 -13 42 2 3 8 80 12 284 12 250 1 282 -1 297 -16 9 -9 17 -22 17 -28 0
-20 28 -40 54 -40 19 0 26 -5 26 -20 0 -17 7 -20 40 -20 22 0 40 5 40 10 0 6
9 10 20 10 13 0 20 -7 20 -20 0 -11 7 -20 15 -20 8 0 15 -9 15 -19 0 -11 5
-21 10 -23 16 -5 26 -118 11 -118 -6 0 -11 -9 -11 -20 0 -13 7 -20 20 -20 20
0 20 7 20 935 l0 935 -2220 0 -2220 0 0 -660z m4028 416 c37 -19 68 -55 87
-98 12 -31 15 -90 15 -346 0 -299 -1 -309 -22 -352 -13 -25 -38 -55 -57 -67
-34 -23 -37 -23 -380 -23 -247 1 -354 4 -373 13 -15 7 -41 29 -57 51 l-31 39
0 341 0 341 26 38 c53 78 47 77 427 77 271 0 343 -3 365 -14z m-3468 -976 c0
-5 -18 -10 -40 -10 -22 0 -40 5 -40 10 0 6 18 10 40 10 22 0 40 -4 40 -10z
m2230 -70 c0 -11 -7 -20 -15 -20 -8 0 -15 9 -15 20 0 11 7 20 15 20 8 0 15 -9
15 -20z m0 -40 c0 -5 -7 -10 -15 -10 -8 0 -15 5 -15 10 0 6 7 10 15 10 8 0 15
-4 15 -10z m1010 -170 c0 -5 -9 -10 -20 -10 -11 0 -20 5 -20 10 0 6 9 10 20
10 11 0 20 -4 20 -10z m-1917 -143 c-6 -9 -93 -6 -93 3 0 4 22 7 49 6 27 0 47
-4 44 -9z m917 -17 c0 -5 -9 -10 -20 -10 -11 0 -20 5 -20 10 0 6 9 10 20 10
11 0 20 -4 20 -10z m-257 -47 c-7 -2 -19 -2 -25 0 -7 3 -2 5 12 5 14 0 19 -2
13 -5z m-559 -379 c3 -9 6 -27 6 -40 0 -13 4 -23 10 -21 5 1 17 -14 28 -34
l18 -35 -36 -2 c-20 -2 -58 -8 -86 -15 -39 -9 -50 -17 -52 -34 -3 -17 2 -23
15 -23 15 0 18 -9 20 -50 0 -27 -3 -47 -8 -44 -15 9 -10 -58 5 -75 8 -9 21
-33 29 -53 l16 -38 -35 0 c-24 0 -34 4 -34 16 0 14 -2 14 -15 0 -9 -8 -23 -12
-31 -9 -11 4 -12 9 -5 16 19 19 13 57 -8 57 -20 0 -38 42 -21 48 6 2 10 37 10
78 0 66 3 78 23 97 30 28 47 59 47 87 0 25 57 88 81 89 9 1 20 -6 23 -15z
m117 -190 c7 -9 14 -22 15 -30 1 -7 5 -31 9 -52 5 -32 2 -41 -17 -57 -16 -14
-19 -15 -10 -3 21 27 10 50 -28 63 -37 12 -55 45 -25 45 13 0 16 6 13 25 -4
19 -1 25 12 25 10 0 24 -7 31 -16z m-1196 -174 c3 -5 1 -10 -4 -10 -6 0 -11 5
-11 10 0 6 2 10 4 10 3 0 8 -4 11 -10z m1309 -45 c3 -8 1 -15 -4 -15 -6 0 -10
7 -10 15 0 8 2 15 4 15 2 0 6 -7 10 -15z m-401 -10 c7 -17 -9 -30 -18 -15 -8
12 -36 13 -32 1 1 -5 -2 -11 -8 -12 -5 -2 -11 6 -13 19 -3 19 1 22 31 22 21 0
37 -6 40 -15z m297 3 c0 -9 4 -8 10 2 9 13 10 13 10 -1 0 -43 -24 -135 -37
-143 -13 -7 -13 -10 -2 -17 11 -7 11 -9 -2 -9 -9 0 -24 -9 -34 -20 -23 -25
-82 -37 -108 -21 -10 7 -16 8 -13 2 4 -6 -4 -7 -26 -1 -32 10 -61 30 -42 30 6
0 15 -5 22 -12 6 -6 15 -8 19 -4 4 4 0 12 -10 18 -18 9 -18 11 -1 29 9 10 22
19 29 19 17 0 42 31 50 63 5 17 19 33 41 43 19 9 37 20 40 25 8 14 54 11 54
-3z m110 -28 c0 -5 -4 -10 -9 -10 -5 0 -7 -9 -4 -20 3 -11 0 -20 -6 -20 -5 0
-8 7 -5 15 4 8 1 15 -5 15 -6 0 -11 -8 -11 -17 0 -10 -5 -25 -11 -33 -8 -11
-9 -7 -5 19 3 19 14 40 24 47 21 16 32 17 32 4z m-413 -27 c22 -20 26 -60 6
-60 -13 0 -17 10 -14 35 1 7 -5 15 -13 18 -9 3 -13 10 -10 15 7 12 8 12 31 -8z
m1738 -66 c35 -2 40 -5 43 -28 2 -20 -5 -32 -32 -52 -39 -30 -73 -33 -174 -16
-62 11 -65 13 -82 52 -11 25 -15 44 -9 48 8 5 135 3 254 -4z m433 -13 c15 -4
22 -14 22 -30 0 -21 -5 -24 -37 -24 -40 0 -75 24 -66 46 5 15 42 18 81 8z
m-3727 -95 c9 -17 7 -28 -7 -55 -22 -40 -37 -43 -58 -12 -20 29 -20 52 0 72
22 22 51 20 65 -5z m1549 -9 c0 -5 -7 -10 -16 -10 -8 0 -12 5 -9 10 3 6 10 10
16 10 5 0 9 -4 9 -10z m50 -1 c0 -11 -27 -12 -34 -1 -2 4 4 9 15 9 10 1 19 -2
19 -8z m294 -435 c9 -8 16 -29 16 -45 0 -23 -4 -29 -22 -29 -40 0 -77 58 -51
83 11 12 41 7 57 -9z m-824 -110 c0 -20 -4 -25 -16 -20 -9 3 -18 6 -20 6 -2 0
-4 9 -4 20 0 13 7 20 20 20 15 0 20 -7 20 -26z m56 -81 c-11 -11 -19 6 -11 24
8 17 8 17 12 0 3 -10 2 -21 -1 -24z m1731 -495 c-3 -7 -5 -2 -5 12 0 14 2 19
5 13 2 -7 2 -19 0 -25z m-66 -29 l24 -20 -30 17 c-39 24 -40 24 -28 24 6 0 21
-9 34 -21z m-791 -7 c0 -5 -7 -17 -15 -28 -14 -18 -14 -17 -4 9 12 27 19 34
19 19z m770 -33 c0 -5 -4 -9 -10 -9 -5 0 -10 7 -10 16 0 8 5 12 10 9 6 -3 10
-10 10 -16z m70 -69 c0 -5 -5 -10 -11 -10 -5 0 -7 5 -4 10 3 6 8 10 11 10 2 0
4 -4 4 -10z m-1480 -326 c0 -8 -4 -12 -10 -9 -5 3 -10 10 -10 16 0 5 5 9 10 9
6 0 10 -7 10 -16z m227 -219 c0 -8 -4 -12 -9 -9 -5 3 -6 10 -3 15 9 13 12 11
12 -6z m-457 -209 c0 -2 -9 -2 -20 1 -11 3 -20 9 -20 15 0 5 9 4 20 -2 11 -6
20 -12 20 -14z"/>
<path d="M3320 6908 c-79 -41 -80 -48 -80 -395 0 -337 2 -349 66 -391 33 -22
39 -22 356 -22 362 0 374 2 410 70 17 32 18 59 16 357 l-3 321 -25 27 c-48 53
-65 55 -393 55 -294 0 -304 -1 -347 -22z m298 -202 c56 -29 76 -103 48 -171
-19 -44 -54 -66 -118 -74 l-53 -6 -3 -72 -3 -73 -29 0 -30 0 0 203 c0 112 3
207 8 211 12 14 145 0 180 -18z m256 -92 c9 -4 16 -18 16 -33 0 -26 -2 -27
-52 -26 -71 0 -77 -23 -15 -59 61 -36 81 -61 81 -101 0 -47 -35 -82 -88 -90
-60 -9 -96 7 -96 43 0 29 0 29 40 18 29 -7 46 -7 58 0 28 18 20 37 -32 71 -59
39 -66 48 -66 94 0 38 13 60 45 77 22 12 84 16 109 6z"/>
<path d="M3497 6663 c-4 -3 -7 -37 -7 -75 l0 -68 38 0 c75 0 109 74 57 125
-23 24 -73 34 -88 18z"/>
<path d="M200 5950 c0 -5 5 -10 10 -10 6 0 10 5 10 10 0 6 -4 10 -10 10 -5 0
-10 -4 -10 -10z"/>
<path d="M2240 5840 l0 -40 40 0 40 0 0 40 0 40 -40 0 -40 0 0 -40z"/>
<path d="M0 5830 c0 -5 5 -10 10 -10 6 0 10 5 10 10 0 6 -4 10 -10 10 -5 0
-10 -4 -10 -10z"/>
<path d="M160 5834 c0 -7 27 -34 34 -34 3 0 6 9 6 20 0 13 -7 20 -20 20 -11 0
-20 -3 -20 -6z"/>
<path d="M2285 5650 c-3 -5 3 -10 14 -10 12 0 21 5 21 10 0 6 -6 10 -14 10 -8
0 -18 -4 -21 -10z"/>
<path d="M2353 5602 c-7 -4 -9 -13 -4 -21 6 -10 10 -10 16 -1 5 8 11 6 21 -7
13 -16 13 -16 6 6 -10 28 -21 34 -39 23z"/>
<path d="M2435 5556 c20 -30 25 -32 25 -11 0 8 -9 19 -21 25 -20 11 -20 11 -4
-14z"/>
<path d="M4180 5350 c0 -6 30 -10 70 -10 40 0 70 4 70 10 0 6 -30 10 -70 10
-40 0 -70 -4 -70 -10z"/>
<path d="M890 5310 c-9 -6 -10 -10 -3 -10 6 0 15 5 18 10 8 12 4 12 -15 0z"/>
<path d="M2630 5270 c0 -5 5 -10 11 -10 5 0 7 5 4 10 -3 6 -8 10 -11 10 -2 0
-4 -4 -4 -10z"/>
<path d="M842 4850 c0 -14 2 -19 5 -12 2 6 2 18 0 25 -3 6 -5 1 -5 -13z"/>
</g>
</svg>
