<?xml version="1.0" standalone="no"?>
<!DOCTYPE svg PUBLIC "-//W3C//DTD SVG 20010904//EN"
 "http://www.w3.org/TR/2001/REC-SVG-20010904/DTD/svg10.dtd">
<svg version="1.0" xmlns="http://www.w3.org/2000/svg"
 width="447.000000pt" height="720.000000pt" viewBox="0 0 447.000000 720.000000"
 preserveAspectRatio="xMidYMid meet">

<g transform="translate(0.000000,720.000000) scale(0.100000,-0.100000)"
fill="#000000" stroke="none">
<path d="M3990 5475 c0 -18 -12 -19 -28 -3 -16 16 -20 8 -15 -29 5 -33 23 -47
23 -18 0 18 27 20 33 3 8 -24 15 -3 10 30 -5 32 -23 46 -23 17z"/>
<path d="M4061 5461 c-26 -36 -26 -44 -1 -36 11 4 20 2 20 -4 0 -6 5 -11 10
-11 13 0 13 67 1 75 -5 3 -19 -8 -30 -24z"/>
<path d="M403 5453 c-30 -11 -10 -73 23 -73 27 0 33 20 7 21 -11 0 -13 3 -5 6
17 7 15 21 -5 26 -17 4 -17 5 0 6 9 0 17 6 17 11 0 10 -16 12 -37 3z"/>
<path d="M3892 5435 c3 -14 1 -25 -3 -25 -5 0 -9 10 -9 21 0 17 -3 19 -13 10
-8 -6 -17 -8 -20 -4 -4 3 -7 1 -7 -5 0 -7 -8 -12 -17 -12 -13 0 -10 -7 12 -30
24 -25 32 -28 40 -17 5 8 16 12 23 10 8 -3 12 8 12 36 0 24 -5 41 -11 41 -7 0
-9 -10 -7 -25z m-37 -25 c3 -5 1 -10 -4 -10 -6 0 -11 5 -11 10 0 6 2 10 4 10
3 0 8 -4 11 -10z"/>
<path d="M524 5435 c-4 -8 0 -23 7 -32 12 -15 12 -16 -4 -10 -13 5 -17 3 -15
-5 6 -17 37 -23 51 -9 7 7 5 17 -8 31 -16 18 -17 20 -2 14 9 -3 17 -2 17 4 0
5 -7 13 -16 16 -22 8 -24 8 -30 -9z"/>
<path d="M4155 5440 c4 -6 0 -21 -9 -34 -18 -29 -8 -44 11 -16 8 11 21 20 29
20 20 0 17 17 -5 30 -25 13 -34 13 -26 0z"/>
<path d="M327 5399 c5 -18 3 -20 -16 -14 -25 8 -27 -2 -5 -33 19 -27 34 -29
27 -2 -5 21 11 28 22 10 4 -6 11 -8 16 -4 10 6 -27 64 -41 64 -4 0 -6 -10 -3
-21z"/>
<path d="M608 5408 c8 -8 8 -17 1 -30 -6 -11 -8 -24 -6 -31 2 -7 10 1 17 16 8
16 19 26 27 23 7 -3 13 -1 13 5 0 5 -12 14 -26 19 -33 13 -41 13 -26 -2z"/>
<path d="M666 5356 c-20 -31 -20 -40 -2 -33 9 4 17 -3 21 -16 5 -17 8 -18 12
-7 3 8 13 21 21 28 13 10 14 17 6 30 -17 26 -39 25 -58 -2z m39 -6 c3 -5 1
-10 -4 -10 -6 0 -11 5 -11 10 0 6 2 10 4 10 3 0 8 -4 11 -10z"/>
<path d="M4232 5347 c-12 -13 -22 -27 -22 -31 0 -10 59 36 59 47 2 14 -16 7
-37 -16z"/>
<path d="M232 5348 c-15 -15 -15 -28 0 -28 6 0 20 -7 30 -17 24 -22 36 -8 14
16 -10 11 -15 25 -11 30 9 15 -18 14 -33 -1z"/>
<path d="M3703 5353 c-33 -13 2 -79 36 -68 12 3 21 11 21 17 0 5 -7 7 -16 4
-12 -4 -15 -2 -10 9 3 10 -1 15 -12 16 -10 0 -12 3 -4 6 6 2 12 9 12 14 0 10
-8 10 -27 2z"/>
<path d="M736 5308 c-18 -30 -18 -32 -1 -45 34 -24 49 -12 18 14 -16 13 -16
13 7 7 23 -6 24 -6 10 11 -14 16 -13 17 8 11 26 -9 29 2 5 20 -25 19 -26 18
-47 -18z"/>
<path d="M2137 5330 c-3 -8 -8 -22 -10 -30 -4 -10 -6 -8 -6 5 -1 14 -8 21 -22
21 -16 0 -19 -5 -15 -26 5 -24 5 -25 -6 -2 -6 12 -15 22 -20 22 -12 0 -10 -8
9 -41 18 -30 28 -35 38 -19 3 5 12 7 20 4 16 -6 30 32 22 63 -3 15 -5 15 -10
3z"/>
<path d="M3660 5308 c0 -17 -3 -19 -12 -10 -7 7 -19 12 -27 12 -10 0 -5 -10
14 -30 16 -16 32 -30 37 -30 4 0 8 18 8 40 0 22 -4 40 -10 40 -5 0 -10 -10
-10 -22z"/>
<path d="M3780 5320 c0 -5 5 -10 11 -10 5 0 7 5 4 10 -3 6 -8 10 -11 10 -2 0
-4 -4 -4 -10z"/>
<path d="M2195 5289 c-6 -27 -1 -49 9 -38 10 11 17 69 8 69 -6 0 -13 -14 -17
-31z"/>
<path d="M4265 5310 c-3 -5 -3 -16 1 -22 6 -10 4 -10 -7 0 -21 20 -29 14 -17
-13 14 -31 43 -29 42 3 0 12 3 22 8 22 4 0 8 -5 8 -11 0 -5 5 -7 10 -4 8 5 7
11 -1 21 -13 16 -35 18 -44 4z"/>
<path d="M2255 5290 c3 -10 1 -28 -5 -40 -7 -13 -7 -20 -1 -20 6 0 15 9 21 20
6 11 17 20 25 20 23 0 17 16 -10 28 -35 16 -37 15 -30 -8z"/>
<path d="M795 5271 c-14 -28 -14 -31 7 -45 26 -18 36 -13 18 9 -10 12 -9 15 5
15 15 0 16 2 4 16 -12 15 -11 16 11 9 22 -7 23 -6 11 9 -20 24 -39 20 -56 -13z"/>
<path d="M3580 5290 c0 -16 23 -60 32 -60 11 0 10 7 -7 40 -16 30 -25 38 -25
20z"/>
<path d="M1937 5264 c-14 -14 -7 -53 12 -63 26 -14 54 8 49 40 -2 17 -10 25
-28 27 -14 2 -29 0 -33 -4z m43 -27 c0 -8 -3 -17 -7 -20 -9 -9 -34 13 -27 24
8 14 34 11 34 -4z"/>
<path d="M169 5246 c9 -11 7 -15 -9 -19 -28 -7 -25 -19 10 -39 27 -16 55 -8
29 8 -8 4 -4 11 11 19 l23 12 -24 17 c-30 20 -57 22 -40 2z"/>
<path d="M875 5250 c3 -5 1 -19 -5 -31 -17 -30 -2 -38 19 -10 10 13 23 21 30
17 6 -4 11 -3 11 3 0 11 -32 31 -50 31 -6 0 -8 -4 -5 -10z"/>
<path d="M2308 5230 c-9 -16 -13 -32 -8 -35 5 -3 11 -1 15 5 11 18 27 11 22
-10 -7 -28 7 -25 27 5 21 32 22 52 1 35 -17 -14 -36 -5 -28 15 10 27 -12 15
-29 -15z"/>
<path d="M3510 5248 c0 -7 9 -24 19 -37 15 -20 21 -22 39 -12 27 15 29 35 2
26 -13 -4 -23 0 -32 14 -14 23 -28 27 -28 9z"/>
<path d="M3444 5216 c-15 -12 -17 -19 -9 -42 12 -34 25 -39 50 -19 20 16 19
16 -2 10 -24 -7 -33 9 -10 18 7 3 4 6 -7 6 -15 1 -16 4 -6 16 18 21 8 28 -16
11z"/>
<path d="M4096 5199 c-14 -34 -58 -90 -106 -139 -54 -53 -56 -60 -31 -79 21
-16 22 -19 6 -34 -15 -15 -15 -18 -1 -23 9 -3 23 -1 30 5 11 9 15 9 19 -1 2
-7 8 -10 12 -5 5 4 -2 18 -15 31 -29 32 -22 60 29 130 43 58 85 135 77 143 -3
3 -11 -10 -20 -28z"/>
<path d="M1857 5202 c-16 -17 -15 -20 6 -40 13 -12 26 -22 29 -22 10 0 38 30
38 40 0 13 -30 40 -44 40 -7 0 -20 -8 -29 -18z m46 -16 c3 -8 3 -17 0 -20 -7
-7 -33 13 -33 25 0 15 27 10 33 -5z"/>
<path d="M3992 5176 c-16 -27 -17 -34 -6 -29 15 6 38 52 31 60 -3 2 -14 -12
-25 -31z"/>
<path d="M2420 5169 c-27 -36 -17 -54 10 -19 18 23 26 50 16 50 -3 0 -14 -14
-26 -31z"/>
<path d="M3389 5173 c-2 -24 -2 -25 -6 -5 -5 24 -11 26 -32 13 -13 -8 -13 -12
-1 -28 13 -16 12 -16 -8 1 -33 28 -40 10 -9 -22 21 -20 30 -24 36 -14 4 7 15
10 24 6 14 -5 17 1 17 35 0 45 -19 57 -21 14z"/>
<path d="M4275 5180 c3 -5 13 -10 21 -10 21 0 17 -16 -8 -28 -21 -9 -18 -11
20 -11 23 -1 42 4 42 9 0 6 -7 10 -15 10 -8 0 -15 5 -15 10 0 6 7 10 15 10 8
0 15 5 15 10 0 6 -18 10 -41 10 -24 0 -38 -4 -34 -10z"/>
<path d="M986 5149 c-10 -17 -15 -33 -11 -37 4 -4 10 -2 12 4 2 7 14 9 26 6
20 -5 20 -4 8 11 -15 18 -5 22 19 7 12 -8 12 -11 -3 -28 -19 -21 -14 -34 10
-25 8 3 19 0 23 -8 14 -22 22 -4 14 36 -4 24 -11 34 -19 31 -7 -2 -21 4 -31
15 -23 25 -27 24 -48 -12z"/>
<path d="M905 5160 c-3 -5 -1 -10 4 -10 6 0 11 5 11 10 0 6 -2 10 -4 10 -3 0
-8 -4 -11 -10z"/>
<path d="M2447 5140 c-18 -30 -18 -30 7 -41 20 -9 29 -9 41 1 18 15 20 41 3
58 -19 19 -32 14 -51 -18z m43 -10 c0 -11 -7 -20 -15 -20 -17 0 -18 2 -9 24 9
23 24 20 24 -4z"/>
<path d="M120 5153 c0 -11 60 -27 68 -18 8 8 -2 14 -36 21 -19 4 -32 2 -32 -3z"/>
<path d="M3240 5126 c0 -13 -6 -17 -20 -13 -11 3 -20 3 -20 0 0 -6 48 -53 54
-53 2 0 2 16 1 35 -2 37 -15 62 -15 31z"/>
<path d="M1764 5116 c-12 -31 0 -51 31 -51 27 0 30 3 30 30 0 25 -4 30 -28 33
-17 2 -29 -2 -33 -12z m46 -22 c0 -8 -7 -14 -15 -14 -15 0 -21 21 -9 33 10 9
24 -2 24 -19z"/>
<path d="M2526 5105 c-9 -13 -16 -28 -16 -33 0 -15 30 -36 38 -27 4 4 1 10 -5
12 -23 8 -14 21 10 15 20 -5 21 -4 8 11 -12 15 -12 17 3 11 22 -9 20 13 -3 25
-15 9 -22 6 -35 -14z"/>
<path d="M1129 5109 c-12 -7 -12 -12 -1 -30 12 -19 12 -20 -10 -13 -20 6 -21
5 -9 -10 16 -19 51 -22 51 -3 0 6 3 22 6 33 6 24 -15 37 -37 23z m26 -19 c3
-5 1 -10 -4 -10 -6 0 -11 5 -11 10 0 6 2 10 4 10 3 0 8 -4 11 -10z"/>
<path d="M4274 5076 c0 -33 1 -33 30 -25 17 5 32 9 33 9 2 0 3 4 3 10 0 8 -50
40 -63 40 -1 0 -3 -15 -3 -34z"/>
<path d="M1713 5071 c-25 -21 -30 -35 -10 -28 6 2 22 -5 35 -16 12 -11 22 -16
22 -10 0 6 -7 16 -15 23 -9 7 -13 21 -10 31 8 23 6 23 -22 0z"/>
<path d="M3144 5074 c3 -9 6 -27 6 -40 0 -13 5 -24 10 -24 6 0 10 7 10 16 0
11 6 15 20 11 26 -7 25 5 -3 31 -27 26 -52 29 -43 6z"/>
<path d="M1182 5055 c-16 -35 -16 -53 0 -37 20 20 40 15 33 -8 -11 -33 10 -22
28 15 17 35 12 46 -11 23 -10 -10 -14 -8 -18 10 -8 29 -18 28 -32 -3z"/>
<path d="M2592 5057 c-26 -27 -28 -39 -7 -31 8 4 17 -1 21 -10 11 -29 24 -17
24 24 0 46 -8 49 -38 17z"/>
<path d="M180 5059 c0 -5 5 -7 10 -4 6 3 10 8 10 11 0 2 -4 4 -10 4 -5 0 -10
-5 -10 -11z"/>
<path d="M3099 5043 c-1 -22 -3 -24 -6 -7 -3 16 -9 20 -23 17 -16 -4 -18 -9
-8 -27 11 -21 11 -21 -11 -2 -32 29 -39 10 -8 -22 21 -20 30 -24 36 -14 4 7
15 10 24 6 14 -5 17 1 17 35 0 45 -19 57 -21 14z"/>
<path d="M1267 5020 c-20 -32 -21 -40 -7 -40 13 0 42 58 32 64 -5 3 -16 -8
-25 -24z"/>
<path d="M2655 5040 c-4 -6 1 -20 11 -31 19 -21 6 -27 -15 -6 -11 10 -13 9 -9
-2 7 -24 36 -37 50 -23 10 10 10 17 0 32 -10 16 -9 18 5 13 11 -4 14 -2 11 8
-6 18 -44 24 -53 9z"/>
<path d="M2943 5023 c-14 -5 -17 -31 -7 -57 7 -18 39 -22 49 -6 3 6 -4 10 -17
10 -22 1 -22 1 -3 12 19 11 19 11 0 19 -17 7 -18 8 -2 8 9 1 17 6 17 11 0 10
-16 12 -37 3z"/>
<path d="M130 5008 c0 -5 7 -8 15 -8 18 0 19 -12 3 -28 -7 -7 -9 -12 -5 -12
10 0 67 42 67 50 0 3 -18 5 -40 5 -22 0 -40 -3 -40 -7z"/>
<path d="M1302 5008 c-18 -18 -14 -46 7 -58 25 -13 48 -4 56 21 12 38 -35 65
-63 37z m48 -22 c0 -8 -5 -18 -11 -22 -14 -8 -33 11 -25 25 10 16 36 13 36 -3z"/>
<path d="M1630 5005 c-18 -22 -6 -44 22 -38 23 5 23 5 3 -10 -17 -14 -17 -16
-4 -17 21 0 43 26 34 40 -4 7 -16 10 -26 7 -11 -3 -19 -1 -19 4 0 5 5 9 10 9
6 0 10 5 10 10 0 15 -16 12 -30 -5z"/>
<path d="M2780 5011 c0 -5 5 -13 11 -17 6 -3 8 -17 5 -30 -4 -13 -2 -24 3 -24
5 0 12 14 16 31 8 36 29 33 33 -4 3 -28 22 -38 22 -12 0 20 17 19 28 -1 12
-22 21 -5 15 29 -5 25 -23 39 -23 17 0 -13 -27 -13 -32 0 -4 13 -78 24 -78 11z"/>
<path d="M4270 5011 c0 -6 4 -11 9 -11 5 0 11 -9 14 -21 8 -30 42 -21 42 11 0
21 -5 26 -32 28 -19 2 -33 -1 -33 -7z"/>
<path d="M1388 4994 c-12 -21 -18 -64 -8 -64 5 0 10 6 10 13 0 6 9 1 20 -13
l19 -25 10 28 c6 16 11 36 11 45 -1 16 -2 16 -14 -1 -13 -16 -14 -16 -28 5 -8
12 -17 17 -20 12z"/>
<path d="M3840 4982 c1 -22 29 -73 30 -52 0 12 9 15 38 13 l37 -3 -32 13 c-18
6 -42 20 -53 29 -19 17 -20 17 -20 0z"/>
<path d="M1570 4940 c0 -22 5 -40 10 -40 6 0 10 7 10 16 0 11 6 14 21 9 l22
-7 -22 31 c-30 42 -41 39 -41 -9z"/>
<path d="M2711 4964 c0 -11 3 -14 6 -6 3 7 2 16 -1 19 -3 4 -6 -2 -5 -13z"/>
<path d="M210 4941 c-7 -13 -16 -17 -31 -14 -15 4 -20 3 -15 -5 4 -7 14 -12
23 -12 13 0 13 -3 3 -15 -15 -18 -1 -20 35 -3 27 12 34 28 11 28 -9 0 -12 7
-9 20 7 25 -3 26 -17 1z"/>
<path d="M1490 4925 c0 -19 5 -35 10 -35 6 0 10 8 10 18 0 14 4 12 20 -8 l20
-25 0 43 c0 23 -4 42 -10 42 -5 0 -10 -7 -10 -15 0 -8 -4 -15 -10 -15 -5 0
-10 7 -10 15 0 8 -4 15 -10 15 -5 0 -10 -16 -10 -35z"/>
<path d="M4258 4909 c5 -35 25 -47 47 -29 22 18 18 35 -10 48 -38 17 -42 15
-37 -19z m42 -9 c0 -5 -4 -10 -10 -10 -5 0 -10 5 -10 10 0 6 5 10 10 10 6 0
10 -4 10 -10z"/>
<path d="M251 4881 c-9 -6 -11 -16 -6 -32 7 -22 6 -23 -10 -9 -16 13 -17 12
-14 -5 6 -29 44 -27 43 2 0 18 2 20 13 12 10 -9 13 -8 13 4 0 21 -23 37 -39
28z"/>
<path d="M447 4863 c-4 -3 -7 -11 -7 -17 0 -6 5 -5 12 2 6 6 9 14 7 17 -3 3
-9 2 -12 -2z"/>
<path d="M4200 4855 c-17 -21 -5 -31 16 -14 15 12 16 11 9 -11 -7 -23 -7 -24
10 -10 17 14 17 13 10 -10 -8 -25 -8 -25 14 -6 26 23 26 21 -1 46 -26 24 -41
25 -58 5z"/>
<path d="M4167 4814 c-4 -4 -2 -13 5 -21 10 -12 7 -13 -15 -8 -32 9 -37 -13
-9 -38 24 -22 50 -24 32 -2 -11 13 -8 15 14 15 14 0 26 4 26 8 0 14 -46 53
-53 46z"/>
<path d="M2393 4803 c-7 -3 -13 -15 -13 -27 0 -58 -18 -81 -78 -98 -31 -10
-86 -22 -122 -28 -100 -16 -211 -47 -228 -64 -13 -13 -13 -19 -2 -48 8 -18 27
-48 43 -67 16 -19 35 -48 42 -63 l12 -30 41 50 c47 55 56 78 17 42 -21 -20
-25 -21 -25 -6 0 9 4 15 9 12 5 -3 14 1 21 9 7 8 17 12 22 9 6 -4 13 -2 17 3
18 27 177 123 203 123 4 0 8 -9 8 -19 0 -16 -9 -21 -45 -27 -62 -9 -109 -42
-113 -79 -2 -17 -8 -34 -13 -39 -5 -6 -9 -18 -9 -28 0 -21 -1 -21 -34 -8 -35
13 -86 -34 -79 -72 6 -32 -14 -46 -32 -22 -14 18 -14 18 -15 -4 0 -16 9 -27
33 -37 74 -33 164 -67 184 -70 26 -4 52 26 126 142 44 69 70 93 99 93 7 -1 0
-8 -15 -16 -16 -9 -27 -18 -24 -20 7 -8 57 7 57 17 0 4 23 5 50 2 46 -5 54 -3
82 23 l30 29 -7 -25 c-16 -54 -41 -75 -197 -167 -26 -15 -50 -34 -53 -41 -3
-9 2 -9 17 3 13 8 37 15 55 15 17 0 35 5 38 10 4 6 25 20 48 31 51 26 71 48
103 117 13 28 26 52 28 52 10 0 -30 -143 -60 -212 -19 -42 -34 -81 -34 -87 0
-6 -11 -44 -25 -84 -35 -98 -45 -146 -33 -153 11 -7 28 15 59 74 12 23 25 42
28 42 4 0 15 -13 24 -30 10 -16 22 -30 26 -30 5 0 11 39 15 87 8 97 23 142 59
176 25 23 50 96 28 83 -6 -4 -11 -12 -11 -18 0 -5 -9 -21 -19 -34 l-19 -24 2
63 c1 43 9 77 25 107 17 34 19 41 6 30 -9 -8 -22 -26 -27 -40 -6 -14 -12 -20
-15 -13 -2 7 1 21 6 32 9 16 8 22 -6 30 -16 9 -14 10 9 11 23 0 28 5 34 35 l6
35 18 -23 c18 -21 20 -21 36 -5 17 17 16 20 -15 80 -18 35 -37 74 -42 88 l-9
25 19 -24 c17 -22 19 -23 28 -6 8 14 4 23 -22 47 -38 32 -85 38 -152 18 -53
-15 -93 -7 -93 20 0 23 -12 25 -43 8 -30 -16 -56 -17 -50 -3 5 14 -16 24 -34
18z m262 -291 c-6 -14 -9 -11 -16 12 -6 20 -4 35 4 45 10 12 13 10 15 -13 2
-15 0 -35 -3 -44z"/>
<path d="M341 4784 c12 -15 11 -16 -11 -9 -23 7 -24 7 -10 -10 14 -16 13 -17
-8 -11 -26 9 -28 1 -7 -21 20 -19 37 -13 55 21 12 24 12 28 0 36 -24 15 -34
11 -19 -6z"/>
<path d="M371 4731 c-27 -38 -26 -43 7 -35 23 6 25 5 15 -8 -21 -25 -1 -30 24
-6 26 25 30 43 7 34 -23 -9 -37 3 -24 19 7 8 7 15 1 19 -5 4 -19 -7 -30 -23z"/>
<path d="M4100 4748 c0 -8 11 -25 25 -38 18 -17 25 -20 25 -8 0 8 -11 25 -25
38 -18 17 -25 20 -25 8z"/>
<path d="M4060 4722 c0 -4 5 -13 12 -20 10 -10 5 -11 -21 -6 l-34 7 19 -31
c10 -18 25 -32 32 -32 12 0 12 3 1 17 -13 15 -11 16 14 9 32 -8 36 7 11 42
-15 22 -34 30 -34 14z"/>
<path d="M460 4670 c-6 -11 -17 -20 -25 -20 -20 0 -19 -10 3 -26 22 -18 35
-17 29 0 -3 8 1 22 8 33 17 21 19 33 5 33 -5 0 -14 -9 -20 -20z"/>
<path d="M3937 4674 c-9 -10 13 -45 24 -39 5 4 7 11 4 16 -4 5 1 9 9 9 24 0
19 -29 -6 -39 -14 -5 -17 -10 -10 -15 6 -4 21 -2 32 4 24 13 27 55 4 64 -20 8
-49 8 -57 0z"/>
<path d="M3900 4660 c0 -5 5 -10 11 -10 5 0 7 5 4 10 -3 6 -8 10 -11 10 -2 0
-4 -4 -4 -10z"/>
<path d="M3837 4643 c-5 -7 -17 -13 -28 -13 -26 0 -24 -12 6 -40 31 -29 37
-23 33 26 -2 25 -6 34 -11 27z"/>
<path d="M537 4605 c-14 -30 -15 -35 -2 -35 8 0 15 6 16 13 0 6 4 2 9 -10 12
-30 24 -29 39 3 13 29 6 48 -9 24 -7 -11 -10 -8 -15 13 -9 36 -18 34 -38 -8z"/>
<path d="M617 4565 c-9 -19 -13 -35 -8 -35 12 0 27 21 35 48 11 35 -8 26 -27
-13z"/>
<path d="M3696 4587 c-21 -15 -14 -37 11 -37 10 0 13 6 9 16 -4 10 -1 14 6 12
19 -7 22 -38 4 -38 -9 0 -16 -5 -16 -11 0 -16 31 -6 44 14 8 12 8 22 0 35 -15
23 -35 26 -58 9z"/>
<path d="M695 4550 c-3 -6 -3 -19 0 -30 5 -15 3 -18 -9 -14 -9 3 -16 1 -16 -4
0 -16 40 -26 53 -13 8 8 8 14 -1 23 -17 17 -15 33 3 18 9 -7 19 -10 23 -6 4 4
-2 14 -12 22 -23 17 -33 18 -41 4z"/>
<path d="M3650 4551 c0 -15 38 -56 45 -49 8 8 -23 58 -36 58 -5 0 -9 -4 -9 -9z"/>
<path d="M3610 4525 c0 -9 -6 -12 -15 -9 -18 7 -18 4 -5 -30 10 -26 33 -33 58
-17 12 7 11 14 -2 40 -17 33 -36 41 -36 16z m20 -35 c0 -5 -5 -10 -11 -10 -5
0 -7 5 -4 10 3 6 8 10 11 10 2 0 4 -4 4 -10z"/>
<path d="M747 4491 c-10 -16 -13 -32 -8 -35 9 -6 41 36 41 54 0 19 -16 10 -33
-19z"/>
<path d="M2854 4416 c-25 -54 -43 -100 -40 -103 9 -10 38 20 53 55 14 33 28
46 16 15 -6 -16 -5 -16 10 -4 9 7 14 17 11 23 -3 5 -1 14 4 21 19 24 22 64 7
77 -13 11 -22 -2 -61 -84z"/>
<path d="M3523 4493 c-7 -2 -13 -9 -13 -15 0 -6 7 -8 15 -4 9 3 21 -4 31 -19
22 -34 38 -21 19 16 -15 28 -26 33 -52 22z"/>
<path d="M816 4458 c-21 -30 -20 -41 4 -33 16 5 20 2 20 -14 0 -12 4 -21 8
-21 12 0 45 61 37 68 -4 4 -10 1 -12 -5 -7 -20 -23 -15 -23 7 0 26 -15 25 -34
-2z"/>
<path d="M3436 4437 c-23 -17 -11 -51 16 -44 16 5 17 3 7 -9 -9 -11 -8 -14 4
-14 20 0 40 26 32 40 -4 7 -16 10 -26 7 -11 -3 -19 -1 -19 4 0 5 5 9 10 9 6 0
10 5 10 10 0 14 -13 13 -34 -3z"/>
<path d="M895 4414 c-19 -20 -16 -43 8 -58 34 -22 73 27 47 59 -16 19 -35 19
-55 -1z m38 -35 c-17 -17 -37 -1 -22 17 8 10 15 12 23 4 7 -7 7 -13 -1 -21z"/>
<path d="M3390 4392 c0 -19 -4 -22 -20 -17 -24 8 -26 -7 -4 -40 15 -22 42 -26
29 -4 -11 17 6 31 21 18 22 -18 18 14 -6 42 l-19 24 -1 -23z"/>
<path d="M972 4362 c-13 -17 -18 -33 -13 -37 12 -7 44 40 39 56 -2 7 -14 -1
-26 -19z"/>
<path d="M1006 4339 c-20 -33 -15 -49 9 -29 8 7 16 9 16 4 1 -5 2 -13 4 -19 1
-5 3 -14 4 -20 1 -9 41 49 41 60 0 3 -12 2 -26 -1 -23 -6 -25 -4 -19 15 10 31
-8 26 -29 -10z"/>
<path d="M3273 4334 c-9 -24 10 -49 37 -49 31 0 48 28 31 49 -17 21 -60 21
-68 0z m55 -21 c2 -8 -5 -13 -17 -13 -12 0 -21 6 -21 16 0 18 31 15 38 -3z"/>
<path d="M1094 4305 c-4 -8 0 -23 7 -32 12 -14 11 -15 -11 -8 -22 7 -23 6 -11
-9 29 -34 67 -4 40 32 -13 15 -12 16 3 4 10 -8 18 -9 22 -3 4 6 -2 15 -13 20
-26 14 -31 14 -37 -4z"/>
<path d="M3201 4296 c-9 -10 -9 -20 0 -40 7 -14 16 -26 21 -26 11 0 10 7 -2
30 -15 28 10 39 28 12 22 -33 35 -26 17 8 -17 32 -45 39 -64 16z"/>
<path d="M1160 4250 c0 -46 8 -49 38 -17 26 27 28 42 7 33 -9 -3 -18 1 -21 9
-11 28 -24 15 -24 -25z"/>
<path d="M3138 4266 c-23 -17 -23 -30 -1 -22 11 5 23 -1 34 -16 24 -31 34 -17
14 21 -17 34 -22 36 -47 17z"/>
<path d="M1242 4233 c-20 -4 -21 -7 -10 -20 11 -14 10 -15 -10 -9 -12 4 -22 4
-22 -1 0 -8 40 -37 44 -31 33 45 44 69 29 67 -5 -1 -18 -4 -31 -6z"/>
<path d="M3080 4226 c-15 -20 -9 -56 12 -70 13 -8 22 -6 37 8 l20 19 -20 28
c-23 33 -31 35 -49 15z m35 -34 c0 -18 -20 -15 -23 4 -3 10 1 15 10 12 7 -3
13 -10 13 -16z"/>
<path d="M1320 4190 c0 -5 5 -10 10 -10 6 0 10 5 10 10 0 6 -4 10 -10 10 -5 0
-10 -4 -10 -10z"/>
<path d="M1342 4142 c-31 -17 -36 -37 -7 -26 8 4 15 -3 17 -18 2 -19 6 -16 20
20 18 47 17 48 -30 24z"/>
<path d="M2996 4138 c-21 -30 -20 -33 10 -53 24 -16 27 -16 45 1 25 23 24 29
-10 54 l-30 20 -15 -22z m24 -18 c0 -5 -5 -10 -11 -10 -5 0 -7 5 -4 10 3 6 8
10 11 10 2 0 4 -4 4 -10z m30 -14 c0 -3 -4 -8 -10 -11 -5 -3 -10 -1 -10 4 0 6
5 11 10 11 6 0 10 -2 10 -4z"/>
<path d="M1415 4112 c5 -16 1 -30 -11 -43 -27 -30 -6 -36 24 -6 l26 27 -23 22
-23 23 7 -23z"/>
<path d="M2950 4075 c-7 -9 -10 -19 -6 -22 4 -4 11 -1 16 7 8 12 10 9 11 -10
0 -14 3 -19 6 -12 8 21 21 13 16 -10 -4 -22 -4 -23 11 -4 21 26 20 32 -6 50
-28 20 -32 20 -48 1z"/>
<path d="M1430 4043 c-25 -25 -25 -25 -2 -20 18 4 22 1 22 -19 0 -31 11 -30
41 2 l24 27 -22 -6 c-20 -4 -22 -2 -17 19 8 32 -13 31 -46 -3z"/>
<path d="M1479 3974 c-17 -21 0 -49 31 -49 27 0 46 25 37 49 -8 21 -51 21 -68
0z m51 -14 c0 -12 -28 -25 -36 -17 -9 9 6 27 22 27 8 0 14 -5 14 -10z"/>
<path d="M2895 3981 c-3 -6 7 -17 22 -25 l28 -15 -38 -16 c-24 -10 -37 -21
-34 -29 3 -8 1 -18 -5 -24 -7 -7 -1 -15 20 -26 43 -22 62 -20 32 4 -21 16 -22
18 -5 14 16 -4 21 0 22 16 2 17 -2 21 -18 17 -10 -3 -17 -1 -13 4 3 5 11 9 18
9 17 0 31 18 41 49 6 20 4 23 -10 18 -9 -4 -25 -2 -35 3 -12 6 -21 7 -25 1z"/>
<path d="M2673 3892 c-3 -14 -13 -22 -28 -22 -27 0 -86 -19 -100 -32 -6 -6 4
-7 27 -3 l36 7 -8 -38 c-5 -21 -15 -43 -23 -49 -7 -5 -17 -22 -20 -36 -4 -17
-26 -40 -59 -62 -29 -19 -71 -54 -92 -76 -48 -49 -55 -98 -25 -176 10 -27 19
-58 19 -68 0 -21 -44 -40 -72 -31 -10 3 -25 0 -33 -6 -16 -13 -35 -6 -35 14 0
20 -54 65 -86 72 -17 3 -61 -2 -98 -11 -80 -20 -178 -24 -197 -8 -29 24 -67 3
-100 -55 -17 -31 -31 -68 -31 -82 0 -14 -7 -38 -15 -53 -8 -15 -12 -36 -9 -45
5 -14 -7 -24 -48 -44 -81 -40 -165 -124 -219 -220 -57 -102 -60 -133 -14 -208
31 -53 38 -58 167 -122 74 -37 197 -88 273 -114 75 -25 137 -49 137 -54 0 -5
-9 -12 -20 -15 -23 -7 -50 -32 -50 -46 0 -5 22 7 50 26 57 40 60 41 60 18 0
-15 2 -15 9 -4 8 12 17 12 58 1 26 -7 60 -19 74 -26 15 -7 29 -11 32 -8 7 7
95 -21 161 -52 27 -13 54 -20 58 -17 14 8 -20 40 -49 48 -21 5 -110 43 -122
51 -3 3 54 111 65 123 2 2 17 -2 34 -9 28 -11 38 -10 83 8 92 37 134 44 172
30 19 -6 35 -17 35 -24 0 -6 7 -14 15 -18 8 -3 12 -12 9 -21 -3 -8 -1 -15 5
-15 6 0 11 -11 11 -24 0 -13 5 -26 10 -28 7 -2 6 -14 -2 -35 -19 -49 5 -76 94
-103 84 -26 170 -30 213 -9 17 8 45 37 63 64 41 60 39 91 -9 205 -83 199 -184
344 -322 464 -42 37 -84 80 -92 96 -30 59 -47 124 -42 164 5 36 1 44 -38 91
-24 28 -48 63 -54 77 -14 37 10 132 42 166 27 30 84 131 97 174 5 17 3 43 -5
70 -12 39 -11 46 7 76 11 18 17 36 14 40 -4 3 -9 -4 -13 -16z m-492 -548 c46
-23 29 -28 -53 -13 -58 10 -68 14 -48 20 41 12 69 10 101 -7z m51 -520 c11
-10 32 -23 48 -29 15 -5 72 -52 126 -104 l98 -93 -114 3 -114 4 -16 -27 -16
-27 -45 30 c-25 16 -43 36 -41 44 2 10 -6 15 -25 15 -20 0 -24 3 -14 9 11 7 6
16 -24 43 -21 18 -48 40 -61 49 l-24 15 22 20 c13 10 40 28 61 38 20 11 37 24
37 29 0 16 80 1 102 -19z"/>
<path d="M1540 3868 c-5 -13 -9 -17 -9 -10 -1 16 -21 16 -21 -1 0 -38 50 -42
51 -3 0 19 1 19 11 -4 9 -21 12 -22 15 -7 11 45 -30 66 -47 25z"/>
<path d="M1590 3801 c0 -19 -3 -21 -14 -12 -11 10 -15 8 -19 -6 -4 -17 -5 -17
-6 0 -1 19 -21 24 -21 5 1 -29 17 -40 49 -33 32 7 40 26 21 55 -8 12 -10 10
-10 -9z"/>
<path d="M2877 3809 c-23 -13 -22 -56 2 -64 28 -9 51 5 51 31 0 29 -28 46 -53
33z m33 -35 c0 -17 -26 -19 -36 -3 -7 12 15 31 28 23 4 -3 8 -12 8 -20z"/>
<path d="M1593 3743 c-7 -3 -13 -12 -14 -21 0 -11 -2 -12 -6 -4 -7 19 -23 14
-23 -7 0 -16 28 -38 35 -29 1 2 7 12 13 23 10 17 11 18 12 3 0 -10 5 -18 10
-18 14 0 12 36 -2 47 -7 6 -19 8 -25 6z"/>
<path d="M1586 3658 c-10 -15 -14 -17 -10 -5 4 9 1 17 -5 17 -16 0 -13 -47 3
-53 8 -3 21 4 30 16 11 15 14 16 10 5 -7 -20 12 -25 19 -5 5 14 -10 47 -22 47
-5 0 -16 -10 -25 -22z"/>
<path d="M2896 3672 c-3 -5 -19 -7 -37 -4 -22 3 -30 1 -25 -7 4 -6 16 -11 27
-11 10 0 19 -7 19 -15 0 -25 19 -17 26 10 7 26 0 44 -10 27z"/>
<path d="M2820 3611 c0 -6 5 -11 10 -11 6 0 10 -7 10 -15 0 -8 -7 -15 -15 -15
-28 0 -15 -17 17 -24 31 -6 55 3 31 11 -18 6 -16 33 2 33 8 0 15 5 15 10 0 6
-9 10 -19 10 -11 0 -26 3 -35 6 -9 3 -16 1 -16 -5z"/>
<path d="M1561 3578 c-1 -25 2 -28 34 -28 32 0 35 3 34 28 -1 16 -3 20 -6 10
-2 -10 -8 -18 -13 -18 -5 0 -11 8 -13 18 -4 16 -5 16 -6 0 0 -10 -5 -18 -10
-18 -5 0 -12 8 -14 18 -3 10 -5 6 -6 -10z"/>
<path d="M1553 3514 c-3 -9 -1 -24 4 -34 9 -13 7 -19 -8 -28 -10 -7 -19 -18
-19 -26 0 -16 54 -41 69 -31 17 10 13 53 -6 64 -16 9 -16 10 5 11 23 0 32 20
10 20 -7 0 -5 5 5 11 26 15 21 24 -18 27 -25 1 -37 -3 -42 -14z m37 -89 c0
-17 -2 -18 -24 -9 -23 9 -20 24 4 24 11 0 20 -7 20 -15z"/>
<path d="M2810 3520 c0 -5 16 -10 35 -10 19 0 35 5 35 10 0 6 -16 10 -35 10
-19 0 -35 -4 -35 -10z"/>
<path d="M2810 3470 c0 -5 6 -10 12 -10 7 0 2 -7 -11 -16 -28 -20 -13 -34 34
-34 28 1 29 2 12 14 -18 14 -17 14 2 21 25 8 27 21 5 29 -24 9 -54 7 -54 -4z"/>
<path d="M2802 3388 c-20 -20 -15 -58 8 -58 11 0 20 7 20 15 0 8 -4 15 -10 15
-5 0 -10 5 -10 10 0 6 10 10 21 10 16 0 20 -5 16 -20 -6 -23 11 -27 19 -5 13
33 -38 59 -64 33z"/>
<path d="M1500 3363 c0 -5 5 -14 12 -21 9 -9 7 -12 -9 -12 -12 0 -24 -4 -27
-8 -7 -11 53 -46 62 -37 4 4 1 10 -6 12 -18 7 -4 23 19 23 38 0 24 15 -43 48
-5 2 -8 0 -8 -5z"/>
<path d="M2831 3308 c-7 -17 -10 -19 -10 -5 -1 23 -21 22 -21 -2 0 -22 25 -45
40 -36 5 3 11 16 11 28 1 17 2 18 6 5 7 -26 25 -22 21 4 -4 32 -36 35 -47 6z"/>
<path d="M1456 3292 c-3 -5 8 -18 24 -30 16 -12 31 -18 35 -13 3 5 -8 19 -24
30 -16 12 -32 17 -35 13z"/>
<path d="M2860 3249 c0 -5 5 -7 10 -4 6 3 10 8 10 11 0 2 -4 4 -10 4 -5 0 -10
-5 -10 -11z"/>
<path d="M1400 3215 c-17 -21 -2 -38 28 -30 23 6 24 5 11 -11 -12 -15 -12 -17
0 -13 25 9 38 38 21 49 -9 6 -18 6 -24 0 -16 -16 -30 -11 -16 5 7 8 8 15 2 15
-5 0 -15 -7 -22 -15z"/>
<path d="M2882 3191 c-17 -10 -12 -53 6 -59 9 -3 11 3 6 22 -5 20 -2 26 10 26
9 0 19 -7 22 -15 4 -8 10 -12 15 -9 5 3 5 13 -1 25 -11 20 -36 24 -58 10z"/>
<path d="M1357 3162 c-21 -23 -22 -36 -3 -29 8 3 22 -1 33 -8 28 -22 39 -17
16 8 -11 12 -22 28 -24 35 -3 10 -9 9 -22 -6z"/>
<path d="M2922 3122 l-23 -18 20 -25 21 -24 -6 27 c-4 21 -1 27 15 33 23 7 29
25 9 25 -7 0 -23 -8 -36 -18z"/>
<path d="M1312 3098 c-7 -7 -12 -17 -12 -24 0 -15 28 -26 35 -14 4 6 11 10 17
10 6 0 6 -6 -2 -15 -18 -22 -6 -29 14 -9 23 22 15 39 -17 37 -19 -1 -24 2 -20
13 6 17 1 18 -15 2z"/>
<path d="M2965 3055 c-20 -9 -24 -14 -12 -14 10 -1 17 -9 17 -21 0 -27 14 -25
34 5 30 46 17 56 -39 30z"/>
<path d="M1270 3041 c0 -6 13 -17 30 -26 33 -17 40 -18 40 -7 0 8 -14 16 -62
40 -5 2 -8 -1 -8 -7z"/>
<path d="M3024 3005 c-3 -8 -3 -19 1 -25 3 -5 2 -10 -4 -10 -5 0 -11 6 -14 13
-2 6 -8 9 -13 4 -11 -11 31 -51 46 -42 7 4 9 17 5 33 -5 22 -4 24 9 13 19 -16
22 -1 4 17 -16 16 -27 15 -34 -3z"/>
<path d="M1254 2993 c6 -17 3 -23 -8 -23 -9 0 -16 -5 -16 -11 0 -6 9 -8 20 -4
13 4 22 1 26 -9 7 -19 28 -22 21 -3 -2 6 3 17 12 24 14 11 14 12 -3 13 -11 0
-28 8 -39 18 -19 16 -19 16 -13 -5z"/>
<path d="M3072 2936 c5 -26 -7 -37 -15 -13 -2 6 -8 9 -13 4 -12 -12 22 -41 41
-33 12 4 14 12 9 28 -6 21 -5 22 11 8 16 -13 17 -12 14 5 -3 12 -14 21 -28 23
-21 3 -23 0 -19 -22z"/>
<path d="M1206 2914 c-10 -27 -7 -32 26 -43 33 -12 48 -3 48 28 0 11 -3 11
-15 1 -12 -10 -15 -9 -16 6 0 11 -3 14 -6 7 -2 -7 -9 -13 -14 -13 -4 0 -6 7
-3 15 4 8 2 15 -4 15 -5 0 -13 -7 -16 -16z"/>
<path d="M3119 2873 c-7 -16 -15 -32 -17 -36 -3 -5 5 -4 16 2 11 6 30 11 41
11 12 0 21 5 21 10 0 6 -9 10 -20 10 -13 0 -18 5 -14 15 11 27 -12 16 -27 -12z"/>
<path d="M1180 2778 c0 -26 2 -29 15 -18 8 7 24 10 35 7 33 -8 23 8 -15 25
l-35 16 0 -30z"/>
<path d="M3156 2771 c-3 -5 1 -12 10 -15 9 -4 14 -13 10 -21 -3 -8 -2 -15 3
-15 9 0 51 43 51 53 0 10 -68 8 -74 -2z"/>
<path d="M1218 2711 c-37 -21 -35 -38 5 -44 38 -6 44 -2 29 16 -8 10 -8 17 -1
24 18 18 -4 21 -33 4z"/>
<path d="M3213 2708 c-29 -14 -30 -32 -2 -23 18 6 19 5 10 -13 -19 -35 -13
-42 21 -28 38 16 53 42 18 31 -19 -6 -21 -5 -11 13 6 12 11 23 11 26 0 9 -22
6 -47 -6z"/>
<path d="M1233 2628 c-25 -12 -32 -34 -8 -25 19 8 31 -13 14 -24 -24 -15 0
-22 31 -9 34 14 40 30 10 30 -23 0 -26 10 -8 28 16 16 -7 15 -39 0z"/>
<path d="M3251 2624 c-32 -13 -33 -15 -19 -37 19 -28 41 -32 62 -12 19 20 20
26 4 48 -12 14 -17 14 -47 1z m39 -24 c0 -12 -28 -25 -36 -17 -9 9 6 27 22 27
8 0 14 -5 14 -10z"/>
<path d="M1297 2535 c-11 -7 -26 -11 -34 -8 -13 5 -12 1 3 -22 17 -25 18 -26
25 -7 4 10 14 22 23 25 9 4 16 11 16 17 0 14 -11 12 -33 -5z"/>
<path d="M3288 2503 c-22 -5 -24 -23 -3 -23 8 0 15 -6 16 -12 0 -7 4 -4 9 7 7
18 8 19 15 3 9 -24 25 -13 18 12 -5 19 -19 23 -55 13z"/>
<path d="M1363 2473 c-7 -3 -13 -12 -13 -20 0 -9 6 -13 15 -9 9 3 15 0 15 -9
0 -23 -22 -29 -36 -10 -16 21 -27 16 -18 -8 14 -37 74 -27 74 12 -1 23 -23 49
-37 44z"/>
<path d="M3284 2400 c-1 -33 3 -35 41 -18 32 14 32 26 -1 38 -37 14 -39 13
-40 -20z"/>
<path d="M1388 2384 c-31 -17 -38 -39 -9 -29 15 5 18 1 13 -20 -5 -29 4 -31
36 -9 24 17 30 36 8 28 -10 -4 -12 2 -9 20 6 30 -1 31 -39 10z"/>
<path d="M3266 2325 c-8 -32 -3 -41 28 -47 52 -10 64 44 15 61 -18 6 -33 11
-34 11 -2 0 -6 -11 -9 -25z"/>
<path d="M1433 2308 c-20 -10 -32 -28 -18 -28 12 0 55 24 55 32 0 10 -9 9 -37
-4z"/>
<path d="M1458 2271 c-33 -19 -36 -31 -8 -31 23 0 26 -10 8 -28 -21 -21 17
-14 43 8 l24 19 -22 1 c-25 0 -29 10 -12 27 18 18 -4 21 -33 4z"/>
<path d="M3242 2248 c-18 -18 -15 -35 10 -52 26 -18 38 -20 38 -7 0 5 -9 13
-20 16 -11 3 -20 13 -20 21 0 17 14 18 41 4 12 -7 19 -7 19 -1 0 10 -32 31
-47 31 -5 0 -14 -5 -21 -12z"/>
<path d="M1850 2229 c0 -5 5 -7 10 -4 6 3 10 8 10 11 0 2 -4 4 -10 4 -5 0 -10
-5 -10 -11z"/>
<path d="M1520 2176 c-6 -8 -18 -12 -26 -9 -26 10 -14 -11 29 -54 l43 -42 29
24 30 24 -24 23 -23 23 7 -22 c5 -19 3 -22 -11 -16 -14 5 -16 3 -11 -12 7 -16
5 -16 -10 -4 -31 24 -33 33 -11 56 17 18 18 23 6 23 -9 0 -21 -6 -28 -14z"/>
<path d="M1840 2181 c0 -6 -10 -16 -22 -21 l-23 -9 23 0 c22 -1 41 23 28 36
-3 4 -6 1 -6 -6z"/>
<path d="M3200 2169 c-13 -23 -4 -41 9 -20 7 10 13 10 29 2 25 -14 32 -14 32
-1 0 5 -13 16 -30 25 -28 14 -30 14 -40 -6z"/>
<path d="M3172 2108 c-32 -32 0 -78 42 -62 22 9 20 51 -3 64 -24 13 -24 13
-39 -2z m35 -23 c7 -20 -2 -29 -21 -22 -9 4 -13 13 -10 22 8 19 23 19 31 0z"/>
<path d="M1605 2070 c-29 -30 -27 -34 9 -30 14 1 17 -3 12 -15 -12 -32 6 -37
35 -9 28 27 31 56 3 33 -11 -9 -14 -8 -14 5 0 10 -5 14 -11 10 -8 -4 -9 0 -4
15 9 28 4 27 -30 -9z"/>
<path d="M1986 2041 c-33 -36 18 -83 52 -49 18 18 14 46 -7 58 -25 13 -25 13
-45 -9z m41 -16 c7 -20 -2 -29 -21 -22 -9 4 -13 13 -10 22 8 19 23 19 31 0z"/>
<path d="M2057 2018 c-6 -39 -2 -45 17 -29 11 9 15 8 20 -4 9 -25 24 -17 31
16 4 18 3 35 -4 42 -8 8 -11 6 -11 -6 0 -21 -16 -22 -24 -2 -9 25 -23 17 -29
-17z"/>
<path d="M1924 1990 c1 -43 11 -49 42 -25 16 12 17 14 3 15 -9 0 -20 11 -23
25 -10 39 -24 30 -22 -15z"/>
<path d="M2175 2021 c-3 -5 2 -17 11 -25 14 -15 14 -16 0 -16 -23 0 -20 -17 4
-23 11 -3 25 2 32 10 10 12 9 17 -5 28 -9 7 -17 16 -17 20 0 4 7 2 15 -5 12
-10 15 -10 15 4 0 17 -44 23 -55 7z"/>
<path d="M3117 2023 c-15 -14 -6 -42 19 -58 34 -22 46 -9 14 15 -30 22 -20 38
14 22 30 -13 42 -4 18 14 -18 14 -54 18 -65 7z"/>
<path d="M1690 2001 c-7 -15 -5 -24 8 -41 16 -19 22 -21 40 -11 22 12 27 27
16 55 -9 22 -51 20 -64 -3z m48 -18 c-5 -25 -28 -28 -28 -4 0 12 6 21 16 21 9
0 14 -7 12 -17z"/>
<path d="M2242 1985 c-7 -14 -12 -31 -12 -38 1 -17 40 32 40 49 0 23 -16 16
-28 -11z"/>
<path d="M1790 1980 c0 -11 6 -20 14 -20 8 0 18 -5 22 -12 5 -8 2 -9 -9 -5
-10 3 -17 2 -17 -2 0 -15 27 -20 39 -8 16 16 14 28 -6 43 -17 13 -17 14 0 8 9
-3 17 -1 17 5 0 6 -13 11 -30 11 -23 0 -30 -4 -30 -20z"/>
<path d="M2301 1944 c-23 -29 -21 -44 4 -24 13 11 15 8 15 -21 l1 -34 24 28
c28 31 35 57 10 37 -13 -10 -15 -9 -15 8 0 32 -16 35 -39 6z"/>
<path d="M3072 1948 c-24 -24 -14 -41 19 -34 27 5 30 4 19 -9 -10 -12 -10 -15
3 -15 17 0 30 27 21 42 -3 5 -18 7 -32 3 -22 -5 -24 -4 -13 9 16 19 1 22 -17
4z"/>
<path d="M2844 1939 c-16 -21 -25 -49 -15 -49 15 0 33 28 29 46 -2 14 -5 15
-14 3z"/>
<path d="M2375 1897 c-27 -20 -13 -67 20 -67 35 0 52 35 29 61 -20 23 -25 23
-49 6z m40 -28 c0 -7 -8 -15 -17 -17 -18 -3 -25 18 -11 32 10 10 28 1 28 -15z"/>
<path d="M3035 1900 c3 -5 8 -10 11 -10 2 0 4 5 4 10 0 6 -5 10 -11 10 -5 0
-7 -4 -4 -10z"/>
<path d="M2436 1834 c-15 -14 -26 -28 -22 -31 9 -9 56 26 56 42 0 19 0 19 -34
-11z"/>
<path d="M2967 1842 c-9 -10 -17 -22 -17 -25 0 -16 43 -48 56 -43 27 10 28 37
2 62 -24 24 -25 24 -41 6z m23 -16 c0 -3 -4 -8 -10 -11 -5 -3 -10 -1 -10 4 0
6 5 11 10 11 6 0 10 -2 10 -4z"/>
<path d="M2476 1798 c-20 -28 -22 -58 -4 -40 18 18 28 15 28 -8 0 -30 14 -24
33 15 15 31 8 51 -8 25 -9 -15 -27 -1 -21 16 8 22 -11 16 -28 -8z"/>
<path d="M2903 1795 c-19 -21 -16 -27 9 -19 21 6 22 5 8 -11 -14 -17 -13 -17
10 -10 20 6 23 5 13 -6 -20 -20 -15 -31 7 -17 26 17 25 30 -3 56 -27 26 -28
26 -44 7z"/>
<path d="M2560 1760 c0 -11 5 -20 10 -20 6 0 10 -4 10 -10 0 -5 -7 -7 -15 -4
-8 4 -15 2 -15 -4 0 -15 32 -24 44 -12 7 7 7 17 -2 31 -12 19 -11 20 7 14 24
-7 29 10 5 19 -29 11 -44 6 -44 -14z"/>
<path d="M2635 1723 c9 -51 13 -53 41 -18 29 36 30 48 5 40 -11 -3 -22 -1 -26
5 -15 24 -27 9 -20 -27z"/>
<path d="M2740 1720 c0 -5 -7 -10 -15 -10 -18 0 -20 -16 -2 -23 7 -3 5 -6 -5
-6 -25 -1 -22 -18 4 -24 27 -7 25 -10 33 36 5 25 4 37 -4 37 -6 0 -11 -4 -11
-10z"/>
</g>
</svg>
